<svg width="156" height="156" viewBox="0 0 156 156" fill="none" xmlns="http://www.w3.org/2000/svg">
<g clip-path="url(#clip0_2404_369898)">
<path d="M64.814 138.089C30.8098 138.089 3.14453 110.427 3.14453 76.4195C3.14453 42.4154 30.806 14.75 64.814 14.75C98.8219 14.75 126.48 42.4154 126.48 76.4195C126.48 110.427 98.8181 138.089 64.814 138.089Z" fill="white"/>
<path d="M103.822 90.7747C105.491 86.2757 106.401 81.4087 106.401 76.3294C106.401 53.364 87.7829 34.7422 64.8176 34.7422C41.8523 34.7422 23.2344 53.3603 23.2344 76.3294C23.2344 99.2985 41.8523 117.913 64.8176 117.913C73.3604 117.913 81.3001 115.337 87.9044 110.918C90.6736 102.47 96.3827 95.3533 103.822 90.7747Z" fill="#FFE67D"/>
<path d="M33.1953 129.668C33.1953 129.668 63.4744 149.489 96.6137 129.24V107.01C96.6137 107.01 94.1859 90.0156 77.4569 90.0156H49.9736C49.9736 90.0156 33.9843 92.3865 33.8516 107.139L33.1953 129.668Z" fill="white"/>
<path d="M82.8011 70.426C82.8011 80.3571 74.7477 88.4105 64.8128 88.4105C54.8854 88.4105 46.832 80.3571 46.832 70.426C46.832 60.491 54.8892 52.4414 64.8128 52.4414C74.7477 52.4414 82.8011 60.491 82.8011 70.426Z" fill="white"/>
<path d="M64.813 49.2969C53.1634 49.2969 43.6875 58.7728 43.6875 70.4262C43.6875 82.0757 53.1634 91.5555 64.813 91.5555C76.4664 91.5555 85.9461 82.0757 85.9461 70.4262C85.9461 58.7728 76.4664 49.2969 64.813 49.2969ZM64.813 85.2622C56.6306 85.2622 49.9731 78.6048 49.9731 70.4224C49.9731 62.24 56.6306 55.5826 64.813 55.5826C72.9992 55.5826 79.6566 62.24 79.6566 70.4224C79.6566 78.6048 72.9992 85.2622 64.813 85.2622Z" fill="#545859"/>
<path d="M91.9105 102.477C93.1472 100.542 94.5621 98.733 96.1249 97.0639C92.3695 91.1765 85.7878 87.2617 78.3072 87.2617H51.3284C39.6788 87.2617 30.1992 96.7415 30.1992 108.391V129.668H36.4848V108.391C36.4848 100.209 43.1422 93.5512 51.3284 93.5512H78.3072C84.3881 93.5512 89.6231 97.2308 91.9105 102.477Z" fill="#545859"/>
<path d="M86.926 130.601C80.1017 133.397 72.6362 134.945 64.8142 134.945C32.5436 134.945 6.28932 108.69 6.28932 76.4236C6.28932 44.1531 32.5436 17.8951 64.8142 17.8951C97.0848 17.8951 123.335 44.1493 123.335 76.4236C123.335 79.4318 123.107 82.3907 122.667 85.2775C122.891 85.2737 123.111 85.2699 123.335 85.2699C125.247 85.2699 127.125 85.414 128.957 85.6909C129.393 82.6638 129.621 79.5684 129.621 76.4236C129.621 40.6859 100.548 11.6094 64.8103 11.6094C29.0726 11.6094 0 40.6859 0 76.4236C0 112.161 29.0726 141.234 64.8103 141.234C73.281 141.234 81.3762 139.599 88.7999 136.629C88.0147 134.69 87.385 132.68 86.926 130.601Z" fill="#545859"/>
<path d="M124.613 153.26C141.637 152.671 154.96 138.392 154.371 121.367C153.782 104.343 139.503 91.0192 122.478 91.6086C105.454 92.198 92.1301 106.477 92.7196 123.502C93.309 140.526 107.588 153.849 124.613 153.26Z" fill="white"/>
<path d="M123.337 89.8555C105.326 89.8555 90.6719 104.509 90.6719 122.521C90.6719 140.532 105.326 155.186 123.337 155.186C123.788 155.186 124.24 155.178 124.68 155.159L125.34 155.133L125.18 151.286L124.52 151.313C124.134 151.328 123.735 151.335 123.337 151.335C107.45 151.335 94.5222 138.407 94.5222 122.521C94.5222 106.634 107.45 93.7058 123.337 93.7058C139.224 93.7058 152.152 106.634 152.152 122.521C152.152 122.915 152.144 123.313 152.129 123.704L152.102 124.364L155.949 124.52L155.975 123.86C155.994 123.416 156.002 122.964 156.002 122.521C156.002 104.509 141.348 89.8555 123.337 89.8555Z" fill="#545859"/>
<path d="M141.191 145.14C140.603 145.603 139.988 146.051 139.366 146.472L138.816 146.84L140.963 150.038L141.513 149.67C142.223 149.195 142.917 148.687 143.577 148.164L144.097 147.754L141.711 144.734L141.191 145.14Z" fill="#545859"/>
<path d="M137.442 147.655C136.786 148.023 136.111 148.368 135.435 148.683L134.836 148.96L136.452 152.453L137.051 152.176C137.821 151.82 138.584 151.429 139.327 151.012L139.904 150.689L138.015 147.336L137.442 147.655Z" fill="#545859"/>
<path d="M133.359 149.544C132.657 149.802 131.936 150.041 131.215 150.246L130.578 150.428L131.629 154.134L132.266 153.952C133.086 153.721 133.905 153.451 134.698 153.159L135.316 152.928L133.977 149.316L133.359 149.544Z" fill="#545859"/>
<path d="M129.02 150.774C128.287 150.922 127.54 151.039 126.793 151.13L126.137 151.21L126.592 155.034L127.248 154.954C128.098 154.852 128.948 154.719 129.775 154.552L130.423 154.423L129.668 150.648L129.02 150.774Z" fill="#545859"/>
<path d="M147.292 138.538C146.871 139.164 146.423 139.779 145.964 140.363L145.555 140.883L148.574 143.269L148.984 142.749C149.511 142.081 150.019 141.383 150.49 140.682L150.858 140.132L147.66 137.988L147.292 138.538Z" fill="#545859"/>
<path d="M151.946 125.957C151.859 126.7 151.738 127.452 151.594 128.184L151.465 128.832L155.239 129.583L155.368 128.935C155.535 128.104 155.668 127.254 155.77 126.408L155.85 125.752L152.026 125.297L151.946 125.957Z" fill="#545859"/>
<path d="M144.497 142.076C143.985 142.629 143.45 143.164 142.9 143.673L142.414 144.124L145.028 146.95L145.513 146.502C146.132 145.93 146.742 145.323 147.323 144.693L147.77 144.207L144.944 141.594L144.497 142.076Z" fill="#545859"/>
<path d="M151.066 130.376C150.861 131.1 150.626 131.821 150.368 132.519L150.137 133.137L153.748 134.476L153.979 133.858C154.275 133.061 154.541 132.242 154.772 131.423L154.951 130.785L151.248 129.738L151.066 130.376Z" fill="#545859"/>
<path d="M149.503 134.599C149.192 135.275 148.843 135.954 148.475 136.61L148.152 137.187L151.51 139.072L151.832 138.495C152.249 137.752 152.64 136.986 152.997 136.219L153.273 135.62L149.78 134.004L149.503 134.599Z" fill="#545859"/>
<path d="M124.097 144.316C136.182 143.897 145.64 133.761 145.222 121.676C144.803 109.591 134.667 100.133 122.582 100.551C110.496 100.969 101.038 111.106 101.457 123.191C101.875 135.276 112.012 144.734 124.097 144.316Z" fill="#FFD100"/>
<path d="M139.642 114.755L133.634 108.742L118.171 124.204L113.532 119.565L107.52 125.577L118.099 136.294L139.642 114.755Z" fill="white"/>
<path d="M118.093 138.09L105.738 125.575L113.53 117.784L118.169 122.423L133.631 106.961L141.427 114.76L118.093 138.09ZM109.3 125.583L118.105 134.505L137.853 114.756L133.627 110.531L118.166 125.992L113.526 121.353L109.3 125.583Z" fill="#545859"/>
<path d="M135.88 69.0622L123.813 63.1218L111.746 69.0622V39.117L123.813 32.1523L135.88 39.117V69.0622Z" fill="#FFE67D"/>
<path d="M111.748 70.3165C111.516 70.3165 111.285 70.252 111.084 70.1268C110.716 69.8992 110.492 69.4933 110.492 69.0609V39.1157C110.492 38.6681 110.731 38.2508 111.122 38.027L123.189 31.0585C123.576 30.8347 124.057 30.8347 124.444 31.0585L136.507 38.027C136.894 38.2508 137.137 38.6643 137.137 39.1157V69.0571C137.137 69.4895 136.913 69.8954 136.545 70.123C136.177 70.3506 135.715 70.3734 135.328 70.1837L123.818 64.5164L112.305 70.1837C112.127 70.2748 111.937 70.3165 111.748 70.3165ZM113.003 39.844V67.0428L123.261 61.9938C123.61 61.8193 124.02 61.8193 124.369 61.9938L134.622 67.0428V39.844L123.815 33.6039L113.003 39.844Z" fill="#545859"/>
<path d="M123.814 55.214C122.589 55.214 121.693 54.2847 120.976 53.5374C120.696 53.2453 120.222 52.7521 120.02 52.6876C119.819 52.6914 119.224 53.0101 118.833 53.2187C118.074 53.6246 117.289 54.0457 116.417 54.0457C116.159 54.0457 115.905 54.0077 115.669 53.9281C114.509 53.5525 113.951 52.3955 113.5 51.4662C113.321 51.0982 113.025 50.4875 112.851 50.3547C112.851 50.3547 112.851 50.3547 112.847 50.3547C112.832 50.3547 112.775 50.3433 112.669 50.3433C112.373 50.3433 111.963 50.4154 111.565 50.4875C111.057 50.5785 110.533 50.6695 110.01 50.6695C109.327 50.6695 108.777 50.5102 108.321 50.1802C107.343 49.467 107.176 48.2531 107.028 47.1796C106.971 46.7661 106.876 46.0757 106.747 45.905C106.595 45.7988 105.909 45.704 105.495 45.6471C104.422 45.4991 103.208 45.3322 102.495 44.3535C101.782 43.3748 101.998 42.1723 102.188 41.1101C102.26 40.6967 102.385 40.0101 102.313 39.8052C102.203 39.6611 101.581 39.3576 101.209 39.1793C100.279 38.7317 99.1225 38.1702 98.747 37.0133C98.3752 35.8714 98.9518 34.7979 99.4601 33.8495C99.6611 33.4778 99.995 32.8519 99.9874 32.6319C99.9267 32.465 99.4374 31.9908 99.1415 31.7101C98.3942 30.9931 97.4648 30.0979 97.4648 28.8726C97.4648 27.6473 98.3942 26.7521 99.1415 26.0351C99.4374 25.7544 99.9267 25.2802 99.995 25.0792C99.995 24.8933 99.6611 24.2674 99.4601 23.8956C98.9518 22.9473 98.3751 21.8737 98.7507 20.7281C99.1262 19.5711 100.279 19.0135 101.209 18.5621C101.581 18.3838 102.203 18.0803 102.324 17.9058C102.381 17.7275 102.26 17.0409 102.188 16.6275C101.998 15.5653 101.785 14.359 102.495 13.3841C103.208 12.4054 104.422 12.2385 105.495 12.0905C105.909 12.0336 106.599 11.9388 106.77 11.8098C106.876 11.6581 106.971 10.9677 107.028 10.558C107.176 9.48826 107.343 8.27436 108.321 7.5612C108.777 7.23117 109.331 7.06806 110.01 7.06806C110.533 7.06806 111.057 7.16289 111.565 7.25014C111.959 7.32222 112.373 7.39429 112.665 7.39429C112.813 7.39429 112.866 7.37532 112.87 7.37532C113.018 7.26532 113.317 6.6432 113.496 6.27523C113.947 5.34585 114.505 4.18886 115.666 3.81331C115.901 3.73744 116.155 3.69571 116.413 3.69571C117.285 3.69571 118.071 4.11678 118.829 4.52268C119.22 4.73132 119.816 5.04996 120.047 5.04996C120.218 4.98927 120.688 4.49992 120.973 4.20403C121.689 3.45673 122.585 2.52734 123.81 2.52734C125.035 2.52734 125.927 3.45673 126.647 4.20403C126.932 4.49992 127.402 4.99306 127.603 5.05755C127.801 5.05376 128.392 4.73511 128.787 4.52647C129.546 4.12058 130.335 3.69951 131.203 3.69951C131.461 3.69951 131.715 3.73744 131.951 3.8171C133.108 4.19265 133.669 5.34964 134.117 6.27903C134.295 6.64699 134.591 7.25773 134.765 7.3905C134.765 7.3905 134.765 7.3905 134.769 7.3905C134.784 7.3905 134.841 7.40188 134.951 7.40188C135.247 7.40188 135.657 7.3298 136.055 7.25773C136.564 7.16669 137.087 7.07564 137.607 7.07564C138.289 7.07564 138.843 7.23497 139.295 7.56879C140.274 8.28195 140.44 9.49584 140.588 10.5656C140.645 10.9791 140.74 11.6695 140.869 11.8402C141.021 11.9464 141.711 12.0412 142.121 12.0981C143.194 12.2461 144.408 12.413 145.118 13.3917C145.831 14.3666 145.614 15.5729 145.425 16.635C145.353 17.0485 145.228 17.7389 145.3 17.9438C145.41 18.0879 146.032 18.3914 146.4 18.5697C147.329 19.0173 148.482 19.5787 148.862 20.7357C149.233 21.8775 148.657 22.9511 148.152 23.8994C147.951 24.2712 147.618 24.8971 147.625 25.1171C147.686 25.2878 148.175 25.7582 148.471 26.0427C149.218 26.7597 150.148 27.6549 150.148 28.8802C150.148 30.1054 149.218 31.0007 148.471 31.7177C148.179 31.9984 147.686 32.4725 147.621 32.6736C147.617 32.8595 147.955 33.4854 148.152 33.8609C148.657 34.8093 149.233 35.8828 148.862 37.0246C148.486 38.1854 147.329 38.743 146.4 39.1907C146.028 39.369 145.406 39.6724 145.285 39.8431C145.228 40.0214 145.349 40.7118 145.421 41.1253C145.611 42.1875 145.823 43.3938 145.114 44.3687C144.401 45.3474 143.187 45.5143 142.117 45.6622C141.704 45.7191 141.013 45.814 140.843 45.9429C140.736 46.0947 140.641 46.7813 140.585 47.191C140.437 48.2645 140.27 49.4784 139.291 50.1916C138.836 50.5216 138.286 50.6809 137.603 50.6809C137.079 50.6809 136.556 50.5861 136.048 50.4988C135.649 50.4268 135.24 50.3547 134.944 50.3547C134.796 50.3547 134.743 50.3737 134.739 50.3737C134.591 50.4837 134.291 51.1058 134.109 51.4775C133.658 52.4069 133.1 53.5639 131.939 53.9395C131.704 54.0153 131.454 54.0533 131.192 54.0533C130.323 54.0533 129.538 53.6322 128.779 53.2263C128.385 53.0177 127.793 52.699 127.562 52.699C127.391 52.7597 126.917 53.2491 126.636 53.5449C125.934 54.2847 125.039 55.214 123.814 55.214Z" fill="white"/>
<path d="M123.814 3.83241C125.085 3.83241 126.166 6.15019 127.384 6.33986C127.444 6.35124 127.509 6.35503 127.573 6.35503C128.685 6.35503 130.115 5.00078 131.204 5.00078C131.321 5.00078 131.439 5.01596 131.549 5.05389C132.752 5.44461 133.059 7.97861 134.167 8.54383C134.39 8.65763 134.66 8.69936 134.956 8.69936C135.775 8.69936 136.795 8.37313 137.611 8.37313C137.968 8.37313 138.286 8.43382 138.529 8.6159C139.542 9.35562 139.052 11.8593 139.94 12.7431C140.824 13.627 143.331 13.1377 144.067 14.1505C144.803 15.1595 143.567 17.3939 144.139 18.5129C144.705 19.6206 147.239 19.9279 147.629 21.1266C148.012 22.3063 146.146 24.0437 146.343 25.2955C146.533 26.5132 148.851 27.5943 148.851 28.8651C148.851 30.1397 146.533 31.2133 146.343 32.4347C146.146 33.6866 148.012 35.4239 147.629 36.6037C147.239 37.8062 144.705 38.1097 144.139 39.2212C143.567 40.3402 144.803 42.5745 144.067 43.5836C143.328 44.6002 140.824 44.1071 139.936 44.9947C139.052 45.8786 139.542 48.3822 138.529 49.122C138.282 49.3002 137.968 49.3609 137.611 49.3609C136.795 49.3609 135.775 49.0347 134.956 49.0347C134.66 49.0347 134.394 49.0764 134.17 49.1902C133.059 49.7555 132.752 52.2933 131.549 52.6802C131.439 52.7143 131.325 52.7333 131.204 52.7333C130.115 52.7333 128.685 51.379 127.573 51.379C127.509 51.379 127.445 51.3828 127.38 51.3942C126.159 51.5839 125.085 53.9017 123.81 53.9017C122.536 53.9017 121.459 51.5839 120.241 51.3942C120.176 51.3828 120.112 51.379 120.047 51.379C118.936 51.379 117.506 52.7333 116.417 52.7333C116.3 52.7333 116.182 52.7181 116.072 52.6802C114.869 52.2895 114.562 49.7555 113.454 49.1864C113.231 49.0726 112.965 49.0309 112.669 49.0309C111.85 49.0309 110.829 49.3572 110.01 49.3572C109.653 49.3572 109.335 49.2965 109.092 49.1182C108.079 48.3784 108.568 45.8748 107.681 44.9871C106.797 44.1033 104.29 44.5926 103.55 43.5798C102.814 42.5707 104.051 40.3364 103.482 39.2174C102.913 38.1059 100.379 37.7986 99.9879 36.5999C99.6047 35.4202 101.471 33.6828 101.278 32.4309C101.088 31.2095 98.7702 30.1359 98.7702 28.8613C98.7702 27.5906 101.088 26.5094 101.278 25.2917C101.471 24.0399 99.6047 22.3025 99.9879 21.1228C100.379 19.9241 102.913 19.6168 103.478 18.5053C104.051 17.3863 102.814 15.152 103.55 14.1429C104.29 13.1301 106.797 13.6194 107.681 12.7355C108.565 11.8517 108.075 9.34424 109.092 8.60452C109.339 8.42623 109.653 8.36554 110.01 8.36554C110.826 8.36554 111.846 8.69177 112.665 8.69177C112.957 8.69177 113.227 8.65004 113.451 8.53624C114.558 7.97102 114.866 5.43702 116.068 5.0463C116.178 5.01216 116.292 4.9932 116.413 4.9932C117.506 4.9932 118.932 6.34744 120.044 6.34744C120.108 6.34744 120.173 6.34365 120.233 6.33227C121.466 6.15019 122.544 3.83241 123.814 3.83241ZM123.814 1.21875C122.031 1.21875 120.829 2.47058 120.032 3.29754C119.96 3.37341 119.877 3.46066 119.79 3.5479C119.672 3.48721 119.551 3.42272 119.452 3.36961C118.636 2.93337 117.62 2.38712 116.421 2.38712C116.023 2.38712 115.636 2.44782 115.268 2.56541C113.58 3.11546 112.825 4.67076 112.328 5.69877C112.282 5.7974 112.225 5.9112 112.168 6.025C112.043 6.00604 111.914 5.98328 111.797 5.96052C111.262 5.86568 110.651 5.75567 110.014 5.75567C109.062 5.75567 108.235 6.00604 107.559 6.49539C106.129 7.53857 105.894 9.24561 105.739 10.3723C105.724 10.4823 105.705 10.6112 105.686 10.7364C105.557 10.7554 105.428 10.7744 105.321 10.7895C104.191 10.9451 102.488 11.1803 101.444 12.6066C100.405 14.0367 100.705 15.7286 100.906 16.8514C100.925 16.9614 100.948 17.0904 100.97 17.2194C100.856 17.2763 100.743 17.3332 100.644 17.3787C99.6161 17.8756 98.0569 18.6305 97.5106 20.3186C96.9682 21.9877 97.7459 23.4444 98.3149 24.5027C98.368 24.6013 98.4326 24.7227 98.4933 24.8403C98.406 24.9276 98.3187 25.011 98.2428 25.0831C97.4159 25.8797 96.1641 27.0784 96.1641 28.8613C96.1641 30.6442 97.4159 31.8468 98.2428 32.6396C98.3187 32.7117 98.406 32.7951 98.4933 32.8824C98.4326 33 98.368 33.1213 98.3149 33.22C97.7459 34.2821 96.9682 35.7312 97.5106 37.4041C98.0569 39.0922 99.6161 39.8471 100.644 40.344C100.743 40.3895 100.856 40.4464 100.97 40.5033C100.948 40.6323 100.925 40.7613 100.906 40.8713C100.705 41.9941 100.405 43.686 101.444 45.1123C102.488 46.5424 104.195 46.7776 105.325 46.9332C105.435 46.9483 105.564 46.9673 105.689 46.9863C105.708 47.1115 105.727 47.2442 105.742 47.3504C105.898 48.4809 106.133 50.1879 107.563 51.2273C108.242 51.7204 109.066 51.967 110.022 51.967C110.663 51.967 111.27 51.857 111.808 51.7622C111.926 51.7432 112.055 51.7204 112.176 51.6977C112.233 51.8115 112.286 51.9253 112.335 52.0239C112.832 53.0557 113.587 54.611 115.275 55.1611C115.643 55.2787 116.03 55.3394 116.425 55.3394C117.623 55.3394 118.64 54.7969 119.456 54.3569C119.558 54.3038 119.676 54.2393 119.797 54.1786C119.884 54.2658 119.968 54.3531 120.04 54.4289C120.836 55.2559 122.035 56.5077 123.818 56.5077C125.601 56.5077 126.8 55.2559 127.596 54.4289C127.668 54.3531 127.756 54.2658 127.839 54.1786C127.957 54.2393 128.078 54.3038 128.18 54.3607C128.996 54.7969 130.013 55.3432 131.211 55.3432C131.61 55.3432 131.997 55.2825 132.365 55.1649C134.053 54.6186 134.808 53.0595 135.305 52.0315C135.35 51.9329 135.407 51.8191 135.464 51.7053C135.589 51.7242 135.718 51.747 135.836 51.7698C136.37 51.8646 136.981 51.9746 137.619 51.9746C138.575 51.9746 139.398 51.7242 140.073 51.2349C141.503 50.1955 141.738 48.4885 141.894 47.358C141.909 47.248 141.928 47.1228 141.947 46.9939C142.076 46.9749 142.205 46.9559 142.311 46.9407C143.441 46.7852 145.148 46.55 146.188 45.1199C147.227 43.6936 146.924 42.0017 146.726 40.8827C146.708 40.7727 146.685 40.6399 146.662 40.5109C146.776 40.454 146.89 40.3971 146.988 40.3516C148.016 39.8547 149.575 39.0998 150.122 37.4117C150.664 35.7388 149.886 34.2859 149.321 33.2276C149.268 33.1251 149.204 33.0075 149.143 32.8862C149.23 32.7989 149.317 32.7155 149.393 32.6434C150.22 31.8468 151.472 30.648 151.472 28.8651C151.472 27.0822 150.22 25.8797 149.393 25.0869C149.317 25.0148 149.23 24.9276 149.143 24.8441C149.204 24.7265 149.268 24.6051 149.321 24.5065C149.89 23.4444 150.668 21.9915 150.122 20.3186C149.572 18.6305 148.016 17.8794 146.988 17.3787C146.893 17.3332 146.776 17.2763 146.666 17.2194C146.688 17.0904 146.711 16.9614 146.73 16.8514C146.927 15.7286 147.231 14.0367 146.192 12.6104C145.152 11.184 143.445 10.9489 142.315 10.7933C142.205 10.7781 142.076 10.7592 141.951 10.7402C141.932 10.615 141.913 10.4823 141.897 10.376C141.742 9.24561 141.507 7.54237 140.08 6.49918C139.405 6.00604 138.578 5.75567 137.622 5.75567C136.985 5.75567 136.378 5.86189 135.839 5.96052C135.722 5.98328 135.593 6.00604 135.468 6.025C135.411 5.9112 135.354 5.7974 135.308 5.69877C134.811 4.67076 134.056 3.11166 132.368 2.56541C132 2.44402 131.613 2.38333 131.215 2.38333C130.016 2.38333 129 2.92958 128.18 3.36582C128.082 3.41893 127.961 3.48342 127.843 3.54411C127.756 3.45686 127.672 3.36582 127.6 3.29375C126.8 2.47058 125.597 1.21875 123.814 1.21875Z" fill="#545859"/>
<path d="M141.13 28.8718C141.13 38.4312 133.38 46.1812 123.821 46.1812C114.258 46.1812 106.508 38.4274 106.508 28.8718C106.508 19.3086 114.258 11.5625 123.821 11.5625C133.376 11.5625 141.13 19.3124 141.13 28.8718Z" fill="#FFD100"/>
<path d="M123.817 47.4861C113.552 47.4861 105.199 39.133 105.199 28.8681C105.199 18.6031 113.552 10.25 123.817 10.25C134.082 10.25 142.432 18.6031 142.432 28.8681C142.432 39.1368 134.082 47.4861 123.817 47.4861ZM123.817 12.8637C114.99 12.8637 107.813 20.0446 107.813 28.8681C107.813 37.6915 114.994 44.8725 123.817 44.8725C132.641 44.8725 139.818 37.6915 139.818 28.8681C139.818 20.0446 132.641 12.8637 123.817 12.8637Z" fill="#545859"/>
<path d="M123.915 17.8633L127.436 24.9911L135.299 26.1329L129.609 31.6827L130.952 39.5199L123.915 35.8213L116.878 39.5199L118.225 31.6827L112.531 26.1329L120.399 24.9911L123.915 17.8633Z" fill="white"/>
<path d="M116.878 40.6149C116.65 40.6149 116.423 40.5428 116.233 40.4063C115.896 40.1597 115.725 39.7424 115.797 39.3327L117.045 32.0684L111.768 26.9207C111.469 26.6286 111.362 26.1924 111.491 25.7941C111.62 25.3958 111.966 25.1075 112.379 25.0468L119.674 23.9884L122.936 17.3803C123.122 17.0047 123.505 16.7695 123.922 16.7695C124.34 16.7695 124.723 17.0085 124.909 17.3841L128.171 23.9922L135.466 25.0506C135.879 25.1112 136.225 25.3995 136.353 25.7979C136.482 26.1962 136.376 26.6324 136.077 26.9245L130.8 32.0722L132.044 39.3365C132.116 39.75 131.945 40.1673 131.608 40.4101C131.27 40.6566 130.819 40.687 130.451 40.4935L123.93 37.0643L117.405 40.4935C117.231 40.5732 117.052 40.6149 116.878 40.6149ZM114.894 26.9017L118.991 30.8962C119.249 31.1504 119.367 31.5107 119.306 31.8673L118.338 37.5081L123.403 34.8451C123.721 34.6782 124.105 34.6782 124.427 34.8451L129.491 37.5081L128.524 31.8673C128.463 31.5107 128.581 31.1466 128.839 30.8962L132.936 26.9017L127.272 26.0786C126.915 26.0255 126.604 25.8016 126.445 25.4754L123.911 20.3429L121.377 25.4754C121.218 25.7979 120.907 26.0255 120.55 26.0748L114.894 26.9017Z" fill="#545859"/>
</g>
<defs>
<clipPath id="clip0_2404_369898">
<rect width="156" height="156" fill="white"/>
</clipPath>
</defs>
</svg>
