<svg width="156" height="156" viewBox="0 0 156 156" fill="none" xmlns="http://www.w3.org/2000/svg">
<path d="M93.257 88.2216C93.257 90.779 91.167 92.869 88.6064 92.869H7.42759C4.87351 92.869 2.78027 90.779 2.78027 88.2216V40.9728C2.78027 38.4122 4.87351 36.3223 7.42759 36.3223H88.6064C91.167 36.3223 93.257 38.4122 93.257 40.9728V88.2216Z" fill="white"/>
<path d="M24.5671 65.0703H9.83331V70.6361H24.5671V65.0703Z" fill="#545859"/>
<path d="M35.7116 78.0293H9.83331V83.595H35.7116V78.0293Z" fill="#545859"/>
<path d="M44.8964 65.0703H30.1593V70.6361H44.8964V65.0703Z" fill="#545859"/>
<path d="M65.2167 65.0703H50.4829V70.6361H65.2167V65.0703Z" fill="#545859"/>
<path d="M90.2982 89.0109C89.9996 89.6438 89.357 90.0851 88.6074 90.0851H7.42857C6.41603 90.0851 5.5625 89.2316 5.5625 88.2191V40.9702C5.5625 39.9415 6.3998 39.1009 7.42857 39.1009H81.1301C82.1102 37.1537 83.2364 35.2941 84.4923 33.5352H7.42857C3.33296 33.5352 0 36.8714 0 40.967V88.2158C0 92.3115 3.33296 95.6444 7.42857 95.6444H88.6074C91.1063 95.6444 93.3196 94.4047 94.6664 92.5094C93.1314 91.4449 91.671 90.2734 90.2982 89.0109Z" fill="#545859"/>
<path d="M118.733 127.919C118.733 130.476 116.643 132.566 114.086 132.566H32.9103C30.353 132.566 28.2598 130.476 28.2598 127.919V80.6733C28.2598 78.1095 30.353 76.0195 32.9103 76.0195H114.086C116.646 76.0195 118.733 78.1095 118.733 80.6733V127.919Z" fill="white"/>
<path d="M77.2317 103.305C77.2317 109.906 71.8802 115.257 65.2792 115.257C58.6814 115.257 53.3298 109.906 53.3298 103.305C53.3298 96.7038 58.6814 91.3555 65.2792 91.3555C71.8802 91.3522 77.2317 96.7038 77.2317 103.305Z" fill="#FFD100"/>
<path d="M93.6626 103.305C93.6626 109.906 88.3142 115.257 81.7132 115.257C75.1122 115.257 69.7639 109.906 69.7639 103.305C69.7639 96.7038 75.1155 91.3555 81.7132 91.3555C88.3142 91.3522 93.6626 96.7038 93.6626 103.305Z" fill="#FFE67D"/>
<path d="M65.2793 118.039V112.474C70.3355 112.474 74.4506 108.358 74.4506 103.302C74.4506 98.246 70.3355 94.1341 65.2793 94.1341V88.5684C73.4024 88.5684 80.0131 95.1791 80.0131 103.302C80.0131 111.429 73.4056 118.039 65.2793 118.039Z" fill="#545859"/>
<path d="M49.595 100.896H43.6203V106.462H49.595V100.896Z" fill="#545859"/>
<path d="M103.378 100.896H97.4V106.462H103.378V100.896Z" fill="#545859"/>
<path d="M118.734 100.075C117.8 100.075 116.871 100.043 115.953 99.9811V127.917C115.953 128.946 115.116 129.783 114.087 129.783H32.9113C31.8825 129.783 31.042 128.946 31.042 127.917V80.6714C31.042 79.6393 31.8793 78.8021 32.9113 78.8021H82.156C81.1435 77.0236 80.2543 75.1641 79.5078 73.2363H32.9113C28.8125 73.2363 25.4795 76.5725 25.4795 80.6714V127.917C25.4795 132.013 28.8125 135.346 32.9113 135.346H114.087C118.182 135.346 121.519 132.013 121.519 127.917V99.9811C120.597 100.043 119.669 100.075 118.734 100.075Z" fill="#545859"/>
<path d="M77.2518 65.0703H70.8065V70.6361H78.5888C78.0209 68.8317 77.573 66.9721 77.2518 65.0703Z" fill="#545859"/>
<path d="M77.8503 48.0195H6.14136V57.9925H76.6592C76.6592 54.5589 77.0746 51.2194 77.8503 48.0195Z" fill="#FFE67D"/>
<path d="M153.862 57.9946C153.862 77.2881 138.222 92.9306 118.929 92.9306C99.6354 92.9306 83.9962 77.2881 83.9962 57.9946C83.9962 38.7011 99.6354 23.0586 118.929 23.0586C138.222 23.0586 153.862 38.6979 153.862 57.9946Z" fill="white"/>
<path d="M118.733 20.7188C118.227 20.7188 117.711 20.7285 117.201 20.7512L116.591 20.7772L116.757 24.889L117.367 24.863C117.821 24.8436 118.279 24.8339 118.73 24.8339C137.014 24.8339 151.887 39.7072 151.887 57.9915C151.887 76.2757 137.014 91.1523 118.73 91.1523C109.886 91.1523 101.565 87.6992 95.2953 81.4293C89.0253 75.1593 85.5722 66.835 85.5722 57.9947C85.5722 57.5371 85.582 57.0795 85.5982 56.6316L85.6242 56.0215L81.5123 55.856L81.4864 56.4661C81.4669 56.9789 81.4539 57.4917 81.4539 57.9947C81.4539 78.5474 98.1739 95.2674 118.727 95.2674C139.279 95.2674 155.999 78.5474 155.999 57.9947C156.006 37.4388 139.286 20.7188 118.733 20.7188Z" fill="#545859"/>
<path d="M98.1895 31.9644C98.8678 31.4289 99.572 30.9129 100.289 30.4358L100.796 30.095L98.5043 26.6777L97.998 27.0185C97.1932 27.5604 96.3981 28.1381 95.6419 28.7385L95.1649 29.1182L97.7157 32.3473L98.1895 31.9644Z" fill="#545859"/>
<path d="M94.3789 35.4885C94.9663 34.8557 95.5829 34.2358 96.2157 33.6517L96.6636 33.2363L93.8694 30.2148L93.4215 30.6303C92.7108 31.2891 92.0163 31.9836 91.3575 32.6943L90.9421 33.1421L93.9635 35.9364L94.3789 35.4885Z" fill="#545859"/>
<path d="M102.499 29.0702C103.252 28.645 104.031 28.2491 104.81 27.8889L105.365 27.6325L103.635 23.9004L103.08 24.1568C102.201 24.5657 101.328 25.0135 100.484 25.4874L99.9518 25.7859L101.97 29.372L102.499 29.0702Z" fill="#545859"/>
<path d="M112.19 25.4802C113.034 25.3115 113.897 25.1752 114.754 25.0713L115.361 24.9999L114.871 20.9141L114.264 20.9855C113.3 21.1023 112.33 21.2548 111.382 21.4463L110.785 21.5664L111.593 25.6003L112.19 25.4802Z" fill="#545859"/>
<path d="M107.203 26.8964C108.014 26.5946 108.845 26.3253 109.666 26.0916L110.253 25.9261L109.134 21.9668L108.546 22.1323C107.618 22.3952 106.684 22.7002 105.772 23.0377L105.201 23.2487L106.632 27.1074L107.203 26.8964Z" fill="#545859"/>
<path d="M85.8088 54.04C85.9094 53.18 86.0489 52.32 86.2144 51.4762L86.3345 50.8791L82.3006 50.0742L82.1805 50.6713C81.9922 51.6157 81.8365 52.5861 81.7229 53.5532L81.6515 54.1601L85.7374 54.6436L85.8088 54.04Z" fill="#545859"/>
<path d="M91.163 39.5612C91.64 38.8473 92.156 38.1398 92.6915 37.4615L93.068 36.9812L89.8388 34.4336L89.4624 34.9107C88.8588 35.6733 88.2811 36.4684 87.7456 37.27L87.4048 37.7763L90.8222 40.0643L91.163 39.5612Z" fill="#545859"/>
<path d="M86.8213 48.9532C87.055 48.1256 87.3243 47.2948 87.6261 46.4867L87.8371 45.9155L83.9784 44.4844L83.7674 45.0555C83.4299 45.9642 83.1281 46.8956 82.862 47.8335L82.6965 48.421L86.6558 49.5406L86.8213 48.9532Z" fill="#545859"/>
<path d="M88.6235 44.0887C88.9869 43.3034 89.3829 42.5277 89.8048 41.7781L90.1033 41.2458L86.5173 39.2305L86.2187 39.7627C85.7449 40.6065 85.297 41.4795 84.8881 42.3622L84.6317 42.9172L88.3671 44.647L88.6235 44.0887Z" fill="#545859"/>
<path d="M143.82 57.9947C143.82 71.849 132.591 83.0811 118.737 83.0811C104.882 83.0811 93.6533 71.849 93.6533 57.9947C93.6533 44.1403 104.882 32.9082 118.737 32.9082C132.588 32.9082 143.82 44.1403 143.82 57.9947Z" fill="#FFD100"/>
<path d="M134.515 49.0995L127.632 42.2129L118.733 51.1083L109.838 42.2129L102.951 49.0995L111.85 57.995L102.951 66.8904L109.838 73.7738L118.733 64.8815L127.632 73.7738L134.515 66.8904L125.62 57.995L134.515 49.0995Z" fill="#FF0025"/>
</svg>
