<svg width="156" height="156" viewBox="0 0 156 156" fill="none" xmlns="http://www.w3.org/2000/svg">
<g clip-path="url(#clip0_4317_144700)">
<path d="M118.377 24.3195V13.2911C118.377 7.68267 122.902 3.1582 128.51 3.1582C134.118 3.1582 138.643 7.68267 138.643 13.2911V24.3195H118.377Z" fill="#FFD100"/>
<path d="M141.754 27.4767H115.219V13.2906C115.219 5.9855 121.158 0 128.51 0C135.815 0 141.801 5.9855 141.801 13.2906V27.4767H141.754ZM121.535 21.1613H135.438V13.2906C135.438 9.42598 132.328 6.31541 128.51 6.31541C124.692 6.31541 121.582 9.42598 121.582 13.2906V21.1613H121.535Z" fill="#FFD100"/>
<path d="M118.377 13.2904V126.591H118.33L118.377 128.287C118.377 133.472 114.465 137.76 109.422 138.326C106.689 138.326 19.7813 138.326 15.304 138.326C20.3469 137.76 24.2586 133.472 24.2586 128.287V125.978H24.3058V13.3375C24.3058 8.15321 28.2176 3.86439 33.2605 3.29883C35.994 3.29883 122.902 3.29883 127.379 3.29883C122.289 3.81726 118.377 8.10608 118.377 13.2904Z" fill="white"/>
<path d="M128.51 0C128.039 0 127.567 0.0471299 127.096 0.0942598C123.467 0.0942598 93.7281 0.0942598 38.6804 0.0942598H33.2133H32.8363C26.1438 0.848338 21.1009 6.55106 21.1009 13.2906L21.0538 128.24C21.0538 131.775 18.4145 134.744 14.9269 135.169L15.304 141.484C17.6133 141.484 42.2623 141.484 88.591 141.484C87.507 139.505 86.5644 137.384 85.8574 135.169C67.194 135.169 52.1596 135.169 40.8484 135.169C34.5801 135.169 29.4901 135.169 25.484 135.169C26.568 133.378 27.2278 131.304 27.3692 129.136H27.4164V13.2906C27.4164 9.80302 29.9614 6.88097 33.4018 6.40967H38.6804C77.5154 6.40967 103.767 6.40967 117.152 6.40967C117.057 6.55106 117.01 6.69245 116.916 6.83384C116.869 6.88097 116.869 6.97523 116.822 7.02236C116.728 7.16375 116.68 7.30514 116.633 7.44653C116.586 7.54079 116.539 7.63505 116.492 7.7293C116.445 7.87069 116.398 7.96495 116.303 8.10634C116.209 8.34199 116.115 8.53051 116.068 8.76616C116.021 8.86042 116.021 8.95468 115.973 9.04894C115.926 9.19033 115.879 9.37885 115.832 9.52024C115.785 9.6145 115.785 9.70876 115.738 9.80302C115.691 9.99154 115.644 10.1801 115.596 10.3686C115.596 10.4157 115.549 10.51 115.549 10.5571C115.502 10.7927 115.455 11.0755 115.408 11.3583C115.408 11.4526 115.408 11.4997 115.361 11.594C115.314 11.7825 115.314 12.0181 115.314 12.2066C115.314 12.3009 115.314 12.348 115.314 12.4423C115.314 12.7251 115.266 13.0079 115.266 13.2906V87.3788C117.105 87.0961 118.99 86.9547 120.922 86.9547C121.158 86.9547 121.346 86.9547 121.582 86.9547V13.2906C121.582 13.055 121.582 12.8193 121.629 12.5837C121.629 12.4894 121.629 12.4423 121.676 12.348C121.676 12.2066 121.723 12.0181 121.723 11.8767C121.723 11.7825 121.77 11.7353 121.77 11.6411C121.818 11.4997 121.818 11.3583 121.865 11.2169C121.865 11.1227 121.912 11.0755 121.959 10.9813C122.006 10.8399 122.053 10.6985 122.1 10.5571C122.147 10.51 122.147 10.4157 122.195 10.3686C122.242 10.2272 122.336 10.0858 122.383 9.94441C122.43 9.89728 122.43 9.85015 122.477 9.80302C122.572 9.66163 122.619 9.52024 122.713 9.37885C122.76 9.33172 122.76 9.28459 122.807 9.23746C122.902 9.09607 122.996 8.95468 123.137 8.81329C123.184 8.76616 123.184 8.76616 123.231 8.71903C123.326 8.57764 123.467 8.43625 123.608 8.34199C123.656 8.29486 123.656 8.29486 123.703 8.24773C123.844 8.10634 123.986 8.01208 124.127 7.8707C124.174 7.8707 124.174 7.82357 124.221 7.82357C124.363 7.68218 124.504 7.58791 124.692 7.49366C124.74 7.49366 124.74 7.44653 124.787 7.44653C124.928 7.35227 125.07 7.25801 125.258 7.16375C125.305 7.16375 125.352 7.11662 125.352 7.11662C125.494 7.02236 125.635 6.97523 125.776 6.9281C125.824 6.88097 125.918 6.88097 125.965 6.83384C126.012 6.78671 126.059 6.78671 126.154 6.78671C126.672 6.59819 127.238 6.40967 127.85 6.36254C128.133 6.31541 128.369 6.31541 128.651 6.31541C132.469 6.31541 135.627 9.42598 135.627 13.2906V27.4767H141.942V13.2906C141.754 5.9855 135.815 0 128.51 0Z" fill="#545859"/>
<path d="M111.92 23.3773C111.496 24.2257 110.506 24.697 109.564 24.4613C108.621 24.2257 107.961 23.3773 107.961 22.4347V18.8057H107.679C107.254 18.8057 106.877 18.4758 106.877 18.0516C106.83 17.5803 107.207 17.1562 107.679 17.1562H107.961V16.2607C107.961 15.7423 108.386 15.3652 108.857 15.3652C109.375 15.3652 109.752 15.7894 109.752 16.2607V17.1562H110.836C111.308 17.1562 111.638 17.5332 111.638 17.9574C111.638 18.4287 111.26 18.7586 110.836 18.7586H109.752V22.3876C109.752 22.4347 109.799 22.529 109.799 22.5761C109.847 22.6704 109.941 22.7175 110.082 22.7175C110.224 22.7175 110.271 22.6704 110.365 22.6232C110.459 22.5761 110.506 22.4819 110.554 22.3876C110.648 22.2933 110.742 22.1991 110.836 22.1519C110.978 22.0577 111.166 22.0577 111.308 22.1048C111.543 22.1519 111.732 22.2933 111.873 22.4819C111.92 22.529 111.92 22.529 111.92 22.5761C112.062 22.8118 112.062 23.1417 111.92 23.3773Z" fill="#545859"/>
<path d="M106.17 19.701V23.5657C106.17 24.0841 105.746 24.4611 105.275 24.4611C104.757 24.4611 104.38 24.037 104.38 23.5657V20.1723C104.38 19.4182 103.767 18.8055 103.013 18.8055C102.259 18.8055 101.646 19.4182 101.646 20.1723V23.5657C101.646 24.0841 101.222 24.4611 100.75 24.4611C100.232 24.4611 99.855 24.037 99.855 23.5657V18.0986C99.855 17.5802 100.279 17.2031 100.798 17.2031C101.316 17.2031 101.693 17.6273 101.693 18.1457V18.0986V18.1457C101.834 17.9572 101.976 17.8158 102.164 17.6744C102.589 17.3445 103.201 17.2031 103.767 17.2031C104.191 17.2031 104.615 17.2974 104.992 17.533C105.322 17.7216 105.605 18.0043 105.793 18.2871C105.982 18.5699 106.123 18.8998 106.17 19.2297C106.218 19.4182 106.218 19.6539 106.218 19.8424" fill="#545859"/>
<path d="M99.0538 12.6298C99.0538 13.1483 98.6297 13.5253 98.1584 13.5253C97.6399 13.5253 97.2629 13.1011 97.2629 12.6298C97.2629 12.1114 97.6871 11.7344 98.1584 11.7344C98.6768 11.7344 99.0538 12.1585 99.0538 12.6298Z" fill="#FFD100"/>
<path d="M93.9167 15.3642C93.9167 15.8826 93.4925 16.2597 93.0212 16.2597C92.5028 16.2597 92.1257 15.8355 92.1257 15.3642C92.1257 14.8458 92.5499 14.4688 93.0212 14.4688C93.5396 14.4687 93.9167 14.8929 93.9167 15.3642Z" fill="#FFD100"/>
<path d="M100.703 16.3067C100.185 16.3067 99.8079 15.8826 99.8079 15.4113V13.5732C99.8079 13.0548 100.232 12.6777 100.703 12.6777C101.222 12.6777 101.599 13.1019 101.599 13.5732V15.4113C101.646 15.8826 101.222 16.3067 100.703 16.3067Z" fill="#FFD100"/>
<path d="M95.6133 19.0414C95.0949 19.0414 94.7179 18.6172 94.7179 18.1459V10.8408C94.7179 10.3224 95.142 9.94531 95.6133 9.94531C96.1318 9.94531 96.5088 10.3695 96.5088 10.8408V18.1459C96.5088 18.6172 96.0846 19.0414 95.6133 19.0414Z" fill="#FFD100"/>
<path d="M90.4762 17.2031C89.9577 17.2031 89.5807 16.779 89.5807 16.3077V12.6787C89.5807 12.1602 90.0049 11.7832 90.4762 11.7832C90.9946 11.7832 91.3716 12.2074 91.3716 12.6787V16.3077C91.3716 16.779 90.9475 17.2031 90.4762 17.2031Z" fill="#FFD100"/>
<path d="M108.056 65.0391H34.3916V90.4421H108.056V65.0391Z" fill="#FFE67D"/>
<path d="M50.6985 102.508H38.3505V109.389H50.6985V102.508Z" fill="#545859"/>
<path d="M68.1366 102.508H55.7886V109.389H68.1366V102.508Z" fill="#545859"/>
<path d="M85.5747 102.508H73.2266V109.389H85.5747V102.508Z" fill="#545859"/>
<path d="M63.4707 41.1932C63.9892 40.7691 64.4605 40.2506 64.8375 39.6851C65.4031 38.7425 65.6858 37.7527 65.6858 36.6688C65.6858 34.6422 65.026 33.0398 63.7535 31.8144C62.481 30.6361 60.7372 30.0234 58.5692 30.0234H50.9813C50.2272 30.0234 49.6145 30.3062 49.1904 30.8246C48.8133 31.2959 48.6248 31.8144 48.6248 32.3328V49.8651C48.6248 50.2422 48.6719 50.5721 48.7191 50.9491C48.7662 51.3262 48.9076 51.7032 49.0961 52.0331C49.2846 52.363 49.5203 52.6929 49.8031 52.8814C50.133 53.1171 50.51 53.2585 50.9813 53.2585H59.3704C61.8683 53.2585 63.8006 52.6929 65.0731 51.5618C66.3457 50.4307 67.0055 48.6869 67.0055 46.5189C67.0055 45.1993 66.5813 44.021 65.6858 42.937C65.026 42.183 64.3191 41.6174 63.4707 41.1932ZM61.6327 46.189C61.6327 47.0845 61.397 47.6972 60.8315 48.1685C60.2659 48.6397 59.6532 48.8754 58.8991 48.8754H53.9505V43.5969H58.4278C59.3704 43.5969 60.1245 43.8325 60.7843 44.3509C61.3499 44.8694 61.6327 45.482 61.6327 46.189ZM53.9505 39.4023V34.5008H57.9094C58.7106 34.5008 59.2762 34.6893 59.6532 35.1606C60.0303 35.6319 60.2659 36.1975 60.2659 36.9515C60.2659 37.7056 60.0774 38.3183 59.6532 38.7425C59.2762 39.1666 58.6635 39.4023 57.8623 39.4023H53.9505Z" fill="#545859"/>
<path d="M74.6877 36.1498C74.1692 35.7256 73.5565 35.5371 72.8025 35.5371C72.1426 35.5371 71.53 35.7256 71.0115 36.1498C70.446 36.574 70.1161 37.1867 70.1161 37.8465V51.0428C70.1161 51.7027 70.3988 52.2682 70.9644 52.7395C71.4828 53.1637 72.0955 53.3522 72.8496 53.3522C73.5094 53.3522 74.1221 53.1637 74.6405 52.7395C75.2061 52.3154 75.536 51.7027 75.536 51.0428V37.8465C75.536 37.1867 75.2532 36.6211 74.6877 36.1498Z" fill="#545859"/>
<path d="M72.8025 28.373C71.907 28.373 71.2 28.6558 70.5874 29.2214C69.9747 29.7869 69.6919 30.4939 69.6919 31.3422C69.6919 32.1906 69.9747 32.8975 70.5874 33.4631C71.1529 34.0286 71.907 34.3114 72.8025 34.3114C73.6979 34.3114 74.4049 34.0286 74.9704 33.4631C75.536 32.8975 75.8188 32.1906 75.8188 31.3894C75.8188 30.5882 75.536 29.8812 74.9704 29.3156C74.452 28.6558 73.6979 28.373 72.8025 28.373Z" fill="#545859"/>
<path d="M82.3227 29.0332C81.6629 29.0332 81.0502 29.2689 80.5318 29.7402C80.0133 30.2115 79.7306 30.8241 79.7306 31.484V50.9957C79.7306 51.7027 80.0133 52.2683 80.5318 52.7395C81.0502 53.2108 81.6629 53.4465 82.3227 53.4465C83.0296 53.4465 83.6423 53.2108 84.1136 52.7395C84.6321 52.2683 84.8677 51.6556 84.8677 50.9957V31.484C84.8677 30.777 84.6321 30.2115 84.1136 29.7402C83.6423 29.2689 83.0296 29.0332 82.3227 29.0332Z" fill="#545859"/>
<path d="M93.2097 29.7402C92.6913 29.2689 92.0786 29.0332 91.4188 29.0332C90.759 29.0332 90.1463 29.2689 89.6278 29.7402C89.1094 30.2115 88.8266 30.8241 88.8266 31.484V50.9957C88.8266 51.7027 89.1094 52.2683 89.6278 52.7395C90.1463 53.2108 90.759 53.4465 91.4188 53.4465C92.1257 53.4465 92.7384 53.2108 93.2097 52.7395C93.7281 52.2683 93.9638 51.6556 93.9638 50.9957V31.484C94.0109 30.777 93.7281 30.2115 93.2097 29.7402Z" fill="#545859"/>
<path d="M84.0665 123.763C84.0665 122.49 84.1136 121.265 84.255 119.992H2.4375V128.24C2.4375 134.979 7.4804 140.682 14.1728 141.436H14.5499H20.017C50.887 141.436 73.7922 141.436 88.591 141.436C85.6689 136.205 84.0665 130.172 84.0665 123.763Z" fill="#FFE67D"/>
<path d="M120.875 91.4785C103.06 91.4785 88.591 105.947 88.591 123.763C88.591 141.578 103.06 156.046 120.875 156.046C121.299 156.046 121.77 156.046 122.195 155.999L122.854 155.952L122.713 152.135L122.053 152.182C121.676 152.182 121.299 152.229 120.875 152.229C105.181 152.229 92.4085 139.457 92.4085 123.763C92.4085 108.068 105.181 95.296 120.875 95.296C136.569 95.296 149.341 108.068 149.341 123.763C149.341 124.14 149.341 124.564 149.341 124.941L149.294 125.601L153.112 125.742L153.159 125.082C153.159 124.658 153.206 124.187 153.206 123.763C153.159 105.947 138.69 91.4785 120.875 91.4785Z" fill="#545859"/>
<path d="M138.502 146.102C137.936 146.573 137.323 146.997 136.711 147.422L136.145 147.799L138.266 150.956L138.831 150.579C139.538 150.108 140.198 149.59 140.858 149.071L141.376 148.647L139.02 145.678L138.502 146.102Z" fill="#545859"/>
<path d="M134.825 148.554C134.166 148.931 133.506 149.261 132.846 149.591L132.233 149.874L133.836 153.314L134.448 153.032C135.202 152.702 135.957 152.278 136.711 151.9L137.276 151.571L135.391 148.271L134.825 148.554Z" fill="#545859"/>
<path d="M130.772 150.439C130.065 150.674 129.358 150.91 128.651 151.146L128.039 151.334L129.076 155.01L129.688 154.822C130.489 154.586 131.291 154.351 132.092 154.021L132.705 153.785L131.385 150.203L130.772 150.439Z" fill="#545859"/>
<path d="M126.483 151.665C125.776 151.806 125.022 151.948 124.268 151.995L123.609 152.089L124.08 155.859L124.74 155.765C125.588 155.671 126.436 155.529 127.237 155.388L127.897 155.247L127.143 151.523L126.483 151.665Z" fill="#545859"/>
<path d="M144.534 139.552C144.11 140.165 143.686 140.777 143.215 141.343L142.79 141.861L145.76 144.218L146.184 143.699C146.702 143.04 147.221 142.333 147.692 141.673L148.069 141.107L144.911 138.986L144.534 139.552Z" fill="#545859"/>
<path d="M149.153 127.109C149.059 127.863 148.964 128.57 148.823 129.324L148.682 129.984L152.405 130.738L152.546 130.078C152.688 129.277 152.829 128.429 152.923 127.58L153.018 126.921L149.247 126.449L149.153 127.109Z" fill="#545859"/>
<path d="M141.801 143.04C141.282 143.605 140.764 144.124 140.245 144.595L139.774 145.019L142.366 147.8L142.838 147.376C143.45 146.81 144.063 146.198 144.628 145.585L145.053 145.114L142.272 142.521L141.801 143.04Z" fill="#545859"/>
<path d="M148.257 131.492C148.069 132.199 147.833 132.905 147.55 133.612L147.315 134.225L150.897 135.545L151.132 134.932C151.415 134.131 151.698 133.33 151.934 132.528L152.122 131.916L148.446 130.879L148.257 131.492Z" fill="#545859"/>
<path d="M146.749 135.687C146.419 136.347 146.089 137.007 145.712 137.666L145.383 138.232L148.682 140.117L149.012 139.552C149.436 138.797 149.813 138.043 150.143 137.289L150.425 136.677L146.985 135.074L146.749 135.687Z" fill="#545859"/>
<path d="M121.622 145.336C133.562 144.923 142.907 134.909 142.494 122.968C142.081 111.028 132.067 101.683 120.127 102.096C108.186 102.509 98.8416 112.523 99.2544 124.463C99.6672 136.404 109.681 145.748 121.622 145.336Z" fill="#FFD100"/>
<path d="M136.993 116.081L131.055 110.143L115.785 125.413L111.213 120.794L105.275 126.732L115.691 137.337L136.993 116.081Z" fill="white"/>
<path d="M115.691 139.127L103.484 126.779L111.166 119.097L115.738 123.669L131.008 108.398L138.69 116.128L115.691 139.127ZM107.019 126.779L115.738 135.592L135.25 116.081L131.055 111.886L115.785 127.156L111.213 122.585L107.019 126.779Z" fill="#545859"/>
<path d="M48.5306 70.9785C46.7867 70.9785 45.42 71.5441 44.4302 72.6281C43.4877 73.7121 42.9692 75.4087 42.9692 77.6238C42.9692 79.8389 43.4405 81.5356 44.3831 82.6667C45.3257 83.7978 46.6925 84.3634 48.5306 84.3634C50.3686 84.3634 51.7354 83.7978 52.678 82.6667C53.6206 81.5356 54.0919 79.8389 54.0919 77.6238C54.0919 75.4087 53.6206 73.7121 52.6309 72.6281C51.6883 71.4969 50.2744 70.9785 48.5306 70.9785ZM50.51 80.9229C50.0858 81.5827 49.426 81.9127 48.5777 81.9127C47.6822 81.9127 47.0695 81.5827 46.6454 80.9229C46.2212 80.216 45.9855 79.132 45.9855 77.671C45.9855 76.1628 46.2212 75.0788 46.6925 74.3719C47.1167 73.712 47.7765 73.3821 48.6248 73.3821C50.4157 73.3821 51.2641 74.796 51.2641 77.671C51.1698 79.132 50.9342 80.216 50.51 80.9229Z" fill="#545859"/>
<path d="M57.2496 80.4512C56.684 80.4512 56.2127 80.6397 55.8357 80.9696C55.4587 81.3466 55.3173 81.7708 55.3173 82.3364C55.3173 82.8548 55.5058 83.3261 55.8357 83.7031C56.2127 84.0802 56.684 84.2687 57.2496 84.2687C57.8151 84.2687 58.2864 84.0802 58.7106 83.7031C59.0877 83.3261 59.3233 82.9019 59.3233 82.3364C59.3233 81.7708 59.1348 81.2995 58.7106 80.9696C58.2864 80.6397 57.8151 80.4512 57.2496 80.4512Z" fill="#545859"/>
<path d="M66.0157 70.9785C64.2719 70.9785 62.9052 71.5441 61.9154 72.6281C60.9728 73.7121 60.4544 75.4087 60.4544 77.6238C60.4544 79.8389 60.9257 81.5356 61.8683 82.6667C62.8109 83.7978 64.1777 84.3634 66.0157 84.3634C67.8538 84.3634 69.2206 83.7978 70.1632 82.6667C71.1058 81.5356 71.5771 79.8389 71.5771 77.6238C71.5771 75.4087 71.1058 73.7121 70.1161 72.6281C69.1735 71.4969 67.7596 70.9785 66.0157 70.9785ZM67.9952 80.9229C67.571 81.5827 66.9112 81.9127 66.0629 81.9127C65.1674 81.9127 64.5547 81.5827 64.1306 80.9229C63.7064 80.216 63.4707 79.132 63.4707 77.671C63.4707 76.1628 63.7064 75.0788 64.1777 74.3719C64.6019 73.712 65.2617 73.3821 66.11 73.3821C67.9009 73.3821 68.7493 74.796 68.7493 77.671C68.655 79.132 68.4194 80.216 67.9952 80.9229Z" fill="#545859"/>
<path d="M78.458 70.9785C76.7142 70.9785 75.3475 71.5441 74.3578 72.6281C73.4152 73.7121 72.8967 75.4087 72.8967 77.6238C72.8967 79.8389 73.368 81.5356 74.3106 82.6667C75.2532 83.7978 76.62 84.3634 78.458 84.3634C80.2961 84.3634 81.6629 83.7978 82.6055 82.6667C83.5481 81.5356 84.0194 79.8389 84.0194 77.6238C84.0194 75.4087 83.5481 73.7121 82.5583 72.6281C81.5686 71.4969 80.2019 70.9785 78.458 70.9785ZM80.3904 80.9229C79.9662 81.5827 79.3064 81.9127 78.458 81.9127C77.5626 81.9127 76.9499 81.5827 76.5257 80.9229C76.1016 80.216 75.8659 79.132 75.8659 77.671C75.8659 76.1628 76.1016 75.0788 76.5729 74.3719C76.997 73.712 77.6568 73.3821 78.5052 73.3821C80.2961 73.3821 81.1445 74.796 81.1445 77.671C81.0973 79.132 80.8617 80.216 80.3904 80.9229Z" fill="#545859"/>
<path d="M99.855 78.4721C99.478 78.0008 99.0067 77.6709 98.4883 77.4352C98.8182 77.1996 99.1481 76.8697 99.3837 76.4926C99.7136 75.9742 99.855 75.4086 99.855 74.796C99.855 73.712 99.5251 72.8165 98.8653 72.1567C98.2526 71.544 97.4043 71.167 96.3203 71.0727V70.2715C96.3203 69.9416 96.1789 69.7059 95.9432 69.4703C95.7076 69.2818 95.3777 69.1875 94.9535 69.1875C94.5293 69.1875 94.2466 69.2818 94.0109 69.4703C93.7753 69.6588 93.6339 69.9416 93.6339 70.2715V71.0727H91.4188C90.9946 71.0727 90.7118 71.2141 90.4762 71.4969C90.2877 71.7796 90.1463 72.0153 90.1463 72.2981V82.3839C90.1463 82.5724 90.1463 82.808 90.1934 82.9966C90.2405 83.2322 90.2877 83.4207 90.3819 83.6093C90.4762 83.7978 90.6176 83.9392 90.7589 84.0806C90.9475 84.2219 91.136 84.2691 91.3716 84.2691H93.5867V84.7404C93.5867 85.1174 93.681 85.4473 93.8695 85.683C94.058 85.9658 94.4351 86.1071 94.9064 86.1071C95.3777 86.1071 95.7547 85.9658 95.9432 85.683C96.1318 85.4473 96.226 85.1174 96.226 84.7404V84.2691C97.6399 84.2691 98.6768 83.9392 99.3837 83.3265C100.091 82.6667 100.468 81.7241 100.468 80.4987C100.609 79.7446 100.326 79.0848 99.855 78.4721ZM93.1154 76.4455V73.4292H95.5191C95.9904 73.4292 96.3674 73.5706 96.6031 73.8534C96.8387 74.1361 96.9801 74.5132 96.9801 74.9373C96.9801 75.4086 96.8387 75.7386 96.6031 76.0213C96.3674 76.3041 95.9904 76.4455 95.5191 76.4455H93.1154ZM97.6871 80.3102C97.6871 80.8286 97.5457 81.2528 97.2158 81.4884C96.8858 81.7712 96.5088 81.9126 96.0375 81.9126H93.0683V78.7077H95.7547C96.3203 78.7077 96.7916 78.8491 97.1686 79.179C97.5457 79.4618 97.6871 79.8389 97.6871 80.3102Z" fill="#545859"/>
</g>
<defs>
<clipPath id="clip0_4317_144700">
<rect width="150.721" height="156" fill="white" transform="translate(2.4375)"/>
</clipPath>
</defs>
</svg>
