<svg width="18" height="18" viewBox="0 0 18 18" fill="none" xmlns="http://www.w3.org/2000/svg">
<path d="M14.1298 1.5L16.4997 3.86988L14.693 5.67731L12.3232 3.30743L14.1298 1.5ZM5.44971 12.55H7.81959L13.576 6.79353L11.2062 4.42365L5.44971 10.1801V12.55Z" fill="white"/>
<path d="M14.1394 14.9206H5.57462C5.55408 14.9206 5.53275 14.9285 5.51221 14.9285C5.48614 14.9285 5.46007 14.9214 5.43322 14.9206H3.07992V3.86117H8.48878L10.0687 2.28125H3.07992C2.20859 2.28125 1.5 2.98906 1.5 3.86117V14.9206C1.5 15.7927 2.20859 16.5005 3.07992 16.5005H14.1394C14.5584 16.5005 14.9603 16.3341 15.2565 16.0378C15.5528 15.7415 15.7193 15.3396 15.7193 14.9206V8.07324L14.1394 9.65317V14.9206Z" fill="white"/>
</svg>
