<svg width="156" height="156" viewBox="0 0 156 156" fill="none" xmlns="http://www.w3.org/2000/svg">
<path d="M73.8282 132.771H64.722C47.1161 132.771 32.7969 118.443 32.7969 100.828V31.943C32.7969 14.3282 47.1206 0 64.722 0H73.8282C91.4385 0 105.762 14.3282 105.762 31.943V100.828C105.762 118.443 91.4385 132.771 73.8282 132.771ZM64.7265 5.36471C50.0817 5.36471 38.166 17.2892 38.166 31.943V100.828C38.166 115.482 50.0817 127.406 64.7265 127.406H73.8326C88.4819 127.406 100.402 115.486 100.402 100.828V31.943C100.402 17.2892 88.4819 5.36471 73.8326 5.36471H64.7265Z" fill="#545859"/>
<path d="M114.129 51.4277H24.4316V134.632H114.129V51.4277Z" fill="white"/>
<path d="M97.6539 137.311C97.3105 135.576 97.1232 133.783 97.1232 131.946H27.1189V109.934H37.8261V104.569H27.1189V93.006H37.8261V87.6413H27.1189V76.0735H37.8261V70.7088H27.1189V54.1108H111.451V70.7088H100.744V76.0735H111.451V87.6413H100.744V93.006H111.451V104.569H100.744V109.934H108.071C111.032 107.7 114.457 106.05 118.181 105.158V104.569H116.816V93.006H118.181V87.6413H116.816V76.0735H118.181V70.7088H116.816V48.7461H21.7542V70.7088H20.3896V76.0735H21.7542V87.6413H20.3896V93.006H21.7542V104.569H20.3896V109.934H21.7542V137.311H97.6539Z" fill="#545859"/>
<path d="M77.5519 81.3822C77.5519 76.8068 73.8506 73.1055 69.2797 73.1055C64.7176 73.1055 61.0029 76.8068 61.0029 81.3822C61.0029 84.3968 62.6262 87.0234 65.0298 88.4727L63.1568 108.852H69.2752H75.3935L73.5161 88.4727C75.9376 87.0234 77.5519 84.3968 77.5519 81.3822Z" fill="#FFD100"/>
<path d="M97.1167 131.912C97.1167 129.491 97.4333 127.145 98.0175 124.906H7.3125V154.419H108.805C101.737 149.438 97.1167 141.219 97.1167 131.912Z" fill="#FFE67D"/>
<path d="M18.6023 144.41C17.9601 144.41 17.3492 144.285 16.7739 144.026C16.1986 143.772 15.6947 143.438 15.2666 143.023C14.8385 142.608 14.4951 142.113 14.2409 141.538C13.9867 140.963 13.8574 140.352 13.8574 139.71C13.8574 139.068 13.9823 138.457 14.2409 137.881C14.4951 137.306 14.8385 136.802 15.2666 136.374C15.6947 135.946 16.1986 135.603 16.7739 135.348C17.3492 135.094 17.9601 134.965 18.6023 134.965C19.2444 134.965 19.8554 135.094 20.4306 135.348C21.0059 135.603 21.5009 135.946 21.9156 136.374C22.3304 136.802 22.6648 137.306 22.919 137.881C23.1732 138.457 23.3025 139.068 23.3025 139.71C23.3025 140.325 23.1732 140.923 22.919 141.498C22.6648 142.073 22.3304 142.577 21.9156 143.005C21.5009 143.433 21.0059 143.777 20.4306 144.031C19.8554 144.281 19.2444 144.41 18.6023 144.41Z" fill="#545859"/>
<path d="M30.8103 144.41C30.1681 144.41 29.5572 144.285 28.9819 144.026C28.4066 143.772 27.9027 143.438 27.4746 143.023C27.0465 142.608 26.7031 142.113 26.4489 141.538C26.1948 140.963 26.0654 140.352 26.0654 139.71C26.0654 139.068 26.1903 138.457 26.4489 137.881C26.7031 137.306 27.0465 136.802 27.4746 136.374C27.9027 135.946 28.4066 135.603 28.9819 135.348C29.5572 135.094 30.1681 134.965 30.8103 134.965C31.4524 134.965 32.0634 135.094 32.6386 135.348C33.2139 135.603 33.7089 135.946 34.1236 136.374C34.5384 136.802 34.8728 137.306 35.127 137.881C35.3812 138.457 35.5105 139.068 35.5105 139.71C35.5105 140.325 35.3812 140.923 35.127 141.498C34.8728 142.073 34.5384 142.577 34.1236 143.005C33.7089 143.433 33.2139 143.777 32.6386 144.031C32.0589 144.281 31.4524 144.41 30.8103 144.41Z" fill="#545859"/>
<path d="M43.0173 144.41C42.3751 144.41 41.7642 144.285 41.1889 144.026C40.6137 143.772 40.1097 143.438 39.6816 143.023C39.2535 142.608 38.9102 142.113 38.656 141.538C38.4018 140.963 38.2725 140.352 38.2725 139.71C38.2725 139.068 38.3973 138.457 38.656 137.881C38.9102 137.306 39.2535 136.802 39.6816 136.374C40.1097 135.946 40.6137 135.603 41.1889 135.348C41.7642 135.094 42.3751 134.965 43.0173 134.965C43.6595 134.965 44.2704 135.094 44.8457 135.348C45.4209 135.603 45.9159 135.946 46.3307 136.374C46.7454 136.802 47.0799 137.306 47.334 137.881C47.5882 138.457 47.7176 139.068 47.7176 139.71C47.7176 140.325 47.5882 140.923 47.334 141.498C47.0799 142.073 46.7454 142.577 46.3307 143.005C45.9159 143.433 45.4209 143.777 44.8457 144.031C44.2659 144.281 43.6595 144.41 43.0173 144.41Z" fill="#545859"/>
<path d="M55.2253 144.41C54.5832 144.41 53.9722 144.285 53.3969 144.026C52.8217 143.772 52.3178 143.438 51.8897 143.023C51.4615 142.608 51.1182 142.113 50.864 141.538C50.6098 140.963 50.4805 140.352 50.4805 139.71C50.4805 139.068 50.6053 138.457 50.864 137.881C51.1182 137.306 51.4615 136.802 51.8897 136.374C52.3178 135.946 52.8217 135.603 53.3969 135.348C53.9722 135.094 54.5832 134.965 55.2253 134.965C55.8675 134.965 56.4784 135.094 57.0537 135.348C57.629 135.603 58.1239 135.946 58.5387 136.374C58.9534 136.802 59.2879 137.306 59.5421 137.881C59.7962 138.457 59.9256 139.068 59.9256 139.71C59.9256 140.325 59.7962 140.923 59.5421 141.498C59.2879 142.073 58.9534 142.577 58.5387 143.005C58.1239 143.433 57.629 143.777 57.0537 144.031C56.4784 144.281 55.8719 144.41 55.2253 144.41Z" fill="#545859"/>
<path d="M67.4333 144.41C66.7912 144.41 66.1802 144.285 65.605 144.026C65.0297 143.772 64.5258 143.438 64.0977 143.023C63.6696 142.608 63.3262 142.113 63.072 141.538C62.8178 140.963 62.6885 140.352 62.6885 139.71C62.6885 139.068 62.8133 138.457 63.072 137.881C63.3262 137.306 63.6696 136.802 64.0977 136.374C64.5258 135.946 65.0297 135.603 65.605 135.348C66.1802 135.094 66.7912 134.965 67.4333 134.965C68.0755 134.965 68.6864 135.094 69.2617 135.348C69.837 135.603 70.332 135.946 70.7467 136.374C71.1614 136.802 71.4959 137.306 71.7501 137.881C72.0043 138.457 72.1336 139.068 72.1336 139.71C72.1336 140.325 72.0043 140.923 71.7501 141.498C71.4959 142.073 71.1614 142.577 70.7467 143.005C70.332 143.433 69.837 143.777 69.2617 144.031C68.6864 144.281 68.0755 144.41 67.4333 144.41Z" fill="#545859"/>
<path d="M79.6452 144.41C79.0031 144.41 78.3921 144.285 77.8169 144.026C77.2416 143.772 76.7377 143.438 76.3096 143.023C75.8815 142.608 75.5381 142.113 75.2839 141.538C75.0297 140.963 74.9004 140.352 74.9004 139.71C74.9004 139.068 75.0253 138.457 75.2839 137.881C75.5381 137.306 75.8815 136.802 76.3096 136.374C76.7377 135.946 77.2416 135.603 77.8169 135.348C78.3921 135.094 79.0031 134.965 79.6452 134.965C80.2874 134.965 80.8983 135.094 81.4736 135.348C82.0489 135.603 82.5439 135.946 82.9586 136.374C83.3733 136.802 83.7078 137.306 83.962 137.881C84.2162 138.457 84.3455 139.068 84.3455 139.71C84.3455 140.325 84.2162 140.923 83.962 141.498C83.7078 142.073 83.3733 142.577 82.9586 143.005C82.5439 143.433 82.0489 143.777 81.4736 144.031C80.8983 144.281 80.2874 144.41 79.6452 144.41Z" fill="#545859"/>
<path d="M91.8532 144.41C91.2111 144.41 90.6001 144.285 90.0249 144.026C89.4496 143.772 88.9457 143.438 88.5176 143.023C88.0895 142.608 87.7461 142.113 87.4919 141.538C87.2377 140.963 87.1084 140.352 87.1084 139.71C87.1084 139.068 87.2333 138.457 87.4919 137.881C87.7461 137.306 88.0895 136.802 88.5176 136.374C88.9457 135.946 89.4496 135.603 90.0249 135.348C90.6001 135.094 91.2111 134.965 91.8532 134.965C92.4954 134.965 93.1063 135.094 93.6816 135.348C94.2569 135.603 94.7519 135.946 95.1666 136.374C95.5813 136.802 95.9158 137.306 96.17 137.881C96.4242 138.457 96.5535 139.068 96.5535 139.71C96.5535 140.325 96.4242 140.923 96.17 141.498C95.9158 142.073 95.5813 142.577 95.1666 143.005C94.7519 143.433 94.2569 143.777 93.6816 144.031C93.1063 144.281 92.4954 144.41 91.8532 144.41Z" fill="#545859"/>
<path d="M116.273 144.41C115.631 144.41 115.02 144.285 114.445 144.026C113.87 143.772 113.366 143.438 112.938 143.023C112.509 142.608 112.166 142.113 111.912 141.538C111.658 140.963 111.528 140.352 111.528 139.71C111.528 139.068 111.653 138.457 111.912 137.881C112.166 137.306 112.509 136.802 112.938 136.374C113.366 135.946 113.87 135.603 114.445 135.348C115.02 135.094 115.631 134.965 116.273 134.965C116.915 134.965 117.526 135.094 118.102 135.348C118.677 135.603 119.172 135.946 119.587 136.374C120.001 136.802 120.336 137.306 120.59 137.881C120.844 138.457 120.973 139.068 120.973 139.71C120.973 140.325 120.844 140.923 120.59 141.498C120.336 142.073 120.001 142.577 119.587 143.005C119.172 143.433 118.677 143.777 118.102 144.031C117.522 144.281 116.915 144.41 116.273 144.41Z" fill="#545859"/>
<path d="M67.101 42.0945L64.9204 44.2707L58.0127 37.3541L64.9204 30.4375L67.101 32.6137L62.3696 37.3541L67.101 42.0945Z" fill="#545859"/>
<path d="M79.6635 26.3906V31.626C79.6635 35.7153 76.3367 39.0421 72.2474 39.0421H62.0264V35.9606H72.2474C74.6377 35.9606 76.582 34.0163 76.582 31.626V26.3906H79.6635Z" fill="#545859"/>
<path d="M79.6612 17.2916L72.749 24.2037L70.5684 22.0275L75.3043 17.2916L70.5684 12.5512L72.749 10.375L79.6612 17.2916Z" fill="#545859"/>
<path d="M75.6498 15.5957V18.6772H65.4287C63.0385 18.6772 61.0942 20.6215 61.0942 23.0118C61.0942 26.2003 61.1611 29.7009 61.1611 29.7366L58.0796 29.7946C58.0796 29.7589 58.0127 26.2315 58.0127 23.0118C58.0127 18.9224 61.3394 15.5957 65.4287 15.5957H75.6498Z" fill="#545859"/>
<path d="M125.57 154.508C138.066 154.075 147.846 143.594 147.413 131.097C146.981 118.601 136.5 108.821 124.003 109.254C111.506 109.686 101.727 120.168 102.159 132.664C102.592 145.161 113.073 154.94 125.57 154.508Z" fill="white"/>
<path d="M124.639 107.773C111.345 107.773 100.526 118.592 100.526 131.886C100.526 145.184 111.345 155.998 124.639 155.998C124.973 155.998 125.307 155.993 125.629 155.98L126.115 155.962L125.999 153.121L125.508 153.144C125.223 153.157 124.928 153.162 124.634 153.162C112.906 153.162 103.363 143.618 103.363 131.89C103.363 120.162 112.906 110.619 124.634 110.619C136.362 110.619 145.906 120.162 145.906 131.89C145.906 132.18 145.901 132.474 145.888 132.764L145.87 133.25L148.711 133.366L148.728 132.88C148.742 132.55 148.746 132.22 148.746 131.89C148.751 118.588 137.932 107.773 124.639 107.773Z" fill="#545859"/>
<path d="M137.818 148.584C137.385 148.928 136.931 149.258 136.471 149.566L136.065 149.838L137.649 152.197L138.054 151.925C138.576 151.572 139.089 151.198 139.579 150.814L139.963 150.511L138.202 148.281L137.818 148.584Z" fill="#545859"/>
<path d="M135.059 150.44C134.573 150.712 134.078 150.966 133.578 151.198L133.137 151.403L134.332 153.981L134.773 153.776C135.34 153.513 135.906 153.223 136.455 152.915L136.878 152.674L135.482 150.199L135.059 150.44Z" fill="#545859"/>
<path d="M132.04 151.84C131.522 152.032 130.992 152.206 130.457 152.357L129.988 152.491L130.764 155.225L131.232 155.091C131.839 154.917 132.441 154.721 133.025 154.502L133.484 154.333L132.494 151.666L132.04 151.84Z" fill="#545859"/>
<path d="M128.837 152.742C128.297 152.849 127.744 152.938 127.191 153.005L126.705 153.063L127.04 155.886L127.526 155.828C128.15 155.752 128.779 155.654 129.39 155.529L129.867 155.436L129.309 152.648L128.837 152.742Z" fill="#545859"/>
<path d="M142.326 143.71C142.014 144.174 141.689 144.625 141.345 145.057L141.042 145.441L143.272 147.202L143.575 146.819C143.963 146.324 144.338 145.811 144.685 145.294L144.957 144.888L142.598 143.305L142.326 143.71Z" fill="#545859"/>
<path d="M145.761 134.427C145.695 134.975 145.61 135.528 145.503 136.072L145.409 136.55L148.196 137.107L148.29 136.63C148.41 136.014 148.513 135.39 148.584 134.766L148.642 134.28L145.819 133.945L145.761 134.427Z" fill="#545859"/>
<path d="M140.261 146.323C139.882 146.729 139.489 147.126 139.083 147.5L138.727 147.83L140.657 149.917L141.014 149.587C141.474 149.164 141.92 148.713 142.348 148.254L142.678 147.897L140.591 145.971L140.261 146.323Z" fill="#545859"/>
<path d="M145.109 137.683C144.957 138.218 144.783 138.749 144.591 139.266L144.422 139.726L147.089 140.711L147.258 140.252C147.477 139.663 147.673 139.061 147.842 138.455L147.976 137.986L145.242 137.215L145.109 137.683Z" fill="#545859"/>
<path d="M143.959 140.809C143.727 141.308 143.473 141.808 143.201 142.294L142.96 142.717L145.439 144.109L145.68 143.685C145.988 143.136 146.278 142.57 146.541 142.004L146.746 141.562L144.168 140.367L143.959 140.809Z" fill="#545859"/>
<path d="M125.207 148.037C134.13 147.728 141.112 140.245 140.803 131.322C140.495 122.4 133.011 115.417 124.088 115.726C115.166 116.035 108.183 123.518 108.492 132.441C108.801 141.364 116.284 148.346 125.207 148.037Z" fill="#FFD100"/>
<path d="M136.677 126.158L132.24 121.717L120.824 133.133L117.399 129.708L112.962 134.145L120.775 142.056L136.677 126.158Z" fill="white"/>
<path d="M120.769 143.38L111.649 134.14L117.402 128.388L120.827 131.813L132.239 120.396L137.996 126.154L120.769 143.38ZM114.276 134.149L120.778 140.736L135.356 126.158L132.239 123.041L120.827 134.453L117.402 131.028L114.276 134.149Z" fill="#545859"/>
</svg>
