<svg width="156" height="157" viewBox="0 0 156 157" fill="none" xmlns="http://www.w3.org/2000/svg">
<g clip-path="url(#clip0_1638_391852)">
<path d="M65.1488 0.5H56.3356C38.7093 0.5 24.3726 14.8452 24.3726 32.48V38.915H31.6723V32.48C31.6723 18.8724 42.7365 7.79977 56.3356 7.79977H65.1488C78.7521 7.79977 89.8163 18.8724 89.8163 32.48V100.226H97.116V32.48C97.116 14.8452 82.7751 0.5 65.1488 0.5Z" fill="#545859"/>
<path d="M104.166 51.3398H17.3276V131.892H104.166V51.3398Z" fill="#FFE67D"/>
<path d="M68.7573 80.3404C68.7573 75.9105 65.171 72.3242 60.7454 72.3242C56.3282 72.3242 52.7334 75.9105 52.7334 80.3404C52.7334 83.2569 54.3061 85.8046 56.6334 87.2036L54.8191 106.937H60.7411H66.6632L64.8488 87.2036C67.1888 85.8046 68.7573 83.2569 68.7573 80.3404Z" fill="white"/>
<path d="M69.5156 109.53H51.9741L53.9113 88.4358C51.5501 86.4349 50.1343 83.4633 50.1343 80.339C50.1343 74.489 54.8948 69.7285 60.7406 69.7285C66.5864 69.7285 71.3469 74.489 71.3469 80.339C71.3469 83.5226 69.9607 86.4477 67.5698 88.4443L69.5156 109.53ZM57.6672 104.337H63.8182L62.1141 85.8118L63.5172 84.9724C65.1705 83.9805 66.1582 82.2509 66.1582 80.339C66.1582 77.3505 63.7292 74.9215 60.7448 74.9215C57.7605 74.9215 55.3315 77.3505 55.3315 80.339C55.3315 82.2467 56.3192 83.9805 57.9724 84.9767L59.3671 85.816L57.6672 104.337Z" fill="#545859"/>
<path d="M30.2907 70.0059H13.4062V75.1988H30.2907V70.0059Z" fill="#545859"/>
<path d="M30.2907 86.3984H13.4062V91.5914H30.2907V86.3984Z" fill="#545859"/>
<path d="M30.2907 102.787H13.4062V107.98H30.2907V102.787Z" fill="#545859"/>
<path d="M108.082 70.0059H91.2021V75.1988H108.082V70.0059Z" fill="#545859"/>
<path d="M108.082 86.3984H91.2021V91.5914H108.082V86.3984Z" fill="#545859"/>
<path d="M108.082 102.787H91.2021V107.98H108.082V102.787Z" fill="#545859"/>
<path d="M111.232 153.905C127.253 153.905 140.24 140.918 140.24 124.897C140.24 108.876 127.253 95.8887 111.232 95.8887C95.2111 95.8887 82.2236 108.876 82.2236 124.897C82.2236 140.918 95.2111 153.905 111.232 153.905Z" fill="white"/>
<path d="M111.233 156.498C93.8055 156.498 79.6299 142.323 79.6299 124.896C79.6299 107.469 93.8055 93.293 111.233 93.293C128.66 93.293 142.835 107.469 142.835 124.896C142.835 142.323 128.66 156.498 111.233 156.498ZM111.233 98.4817C96.6712 98.4817 84.8228 110.33 84.8228 124.891C84.8228 139.453 96.6712 151.301 111.233 151.301C125.794 151.301 137.642 139.453 137.642 124.891C137.642 110.33 125.798 98.4817 111.233 98.4817Z" fill="#545859"/>
<path d="M109.002 143.875L106.204 146.673L97.3228 137.788L106.204 128.898L109.002 131.7L102.918 137.788L109.002 143.875Z" fill="#545859"/>
<path d="M125.14 123.701V130.429C125.14 135.685 120.863 139.958 115.611 139.958H102.478V135.999H115.611C118.684 135.999 121.181 133.498 121.181 130.429V123.701H125.14Z" fill="#545859"/>
<path d="M125.142 112.003L116.265 120.888L113.463 118.09L119.546 112.003L113.463 105.911L116.265 103.113L125.142 112.003Z" fill="#545859"/>
<path d="M119.991 109.824V113.784H106.858C103.784 113.784 101.287 116.28 101.287 119.354C101.287 123.453 101.372 127.947 101.372 127.993L97.4129 128.069C97.4129 128.023 97.3281 123.491 97.3281 119.354C97.3281 114.097 101.605 109.824 106.858 109.824H119.991Z" fill="#545859"/>
</g>
<defs>
<clipPath id="clip0_1638_391852">
<rect width="156" height="156" fill="white" transform="translate(0 0.5)"/>
</clipPath>
</defs>
</svg>
