<svg width="156" height="156" viewBox="0 0 156 156" fill="none" xmlns="http://www.w3.org/2000/svg">
<path d="M98.8947 48.4086C98.8947 51.7151 96.2241 54.4282 92.9175 54.4282H92.4088C89.1023 54.4282 86.4316 51.7575 86.4316 48.4086V37.3868C86.4316 34.0803 89.1023 31.3672 92.4088 31.3672H92.9175C96.2241 31.3672 98.8947 34.0379 98.8947 37.3868V48.4086Z" fill="#FFD100"/>
<path d="M55.2736 98.7305H4.87012V123.953H11.568V131.881L20.343 123.953H55.2736V98.7305Z" fill="white"/>
<path d="M9.74473 136.034V125.817H3.04688V96.9062H57.3928V125.817H21.0633L9.74473 136.034ZM6.73493 122.129H13.4328V127.725L19.6219 122.129H53.7047V100.594H6.73493V122.129Z" fill="#545859"/>
<path d="M47.1357 106.488H13.1377V110.176H47.1357V106.488Z" fill="#545859"/>
<path d="M47.1357 112.973H13.1377V116.661H47.1357V112.973Z" fill="#545859"/>
<path d="M97.0705 47.097H93.2976V29.5893C93.2976 15.3457 81.7671 3.77285 67.566 3.77285C53.3648 3.77285 41.8344 15.3457 41.8344 29.5893V47.097H38.0615V29.5893C38.0615 13.2686 51.3301 0 67.6084 0C83.8867 0 97.1553 13.2686 97.1553 29.5893V47.097H97.0705Z" fill="#545859"/>
<path d="M36.3223 94.364V83.5541C36.3223 78.7639 40.6886 74.9062 46.0723 74.9062H88.9301C94.3138 74.9062 98.6801 78.7639 98.6801 83.5541V94.364" fill="white"/>
<path d="M89.3517 29.5898V47.0975C89.3517 59.1791 79.5593 68.9715 67.5201 68.9715C55.4809 68.9715 45.6885 59.1791 45.6885 47.0975V29.5898" fill="white"/>
<path d="M67.5215 70.8368C54.4225 70.8368 43.7822 60.1965 43.7822 47.0551V29.5898H47.5551V47.0975C47.5551 58.1193 56.4997 67.0639 67.4791 67.0639C78.4585 67.0639 87.4031 58.1193 87.4031 47.0975V29.5898H91.1759V47.0975C91.2607 60.1965 80.6204 70.8368 67.5215 70.8368Z" fill="#545859"/>
<path d="M82.8271 6.52734H71.4662H59.7238C56.2053 6.52734 53.0683 8.3502 51.2879 11.1056H47.8118C47.515 11.1056 47.2183 11.148 46.9215 11.148C43.0639 15.472 40.5204 21.0253 40.0117 27.172V47.4775H45.5226V30.4362C45.5226 27.384 47.9813 24.9253 51.0335 24.9253H54.2553H71.4662H81.301H84.226H86.388H89.313C94.9087 24.9253 99.4022 20.3894 99.4022 14.7937V6.52734H82.8271Z" fill="#FFE67D"/>
<path d="M47.3881 47.4351H43.6152V30.4362C43.6152 26.3666 46.9218 23.0176 51.0337 23.0176H89.2709C93.8068 23.0176 97.4524 19.3296 97.4524 14.7937V6.52734H101.225V14.7937C101.225 21.4068 95.8415 26.7905 89.2285 26.7905H50.9914C48.999 26.7905 47.3881 28.4014 47.3881 30.3938V47.4351Z" fill="#545859"/>
<path d="M48.1926 48.4086C48.1926 51.7151 45.5219 54.4282 42.2154 54.4282H41.7067C38.4002 54.4282 35.7295 51.7575 35.7295 48.4086V37.3868C35.7295 34.0803 38.4002 31.3672 41.7067 31.3672H42.2154C45.5219 31.3672 48.1926 34.0379 48.1926 37.3868V48.4086Z" fill="#FFD100"/>
<path d="M41.7924 47.097H38.0195V29.5893C38.0195 13.2686 51.2881 0 67.5664 0V3.77285C53.3652 3.77285 41.8348 15.3457 41.8348 29.5893V47.097H41.7924Z" fill="#545859"/>
<path d="M71.5911 83.51H62.6465L58.7041 76.685L62.0106 74.7773L64.8085 79.6947H69.3868L72.227 74.7773L75.4911 76.685L71.5911 83.51Z" fill="#545859"/>
<path d="M71.8792 81.167L68.1924 81.9688L71.084 95.2662L74.7708 94.4645L71.8792 81.167Z" fill="#545859"/>
<path d="M62.3639 81.1792L59.4736 94.4766L63.1604 95.2779L66.0507 81.9805L62.3639 81.1792Z" fill="#545859"/>
<path d="M89.3557 63.4145H72.2295V59.6416H89.3557C91.5176 59.6416 93.2557 57.8612 93.2557 55.6992H97.0285C97.0709 59.9384 93.5948 63.4145 89.3557 63.4145Z" fill="#545859"/>
<path d="M70.7445 38.5352H66.9717V50.4896H70.7445V38.5352Z" fill="#545859"/>
<path d="M96.4767 81.5207C97.5789 80.9272 98.7659 80.4185 99.9105 79.9522C98.2572 75.925 93.9757 73 88.9311 73H46.1157C39.6722 73 34.458 77.7479 34.458 83.5555V93.3903H38.2309V83.5555C38.2309 79.825 41.7493 76.7729 46.1157 76.7729H88.9735C92.492 76.7729 95.4594 78.7652 96.4767 81.5207Z" fill="#545859"/>
<path d="M116.816 153.814C136.283 153.141 151.519 136.814 150.846 117.346C150.173 97.8791 133.846 82.6434 114.378 83.3165C94.9112 83.9895 79.6755 100.316 80.3485 119.784C81.0216 139.251 97.3485 154.487 116.816 153.814Z" fill="white"/>
<path d="M115.51 81.1367C94.8651 81.1367 78.0781 97.9237 78.0781 118.568C78.0781 139.213 94.8651 156 115.51 156C116.019 156 116.527 156 117.036 155.958L117.799 155.915L117.629 151.507L116.866 151.549C116.442 151.549 115.976 151.591 115.51 151.591C97.3239 151.591 82.4868 136.797 82.4868 118.568C82.4868 100.34 97.2815 85.5454 115.51 85.5454C133.696 85.5454 148.533 100.34 148.533 118.568C148.533 119.035 148.533 119.459 148.49 119.925L148.448 120.688L152.857 120.858L152.899 120.095C152.899 119.586 152.941 119.077 152.941 118.568C152.899 97.9237 136.112 81.1367 115.51 81.1367Z" fill="#545859"/>
<path d="M135.942 144.47C135.263 145.021 134.585 145.529 133.864 145.996L133.229 146.42L135.687 150.065L136.323 149.641C137.129 149.09 137.934 148.497 138.697 147.903L139.29 147.437L136.535 143.961L135.942 144.47Z" fill="#545859"/>
<path d="M131.66 147.354C130.897 147.778 130.134 148.159 129.371 148.541L128.692 148.88L130.558 152.865L131.236 152.525C132.126 152.101 132.974 151.678 133.864 151.169L134.542 150.787L132.38 146.93L131.66 147.354Z" fill="#545859"/>
<path d="M126.956 149.516C126.15 149.813 125.345 150.067 124.497 150.322L123.776 150.533L124.963 154.773L125.684 154.561C126.617 154.306 127.549 153.967 128.482 153.67L129.202 153.416L127.676 149.262L126.956 149.516Z" fill="#545859"/>
<path d="M121.996 150.955C121.148 151.124 120.3 151.252 119.453 151.379L118.689 151.463L119.198 155.83L119.961 155.745C120.936 155.618 121.911 155.491 122.844 155.279L123.607 155.109L122.759 150.785L121.996 150.955Z" fill="#545859"/>
<path d="M142.939 136.924C142.472 137.645 141.964 138.366 141.413 139.002L140.946 139.595L144.422 142.308L144.889 141.715C145.482 140.952 146.076 140.146 146.627 139.341L147.051 138.705L143.405 136.246L142.939 136.924Z" fill="#545859"/>
<path d="M148.279 122.513C148.194 123.361 148.024 124.209 147.855 125.057L147.728 125.82L152.051 126.667L152.179 125.904C152.348 124.972 152.518 123.997 152.645 123.022L152.73 122.259L148.363 121.75L148.279 122.513Z" fill="#545859"/>
<path d="M139.716 140.996C139.122 141.632 138.529 142.225 137.893 142.819L137.342 143.327L140.352 146.549L140.903 146.04C141.623 145.405 142.302 144.684 142.98 143.963L143.489 143.412L140.267 140.402L139.716 140.996Z" fill="#545859"/>
<path d="M147.262 127.557C147.008 128.405 146.753 129.21 146.456 130.015L146.202 130.736L150.357 132.262L150.611 131.541C150.95 130.609 151.247 129.676 151.501 128.744L151.713 128.023L147.474 126.836L147.262 127.557Z" fill="#545859"/>
<path d="M145.481 132.432C145.141 133.195 144.718 134 144.294 134.721L143.912 135.399L147.77 137.561L148.151 136.883C148.618 136.035 149.084 135.145 149.465 134.254L149.762 133.576L145.777 131.711L145.481 132.432Z" fill="#545859"/>
<path d="M116.375 143.646C130.227 143.167 141.068 131.55 140.589 117.698C140.11 103.846 128.493 93.0055 114.641 93.4844C100.79 93.9633 89.9488 105.581 90.4277 119.432C90.9066 133.284 102.524 144.125 116.375 143.646Z" fill="#FFD100"/>
<path d="M134.162 109.668L127.295 102.801L109.575 120.52L104.234 115.179L97.3662 122.089L109.49 134.34L134.162 109.668Z" fill="white"/>
<path d="M109.492 136.416L95.333 122.088L104.278 113.143L109.577 118.442L127.296 100.723L136.241 109.667L109.492 136.416ZM99.4026 122.088L109.492 132.304L132.129 109.667L127.296 104.835L109.577 122.554L104.278 117.255L99.4026 122.088Z" fill="#545859"/>
</svg>
