<svg width="156" height="156" viewBox="0 0 156 156" fill="none" xmlns="http://www.w3.org/2000/svg">
<path d="M66.9232 40.8789L96.041 57.5183L66.7333 74.4339L37.624 57.7989L66.9232 40.8789Z" fill="#FFD100"/>
<path d="M98.0143 57.5139C98.0143 56.8103 97.6302 56.1542 97.0172 55.8046L67.8994 39.1652C67.5972 38.9926 67.2606 38.9062 66.9196 38.9062C66.5786 38.9062 66.2376 38.9926 65.9311 39.1695L36.632 56.0852C36.0191 56.4391 35.6436 57.0952 35.6436 57.7988C35.6436 58.5023 36.0277 59.1584 36.6406 59.508L65.7542 76.1474C66.3541 76.4884 67.1268 76.4884 67.7224 76.1431L97.0259 59.2275C97.6388 58.8778 98.0186 58.2218 98.0143 57.5139ZM66.7297 72.1591L41.5871 57.7901L66.9282 43.1578L92.0751 57.5268L66.7297 72.1591Z" fill="#545859"/>
<path d="M95.7134 57.1953L96.0544 91.0093L66.7509 107.934L66.4099 74.1109L95.7134 57.1953Z" fill="white"/>
<path d="M68.0647 109.965L97.3725 93.0412C97.9897 92.6872 98.3652 92.0225 98.3609 91.3103L98.0199 57.4963C98.0113 56.7971 97.6315 56.1453 97.0229 55.8C96.7207 55.6273 96.384 55.541 96.0431 55.541C95.7021 55.541 95.3611 55.6273 95.0546 55.8043L65.7512 72.72C65.1339 73.0782 64.7584 73.7386 64.7627 74.4508L65.0994 108.273C65.108 108.973 65.4879 109.624 66.0965 109.97C66.6921 110.315 67.4647 110.311 68.0647 109.965ZM94.1007 60.9191L94.3942 90.201L69.0143 104.855L68.7208 75.5687L94.1007 60.9191Z" fill="#545859"/>
<path d="M66.7333 74.432L67.0742 108.255L37.9564 91.6152L37.624 57.7969L66.7333 74.432Z" fill="white"/>
<path d="M36.9765 93.3311L66.0943 109.975C66.6986 110.32 67.4755 110.316 68.0755 109.962C68.6841 109.604 69.0553 108.943 69.051 108.24L68.7143 74.417C68.7057 73.7177 68.3258 73.0703 67.7216 72.7206L38.608 56.0812C38.3059 55.9086 37.9692 55.8223 37.6282 55.8223C37.2829 55.8223 36.9333 55.9129 36.6268 56.0942C36.0182 56.4524 35.647 57.1085 35.6557 57.8164L35.988 91.6347C35.988 92.334 36.3679 92.9814 36.9765 93.3311ZM64.7692 75.5867L65.0627 104.83L39.9202 90.4607L39.631 61.2177L64.7692 75.5867Z" fill="#545859"/>
<path d="M155.59 55.6367H70.3257V80.4857H155.59V55.6367Z" fill="#FFE67D"/>
<path d="M79.5161 67.0824C79.9089 67.1428 80.293 67.2162 80.6772 67.3025C81.0613 67.3932 81.411 67.5227 81.7261 67.7039C82.0411 67.8809 82.2958 68.114 82.4987 68.4032C82.7015 68.6924 82.8051 69.0679 82.8181 69.5298C82.8397 70.0607 82.7577 70.5096 82.5591 70.8721C82.3649 71.2347 82.0929 71.5196 81.752 71.7354C81.4066 71.9469 81.0052 72.098 80.5434 72.1886C80.0815 72.2792 79.6024 72.3224 79.1061 72.3224C78.8946 72.3224 78.6226 72.2965 78.2989 72.2533C77.9752 72.2059 77.6428 72.1325 77.3148 72.0332C76.9824 71.9339 76.676 71.8045 76.3911 71.6404C76.1062 71.4807 75.912 71.2822 75.8041 71.0448C75.7695 70.9628 75.7609 70.8462 75.7782 70.6995C75.7954 70.5527 75.8515 70.4319 75.9465 70.3369C76.076 70.1729 76.2616 70.0779 76.499 70.0607C76.7364 70.0434 76.9306 70.0866 77.086 70.1945C77.3925 70.4189 77.7421 70.5959 78.1262 70.7167C78.5104 70.8419 78.8384 70.9023 79.1104 70.9023C79.3478 70.9023 79.5895 70.8894 79.8398 70.8678C80.0902 70.8462 80.3103 70.7858 80.5045 70.6908C80.6988 70.5959 80.8585 70.4621 80.975 70.2894C81.0916 70.1168 81.1477 69.8794 81.1347 69.5686C81.1088 69.2017 80.9405 68.9557 80.6297 68.8305C80.3146 68.7053 79.8571 68.5974 79.2528 68.5025C78.9075 68.455 78.5493 68.3946 78.1694 68.3169C77.7896 68.2392 77.4356 68.114 77.1033 67.9457C76.7709 67.773 76.4947 67.5442 76.2789 67.2551C76.0587 66.9659 75.9379 66.5774 75.9163 66.094C75.9033 65.5501 75.9983 65.1012 76.1925 64.743C76.3868 64.389 76.6587 64.1085 76.9997 63.9099C77.345 63.707 77.7421 63.5646 78.1996 63.4826C78.6572 63.4006 79.132 63.3574 79.6283 63.3574C80.6125 63.3574 81.493 63.625 82.2742 64.1559C82.4857 64.2854 82.6066 64.4451 82.6282 64.6264C82.6498 64.812 82.6109 64.9847 82.503 65.1487C82.4555 65.2436 82.3821 65.3127 82.2828 65.3516C82.1836 65.3947 82.0757 65.4206 81.9634 65.4293C81.8512 65.4422 81.739 65.4379 81.6268 65.4206C81.5146 65.4034 81.4239 65.3688 81.3505 65.3213C81.0441 65.1314 80.7506 64.989 80.47 64.894C80.1938 64.7991 79.9089 64.7516 79.6283 64.7516C79.3909 64.7516 79.1535 64.7602 78.9161 64.7775C78.6787 64.7948 78.4629 64.8466 78.2687 64.9286C78.0745 65.0106 77.9148 65.1401 77.7896 65.3084C77.6644 65.481 77.6083 65.7141 77.6212 66.0076C77.6428 66.3745 77.8241 66.6206 78.1608 66.7457C78.4931 66.8795 78.9464 66.9918 79.5161 67.0824Z" fill="#545859"/>
<path d="M85.9606 64.7788V67.1053H89.0338C89.1978 67.1053 89.3618 67.1528 89.5215 67.2478C89.6812 67.3427 89.7632 67.5154 89.7632 67.7614C89.7632 67.9643 89.6985 68.124 89.569 68.2492C89.4395 68.3743 89.2669 68.4348 89.0554 68.4348H85.9606V70.9037H89.7805C89.9704 70.9037 90.1431 70.9555 90.2941 71.0548C90.4495 71.154 90.5229 71.331 90.5229 71.577C90.5229 71.767 90.4625 71.9267 90.3373 72.0561C90.2121 72.1856 90.0309 72.2504 89.7978 72.2504H84.9851C84.7131 72.2504 84.5232 72.1813 84.4153 72.0389C84.3074 71.8964 84.2556 71.7022 84.2556 71.4519V64.2048C84.2556 63.9674 84.3074 63.7775 84.4067 63.6264C84.506 63.4796 84.7002 63.4062 84.9851 63.4062H89.746C89.9488 63.4062 90.1258 63.458 90.2855 63.566C90.4452 63.6739 90.5272 63.8508 90.5272 64.0969C90.5272 64.2609 90.4668 64.4163 90.3416 64.5587C90.2165 64.7011 90.0352 64.7702 89.8021 64.7702H85.9606V64.7788Z" fill="#545859"/>
<path d="M98.7284 65.9304C98.7284 66.6771 98.5903 67.2382 98.3097 67.618C98.0335 67.9979 97.6321 68.2612 97.1098 68.4166C97.3688 68.8525 97.6234 69.2971 97.8737 69.7503C98.1241 70.1992 98.3701 70.6308 98.6205 71.0452C98.75 71.2826 98.7672 71.5114 98.6636 71.7272C98.5644 71.9473 98.4047 72.1027 98.1932 72.1976C98.0292 72.2667 97.8435 72.284 97.6407 72.2408C97.4378 72.1976 97.2867 72.1027 97.1788 71.9473L95.2063 68.5719H93.7517V71.4682C93.7517 71.6926 93.6654 71.8826 93.4927 72.0379C93.3201 72.1933 93.1172 72.2667 92.8798 72.2667C92.6424 72.2667 92.4395 72.189 92.2755 72.0379C92.1115 71.8826 92.0251 71.6926 92.0251 71.4682V64.152C92.0251 63.9751 92.0985 63.7981 92.2453 63.6211C92.392 63.4442 92.5863 63.3535 92.8237 63.3535H95.7199C97.727 63.3578 98.7284 64.2125 98.7284 65.9304ZM93.756 67.0138H95.7286C96.0134 67.0138 96.2422 66.9835 96.4105 66.9231C96.5832 66.8627 96.7127 66.785 96.8033 66.6814C96.894 66.5821 96.9501 66.4699 96.9803 66.3447C97.0105 66.2196 97.0234 66.0944 97.0234 65.9649C97.0234 65.8224 97.0062 65.6886 96.9717 65.5635C96.9371 65.4383 96.8637 65.3304 96.7602 65.2354C96.6522 65.1405 96.5012 65.0628 96.2983 65.0067C96.0954 64.9462 95.8235 64.916 95.4825 64.916H93.7603V67.0138H93.756Z" fill="#545859"/>
<path d="M103.307 69.624L105.651 63.6934C105.698 63.5768 105.806 63.4819 105.97 63.4085C106.134 63.3394 106.342 63.3265 106.592 63.3739C106.674 63.3869 106.765 63.4128 106.868 63.4516C106.967 63.4948 107.058 63.5423 107.136 63.6027C107.213 63.6631 107.27 63.7322 107.304 63.8142C107.339 63.8962 107.334 63.9912 107.287 64.0991L104.054 71.9116C104.006 72.0066 103.911 72.0929 103.769 72.1706C103.627 72.2483 103.471 72.2871 103.307 72.2871C103.143 72.2871 102.988 72.2483 102.845 72.1706C102.703 72.0929 102.608 72.0066 102.56 71.9116L99.3275 64.0991C99.28 63.9912 99.2757 63.8962 99.3103 63.8142C99.3448 63.7322 99.4009 63.6588 99.4786 63.6027C99.5563 63.5423 99.6426 63.4948 99.7376 63.4516C99.8325 63.4085 99.9275 63.3826 100.022 63.3739C100.273 63.3265 100.48 63.3394 100.644 63.4085C100.808 63.4775 100.916 63.5725 100.963 63.6934L103.307 69.624Z" fill="#545859"/>
<path d="M110.134 72.1204C109.974 72.2542 109.771 72.3232 109.521 72.3232C109.309 72.3232 109.111 72.2542 108.934 72.1204C108.757 71.9866 108.666 71.8226 108.666 71.6326V64.1222C108.666 63.9323 108.757 63.7683 108.934 63.6345C109.111 63.5007 109.305 63.4316 109.521 63.4316C109.771 63.4316 109.974 63.5007 110.134 63.6345C110.294 63.7726 110.376 63.9323 110.376 64.1222V71.6326C110.376 71.8226 110.294 71.9823 110.134 72.1204Z" fill="#545859"/>
<path d="M116.306 64.7042C115.477 64.7042 114.851 64.9675 114.424 65.4941C113.997 66.0207 113.785 66.7976 113.785 67.8292C113.785 69.9011 114.627 70.937 116.306 70.937C116.897 70.937 117.506 70.7298 118.136 70.3154C118.326 70.2075 118.538 70.1816 118.775 70.2248C119.012 70.2723 119.194 70.3888 119.327 70.5787C119.457 70.7557 119.491 70.924 119.427 71.0751C119.362 71.2305 119.245 71.3643 119.081 71.4851C118.641 71.7571 118.201 71.9643 117.748 72.1067C117.299 72.2491 116.82 72.3182 116.31 72.3182C115.598 72.3182 114.981 72.2103 114.454 71.9988C113.928 71.7873 113.488 71.4851 113.129 71.0924C112.775 70.6996 112.508 70.2291 112.331 69.6723C112.154 69.1155 112.063 68.4983 112.063 67.8249C112.063 67.1861 112.145 66.5904 112.313 66.0423C112.477 65.4898 112.732 65.0193 113.077 64.6222C113.423 64.2251 113.863 63.91 114.403 63.6812C114.942 63.4525 115.577 63.3359 116.31 63.3359C117.316 63.3359 118.24 63.6122 119.081 64.169C119.435 64.428 119.496 64.7603 119.258 65.1617C119.163 65.3387 118.986 65.4294 118.727 65.4294C118.469 65.4294 118.253 65.3819 118.089 65.2869C117.489 64.8984 116.897 64.7042 116.306 64.7042Z" fill="#545859"/>
<path d="M122.488 64.7788V67.1053H125.561C125.725 67.1053 125.889 67.1528 126.049 67.2478C126.208 67.3427 126.29 67.5154 126.29 67.7614C126.29 67.9643 126.226 68.124 126.096 68.2492C125.967 68.3743 125.794 68.4348 125.583 68.4348H122.492V70.9037H126.312C126.502 70.9037 126.675 70.9555 126.826 71.0548C126.981 71.154 127.054 71.331 127.054 71.577C127.054 71.767 126.994 71.9267 126.869 72.0561C126.744 72.1856 126.562 72.2504 126.329 72.2504H121.517C121.245 72.2504 121.055 72.1813 120.947 72.0389C120.839 71.8964 120.787 71.7022 120.787 71.4519V64.2048C120.787 63.9674 120.839 63.7775 120.938 63.6264C121.037 63.4796 121.232 63.4062 121.517 63.4062H126.277C126.48 63.4062 126.657 63.458 126.817 63.566C126.977 63.6739 127.059 63.8508 127.059 64.0969C127.059 64.2609 126.998 64.4163 126.873 64.5587C126.748 64.7011 126.567 64.7702 126.334 64.7702L122.488 64.7788Z" fill="#545859"/>
<path d="M138.324 63.3359C138.536 63.3359 138.73 63.405 138.903 63.5388C139.075 63.6769 139.162 63.8366 139.162 64.0266V71.6103C139.162 71.8477 139.08 72.0204 138.92 72.1326C138.76 72.2448 138.562 72.3009 138.324 72.3009C138.16 72.3009 137.975 72.2491 137.772 72.1412C137.569 72.0333 137.409 71.8995 137.293 71.7312L133.473 66.3142V71.6233C133.473 71.8002 133.391 71.9599 133.231 72.1024C133.071 72.2448 132.86 72.3139 132.601 72.3139C132.377 72.3139 132.178 72.2448 132.005 72.1024C131.833 71.9599 131.746 71.8002 131.746 71.6233V64.0395C131.746 63.8021 131.85 63.6294 132.057 63.5259C132.264 63.4179 132.48 63.3705 132.705 63.3834C133.071 63.3964 133.378 63.5733 133.628 63.9143L137.465 69.3313V64.0222C137.465 63.8323 137.543 63.6683 137.694 63.5345C137.858 63.405 138.065 63.3359 138.324 63.3359Z" fill="#545859"/>
<path d="M144.186 65.5938C145.299 65.5938 146.158 65.8873 146.771 66.4743C147.38 67.0613 147.686 67.8857 147.686 68.9518C147.686 70.018 147.38 70.8467 146.771 71.438C146.163 72.0294 145.299 72.3272 144.186 72.3272C143.072 72.3272 142.209 72.0294 141.592 71.438C140.974 70.8467 140.668 70.018 140.668 68.9518C140.668 67.8857 140.974 67.0613 141.592 66.4743C142.209 65.8873 143.072 65.5938 144.186 65.5938ZM144.186 71.0107C144.756 71.0107 145.196 70.8338 145.507 70.4798C145.822 70.1259 145.977 69.6166 145.977 68.9518C145.977 68.3001 145.826 67.7908 145.524 67.4239C145.222 67.057 144.773 66.8714 144.181 66.8714C143.59 66.8714 143.141 67.0527 142.83 67.4109C142.524 67.7735 142.369 68.2828 142.369 68.9475C142.369 69.6122 142.52 70.1216 142.822 70.4755C143.128 70.8338 143.581 71.0107 144.186 71.0107Z" fill="#545859"/>
<path d="M148.84 71.0818C148.84 70.7408 148.948 70.456 149.168 70.2402C149.388 70.02 149.673 69.9121 150.031 69.9121C150.385 69.9121 150.687 70.02 150.929 70.2402C151.171 70.4603 151.291 70.7408 151.291 71.0818C151.291 71.4142 151.171 71.6904 150.929 71.9149C150.687 72.1393 150.389 72.2515 150.031 72.2515C149.677 72.2515 149.388 72.1393 149.168 71.9149C148.948 71.6904 148.84 71.4142 148.84 71.0818Z" fill="#545859"/>
<path d="M54.4279 10.9979L50.0511 13.674L48.3807 10.9418L25.5388 24.9051L27.2092 27.6373L22.8324 30.3134L20.9937 27.305C19.6124 25.0475 20.329 22.0822 22.5864 20.701L45.9851 6.39674C48.2426 5.01552 51.2079 5.73203 52.5891 7.98946L54.4279 10.9979Z" fill="#545859"/>
<path d="M87.641 9.28913L85.1893 5.27496C83.6095 2.68948 80.3593 1.79169 77.9379 3.27218L5.23817 47.7173C2.81671 49.1978 2.13043 52.4954 3.71452 55.0809L6.16619 59.0951L87.641 9.28913Z" fill="white"/>
<path d="M91.1688 10.1379L5.31732 62.62L1.5276 56.4175C-0.785941 52.6277 0.280194 47.7417 3.9059 45.5274L76.6013 1.0866C80.227 -1.12767 85.0612 0.149958 87.3791 3.93968L91.1688 10.1379ZM7.01795 55.5671L84.116 8.43728L83.0024 6.61148C82.1607 5.23458 80.4903 4.72094 79.2817 5.45903L6.5777 49.9041C5.36481 50.6465 5.06267 52.3687 5.90436 53.7413L7.01795 55.5671Z" fill="#545859"/>
<path d="M32.8516 89.4512V142.943C32.8516 145.101 35.3075 146.85 38.3419 146.85H116.381C119.411 146.85 121.871 145.101 121.871 142.943V89.4512H32.8516Z" fill="white"/>
<path opacity="0.5" d="M97.9975 136.04C97.9975 125.754 104.813 117.061 114.171 114.221V95.9805H40.5474V139.152H98.2177C98.0752 138.134 97.9975 137.098 97.9975 136.04Z" fill="#FFD100"/>
<path d="M50.8684 98.5488H45.7363V136.243H50.8684V98.5488Z" fill="#545859"/>
<path d="M65.0818 98.5488H59.9497V136.243H65.0818V98.5488Z" fill="#545859"/>
<path d="M79.2997 98.5488H74.1676V136.243H79.2997V98.5488Z" fill="#545859"/>
<path d="M93.513 98.5488H88.3809V136.243H93.513V98.5488Z" fill="#545859"/>
<path d="M107.726 117.36V98.5449H102.594V122.302C104.036 120.403 105.771 118.732 107.726 117.36Z" fill="#545859"/>
<path d="M99.5385 144.286H38.3418C36.7275 144.286 35.4196 142.974 35.4196 141.364V91.5106H119.303V113.299C119.799 113.269 120.296 113.243 120.801 113.243C122.039 113.243 123.252 113.347 124.435 113.537V86.3828H30.2832V141.364C30.2832 145.806 33.8959 149.418 38.3374 149.418H102.335C101.196 147.843 100.251 146.121 99.5385 144.286Z" fill="#545859"/>
<path d="M121.469 154.79C131.847 154.431 139.969 145.727 139.609 135.349C139.25 124.971 130.546 116.85 120.168 117.209C109.791 117.568 101.669 126.272 102.028 136.65C102.388 147.028 111.092 155.149 121.469 154.79Z" fill="white"/>
<path d="M120.796 116.047C109.781 116.047 100.821 125.008 100.821 136.023C100.821 147.038 109.781 155.999 120.796 155.999C121.073 155.999 121.349 155.994 121.617 155.981L122.022 155.964L121.927 153.612L121.522 153.629C121.284 153.638 121.043 153.642 120.796 153.642C111.08 153.642 103.177 145.739 103.177 136.023C103.177 126.307 111.08 118.404 120.796 118.404C130.513 118.404 138.416 126.307 138.416 136.023C138.416 136.264 138.411 136.506 138.403 136.748L138.385 137.154L140.738 137.249L140.755 136.843C140.768 136.571 140.772 136.295 140.772 136.023C140.772 125.008 131.812 116.047 120.796 116.047Z" fill="#545859"/>
<path d="M131.714 149.852C131.355 150.137 130.98 150.409 130.6 150.663L130.263 150.888L131.576 152.843L131.912 152.619C132.344 152.329 132.771 152.019 133.177 151.699L133.496 151.449L132.037 149.602L131.714 149.852Z" fill="#545859"/>
<path d="M129.426 151.388C129.024 151.612 128.61 151.824 128.2 152.018L127.833 152.186L128.821 154.323L129.188 154.154C129.659 153.939 130.125 153.697 130.582 153.442L130.936 153.244L129.784 151.193L129.426 151.388Z" fill="#545859"/>
<path d="M126.925 152.547C126.498 152.706 126.058 152.849 125.617 152.974L125.229 153.086L125.872 155.352L126.26 155.24C126.761 155.098 127.262 154.934 127.745 154.752L128.125 154.61L127.305 152.404L126.925 152.547Z" fill="#545859"/>
<path d="M124.276 153.297C123.827 153.387 123.37 153.461 122.917 153.513L122.515 153.56L122.796 155.895L123.197 155.848C123.715 155.787 124.237 155.701 124.742 155.602L125.14 155.524L124.678 153.215L124.276 153.297Z" fill="#545859"/>
<path d="M135.446 145.811C135.191 146.195 134.915 146.571 134.634 146.925L134.384 147.244L136.231 148.703L136.482 148.388C136.805 147.978 137.112 147.555 137.401 147.123L137.625 146.787L135.67 145.475L135.446 145.811Z" fill="#545859"/>
<path d="M138.295 138.12C138.244 138.577 138.17 139.035 138.08 139.484L138.002 139.881L140.311 140.343L140.389 139.946C140.492 139.436 140.575 138.918 140.635 138.4L140.682 137.999L138.343 137.723L138.295 138.12Z" fill="#545859"/>
<path d="M133.739 147.979C133.428 148.316 133.1 148.644 132.763 148.955L132.465 149.231L134.062 150.958L134.36 150.681C134.74 150.332 135.111 149.961 135.465 149.577L135.741 149.279L134.015 147.682L133.739 147.979Z" fill="#545859"/>
<path d="M137.755 140.824C137.63 141.264 137.488 141.708 137.328 142.136L137.186 142.516L139.391 143.336L139.534 142.956C139.715 142.468 139.879 141.967 140.017 141.467L140.125 141.078L137.859 140.439L137.755 140.824Z" fill="#545859"/>
<path d="M136.798 143.408C136.608 143.822 136.397 144.237 136.172 144.638L135.974 144.992L138.024 146.144L138.223 145.791C138.477 145.337 138.719 144.867 138.935 144.396L139.103 144.029L136.967 143.041L136.798 143.408Z" fill="#545859"/>
<path d="M121.265 149.381C128.655 149.125 134.439 142.927 134.183 135.537C133.927 128.146 127.729 122.363 120.338 122.619C112.948 122.875 107.165 129.073 107.421 136.463C107.676 143.853 113.875 149.637 121.265 149.381Z" fill="#FFD100"/>
<path d="M130.766 131.271L127.089 127.598L117.636 137.05L114.796 134.215L111.123 137.888L117.593 144.444L130.766 131.271Z" fill="white"/>
<path d="M117.589 145.541L110.035 137.888L114.8 133.123L117.636 135.959L127.089 126.502L131.858 131.271L117.589 145.541ZM112.21 137.893L117.593 143.349L129.67 131.271L127.089 128.686L117.636 138.139L114.8 135.303L112.21 137.893Z" fill="#545859"/>
</svg>
