<svg width="192" height="96" viewBox="0 0 192 96" fill="none" xmlns="http://www.w3.org/2000/svg">
<g clip-path="url(#clip0_1918_391366)">
<path d="M32.3101 10.5254L54.4185 23.1143L32.1674 35.9108L10.0635 23.3241L32.3101 10.5254Z" fill="#FFD100"/>
<path d="M55.9179 23.1092C55.9157 22.5767 55.6258 22.0804 55.1617 21.8164L33.0532 9.22753C32.8245 9.09668 32.5664 9.03125 32.3105 9.03125C32.0501 9.03125 31.792 9.09668 31.561 9.22978L9.31443 22.0285C8.85025 22.2947 8.56269 22.7933 8.56495 23.3258C8.56722 23.8582 8.85705 24.3545 9.32122 24.6185L31.4252 37.2052C31.8803 37.4646 32.4667 37.4623 32.9196 37.2029L55.1707 24.4042C55.6326 24.1402 55.9202 23.6439 55.9179 23.1092ZM32.1633 34.1865L13.0731 23.3167L32.3128 12.2484L51.4052 23.1205L32.1633 34.1865Z" fill="#545859"/>
<path d="M54.173 22.8672L54.4289 48.4489L32.18 61.2498L31.9219 35.6637L54.173 22.8672Z" fill="white"/>
<path d="M33.1761 62.7906L55.4272 49.9874C55.8959 49.7189 56.1812 49.2158 56.1767 48.6788L55.9186 23.0972C55.9141 22.5693 55.6242 22.0774 55.1623 21.8135C54.9336 21.6826 54.6755 21.6172 54.4196 21.6172C54.1592 21.6172 53.9011 21.6849 53.6702 21.8157L31.419 34.6122C30.9503 34.8807 30.6628 35.3838 30.6696 35.9207L30.9277 61.5069C30.9322 62.0371 31.222 62.5289 31.6839 62.7906C32.1368 63.0523 32.7233 63.0501 33.1761 62.7906ZM52.9456 25.6849L53.1697 47.8351L33.9007 58.9214L33.6788 36.7668L52.9456 25.6849Z" fill="#545859"/>
<path d="M32.1674 35.9109L32.4233 61.4971L10.3171 48.9081L10.0635 23.3242L32.1674 35.9109Z" fill="white"/>
<path d="M9.57267 50.2048L31.6789 62.7937C32.1363 63.0554 32.7272 63.0509 33.1824 62.7847C33.6443 62.5139 33.9273 62.0153 33.9228 61.4829L33.6669 35.8945C33.6624 35.3665 33.3726 34.8747 32.9106 34.6108L10.8067 22.0264C10.578 21.8955 10.3199 21.8301 10.064 21.8301C9.80136 21.8301 9.53644 21.8978 9.30322 22.0354C8.84357 22.3039 8.55827 22.8047 8.56506 23.3371L8.81866 48.9211C8.82319 49.4512 9.11302 49.9431 9.57267 50.2048ZM30.6758 36.7834L30.8977 58.9087L11.8075 48.0367L11.5879 25.9136L30.6758 36.7834Z" fill="#545859"/>
<path d="M64.7404 66.2773H0V85.075H64.7404V66.2773Z" fill="#FFE67D"/>
<path d="M6.97413 74.9392C7.27076 74.9844 7.56511 75.0408 7.85721 75.1062C8.1493 75.1739 8.41422 75.2731 8.65197 75.4085C8.88972 75.5439 9.08445 75.7198 9.23842 75.9387C9.39013 76.1575 9.47164 76.4418 9.4807 76.7915C9.49881 77.1953 9.43315 77.5337 9.28597 77.8067C9.13653 78.0797 8.93274 78.2963 8.67235 78.4587C8.41196 78.6189 8.10628 78.734 7.75531 78.8016C7.40435 78.8693 7.0398 78.9032 6.66393 78.9032C6.50316 78.9032 6.29711 78.8851 6.05031 78.849C5.8035 78.8129 5.55443 78.7565 5.30309 78.6821C5.05176 78.6054 4.81854 78.5084 4.60116 78.3865C4.38606 78.2647 4.23662 78.1158 4.1551 77.9376C4.12793 77.8744 4.12114 77.7887 4.13472 77.6759C4.14831 77.5631 4.19133 77.4728 4.26379 77.4006C4.36342 77.2743 4.50154 77.2066 4.68268 77.1931C4.86156 77.1795 5.011 77.2134 5.12874 77.2946C5.36196 77.4638 5.62462 77.5969 5.91671 77.6916C6.20881 77.7864 6.45788 77.8315 6.66393 77.8315C6.84281 77.8315 7.02848 77.8225 7.21641 77.8045C7.40435 77.7864 7.57417 77.7413 7.72135 77.6691C7.87079 77.5969 7.98853 77.4976 8.07911 77.3668C8.16968 77.2359 8.20817 77.0554 8.20138 76.8231C8.18326 76.5456 8.0542 76.3606 7.81645 76.2658C7.5787 76.1711 7.23 76.0898 6.77261 76.0176C6.51222 75.9815 6.23824 75.9342 5.95068 75.8755C5.66311 75.8169 5.39366 75.7244 5.14233 75.5935C4.89099 75.4626 4.68268 75.2889 4.51512 75.0701C4.34757 74.8512 4.25699 74.558 4.23888 74.1902C4.22982 73.7774 4.30002 73.4389 4.44719 73.1682C4.59664 72.8997 4.80042 72.6899 5.06081 72.5365C5.32121 72.3854 5.62462 72.2771 5.97106 72.2139C6.31749 72.1507 6.67978 72.1191 7.05565 72.1191C7.8006 72.1191 8.47083 72.3199 9.06407 72.7238C9.22483 72.823 9.31541 72.9404 9.33352 73.0802C9.35163 73.2201 9.31993 73.351 9.23842 73.4773C9.20219 73.5495 9.14558 73.6014 9.07086 73.6307C8.99388 73.6623 8.91236 73.6826 8.82858 73.6916C8.74254 73.7007 8.65876 73.6984 8.57272 73.6849C8.48668 73.6713 8.41875 73.6465 8.36441 73.6104C8.13118 73.4683 7.90702 73.36 7.69644 73.2878C7.48586 73.2156 7.27076 73.1795 7.05565 73.1795C6.87677 73.1795 6.69563 73.1863 6.51675 73.1998C6.33787 73.2133 6.17258 73.2517 6.0254 73.3149C5.87596 73.378 5.75595 73.475 5.66085 73.6036C5.56575 73.7345 5.52273 73.9105 5.53179 74.1338C5.5499 74.4113 5.68576 74.5963 5.94389 74.6911C6.19975 74.7858 6.54392 74.8693 6.97413 74.9392Z" fill="#545859"/>
<path d="M11.8693 73.1931V74.9529H14.2016C14.3284 74.9529 14.4506 74.989 14.5729 75.0612C14.6952 75.1334 14.754 75.262 14.754 75.4515C14.754 75.6049 14.7042 75.7267 14.6046 75.8215C14.505 75.9162 14.3759 75.9636 14.2129 75.9636H11.8671V77.8316H14.7654C14.908 77.8316 15.0393 77.87 15.1571 77.9467C15.2748 78.0234 15.3314 78.1543 15.3314 78.3438C15.3314 78.4882 15.2839 78.6077 15.1888 78.707C15.0937 78.8063 14.9578 78.8536 14.7767 78.8536H11.1221C10.9161 78.8536 10.7712 78.7995 10.6897 78.6935C10.6081 78.5852 10.5674 78.4385 10.5674 78.249V72.7667C10.5674 72.5885 10.6059 72.4419 10.6829 72.3291C10.7598 72.2163 10.9048 72.1621 11.1221 72.1621H14.7359C14.8876 72.1621 15.0258 72.2027 15.148 72.2839C15.2703 72.3652 15.3292 72.4983 15.3292 72.6878C15.3292 72.8141 15.2816 72.9292 15.1865 73.0375C15.0914 73.1458 14.9556 73.1976 14.7744 73.1976L11.8693 73.1931Z" fill="#545859"/>
<path d="M21.5635 74.0656C21.5635 74.6296 21.4571 75.056 21.2465 75.3425C21.0359 75.629 20.7325 75.8298 20.3362 75.9471C20.5332 76.2788 20.728 76.6149 20.9159 76.9556C21.1038 77.2963 21.294 77.6234 21.482 77.937C21.5816 78.1152 21.5929 78.2889 21.5159 78.4536C21.4389 78.6206 21.3212 78.7379 21.1582 78.8101C21.0314 78.8642 20.8932 78.8755 20.7393 78.8439C20.5853 78.8124 20.4698 78.7379 20.3883 78.6228L18.8916 76.0712H17.7866V78.2619C17.7866 78.4311 17.721 78.5755 17.5919 78.6928C17.4606 78.8101 17.3066 78.8665 17.1277 78.8665C16.9489 78.8665 16.7949 78.8078 16.6704 78.6928C16.5436 78.5755 16.4824 78.4333 16.4824 78.2619V72.7277C16.4824 72.5923 16.539 72.4592 16.65 72.3239C16.7632 72.1885 16.9081 72.1231 17.0892 72.1231H19.2879C20.8049 72.1186 21.5635 72.7683 21.5635 74.0656ZM17.7889 74.8845H19.2856C19.5007 74.8845 19.6751 74.862 19.8041 74.8168C19.9332 74.7717 20.0328 74.7108 20.1007 74.6363C20.1687 74.5596 20.214 74.4762 20.2366 74.3814C20.2592 74.2867 20.2706 74.1919 20.2706 74.0926C20.2706 73.9843 20.257 73.8851 20.2298 73.7903C20.2026 73.6956 20.1483 73.6143 20.069 73.5421C19.9875 73.47 19.8721 73.4136 19.7181 73.3684C19.5641 73.3233 19.3581 73.3007 19.0977 73.3007H17.7889V74.8845Z" fill="#545859"/>
<path d="M25.0426 76.8617L26.8224 72.3744C26.8586 72.2841 26.9401 72.2142 27.0646 72.1601C27.1914 72.1059 27.3477 72.0969 27.5356 72.133C27.599 72.142 27.6692 72.1623 27.7439 72.1939C27.8209 72.2255 27.8866 72.2638 27.9455 72.309C28.0043 72.3541 28.0473 72.4082 28.0745 72.4691C28.1017 72.5323 28.0972 72.6045 28.0609 72.6835L25.6064 78.5944C25.5702 78.6666 25.4978 78.732 25.3913 78.7884C25.2827 78.8471 25.1672 78.8764 25.0404 78.8764C24.9136 78.8764 24.7981 78.8471 24.6894 78.7884C24.5807 78.7298 24.5105 78.6643 24.4743 78.5944L22.0198 72.6835C21.9836 72.6023 21.9791 72.5323 22.0062 72.4691C22.0334 72.406 22.0764 72.3518 22.1353 72.309C22.1942 72.2638 22.2598 72.2255 22.33 72.1939C22.4025 72.1623 22.4727 72.142 22.5451 72.133C22.7331 72.0969 22.8916 72.1059 23.0161 72.1601C23.1429 72.2142 23.2222 72.2864 23.2584 72.3744L25.0426 76.8617Z" fill="#545859"/>
<path d="M30.2255 78.7483C30.1033 78.8521 29.9493 78.9017 29.7614 78.9017C29.6006 78.9017 29.4511 78.8499 29.3153 78.7483C29.1794 78.6446 29.1138 78.5227 29.1138 78.3783V72.6953C29.1138 72.5531 29.1817 72.4291 29.3153 72.3253C29.4511 72.2215 29.5983 72.1719 29.7614 72.1719C29.9493 72.1719 30.1055 72.2238 30.2255 72.3253C30.3478 72.4291 30.4067 72.5509 30.4067 72.6953V78.3783C30.4067 78.5227 30.3478 78.6468 30.2255 78.7483Z" fill="#545859"/>
<path d="M34.9102 73.1387C34.2808 73.1387 33.8053 73.3373 33.4815 73.7366C33.1577 74.1359 32.9969 74.7248 32.9969 75.5031C32.9969 77.0711 33.6354 77.8539 34.9125 77.8539C35.3608 77.8539 35.825 77.6983 36.3005 77.3847C36.4432 77.3035 36.6062 77.2809 36.7851 77.317C36.9639 77.3531 37.1043 77.4433 37.204 77.5855C37.3036 77.7208 37.3285 77.8449 37.2787 77.9622C37.2289 78.0796 37.1406 78.1811 37.016 78.2713C36.6832 78.4766 36.3458 78.6345 36.0039 78.7406C35.662 78.8489 35.2974 78.9008 34.9125 78.9008C34.3736 78.9008 33.9026 78.8195 33.5041 78.6594C33.1033 78.4992 32.7682 78.2691 32.4988 77.9735C32.2293 77.678 32.0278 77.3193 31.892 76.8996C31.7561 76.4777 31.6904 76.013 31.6904 75.5031C31.6904 75.0203 31.7538 74.5691 31.8784 74.154C32.0052 73.7366 32.1976 73.3802 32.458 73.0801C32.7184 72.78 33.0535 72.5431 33.4634 72.3672C33.8732 72.1935 34.3555 72.1055 34.9125 72.1055C35.6756 72.1055 36.3775 72.3153 37.016 72.7372C37.2855 72.9334 37.3308 73.1861 37.1519 73.4884C37.0794 73.6238 36.9458 73.6892 36.7466 73.6892C36.5496 73.6892 36.3865 73.6531 36.262 73.5809C35.8092 73.2877 35.3608 73.1387 34.9102 73.1387Z" fill="#545859"/>
<path d="M39.6024 73.1931V74.9529H41.9346C42.0614 74.9529 42.1837 74.989 42.306 75.0612C42.4283 75.1334 42.4871 75.262 42.4871 75.4515C42.4871 75.6049 42.4373 75.7267 42.3377 75.8215C42.2381 75.9162 42.109 75.9636 41.946 75.9636H39.6024V77.8316H42.5007C42.6434 77.8316 42.7747 77.87 42.8924 77.9467C43.0102 78.0234 43.0668 78.1543 43.0668 78.3438C43.0668 78.4882 43.0192 78.6077 42.9241 78.707C42.829 78.8063 42.6932 78.8536 42.512 78.8536H38.8575C38.6514 78.8536 38.5065 78.7995 38.425 78.6935C38.3435 78.5852 38.3027 78.4385 38.3027 78.249V72.7667C38.3027 72.5885 38.3412 72.4419 38.4182 72.3291C38.4952 72.2163 38.6401 72.1621 38.8575 72.1621H42.4713C42.623 72.1621 42.7611 72.2027 42.8834 72.2839C43.0056 72.3652 43.0645 72.4983 43.0645 72.6878C43.0645 72.8141 43.017 72.9292 42.9219 73.0375C42.8268 73.1458 42.6909 73.1976 42.5098 73.1976H39.6024V73.1931Z" fill="#545859"/>
<path d="M51.6302 72.1055C51.7909 72.1055 51.9381 72.1574 52.0695 72.2589C52.1985 72.3627 52.2642 72.4845 52.2642 72.6289V78.3661C52.2642 78.5443 52.203 78.6774 52.083 78.7631C51.9608 78.8489 51.8113 78.8917 51.6324 78.8917C51.5056 78.8917 51.3675 78.8511 51.2136 78.7699C51.0596 78.6887 50.9396 78.5872 50.849 78.4608L47.9507 74.3638V78.3796C47.9507 78.515 47.8896 78.6346 47.7696 78.7428C47.6473 78.8511 47.4888 78.903 47.2918 78.903C47.122 78.903 46.9703 78.8489 46.8412 78.7428C46.7099 78.6346 46.6465 78.515 46.6465 78.3796V72.6424C46.6465 72.4642 46.7257 72.3333 46.882 72.2521C47.0382 72.1709 47.2035 72.1348 47.3733 72.1438C47.6518 72.1528 47.8851 72.2882 48.0753 72.5477L50.9871 76.6447V72.6289C50.9871 72.4867 51.046 72.3627 51.1615 72.2589C51.2747 72.1574 51.4309 72.1055 51.6302 72.1055Z" fill="#545859"/>
<path d="M56.0793 73.8105C56.9238 73.8105 57.5782 74.0316 58.0401 74.4761C58.502 74.9205 58.7353 75.5432 58.7353 76.3509C58.7353 77.1563 58.5043 77.7835 58.0401 78.2325C57.5759 78.6814 56.9238 78.9048 56.0793 78.9048C55.2347 78.9048 54.578 78.6814 54.1116 78.2325C53.6452 77.7858 53.4097 77.1586 53.4097 76.3509C53.4097 75.5432 53.6429 74.9205 54.1116 74.4761C54.578 74.0316 55.2347 73.8105 56.0793 73.8105ZM56.0793 77.9076C56.5117 77.9076 56.8446 77.7722 57.0846 77.5037C57.3223 77.2353 57.4424 76.8495 57.4424 76.3486C57.4424 75.8568 57.3269 75.471 57.0982 75.1935C56.8695 74.916 56.5298 74.7761 56.0793 74.7761C55.6287 74.7761 55.289 74.9138 55.0535 75.1868C54.8203 75.4597 54.7026 75.8478 54.7026 76.3486C54.7026 76.8495 54.8181 77.2353 55.0467 77.5037C55.2777 77.7745 55.6196 77.9076 56.0793 77.9076Z" fill="#545859"/>
<path d="M59.6118 77.9628C59.6118 77.7034 59.6956 77.4913 59.8609 77.3243C60.0262 77.1596 60.2458 77.0762 60.5153 77.0762C60.7847 77.0762 61.0111 77.1596 61.1968 77.3243C61.3802 77.4913 61.4731 77.7034 61.4731 77.9628C61.4731 78.2132 61.3802 78.4253 61.1968 78.5945C61.0134 78.7637 60.7847 78.8494 60.5153 78.8494C60.2458 78.8494 60.0284 78.7637 59.8609 78.5945C59.6956 78.423 59.6118 78.2132 59.6118 77.9628Z" fill="#545859"/>
<path d="M145.47 14.0694L142.848 15.6667L141.847 14.0355L128.162 22.3717L129.163 24.0029L126.541 25.6002L125.438 23.8044C124.612 22.4552 125.04 20.6865 126.394 19.863L140.414 11.3237C141.768 10.5003 143.543 10.9267 144.37 12.2758L145.47 14.0694Z" fill="#545859"/>
<path d="M165.372 13.0461L163.902 10.6502C162.956 9.10701 161.009 8.57232 159.56 9.45445L116.002 35.9859C114.55 36.8703 114.14 38.8399 115.087 40.383L116.556 42.779L165.372 13.0461Z" fill="white"/>
<path d="M167.486 13.5541L116.044 44.8888L113.773 41.1843C112.385 38.9237 113.024 36.0066 115.197 34.6823L158.758 8.15079C160.929 6.82873 163.827 7.59128 165.215 9.85413L167.486 13.5541ZM117.065 40.6767L163.259 12.5389L162.591 11.4492C162.088 10.628 161.088 10.3189 160.361 10.7633L116.803 37.2948C116.076 37.737 115.895 38.7658 116.4 39.587L117.065 40.6767Z" fill="#545859"/>
<path d="M127.336 49.1016V81.0364C127.336 82.3246 128.808 83.3669 130.626 83.3669H177.383C179.199 83.3669 180.671 82.3246 180.671 81.0364V49.1016H127.336Z" fill="white"/>
<path opacity="0.5" d="M166.37 76.9144C166.37 70.7734 170.452 65.5844 176.061 63.8878V53H131.946V78.7712H166.499C166.415 78.1643 166.37 77.5439 166.37 76.9144Z" fill="#FFD100"/>
<path d="M167.295 81.8339H130.625C129.658 81.8339 128.872 81.051 128.872 80.0877V50.3255H179.132V63.3318C179.429 63.3115 179.728 63.3002 180.029 63.3002C180.769 63.3002 181.496 63.3611 182.205 63.4739V47.2617H125.799V80.0854C125.799 82.7363 127.964 84.8931 130.625 84.8931H168.97C168.286 83.9591 167.723 82.9303 167.295 81.8339Z" fill="#545859"/>
<path d="M138.131 54.5312H135.056V77.0334H138.131V54.5312Z" fill="#545859"/>
<path d="M146.649 54.5312H143.574V77.0334H146.649V54.5312Z" fill="#545859"/>
<path d="M155.167 54.5312H152.092V77.0334H155.167V54.5312Z" fill="#545859"/>
<path d="M163.683 54.5312H160.608V77.0334H163.683V54.5312Z" fill="#545859"/>
<path d="M172.201 65.762V54.5312H169.126V68.7152C169.989 67.5781 171.028 66.581 172.201 65.762Z" fill="#545859"/>
<path d="M180.429 88.1033C186.642 87.8889 191.504 82.6961 191.289 76.5047C191.074 70.3133 185.863 65.468 179.65 65.6823C173.438 65.8966 168.576 71.0894 168.791 77.2808C169.006 83.4722 174.217 88.3176 180.429 88.1033Z" fill="white"/>
<path d="M180.031 64.9766C173.432 64.9766 168.062 70.3257 168.062 76.9022C168.062 83.4787 173.43 88.8278 180.031 88.8278C180.196 88.8278 180.361 88.8256 180.522 88.8188L180.764 88.8098L180.705 87.4043L180.463 87.4155C180.323 87.4223 180.175 87.4246 180.031 87.4246C174.209 87.4246 169.472 82.7048 169.472 76.9045C169.472 71.1041 174.209 66.3844 180.031 66.3844C185.852 66.3844 190.589 71.1041 190.589 76.9045C190.589 77.0488 190.587 77.1932 190.58 77.3376L190.571 77.579L191.981 77.6354L191.99 77.394C191.997 77.2316 192 77.0669 192 76.9045C192 70.3257 186.629 64.9766 180.031 64.9766Z" fill="#545859"/>
<path d="M186.572 85.159C186.357 85.3282 186.133 85.4906 185.904 85.644L185.703 85.7794L186.488 86.9458L186.69 86.8104C186.95 86.6367 187.204 86.4517 187.446 86.2599L187.636 86.111L186.762 85.0078L186.572 85.159Z" fill="#545859"/>
<path d="M185.199 86.0766C184.959 86.212 184.712 86.3383 184.463 86.4511L184.244 86.5526L184.837 87.8273L185.057 87.7258C185.337 87.5949 185.618 87.4528 185.89 87.2994L186.1 87.1821L185.407 85.957L185.199 86.0766Z" fill="#545859"/>
<path d="M183.701 86.7693C183.445 86.8641 183.18 86.9498 182.915 87.0243L182.682 87.0897L183.067 88.4411L183.3 88.3757C183.601 88.2899 183.9 88.1929 184.19 88.0846L184.417 88.0011L183.925 86.6836L183.701 86.7693Z" fill="#545859"/>
<path d="M182.114 87.2176C181.847 87.2717 181.571 87.3146 181.299 87.3462L181.059 87.3755L181.227 88.7698L181.467 88.7404C181.777 88.7043 182.089 88.6547 182.393 88.5938L182.631 88.5464L182.354 87.168L182.114 87.2176Z" fill="#545859"/>
<path d="M188.809 82.748C188.655 82.9758 188.492 83.2014 188.322 83.4135L188.172 83.603L189.28 84.4739L189.429 84.2844C189.622 84.0407 189.807 83.7858 189.982 83.5286L190.117 83.3278L188.945 82.5449L188.809 82.748Z" fill="#545859"/>
<path d="M190.514 78.1571C190.482 78.4301 190.439 78.7031 190.385 78.9693L190.337 79.2062L191.721 79.4814L191.768 79.2445C191.83 78.9422 191.879 78.6309 191.916 78.3218L191.945 78.0827L190.543 77.918L190.514 78.1571Z" fill="#545859"/>
<path d="M187.786 84.0399C187.598 84.2407 187.403 84.4369 187.201 84.6219L187.022 84.7866L187.98 85.8177L188.159 85.653C188.386 85.4432 188.61 85.2221 188.82 84.9919L188.986 84.8137L187.951 83.8594L187.786 84.0399Z" fill="#545859"/>
<path d="M190.191 79.7698C190.116 80.0337 190.03 80.2977 189.935 80.5526L189.851 80.7783L191.173 81.2656L191.257 81.04C191.366 80.7489 191.463 80.4511 191.547 80.1511L191.613 79.9187L190.256 79.5352L190.191 79.7698Z" fill="#545859"/>
<path d="M189.618 81.3129C189.503 81.5611 189.376 81.807 189.242 82.0461L189.125 82.2559L190.354 82.944L190.472 82.7342C190.626 82.4635 190.768 82.1837 190.897 81.9017L190.999 81.6829L189.72 81.0918L189.618 81.3129Z" fill="#545859"/>
<path d="M180.311 84.882C184.739 84.7293 188.204 81.0289 188.051 76.617C187.898 72.2051 184.184 68.7523 179.756 68.9051C175.328 69.0578 171.863 72.7582 172.016 77.1701C172.169 81.582 175.883 85.0348 180.311 84.882Z" fill="#FFD100"/>
<path d="M186.004 74.0663L183.803 71.8711L178.138 77.5158L176.438 75.8215L174.234 78.0166L178.111 81.9309L186.004 74.0663Z" fill="white"/>
<path d="M178.109 82.5846L173.583 78.016L176.438 75.1711L178.138 76.8654L183.804 71.2207L186.661 74.0679L178.109 82.5846ZM174.887 78.0183L178.113 81.2738L185.35 74.0656L183.801 72.5225L178.136 78.1672L176.436 76.4729L174.887 78.0183Z" fill="#545859"/>
<path d="M103.886 61.44H72.016C70.5147 61.44 69.2988 60.2285 69.2988 58.7327C69.2988 57.2369 70.5147 56.0254 72.016 56.0254H103.886C105.387 56.0254 106.603 57.2369 106.603 58.7327C106.603 60.2285 105.387 61.44 103.886 61.44Z" fill="#545859"/>
<path d="M101.033 68.452L117.925 58.7329L101.033 49.0137V68.452Z" fill="#545859"/>
</g>
<defs>
<clipPath id="clip0_1918_391366">
<rect width="192" height="81.3248" fill="white" transform="translate(0 7.5)"/>
</clipPath>
</defs>
</svg>
