<svg width="157" height="156" viewBox="0 0 157 156" fill="none" xmlns="http://www.w3.org/2000/svg">
<g clip-path="url(#clip0_1373_267019)">
<path d="M137.515 58.3498L137.486 58.3201V58.2989H137.456L120.743 44.0122L108.976 33.9559C107.593 32.7813 105.78 31.228 103.967 29.6746L88.2976 16.2904L75.4195 5.28068C73.9991 4.13846 72.2311 3.51562 70.4084 3.51562C68.5857 3.51562 66.8177 4.13846 65.3973 5.28068L52.5151 16.2904L36.8497 29.6746C35.0324 31.228 33.2237 32.7813 31.8406 33.9559L20.0565 44.0122L3.33993 58.2989H3.29297V58.3372V135.945H137.473V58.3498H137.515Z" fill="white"/>
<path d="M93.1132 133.079H6.1935V59.6667L33.7155 36.1452L38.7245 31.8638L67.2721 7.46555C68.1715 6.77226 69.2752 6.39621 70.4108 6.39621C71.5463 6.39621 72.65 6.77226 73.5494 7.46555L102.574 32.2724C104.229 33.6895 105.846 35.0769 107.106 36.1408L134.611 59.6538V89.5335C136.591 90.0495 138.521 90.7418 140.378 91.602V58.6028C140.408 58.2639 140.377 57.9224 140.288 57.5941C140.118 56.9432 139.727 56.3718 139.182 55.977L110.843 31.7531C109.566 30.6849 107.97 29.3061 106.323 27.8932L77.2946 3.0822C75.3567 1.48376 72.9228 0.609375 70.4108 0.609375C67.8987 0.609375 65.465 1.48376 63.5272 3.0822L34.9751 27.4803L29.9705 31.7574L1.71644 55.9089C1.37183 56.1439 1.08159 56.4501 0.865288 56.8068C0.537248 57.3344 0.388011 57.9537 0.439712 58.5729V135.955C0.439712 136.334 0.514358 136.708 0.659149 137.058C0.803941 137.407 1.01605 137.725 1.28359 137.993C1.55113 138.26 1.86872 138.472 2.21828 138.617C2.56783 138.762 2.94251 138.836 3.32087 138.836H95.5262C94.5469 136.995 93.7392 135.068 93.1132 133.079Z" fill="#545859"/>
<path d="M125.703 15.207H15.1211V117.894H125.703V15.207Z" fill="white"/>
<path d="M128.578 120.771H12.2344V21.6114C12.2338 20.3904 12.4738 19.1814 12.9407 18.0532C13.4075 16.925 14.092 15.8999 14.9551 15.0364C15.8182 14.1728 16.8432 13.4878 17.9711 13.0205C19.0991 12.5531 20.3079 12.3125 21.5289 12.3125H119.284C120.505 12.3125 121.714 12.5531 122.841 13.0205C123.969 13.4878 124.994 14.1728 125.857 15.0364C126.721 15.8999 127.405 16.925 127.872 18.0532C128.339 19.1814 128.579 20.3904 128.578 21.6114V120.771ZM18.0008 115.004H122.816V18.0833H22.5758C21.3624 18.0833 20.1987 18.5653 19.3407 19.4232C18.4828 20.2812 18.0008 21.4449 18.0008 22.6583V115.004Z" fill="#545859"/>
<path d="M116.734 64.4023H24.0859V108.909H116.734V64.4023Z" fill="#FFE67D"/>
<path d="M46.2218 73.7812H31.25V82.0885H46.2218V73.7812Z" fill="#545859"/>
<path d="M67.3389 73.7812H52.3672V82.0885H67.3389V73.7812Z" fill="#545859"/>
<path d="M88.4522 73.7812H73.4805V82.0885H88.4522V73.7812Z" fill="#545859"/>
<path d="M109.569 73.7812H94.5977V82.0885H109.569V73.7812Z" fill="#545859"/>
<path d="M46.2218 88.4375H31.25V96.7447H46.2218V88.4375Z" fill="#545859"/>
<path d="M67.3389 88.4375H52.3672V96.7447H67.3389V88.4375Z" fill="#545859"/>
<path d="M88.4522 88.4375H73.4805V96.7447H88.4522V88.4375Z" fill="#545859"/>
<path d="M109.569 88.4375H94.5977V96.7447H109.569V88.4375Z" fill="#545859"/>
<path d="M137.378 59.9414L120.687 74.2067L108.92 84.2674C107.537 85.442 105.728 86.991 103.911 88.5443L92.1905 98.5624H48.5137L36.7933 88.5443L31.7884 84.2674L20.0213 74.2067L3.33033 59.9414H3.25781V137.451H137.557V59.9414H137.378Z" fill="white"/>
<path d="M93.6184 134.57H10.9119L21.9046 125.186L33.6675 115.049L37.3317 111.891L49.4564 101.447H91.2564L96.1548 105.665C97.1188 103.987 98.2234 102.394 99.4572 100.903L96.6868 98.5154L106.024 90.5315C107.76 89.0505 109.471 87.5823 110.795 86.4588L134.674 66.0312V89.5313C136.654 90.051 138.584 90.7475 140.44 91.6125V57.043H136.316L107.054 82.0541L102.279 86.1353L91.1288 95.664H49.5799L38.6724 86.3395C36.8552 84.7819 35.0422 83.2328 33.6634 82.0582L5.20508 57.7366L4.324 57.043H0.378906V140.349H96.3506C95.2615 138.512 94.3468 136.578 93.6184 134.57ZM6.14122 66.1376L29.9225 86.4588L34.9231 90.7358L44.026 98.5154L33.5655 107.525L29.9097 110.678L18.1511 120.807L6.14122 131.059V66.1376Z" fill="#545859"/>
<path d="M127.069 151.13C142.711 150.589 154.953 137.471 154.413 121.829C153.872 106.187 140.753 93.945 125.111 94.4857C109.469 95.0265 97.2274 108.145 97.7682 123.787C98.309 139.429 111.428 151.671 127.069 151.13Z" fill="white"/>
<path d="M125.958 92.6857C121.971 92.6383 118.014 93.3827 114.316 94.8757C110.619 96.3688 107.254 98.5808 104.418 101.384C101.582 104.186 99.3299 107.524 97.793 111.204C96.2561 114.883 95.4648 118.831 95.4648 122.819C95.4648 126.806 96.2561 130.754 97.793 134.434C99.3299 138.113 101.582 141.451 104.418 144.254C107.254 147.056 110.619 149.268 114.316 150.761C118.014 152.255 121.971 152.999 125.958 152.951C126.384 152.951 126.809 152.952 127.192 152.93L127.805 152.905L127.66 149.355L127.047 149.381C126.694 149.381 126.324 149.402 125.958 149.402C120.701 149.402 115.561 147.843 111.19 144.922C106.819 142.002 103.412 137.85 101.4 132.993C99.388 128.136 98.8616 122.791 99.8873 117.635C100.913 112.479 103.445 107.742 107.162 104.025C110.88 100.307 115.616 97.7757 120.772 96.7501C125.929 95.7244 131.273 96.2508 136.13 98.2627C140.987 100.275 145.139 103.681 148.06 108.053C150.98 112.424 152.539 117.563 152.539 122.821C152.539 123.183 152.54 123.548 152.514 123.914L152.493 124.523L156.038 124.668L156.063 124.055C156.063 123.629 156.089 123.229 156.089 122.821C156.08 114.832 152.903 107.173 147.254 101.523C141.605 95.8741 133.947 92.6959 125.958 92.6857Z" fill="#545859"/>
<path d="M142.427 143.668C141.883 144.093 141.317 144.519 140.725 144.893L140.219 145.234L142.198 148.183L142.704 147.843C143.359 147.417 143.981 146.936 144.611 146.455L145.087 146.077L142.887 143.289L142.427 143.668Z" fill="#545859"/>
<path d="M138.971 145.986C138.367 146.322 137.741 146.641 137.12 146.931L136.566 147.186L138.056 150.412L138.613 150.152C139.32 149.824 140.026 149.463 140.711 149.08L141.243 148.778L139.503 145.684L138.971 145.986Z" fill="#545859"/>
<path d="M135.199 147.729C134.552 147.968 133.888 148.185 133.22 148.376L132.633 148.542L133.603 151.947L134.19 151.781C134.948 151.564 135.701 151.317 136.433 151.045L137.003 150.836L135.769 147.504L135.199 147.729Z" fill="#545859"/>
<path d="M131.199 148.865C130.526 149.001 129.833 149.112 129.143 149.193L128.539 149.27L128.965 152.793L129.569 152.721C130.352 152.627 131.139 152.504 131.901 152.351L132.497 152.232L131.803 148.746L131.199 148.865Z" fill="#545859"/>
<path d="M148.058 137.576C147.67 138.154 147.258 138.72 146.832 139.278L146.453 139.754L149.241 141.954L149.619 141.478C150.105 140.861 150.573 140.201 151.007 139.571L151.347 139.065L148.398 137.086L148.058 137.576Z" fill="#545859"/>
<path d="M152.353 125.972C152.272 126.657 152.162 127.351 152.025 128.028L151.906 128.624L155.388 129.317L155.507 128.721C155.66 127.955 155.783 127.168 155.877 126.389L155.949 125.785L152.421 125.359L152.353 125.972Z" fill="#545859"/>
<path d="M145.478 140.846C145.005 141.352 144.512 141.85 144.005 142.318L143.559 142.744L145.972 145.348L146.418 144.923C146.989 144.395 147.55 143.833 148.087 143.254L148.512 142.808L145.903 140.395L145.478 140.846Z" fill="#545859"/>
<path d="M151.559 130.052C151.367 130.72 151.133 131.384 150.912 132.031L150.699 132.601L154.032 133.836L154.244 133.265C154.512 132.529 154.759 131.771 154.976 131.018L155.142 130.431L151.738 129.465L151.559 130.052Z" fill="#545859"/>
<path d="M150.095 133.967C149.805 134.593 149.486 135.214 149.146 135.823L148.848 136.355L151.942 138.091L152.24 137.559C152.627 136.874 152.988 136.167 153.316 135.461L153.572 134.904L150.35 133.414L150.095 133.967Z" fill="#545859"/>
<path d="M126.656 142.994C137.804 142.609 146.529 133.259 146.144 122.11C145.758 110.962 136.408 102.237 125.26 102.622C114.112 103.008 105.387 112.358 105.772 123.506C106.157 134.654 115.507 143.38 126.656 142.994Z" fill="#FFD100"/>
<path d="M140.996 115.639L135.451 110.094L121.19 124.355L116.909 120.074L111.363 125.623L121.122 135.509L140.996 115.639Z" fill="white"/>
<path d="M121.12 137.159L109.723 125.613L116.906 118.425L121.188 122.707L135.453 108.441L142.645 115.638L121.12 137.159ZM113.004 125.626L121.128 133.853L139.347 115.638L135.453 111.74L121.188 126.001L116.906 121.724L113.004 125.626Z" fill="#545859"/>
<path d="M42.0763 40.5338C40.5272 39.1549 38.4162 38.457 35.8117 38.457C32.9902 38.457 30.7687 39.2273 29.2026 40.7466C27.6365 42.2659 26.832 44.4448 26.832 47.211C26.832 49.9773 27.6832 52.2116 29.3387 53.7522C30.9942 55.2928 33.3647 56.0588 36.3863 56.0588C37.1529 56.0483 37.9167 55.9643 38.6673 55.8078C39.4758 55.648 40.2668 55.41 41.0292 55.0971C41.7028 54.8293 42.3272 54.4509 42.8763 53.9777C43.1356 53.7865 43.3322 53.5229 43.4413 53.2198C43.5504 52.9167 43.5671 52.5879 43.4891 52.2754C43.3442 51.7244 43.0096 51.2423 42.5442 50.9136C42.0663 50.5992 41.4831 50.4875 40.9228 50.603L40.8463 50.6285C40.0888 50.9179 39.3482 51.1689 38.6418 51.3689C37.358 51.6926 36.0224 51.7563 34.7137 51.5562C34.2314 51.5021 33.7638 51.3578 33.3349 51.1306C32.9663 50.9245 32.6626 50.6194 32.4582 50.2497C32.2589 49.8762 32.1292 49.4696 32.0753 49.0497H41.9273C42.3032 49.0833 42.6813 49.0204 43.0261 48.867C43.371 48.7136 43.671 48.4747 43.8977 48.173C44.2625 47.6239 44.451 46.9764 44.4381 46.3173C44.4381 43.8787 43.6424 41.9297 42.0763 40.5338ZM39.5228 45.1046H32.0412C32.1932 44.4025 32.5589 43.7646 33.0881 43.2788C33.6839 42.7596 34.6201 42.4956 35.867 42.4956C37.1139 42.4956 38.0758 42.7681 38.595 43.3C39.0637 43.804 39.3822 44.4291 39.5143 45.1046H39.5228Z" fill="#545859"/>
<path d="M62.5801 42.4728H49.1063C48.7998 42.4537 48.493 42.5025 48.2076 42.6158C47.9221 42.729 47.6651 42.9041 47.4551 43.1282C47.0949 43.5432 46.9009 44.0768 46.9105 44.6262C46.9131 45.151 47.105 45.6573 47.451 46.0519C47.6571 46.2839 47.9131 46.4661 48.1999 46.5847C48.4867 46.7034 48.7965 46.7555 49.1063 46.7371H62.5801C62.8737 46.7422 63.1652 46.6858 63.4356 46.5714C63.7061 46.4571 63.9496 46.2873 64.1505 46.0731C64.3454 45.8852 64.5014 45.6606 64.6095 45.4123C64.7176 45.164 64.7756 44.897 64.7803 44.6262C64.7827 44.3429 64.7274 44.0621 64.6176 43.8008C64.5078 43.5396 64.346 43.3036 64.1419 43.107C63.9385 42.9005 63.6951 42.7377 63.4265 42.6286C63.1579 42.5196 62.8699 42.4665 62.5801 42.4728Z" fill="#545859"/>
<path d="M82.4219 43.9949C83.0106 43.5701 83.5083 43.0318 83.8858 42.4117C84.4393 41.5274 84.7341 40.5059 84.737 39.4626C84.737 37.4879 84.1028 35.892 82.8516 34.7216C81.6004 33.5513 79.8726 32.9641 77.7447 32.9641H70.1695C69.8456 32.9461 69.522 33.0059 69.2259 33.1384C68.9298 33.2709 68.6697 33.4723 68.4672 33.7259C68.1272 34.13 67.9325 34.6364 67.9141 35.1643V52.5788C67.9137 52.9383 67.9449 53.2972 68.0076 53.6512C68.071 54.0189 68.1902 54.3748 68.3608 54.7067C68.5289 55.0317 68.7674 55.3153 69.0588 55.5366C69.376 55.7715 69.7623 55.8942 70.1569 55.8855H78.4895C80.9493 55.8855 82.8262 55.3195 84.0689 54.1832C85.3116 53.0469 85.9584 51.3915 85.9584 49.2338C85.9625 47.9568 85.5096 46.7206 84.6817 45.7484C84.0648 45.0067 83.2936 44.4083 82.4219 43.9949ZM73.021 42.2712V37.2283H77.0851C77.417 37.1994 77.7511 37.2446 78.0633 37.3609C78.3754 37.4772 78.6577 37.6615 78.8897 37.9006C79.3168 38.4158 79.5474 39.0657 79.5407 39.7348C79.5771 40.4111 79.355 41.076 78.9194 41.5946C78.6813 41.8342 78.3938 42.0189 78.077 42.1358C77.7602 42.2526 77.4217 42.2988 77.0851 42.2712H73.021ZM80.86 48.9443C80.8902 49.322 80.8316 49.7016 80.689 50.0525C80.5464 50.4035 80.3236 50.7162 80.0386 50.9658C79.4812 51.4325 78.7737 51.6819 78.0468 51.668H73.021V46.2718H77.5618C78.4268 46.2358 79.2754 46.5154 79.9493 47.059C80.237 47.2809 80.469 47.5669 80.6271 47.8941C80.7852 48.2214 80.865 48.581 80.86 48.9443Z" fill="#545859"/>
<path d="M91.8782 31.3221C91.0916 31.3003 90.3277 31.5875 89.7503 32.1222C89.4774 32.3825 89.2602 32.6956 89.1118 33.0423C88.9633 33.389 88.8867 33.7623 88.8867 34.1395C88.8867 34.5167 88.9633 34.8899 89.1118 35.2367C89.2602 35.5834 89.4774 35.8963 89.7503 36.1566C90.3268 36.6933 91.0909 36.9822 91.8782 36.961C92.264 36.9738 92.6486 36.9085 93.0084 36.7688C93.3683 36.6291 93.6961 36.4179 93.9722 36.1481C94.494 35.6105 94.7858 34.8908 94.7858 34.1416C94.7858 33.3924 94.494 32.6727 93.9722 32.1351C93.6967 31.8645 93.3689 31.6527 93.0089 31.5129C92.6489 31.3731 92.2641 31.3083 91.8782 31.3221Z" fill="#545859"/>
<path d="M93.6811 39.0631C93.1773 38.6752 92.5594 38.4648 91.9235 38.4648C91.2877 38.4648 90.6698 38.6752 90.1659 39.0631C89.9085 39.2428 89.6983 39.4822 89.5538 39.7609C89.4092 40.0396 89.3345 40.3492 89.336 40.6632V53.7837C89.334 54.094 89.4053 54.4003 89.5444 54.6777C89.6835 54.955 89.8862 55.1956 90.136 55.3796C90.6473 55.7812 91.282 55.9933 91.932 55.9797C92.5501 55.9769 93.1494 55.7672 93.6343 55.384C93.8949 55.2059 94.1085 54.9671 94.2567 54.6885C94.4049 54.4098 94.4835 54.0993 94.4855 53.7837V40.6632C94.4867 40.352 94.4143 40.045 94.2746 39.7669C94.1348 39.4889 93.9315 39.2478 93.6811 39.0631Z" fill="#545859"/>
<path d="M101.316 31.9886C100.684 31.9844 100.075 32.222 99.6135 32.6525C99.3718 32.8576 99.1783 33.1133 99.0466 33.4017C98.9149 33.69 98.8483 34.0038 98.8517 34.3208V53.6886C98.8483 54.0056 98.9149 54.3194 99.0466 54.6077C99.1783 54.896 99.3718 55.1518 99.6135 55.3568C100.076 55.7855 100.685 56.0228 101.316 56.0208C101.957 56.0313 102.577 55.7917 103.044 55.3527C103.279 55.1444 103.466 54.888 103.593 54.6008C103.72 54.3137 103.784 54.0026 103.78 53.6886V34.3208C103.784 34.0068 103.72 33.6956 103.593 33.4085C103.466 33.1214 103.279 32.865 103.044 32.6567C102.577 32.2177 101.957 31.9781 101.316 31.9886Z" fill="#545859"/>
<path d="M112.083 32.6577C111.613 32.2319 111.002 31.9961 110.368 31.9961C109.734 31.9961 109.122 32.2319 108.653 32.6577C108.411 32.8628 108.217 33.1185 108.085 33.4069C107.954 33.6952 107.887 34.009 107.891 34.326V53.694C107.887 54.011 107.954 54.3248 108.085 54.6131C108.217 54.9014 108.411 55.1572 108.653 55.3622C109.116 55.7902 109.724 56.0273 110.355 56.0262C110.996 56.0367 111.616 55.7969 112.083 55.3579C112.318 55.1496 112.505 54.8932 112.632 54.606C112.759 54.3189 112.823 54.008 112.819 53.694V34.326C112.823 34.0113 112.76 33.6993 112.633 33.4114C112.506 33.1235 112.318 32.8665 112.083 32.6577Z" fill="#545859"/>
</g>
<defs>
<clipPath id="clip0_1373_267019">
<rect width="156" height="156" fill="white" transform="translate(0.378906)"/>
</clipPath>
</defs>
</svg>
