<svg width="156" height="156" viewBox="0 0 156 156" fill="none" xmlns="http://www.w3.org/2000/svg">
<g clip-path="url(#clip0_1659_411384)">
<path d="M123.68 34.3239V24.143C123.68 18.9698 127.86 14.7852 133.02 14.7852C138.18 14.7852 142.361 18.9742 142.361 24.143V34.3239H123.68Z" fill="#FFD100"/>
<path d="M145.286 37.2414H120.762V24.143C120.762 17.3717 126.262 11.8633 133.024 11.8633C139.787 11.8633 145.286 17.3717 145.286 24.143V37.2414ZM126.601 31.402H139.447V24.143C139.447 20.5941 136.564 17.7027 133.024 17.7027C129.484 17.7027 126.601 20.5897 126.601 24.143V31.402Z" fill="#FFD100"/>
<path d="M123.679 24.1402V128.805H123.649L123.679 130.369C123.679 135.172 120.043 139.121 115.397 139.661C112.854 139.661 32.5917 139.644 28.4375 139.661C33.0881 139.121 36.6937 135.172 36.6937 130.369V128.235H36.7285V24.1402C36.7285 19.3372 40.334 15.3876 44.9846 14.8477C47.5277 14.8477 127.786 14.8651 131.94 14.8477C127.294 15.3833 123.679 19.3328 123.679 24.1402Z" fill="white"/>
<path d="M133.027 11.8633C132.592 11.8633 132.165 11.8851 131.742 11.933C128.368 11.9417 100.895 11.9417 50.0344 11.933H44.9918L44.6565 11.9504C38.4775 12.6645 33.8182 17.9073 33.8182 24.143L33.7833 130.371C33.7833 133.642 31.3448 136.389 28.1094 136.764L28.4578 142.586C30.6045 142.577 53.3612 142.577 96.1574 142.581C95.1428 140.735 94.2981 138.78 93.6362 136.742C76.3749 136.738 62.4927 136.738 52.0462 136.738C46.2634 136.738 41.53 136.738 37.8505 136.738C38.852 135.087 39.4747 133.184 39.601 131.155H39.6576V24.143C39.6576 20.925 42.0178 18.2122 45.1748 17.7724H50.03C85.933 17.7811 110.183 17.7811 122.541 17.7767C122.467 17.903 122.398 18.0336 122.324 18.1599C122.293 18.2165 122.258 18.2731 122.228 18.3297C122.158 18.456 122.097 18.5823 122.032 18.7129C121.988 18.8044 121.945 18.8958 121.901 18.9873C121.849 19.1048 121.792 19.2181 121.744 19.34C121.662 19.5359 121.583 19.7362 121.509 19.9365C121.479 20.0236 121.448 20.1151 121.418 20.2065C121.37 20.3546 121.318 20.5026 121.274 20.6507C121.248 20.7421 121.222 20.8336 121.196 20.9294C121.148 21.1036 121.104 21.2821 121.065 21.4606C121.052 21.5216 121.035 21.5826 121.022 21.6435C120.974 21.883 120.93 22.1225 120.895 22.3664C120.887 22.436 120.878 22.5057 120.869 22.5754C120.843 22.767 120.826 22.9586 120.808 23.1502C120.804 23.2242 120.795 23.2982 120.791 23.3723C120.773 23.6292 120.765 23.8817 120.765 24.143C120.765 24.143 120.765 24.143 120.765 24.1474V92.5785C122.472 92.3129 124.218 92.1779 125.999 92.1779C126.204 92.1779 126.4 92.191 126.604 92.1953V24.143C126.604 23.9296 126.617 23.7206 126.635 23.5116C126.639 23.4463 126.652 23.381 126.661 23.3156C126.678 23.172 126.696 23.0326 126.726 22.8933C126.739 22.8192 126.761 22.7496 126.778 22.6799C126.809 22.5493 126.839 22.4186 126.878 22.2923C126.9 22.2227 126.922 22.1573 126.948 22.092C126.992 21.9658 127.035 21.8351 127.087 21.7132C127.114 21.6522 127.14 21.5913 127.166 21.5347C127.223 21.404 127.283 21.2777 127.349 21.1515C127.375 21.0992 127.405 21.0513 127.431 20.999C127.506 20.8684 127.58 20.7421 127.662 20.6159C127.688 20.5767 127.719 20.5331 127.745 20.4939C127.836 20.3633 127.928 20.237 128.028 20.1151C128.054 20.0846 128.08 20.0498 128.106 20.0193C128.211 19.893 128.324 19.7711 128.442 19.6491C128.468 19.623 128.49 19.5969 128.516 19.5751C128.638 19.4532 128.764 19.34 128.895 19.2311C128.916 19.2093 128.943 19.1919 128.964 19.1702C129.099 19.0613 129.239 18.9568 129.378 18.861C129.404 18.8436 129.43 18.8218 129.452 18.8044C129.591 18.7129 129.735 18.6258 129.879 18.5431C129.914 18.5257 129.948 18.4996 129.983 18.4821C130.11 18.4125 130.245 18.3515 130.375 18.2905C130.432 18.2644 130.488 18.2339 130.545 18.2122C130.597 18.1904 130.654 18.173 130.706 18.1556C131.203 17.964 131.729 17.8246 132.278 17.7636C132.522 17.7332 132.775 17.7157 133.027 17.7157C136.567 17.7157 139.45 20.6071 139.45 24.1561V37.2501H145.289V24.143C145.289 17.3717 139.79 11.8633 133.027 11.8633Z" fill="#545859"/>
<path d="M117.735 33.4456C117.33 34.2512 116.429 34.6736 115.549 34.4689C114.674 34.2599 114.051 33.4761 114.051 32.5791V29.2305H113.794C113.407 29.2305 113.071 28.93 113.041 28.5337C113.01 28.0939 113.354 27.7238 113.794 27.7238H114.051V26.8834C114.051 26.4175 114.426 26.043 114.892 26.043C115.353 26.043 115.732 26.4175 115.732 26.8834V27.7238H116.716C117.134 27.7238 117.47 28.0591 117.47 28.4771C117.47 28.8952 117.134 29.2305 116.716 29.2305H115.732V32.5791C115.736 32.6357 115.754 32.688 115.784 32.7359C115.837 32.8186 115.932 32.8752 116.024 32.8796C116.12 32.8883 116.215 32.8404 116.289 32.7794C116.359 32.7228 116.411 32.6444 116.468 32.5791C116.542 32.492 116.629 32.418 116.734 32.3701C116.873 32.3048 117.034 32.2786 117.182 32.3048C117.382 32.3439 117.561 32.4746 117.687 32.6313C117.709 32.6618 117.726 32.6923 117.744 32.7271C117.853 32.9579 117.844 33.2192 117.735 33.4456Z" fill="#545859"/>
<path d="M112.385 30.0537V33.6113C112.385 34.0773 112.01 34.4518 111.544 34.4518C111.078 34.4518 110.704 34.0773 110.704 33.6113V30.4543C110.704 29.7663 110.146 29.2046 109.454 29.2046C108.766 29.2046 108.204 29.762 108.204 30.4543V33.6113C108.204 34.0773 107.83 34.4518 107.364 34.4518C106.898 34.4518 106.523 34.0773 106.523 33.6113V28.5601C106.523 28.0898 106.911 27.711 107.377 27.7197C107.843 27.7284 108.217 28.1203 108.2 28.5906V28.5601V28.5906C108.318 28.4251 108.461 28.2684 108.622 28.1421C109.027 27.8286 109.572 27.7066 110.098 27.7197C110.503 27.7284 110.9 27.8155 111.239 28.0071C111.536 28.1769 111.788 28.4251 111.975 28.7125C112.149 28.9781 112.267 29.2786 112.328 29.5878C112.363 29.7707 112.38 29.9579 112.376 30.1452" fill="#545859"/>
<path d="M105.841 23.5475C105.841 24.0134 105.466 24.3922 105.001 24.3922C104.535 24.3922 104.16 24.0134 104.16 23.5475C104.16 23.0859 104.535 22.707 105.001 22.707C105.466 22.707 105.841 23.0859 105.841 23.5475Z" fill="#FFD100"/>
<path d="M101.099 26.0709C101.099 26.5368 100.724 26.9157 100.258 26.9157C99.7925 26.9157 99.418 26.5368 99.418 26.0709C99.418 25.6093 99.7925 25.2305 100.258 25.2305C100.724 25.2305 101.099 25.6093 101.099 26.0709Z" fill="#FFD100"/>
<path d="M107.368 26.9173C106.902 26.9173 106.527 26.5428 106.527 26.0768V24.3873C106.527 23.9214 106.902 23.5469 107.368 23.5469C107.834 23.5469 108.208 23.9214 108.208 24.3873V26.0768C108.208 26.5384 107.834 26.9173 107.368 26.9173Z" fill="#FFD100"/>
<path d="M102.629 29.4412C102.164 29.4412 101.789 29.0667 101.789 28.6007V21.86C101.789 21.394 102.164 21.0195 102.629 21.0195C103.095 21.0195 103.47 21.394 103.47 21.86V28.6007C103.47 29.0623 103.091 29.4412 102.629 29.4412Z" fill="#FFD100"/>
<path d="M97.8912 27.7583C97.4252 27.7583 97.0508 27.3838 97.0508 26.9178V23.5475C97.0508 23.0815 97.4252 22.707 97.8912 22.707C98.3528 22.707 98.7317 23.0815 98.7317 23.5475V26.9178C98.7317 27.3838 98.3571 27.7583 97.8912 27.7583Z" fill="#FFD100"/>
<path d="M109.379 78.0859H49.8828V92.3818H109.379V78.0859Z" fill="#FFE67D"/>
<path d="M61.1728 99.0898H49.7422V105.434H61.1728V99.0898Z" fill="#545859"/>
<path d="M77.2861 99.0898H65.8555V105.434H77.2861V99.0898Z" fill="#545859"/>
<path d="M93.4072 99.0898H81.9766V105.434H93.4072V99.0898Z" fill="#545859"/>
<path d="M61.1728 110.273H49.7422V116.618H61.1728V110.273Z" fill="#545859"/>
<path d="M77.2861 110.273H65.8555V116.618H77.2861V110.273Z" fill="#545859"/>
<path d="M93.4072 110.273H81.9766V116.618H93.4072V110.273Z" fill="#545859"/>
<path d="M70.5772 56.9032C71.1128 56.4939 71.5701 55.9844 71.9446 55.3792C72.515 54.4517 72.8024 53.4371 72.8024 52.3658C72.8024 50.3541 72.1536 48.7255 70.8777 47.528C69.6106 46.3392 67.86 45.7383 65.6827 45.7383H58.0623C57.3003 45.7383 56.7038 46.0083 56.2901 46.5439C55.9069 47.0359 55.7109 47.541 55.7109 48.0462V65.56C55.7109 65.9171 55.7414 66.2872 55.8067 66.653C55.8764 67.0493 55.9984 67.415 56.1725 67.7416C56.3554 68.09 56.6036 68.3817 56.8997 68.6082C57.2307 68.8564 57.6182 68.9827 58.0623 68.9827H66.4404C68.9399 68.9827 70.8472 68.4035 72.1144 67.267C73.3989 66.113 74.0477 64.4148 74.0477 62.2201C74.0477 60.9094 73.6037 59.7119 72.7241 58.6538C72.1057 57.9004 71.3828 57.3169 70.5772 56.9032ZM68.7222 61.8979C68.7222 62.7775 68.4653 63.4176 67.9341 63.8531C67.3724 64.3146 66.7365 64.5367 65.9919 64.5367H61.0365V59.3026H65.5042C66.4535 59.3026 67.2199 59.5552 67.8426 60.0733C68.4348 60.5698 68.7222 61.1663 68.7222 61.8979ZM61.0365 55.0918V50.2147H65.0121C65.809 50.2147 66.3794 50.4237 66.7539 50.8548C67.1502 51.3164 67.3593 51.8999 67.3854 52.6358C67.3854 53.3979 67.1851 53.9857 66.7844 54.4386C66.3969 54.874 65.8177 55.0874 65.0165 55.0874H61.0365V55.0918Z" fill="#545859"/>
<path d="M81.7592 51.8888C81.2367 51.4751 80.6096 51.2617 79.8955 51.2617C79.2467 51.2617 78.6457 51.4707 78.1057 51.8844C77.5353 52.3242 77.2305 52.9077 77.2305 53.5696V66.7594C77.2305 67.4213 77.5222 68.0048 78.0752 68.4403C78.5978 68.8539 79.2248 69.0673 79.939 69.0673C80.5921 69.0673 81.1931 68.8583 81.7287 68.449C82.2992 68.0135 82.604 67.43 82.604 66.7638V53.574C82.604 52.9077 82.3122 52.3242 81.7592 51.8888Z" fill="#545859"/>
<path d="M79.8982 44.0859C79.023 44.0859 78.2783 44.3646 77.6905 44.9177C77.0939 45.4794 76.7891 46.1848 76.7891 47.0165C76.7891 47.8482 77.0939 48.5537 77.6905 49.1154C78.2783 49.6684 79.023 49.9471 79.8982 49.9471C80.7822 49.9471 81.5138 49.6641 82.0755 49.1023C82.6372 48.5406 82.9202 47.8395 82.9202 47.0165C82.9202 46.1935 82.6372 45.4924 82.0755 44.9307C81.5138 44.3733 80.7822 44.0859 79.8982 44.0859Z" fill="#545859"/>
<path d="M89.3904 44.7578C88.7242 44.7578 88.1276 44.9886 87.6138 45.4502C87.0825 45.9248 86.8125 46.5127 86.8125 47.2007V66.6741C86.8125 67.3621 87.0825 67.9543 87.6094 68.4246C88.1232 68.8818 88.7198 69.117 89.3861 69.117C90.0828 69.117 90.6924 68.8818 91.1888 68.4202C91.6983 67.9456 91.9596 67.3621 91.9596 66.6741V47.2007C91.9596 46.517 91.7026 45.9292 91.1888 45.4545C90.6924 44.993 90.0872 44.7578 89.3904 44.7578Z" fill="#545859"/>
<path d="M100.279 45.4545C99.7778 44.993 99.1725 44.7578 98.4758 44.7578C97.8096 44.7578 97.213 44.9886 96.6991 45.4502C96.1679 45.9248 95.9023 46.5127 95.9023 47.2007V66.6741C95.9023 67.3621 96.1723 67.95 96.6991 68.4246C97.213 68.8818 97.8096 69.117 98.4758 69.117C99.1769 69.117 99.7821 68.8818 100.279 68.4202C100.788 67.9456 101.049 67.3621 101.049 66.6741V47.2007C101.049 46.5127 100.792 45.9292 100.279 45.4545Z" fill="#545859"/>
<path d="M105.435 99.0898H98.0938V105.434H99.0474C100.889 103.048 103.036 100.91 105.435 99.0898Z" fill="#545859"/>
<path d="M91.9609 126.212C91.9609 125.041 92.0219 123.887 92.1351 122.746H16.5625V130.371C16.5625 136.607 21.2219 141.845 27.4009 142.563L27.7362 142.581H32.7788C61.2965 142.577 82.4593 142.572 96.1499 142.572C93.4806 137.717 91.9609 132.143 91.9609 126.212Z" fill="#FFE67D"/>
<path d="M125.995 96.3594C109.553 96.3594 96.1758 109.736 96.1758 126.179C96.1758 142.622 109.553 155.999 125.995 155.999C126.409 155.999 126.823 155.99 127.219 155.973L127.824 155.947L127.681 152.432L127.075 152.459C126.723 152.472 126.361 152.48 125.995 152.48C111.491 152.48 99.6899 140.68 99.6899 126.175C99.6899 111.67 111.491 99.8691 125.995 99.8691C140.5 99.8691 152.297 111.67 152.297 126.175C152.297 126.532 152.288 126.898 152.275 127.255L152.249 127.86L155.759 128.004L155.78 127.398C155.798 126.993 155.806 126.58 155.806 126.175C155.815 109.736 142.438 96.3594 125.995 96.3594Z" fill="#545859"/>
<path d="M142.297 146.828C141.761 147.25 141.2 147.659 140.634 148.043L140.133 148.378L142.092 151.295L142.593 150.96C143.238 150.525 143.873 150.063 144.479 149.584L144.953 149.21L142.776 146.453L142.297 146.828Z" fill="#545859"/>
<path d="M138.878 149.124C138.281 149.46 137.663 149.777 137.045 150.06L136.496 150.313L137.972 153.501L138.521 153.248C139.222 152.921 139.923 152.564 140.598 152.185L141.125 151.889L139.401 148.828L138.878 149.124Z" fill="#545859"/>
<path d="M135.148 150.854C134.508 151.089 133.85 151.306 133.192 151.494L132.613 151.659L133.571 155.043L134.15 154.877C134.899 154.664 135.644 154.42 136.367 154.15L136.933 153.941L135.709 150.645L135.148 150.854Z" fill="#545859"/>
<path d="M131.189 151.969C130.523 152.104 129.839 152.213 129.156 152.291L128.555 152.365L128.973 155.853L129.574 155.783C130.349 155.692 131.124 155.566 131.877 155.417L132.469 155.3L131.781 151.855L131.189 151.969Z" fill="#545859"/>
<path d="M147.866 140.798C147.483 141.368 147.074 141.93 146.656 142.461L146.281 142.936L149.038 145.113L149.412 144.638C149.895 144.029 150.357 143.393 150.788 142.753L151.123 142.252L148.206 140.297L147.866 140.798Z" fill="#545859"/>
<path d="M152.119 129.316C152.041 129.995 151.932 130.679 151.797 131.349L151.68 131.942L155.124 132.63L155.242 132.037C155.394 131.28 155.516 130.505 155.607 129.729L155.677 129.129L152.189 128.715L152.119 129.316Z" fill="#545859"/>
<path d="M145.317 144.034C144.851 144.54 144.359 145.027 143.862 145.489L143.418 145.898L145.804 148.476L146.248 148.067C146.814 147.544 147.368 146.987 147.899 146.416L148.308 145.972L145.726 143.586L145.317 144.034Z" fill="#545859"/>
<path d="M151.31 133.349C151.123 134.011 150.909 134.669 150.67 135.309L150.461 135.875L153.757 137.094L153.966 136.528C154.236 135.801 154.48 135.052 154.689 134.307L154.855 133.724L151.475 132.766L151.31 133.349Z" fill="#545859"/>
<path d="M149.881 137.213C149.593 137.831 149.28 138.449 148.945 139.046L148.648 139.573L151.714 141.293L152.01 140.766C152.393 140.087 152.75 139.386 153.073 138.689L153.325 138.14L150.138 136.664L149.881 137.213Z" fill="#545859"/>
<path d="M126.69 146.091C137.722 145.709 146.356 136.456 145.974 125.424C145.592 114.392 136.339 105.759 125.307 106.14C114.275 106.522 105.642 115.775 106.024 126.807C106.406 137.839 115.658 146.473 126.69 146.091Z" fill="#FFD100"/>
<path d="M140.878 119.097L135.391 113.605L121.274 127.718L117.041 123.486L111.555 128.973L121.213 138.757L140.878 119.097Z" fill="white"/>
<path d="M121.208 140.394L109.93 128.968L117.041 121.853L121.278 126.09L135.391 111.977L142.506 119.096L121.208 140.394ZM113.182 128.977L121.221 137.12L139.249 119.092L135.391 115.234L121.278 129.347L117.041 125.11L113.182 128.977Z" fill="#545859"/>
<path d="M22.1675 117.02V120.298L12.8183 137.525L3.46484 120.298V117.02" fill="white"/>
<path d="M12.8185 143.495L0.617188 121.021V117.02H6.31292V119.576L12.8142 131.555L19.3198 119.576V117.02H25.0155V121.021L12.8185 143.495Z" fill="#545859"/>
<path d="M22.1626 35.4023H3.46875V116.762H22.1626V35.4023Z" fill="white"/>
<path d="M19.315 38.2552V113.915H6.31247V38.2552H19.315ZM25.0064 32.5508H0.621094V119.615H25.0064V32.5508Z" fill="#545859"/>
<path d="M15.6606 34.3242H9.96484V114.452H15.6606V34.3242Z" fill="#545859"/>
<path d="M22.1814 12.0879V4.53285C22.1814 3.59663 21.2626 2.84766 20.1261 2.84766H5.52107C4.37583 2.84766 3.45703 3.59663 3.45703 4.5285V12.0879" fill="white"/>
<path d="M25.0295 12.0881H19.3338V5.6957H6.30511V12.0881H0.609375V4.53305C0.609375 3.22669 1.21032 1.99001 2.26411 1.13217C3.16114 0.400615 4.31943 0 5.52128 0C5.52128 0 5.52128 0 5.52564 0H20.1307C22.8348 0 25.0339 2.03356 25.0339 4.53305V12.0881H25.0295Z" fill="#545859"/>
<path d="M25.0064 15.5859H0.621094V30.0473H25.0064V15.5859Z" fill="#FFD100"/>
</g>
<defs>
<clipPath id="clip0_1659_411384">
<rect width="156" height="156" fill="white"/>
</clipPath>
</defs>
</svg>
