<svg width="156" height="156" viewBox="0 0 156 156" fill="none" xmlns="http://www.w3.org/2000/svg">
<path d="M86.5702 149.073C86.5702 151.387 84.692 153.265 82.378 153.265H23.6874C21.3734 153.265 19.4952 151.387 19.4952 149.073V25.4031C19.4952 23.0891 21.3734 21.2109 23.6874 21.2109H82.3823C84.6963 21.2109 86.5745 23.0848 86.5745 25.4031V149.073H86.5702Z" fill="white"/>
<path d="M55.7683 140.965H50.2949V146.438H55.7683V140.965Z" fill="#545859"/>
<path d="M43.0057 50.4668L56.0529 57.923L42.9185 65.5055L29.8713 58.045L43.0057 50.4668Z" fill="#FFD100"/>
<path d="M56.9366 57.9189C56.9366 57.6052 56.7667 57.3088 56.4921 57.1519L43.445 49.6958C43.3099 49.6173 43.1573 49.5781 43.0048 49.5781C42.8523 49.5781 42.6998 49.6173 42.5603 49.6958L29.4303 57.2783C29.1558 57.4352 28.9858 57.7315 28.9858 58.0453C28.9858 58.359 29.1558 58.6554 29.4303 58.8123L42.4775 66.2684C42.7477 66.4209 43.092 66.4209 43.3578 66.2684L56.4921 58.6859C56.7667 58.5334 56.9366 58.237 56.9366 57.9189ZM42.9177 64.4817L31.6484 58.0453L43.0048 51.4868L54.274 57.9276L42.9177 64.4817Z" fill="#545859"/>
<path d="M55.9029 57.7793L56.0555 72.9313L42.9255 80.5138L42.7729 65.3575L55.9029 57.7793Z" fill="#FFE67D"/>
<path d="M43.5138 81.4296L56.6482 73.847C56.9227 73.6858 57.0927 73.3895 57.0883 73.0713L56.9358 57.915C56.9314 57.6012 56.7615 57.3092 56.4913 57.1567C56.3562 57.0783 56.2037 57.0391 56.0512 57.0391C55.8986 57.0391 55.7461 57.0783 55.6067 57.1567L42.4723 64.7393C42.1978 64.9005 42.0278 65.1968 42.0278 65.5149L42.1804 80.6713C42.1847 80.9851 42.3547 81.277 42.6248 81.4296C42.8994 81.5821 43.2437 81.5821 43.5138 81.4296ZM55.1796 59.4489L55.3103 72.5702L43.9365 79.1374L43.8058 66.0117L55.1796 59.4489Z" fill="#545859"/>
<path d="M42.9185 65.5054L43.071 80.6618L30.0239 73.2013L29.8713 58.0449L42.9185 65.5054Z" fill="white"/>
<path d="M29.5829 73.9744L42.6301 81.4306C42.9003 81.5831 43.2489 81.5831 43.5191 81.4262C43.7937 81.265 43.9593 80.9686 43.9549 80.6549L43.8024 65.4985C43.798 65.1848 43.6281 64.8928 43.3579 64.7403L30.3107 57.2798C30.1756 57.2013 30.0231 57.1621 29.8706 57.1621C29.7137 57.1621 29.5611 57.2013 29.4217 57.2841C29.1515 57.4454 28.9816 57.7373 28.9859 58.0555L29.1384 73.2118C29.1384 73.5256 29.3128 73.8175 29.5829 73.9744ZM42.0375 66.0215L42.1682 79.1253L30.9033 72.6889L30.7726 59.585L42.0375 66.0215Z" fill="#545859"/>
<path d="M62.6363 31.0888C62.6363 29.9906 62.6929 28.9099 62.7888 27.8379H41.8279V33.3113H62.7104C62.6668 32.5748 62.6363 31.834 62.6363 31.0888Z" fill="#545859"/>
<path d="M83.8328 63.5495V131.666H22.2312V41.765H64.275C63.7172 39.9957 63.2945 38.1655 63.02 36.2916H22.2312V25.4015C22.2312 24.5997 22.8849 23.946 23.6867 23.946H63.3555C63.739 22.0591 64.2838 20.2332 64.9549 18.4727H23.6867C19.8649 18.4727 16.7578 21.5798 16.7578 25.4015V149.071C16.7578 152.893 19.8649 156 23.6867 156H82.3816C86.2034 156 89.3105 152.893 89.3105 149.071V65.4408C87.4149 64.9571 85.5889 64.3208 83.8328 63.5495ZM83.8328 149.071C83.8328 149.873 83.1791 150.526 82.3773 150.526H23.6867C22.8849 150.526 22.2312 149.873 22.2312 149.071V137.139H83.8328V149.071Z" fill="#545859"/>
<path d="M99.1847 60.3822C115.382 59.8214 128.058 46.2364 127.497 30.0392C126.936 13.8419 113.351 1.16608 97.154 1.72684C80.9567 2.2876 68.2809 15.8726 68.8416 32.0699C69.4024 48.2671 82.9874 60.943 99.1847 60.3822Z" fill="white"/>
<path d="M98.0867 0C80.9606 0 67.0288 13.9318 67.0288 31.0579C67.0288 48.184 80.9606 62.1158 98.0867 62.1158C98.5181 62.1158 98.9452 62.1071 99.3635 62.0896L99.9911 62.0635L99.8429 58.403L99.2154 58.4291C98.8493 58.4465 98.4702 58.4509 98.0911 58.4509C82.9826 58.4509 70.6937 46.162 70.6937 31.0535C70.6937 15.9451 82.9783 3.66053 98.0867 3.66053C113.195 3.66053 125.484 15.9495 125.484 31.0579C125.484 31.4327 125.475 31.8118 125.462 32.1866L125.436 32.8141L129.092 32.9622L129.118 32.3347C129.136 31.912 129.145 31.485 129.145 31.0579C129.14 13.9318 115.208 0 98.0867 0Z" fill="#545859"/>
<path d="M115.061 52.5621C114.503 53.0023 113.919 53.4293 113.326 53.8259L112.803 54.1789L114.843 57.2162L115.366 56.8676C116.037 56.4144 116.699 55.935 117.327 55.4339L117.819 55.0417L115.549 52.1699L115.061 52.5621Z" fill="#545859"/>
<path d="M111.501 54.95C110.877 55.2986 110.237 55.6298 109.592 55.9262L109.021 56.192L110.559 59.5126L111.13 59.2468C111.862 58.9069 112.59 58.5365 113.296 58.1399L113.845 57.8305L112.05 54.6406L111.501 54.95Z" fill="#545859"/>
<path d="M107.613 56.7511C106.946 56.9995 106.262 57.2217 105.578 57.4178L104.972 57.5878L105.97 61.1089L106.576 60.9389C107.356 60.7167 108.131 60.4639 108.885 60.185L109.474 59.9671L108.201 56.5332L107.613 56.7511Z" fill="#545859"/>
<path d="M103.49 57.9228C102.793 58.0622 102.083 58.1755 101.372 58.2627L100.749 58.3368L101.181 61.9712L101.804 61.8971C102.61 61.8012 103.42 61.6705 104.205 61.5136L104.824 61.3916L104.105 57.8008L103.49 57.9228Z" fill="#545859"/>
<path d="M120.865 46.2847C120.464 46.8817 120.042 47.4656 119.601 48.019L119.214 48.5115L122.085 50.7775L122.473 50.2851C122.974 49.6489 123.458 48.9865 123.907 48.3197L124.256 47.7968L121.214 45.7617L120.865 46.2847Z" fill="#545859"/>
<path d="M125.289 34.3263C125.206 35.0366 125.093 35.7469 124.953 36.4442L124.831 37.0586L128.422 37.7733L128.544 37.1588C128.701 36.3701 128.832 35.5595 128.928 34.7577L129.002 34.1345L125.367 33.7031L125.289 34.3263Z" fill="#545859"/>
<path d="M118.205 49.6538C117.721 50.1811 117.207 50.6909 116.688 51.1703L116.226 51.5974L118.71 54.2817L119.172 53.8547C119.76 53.31 120.34 52.7304 120.889 52.1334L121.316 51.6714L118.627 49.1875L118.205 49.6538Z" fill="#545859"/>
<path d="M124.45 38.5276C124.254 39.2161 124.032 39.9003 123.788 40.567L123.57 41.1553L127.004 42.4278L127.222 41.8395C127.501 41.0813 127.758 40.3056 127.976 39.5255L128.145 38.9198L124.624 37.9219L124.45 38.5276Z" fill="#545859"/>
<path d="M122.965 42.544C122.669 43.1889 122.338 43.8295 121.989 44.4527L121.68 45.0018L124.87 46.7928L125.179 46.2437C125.576 45.5378 125.95 44.81 126.286 44.0779L126.552 43.507L123.231 41.9688L122.965 42.544Z" fill="#545859"/>
<path d="M98.8102 51.8645C110.3 51.4667 119.292 41.8277 118.894 30.3352C118.496 18.8427 108.859 9.84873 97.3693 10.2465C85.8792 10.6443 76.8872 20.2833 77.2851 31.7758C77.683 43.2683 87.3201 52.2623 98.8102 51.8645Z" fill="#FFD100"/>
<path d="M113.588 23.6764L107.87 17.959L93.1714 32.6621L88.7614 28.2477L83.0439 33.9651L93.1017 44.158L113.588 23.6764Z" fill="white"/>
<path d="M93.0977 45.8602L81.3491 33.9591L88.7573 26.5509L93.1674 30.961L107.866 16.2578L115.279 23.6748L93.0977 45.8602ZM84.7395 33.9678L93.1108 42.4481L111.888 23.6704L107.871 19.6525L93.1718 34.3513L88.7617 29.9412L84.7395 33.9678Z" fill="#545859"/>
<path d="M139.089 87.1367H29.0857V119.193H139.089V87.1367Z" fill="#FFE67D"/>
<path d="M40.9392 101.909C41.4447 101.987 41.9415 102.079 42.4383 102.196C42.9351 102.31 43.3839 102.484 43.7892 102.71C44.1945 102.941 44.5257 103.242 44.7871 103.617C45.0486 103.992 45.1837 104.475 45.2011 105.072C45.2316 105.761 45.1227 106.336 44.8699 106.802C44.6172 107.269 44.2685 107.639 43.8284 107.914C43.3839 108.188 42.8653 108.384 42.2727 108.498C41.6757 108.611 41.0569 108.668 40.4163 108.668C40.1417 108.668 39.7931 108.637 39.3748 108.576C38.9564 108.515 38.5293 108.419 38.1023 108.288C37.6752 108.158 37.2787 107.992 36.9126 107.783C36.5466 107.578 36.2938 107.321 36.1587 107.016C36.1108 106.911 36.1021 106.759 36.1239 106.571C36.1456 106.38 36.2197 106.223 36.3417 106.101C36.5117 105.887 36.747 105.77 37.0521 105.743C37.3571 105.722 37.6099 105.778 37.806 105.913C38.2025 106.205 38.6514 106.428 39.1482 106.589C39.6449 106.75 40.0676 106.829 40.4206 106.829C40.7257 106.829 41.0394 106.816 41.3619 106.785C41.6844 106.754 41.9676 106.676 42.2204 106.554C42.4731 106.432 42.6736 106.262 42.8261 106.04C42.9786 105.818 43.0484 105.508 43.0309 105.112C43.0004 104.637 42.7825 104.323 42.3773 104.162C41.972 104 41.3793 103.861 40.6037 103.739C40.1592 103.678 39.6929 103.599 39.2048 103.499C38.7167 103.399 38.2592 103.238 37.8321 103.02C37.405 102.798 37.0477 102.501 36.7688 102.127C36.4855 101.752 36.3287 101.251 36.2982 100.627C36.2807 99.9259 36.4028 99.3463 36.6511 98.8843C36.9039 98.4268 37.2525 98.0694 37.6927 97.808C38.1371 97.5465 38.6514 97.3635 39.2397 97.2589C39.828 97.1499 40.4424 97.0977 41.083 97.0977C42.3511 97.0977 43.4885 97.4419 44.4951 98.1304C44.7697 98.3004 44.9222 98.5009 44.9527 98.7362C44.9832 98.9715 44.9309 99.1981 44.7915 99.4116C44.7305 99.5337 44.6346 99.6208 44.5039 99.6731C44.3731 99.7254 44.238 99.7603 44.0899 99.7777C43.9461 99.7951 43.7979 99.7908 43.6541 99.7646C43.5103 99.7428 43.3926 99.6993 43.3011 99.6382C42.9046 99.3942 42.5254 99.2112 42.1681 99.0892C41.8108 98.9671 41.4447 98.9061 41.0786 98.9061C40.7736 98.9061 40.4686 98.9192 40.1635 98.941C39.8585 98.9628 39.5796 99.0282 39.3268 99.1371C39.0741 99.246 38.8693 99.4073 38.708 99.6295C38.5468 99.8518 38.4771 100.152 38.4901 100.536C38.5206 101.011 38.7516 101.325 39.1874 101.486C39.6188 101.647 40.2027 101.787 40.9392 101.909Z" fill="#545859"/>
<path d="M49.2538 98.9344V101.937H53.215C53.4286 101.937 53.6377 101.998 53.8469 102.12C54.0517 102.242 54.1563 102.464 54.1563 102.782C54.1563 103.044 54.0735 103.253 53.9036 103.414C53.7336 103.575 53.5157 103.654 53.2412 103.654H49.2538V106.839H54.1781C54.4221 106.839 54.6444 106.905 54.8405 107.035C55.0409 107.166 55.1368 107.388 55.1368 107.711C55.1368 107.955 55.0584 108.16 54.8971 108.33C54.7359 108.5 54.5049 108.583 54.1999 108.583H47.9944C47.6414 108.583 47.3974 108.491 47.2623 108.308C47.1229 108.125 47.0575 107.872 47.0575 107.554V98.2066C47.0575 97.9016 47.1229 97.6532 47.2536 97.4614C47.3843 97.2697 47.6327 97.1738 47.9988 97.1738H54.1389C54.4004 97.1738 54.6313 97.2436 54.8361 97.3786C55.0409 97.5181 55.1455 97.7447 55.1455 98.0672C55.1455 98.2807 55.0671 98.4812 54.9059 98.6642C54.7446 98.8472 54.5137 98.9387 54.2086 98.9387H49.2538V98.9344Z" fill="#545859"/>
<path d="M65.7251 100.425C65.7251 101.388 65.5464 102.112 65.1847 102.6C64.8274 103.088 64.3088 103.432 63.6377 103.632C63.9733 104.199 64.3001 104.77 64.6226 105.349C64.945 105.929 65.2632 106.487 65.5856 107.023C65.7556 107.328 65.773 107.624 65.6423 107.903C65.5116 108.186 65.3111 108.387 65.0366 108.509C64.823 108.6 64.5877 108.618 64.3262 108.565C64.0648 108.513 63.8687 108.387 63.7292 108.186L61.1843 103.833H59.3061V107.567C59.3061 107.859 59.1971 108.103 58.9749 108.3C58.7526 108.5 58.4912 108.596 58.1861 108.596C57.8811 108.596 57.6196 108.496 57.4061 108.3C57.1926 108.099 57.0836 107.855 57.0836 107.567V98.1285C57.0836 97.8975 57.1795 97.6709 57.3712 97.44C57.563 97.209 57.8114 97.0957 58.1164 97.0957H61.851C64.4352 97.1001 65.7251 98.2069 65.7251 100.425ZM59.3104 101.82H61.8554C62.2214 101.82 62.5178 101.78 62.7357 101.706C62.9579 101.628 63.1235 101.528 63.2412 101.397C63.3545 101.266 63.4329 101.122 63.4721 100.961C63.5113 100.8 63.5288 100.639 63.5288 100.469C63.5288 100.286 63.507 100.111 63.459 99.9544C63.4111 99.7932 63.3196 99.6537 63.1845 99.5317C63.0451 99.4097 62.849 99.3095 62.5875 99.2354C62.326 99.1613 61.9774 99.1221 61.5329 99.1221H59.3104V101.82Z" fill="#545859"/>
<path d="M71.634 105.185L74.6583 97.5329C74.7193 97.3804 74.8588 97.2583 75.0723 97.1668C75.2858 97.0753 75.5517 97.0579 75.8741 97.1232C75.9787 97.1407 76.1007 97.1712 76.2271 97.2278C76.3578 97.2801 76.4711 97.3455 76.5714 97.4239C76.6716 97.5024 76.7413 97.5939 76.7893 97.6985C76.8372 97.8074 76.8285 97.9294 76.7675 98.0645L72.5971 108.144C72.5361 108.266 72.4141 108.375 72.231 108.475C72.048 108.575 71.8475 108.623 71.634 108.623C71.4205 108.623 71.22 108.575 71.037 108.475C70.854 108.375 70.732 108.266 70.6709 108.144L66.5005 98.0645C66.4395 97.9251 66.4308 97.8031 66.4788 97.6985C66.5267 97.5895 66.5964 97.498 66.6966 97.4239C66.7969 97.3498 66.9058 97.2845 67.0278 97.2278C67.1499 97.1755 67.2719 97.1407 67.3939 97.1232C67.7164 97.0622 67.9822 97.0753 68.1957 97.1668C68.4093 97.2583 68.5487 97.3804 68.6097 97.5329L71.634 105.185Z" fill="#545859"/>
<path d="M80.4415 108.406C80.2367 108.581 79.9708 108.668 79.6527 108.668C79.3782 108.668 79.1254 108.581 78.8988 108.406C78.6679 108.232 78.5546 108.023 78.5546 107.775V98.0828C78.5546 97.8388 78.6679 97.6296 78.8988 97.4509C79.1298 97.2766 79.3782 97.1895 79.6527 97.1895C79.9752 97.1895 80.2367 97.2766 80.4415 97.4509C80.6463 97.6252 80.7509 97.8388 80.7509 98.0828V107.775C80.7509 108.019 80.6507 108.228 80.4415 108.406Z" fill="#545859"/>
<path d="M88.405 98.842C87.3373 98.842 86.5268 99.1819 85.9777 99.8617C85.4286 100.542 85.1541 101.544 85.1541 102.873C85.1541 105.544 86.2392 106.882 88.4093 106.882C89.1719 106.882 89.9607 106.616 90.7669 106.08C91.0109 105.941 91.2855 105.906 91.5905 105.967C91.8956 106.028 92.1309 106.18 92.3008 106.425C92.4708 106.655 92.51 106.869 92.4272 107.065C92.3444 107.266 92.1962 107.44 91.9784 107.592C91.4118 107.945 90.841 108.211 90.2614 108.394C89.6818 108.577 89.063 108.669 88.405 108.669C87.4898 108.669 86.6924 108.529 86.0126 108.255C85.3327 107.98 84.7619 107.592 84.3043 107.087C83.8467 106.581 83.5025 105.971 83.2715 105.252C83.0406 104.533 82.9272 103.74 82.9272 102.869C82.9272 102.045 83.0318 101.278 83.2497 100.568C83.4633 99.8573 83.7901 99.2472 84.2346 98.733C84.6791 98.2232 85.2456 97.8179 85.9428 97.5172C86.6357 97.2209 87.4593 97.0684 88.405 97.0684C89.7036 97.0684 90.8933 97.4257 91.9784 98.1447C92.4359 98.4803 92.5144 98.9073 92.2093 99.4259C92.0873 99.6569 91.8563 99.7702 91.5208 99.7702C91.1852 99.7702 90.9107 99.7092 90.6972 99.5872C89.9346 99.0947 89.1676 98.842 88.405 98.842Z" fill="#545859"/>
<path d="M96.38 98.9344V101.937H100.341C100.555 101.937 100.764 101.998 100.973 102.12C101.178 102.242 101.283 102.464 101.283 102.782C101.283 103.044 101.2 103.253 101.03 103.414C100.86 103.575 100.642 103.654 100.367 103.654H96.38V106.839H101.304C101.548 106.839 101.771 106.905 101.967 107.035C102.167 107.166 102.263 107.388 102.263 107.711C102.263 107.955 102.185 108.16 102.023 108.33C101.862 108.5 101.631 108.583 101.326 108.583H95.1162C94.7633 108.583 94.5192 108.491 94.3841 108.308C94.2447 108.125 94.1793 107.872 94.1793 107.554V98.2066C94.1793 97.9016 94.2447 97.6532 94.3754 97.4614C94.5062 97.2697 94.7545 97.1738 95.1206 97.1738H101.261C101.522 97.1738 101.753 97.2436 101.958 97.3786C102.163 97.5181 102.267 97.7447 102.267 98.0672C102.267 98.2807 102.189 98.4812 102.028 98.6642C101.866 98.8472 101.635 98.9387 101.33 98.9387H96.38V98.9344Z" fill="#545859"/>
<path d="M116.811 97.0781C117.086 97.0781 117.334 97.1653 117.557 97.3396C117.779 97.5139 117.888 97.7274 117.888 97.9715V107.755C117.888 108.06 117.783 108.286 117.578 108.43C117.373 108.574 117.116 108.648 116.811 108.648C116.598 108.648 116.362 108.578 116.101 108.443C115.84 108.304 115.635 108.129 115.482 107.916L110.558 100.93V107.781C110.558 108.012 110.453 108.217 110.249 108.4C110.044 108.583 109.769 108.674 109.434 108.674C109.142 108.674 108.889 108.583 108.667 108.4C108.444 108.217 108.335 108.012 108.335 107.781V97.9976C108.335 97.6926 108.471 97.4703 108.736 97.3352C109.002 97.1958 109.281 97.1391 109.573 97.1522C110.048 97.1696 110.445 97.3962 110.763 97.8407L115.713 104.826V97.9758C115.713 97.7318 115.813 97.5226 116.01 97.3439C116.206 97.1653 116.476 97.0781 116.811 97.0781Z" fill="#545859"/>
<path d="M124.374 99.9863C125.808 99.9863 126.919 100.365 127.708 101.119C128.492 101.873 128.889 102.941 128.889 104.314C128.889 105.686 128.496 106.758 127.708 107.521C126.919 108.284 125.808 108.667 124.374 108.667C122.94 108.667 121.825 108.284 121.027 107.521C120.234 106.758 119.837 105.686 119.837 104.314C119.837 102.941 120.234 101.873 121.027 101.119C121.82 100.361 122.936 99.9863 124.374 99.9863ZM124.374 106.972C125.106 106.972 125.677 106.741 126.082 106.283C126.487 105.826 126.688 105.168 126.688 104.314C126.688 103.473 126.492 102.819 126.104 102.344C125.716 101.869 125.136 101.634 124.374 101.634C123.611 101.634 123.032 101.865 122.631 102.331C122.234 102.797 122.034 103.455 122.034 104.314C122.034 105.168 122.23 105.826 122.618 106.283C123.01 106.745 123.594 106.972 124.374 106.972Z" fill="#545859"/>
<path d="M130.373 107.065C130.373 106.62 130.512 106.259 130.796 105.975C131.079 105.692 131.449 105.553 131.907 105.553C132.364 105.553 132.752 105.692 133.062 105.975C133.375 106.259 133.532 106.62 133.532 107.065C133.532 107.492 133.375 107.854 133.062 108.141C132.748 108.433 132.364 108.577 131.907 108.577C131.449 108.577 131.079 108.433 130.796 108.141C130.512 107.854 130.373 107.492 130.373 107.065Z" fill="#545859"/>
</svg>
