<svg width="156" height="156" viewBox="0 0 156 156" fill="none" xmlns="http://www.w3.org/2000/svg">
<g clip-path="url(#clip0_4317_146627)">
<path d="M100.617 149.069C100.617 151.382 98.7386 153.261 96.4247 153.261H37.736C35.4221 153.261 33.5439 151.382 33.5439 149.069V25.403C33.5439 23.0891 35.4221 21.2109 37.736 21.2109H96.4291C98.743 21.2109 100.621 23.0847 100.621 25.403V149.069H100.617Z" fill="white"/>
<path d="M69.8189 140.959H64.3457V146.432H69.8189V140.959Z" fill="#545859"/>
<path d="M97.882 63.5438V131.658H36.2823V41.7643H78.3249C77.7671 39.9951 77.3444 38.1648 77.0699 36.2911H36.2867V25.4013C36.2867 24.5995 36.9403 23.9459 37.7421 23.9459H77.4097C77.7932 22.059 78.3379 20.2331 79.009 18.4727H37.7421C33.9205 18.4727 30.8135 21.5797 30.8135 25.4013V149.067C30.8135 152.889 33.9205 155.996 37.7421 155.996H96.4352C100.257 155.996 103.364 152.889 103.364 149.067V65.4393C101.468 64.9556 99.6381 64.3194 97.882 63.5438ZM97.882 149.067C97.882 149.869 97.2283 150.522 96.4265 150.522H37.7378C36.936 150.522 36.2823 149.869 36.2823 149.067V137.136H97.882V149.067Z" fill="#545859"/>
<path d="M76.6876 31.0867C76.6876 29.9886 76.7443 28.9079 76.8401 27.8359H55.8799V33.3091H76.7617C76.7181 32.5727 76.6876 31.8319 76.6876 31.0867Z" fill="#545859"/>
<path d="M112.259 60.3618C128.427 60.3618 141.534 47.2551 141.534 31.0871C141.534 14.9192 128.427 1.8125 112.259 1.8125C96.0911 1.8125 82.9844 14.9192 82.9844 31.0871C82.9844 47.2551 96.0911 60.3618 112.259 60.3618Z" fill="white"/>
<path d="M112.136 0C95.0105 0 81.0791 13.9314 81.0791 31.0569C81.0791 48.1825 95.0105 62.1138 112.136 62.1138C112.567 62.1138 112.994 62.1051 113.413 62.0877L114.04 62.0616L113.892 58.4011L113.265 58.4273C112.899 58.4447 112.52 58.4491 112.14 58.4491C97.0324 58.4491 84.7439 46.1605 84.7439 31.0526C84.7439 15.9446 97.0324 3.65606 112.14 3.65606C127.248 3.65606 139.537 15.9446 139.537 31.0526C139.537 31.4273 139.528 31.8064 139.515 32.1812L139.489 32.8087L143.145 32.9569L143.171 32.3294C143.189 31.9067 143.197 31.4796 143.197 31.0526C143.193 13.9314 129.262 0 112.136 0Z" fill="#545859"/>
<path d="M129.108 52.5621C128.55 53.0022 127.966 53.4293 127.373 53.8258L126.851 54.1744L128.89 57.2117L129.413 56.8631C130.084 56.4099 130.746 55.9306 131.374 55.4294L131.866 55.0416L129.596 52.1699L129.108 52.5621Z" fill="#545859"/>
<path d="M125.548 54.95C124.925 55.2986 124.284 55.6298 123.639 55.9261L123.068 56.1919L124.607 59.5125L125.177 59.2467C125.91 58.9068 126.637 58.5364 127.343 58.1398L127.892 57.8304L126.097 54.6406L125.548 54.95Z" fill="#545859"/>
<path d="M121.663 56.7511C120.996 56.9995 120.312 57.2217 119.628 57.4178L119.022 57.5878L120.02 61.1087L120.626 60.9388C121.406 60.7165 122.182 60.4638 122.936 60.1849L123.524 59.967L122.251 56.5332L121.663 56.7511Z" fill="#545859"/>
<path d="M117.543 57.9228C116.846 58.0622 116.135 58.1755 115.425 58.2627L114.802 58.3368L115.233 61.971L115.856 61.897C116.662 61.8011 117.473 61.6704 118.257 61.5135L118.872 61.3915L118.153 57.8008L117.543 57.9228Z" fill="#545859"/>
<path d="M134.913 46.2827C134.512 46.8797 134.09 47.4636 133.65 48.017L133.262 48.5094L136.133 50.7754L136.521 50.283C137.022 49.6468 137.506 48.9844 137.955 48.3177L138.304 47.7948L135.262 45.7598L134.913 46.2827Z" fill="#545859"/>
<path d="M139.341 34.3263C139.259 35.0366 139.145 35.7469 139.006 36.4441L138.884 37.0585L142.474 37.7732L142.597 37.1587C142.753 36.37 142.884 35.5595 142.98 34.7577L143.054 34.1345L139.42 33.7031L139.341 34.3263Z" fill="#545859"/>
<path d="M132.254 49.6499C131.77 50.1728 131.256 50.687 130.737 51.1663L130.275 51.5934L132.759 54.2777L133.221 53.8506C133.809 53.3059 134.389 52.7264 134.938 52.1294L135.365 51.6674L132.676 49.1836L132.254 49.6499Z" fill="#545859"/>
<path d="M138.5 38.5256C138.304 39.2141 138.082 39.8983 137.838 40.565L137.62 41.1533L141.054 42.4257L141.272 41.8374C141.551 41.0792 141.808 40.3036 142.026 39.5235L142.196 38.9178L138.675 37.9199L138.5 38.5256Z" fill="#545859"/>
<path d="M137.013 42.544C136.717 43.1889 136.386 43.8295 136.037 44.4526L135.728 45.0017L138.917 46.7927L139.227 46.2436C139.623 45.5377 139.998 44.8099 140.334 44.0779L140.599 43.507L137.279 41.9688L137.013 42.544Z" fill="#545859"/>
<path d="M112.854 51.8456C124.344 51.4478 133.336 41.8092 132.938 30.317C132.54 18.8249 122.903 9.83119 111.413 10.229C99.9236 10.6268 90.9319 20.2654 91.3298 31.7575C91.7276 43.2497 101.364 52.2434 112.854 51.8456Z" fill="#FFD100"/>
<path d="M127.637 23.6782L121.924 17.9609L107.221 32.6636L102.811 28.2493L97.0938 33.9666L107.156 44.1591L127.637 23.6782Z" fill="white"/>
<path d="M107.152 45.8593L95.4033 33.9586L102.811 26.5506L107.221 30.9605L121.92 16.2578L129.332 23.6745L107.152 45.8593ZM98.7892 33.9673L107.16 42.4472L125.937 23.6702L121.92 19.6524L107.221 34.3507L102.811 29.9408L98.7892 33.9673Z" fill="#545859"/>
<path d="M20.751 130.516V133.675L11.7524 150.251L2.75391 133.675V130.516" fill="white"/>
<path d="M11.7517 155.999L0.0078125 134.368V130.516H5.4941V132.978L11.7517 144.504L18.0092 132.978V130.516H23.4912V134.368L11.7517 155.999Z" fill="#545859"/>
<path d="M20.7466 51.9551H2.75391V130.266H20.7466V51.9551Z" fill="white"/>
<path d="M18.0093 54.6996V127.52H5.49416V54.6996H18.0093ZM23.4869 49.209H0.0166016V133.006H23.4869V49.209Z" fill="#545859"/>
<path d="M14.4926 50.9238H9.01074V128.045H14.4926V50.9238Z" fill="#545859"/>
<path d="M20.7654 29.5189V22.246C20.7654 21.3484 19.8808 20.625 18.787 20.625H4.72927C3.62679 20.625 2.74219 21.3484 2.74219 22.2417V29.5146" fill="white"/>
<path d="M23.5051 29.5182H18.0232V23.3652H5.48192V29.5182H0V22.2409C0 20.9859 0.579577 19.7919 1.59055 18.9683C2.45336 18.2667 3.56457 17.8789 4.72806 17.8789C4.72806 17.8789 4.72806 17.8789 4.73242 17.8789H18.7902C21.3917 17.8789 23.5095 19.8398 23.5095 22.2409V29.5182H23.5051Z" fill="#545859"/>
<path d="M23.4869 32.8867H0.0166016V46.805H23.4869V32.8867Z" fill="#FFD100"/>
<path d="M155.875 81.3633H40.7549V109.043H155.875V81.3633Z" fill="#FFE67D"/>
<path d="M52.882 95.8322C52.882 97.5971 52.5203 98.9131 51.7969 99.7802C51.0735 100.647 50.0016 101.083 48.581 101.083C47.1734 101.083 46.1102 100.647 45.3868 99.7802C44.6634 98.9131 44.3018 97.5971 44.3018 95.8322C44.3018 94.0805 44.6722 92.7819 45.4173 91.9365C46.1625 91.0911 47.217 90.6641 48.581 90.6641C49.9449 90.6641 51.0038 91.0824 51.7533 91.9234C52.5072 92.7688 52.882 94.0717 52.882 95.8322ZM48.581 99.4709C49.3392 99.4709 49.91 99.1789 50.2979 98.5906C50.6857 98.0067 50.8774 97.1003 50.8774 95.8714C50.8774 93.4617 50.1105 92.2546 48.581 92.2546C47.8358 92.2546 47.2737 92.5466 46.8858 93.1348C46.498 93.7188 46.3063 94.6339 46.3063 95.8758C46.3063 97.1003 46.4936 98.0067 46.8728 98.595C47.2562 99.1789 47.8227 99.4709 48.581 99.4709Z" fill="#545859"/>
<path d="M60.5098 95.4814C61.0328 95.7167 61.4467 96.0479 61.7518 96.4836C62.0568 96.9194 62.2049 97.4379 62.2049 98.0437C62.2049 99.0633 61.8607 99.8346 61.1722 100.358C60.4837 100.88 59.4989 101.142 58.2177 101.142C56.9366 101.142 55.9517 100.88 55.2632 100.358C54.5747 99.8346 54.2305 99.0633 54.2305 98.0437C54.2305 97.4379 54.383 96.915 54.6837 96.4836C54.9887 96.0479 55.3983 95.7167 55.9256 95.4814C55.5247 95.246 55.224 94.9541 55.0279 94.6011C54.8275 94.2481 54.7272 93.8124 54.7272 93.2895C54.7272 92.4484 55.041 91.8035 55.6685 91.3547C56.296 90.9058 57.1457 90.6836 58.2221 90.6836C59.2984 90.6836 60.1482 90.9058 60.7757 91.3547C61.4032 91.8035 61.7169 92.4484 61.7169 93.2895C61.7169 93.8124 61.6123 94.2525 61.4075 94.6011C61.1896 94.9541 60.8933 95.246 60.5098 95.4814ZM58.2134 99.656C58.4748 99.656 58.7319 99.6255 58.9803 99.5645C59.2287 99.5035 59.4466 99.4076 59.6427 99.2769C59.8344 99.1461 59.9913 98.9762 60.1089 98.7714C60.2266 98.5666 60.2832 98.3051 60.2832 97.987C60.2832 97.6994 60.2266 97.451 60.1089 97.2418C59.9913 97.037 59.8388 96.8671 59.6427 96.7364C59.4509 96.6056 59.2287 96.5054 58.9803 96.4357C58.7319 96.366 58.4792 96.3311 58.2134 96.3311C57.965 96.3311 57.7209 96.3616 57.4813 96.4226C57.2416 96.4836 57.0194 96.5795 56.8189 96.7102C56.6185 96.8409 56.4616 97.0109 56.3439 97.2157C56.2263 97.4205 56.1696 97.6776 56.1696 97.9826C56.1696 98.5753 56.3657 98.998 56.7579 99.2551C57.1501 99.5078 57.6338 99.6429 58.2134 99.656ZM56.5182 93.4333C56.5182 93.5858 56.54 93.7427 56.5923 93.9082C56.6403 94.0738 56.7274 94.2264 56.8494 94.3614C56.9714 94.5009 57.1457 94.6098 57.368 94.6926C57.5902 94.7754 57.8691 94.8146 58.2134 94.8146C58.5576 94.8146 58.8409 94.7711 59.0587 94.6926C59.281 94.6098 59.4509 94.5009 59.5773 94.3614C59.6993 94.222 59.7865 94.0738 59.8344 93.9082C59.8823 93.7427 59.9085 93.5858 59.9085 93.4333C59.9085 93.2807 59.8823 93.1282 59.8344 92.967C59.7865 92.8101 59.6993 92.662 59.5773 92.5312C59.4553 92.4005 59.281 92.2916 59.0587 92.2088C58.8365 92.126 58.5576 92.0868 58.2134 92.0868C57.8691 92.0868 57.5859 92.1303 57.368 92.2088C57.1457 92.2916 56.9758 92.3961 56.8494 92.5312C56.7274 92.662 56.6403 92.8058 56.5923 92.967C56.54 93.1282 56.5182 93.2807 56.5182 93.4333Z" fill="#545859"/>
<path d="M64.6751 101.024C64.4485 101.107 64.1958 101.072 63.9212 100.92C63.699 100.797 63.5552 100.628 63.4855 100.414C63.4158 100.2 63.4593 99.9957 63.6075 99.804L66.7276 95.8952L63.6075 91.9689C63.455 91.7772 63.4158 91.5724 63.4855 91.3588C63.5552 91.1453 63.699 90.9754 63.9212 90.8534C64.1958 90.7008 64.4485 90.666 64.6751 90.7488C64.9017 90.8316 65.0934 90.971 65.2416 91.1627L67.8649 94.4702L70.4882 91.1627C70.6407 90.971 70.8281 90.8316 71.0547 90.7488C71.2813 90.666 71.534 90.7008 71.8086 90.8534C72.0308 90.9754 72.1746 91.1453 72.2443 91.3588C72.3141 91.5724 72.2705 91.7772 72.1223 91.9689L69.0022 95.8952L72.1223 99.804C72.2748 99.9957 72.3141 100.2 72.2443 100.414C72.1746 100.628 72.0308 100.797 71.8086 100.92C71.534 101.072 71.2813 101.107 71.0547 101.024C70.8281 100.941 70.6363 100.802 70.4882 100.61L67.8649 97.3245L65.2416 100.61C65.0934 100.802 64.9061 100.941 64.6751 101.024Z" fill="#545859"/>
<path d="M74.6722 96.7644C74.3977 96.7644 74.1885 96.6816 74.0535 96.516C73.914 96.3504 73.8486 96.1717 73.8486 95.98C73.8486 95.7577 73.9184 95.5704 74.0535 95.4135C74.1929 95.2566 74.3977 95.1738 74.6722 95.1738H80.9559C81.1913 95.1738 81.3874 95.2523 81.5442 95.4135C81.7011 95.5704 81.7839 95.7621 81.7839 95.98C81.7839 96.1717 81.7055 96.3504 81.5442 96.516C81.3874 96.6816 81.1869 96.7644 80.9559 96.7644H74.6722Z" fill="#545859"/>
<path d="M84.5609 101.024C84.3343 101.107 84.0815 101.072 83.807 100.92C83.5847 100.797 83.4409 100.628 83.3712 100.414C83.3015 100.2 83.3451 99.9957 83.4932 99.804L86.6133 95.8952L83.4932 91.9689C83.3407 91.7772 83.3015 91.5724 83.3712 91.3588C83.4409 91.1453 83.5847 90.9754 83.807 90.8534C84.0815 90.7008 84.3343 90.666 84.5609 90.7488C84.7875 90.8316 84.9792 90.971 85.1274 91.1627L87.7507 94.4702L90.3739 91.1627C90.5265 90.971 90.7138 90.8316 90.9404 90.7488C91.167 90.666 91.4198 90.7008 91.6943 90.8534C91.9166 90.9754 92.0604 91.1453 92.1301 91.3588C92.1998 91.5724 92.1562 91.7772 92.0081 91.9689L88.888 95.8952L92.0081 99.804C92.1606 99.9957 92.1998 100.2 92.1301 100.414C92.0604 100.628 91.9166 100.797 91.6943 100.92C91.4198 101.072 91.167 101.107 90.9404 101.024C90.7138 100.941 90.5221 100.802 90.3739 100.61L87.7507 97.3245L85.1274 100.61C84.9748 100.802 84.7875 100.941 84.5609 101.024Z" fill="#545859"/>
<path d="M94.6526 101.024C94.426 101.107 94.1733 101.072 93.8988 100.92C93.6765 100.797 93.5327 100.628 93.463 100.414C93.3933 100.2 93.4369 99.9957 93.585 99.804L96.7051 95.8952L93.585 91.9689C93.4325 91.7772 93.3933 91.5724 93.463 91.3588C93.5327 91.1453 93.6765 90.9754 93.8988 90.8534C94.1733 90.7008 94.426 90.666 94.6526 90.7488C94.8792 90.8316 95.071 90.971 95.2191 91.1627L97.8424 94.4702L100.466 91.1627C100.618 90.971 100.806 90.8316 101.032 90.7488C101.259 90.666 101.512 90.7008 101.786 90.8534C102.008 90.9754 102.152 91.1453 102.222 91.3588C102.292 91.5724 102.248 91.7772 102.1 91.9689L98.9798 95.8952L102.1 99.804C102.252 99.9957 102.292 100.2 102.222 100.414C102.152 100.628 102.008 100.797 101.786 100.92C101.512 101.072 101.259 101.107 101.032 101.024C100.806 100.941 100.614 100.802 100.466 100.61L97.8424 97.3245L95.2191 100.61C95.0666 100.802 94.8792 100.941 94.6526 101.024Z" fill="#545859"/>
<path d="M104.74 101.024C104.513 101.107 104.26 101.072 103.986 100.92C103.763 100.797 103.62 100.628 103.55 100.414C103.48 100.2 103.524 99.9957 103.672 99.804L106.792 95.8952L103.672 91.9689C103.519 91.7772 103.48 91.5724 103.55 91.3588C103.62 91.1453 103.763 90.9754 103.986 90.8534C104.26 90.7008 104.513 90.666 104.74 90.7488C104.966 90.8316 105.158 90.971 105.31 91.1627L107.934 94.4702L110.557 91.1627C110.71 90.971 110.897 90.8316 111.123 90.7488C111.35 90.666 111.603 90.7008 111.877 90.8534C112.1 90.9754 112.243 91.1453 112.313 91.3588C112.383 91.5724 112.339 91.7772 112.191 91.9689L109.071 95.8952L112.191 99.804C112.344 99.9957 112.383 100.2 112.313 100.414C112.243 100.628 112.1 100.797 111.877 100.92C111.603 101.072 111.35 101.107 111.123 101.024C110.897 100.941 110.705 100.802 110.557 100.61L107.934 97.3245L105.31 100.61C105.154 100.802 104.966 100.941 104.74 101.024Z" fill="#545859"/>
<path d="M114.826 101.024C114.6 101.107 114.347 101.072 114.073 100.92C113.85 100.797 113.707 100.628 113.637 100.414C113.567 100.2 113.611 99.9957 113.759 99.804L116.879 95.8952L113.759 91.9689C113.606 91.7772 113.567 91.5724 113.637 91.3588C113.707 91.1453 113.85 90.9754 114.073 90.8534C114.347 90.7008 114.6 90.666 114.826 90.7488C115.053 90.8316 115.245 90.971 115.393 91.1627L118.016 94.4702L120.64 91.1627C120.792 90.971 120.979 90.8316 121.206 90.7488C121.433 90.666 121.685 90.7008 121.96 90.8534C122.182 90.9754 122.326 91.1453 122.396 91.3588C122.465 91.5724 122.422 91.7772 122.274 91.9689L119.154 95.8952L122.274 99.804C122.426 99.9957 122.465 100.2 122.396 100.414C122.326 100.628 122.182 100.797 121.96 100.92C121.685 101.072 121.433 101.107 121.206 101.024C120.979 100.941 120.788 100.802 120.64 100.61L118.016 97.3245L115.393 100.61C115.24 100.802 115.053 100.941 114.826 101.024Z" fill="#545859"/>
<path d="M124.912 101.024C124.686 101.107 124.433 101.072 124.158 100.92C123.936 100.797 123.792 100.628 123.723 100.414C123.653 100.2 123.697 99.9957 123.849 99.804L126.969 95.8952L123.849 91.9689C123.697 91.7772 123.657 91.5724 123.723 91.3588C123.792 91.1453 123.936 90.9754 124.158 90.8534C124.433 90.7008 124.686 90.666 124.912 90.7488C125.139 90.8316 125.331 90.971 125.483 91.1627L128.107 94.4702L130.73 91.1627C130.882 90.971 131.07 90.8316 131.296 90.7488C131.523 90.666 131.776 90.7008 132.05 90.8534C132.272 90.9754 132.416 91.1453 132.486 91.3588C132.556 91.5724 132.512 91.7772 132.364 91.9689L129.244 95.8952L132.364 99.804C132.516 99.9957 132.556 100.2 132.486 100.414C132.416 100.628 132.272 100.797 132.05 100.92C131.776 101.072 131.523 101.107 131.296 101.024C131.07 100.941 130.878 100.802 130.73 100.61L128.107 97.3245L125.483 100.61C125.326 100.802 125.139 100.941 124.912 101.024Z" fill="#545859"/>
<path d="M135.001 101.024C134.775 101.107 134.522 101.072 134.247 100.92C134.025 100.797 133.881 100.628 133.812 100.414C133.742 100.2 133.786 99.9957 133.934 99.804L137.054 95.8952L133.934 91.9689C133.781 91.7772 133.742 91.5724 133.812 91.3588C133.881 91.1453 134.025 90.9754 134.247 90.8534C134.522 90.7008 134.775 90.666 135.001 90.7488C135.228 90.8316 135.42 90.971 135.568 91.1627L138.191 94.4702L140.814 91.1627C140.967 90.971 141.154 90.8316 141.381 90.7488C141.607 90.666 141.86 90.7008 142.135 90.8534C142.357 90.9754 142.501 91.1453 142.571 91.3588C142.64 91.5724 142.597 91.7772 142.449 91.9689L139.328 95.8952L142.449 99.804C142.601 99.9957 142.64 100.2 142.571 100.414C142.501 100.628 142.357 100.797 142.135 100.92C141.86 101.072 141.607 101.107 141.381 101.024C141.154 100.941 140.963 100.802 140.814 100.61L138.191 97.3245L135.568 100.61C135.415 100.802 135.228 100.941 135.001 101.024Z" fill="#545859"/>
<path d="M145.087 101.024C144.861 101.107 144.608 101.072 144.333 100.92C144.111 100.797 143.967 100.628 143.898 100.414C143.828 100.2 143.871 99.9957 144.024 99.804L147.144 95.8952L144.024 91.9689C143.871 91.7772 143.832 91.5724 143.898 91.3588C143.967 91.1453 144.111 90.9754 144.333 90.8534C144.608 90.7008 144.861 90.666 145.087 90.7488C145.314 90.8316 145.506 90.971 145.658 91.1627L148.281 94.4702L150.905 91.1627C151.057 90.971 151.245 90.8316 151.471 90.7488C151.698 90.666 151.95 90.7008 152.225 90.8534C152.447 90.9754 152.591 91.1453 152.661 91.3588C152.73 91.5724 152.687 91.7772 152.539 91.9689L149.419 95.8952L152.539 99.804C152.691 99.9957 152.73 100.2 152.661 100.414C152.591 100.628 152.447 100.797 152.225 100.92C151.95 101.072 151.698 101.107 151.471 101.024C151.245 100.941 151.053 100.802 150.905 100.61L148.281 97.3245L145.658 100.61C145.506 100.802 145.318 100.941 145.087 101.024Z" fill="#545859"/>
</g>
<defs>
<clipPath id="clip0_4317_146627">
<rect width="156" height="156" fill="white"/>
</clipPath>
</defs>
</svg>
