<svg width="114" height="114" viewBox="0 0 114 114" fill="none" xmlns="http://www.w3.org/2000/svg">
<g clip-path="url(#clip0_1603_331317)">
<path d="M102.742 45.6612L102.724 45.6456V45.63H102.706L92.5217 36.9214L85.3483 30.7906C84.5055 30.0748 83.4007 29.1282 82.2959 28.1816L72.7575 20.028L64.8995 13.3216C64.034 12.6255 62.9565 12.2461 61.8457 12.2461C60.735 12.2461 59.6576 12.6255 58.792 13.3216L50.9418 20.0307L41.3956 28.1868C40.2882 29.1334 39.186 30.08 38.3431 30.7958L31.1724 36.9214L20.9856 45.6274H20.957V45.6508V92.9438H102.724V45.6612H102.742Z" fill="white"/>
<path d="M75.6792 91.1985H22.704V46.4625L39.4729 32.1313L42.5279 29.5198L59.9243 14.6546C60.4724 14.2321 61.145 14.0029 61.837 14.0029C62.529 14.0029 63.2015 14.2321 63.7496 14.6546L81.4366 29.7688C82.4454 30.6324 83.4309 31.4779 84.1985 32.1288L100.96 46.4573V64.6707C102.167 64.9848 103.343 65.4075 104.474 65.9337V45.8218C104.492 45.6154 104.474 45.4074 104.419 45.2073C104.314 44.811 104.076 44.4629 103.745 44.2217L86.4754 29.4602C85.6974 28.8093 84.7249 27.969 83.7212 27.1106L66.0292 11.9885C64.8481 11.016 63.3657 10.4844 61.8357 10.4844C60.3057 10.4844 58.8234 11.016 57.6422 11.9885L40.2431 26.8564L37.1933 29.4629L19.9835 44.1829C19.7734 44.3271 19.5966 44.5146 19.4648 44.7327C19.2645 45.0541 19.1736 45.4316 19.2055 45.8089V92.9619C19.2055 93.4278 19.3904 93.8747 19.7196 94.2044C20.0488 94.5341 20.4953 94.7196 20.9612 94.7203H77.1496C76.5528 93.5938 76.0606 92.4149 75.6792 91.1985Z" fill="#545859"/>
<path d="M95.539 19.3711H28.1523V81.947H95.539V19.3711Z" fill="white"/>
<path d="M97.2926 83.7007H26.3945V22.8001C26.3945 21.4244 26.941 20.1052 27.9137 19.1325C28.8864 18.1598 30.2057 17.6133 31.5813 17.6133H92.1058C93.4815 17.6133 94.8007 18.1598 95.7734 19.1325C96.7461 20.1052 97.2926 21.4244 97.2926 22.8001V83.7007ZM29.9085 80.1867H93.7812V23.7181C93.7812 23.0303 93.508 22.3708 93.0216 21.8844C92.5353 21.398 91.8756 21.1247 91.1878 21.1247H32.5019C31.8141 21.1247 31.1545 21.398 30.6682 21.8844C30.1818 22.3708 29.9085 23.0303 29.9085 23.7181V80.1867Z" fill="#545859"/>
<path d="M90.0753 49.3477H33.6172V76.4693H90.0753V49.3477Z" fill="#FFE67D"/>
<path d="M47.1079 55.0625H37.9844V60.1248H47.1079V55.0625Z" fill="#545859"/>
<path d="M59.9751 55.0625H50.8516V60.1248H59.9751V55.0625Z" fill="#545859"/>
<path d="M72.8423 55.0625H63.7188V60.1248H72.8423V55.0625Z" fill="#545859"/>
<path d="M85.7056 55.0625H76.582V60.1248H85.7056V55.0625Z" fill="#545859"/>
<path d="M47.1079 63.9922H37.9844V69.0545H47.1079V63.9922Z" fill="#545859"/>
<path d="M59.9751 63.9922H50.8516V69.0545H59.9751V63.9922Z" fill="#545859"/>
<path d="M72.8423 63.9922H63.7188V69.0545H72.8423V63.9922Z" fill="#545859"/>
<path d="M85.7056 63.9922H76.582V69.0545H85.7056V63.9922Z" fill="#545859"/>
<path d="M102.656 46.6328L92.4851 55.3336L85.3144 61.4644C84.4716 62.1802 83.3694 63.1268 82.262 64.0578L75.1198 70.1652H48.5039L41.3616 64.0578L38.3119 61.4644L31.1411 55.3336L20.9698 46.6432H20.9258V93.8739H102.765V46.6328H102.656Z" fill="white"/>
<path d="M95.6954 66.5716C93.2656 66.5427 90.8542 66.9964 88.6011 67.9063C86.3479 68.8161 84.2978 70.1641 82.5694 71.8721C80.841 73.5801 79.4687 75.6141 78.5322 77.8563C77.5956 80.0985 77.1133 82.5042 77.1133 84.9342C77.1133 87.3641 77.5956 89.7698 78.5322 92.012C79.4687 94.2542 80.841 96.2882 82.5694 97.9962C84.2978 99.7042 86.3479 101.052 88.6011 101.962C90.8542 102.872 93.2656 103.326 95.6954 103.297C95.9547 103.297 96.2141 103.297 96.4475 103.281L96.8209 103.266L96.7301 101.103L96.3592 101.118C96.1414 101.118 95.9184 101.131 95.6954 101.131C92.4916 101.132 89.3595 100.182 86.6954 98.4026C84.0313 96.623 81.9546 94.0933 80.7282 91.1335C79.5018 88.1737 79.1806 84.9167 79.8053 81.7743C80.43 78.632 81.9726 75.7454 84.2379 73.4798C86.5032 71.2142 89.3894 69.6712 92.5317 69.046C95.6739 68.4207 98.931 68.7414 101.891 69.9673C104.851 71.1933 107.381 73.2694 109.161 75.9333C110.941 78.5971 111.891 81.7291 111.891 84.9329C111.891 85.1533 111.891 85.3789 111.891 85.5993L111.875 85.9702L114.038 86.0584L114.054 85.6875C114.064 85.4351 114.069 85.1836 114.069 84.9329C114.064 80.0626 112.126 75.3936 108.681 71.951C105.236 68.5084 100.566 66.5737 95.6954 66.5716Z" fill="#545859"/>
<path d="M105.729 97.6488C105.399 97.9082 105.054 98.1675 104.691 98.3957L104.383 98.6032L105.589 100.4L105.897 100.193C106.297 99.9336 106.675 99.6406 107.059 99.3476L107.35 99.1167L106.009 97.418L105.729 97.6488Z" fill="#545859"/>
<path d="M103.618 99.063C103.249 99.2705 102.868 99.4649 102.489 99.6387L102.152 99.797L103.06 101.76L103.397 101.605C103.83 101.405 104.261 101.184 104.678 100.948L105.002 100.767L103.942 98.8789L103.618 99.063Z" fill="#545859"/>
<path d="M101.329 100.126C100.935 100.274 100.531 100.406 100.123 100.52L99.7656 100.621L100.357 102.696L100.715 102.595C101.176 102.462 101.635 102.312 102.081 102.149L102.429 102.019L101.677 99.9883L101.329 100.126Z" fill="#545859"/>
<path d="M98.8904 100.819C98.4806 100.902 98.0579 100.969 97.6378 101.018L97.2695 101.063L97.5289 103.21L97.8971 103.166C98.3743 103.109 98.8515 103.033 99.3183 102.94L99.6813 102.868L99.2586 100.746L98.8904 100.819Z" fill="#545859"/>
<path d="M109.165 93.9401C108.929 94.2928 108.678 94.6377 108.418 94.9774L108.188 95.2706L109.886 96.6114L110.117 96.3182C110.413 95.9422 110.698 95.5532 110.962 95.1564L111.17 94.8478L109.37 93.6445L109.165 93.9401Z" fill="#545859"/>
<path d="M111.78 86.8656C111.728 87.2857 111.663 87.7059 111.58 88.1182L111.508 88.484L113.629 88.9066L113.702 88.5409C113.795 88.0741 113.87 87.597 113.927 87.1224L113.972 86.7515L111.822 86.4922L111.78 86.8656Z" fill="#545859"/>
<path d="M107.594 95.9273C107.306 96.2385 107.005 96.5395 106.697 96.8247L106.438 97.0841L107.908 98.6738L108.18 98.4145C108.528 98.0903 108.87 97.7479 109.197 97.3952L109.456 97.1359L107.867 95.668L107.594 95.9273Z" fill="#545859"/>
<path d="M111.286 89.354C111.169 89.7611 111.026 90.1657 110.891 90.5599L110.762 90.9075L112.792 91.6595L112.919 91.312C113.085 90.8634 113.236 90.4043 113.368 89.9427L113.469 89.5848L111.394 88.9961L111.286 89.354Z" fill="#545859"/>
<path d="M110.406 91.7278C110.232 92.1091 110.037 92.4903 109.83 92.8585L109.648 93.1827L111.534 94.2434L111.715 93.9192C111.951 93.4991 112.172 93.0686 112.371 92.6381L112.527 92.301L110.564 91.3906L110.406 91.7278Z" fill="#545859"/>
<path d="M96.1201 97.239C102.914 97.0041 108.231 91.3064 107.996 84.5129C107.761 77.7193 102.063 72.4024 95.2696 72.6372C88.476 72.8721 83.1591 78.5698 83.394 85.3634C83.6289 92.157 89.3265 97.4738 96.1201 97.239Z" fill="#FFD100"/>
<path d="M104.859 80.5706L101.482 77.1914L92.7889 85.8819L90.18 83.2729L86.8008 86.6547L92.75 92.6791L104.859 80.5706Z" fill="white"/>
<path d="M92.746 93.6877L85.8008 86.6517L90.1785 82.2689L92.7875 84.8779L101.48 76.1875L105.863 80.5703L92.746 93.6877ZM87.7977 86.6569L92.7485 91.6726L103.851 80.5703L101.475 78.1947L92.7848 86.8878L90.1759 84.2788L87.7977 86.6569Z" fill="#545859"/>
<path d="M75.9891 92.107H25.5892L32.288 86.3886L39.456 80.2112L41.689 78.2868L49.0775 71.9228H74.5499L77.5323 74.4927C78.1206 73.4701 78.7947 72.4993 79.5473 71.5907L77.859 70.1359L83.5489 65.2706L86.456 62.7888L101.008 50.3405V64.669C102.215 64.9856 103.391 65.4101 104.522 65.9372V44.8711H102.009L84.1687 60.115L81.2615 62.602L74.4668 68.4086H49.1579L42.5111 62.7265L39.4587 60.1176L22.1166 45.2963L21.5799 44.8736H19.1758V95.6211H77.6593C76.9938 94.5046 76.4347 93.3281 75.9891 92.107ZM22.6821 50.4053L37.1739 62.7913L40.2211 65.3847L45.7684 70.1255L39.3938 75.6183L37.1635 77.5374L30.0005 83.7123L22.6821 89.9597V50.4053Z" fill="#545859"/>
<path d="M96.2991 102.264C105.867 101.933 113.355 93.9087 113.024 84.341C112.693 74.7733 104.669 67.2852 95.1013 67.6159C85.5336 67.9467 78.0455 75.9711 78.3763 85.5388C78.707 95.1065 86.7314 102.594 96.2991 102.264Z" fill="white"/>
<path d="M95.6954 66.5716C93.2656 66.5427 90.8542 66.9964 88.6011 67.9063C86.3479 68.8161 84.2978 70.1641 82.5694 71.8721C80.841 73.5801 79.4687 75.6141 78.5322 77.8563C77.5956 80.0985 77.1133 82.5042 77.1133 84.9342C77.1133 87.3641 77.5956 89.7698 78.5322 92.012C79.4687 94.2542 80.841 96.2882 82.5694 97.9962C84.2978 99.7042 86.3479 101.052 88.6011 101.962C90.8542 102.872 93.2656 103.326 95.6954 103.297C95.9547 103.297 96.2141 103.297 96.4475 103.281L96.8209 103.266L96.7301 101.103L96.3592 101.118C96.1414 101.118 95.9184 101.131 95.6954 101.131C92.4916 101.132 89.3595 100.182 86.6954 98.4026C84.0313 96.623 81.9546 94.0933 80.7282 91.1335C79.5018 88.1737 79.1806 84.9167 79.8053 81.7743C80.43 78.632 81.9726 75.7454 84.2379 73.4798C86.5032 71.2142 89.3894 69.6712 92.5317 69.046C95.6739 68.4207 98.931 68.7414 101.891 69.9673C104.851 71.1933 107.381 73.2694 109.161 75.9333C110.941 78.5971 111.891 81.7291 111.891 84.9329C111.891 85.1533 111.891 85.3789 111.891 85.5993L111.875 85.9702L114.038 86.0584L114.054 85.6875C114.064 85.4351 114.069 85.1836 114.069 84.9329C114.064 80.0626 112.126 75.3936 108.681 71.951C105.236 68.5084 100.566 66.5737 95.6954 66.5716Z" fill="#545859"/>
<path d="M105.729 97.6488C105.399 97.9082 105.054 98.1675 104.691 98.3957L104.383 98.6032L105.589 100.4L105.897 100.193C106.297 99.9336 106.675 99.6406 107.059 99.3476L107.35 99.1167L106.009 97.418L105.729 97.6488Z" fill="#545859"/>
<path d="M103.618 99.063C103.249 99.2705 102.868 99.4649 102.489 99.6387L102.152 99.797L103.06 101.76L103.397 101.605C103.83 101.405 104.261 101.184 104.678 100.948L105.002 100.767L103.942 98.8789L103.618 99.063Z" fill="#545859"/>
<path d="M101.329 100.126C100.935 100.274 100.531 100.406 100.123 100.52L99.7656 100.621L100.357 102.696L100.715 102.595C101.176 102.462 101.635 102.312 102.081 102.149L102.429 102.019L101.677 99.9883L101.329 100.126Z" fill="#545859"/>
<path d="M98.8904 100.819C98.4806 100.902 98.0579 100.969 97.6378 101.018L97.2695 101.063L97.5289 103.21L97.8971 103.166C98.3743 103.109 98.8515 103.033 99.3183 102.94L99.6813 102.868L99.2586 100.746L98.8904 100.819Z" fill="#545859"/>
<path d="M109.165 93.9401C108.929 94.2928 108.678 94.6377 108.418 94.9774L108.188 95.2706L109.886 96.6114L110.117 96.3182C110.413 95.9422 110.698 95.5532 110.962 95.1564L111.17 94.8478L109.37 93.6445L109.165 93.9401Z" fill="#545859"/>
<path d="M111.78 86.8656C111.728 87.2857 111.663 87.7059 111.58 88.1182L111.508 88.484L113.629 88.9066L113.702 88.5409C113.795 88.0741 113.87 87.597 113.927 87.1198L113.972 86.7515L111.822 86.4922L111.78 86.8656Z" fill="#545859"/>
<path d="M107.594 95.9273C107.306 96.2385 107.005 96.5395 106.697 96.8247L106.438 97.0841L107.908 98.6738L108.18 98.4145C108.528 98.0903 108.87 97.7479 109.197 97.3952L109.456 97.1359L107.867 95.668L107.594 95.9273Z" fill="#545859"/>
<path d="M111.286 89.354C111.169 89.7611 111.026 90.1657 110.891 90.5599L110.762 90.9075L112.792 91.6595L112.919 91.312C113.085 90.8634 113.236 90.4043 113.368 89.9427L113.469 89.5848L111.394 88.9961L111.286 89.354Z" fill="#545859"/>
<path d="M110.406 91.7278C110.232 92.1091 110.037 92.4903 109.83 92.8585L109.648 93.1827L111.534 94.2434L111.715 93.9192C111.951 93.4991 112.172 93.0686 112.371 92.6381L112.527 92.301L110.564 91.3906L110.406 91.7278Z" fill="#545859"/>
<path d="M96.1201 97.239C102.914 97.0041 108.231 91.3064 107.996 84.5129C107.761 77.7193 102.063 72.4024 95.2696 72.6372C88.476 72.8721 83.1591 78.5698 83.394 85.3634C83.6289 92.157 89.3265 97.4738 96.1201 97.239Z" fill="#FFD100"/>
<path d="M104.859 80.5706L101.482 77.1914L92.7889 85.8819L90.18 83.2729L86.8008 86.6547L92.75 92.6791L104.859 80.5706Z" fill="white"/>
<path d="M92.746 93.6877L85.8008 86.6517L90.1785 82.2689L92.7875 84.8779L101.48 76.1875L105.863 80.5703L92.746 93.6877ZM87.7977 86.6569L92.7485 91.6726L103.851 80.5703L101.475 78.1947L92.7848 86.8878L90.1759 84.2788L87.7977 86.6569Z" fill="#545859"/>
<path d="M7.46279 97.1588L0.0742188 83.5798V81.1549L3.40413 81.1523L3.40673 82.7317L7.46279 90.1877L11.5189 82.7317V81.1523H14.8488V83.5798L7.46279 97.1588Z" fill="#545859"/>
<path d="M1.66406 33.6367H13.2539V81.0698H1.66666L1.66406 33.6367Z" fill="white"/>
<path d="M11.5898 35.3012V79.4044H3.33241V35.3012H11.5898ZM14.9224 31.9688H0V82.7344H14.9249V31.9688H14.9224Z" fill="#545859"/>
<path d="M9.12548 33.0586H5.79297V79.5866H9.12548V33.0586Z" fill="#545859"/>
<path d="M13.1906 22.4127V17.7991C13.1906 17.2285 12.6304 16.7617 11.9328 16.7617H2.99601C2.2958 16.7617 1.73047 17.2182 1.73047 17.7991V22.4154" fill="white"/>
<path d="M3.39881 22.4124H0.0664062V17.7961C0.0697044 17.4072 0.159919 17.0239 0.330431 16.6744C0.500942 16.3249 0.747385 16.018 1.05184 15.776C1.6035 15.3345 2.29034 15.0963 2.99689 15.1016H11.9337C13.5675 15.1016 14.8513 16.2843 14.8591 17.791V22.4097H11.5266V18.4342H3.39881V22.4124Z" fill="#545859"/>
<path d="M14.9198 24.5469H0V31.9692H14.9198V24.5469Z" fill="#FFD100"/>
<path d="M44.5787 33.8085C43.6347 32.9683 42.3483 32.543 40.7611 32.543C39.0417 32.543 37.688 33.0123 36.731 33.9382C35.774 34.864 35.2891 36.1918 35.2891 37.8775C35.2891 39.5632 35.8078 40.9248 36.8166 41.8636C37.8254 42.8024 39.27 43.2692 41.1113 43.2692C41.5776 43.2629 42.0423 43.2117 42.4988 43.1162C42.9924 43.0192 43.4753 42.8742 43.9407 42.6832C44.3517 42.521 44.7322 42.2903 45.0662 42.001C45.2245 41.8848 45.3445 41.7241 45.411 41.5393C45.4775 41.3545 45.4875 41.1541 45.4396 40.9636C45.3517 40.6277 45.1478 40.3338 44.864 40.1338C44.7202 40.038 44.5587 39.972 44.389 39.9394C44.2193 39.9069 44.0449 39.9087 43.8759 39.9445L43.8291 39.9574C43.3649 40.1338 42.9136 40.2869 42.4857 40.4087C41.7034 40.606 40.8896 40.6448 40.092 40.5228C39.7981 40.4899 39.5132 40.4019 39.2518 40.2635C39.0272 40.1379 38.8421 39.9519 38.7176 39.7266C38.5961 39.499 38.517 39.2512 38.4842 38.9953H44.4879C45.0455 38.9953 45.45 38.8163 45.6886 38.461C45.9112 38.1266 46.0261 37.732 46.0179 37.3304C46.0179 35.8469 45.5253 34.6591 44.5787 33.8085ZM43.0226 36.5939H38.4634C38.5551 36.1656 38.7781 35.7767 39.1014 35.4813C39.4645 35.1649 40.0324 35.004 40.7923 35.004C41.5522 35.004 42.1408 35.17 42.4572 35.4942C42.7419 35.802 42.9359 36.1826 43.0174 36.5939H43.0226Z" fill="#545859"/>
<path d="M57.0737 34.9715H48.8631C48.6774 34.9593 48.4912 34.9879 48.3177 35.0556C48.1443 35.1233 47.9878 35.2282 47.8594 35.363C47.6399 35.6159 47.5217 35.9411 47.5276 36.2759C47.5291 36.5957 47.6461 36.9043 47.8569 37.1447C47.9822 37.2866 48.1381 37.3979 48.3129 37.4703C48.4877 37.5427 48.6768 37.5741 48.8657 37.5622H57.0764C57.2553 37.5654 57.4329 37.531 57.5977 37.4613C57.7625 37.3916 57.9109 37.2882 58.0333 37.1576C58.1517 37.043 58.2464 36.9061 58.3118 36.7548C58.3772 36.6035 58.4122 36.4407 58.4146 36.2759C58.4165 36.1034 58.3833 35.9324 58.3168 35.7732C58.2504 35.614 58.1521 35.4701 58.0281 35.3501C57.9032 35.2254 57.7541 35.1274 57.59 35.0623C57.4259 34.9972 57.2502 34.9663 57.0737 34.9715Z" fill="#545859"/>
<path d="M69.165 35.9154C69.5238 35.6565 69.8271 35.3284 70.0572 34.9506C70.3944 34.4117 70.5741 33.7892 70.5758 33.1535C70.5758 31.9501 70.1895 30.9776 69.427 30.2644C68.6646 29.5512 67.6117 29.1933 66.315 29.1933H61.6987C61.501 29.1823 61.3035 29.2188 61.123 29.3001C60.9425 29.3813 60.7841 29.5048 60.6613 29.6601C60.4539 29.9053 60.3352 30.2132 60.3242 30.5341V41.1488C60.3241 41.367 60.3431 41.5849 60.3812 41.7998C60.4194 42.024 60.4921 42.2409 60.5965 42.4429C60.6973 42.6421 60.8429 42.8153 61.0218 42.9487C61.2149 43.0922 61.4504 43.167 61.6909 43.1613H66.7662C68.2677 43.1613 69.4114 42.8164 70.1687 42.124C70.926 41.4315 71.3202 40.4227 71.3202 39.1079C71.3232 38.3304 71.0471 37.5776 70.5422 36.9864C70.1663 36.5337 69.6964 36.1682 69.165 35.9154ZM63.4363 34.865V31.7919H65.9052C66.1074 31.7743 66.311 31.8018 66.5013 31.8727C66.6915 31.9436 66.8634 32.0559 67.0047 32.2016C67.265 32.5155 67.4056 32.9116 67.4016 33.3193C67.4238 33.7315 67.2884 34.1367 67.023 34.4527C66.8779 34.5986 66.7027 34.7112 66.5096 34.7824C66.3165 34.8537 66.1103 34.8818 65.9052 34.865H63.4363ZM68.2108 38.934C68.2292 39.1635 68.1938 39.3943 68.1073 39.6077C68.0209 39.8211 67.8857 40.0114 67.7127 40.1633C67.3726 40.4469 66.9419 40.5987 66.4991 40.5912H63.4363V37.3029H66.2034C66.7305 37.2809 67.2476 37.4513 67.6583 37.7826C67.8336 37.9182 67.9749 38.093 68.0708 38.2929C68.1667 38.4928 68.2147 38.7123 68.2108 38.934Z" fill="#545859"/>
<path d="M74.9267 28.1925C74.4466 28.178 73.9804 28.3542 73.63 28.6827C73.4631 28.8407 73.3302 29.031 73.2393 29.2422C73.1485 29.4533 73.1016 29.6808 73.1016 29.9106C73.1016 30.1405 73.1485 30.3679 73.2393 30.579C73.3302 30.7901 73.4631 30.9806 73.63 31.1386C73.9804 31.4671 74.4466 31.6433 74.9267 31.6288C75.1623 31.6376 75.3972 31.5981 75.6171 31.5129C75.8369 31.4277 76.0371 31.2986 76.2053 31.1334C76.5232 30.8058 76.701 30.3672 76.701 29.9106C76.701 29.4541 76.5232 29.0154 76.2053 28.6878C76.0369 28.5228 75.8367 28.3939 75.6169 28.3088C75.3971 28.2236 75.1623 28.1841 74.9267 28.1925Z" fill="#545859"/>
<path d="M76.0203 32.9089C75.7087 32.6642 75.3219 32.5351 74.9258 32.5433C74.5493 32.5459 74.1844 32.6736 73.8885 32.9064C73.7319 33.0162 73.6042 33.1622 73.5162 33.332C73.4281 33.5018 73.3824 33.6902 73.3828 33.8814V41.8769C73.3816 42.066 73.4251 42.2526 73.5098 42.4217C73.5946 42.5907 73.7181 42.7373 73.8704 42.8494C74.182 43.0941 74.5686 43.2234 74.9647 43.2151C75.3413 43.2134 75.7065 43.0856 76.0021 42.8521C76.1612 42.7439 76.2916 42.5985 76.3819 42.4286C76.4723 42.2587 76.5199 42.0693 76.5207 41.8769V33.8814C76.5199 33.6914 76.4741 33.5043 76.3871 33.3353C76.3002 33.1663 76.1745 33.0201 76.0203 32.9089Z" fill="#545859"/>
<path d="M80.6813 28.5978C80.2968 28.5966 79.9261 28.7412 79.644 29.0024C79.4967 29.1274 79.3788 29.2832 79.2985 29.4589C79.2183 29.6346 79.1777 29.8259 79.1798 30.019V41.8215C79.1777 42.0146 79.2183 42.2058 79.2985 42.3815C79.3788 42.5573 79.4967 42.7131 79.644 42.8381C79.9261 43.0993 80.2968 43.2439 80.6813 43.2426C81.0719 43.249 81.4496 43.103 81.7343 42.8355C81.8774 42.7086 81.9917 42.5523 82.0691 42.3774C82.1465 42.2024 82.1853 42.0128 82.1829 41.8215V30.019C82.1853 29.8277 82.1465 29.6381 82.0691 29.4631C81.9917 29.2881 81.8774 29.1319 81.7343 29.0049C81.4493 28.7379 81.0718 28.592 80.6813 28.5978Z" fill="#545859"/>
<path d="M87.2421 29.005C86.9574 28.7375 86.5797 28.5915 86.1892 28.5979C85.8047 28.5971 85.4342 28.7417 85.1518 29.0024C85.0045 29.1274 84.8866 29.2832 84.8064 29.4589C84.7261 29.6347 84.6855 29.8259 84.6876 30.019V41.8215C84.6855 42.0146 84.7261 42.2059 84.8064 42.3816C84.8866 42.5573 85.0045 42.7131 85.1518 42.8381C85.4342 43.0989 85.8047 43.2434 86.1892 43.2427C86.5797 43.2491 86.9574 43.1031 87.2421 42.8355C87.3853 42.7086 87.4994 42.5524 87.5768 42.3774C87.6542 42.2024 87.6931 42.0128 87.6907 41.8215V30.019C87.6931 29.8277 87.6542 29.6381 87.5768 29.4631C87.4994 29.2882 87.3853 29.1319 87.2421 29.005Z" fill="#545859"/>
</g>
<defs>
<clipPath id="clip0_1603_331317">
<rect width="114" height="114" fill="white"/>
</clipPath>
</defs>
</svg>
