<svg width="163" height="163" viewBox="0 0 163 163" fill="none" xmlns="http://www.w3.org/2000/svg">
<path fill-rule="evenodd" clip-rule="evenodd" d="M81.5 0C36.4898 0 0 36.4898 0 81.5C0 126.51 36.4898 163 81.5 163C126.51 163 163 126.51 163 81.5C163 36.4898 126.51 0 81.5 0ZM11.1136 81.5C11.1136 62.8324 18.5293 44.9293 31.7293 31.7293C44.9293 18.5293 62.8324 11.1136 81.5 11.1136C100.168 11.1136 118.071 18.5293 131.271 31.7293C144.471 44.9293 151.886 62.8324 151.886 81.5C151.886 100.168 144.471 118.071 131.271 131.271C118.071 144.471 100.168 151.886 81.5 151.886C62.8324 151.886 44.9293 144.471 31.7293 131.271C18.5293 118.071 11.1136 100.168 11.1136 81.5Z" fill="#F04848"/>
<path d="M90.5445 98.6702C90.5445 94.1204 86.822 90.3979 82.2723 90.3979C77.6191 90.3979 74 94.1204 74 98.6702C74 103.323 77.6191 106.942 82.2723 106.942C86.822 106.942 90.5445 103.323 90.5445 98.6702ZM74.9306 56.6885L76.2749 84.8141C76.3783 86.055 77.5157 87.089 78.7565 87.089H85.6846C86.9254 87.089 88.0628 86.055 88.1662 84.8141L89.5105 56.6885C89.6139 55.2408 88.4764 54 87.0288 54H77.4123C75.9647 54 74.8272 55.2408 74.9306 56.6885Z" fill="#F04848"/>
</svg>
