<svg width="156" height="156" viewBox="0 0 156 156" fill="none" xmlns="http://www.w3.org/2000/svg">
<path d="M13.1562 62.7351L3.65625 53.2606C38.341 18.6184 94.7762 18.6142 129.469 53.2606L119.97 62.752C90.5187 33.3367 42.6028 33.3367 13.1562 62.7351Z" fill="#545859"/>
<path d="M7.57031 53.2597L13.1906 58.8681C43.172 30.9322 89.9545 30.9322 119.936 58.8681L125.556 53.2556C92.4676 22.2506 40.6547 22.2547 7.57031 53.2597Z" fill="#545859"/>
<path d="M30.2385 79.8008L20.7344 70.3095C26.7414 64.2795 33.886 59.4987 41.7551 56.244C49.6242 52.9893 58.0616 51.3252 66.5788 51.3479C75.0907 51.3242 83.5227 52.9867 91.3868 56.2393C99.2509 59.4918 106.391 64.2698 112.393 70.2967L102.894 79.7838C98.1348 75.0081 92.4749 71.2222 86.2416 68.6449C80.0082 66.0676 73.3253 64.7502 66.5788 64.7688C59.8269 64.7486 53.138 66.0669 46.8999 68.6472C40.6619 71.2275 34.9985 75.0186 30.2385 79.8008Z" fill="#FFD100"/>
<path d="M48.2265 97.769L38.7266 88.2776C46.1155 80.9204 56.1241 76.7891 66.5582 76.7891C76.9923 76.7891 87.0005 80.9204 94.3893 88.2776L84.8724 97.769C80.0065 92.928 73.4179 90.2098 66.5495 90.2098C59.681 90.2098 53.0924 92.928 48.2265 97.769Z" fill="#545859"/>
<path d="M66.5646 100.414C64.7675 100.416 63.0266 101.04 61.6386 102.18C60.2507 103.32 59.3012 104.905 58.9524 106.666C58.6036 108.426 58.8769 110.253 59.7255 111.835C60.5742 113.417 61.9459 114.656 63.6068 115.341C65.2678 116.027 67.1153 116.116 68.8346 115.593C70.5538 115.071 72.0384 113.969 73.0355 112.476C74.0326 110.983 74.4807 109.191 74.3031 107.405C74.1256 105.619 73.3334 103.95 72.0617 102.682C70.603 101.228 68.6256 100.412 66.5646 100.414Z" fill="#545859"/>
<path d="M121.395 63.8796C138.303 63.8796 152.009 50.1918 152.009 33.307C152.009 16.4222 138.303 2.73438 121.395 2.73438C104.488 2.73438 90.7812 16.4222 90.7812 33.307C90.7812 50.1918 104.488 63.8796 121.395 63.8796Z" fill="white"/>
<path d="M121.379 66.6137C114.783 66.6137 108.335 64.6604 102.85 61.0006C97.3652 57.3408 93.0906 52.1389 90.5663 46.0529C88.042 39.9669 87.3813 33.2699 88.6681 26.809C89.955 20.3481 93.1315 14.4134 97.7958 9.75536C102.46 5.09731 108.403 1.92514 114.873 0.639985C121.342 -0.645167 128.048 0.014465 134.142 2.53538C140.237 5.0563 145.445 9.32529 149.11 14.8026C152.775 20.2799 154.731 26.7195 154.731 33.307C154.721 42.1374 151.204 50.6031 144.951 56.8472C138.699 63.0912 130.222 66.6036 121.379 66.6137ZM121.379 5.46841C115.866 5.46757 110.476 7.09975 105.891 10.1582C101.306 13.2166 97.7325 17.564 95.622 22.6508C93.5115 27.7375 92.9592 33.3348 94.0343 38.7352C95.1094 44.1356 97.7639 49.0965 101.662 52.9901C105.561 56.8838 110.528 59.5355 115.935 60.61C121.343 61.6845 126.948 61.1335 132.042 59.0266C137.135 56.9197 141.489 53.3517 144.553 48.7736C147.616 44.1955 149.251 38.813 149.251 33.307C149.242 25.9272 146.303 18.8521 141.078 13.6335C135.853 8.41486 128.769 5.47851 121.379 5.46841Z" fill="#545859"/>
<path d="M119.046 53.3096L116.091 56.2601L106.719 46.8916L116.091 37.5273L119.046 40.4735L112.623 46.8916L119.046 53.3096Z" fill="#545859"/>
<path d="M136.076 32.0625V39.1546C136.074 41.8184 135.013 44.3725 133.127 46.2561C131.241 48.1398 128.683 49.1991 126.016 49.2014H112.156V45.0258H126.016C127.575 45.0247 129.07 44.4057 130.172 43.3049C131.274 42.2041 131.894 40.7114 131.895 39.1546V32.0625H136.076Z" fill="#545859"/>
<path d="M136.073 19.7197L126.705 29.0839L123.75 26.1378L130.169 19.7197L123.746 13.3017L126.705 10.3555L136.073 19.7197Z" fill="#545859"/>
<path d="M130.638 17.4258V21.597H116.775C115.216 21.5981 113.721 22.2171 112.619 23.3179C111.517 24.4187 110.897 25.9115 110.896 27.4683C110.896 31.7879 110.985 36.5273 110.985 36.5739L106.808 36.6544C106.808 36.6035 106.719 31.8261 106.719 27.4683C106.722 24.8059 107.783 22.2534 109.668 20.3708C111.553 18.4882 114.109 17.4291 116.775 17.4258H130.638Z" fill="#545859"/>
<path d="M124.25 154.068C140.776 154.068 154.172 140.689 154.172 124.186C154.172 107.683 140.776 94.3047 124.25 94.3047C107.725 94.3047 94.3281 107.683 94.3281 124.186C94.3281 140.689 107.725 154.068 124.25 154.068Z" fill="white"/>
<path d="M124.114 92.3125C115.657 92.3125 107.546 95.6674 101.566 101.639C95.586 107.611 92.2266 115.711 92.2266 124.157C92.2266 132.603 95.586 140.702 101.566 146.674C107.546 152.646 115.657 156.001 124.114 156.001C124.538 156.001 124.997 156.001 125.426 155.971L126.071 155.946L125.918 152.194L125.268 152.224C124.895 152.224 124.505 152.245 124.114 152.245C118.55 152.245 113.111 150.597 108.485 147.51C103.859 144.423 100.253 140.036 98.1242 134.902C95.9952 129.769 95.4383 124.12 96.5241 118.67C97.6098 113.221 100.29 108.215 104.224 104.287C108.159 100.358 113.171 97.6825 118.628 96.599C124.086 95.5155 129.742 96.0725 134.882 98.1995C140.022 100.326 144.415 103.928 147.505 108.548C150.596 113.168 152.245 118.601 152.244 124.157C152.244 124.538 152.245 124.928 152.219 125.31L152.193 125.954L155.95 126.107L155.976 125.462C155.976 125.038 156.001 124.589 156.001 124.157C155.991 115.714 152.628 107.62 146.65 101.651C140.672 95.6808 132.568 92.3226 124.114 92.3125Z" fill="#545859"/>
<path d="M141.54 146.203C140.967 146.657 140.369 147.093 139.762 147.5L139.223 147.861L141.32 150.976L141.855 150.616C142.546 150.154 143.226 149.658 143.871 149.149L144.376 148.751L142.046 145.805L141.54 146.203Z" fill="#545859"/>
<path d="M137.887 148.64C137.246 149 136.588 149.335 135.926 149.64L135.34 149.911L136.919 153.303L137.505 153.031C138.256 152.684 139.004 152.302 139.729 151.895L140.294 151.577L138.447 148.305L137.887 148.64Z" fill="#545859"/>
<path d="M133.896 150.502C133.213 150.752 132.508 150.985 131.803 151.185L131.184 151.358L132.207 154.97L132.831 154.792C133.629 154.567 134.427 154.305 135.204 154.021L135.807 153.796L134.499 150.277L133.896 150.502Z" fill="#545859"/>
<path d="M129.666 151.697C128.953 151.842 128.223 151.96 127.493 152.045L126.852 152.121L127.298 155.848L127.938 155.771C128.766 155.674 129.594 155.542 130.405 155.377L131.037 155.254L130.298 151.57L129.666 151.697Z" fill="#545859"/>
<path d="M147.503 139.769C147.078 140.379 146.654 140.977 146.204 141.545L145.805 142.054L148.755 144.377L149.154 143.872C149.667 143.22 150.164 142.541 150.622 141.855L150.984 141.32L147.859 139.23L147.503 139.769Z" fill="#545859"/>
<path d="M152.046 127.506C151.961 128.231 151.846 128.964 151.701 129.676L151.574 130.308L155.259 131.041L155.386 130.41C155.548 129.6 155.679 128.774 155.777 127.947L155.853 127.307L152.122 126.883L152.046 127.506Z" fill="#545859"/>
<path d="M144.771 143.22C144.275 143.759 143.748 144.28 143.214 144.776L142.742 145.2L145.289 147.956L145.765 147.532C146.367 146.972 146.961 146.379 147.526 145.764L147.95 145.293L145.191 142.75L144.771 143.22Z" fill="#545859"/>
<path d="M151.181 131.81C150.982 132.518 150.757 133.222 150.502 133.9L150.277 134.507L153.8 135.812L154.026 135.206C154.314 134.43 154.573 133.633 154.798 132.832L154.977 132.213L151.36 131.191L151.181 131.81Z" fill="#545859"/>
<path d="M149.656 135.925C149.351 136.586 149.011 137.247 148.654 137.887L148.336 138.447L151.613 140.287L151.927 139.723C152.352 138.998 152.721 138.252 153.065 137.502L153.337 136.917L149.941 135.34L149.656 135.925Z" fill="#545859"/>
<path d="M124.849 145.495C136.646 145.088 145.878 135.208 145.47 123.427C145.063 111.646 135.169 102.426 123.372 102.833C111.575 103.24 102.342 113.121 102.75 124.902C103.158 136.683 113.052 145.903 124.849 145.495Z" fill="#FFD100"/>
<path d="M140.029 116.589L134.162 110.727L119.068 125.801L114.538 121.278L108.672 127.136L119 137.586L140.029 116.589Z" fill="white"/>
<path d="M118.992 139.315L106.945 127.132L114.552 119.531L119.081 124.054L134.172 108.984L141.783 116.585L118.992 139.315ZM110.409 127.124L119.005 135.818L138.285 116.568L134.159 112.448L119.068 127.522L114.539 122.999L110.409 127.124Z" fill="#545859"/>
</svg>
