<svg width="256" height="128" viewBox="0 0 256 128" fill="none" xmlns="http://www.w3.org/2000/svg">
<path d="M156.344 61.5781C156.433 62.359 156.484 63.1501 156.484 63.954C156.484 64.7579 156.433 65.549 156.344 66.3299H193.83V61.5781H156.344Z" fill="#545859"/>
<path d="M115.23 63.954C115.23 63.1501 115.281 62.359 115.371 61.5781H71.6016V66.3299H115.371C115.281 65.5516 115.23 64.7579 115.23 63.954Z" fill="#545859"/>
<path d="M136.505 80.8936C145.873 80.5692 153.205 72.7117 152.881 63.3432C152.556 53.9748 144.699 46.6431 135.33 46.9674C125.962 47.2918 118.63 55.1493 118.954 64.5178C119.279 73.8862 127.136 81.2179 136.505 80.8936Z" fill="white"/>
<path d="M135.857 45.8711C125.894 45.8711 117.789 53.9762 117.789 63.9392C117.789 73.9021 125.894 82.0098 135.857 82.0098C136.107 82.0098 136.357 82.0047 136.6 81.9945L136.965 81.9791L136.878 79.8508L136.513 79.8661C136.299 79.8763 136.079 79.8789 135.857 79.8789C127.068 79.8789 119.917 72.7282 119.917 63.9392C119.917 55.1501 127.068 47.9994 135.857 47.9994C144.646 47.9994 151.797 55.1501 151.797 63.9392C151.797 64.1561 151.792 64.3781 151.784 64.595L151.769 64.9599L153.897 65.0467L153.912 64.6818C153.923 64.4342 153.928 64.1867 153.928 63.9392C153.928 53.9762 145.823 45.8711 135.857 45.8711Z" fill="#545859"/>
<path d="M145.734 76.4537C145.409 76.7114 145.07 76.959 144.726 77.1887L144.422 77.3928L145.609 79.1614L145.912 78.9572C146.303 78.6943 146.688 78.4136 147.056 78.1252L147.344 77.8981L146.025 76.2266L145.734 76.4537Z" fill="#545859"/>
<path d="M143.661 77.8427C143.298 78.0469 142.926 78.2383 142.551 78.4118L142.219 78.5649L143.115 80.4968L143.446 80.3437C143.872 80.1471 144.296 79.9302 144.704 79.698L145.023 79.5194L143.98 77.6641L143.661 77.8427Z" fill="#545859"/>
<path d="M141.4 78.8932C141.012 79.0361 140.614 79.1663 140.215 79.2811L139.863 79.3807L140.445 81.4299L140.797 81.3304C141.252 81.2002 141.703 81.0522 142.142 80.8914L142.484 80.7638L141.744 78.7656L141.4 78.8932Z" fill="#545859"/>
<path d="M139.001 79.5715C138.598 79.6531 138.182 79.7195 137.769 79.768L137.406 79.8113L137.659 81.9244L138.021 81.881C138.491 81.8249 138.96 81.7509 139.417 81.659L139.777 81.5875L139.359 79.5L139.001 79.5715Z" fill="#545859"/>
<path d="M149.111 72.8011C148.878 73.1482 148.631 73.4876 148.376 73.8092L148.148 74.0975L149.82 75.4169L150.047 75.1311C150.338 74.7611 150.619 74.3757 150.879 73.9878L151.083 73.6841L149.315 72.5L149.111 72.8011Z" fill="#545859"/>
<path d="M151.682 65.8389C151.634 66.2524 151.567 66.6658 151.486 67.0716L151.414 67.4314L153.502 67.8474L153.573 67.4875C153.665 67.0282 153.739 66.5586 153.795 66.089L153.838 65.7267L151.723 65.4766L151.682 65.8389Z" fill="#545859"/>
<path d="M147.565 74.7562C147.282 75.0625 146.986 75.3585 146.682 75.6392L146.414 75.8868L147.861 77.4486L148.129 77.201C148.471 76.8846 148.808 76.5477 149.129 76.2007L149.377 75.9327L147.813 74.4883L147.565 74.7562Z" fill="#545859"/>
<path d="M151.197 68.2858C151.084 68.6864 150.954 69.0845 150.811 69.4724L150.684 69.8144L152.679 70.5545L152.807 70.2125C152.97 69.7736 153.118 69.3193 153.246 68.8651L153.345 68.5129L151.296 67.9336L151.197 68.2858Z" fill="#545859"/>
<path d="M150.334 70.6247C150.16 70.9999 149.969 71.3725 149.765 71.7374L149.586 72.0564L151.444 73.1002L151.622 72.7812C151.855 72.3703 152.069 71.9467 152.266 71.5205L152.419 71.1887L150.487 70.293L150.334 70.6247Z" fill="#545859"/>
<path d="M136.279 76.0371C142.964 75.8057 148.196 70.1976 147.964 63.5111C147.733 56.8245 142.125 51.5917 135.44 51.8231C128.755 52.0546 123.524 57.6627 123.755 64.3492C123.987 71.0357 129.594 76.2686 136.279 76.0371Z" fill="#FFD100"/>
<path d="M144.875 59.6416L141.55 56.3164L132.998 64.8707L130.431 62.3034L127.105 65.6286L132.96 71.5569L144.875 59.6416Z" fill="white"/>
<path d="M132.955 72.5489L126.121 65.6254L130.431 61.3151L132.999 63.8824L141.553 55.3281L145.866 59.6435L132.955 72.5489ZM128.091 65.6305L132.963 70.566L143.888 59.641L141.55 57.3034L132.999 65.8576L130.431 63.2903L128.091 65.6305Z" fill="#545859"/>
<path d="M238.519 44.5683C238.606 30.4148 227.202 18.8704 213.048 18.783C198.893 18.6956 187.347 30.0984 187.26 44.2519C187.172 58.4053 198.576 69.9497 212.731 70.0371C226.886 70.1245 238.432 58.7217 238.519 44.5683Z" fill="white"/>
<path d="M212.887 71.8206C197.775 71.8206 185.477 59.5251 185.477 44.4122C185.477 29.2994 197.772 17.0039 212.887 17.0039C228 17.0039 240.298 29.2994 240.298 44.4122C240.298 59.5251 228 71.8206 212.887 71.8206ZM212.887 20.5639C199.737 20.5639 189.039 31.2619 189.039 44.4097C189.039 57.5575 199.737 68.2555 212.887 68.2555C226.038 68.2555 236.733 57.5575 236.733 44.4097C236.733 31.2619 226.035 20.5639 212.887 20.5639Z" fill="#545859"/>
<path d="M212.89 71.8206C203.577 71.8206 196.281 59.7803 196.281 44.4122C196.281 29.0442 203.577 17.0039 212.89 17.0039C222.197 17.0039 229.49 29.0442 229.49 44.4122C229.49 59.7803 222.197 71.8206 212.89 71.8206ZM212.89 20.5639C205.818 20.5639 199.844 31.4839 199.844 44.4097C199.844 57.3355 205.818 68.2555 212.89 68.2555C219.956 68.2555 225.925 57.3355 225.925 44.4097C225.925 31.4839 219.956 20.5639 212.89 20.5639Z" fill="#545859"/>
<path d="M212.887 71.8192H211.105V17H212.887C228 17 240.298 29.2955 240.298 44.4083C240.298 59.5212 228 71.8192 212.887 71.8192ZM214.668 20.6289V68.1903C226.989 67.2767 236.733 56.959 236.733 44.4083C236.733 31.8577 226.989 21.5425 214.668 20.6289Z" fill="#545859"/>
<path d="M238.073 55.2244H187.689L187.255 54.0709C186.074 50.937 185.477 47.6884 185.477 44.4116C185.477 41.1323 186.076 37.8811 187.258 34.7472L187.692 33.5938H238.073L238.509 34.7447C239.694 37.8836 240.296 41.1349 240.296 44.4091C240.296 47.6833 239.694 50.9345 238.509 54.0709L238.073 55.2244ZM190.188 51.6618H235.582C236.348 49.291 236.736 46.8564 236.736 44.4116C236.736 41.9668 236.348 39.5297 235.582 37.1563H190.188C189.424 39.5271 189.039 41.9617 189.039 44.4116C189.039 46.859 189.424 49.291 190.188 51.6618Z" fill="#545859"/>
<path d="M179.984 48.4558V47.2104L186.709 43.4922" fill="white"/>
<path d="M245.818 48.4566V47.2112L238.812 43.3398" fill="white"/>
<path d="M180.477 71.6875H176.914V88.8496H180.477V71.6875Z" fill="#545859"/>
<path d="M179.584 48.1279L177.812 51.2188L211.983 70.8048L213.754 67.7139L179.584 48.1279Z" fill="#545859"/>
<path d="M247.03 71.2422V89.1265L212.866 108.853L178.695 89.1265V76.8106V72.0001" fill="white"/>
<path d="M212.864 110.91L176.914 90.155V72.0001H180.477V88.0981L212.864 106.796L245.249 88.0981V71.2422H248.814V90.155L212.864 110.91Z" fill="#545859"/>
<path d="M246.145 87.5948L211.977 107.316L213.757 110.402L247.926 90.6803L246.145 87.5948Z" fill="#545859"/>
<path d="M214.668 68.9297H211.105V108.562H214.668V68.9297Z" fill="#545859"/>
<path d="M92.4102 74.3332V21.3999C92.4102 20.0345 91.2976 18.9219 89.9297 18.9219H4.39985C3.03199 18.9219 1.92188 20.0345 1.92188 21.3999V74.3332H92.4102Z" fill="white"/>
<path d="M94.3265 76.2469H0V21.3971C0 18.9727 1.97269 17 4.39707 17H89.9295C92.3538 17 94.3265 18.9727 94.3265 21.3971V76.2469ZM3.83564 72.4113H90.4883V21.3971C90.4883 21.0883 90.2357 20.8382 89.9269 20.8382H4.39707C4.08828 20.8382 3.83819 21.0883 3.83819 21.3971V72.4113H3.83564Z" fill="#545859"/>
<path d="M85.2393 26.1094H8.99609V67.0841H85.2393V26.1094Z" fill="#FFE67D"/>
<path d="M1.92188 74.276V81.909C1.92188 83.3713 3.41989 85.002 4.88218 85.002H90.0956C91.5578 85.002 92.4332 83.4989 92.4332 82.034V74.2734H1.92188V74.276Z" fill="white"/>
<path d="M90.098 86.9236H4.88466C2.37606 86.9236 0.0078125 84.4864 0.0078125 81.9115V72.3594H94.3573V82.0365C94.3548 84.4405 92.7623 86.9236 90.098 86.9236ZM3.84345 76.195V81.9115C3.84345 82.3734 4.53504 83.0879 4.88466 83.0879H90.098C90.2205 83.0879 90.5166 82.6337 90.5166 82.0391V76.195H3.84345Z" fill="#545859"/>
<path d="M37.111 85.0625C36.9554 86.9612 37.2922 91.1822 36.8839 93.2442C36.5113 95.1326 36.2485 95.1964 35.2455 95.7528C34.6815 96.0616 33.7271 96.4954 32.9258 96.8399" fill="white"/>
<path d="M33.6902 98.5989L32.1641 95.0797C33.1262 94.6611 33.9147 94.2937 34.323 94.0691L34.4506 93.9976C34.5578 93.9389 34.6854 93.87 34.7645 93.819C34.8054 93.7067 34.8845 93.4489 34.9993 92.8696C35.2086 91.8131 35.1805 89.7664 35.1601 88.1204C35.1448 86.8954 35.1295 85.7394 35.1984 84.9023L39.0213 85.2188C38.9677 85.8721 38.983 86.9388 38.9957 88.0694C39.0213 90.0829 39.0493 92.1628 38.7635 93.6148C38.3092 95.904 37.7504 96.5573 36.3034 97.356L36.1758 97.4275C35.5097 97.795 34.4557 98.2671 33.6902 98.5989Z" fill="#545859"/>
<path d="M61.3372 96.8496C60.5333 96.5 59.561 96.061 58.9919 95.7497C57.9915 95.1934 57.795 95.1296 57.4224 93.2411C57.0141 91.1791 57.3484 87.0627 57.1953 85.1641" fill="white"/>
<path d="M60.5715 98.6124C59.8008 98.2781 58.7392 97.8009 58.0706 97.436L57.9787 97.3849C56.4092 96.5147 55.9779 95.8435 55.5364 93.6157C55.2481 92.1636 55.2761 90.1118 55.3042 88.1289C55.3195 87.0188 55.3323 85.9725 55.2812 85.3192L59.1041 85.0078C59.173 85.8398 59.1577 86.9754 59.1399 88.1799C59.1169 89.7979 59.0914 91.8114 59.3006 92.8705C59.418 93.46 59.492 93.7331 59.5354 93.8581C59.6171 93.9066 59.7396 93.9755 59.8417 94.0316L59.9208 94.075C60.324 94.2945 61.1228 94.6696 62.0976 95.0907L60.5715 98.6124Z" fill="#545859"/>
<path d="M63.9274 94.7695H30.4453V98.6077H63.9274V94.7695Z" fill="#545859"/>
<path d="M48.0938 60.933C48.0938 59.8943 48.9334 59.0547 49.972 59.0547H81.4967C82.5328 59.0547 83.3724 59.8968 83.3724 60.933V106.887C83.3724 107.923 82.5328 108.762 81.4967 108.762H49.972C48.9334 108.762 48.0938 107.923 48.0938 106.887V60.933Z" fill="white"/>
<path d="M81.4939 110.676H49.9692C47.8766 110.676 46.1719 108.974 46.1719 106.881V60.9302C46.1719 58.835 47.8741 57.1328 49.9692 57.1328H81.4939C83.5866 57.1328 85.2887 58.835 85.2887 60.9302V106.884C85.2887 108.974 83.5866 110.676 81.4939 110.676ZM50.0101 106.84H81.4506V60.9684H50.0101V106.84ZM50.0101 60.9302H48.091H50.0101Z" fill="#545859"/>
<path d="M78.7589 63.9609H52.7031V103.501H78.7589V63.9609Z" fill="#FFD100"/>
<path d="M92.4309 107.815C92.4309 108.468 91.9001 108.996 91.2494 108.996H74.6998C74.0464 108.996 73.5156 108.468 73.5156 107.815V72.9419C73.5156 72.2886 74.0464 71.7578 74.6998 71.7578H91.2494C91.9001 71.7578 92.4309 72.2861 92.4309 72.9419V107.815Z" fill="white"/>
<path d="M91.2519 110.915H74.7022C72.9924 110.915 71.6016 109.525 71.6016 107.815V72.9444C71.6016 71.2346 72.9924 69.8438 74.7022 69.8438H91.2519C92.9617 69.8438 94.3525 71.2346 94.3525 72.9444V107.817C94.3525 109.525 92.9617 110.915 91.2519 110.915ZM75.4372 107.08H90.5143V73.6794H75.4372V107.08Z" fill="#545859"/>
<path d="M92.3156 100.031H74.8906V103.869H92.3156V100.031Z" fill="#545859"/>
</svg>
