<svg width="156" height="156" viewBox="0 0 156 156" fill="none" xmlns="http://www.w3.org/2000/svg">
<g clip-path="url(#clip0_4317_144339)">
<path d="M66.6973 98.0527C40.3299 98.0527 18.8799 76.6028 18.8799 50.2354C18.8799 23.868 40.3299 2.41797 66.6973 2.41797C93.0647 2.41797 114.472 23.868 114.472 50.2354C114.472 76.6028 93.0223 98.0527 66.6973 98.0527Z" fill="white"/>
<path d="M97.9822 57.8623C98.5756 55.4036 98.9148 52.8177 98.9148 50.1471C98.9148 32.3427 84.5017 17.9297 66.6974 17.9297C48.893 17.9297 34.48 32.3427 34.48 50.1471C34.48 67.9514 48.893 82.3645 66.6974 82.3645C71.53 82.3645 76.1082 81.3047 80.2626 79.3971C82.2126 69.6471 88.9952 61.5927 97.9822 57.8623Z" fill="#FFE67D"/>
<path d="M42.1953 91.5228C42.1953 91.5228 65.6801 106.868 91.3692 91.1836V73.9728C91.3692 73.9728 89.504 60.7891 76.5323 60.7891H55.2518C55.2518 60.7891 42.8736 62.6119 42.7464 74.0575L42.1953 91.5228Z" fill="white"/>
<path d="M80.644 45.5717C80.644 53.287 74.4124 59.5185 66.6972 59.5185C58.982 59.5185 52.7505 53.287 52.7505 45.5717C52.7505 37.8565 58.982 31.625 66.6972 31.625C74.3701 31.6674 80.644 37.8989 80.644 45.5717Z" fill="white"/>
<path d="M66.6975 29.207C57.6682 29.207 50.3345 36.5407 50.3345 45.5701C50.3345 54.5994 57.6682 61.9331 66.6975 61.9331C75.7269 61.9331 83.0606 54.5994 83.0606 45.5701C83.0606 36.5407 75.7269 29.207 66.6975 29.207ZM66.6975 57.1005C60.3388 57.1005 55.2095 51.9288 55.2095 45.6125C55.2095 39.2538 60.3812 34.1244 66.6975 34.1244C73.0562 34.1244 78.1856 39.2962 78.1856 45.6125C78.1856 51.9288 73.0138 57.1005 66.6975 57.1005Z" fill="#545859"/>
<path d="M85.6888 67.3615C86.6638 66.0474 87.7659 64.8604 88.9529 63.7159C85.9855 60.5789 81.7888 58.6289 77.1257 58.6289H56.2268C47.1975 58.6289 39.8638 65.9626 39.8638 74.9919V91.4822H44.7388V75.0343C44.7388 68.6756 49.9105 63.5463 56.2268 63.5463H77.1257C80.5594 63.5039 83.6116 64.9876 85.6888 67.3615Z" fill="#545859"/>
<path d="M80.7715 93.3456C76.3204 94.7869 71.6149 95.5924 66.6976 95.5924C41.6867 95.5924 21.3389 75.2446 21.3389 50.2337C21.3389 25.2228 41.6867 4.875 66.6976 4.875C91.7084 4.875 112.056 25.2228 112.056 50.2337C112.056 52.0989 111.929 53.9217 111.717 55.7022C113.37 55.8293 114.981 56.0837 116.55 56.4652C116.804 54.4304 116.931 52.3109 116.931 50.1913C116.931 22.5522 94.3791 0 66.6976 0C38.9736 0 16.4639 22.5522 16.4639 50.2337C16.4639 77.9152 39.016 100.467 66.6976 100.467C72.2084 100.467 77.5074 99.5772 82.4671 97.9239C81.7889 96.4826 81.2378 94.9565 80.7715 93.3456Z" fill="#545859"/>
<path d="M109.216 60.3242C95.3116 60.3242 83.9932 71.6427 83.9932 85.547C83.9932 99.4514 95.3116 110.77 109.216 110.77C123.12 110.77 134.439 99.4514 134.439 85.547C134.439 71.6427 123.12 60.3242 109.216 60.3242Z" fill="white"/>
<path d="M109.216 58.457C94.4215 58.457 82.4248 70.4962 82.4248 85.2483C82.4248 100.043 94.4639 112.082 109.216 112.082C109.598 112.082 109.979 112.082 110.318 112.04L110.869 111.997L110.742 108.818L110.191 108.86C109.894 108.86 109.555 108.86 109.216 108.86C96.1596 108.86 85.5618 98.2625 85.5618 85.2059C85.5618 72.1494 96.1596 61.5516 109.216 61.5516C122.273 61.5516 132.87 72.1494 132.87 85.2059C132.87 85.5451 132.87 85.8418 132.87 86.1809L132.828 86.732L135.965 86.8592L136.007 86.3081C136.007 85.9266 136.05 85.5875 136.05 85.2059C136.007 70.4962 123.968 58.457 109.216 58.457Z" fill="#545859"/>
<path d="M123.841 103.859C123.375 104.241 122.866 104.622 122.357 104.961L121.891 105.258L123.672 107.886L124.138 107.59C124.731 107.208 125.282 106.784 125.833 106.36L126.257 106.021L124.307 103.562L123.841 103.859Z" fill="#545859"/>
<path d="M120.789 105.934C120.238 106.231 119.687 106.528 119.136 106.782L118.627 106.994L119.941 109.876L120.45 109.664C121.086 109.368 121.722 109.071 122.315 108.689L122.781 108.435L121.213 105.68L120.789 105.934Z" fill="#545859"/>
<path d="M117.44 107.463C116.847 107.675 116.253 107.887 115.702 108.057L115.193 108.184L116.041 111.236L116.55 111.109C117.228 110.897 117.906 110.685 118.542 110.473L119.051 110.303L117.949 107.336L117.44 107.463Z" fill="#545859"/>
<path d="M113.879 108.479C113.286 108.606 112.65 108.691 112.056 108.775L111.505 108.86L111.887 111.997L112.438 111.912C113.116 111.828 113.837 111.7 114.515 111.573L115.066 111.446L114.43 108.352L113.879 108.479Z" fill="#545859"/>
<path d="M128.843 98.4311C128.504 98.9398 128.123 99.4485 127.741 99.9148L127.402 100.339L129.861 102.289L130.2 101.865C130.624 101.314 131.048 100.763 131.429 100.169L131.726 99.7029L129.098 97.9648L128.843 98.4311Z" fill="#545859"/>
<path d="M132.701 88.1292C132.616 88.7227 132.531 89.3586 132.404 89.952L132.277 90.5031L135.371 91.139L135.499 90.5879C135.626 89.9096 135.753 89.189 135.838 88.5107L135.923 87.9596L132.786 87.5781L132.701 88.1292Z" fill="#545859"/>
<path d="M126.554 101.358C126.13 101.824 125.706 102.248 125.24 102.672L124.858 103.054L127.02 105.385L127.402 105.004C127.911 104.537 128.419 104.029 128.886 103.52L129.267 103.139L126.936 100.977L126.554 101.358Z" fill="#545859"/>
<path d="M131.98 91.7358C131.811 92.3293 131.599 92.9228 131.387 93.5163L131.217 94.025L134.185 95.1271L134.354 94.6184C134.609 93.9826 134.821 93.3043 134.99 92.6261L135.117 92.1174L132.065 91.2695L131.98 91.7358Z" fill="#545859"/>
<path d="M130.666 95.2085C130.412 95.7596 130.115 96.3107 129.818 96.8617L129.564 97.3281L132.319 98.8965L132.574 98.4302C132.913 97.8367 133.252 97.2009 133.549 96.565L133.761 96.0563L130.878 94.7422L130.666 95.2085Z" fill="#545859"/>
<path d="M109.343 65.875C98.7031 65.875 90.0977 74.5228 90.0977 85.1207C90.0977 95.7609 98.7455 104.366 109.343 104.366C119.984 104.366 128.589 95.7185 128.589 85.1207C128.589 74.5228 119.941 65.875 109.343 65.875Z" fill="#FFD100"/>
<path d="M10.3594 122.977V144.003V155.999H97.7279H145.206V122.977H10.3594Z" fill="#FFD100"/>
<path d="M39.8212 135.272H37.5744V132.686C37.5744 130.736 35.9636 129.125 34.0136 129.125H32.5723C30.6223 129.125 29.0114 130.736 29.0114 132.686V135.272H26.7646V132.686C26.7646 129.464 29.3929 126.836 32.5723 126.836H34.0136C37.2353 126.836 39.8212 129.464 39.8212 132.686V135.272Z" fill="#545859"/>
<path d="M41.6017 134.68H24.9419V150.322H41.6017V134.68Z" fill="white"/>
<path d="M40.4571 135.782V149.135H26.0441V135.782H40.4571ZM42.7463 133.535H40.4571H26.0441H23.7974V135.782V149.135V151.382H26.0441H40.4571H42.7039V149.135V135.782V133.535H42.7463Z" fill="#545859"/>
<path d="M33.1658 140.784C33.1234 140.784 33.0811 140.699 33.0811 140.614C33.0811 140.487 33.1658 140.402 33.293 140.402C33.4202 140.402 33.505 140.487 33.505 140.614C33.505 140.699 33.4202 140.784 33.4202 140.784L33.3354 140.826L33.1658 140.784Z" fill="white"/>
<path d="M33.2931 139.301C32.5725 139.301 31.979 139.894 31.979 140.615C31.979 141.081 32.2334 141.505 32.6149 141.759L32.3181 145.024H33.2931H34.2681L33.9714 141.759C34.3529 141.548 34.6073 141.124 34.6073 140.615C34.6073 139.894 34.0138 139.301 33.2931 139.301Z" fill="#545859"/>
<path d="M59.8725 145.996C62.9629 145.996 65.4682 143.491 65.4682 140.4C65.4682 137.31 62.9629 134.805 59.8725 134.805C56.7821 134.805 54.2769 137.31 54.2769 140.4C54.2769 143.491 56.7821 145.996 59.8725 145.996Z" fill="#545859"/>
<path d="M76.2778 145.996C79.3682 145.996 81.8734 143.491 81.8734 140.4C81.8734 137.31 79.3682 134.805 76.2778 134.805C73.1874 134.805 70.6821 137.31 70.6821 140.4C70.6821 143.491 73.1874 145.996 76.2778 145.996Z" fill="#545859"/>
<path d="M92.6831 145.996C95.7735 145.996 98.2787 143.491 98.2787 140.4C98.2787 137.31 95.7735 134.805 92.6831 134.805C89.5927 134.805 87.0874 137.31 87.0874 140.4C87.0874 143.491 89.5927 145.996 92.6831 145.996Z" fill="#545859"/>
<path d="M109.089 145.996C112.179 145.996 114.684 143.491 114.684 140.4C114.684 137.31 112.179 134.805 109.089 134.805C105.998 134.805 103.493 137.31 103.493 140.4C103.493 143.491 105.998 145.996 109.089 145.996Z" fill="#545859"/>
<path d="M125.452 145.996C128.542 145.996 131.047 143.491 131.047 140.4C131.047 137.31 128.542 134.805 125.452 134.805C122.361 134.805 119.856 137.31 119.856 140.4C119.856 143.491 122.361 145.996 125.452 145.996Z" fill="#545859"/>
<path d="M123.205 78.7208L117.906 73.4219L104.299 87.0295L100.229 82.9175L94.9302 88.2164L104.256 97.6697L123.205 78.7208Z" fill="white"/>
<path d="M104.214 99.2787L93.3193 88.257L100.187 81.3896L104.256 85.4592L117.864 71.8516L124.731 78.719L104.214 99.2787ZM96.4987 88.257L104.256 96.0994L121.679 78.719L117.949 74.9885L104.299 88.5961L100.229 84.5266L96.4987 88.257Z" fill="#545859"/>
</g>
<defs>
<clipPath id="clip0_4317_144339">
<rect width="134.847" height="156" fill="white" transform="translate(10.3594)"/>
</clipPath>
</defs>
</svg>
