<svg width="156" height="156" viewBox="0 0 156 156" fill="none" xmlns="http://www.w3.org/2000/svg">
<path d="M86.5701 149.222C86.5701 151.485 84.7345 153.325 82.4708 153.325H25.056C22.7923 153.325 20.9568 151.49 20.9568 149.222V28.2496C20.9568 25.9859 22.7923 24.1504 25.056 24.1504H82.4708C84.7345 24.1504 86.5701 25.9859 86.5701 28.2496V149.222Z" fill="white"/>
<path d="M82.4702 156H25.0554C21.3207 156 18.2812 152.96 18.2812 149.221V28.2491C18.2812 24.5102 21.3207 21.4707 25.0554 21.4707H82.4702C86.2049 21.4707 89.2485 24.5102 89.2485 28.2491V149.221C89.2443 152.96 86.2049 156 82.4702 156ZM25.0554 26.8247C24.2712 26.8247 23.6353 27.4606 23.6353 28.2448V149.217C23.6353 150.001 24.2712 150.641 25.0554 150.641H82.4702C83.2544 150.641 83.8945 150.001 83.8945 149.217V28.2491C83.8945 27.4648 83.2544 26.829 82.4702 26.829H25.0554V26.8247Z" fill="#545859"/>
<path d="M85.5024 132.193H22.0256V137.547H85.5024V132.193Z" fill="#545859"/>
<path d="M85.5024 38.9004H22.0256V44.2544H85.5024V38.9004Z" fill="#545859"/>
<path d="M64.7242 30.6328H42.8037V35.9868H64.7242V30.6328Z" fill="#545859"/>
<path d="M56.4392 141.291H51.0852V146.645H56.4392V141.291Z" fill="#545859"/>
<path d="M102.49 0C82.9139 0 67.0383 15.8713 67.0383 35.4518C67.0383 36.1004 67.0595 36.7405 67.0934 37.3806L67.0383 53.2689V74.6256L79.2047 62.1668C85.4319 67.6014 93.5753 70.8995 102.49 70.8995C122.071 70.8995 137.938 55.0324 137.938 35.4518C137.938 15.8713 122.071 0 102.49 0Z" fill="#FFD100"/>
<path d="M122.159 34.316C122.159 45.1767 113.351 53.9814 102.49 53.9814C91.625 53.9814 82.8203 45.1767 82.8203 34.316C82.8203 23.4512 91.6292 14.6465 102.49 14.6465C113.355 14.6465 122.159 23.4512 122.159 34.316Z" fill="white"/>
<path d="M105.598 21.9707H99.3877V46.6552H105.598V21.9707Z" fill="#545859"/>
<path d="M114.83 31.207H90.1494V37.4174H114.83V31.207Z" fill="#545859"/>
<path d="M43.9537 52.7676L56.7177 60.0589L43.869 67.4731L31.1091 60.1818L43.9537 52.7676Z" fill="#FFD100"/>
<path d="M57.5833 60.0588C57.5833 59.7493 57.4137 59.461 57.1466 59.3084L44.3826 52.0129C44.2512 51.9366 44.1028 51.8984 43.9544 51.8984C43.8061 51.8984 43.6535 51.9366 43.522 52.0129L30.6775 59.4271C30.4105 59.5797 30.2451 59.868 30.2451 60.1775C30.2451 60.4869 30.4146 60.7752 30.6817 60.9278L43.4415 68.2233C43.7044 68.3717 44.0434 68.3717 44.302 68.2233L57.1466 60.8091C57.4179 60.6565 57.5833 60.3682 57.5833 60.0588ZM43.8697 66.4768L32.8479 60.1775L43.9544 53.7637L54.9762 60.063L43.8697 66.4768Z" fill="#545859"/>
<path d="M56.5746 59.9199L56.7229 74.7399L43.8783 82.1584L43.73 67.3342L56.5746 59.9199Z" fill="#FFE67D"/>
<path d="M44.4495 83.0512L57.2941 75.6327C57.5654 75.4759 57.7307 75.1876 57.7265 74.8739L57.5781 60.0497C57.5739 59.7444 57.4085 59.4562 57.1415 59.3078C57.0101 59.2315 56.8617 59.1934 56.7133 59.1934C56.565 59.1934 56.4123 59.2315 56.2809 59.3078L43.4364 66.7221C43.1651 66.8789 42.9997 67.1672 43.004 67.4809L43.1523 82.3051C43.1566 82.6103 43.3219 82.8986 43.589 83.0469C43.8518 83.2038 44.191 83.1996 44.4495 83.0512ZM55.8655 61.5503L55.9927 74.3864L44.8692 80.8087L44.742 67.9726L55.8655 61.5503Z" fill="#545859"/>
<path d="M43.8689 67.471L44.0173 82.2995L31.2533 75.0039L31.1091 60.1797L43.8689 67.471Z" fill="white"/>
<path d="M30.8259 75.7541L43.5899 83.0497C43.8527 83.2023 44.1961 83.198 44.4589 83.0454C44.7259 82.8886 44.887 82.6003 44.887 82.2909L44.7387 67.4624C44.7344 67.1572 44.5691 66.8732 44.302 66.7205L31.5423 59.425C31.4109 59.3487 31.2625 59.3105 31.1141 59.3105C30.9615 59.3105 30.8089 59.3487 30.6733 59.4292C30.4062 59.5861 30.2451 59.8744 30.2451 60.1838L30.3935 75.008C30.3935 75.3175 30.5588 75.6015 30.8259 75.7541ZM43.0091 67.9796L43.1363 80.7987L32.1145 74.4993L31.9874 61.6802L43.0091 67.9796Z" fill="#545859"/>
<path d="M137.94 88.6348H30.3379V119.992H137.94V88.6348Z" fill="#FFE67D"/>
<path d="M41.932 103.088C42.4238 103.164 42.9155 103.257 43.3987 103.368C43.882 103.478 44.3229 103.647 44.7214 103.872C45.1156 104.097 45.442 104.389 45.6964 104.758C45.9507 105.123 46.0864 105.597 46.0991 106.182C46.1288 106.857 46.0186 107.42 45.7727 107.874C45.5268 108.332 45.1877 108.692 44.751 108.959C44.3187 109.226 43.81 109.417 43.2292 109.531C42.6485 109.642 42.0422 109.701 41.4149 109.701C41.1478 109.701 40.8044 109.671 40.3932 109.612C39.982 109.553 39.5666 109.459 39.1512 109.332C38.7315 109.205 38.3457 109.04 37.9854 108.84C37.6251 108.637 37.3792 108.387 37.2478 108.09C37.2012 107.984 37.1927 107.84 37.2139 107.653C37.2351 107.467 37.3071 107.314 37.4258 107.196C37.5911 106.988 37.8201 106.869 38.121 106.848C38.4178 106.827 38.6679 106.882 38.8587 107.018C39.2487 107.302 39.6853 107.522 40.1685 107.679C40.6518 107.836 41.0672 107.912 41.4106 107.912C41.7074 107.912 42.0168 107.899 42.3305 107.865C42.6442 107.836 42.924 107.759 43.1699 107.641C43.4157 107.522 43.615 107.352 43.7634 107.136C43.9117 106.92 43.9795 106.619 43.9668 106.229C43.9371 105.767 43.7252 105.458 43.3267 105.301C42.9325 105.144 42.3517 105.004 41.5887 104.885C41.1563 104.826 40.6984 104.745 40.2236 104.648C39.7446 104.55 39.2953 104.394 38.8799 104.177C38.4602 103.961 38.1126 103.669 37.837 103.304C37.5615 102.94 37.4089 102.448 37.3792 101.837C37.3622 101.151 37.481 100.583 37.7268 100.133C37.9727 99.6839 38.3118 99.3363 38.7484 99.0819C39.1808 98.8276 39.6853 98.6495 40.2618 98.5436C40.8383 98.4376 41.4403 98.3867 42.0677 98.3867C43.3055 98.3867 44.4204 98.7216 45.4081 99.3956C45.6752 99.561 45.8278 99.756 45.8575 99.9891C45.8871 100.222 45.8363 100.443 45.7006 100.65C45.6413 100.769 45.548 100.858 45.4208 100.909C45.2936 100.96 45.158 100.994 45.0181 101.011C44.874 101.028 44.7341 101.023 44.5942 100.998C44.4501 100.977 44.3356 100.934 44.2466 100.875C43.8566 100.638 43.4878 100.455 43.1359 100.337C42.7841 100.218 42.428 100.159 42.0719 100.159C41.771 100.159 41.4742 100.171 41.1774 100.193C40.8765 100.214 40.6052 100.277 40.3593 100.383C40.1134 100.489 39.9099 100.65 39.7531 100.867C39.5963 101.083 39.5242 101.38 39.5411 101.753C39.5708 102.215 39.7997 102.524 40.2236 102.681C40.6433 102.829 41.2156 102.965 41.932 103.088Z" fill="#545859"/>
<path d="M50.0656 100.17V103.108H53.9444C54.1521 103.108 54.3598 103.167 54.5591 103.286C54.7626 103.405 54.86 103.621 54.86 103.935C54.86 104.189 54.7795 104.392 54.6142 104.549C54.4489 104.706 54.2327 104.787 53.9656 104.787H50.0656V107.902H54.8855C55.1229 107.902 55.3391 107.966 55.5341 108.093C55.7291 108.22 55.8266 108.441 55.8266 108.755C55.8266 108.992 55.746 109.195 55.5892 109.361C55.4323 109.526 55.2034 109.607 54.9067 109.607H48.832C48.4886 109.607 48.2512 109.518 48.1156 109.34C47.9799 109.162 47.9121 108.916 47.9121 108.602V99.4581C47.9121 99.1614 47.9757 98.9155 48.1029 98.729C48.2301 98.5425 48.4717 98.4492 48.832 98.4492H54.8389C55.0932 98.4492 55.3221 98.517 55.5214 98.6527C55.7206 98.7883 55.8223 99.013 55.8223 99.3267C55.8223 99.5344 55.7418 99.7294 55.5849 99.9075C55.4281 100.086 55.1992 100.175 54.9024 100.175H50.0656V100.17Z" fill="#545859"/>
<path d="M66.1798 101.626C66.1798 102.567 66.006 103.275 65.6541 103.754C65.3023 104.233 64.7978 104.568 64.1408 104.763C64.4672 105.314 64.7894 105.878 65.1031 106.442C65.4167 107.01 65.7304 107.557 66.0441 108.078C66.2095 108.379 66.2264 108.663 66.0992 108.943C65.9721 109.218 65.7728 109.418 65.5058 109.536C65.298 109.625 65.0649 109.647 64.8105 109.591C64.5562 109.541 64.3612 109.418 64.2298 109.223L61.7414 104.967H59.9059V108.621C59.9059 108.905 59.7957 109.142 59.5795 109.337C59.3633 109.532 59.1047 109.63 58.808 109.63C58.507 109.63 58.2568 109.532 58.0449 109.337C57.8372 109.142 57.7312 108.905 57.7312 108.621V99.3878C57.7312 99.1632 57.8245 98.9385 58.011 98.7138C58.1975 98.4891 58.4391 98.3789 58.7401 98.3789H62.3942C64.9165 98.3747 66.1798 99.4599 66.1798 101.626ZM59.9059 102.991H62.3942C62.7546 102.991 63.0386 102.953 63.259 102.881C63.4752 102.805 63.6405 102.707 63.7507 102.58C63.861 102.453 63.9373 102.313 63.9754 102.156C64.0136 101.999 64.0305 101.838 64.0305 101.673C64.0305 101.495 64.0093 101.325 63.9627 101.168C63.9161 101.011 63.827 100.872 63.6956 100.753C63.56 100.634 63.365 100.537 63.1149 100.46C62.8605 100.384 62.5172 100.35 62.0848 100.35H59.9101V102.991H59.9059Z" fill="#545859"/>
<path d="M71.9611 106.293L74.92 98.8063C74.9794 98.658 75.115 98.5393 75.3227 98.446C75.5305 98.357 75.7933 98.34 76.107 98.3994C76.2129 98.4163 76.3274 98.446 76.4546 98.5011C76.5818 98.552 76.692 98.6156 76.7895 98.6919C76.887 98.7682 76.959 98.8572 77.0014 98.9589C77.048 99.0649 77.0396 99.1836 76.9803 99.3193L72.9022 109.179C72.8429 109.298 72.7241 109.408 72.5418 109.506C72.3638 109.603 72.1688 109.65 71.9611 109.65C71.7534 109.65 71.5584 109.603 71.3803 109.506C71.2023 109.408 71.0794 109.302 71.02 109.179L66.942 99.3193C66.8826 99.1836 66.8742 99.0649 66.9208 98.9589C66.9674 98.853 67.0353 98.7639 67.1328 98.6919C67.2303 98.6156 67.3362 98.552 67.4591 98.5011C67.5778 98.4502 67.6966 98.4163 67.8195 98.3994C68.1332 98.34 68.396 98.3527 68.6037 98.446C68.8114 98.535 68.9471 98.6537 69.0064 98.8063L71.9611 106.293Z" fill="#545859"/>
<path d="M80.5772 109.435C80.3737 109.605 80.1193 109.694 79.8056 109.694C79.5385 109.694 79.2884 109.609 79.068 109.435C78.8433 109.266 78.7332 109.058 78.7332 108.821V99.342C78.7332 99.1046 78.8433 98.8969 79.068 98.7273C79.2927 98.5578 79.5385 98.4688 79.8056 98.4688C80.1193 98.4688 80.3779 98.5535 80.5772 98.7273C80.7806 98.9011 80.8781 99.1046 80.8781 99.342V108.821C80.8824 109.058 80.7806 109.266 80.5772 109.435Z" fill="#545859"/>
<path d="M88.363 100.081C87.3159 100.081 86.5274 100.411 85.9891 101.077C85.4507 101.743 85.1836 102.726 85.1836 104.023C85.1836 106.639 86.2434 107.944 88.3672 107.944C89.1133 107.944 89.8848 107.682 90.6733 107.16C90.9107 107.024 91.182 106.991 91.4787 107.05C91.7754 107.109 92.0086 107.258 92.1739 107.499C92.3393 107.724 92.3774 107.932 92.2969 108.127C92.2163 108.322 92.068 108.491 91.8602 108.644C91.3091 108.987 90.7454 109.25 90.1816 109.428C89.6135 109.606 89.0073 109.695 88.3672 109.695C87.4727 109.695 86.6885 109.559 86.0272 109.292C85.3617 109.025 84.8064 108.644 84.357 108.148C83.9077 107.656 83.5728 107.058 83.3481 106.355C83.1234 105.651 83.0132 104.875 83.0132 104.023C83.0132 103.218 83.1192 102.467 83.3269 101.772C83.5346 101.077 83.8568 100.479 84.2892 99.9791C84.7216 99.4788 85.2769 99.0846 85.9594 98.7921C86.6376 98.4996 87.4431 98.3555 88.3672 98.3555C89.6347 98.3555 90.8005 98.7073 91.8645 99.4068C92.3138 99.7374 92.3859 100.153 92.0892 100.662C91.9705 100.886 91.7458 100.996 91.4151 100.996C91.0845 100.996 90.8174 100.937 90.6097 100.818C89.8594 100.327 89.109 100.081 88.363 100.081Z" fill="#545859"/>
<path d="M96.164 100.17V103.108H100.043C100.251 103.108 100.458 103.167 100.657 103.286C100.861 103.405 100.958 103.621 100.958 103.935C100.958 104.189 100.878 104.392 100.713 104.549C100.547 104.706 100.331 104.787 100.064 104.787H96.164V107.902H100.984C101.221 107.902 101.437 107.966 101.632 108.093C101.827 108.22 101.925 108.441 101.925 108.755C101.925 108.992 101.849 109.195 101.688 109.361C101.531 109.526 101.302 109.607 101.005 109.607H94.9304C94.587 109.607 94.3497 109.518 94.214 109.34C94.0784 109.162 94.0105 108.916 94.0105 108.602V99.4581C94.0105 99.1614 94.0741 98.9155 94.2013 98.729C94.3285 98.5425 94.5701 98.4492 94.9304 98.4492H100.937C101.192 98.4492 101.421 98.517 101.62 98.6527C101.819 98.7883 101.921 99.013 101.921 99.3267C101.921 99.5344 101.844 99.7294 101.683 99.9075C101.527 100.086 101.298 100.175 101.001 100.175H96.164V100.17Z" fill="#545859"/>
<path d="M116.151 98.3555C116.418 98.3555 116.664 98.4403 116.88 98.6141C117.096 98.7879 117.207 98.9913 117.207 99.2287V108.796C117.207 109.097 117.105 109.314 116.906 109.458C116.702 109.602 116.452 109.67 116.155 109.67C115.948 109.67 115.715 109.602 115.46 109.466C115.206 109.331 115.002 109.161 114.854 108.949L110.034 102.116V108.818C110.034 109.042 109.932 109.242 109.733 109.424C109.53 109.602 109.267 109.691 108.936 109.691C108.652 109.691 108.402 109.602 108.186 109.424C107.97 109.246 107.859 109.042 107.859 108.818V99.2499C107.859 98.9532 107.991 98.7328 108.254 98.6013C108.516 98.4657 108.788 98.4063 109.072 98.4233C109.534 98.4402 109.924 98.6607 110.238 99.0973L115.079 105.931V99.2287C115.079 98.9913 115.176 98.7836 115.371 98.6141C115.562 98.4403 115.825 98.3555 116.151 98.3555Z" fill="#545859"/>
<path d="M123.547 101.205C124.951 101.205 126.04 101.574 126.807 102.316C127.575 103.053 127.96 104.096 127.96 105.44C127.96 106.784 127.575 107.831 126.807 108.577C126.036 109.323 124.951 109.696 123.547 109.696C122.144 109.696 121.051 109.323 120.275 108.577C119.499 107.831 119.109 106.784 119.109 105.44C119.109 104.096 119.499 103.053 120.275 102.316C121.051 101.574 122.14 101.205 123.547 101.205ZM123.547 108.039C124.264 108.039 124.819 107.814 125.218 107.365C125.612 106.915 125.811 106.275 125.811 105.436C125.811 104.613 125.62 103.973 125.239 103.507C124.857 103.045 124.294 102.812 123.547 102.812C122.801 102.812 122.233 103.041 121.843 103.494C121.453 103.952 121.263 104.596 121.263 105.431C121.263 106.267 121.453 106.911 121.835 107.36C122.212 107.814 122.784 108.039 123.547 108.039Z" fill="#545859"/>
<path d="M129.418 108.126C129.418 107.694 129.558 107.337 129.834 107.062C130.109 106.786 130.474 106.646 130.919 106.646C131.368 106.646 131.746 106.786 132.051 107.062C132.356 107.337 132.509 107.694 132.509 108.126C132.509 108.546 132.356 108.897 132.051 109.177C131.746 109.461 131.368 109.601 130.919 109.601C130.47 109.601 130.109 109.461 129.834 109.177C129.554 108.897 129.418 108.546 129.418 108.126Z" fill="#545859"/>
</svg>
