<svg width="156" height="116" viewBox="0 0 156 116" fill="none" xmlns="http://www.w3.org/2000/svg">
<path d="M93.2579 68.2216C93.2579 70.779 91.1679 72.869 88.6074 72.869H7.42857C4.87449 72.869 2.78125 70.779 2.78125 68.2216V20.9728C2.78125 18.4122 4.87449 16.3223 7.42857 16.3223H88.6074C91.1679 16.3223 93.2579 18.4122 93.2579 20.9728V68.2216Z" fill="white"/>
<path d="M24.5678 45.0703H9.83398V50.6361H24.5678V45.0703Z" fill="#545859"/>
<path d="M35.7123 58.0293H9.83398V63.595H35.7123V58.0293Z" fill="#545859"/>
<path d="M44.8972 45.0703H30.1602V50.6361H44.8972V45.0703Z" fill="#545859"/>
<path d="M65.2162 45.0703H50.4824V50.6361H65.2162V45.0703Z" fill="#545859"/>
<path d="M90.2982 69.0109C89.9996 69.6438 89.357 70.0851 88.6074 70.0851H7.42857C6.41603 70.0851 5.5625 69.2316 5.5625 68.2191V20.9702C5.5625 19.9415 6.3998 19.1009 7.42857 19.1009H81.1301C82.1102 17.1537 83.2364 15.2941 84.4923 13.5352H7.42857C3.33296 13.5352 0 16.8714 0 20.967V68.2158C0 72.3115 3.33296 75.6444 7.42857 75.6444H88.6074C91.1063 75.6444 93.3196 74.4047 94.6664 72.5094C93.1314 71.4449 91.671 70.2734 90.2982 69.0109Z" fill="#545859"/>
<path d="M118.733 107.919C118.733 110.476 116.643 112.566 114.086 112.566H32.9103C30.353 112.566 28.2598 110.476 28.2598 107.919V60.6733C28.2598 58.1095 30.353 56.0195 32.9103 56.0195H114.086C116.646 56.0195 118.733 58.1095 118.733 60.6733V107.919Z" fill="white"/>
<path d="M77.232 83.3048C77.232 89.9058 71.8804 95.2574 65.2794 95.2574C58.6816 95.2574 53.3301 89.9058 53.3301 83.3048C53.3301 76.7038 58.6816 71.3555 65.2794 71.3555C71.8804 71.3522 77.232 76.7038 77.232 83.3048Z" fill="#FFD100"/>
<path d="M93.6623 83.3048C93.6623 89.9058 88.314 95.2574 81.713 95.2574C75.112 95.2574 69.7637 89.9058 69.7637 83.3048C69.7637 76.7038 75.1152 71.3555 81.713 71.3555C88.314 71.3522 93.6623 76.7038 93.6623 83.3048Z" fill="#FFE67D"/>
<path d="M65.2793 98.0392V92.4735C70.3355 92.4735 74.4506 88.3584 74.4506 83.3022C74.4506 78.246 70.3355 74.1341 65.2793 74.1341V68.5684C73.4024 68.5684 80.0131 75.1791 80.0131 83.3022C80.0131 91.4285 73.4056 98.0392 65.2793 98.0392Z" fill="#545859"/>
<path d="M49.5958 80.8965H43.6211V86.4622H49.5958V80.8965Z" fill="#545859"/>
<path d="M103.378 80.8965H97.4004V86.4622H103.378V80.8965Z" fill="#545859"/>
<path d="M118.735 80.0752C117.801 80.0752 116.872 80.0428 115.954 79.9811V107.917C115.954 108.946 115.117 109.783 114.088 109.783H32.9123C31.8835 109.783 31.043 108.946 31.043 107.917V60.6714C31.043 59.6393 31.8803 58.8021 32.9123 58.8021H82.157C81.1445 57.0236 80.2552 55.1641 79.5088 53.2363H32.9123C28.8134 53.2363 25.4805 56.5725 25.4805 60.6714V107.917C25.4805 112.013 28.8134 115.346 32.9123 115.346H114.088C118.183 115.346 121.52 112.013 121.52 107.917V79.9811C120.598 80.0428 119.67 80.0752 118.735 80.0752Z" fill="#545859"/>
<path d="M77.2519 45.0703H70.8066V50.6361H78.589C78.021 48.8317 77.5732 46.9721 77.2519 45.0703Z" fill="#545859"/>
<path d="M77.8495 28.0195H6.14062V37.9925H76.6585C76.6585 34.5589 77.0739 31.2194 77.8495 28.0195Z" fill="#FFE67D"/>
<path d="M153.862 37.9946C153.862 57.2881 138.222 72.9306 118.929 72.9306C99.6354 72.9306 83.9961 57.2881 83.9961 37.9946C83.9961 18.7011 99.6354 3.05859 118.929 3.05859C138.222 3.05859 153.862 18.6979 153.862 37.9946Z" fill="white"/>
<path d="M118.732 0.71875C118.226 0.71875 117.71 0.728518 117.2 0.751235L116.59 0.777183L116.756 4.88904L117.366 4.86305C117.82 4.84358 118.278 4.83385 118.729 4.83385C137.013 4.83385 151.887 19.7072 151.887 37.9915C151.887 56.2757 137.013 71.1523 118.729 71.1523C109.886 71.1523 101.564 67.6992 95.2945 61.4293C89.0245 55.1593 85.5715 46.835 85.5715 37.9947C85.5715 37.5371 85.5812 37.0795 85.5974 36.6316L85.6234 36.0215L81.5115 35.856L81.4856 36.4661C81.4661 36.9789 81.4531 37.4917 81.4531 37.9947C81.4531 58.5474 98.1731 75.2674 118.726 75.2674C139.278 75.2674 155.998 58.5474 155.998 37.9947C156.005 17.4388 139.285 0.71875 118.732 0.71875Z" fill="#545859"/>
<path d="M98.1887 11.9644C98.867 11.4289 99.5712 10.9129 100.288 10.4358L100.795 10.095L98.5035 6.67773L97.9972 7.01847C97.1924 7.56044 96.3973 8.13813 95.6411 8.73851L95.1641 9.11819L97.7149 12.3473L98.1887 11.9644Z" fill="#545859"/>
<path d="M94.3782 15.4885C94.9656 14.8557 95.5822 14.2358 96.2151 13.6517L96.6629 13.2363L93.8687 10.2148L93.4208 10.6303C92.7101 11.2891 92.0156 11.9836 91.3568 12.6943L90.9414 13.1421L93.9628 15.9364L94.3782 15.4885Z" fill="#545859"/>
<path d="M102.499 9.07018C103.252 8.64505 104.031 8.24915 104.809 7.88892L105.364 7.63252L103.635 3.90039L103.08 4.15678C102.2 4.5657 101.327 5.01354 100.483 5.48736L99.9512 5.78591L101.97 9.37202L102.499 9.07018Z" fill="#545859"/>
<path d="M112.188 5.48023C113.032 5.31147 113.895 5.17517 114.752 5.07131L115.359 4.99993L114.869 0.914062L114.262 0.98545C113.298 1.10228 112.328 1.25479 111.38 1.44626L110.783 1.56638L111.591 5.60031L112.188 5.48023Z" fill="#545859"/>
<path d="M107.202 6.89644C108.013 6.59462 108.844 6.32527 109.665 6.0916L110.252 5.92609L109.133 1.9668L108.545 2.13231C107.617 2.39518 106.682 2.70022 105.77 3.03773L105.199 3.24869L106.63 7.1074L107.202 6.89644Z" fill="#545859"/>
<path d="M85.8077 34.04C85.9083 33.18 86.0478 32.32 86.2133 31.4762L86.3334 30.8791L82.2995 30.0742L82.1794 30.6713C81.9911 31.6157 81.8354 32.5861 81.7218 33.5532L81.6504 34.1601L85.7363 34.6436L85.8077 34.04Z" fill="#545859"/>
<path d="M91.1624 19.5612C91.6395 18.8473 92.1555 18.1398 92.691 17.4615L93.0674 16.9812L89.8383 14.4336L89.4618 14.9107C88.8582 15.6733 88.2805 16.4684 87.7451 17.27L87.4043 17.7763L90.8216 20.0643L91.1624 19.5612Z" fill="#545859"/>
<path d="M86.8201 28.9532C87.0538 28.1256 87.3232 27.2948 87.625 26.4867L87.8359 25.9155L83.9772 24.4844L83.7663 25.0555C83.4288 25.9642 83.1269 26.8956 82.8608 27.8335L82.6953 28.421L86.6546 29.5406L86.8201 28.9532Z" fill="#545859"/>
<path d="M88.6226 24.0887C88.9861 23.3034 89.382 22.5277 89.8039 21.7781L90.1025 21.2458L86.5164 19.2305L86.2178 19.7627C85.744 20.6065 85.2962 21.4795 84.8872 22.3622L84.6309 22.9172L88.3662 24.647L88.6226 24.0887Z" fill="#545859"/>
<path d="M143.819 37.9947C143.819 51.849 132.59 63.0811 118.736 63.0811C104.881 63.0811 93.6523 51.849 93.6523 37.9947C93.6523 24.1403 104.881 12.9082 118.736 12.9082C132.587 12.9082 143.819 24.1403 143.819 37.9947Z" fill="#FFD100"/>
<path d="M134.513 29.0995L127.63 22.2129L118.731 31.1083L109.836 22.2129L102.949 29.0995L111.848 37.995L102.949 46.8904L109.836 53.7738L118.731 44.8815L127.63 53.7738L134.513 46.8904L125.618 37.995L134.513 29.0995Z" fill="#FF0025"/>
</svg>
