<svg width="96" height="96" viewBox="0 0 96 96" fill="none" xmlns="http://www.w3.org/2000/svg">
<g clip-path="url(#clip0_2370_365360)">
<path d="M79.4199 16.4949V9.01842C79.4199 5.22017 82.4903 2.14453 86.2808 2.14453C90.0712 2.14453 93.1416 5.22017 93.1416 9.01842V16.4949H79.4199Z" fill="#FFD100"/>
<path d="M95.2858 18.6391H77.2754V9.01823C77.2728 4.04607 81.3136 0 86.2806 0C91.2475 0 95.2858 4.04607 95.2858 9.01823V18.6391ZM81.5615 14.3504H90.9945V9.01823C90.9945 6.40954 88.8788 4.28868 86.278 4.28868C83.6771 4.28868 81.5615 6.40954 81.5615 9.01823V14.3504Z" fill="#FFD100"/>
<path d="M79.4213 9.01963V85.8846H79.4004L79.4213 87.0324C79.4213 90.5593 76.7526 93.4602 73.3378 93.8567C71.47 93.8567 12.5268 93.8437 9.47461 93.8567C12.8894 93.4602 15.5398 90.5593 15.5398 87.0324V85.4646H15.5659V9.01963C15.5659 5.49269 18.2137 2.58922 21.6285 2.19531C23.4937 2.19531 82.4369 2.20836 85.4865 2.19531C82.0717 2.58922 79.4213 5.49269 79.4213 9.01963Z" fill="white"/>
<path d="M73.4602 96.0008H69.6307C31.463 95.993 11.2274 95.9956 9.48221 96.0008L9.22656 91.7278C11.6031 91.4513 13.3952 89.4322 13.3952 87.0322L13.4187 9.01944C13.4187 4.43859 16.8413 0.590779 21.3778 0.0638247L21.623 0.0507812H25.3248C63.4898 0.0586073 83.728 0.0559986 85.4706 0.0507812L85.7263 4.32642C83.3498 4.60033 81.5576 6.61945 81.5576 9.01944V88.0261H81.5002C81.0333 92.1713 77.7828 95.4974 73.5802 95.9852L73.4602 96.0008ZM26.8039 91.7069C36.8186 91.7069 51.1168 91.7096 69.6307 91.7122H73.1994C75.5289 91.3861 77.2741 89.393 77.2741 87.0322L77.2141 83.74H77.2741V9.01944C77.2741 7.31597 77.7489 5.71163 78.5759 4.34468C69.5003 4.34729 51.6908 4.34468 25.3248 4.33946H21.7587C19.4422 4.66294 17.7074 6.65597 17.7074 9.01944V87.6087H17.6657C17.5717 89.0983 17.1152 90.4939 16.3796 91.7069C19.0822 91.7069 22.5569 91.7069 26.8039 91.7069Z" fill="#545859"/>
<path d="M68.8967 87.0318V81.4336H0.75V87.0318C0.75 91.6101 4.1726 95.4605 8.7091 95.9875L8.95693 96.0005H12.6587C50.8289 95.9927 71.0645 95.9953 72.8071 96.0005L73.0628 91.7275C70.6889 91.4509 68.8967 89.4318 68.8967 87.0318Z" fill="#FFE67D"/>
<path d="M95.2858 18.6338H90.9971V9.01823C90.9971 6.40954 88.8814 4.28868 86.2806 4.28868C83.6797 4.28868 81.5641 6.40954 81.5641 9.01823H77.2754C77.2728 4.04607 81.3136 0 86.2806 0C91.2475 0 95.2858 4.04607 95.2858 9.01823V18.6338Z" fill="#545859"/>
<path d="M73.2109 96.0017C68.6274 96.0017 64.6074 91.8096 64.6074 87.0331V81.4688H68.8961V87.0331C68.8961 89.3939 71.0326 91.7131 73.2109 91.7131V96.0017Z" fill="#545859"/>
<path d="M60.6513 26.9908C60.1218 28.0447 58.9374 28.6003 57.787 28.329C56.6366 28.0577 55.8253 27.0299 55.8253 25.8482V21.4604H55.4887C54.9801 21.463 54.5418 21.0691 54.5027 20.5447C54.4609 19.9708 54.9148 19.483 55.4887 19.483H55.8253V18.3821C55.8253 17.7743 56.3183 17.2812 56.9261 17.2812C57.534 17.2812 58.027 17.7743 58.027 18.3821V19.483H59.3183C59.8635 19.483 60.3044 19.9238 60.3044 20.4691C60.3044 21.0169 59.8635 21.4578 59.3183 21.4578H58.027V25.8482C58.0348 25.9212 58.0557 25.9943 58.0948 26.0543C58.1627 26.1612 58.2853 26.2343 58.4105 26.2421C58.5357 26.2499 58.6635 26.1925 58.76 26.109C58.8513 26.0334 58.9192 25.9343 58.9948 25.8456C59.0913 25.7334 59.2087 25.6369 59.3418 25.5717C59.5218 25.483 59.7357 25.4517 59.9313 25.4882C60.1922 25.5377 60.427 25.7125 60.5913 25.916C60.62 25.9577 60.6435 25.9969 60.667 26.0386C60.8053 26.3464 60.8 26.696 60.6513 26.9908Z" fill="#545859"/>
<path d="M53.6396 22.5464V27.2107C53.6396 27.8186 53.1466 28.3116 52.5387 28.3116C51.9309 28.3116 51.4379 27.8186 51.4379 27.2107V23.0734C51.4379 22.1681 50.7048 21.4377 49.8022 21.4377C48.897 21.4377 48.1666 22.1708 48.1666 23.0734V27.2107C48.1666 27.8186 47.6735 28.3116 47.0657 28.3116C46.4579 28.3116 45.9648 27.8186 45.9648 27.2107V20.5847C45.9648 19.969 46.4709 19.4734 47.0866 19.4838C47.7022 19.4942 48.19 20.0082 48.1666 20.6238V20.5847V20.6238C48.3231 20.4047 48.5083 20.2012 48.7222 20.0368C49.2544 19.6299 49.9666 19.4682 50.6579 19.4812C51.1874 19.4916 51.7066 19.6038 52.1526 19.8595C52.5387 20.0786 52.87 20.4073 53.1152 20.7829C53.3448 21.1325 53.4987 21.5264 53.5796 21.9334C53.6265 22.1734 53.6474 22.4186 53.6448 22.6638" fill="#545859"/>
<path d="M45.0592 14.011C45.0592 14.6215 44.5687 15.1171 43.9583 15.1171C43.3479 15.1171 42.8574 14.6215 42.8574 14.011C42.8574 13.4084 43.3479 12.9102 43.9583 12.9102C44.5687 12.9102 45.0592 13.4058 45.0592 14.011Z" fill="#FFD100"/>
<path d="M38.8482 17.3196C38.8482 17.9301 38.3552 18.4257 37.7474 18.4257C37.1369 18.4257 36.6465 17.9301 36.6465 17.3196C36.6465 16.717 37.1369 16.2188 37.7474 16.2188C38.3552 16.2188 38.8482 16.7144 38.8482 17.3196Z" fill="#FFD100"/>
<path d="M47.0657 18.4256C46.4579 18.4256 45.9648 17.9326 45.9648 17.3248V15.1126C45.9648 14.5048 46.4579 14.0117 47.0657 14.0117C47.6735 14.0117 48.1666 14.5048 48.1666 15.1126V17.3248C48.1666 17.9326 47.6735 18.4256 47.0657 18.4256Z" fill="#FFD100"/>
<path d="M40.8528 21.7379C40.245 21.7379 39.752 21.2448 39.752 20.637V11.804C39.752 11.1962 40.245 10.7031 40.8528 10.7031C41.4606 10.7031 41.9537 11.1962 41.9537 11.804V20.637C41.9537 21.2448 41.4606 21.7379 40.8528 21.7379Z" fill="#FFD100"/>
<path d="M34.6399 19.531C34.0321 19.531 33.5391 19.038 33.5391 18.4301V14.011C33.5391 13.4032 34.0321 12.9102 34.6399 12.9102C35.2478 12.9102 35.7408 13.4032 35.7408 14.011V18.4301C35.7408 19.038 35.2478 19.531 34.6399 19.531Z" fill="#FFD100"/>
<path d="M68.9155 32.918H25.2227V43.4153H68.9155V32.918Z" fill="#FFD100"/>
<path d="M55.0003 48.0391H25.1152V51.5947H55.0003V48.0391Z" fill="#545859"/>
<path d="M69.0215 48.0391H59.252V51.5947H69.0215V48.0391Z" fill="#545859"/>
<path d="M55.0003 55.9492H25.1152V59.5049H55.0003V55.9492Z" fill="#545859"/>
<path d="M69.0215 55.9492H59.252V59.5049H69.0215V55.9492Z" fill="#545859"/>
<path d="M55.0003 63.8555H25.1152V67.4111H55.0003V63.8555Z" fill="#545859"/>
<path d="M69.0215 63.8555H59.252V67.4111H69.0215V63.8555Z" fill="#545859"/>
<path d="M55.0003 73.5273H25.1152V79.0238H55.0003V73.5273Z" fill="#545859"/>
<path d="M69.0215 73.5273H59.252V79.0238H69.0215V73.5273Z" fill="#545859"/>
</g>
<defs>
<clipPath id="clip0_2370_365360">
<rect width="96" height="96" fill="white"/>
</clipPath>
</defs>
</svg>
