<svg width="156" height="156" viewBox="0 0 156 156" fill="none" xmlns="http://www.w3.org/2000/svg">
<g clip-path="url(#clip0_4317_142811)">
<path d="M58.0745 3.47266L109.3 32.7481L57.7396 62.511L6.52246 33.2398L58.0745 3.47266Z" fill="#FFE67D"/>
<path d="M112.777 32.7388C112.773 31.501 112.103 30.3437 111.026 29.729L59.7961 0.453587C59.2662 0.152609 58.6685 0 58.075 0C57.4731 0 56.8711 0.152609 56.337 0.462065L4.78494 30.2292C3.71244 30.8482 3.04266 32.0054 3.0469 33.2475C3.05113 34.4853 3.72092 35.6384 4.79766 36.2573L56.0191 65.5285C57.0704 66.1304 58.4311 66.1262 59.4824 65.52L111.043 35.7571C112.115 35.1382 112.781 33.9809 112.777 32.7388ZM57.7317 58.5042L13.5006 33.2221L58.0835 7.48207L102.327 32.7642L57.7317 58.5042Z" fill="#545859"/>
<path d="M108.732 32.1797L109.326 91.6716L57.7654 121.447L57.1719 61.9384L108.732 32.1797Z" fill="white"/>
<path d="M57.7396 62.5095L58.3374 122.014L7.1117 92.7387L6.52246 33.2383L57.7396 62.5095Z" fill="white"/>
<path d="M5.38696 95.7519L56.6126 125.032C57.6724 125.638 59.0417 125.629 60.0972 125.01C61.1655 124.383 61.8225 123.222 61.8098 121.979L61.2163 62.4705C61.2036 61.2412 60.5338 60.0966 59.4656 59.4862L8.24837 30.2192C7.71848 29.914 7.12076 29.7656 6.52728 29.7656C5.91685 29.7656 5.30641 29.9267 4.76381 30.2446C3.6913 30.8678 3.03848 32.0293 3.04696 33.2714L3.6362 92.7718C3.64891 94.0012 4.3187 95.1415 5.38696 95.7519ZM54.2853 64.5392L54.7983 115.994L10.5672 90.7074L10.0585 39.257L54.2853 64.5392Z" fill="#545859"/>
<path d="M119.992 64.918C103.511 64.918 90.1064 78.3221 90.1064 94.7996C90.1064 111.277 103.515 124.685 119.992 124.685C136.47 124.685 149.874 111.277 149.874 94.7996C149.874 78.3263 136.47 64.918 119.992 64.918Z" fill="white"/>
<path d="M84.5224 102.886L61.7541 116.031L61.2369 64.5045L105.888 38.7306L106.112 61.2319C108.321 60.3205 110.64 59.6253 113.043 59.1632L112.776 32.7153C112.764 31.4859 112.094 30.3414 111.025 29.7309C110.496 29.4257 109.898 29.2773 109.304 29.2773C108.702 29.2773 108.1 29.4342 107.566 29.7394L56.0058 59.5023C54.9206 60.1297 54.255 61.2955 54.2678 62.546L54.8655 122.051C54.8782 123.28 55.548 124.425 56.6162 125.035C57.6675 125.637 59.0283 125.633 60.0796 125.027L86.7777 109.609C85.8111 107.472 85.0523 105.221 84.5224 102.886Z" fill="#545859"/>
<path d="M119.906 72.4219C107.562 72.4219 97.5195 82.4601 97.5195 94.8002C97.5195 107.145 107.562 117.183 119.906 117.183C132.247 117.183 142.285 107.14 142.285 94.8002C142.285 82.4644 132.247 72.4219 119.906 72.4219Z" fill="#FFD100"/>
<path d="M119.907 62.3359C102.001 62.3359 87.4355 76.9016 87.4355 94.8034C87.4355 112.705 102.001 127.275 119.907 127.275C137.809 127.275 152.375 112.71 152.375 94.8034C152.375 76.9016 137.809 62.3359 119.907 62.3359ZM119.907 121.908C104.96 121.908 92.8023 109.751 92.8023 94.8034C92.8023 79.8605 104.96 67.7027 119.907 67.7027C134.85 67.7027 147.008 79.8605 147.008 94.8034C147.008 109.746 134.85 121.908 119.907 121.908Z" fill="#545859"/>
<path d="M113.375 134.98H3.04688V142.619H113.375V134.98Z" fill="#545859"/>
<path d="M74.5483 148.363H3.04688V156.002H74.5483V148.363Z" fill="#545859"/>
<path d="M136.778 87.1419L130.25 80.6094L113.446 97.409L108.406 92.3687L101.873 98.9012L113.37 110.546L136.778 87.1419Z" fill="white"/>
<path d="M113.365 112.5L99.9395 98.9013L108.405 90.4316L113.445 95.4719L130.245 78.668L138.719 87.142L113.365 112.5ZM103.81 98.9098L113.377 108.605L134.84 87.1462L130.249 82.5553L113.45 99.3549L108.409 94.3146L103.81 98.9098Z" fill="#545859"/>
</g>
<defs>
<clipPath id="clip0_4317_142811">
<rect width="149.328" height="156" fill="white" transform="translate(3.04688)"/>
</clipPath>
</defs>
</svg>
