<svg width="156" height="156" viewBox="0 0 156 156" fill="none" xmlns="http://www.w3.org/2000/svg">
<path d="M58.1152 3.47656L109.324 32.7689L57.7761 62.5276L6.56738 33.2352L58.1152 3.47656Z" fill="#FFE67D"/>
<path d="M112.799 32.7685C112.799 31.5392 112.12 30.3946 111.061 29.7587L59.8518 0.466294C59.3007 0.169555 58.7072 0 58.1138 0C57.5203 0 56.9268 0.169555 56.3757 0.466294L4.82788 30.225C3.76809 30.8609 3.08984 32.0054 3.08984 33.2348C3.08984 34.4641 3.76809 35.6087 4.82788 36.2446L56.0366 65.5369C57.0964 66.1304 58.4529 66.1304 59.5127 65.5369L111.061 35.7783C112.163 35.1424 112.799 33.9978 112.799 32.7685ZM57.7746 58.5L13.5181 33.2348L58.1138 7.50329L102.37 32.7685L57.7746 58.5Z" fill="#545859"/>
<path d="M108.772 32.1758L109.365 91.6932L57.8175 121.452L57.1816 61.9345L108.772 32.1758Z" fill="white"/>
<path d="M57.7761 62.5268L58.3696 122.044L7.16085 92.7518L6.56738 33.2344L57.7761 62.5268Z" fill="white"/>
<path d="M5.42266 95.7611L56.6313 125.053C57.6911 125.647 59.0477 125.647 60.1074 125.011C61.1672 124.375 61.8455 123.231 61.8031 122.001L61.2096 62.4839C61.2096 61.2545 60.5313 60.11 59.4716 59.5165L8.26288 30.2241C7.71179 29.9274 7.1183 29.7578 6.52482 29.7578C5.93134 29.7578 5.29549 29.9274 4.74441 30.2241C3.68462 30.86 3.00636 32.0045 3.04875 33.2339L3.64222 92.7513C3.68461 94.023 4.36287 95.1676 5.42266 95.7611ZM54.2998 64.5611L54.8085 116.024L10.552 90.7589L10.0433 39.2959L54.2998 64.5611Z" fill="#545859"/>
<path d="M120.007 64.9453C103.517 64.9453 90.1211 78.341 90.1211 94.8312C90.1211 111.321 103.517 124.717 120.007 124.717C136.497 124.717 149.893 111.321 149.893 94.8312C149.893 78.341 136.497 64.9453 120.007 64.9453Z" fill="white"/>
<path d="M84.5682 102.884L61.804 116.026L61.2953 64.5202L105.933 38.7463L106.145 61.256C108.35 60.3658 110.681 59.6451 113.055 59.1788L112.801 32.7267C112.801 31.4974 112.123 30.3528 111.063 29.7593C110.512 29.4626 109.918 29.293 109.325 29.293C108.731 29.293 108.138 29.4626 107.587 29.7593L56.0388 59.518C54.9367 60.1539 54.3008 61.2984 54.3008 62.5701L54.8943 122.088C54.8943 123.317 55.5725 124.462 56.6323 125.055C57.6921 125.648 59.0486 125.648 60.1084 125.055L86.8149 109.624C85.8399 107.463 85.0769 105.216 84.5682 102.884Z" fill="#545859"/>
<path d="M119.923 72.4453C107.587 72.4453 97.54 82.4921 97.54 94.8279C97.54 107.164 107.587 117.211 119.923 117.211C132.259 117.211 142.305 107.164 142.305 94.8279C142.305 82.4921 132.301 72.4453 119.923 72.4453Z" fill="#FFD100"/>
<path d="M119.919 62.3594C102.03 62.3594 87.4473 76.942 87.4473 94.8312C87.4473 112.72 102.03 127.303 119.919 127.303C137.808 127.303 152.391 112.72 152.391 94.8312C152.391 76.8996 137.851 62.3594 119.919 62.3594ZM119.919 121.919C104.955 121.919 92.831 109.753 92.831 94.8312C92.831 79.867 104.997 67.7431 119.919 67.7431C134.883 67.7431 147.007 79.9094 147.007 94.8312C147.049 109.753 134.883 121.919 119.919 121.919Z" fill="#545859"/>
<path d="M113.434 134.973H3.08984V142.603H113.434V134.973Z" fill="#545859"/>
<path d="M74.604 148.367H3.08984V155.998H74.604V148.367Z" fill="#545859"/>
<path d="M133.444 87.201L127.551 81.3086L119.921 88.939L112.333 81.3086L106.44 87.201L114.028 94.8314L106.44 102.419L112.333 108.354L119.921 100.724L127.551 108.354L133.444 102.419L125.813 94.8314L133.444 87.201Z" fill="#FF0025"/>
<path d="M127.551 110.092L119.921 102.462L112.291 110.092L104.66 102.462L112.291 94.8312L104.66 87.2007L112.291 79.5703L119.921 87.2007L127.551 79.5703L135.182 87.2007L127.551 94.8312L135.182 102.462L127.551 110.092ZM108.179 102.419L112.333 106.574L119.963 98.9431L127.594 106.574L131.748 102.419L124.118 94.7887L131.748 87.1583L127.594 83.004L119.963 90.6344L112.333 83.004L108.179 87.1583L115.809 94.7887L108.179 102.419Z" fill="#545859"/>
<path d="M61.2088 36.0324H55.274L53.4512 16.6172H62.6501L61.2088 36.0324Z" fill="#545859"/>
<path d="M58.2414 48.6234C60.8869 48.6234 63.0316 46.4788 63.0316 43.8332C63.0316 41.1876 60.8869 39.043 58.2414 39.043C55.5958 39.043 53.4512 41.1876 53.4512 43.8332C53.4512 46.4788 55.5958 48.6234 58.2414 48.6234Z" fill="#545859"/>
</svg>
