<svg width="192" height="96" viewBox="0 0 192 96" fill="none" xmlns="http://www.w3.org/2000/svg">
<g clip-path="url(#clip0_4317_147399)">
<path d="M77.9613 31.6063C77.9613 31.0016 77.9926 30.4035 78.0509 29.8145H47.2197V33.3982H78.0509C77.9926 32.8091 77.9613 32.2111 77.9613 31.6063Z" fill="#545859"/>
<path d="M113.68 29.8145C113.738 30.4035 113.769 31.0016 113.769 31.6063C113.769 32.2111 113.738 32.8091 113.68 33.3982H150.363V29.8145H113.68Z" fill="#545859"/>
<path d="M192 68.75H120.256V88.8838H192V68.75Z" fill="#FFE67D"/>
<path d="M156.129 58.4618C141.32 58.4618 129.271 46.4138 129.271 31.6041C129.271 16.7944 141.32 4.74414 156.129 4.74414C170.939 4.74414 182.985 16.7922 182.985 31.6041C182.985 46.4138 170.939 58.4618 156.129 58.4618Z" fill="white"/>
<path d="M156.13 49.6775C166.132 49.6775 174.241 41.5688 174.241 31.5663C174.241 21.5637 166.132 13.4551 156.13 13.4551C146.127 13.4551 138.019 21.5637 138.019 31.5663C138.019 41.5688 146.127 49.6775 156.13 49.6775Z" fill="#FFE67D"/>
<path d="M142.358 54.7944C142.358 54.7944 155.544 63.4267 169.978 54.6063V44.9258C169.978 44.9258 168.92 37.5254 161.634 37.5254H149.665C149.665 37.5254 142.701 38.558 142.643 44.984L142.358 54.7944Z" fill="white"/>
<path d="M156.13 3.375C140.565 3.375 127.903 16.039 127.903 31.6035C127.903 47.168 140.565 59.8297 156.13 59.8297C171.694 59.8297 184.356 47.168 184.356 31.6035C184.356 16.039 171.694 3.375 156.13 3.375ZM156.13 57.0927C142.075 57.0927 130.64 45.6584 130.64 31.6057C130.64 17.5508 142.075 6.11654 156.13 6.11654C170.184 6.11654 181.617 17.5508 181.617 31.6057C181.617 45.6584 170.182 57.0927 156.13 57.0927Z" fill="#545859"/>
<path d="M163.964 28.9948C163.964 33.3199 160.456 36.8274 156.129 36.8274C151.806 36.8274 148.296 33.3199 148.296 28.9948C148.296 24.6674 151.804 21.1621 156.129 21.1621C160.456 21.1621 163.964 24.6674 163.964 28.9948Z" fill="white"/>
<path d="M156.129 19.791C151.056 19.791 146.928 23.919 146.928 28.9922C146.928 34.0654 151.056 38.1934 156.129 38.1934C161.204 38.1934 165.332 34.0654 165.332 28.9922C165.332 23.919 161.204 19.791 156.129 19.791ZM156.129 35.4563C152.565 35.4563 149.667 32.558 149.667 28.9922C149.667 25.4287 152.565 22.5281 156.129 22.5281C159.695 22.5281 162.593 25.4264 162.593 28.9922C162.593 32.558 159.693 35.4563 156.129 35.4563Z" fill="#545859"/>
<path d="M150.257 39.0655H162.007C165.571 39.0655 168.469 41.9661 168.469 45.5296V54.7958H171.208V45.5296C171.208 40.4564 167.08 36.3262 162.007 36.3262H150.257C145.184 36.3262 141.054 40.4542 141.054 45.5296V54.7958H143.793V45.5296C143.793 41.9661 146.691 39.0655 150.257 39.0655Z" fill="#545859"/>
<path d="M71.7438 64.8965H0V92.7352H71.7438V64.8965Z" fill="#FFE67D"/>
<path d="M35.8744 58.4618C21.0646 58.4618 9.0166 46.4138 9.0166 31.6041C9.0166 16.7944 21.0646 4.74414 35.8744 4.74414C50.6841 4.74414 62.7298 16.7922 62.7298 31.6041C62.7298 46.4138 50.6841 58.4618 35.8744 58.4618Z" fill="white"/>
<path d="M35.875 49.6775C45.8775 49.6775 53.9861 41.5688 53.9861 31.5663C53.9861 21.5637 45.8775 13.4551 35.875 13.4551C25.8724 13.4551 17.7637 21.5637 17.7637 31.5663C17.7637 41.5688 25.8724 49.6775 35.875 49.6775Z" fill="#FFE67D"/>
<path d="M22.1035 54.7944C22.1035 54.7944 35.2894 63.4267 49.7228 54.6063V44.9258C49.7228 44.9258 48.6656 37.5254 41.3794 37.5254H29.4098C29.4098 37.5254 22.4462 38.558 22.388 44.984L22.1035 54.7944Z" fill="white"/>
<path d="M35.8737 3.375C20.3092 3.375 7.64746 16.039 7.64746 31.6035C7.64746 47.168 20.3092 59.8297 35.8737 59.8297C51.4383 59.8297 64.0999 47.168 64.0999 31.6035C64.0999 16.039 51.4383 3.375 35.8737 3.375ZM35.8737 57.0927C21.8188 57.0927 10.3845 45.6584 10.3845 31.6057C10.3845 17.5508 21.8188 6.11654 35.8737 6.11654C49.9286 6.11654 61.3606 17.5508 61.3606 31.6057C61.3606 45.6584 49.9264 57.0927 35.8737 57.0927Z" fill="#545859"/>
<path d="M43.7116 28.9948C43.7116 33.3199 40.204 36.8274 35.8767 36.8274C31.5538 36.8274 28.0439 33.3199 28.0439 28.9948C28.0439 24.6674 31.5516 21.1621 35.8767 21.1621C40.204 21.1621 43.7116 24.6674 43.7116 28.9948Z" fill="white"/>
<path d="M35.876 19.791C30.8028 19.791 26.6748 23.919 26.6748 28.9922C26.6748 34.0654 30.8028 38.1934 35.876 38.1934C40.9515 38.1934 45.0794 34.0654 45.0794 28.9922C45.0794 23.919 40.9515 19.791 35.876 19.791ZM35.876 35.4563C32.3125 35.4563 29.4141 32.558 29.4141 28.9922C29.4141 25.4287 32.3125 22.5281 35.876 22.5281C39.4418 22.5281 42.3401 25.4264 42.3401 28.9922C42.3401 32.558 39.4396 35.4563 35.876 35.4563Z" fill="#545859"/>
<path d="M29.9993 39.0655H41.7495C45.3131 39.0655 48.2113 41.9661 48.2113 45.5296V54.7958H50.9506V45.5296C50.9506 40.4564 46.8227 36.3262 41.7495 36.3262H29.9993C24.9261 36.3262 20.7959 40.4542 20.7959 45.5296V54.7958H23.5352V45.5296C23.5352 41.9661 26.4357 39.0655 29.9993 39.0655Z" fill="#545859"/>
<path d="M95.8533 46.6327C104.154 46.6327 110.883 39.9038 110.883 31.6034C110.883 23.303 104.154 16.5742 95.8533 16.5742C87.5529 16.5742 80.8242 23.303 80.8242 31.6034C80.8242 39.9038 87.5529 46.6327 95.8533 46.6327Z" fill="white"/>
<path d="M95.8661 15.7402C95.651 15.7402 95.4316 15.7447 95.2143 15.7537L94.9545 15.7649L95.0261 17.5142L95.286 17.503C95.4786 17.494 95.6734 17.4918 95.8661 17.4918C103.645 17.4918 109.975 23.8215 109.975 31.6004C109.975 39.3816 103.645 45.7091 95.8661 45.7091C92.1032 45.7091 88.562 44.2397 85.8944 41.5721C83.2267 38.9045 81.7575 35.3633 81.7575 31.6004C81.7575 31.4056 81.7619 31.2107 81.7686 31.0203L81.7799 30.7605L80.0306 30.6911L80.0193 30.9509C80.0104 31.1681 80.0059 31.3876 80.0059 31.6027C80.0059 40.3492 87.1218 47.4629 95.8661 47.4629C104.61 47.4629 111.726 40.3469 111.726 31.6027C111.726 22.8539 104.61 15.7402 95.8661 15.7402Z" fill="#545859"/>
<path d="M87.1242 20.5225C87.4131 20.294 87.7132 20.0745 88.0178 19.8707L88.2328 19.7251L87.2563 18.2715L87.0413 18.4171C86.6986 18.6478 86.3604 18.8942 86.0378 19.1495L85.834 19.3108L86.9203 20.6838L87.1242 20.5225Z" fill="#545859"/>
<path d="M85.5026 22.0217C85.7512 21.7529 86.0156 21.4886 86.2843 21.24L86.4748 21.063L85.2854 19.7773L85.095 19.9543C84.7926 20.2343 84.497 20.5299 84.217 20.8323L84.04 21.0227L85.3256 22.212L85.5026 22.0217Z" fill="#545859"/>
<path d="M88.9572 19.2955C89.2775 19.1141 89.6089 18.9461 89.9404 18.7915L90.1756 18.6818L89.4387 17.0938L89.2035 17.2035C88.8294 17.376 88.4577 17.5664 88.0993 17.7702L87.873 17.8979L88.7309 19.4232L88.9572 19.2955Z" fill="#545859"/>
<path d="M93.0795 17.7664C93.4378 17.6948 93.8052 17.6365 94.1703 17.5917L94.4278 17.5604L94.2196 15.8223L93.9619 15.8536C93.5521 15.9029 93.14 15.9679 92.7368 16.0485L92.4814 16.1L92.8241 17.8179L93.0795 17.7664Z" fill="#545859"/>
<path d="M90.9589 18.3643C91.3038 18.2367 91.6576 18.1202 92.007 18.0217L92.2579 17.95L91.7808 16.2656L91.53 16.3373C91.1335 16.4493 90.7371 16.5792 90.3496 16.7225L90.1055 16.8121L90.7146 18.4539L90.9589 18.3643Z" fill="#545859"/>
<path d="M81.8567 29.9173C81.8993 29.5522 81.9575 29.1849 82.0292 28.8265L82.0807 28.5712L80.3628 28.2285L80.3112 28.4838C80.2306 28.887 80.1656 29.2992 80.1163 29.7113L80.085 29.9688L81.8231 30.1749L81.8567 29.9173Z" fill="#545859"/>
<path d="M84.1347 23.7558C84.3385 23.4512 84.558 23.1511 84.7842 22.8621L84.9455 22.6583L83.5702 21.5742L83.409 21.778C83.1514 22.1028 82.9072 22.441 82.6788 22.7815L82.5332 22.9965L83.9891 23.9708L84.1347 23.7558Z" fill="#545859"/>
<path d="M82.2853 27.7535C82.3838 27.4018 82.5004 27.0479 82.628 26.703L82.7176 26.4588L81.0758 25.8496L80.9862 26.0937C80.8429 26.479 80.7129 26.8777 80.6009 27.2764L80.5293 27.5272L82.2137 28.0043L82.2853 27.7535Z" fill="#545859"/>
<path d="M83.0525 25.6826C83.2071 25.3489 83.3751 25.0174 83.5543 24.6993L83.6819 24.4731L82.1566 23.6152L82.029 23.8415C81.8274 24.1998 81.6369 24.5716 81.4622 24.9479L81.3525 25.1831L82.9405 25.9178L83.0525 25.6826Z" fill="#545859"/>
<path d="M106.539 31.6008C106.539 37.496 101.762 42.2758 95.8641 42.2758C89.9667 42.2758 85.1914 37.496 85.1914 31.6008C85.1914 25.7056 89.9689 20.9258 95.8641 20.9258C101.759 20.9258 106.539 25.7056 106.539 31.6008Z" fill="#FFD100"/>
<path d="M102.582 27.8167L99.652 24.8848L95.8666 28.6723L92.0791 24.8848L89.1494 27.8167L92.9347 31.602L89.1494 35.3873L92.0791 38.317L95.8666 34.5317L99.652 38.317L102.582 35.3873L98.7963 31.602L102.582 27.8167Z" fill="#FF0025"/>
<path d="M22.7588 69.0977C22.9738 69.0977 23.1686 69.1671 23.3411 69.3037C23.5135 69.4403 23.6009 69.6061 23.6009 69.7965V77.4477C23.6009 77.6874 23.5203 77.8621 23.359 77.9763C23.1977 78.0905 22.9985 78.1465 22.7588 78.1465C22.5908 78.1465 22.4072 78.0928 22.2033 77.9853C21.9995 77.8778 21.8382 77.7411 21.7195 77.5731L17.867 72.108V77.4656C17.867 77.6448 17.7863 77.8061 17.625 77.9494C17.4638 78.0928 17.251 78.1645 16.989 78.1645C16.7627 78.1645 16.5612 78.0928 16.3888 77.9494C16.2163 77.8061 16.1289 77.6448 16.1289 77.4656V69.8144C16.1289 69.5747 16.2342 69.4023 16.4425 69.2948C16.6508 69.1873 16.8702 69.1402 17.0965 69.1514C17.466 69.1626 17.7774 69.3418 18.0283 69.6889L21.8986 75.1541V69.7965C21.8986 69.6061 21.977 69.4403 22.1316 69.3037C22.2861 69.1671 22.4945 69.0977 22.7588 69.0977Z" fill="#545859"/>
<path d="M31.95 69.3849C32.0822 69.5283 32.1471 69.6896 32.1471 69.8687C32.1471 70.0367 32.0822 70.1913 31.95 70.3346C31.8179 70.478 31.6521 70.5497 31.4482 70.5497H29.3159V77.4662C29.3159 77.6454 29.233 77.8067 29.065 77.95C28.8971 78.0934 28.6955 78.1651 28.4559 78.1651C28.1938 78.1651 27.9832 78.0934 27.8287 77.95C27.6741 77.8067 27.5957 77.6454 27.5957 77.4662V70.5497H25.4813C25.2417 70.5497 25.0625 70.478 24.9438 70.3346C24.8251 70.1913 24.7646 70.0367 24.7646 69.8687C24.7646 69.6896 24.8251 69.5283 24.9438 69.3849C25.0625 69.2416 25.2417 69.1699 25.4813 69.1699H31.4482C31.6498 69.1699 31.8179 69.2416 31.95 69.3849Z" fill="#545859"/>
<path d="M37.0044 69.1699C39.036 69.1699 40.0506 70.0188 40.0506 71.7144C40.0506 72.5745 39.802 73.2307 39.307 73.6854C38.812 74.1401 38.0437 74.3663 37.0044 74.3663H34.9439V77.4125C34.9439 77.6029 34.861 77.7686 34.693 77.9052C34.525 78.0419 34.3235 78.1113 34.0838 78.1113C33.8441 78.1113 33.6425 78.0419 33.4745 77.9052C33.3065 77.7686 33.2236 77.6029 33.2236 77.4125V69.8867C33.2236 69.7321 33.2864 69.5731 33.4119 69.4118C33.5373 69.2505 33.7187 69.1699 33.9584 69.1699H37.0044ZM37.0044 72.9866C37.3023 72.9866 37.542 72.9508 37.7212 72.8791C37.9004 72.8074 38.0415 72.7111 38.1423 72.5924C38.2431 72.4737 38.3125 72.3415 38.3483 72.1982C38.3842 72.0548 38.4021 71.9115 38.4021 71.7681C38.4021 71.636 38.3842 71.4993 38.3483 71.356C38.3125 71.2126 38.2476 71.0805 38.1512 70.9618C38.0549 70.8431 37.9161 70.7445 37.7302 70.6661C37.5443 70.5877 37.3023 70.5497 37.0044 70.5497H34.9439V72.9866H37.0044Z" fill="#545859"/>
<path d="M47.5299 76.9174C47.6554 77.0429 47.7182 77.2064 47.7182 77.4102C47.7182 77.6006 47.6554 77.7618 47.5299 77.894C47.4045 78.0261 47.2276 78.0911 47.0014 78.0911H42.1633C41.9595 78.0911 41.7961 78.0217 41.6706 77.885C41.5452 77.7484 41.4824 77.5782 41.4824 77.3744V69.8844C41.4824 69.694 41.5698 69.5282 41.7423 69.3916C41.9147 69.255 42.1164 69.1855 42.3426 69.1855C42.6046 69.1855 42.8174 69.255 42.9787 69.3916C43.1399 69.5282 43.2206 69.694 43.2206 69.8844V76.7293H47.0014C47.2276 76.7293 47.4045 76.792 47.5299 76.9174Z" fill="#545859"/>
<path d="M52.806 70.4774C51.9706 70.4774 51.3367 70.7439 50.9066 71.2748C50.4766 71.8056 50.2616 72.5918 50.2616 73.6311C50.2616 75.7208 51.1105 76.7668 52.806 76.7668C53.404 76.7668 54.0177 76.5585 54.6516 76.1396C54.842 76.0321 55.0571 76.003 55.2967 76.0501C55.5364 76.0971 55.72 76.218 55.8522 76.4084C55.9843 76.5876 56.0157 76.7556 55.9507 76.9102C55.8858 77.0647 55.7693 77.2036 55.6013 77.3223C55.1601 77.5978 54.7121 77.8061 54.2574 77.9494C53.8027 78.0928 53.3189 78.1645 52.806 78.1645C52.0893 78.1645 51.4644 78.0569 50.9335 77.8419C50.4027 77.6269 49.9569 77.3223 49.5985 76.9281C49.2401 76.5339 48.9714 76.0568 48.7923 75.4946C48.6131 74.9324 48.5234 74.312 48.5234 73.6311C48.5234 72.986 48.6063 72.3857 48.7743 71.8302C48.9423 71.2748 49.1976 70.7977 49.5448 70.3967C49.892 69.9958 50.3355 69.68 50.8797 69.4471C51.424 69.2141 52.0646 69.0977 52.806 69.0977C53.8206 69.0977 54.7524 69.3776 55.6013 69.9398C55.9597 70.2019 56.0201 70.5379 55.7804 70.9433C55.6841 71.1225 55.505 71.212 55.2429 71.212C54.9808 71.212 54.7659 71.165 54.5979 71.0687C54.0021 70.6745 53.404 70.4774 52.806 70.4774Z" fill="#545859"/>
<path d="M25.0327 87.8512C25.1088 87.9274 25.1468 88.0281 25.1468 88.1513C25.1468 88.2678 25.1088 88.3664 25.0327 88.4448C24.9565 88.5254 24.849 88.5634 24.7123 88.5634H21.7737C21.6505 88.5634 21.5497 88.5209 21.4736 88.438C21.3974 88.3552 21.3594 88.2521 21.3594 88.1289V83.5798C21.3594 83.4634 21.4108 83.3648 21.5161 83.2797C21.6214 83.1968 21.7423 83.1543 21.8812 83.1543C22.0402 83.1543 22.1701 83.1968 22.2665 83.2797C22.365 83.3626 22.4143 83.4634 22.4143 83.5798V87.737H24.7101C24.849 87.737 24.9565 87.775 25.0327 87.8512Z" fill="#545859"/>
<path d="M26.8073 88.4828C26.7087 88.5657 26.5833 88.6083 26.431 88.6083C26.3011 88.6083 26.1802 88.5657 26.0727 88.4828C25.9652 88.3999 25.9092 88.2992 25.9092 88.1827V83.5798C25.9092 83.4634 25.9629 83.3648 26.0727 83.2797C26.1824 83.1968 26.3011 83.1543 26.431 83.1543C26.5833 83.1543 26.7087 83.1968 26.8073 83.2797C26.9058 83.3626 26.9552 83.4634 26.9552 83.5798V88.1827C26.9529 88.2992 26.9058 88.3999 26.8073 88.4828Z" fill="#545859"/>
<path d="M32.1768 83.1016C32.3068 83.1016 32.4255 83.1441 32.5308 83.227C32.636 83.3099 32.6875 83.4107 32.6875 83.5271V88.1748C32.6875 88.3204 32.6383 88.4279 32.5397 88.4951C32.4412 88.5645 32.3202 88.5981 32.1747 88.5981C32.0739 88.5981 31.9596 88.5645 31.8364 88.4996C31.7132 88.4346 31.6146 88.3517 31.543 88.2487L29.2024 84.9293V88.1837C29.2024 88.2935 29.1531 88.3898 29.0545 88.4771C28.956 88.5645 28.8283 88.6071 28.6692 88.6071C28.5304 88.6071 28.4095 88.5645 28.3042 88.4771C28.1989 88.3898 28.1475 88.2913 28.1475 88.1837V83.5361C28.1475 83.3905 28.2101 83.2852 28.3378 83.2203C28.4654 83.1553 28.5976 83.1262 28.7342 83.1329C28.9582 83.1396 29.1486 83.2494 29.3009 83.46L31.6505 86.7794V83.5249C31.6505 83.4084 31.6975 83.3099 31.7915 83.2248C31.8901 83.1419 32.0156 83.1016 32.1768 83.1016Z" fill="#545859"/>
<path d="M34.7678 83.9806V85.4051H36.6515C36.7523 85.4051 36.8531 85.4342 36.9517 85.4924C37.0502 85.5507 37.0995 85.656 37.0995 85.8083C37.0995 85.9315 37.0591 86.0322 36.9807 86.1084C36.9001 86.1845 36.7948 86.2226 36.6649 86.2226H34.7723V87.7345H37.1129C37.2293 87.7345 37.3346 87.7659 37.4287 87.8263C37.5228 87.8891 37.5698 87.9943 37.5698 88.1466C37.5698 88.2631 37.5318 88.3617 37.4556 88.4401C37.3795 88.5207 37.2697 88.5587 37.1241 88.5587H34.1743C34.0063 88.5587 33.892 88.5162 33.8271 88.4288C33.7621 88.3415 33.7285 88.2228 33.7285 88.0705V83.6311C33.7285 83.4855 33.7599 83.3691 33.8204 83.2773C33.8809 83.1877 33.9996 83.1406 34.1743 83.1406H37.0905C37.2137 83.1406 37.3235 83.1742 37.422 83.2392C37.5206 83.3041 37.5698 83.4139 37.5698 83.5662C37.5698 83.667 37.5318 83.7611 37.4556 83.8484C37.3795 83.9358 37.2697 83.9783 37.1241 83.9783H34.7678V83.9806Z" fill="#545859"/>
<path d="M42.8309 83.1016C43.6215 83.1016 44.242 83.3345 44.6922 83.7982C45.1424 84.2618 45.3663 84.9472 45.3663 85.8543C45.3663 86.7323 45.1514 87.411 44.7191 87.8903C44.2868 88.3696 43.6574 88.6093 42.8309 88.6093C41.9954 88.6093 41.3638 88.3696 40.9315 87.8903C40.4992 87.411 40.2842 86.7323 40.2842 85.8543C40.2842 84.9539 40.5082 84.2708 40.9539 83.8026C41.3997 83.3345 42.0268 83.1016 42.8309 83.1016ZM42.8309 87.7582C43.3169 87.7582 43.6865 87.5991 43.9418 87.2788C44.1949 86.9608 44.3226 86.4837 44.3226 85.8543C44.3226 85.2249 44.1949 84.7456 43.9418 84.4231C43.6887 84.1005 43.3169 83.9393 42.8309 83.9393C42.3448 83.9393 41.9753 84.1005 41.7199 84.4231C41.4668 84.7456 41.3391 85.2227 41.3391 85.8543C41.3391 86.4859 41.4668 86.9608 41.7199 87.2788C41.9753 87.5991 42.3448 87.7582 42.8309 87.7582Z" fill="#545859"/>
<path d="M49.4039 87.3124H47.3566L46.9423 88.3674C46.9131 88.4391 46.8482 88.4973 46.7474 88.5421C46.6466 88.5847 46.519 88.5936 46.3667 88.5645C46.3084 88.5578 46.2501 88.5421 46.1919 88.5152C46.1337 88.4906 46.0822 88.4592 46.0352 88.4234C45.9881 88.3876 45.9545 88.3428 45.9322 88.2935C45.9098 88.242 45.9142 88.1837 45.9433 88.1188L47.9233 83.33C47.9524 83.2718 48.0107 83.2203 48.098 83.1733C48.1854 83.1262 48.2794 83.1016 48.3802 83.1016C48.481 83.1016 48.5751 83.1262 48.6625 83.1733C48.7498 83.2203 48.808 83.274 48.8371 83.33L50.8172 88.1188C50.8463 88.1837 50.8508 88.242 50.8284 88.2935C50.806 88.345 50.7724 88.3876 50.7254 88.4234C50.6783 88.4592 50.6246 88.4906 50.5618 88.5152C50.4991 88.5399 50.4431 88.5578 50.3939 88.5645C50.2416 88.5936 50.1138 88.5869 50.013 88.5421C49.9123 88.4996 49.8451 88.4413 49.8183 88.3674L49.4039 87.3124ZM47.6725 86.5061H49.088L48.3802 84.6896L47.6725 86.5061Z" fill="#545859"/>
<path d="M128.504 76.0898C129.673 76.0898 130.603 76.3967 131.29 77.0082C131.978 77.6196 132.323 78.4708 132.323 79.5571C132.323 79.846 132.251 80.0969 132.105 80.3097C131.96 80.5224 131.709 80.63 131.353 80.63H126.544C126.571 80.9883 126.647 81.2728 126.77 81.4856C126.893 81.6984 127.055 81.8596 127.256 81.9716C127.456 82.0814 127.693 82.153 127.969 82.1889C128.244 82.2225 128.546 82.2404 128.876 82.2404C129.205 82.2404 129.539 82.1933 129.877 82.0948C130.213 81.9985 130.56 81.882 130.918 81.7432C131.151 81.7028 131.355 81.7409 131.528 81.8574C131.7 81.9739 131.819 82.1508 131.888 82.3837C131.942 82.5898 131.868 82.7869 131.662 82.9728C131.456 83.1587 131.187 83.32 130.858 83.4589C130.529 83.5955 130.173 83.703 129.794 83.7791C129.416 83.8553 129.075 83.8934 128.773 83.8934C127.411 83.8934 126.36 83.5529 125.626 82.872C124.889 82.1911 124.521 81.2257 124.521 79.9737C124.521 78.7351 124.869 77.7786 125.563 77.1045C126.257 76.428 127.238 76.0898 128.504 76.0898ZM130.464 79.1853C130.394 78.6903 130.22 78.2983 129.937 78.0094C129.655 77.7204 129.185 77.5748 128.524 77.5748C127.89 77.5748 127.418 77.7115 127.099 77.987C126.784 78.2625 126.584 78.6611 126.501 79.183H130.464V79.1853Z" fill="#545859"/>
<path d="M138.016 77.8045C138.471 77.8739 138.921 77.959 139.366 78.0621C139.814 78.1651 140.22 78.3196 140.585 78.5257C140.95 78.7318 141.248 79.005 141.483 79.341C141.716 79.6792 141.842 80.116 141.855 80.6513C141.882 81.2695 141.783 81.7891 141.555 82.2102C141.329 82.6291 141.015 82.9628 140.616 83.2114C140.218 83.46 139.75 83.6348 139.212 83.7378C138.674 83.8408 138.119 83.8923 137.541 83.8923C137.292 83.8923 136.981 83.8654 136.603 83.8094C136.224 83.7557 135.843 83.6683 135.458 83.5519C135.073 83.4354 134.714 83.2831 134.385 83.0972C134.056 82.9113 133.827 82.6806 133.704 82.4051C133.664 82.3088 133.653 82.1744 133.673 82.0019C133.693 81.8295 133.758 81.6883 133.87 81.5786C134.022 81.386 134.235 81.2784 134.511 81.2583C134.786 81.2381 135.012 81.2897 135.192 81.4128C135.55 81.6749 135.951 81.8765 136.399 82.0221C136.847 82.1677 137.228 82.2393 137.543 82.2393C137.819 82.2393 138.101 82.2259 138.39 82.199C138.679 82.1721 138.936 82.1027 139.165 81.993C139.391 81.8832 139.575 81.7286 139.711 81.5293C139.848 81.3299 139.911 81.0522 139.897 80.6938C139.87 80.2683 139.673 79.9816 139.308 79.8382C138.943 79.6949 138.41 79.5672 137.709 79.4575C137.31 79.4015 136.889 79.3298 136.45 79.2402C136.009 79.1506 135.597 79.0073 135.212 78.8079C134.826 78.6086 134.506 78.3398 134.253 78.0038C133.998 77.6678 133.857 77.2154 133.83 76.651C133.816 76.0193 133.921 75.4952 134.15 75.0831C134.376 74.671 134.69 74.3462 135.089 74.1132C135.487 73.8803 135.951 73.7146 136.482 73.6183C137.01 73.5219 137.566 73.4727 138.144 73.4727C139.286 73.4727 140.309 73.7818 141.219 74.4022C141.467 74.5545 141.604 74.7359 141.631 74.9487C141.658 75.1615 141.611 75.3653 141.485 75.5579C141.429 75.6677 141.344 75.7483 141.228 75.7954C141.111 75.8446 140.986 75.8738 140.856 75.8894C140.726 75.9029 140.594 75.9006 140.464 75.8782C140.334 75.8581 140.227 75.82 140.144 75.764C139.785 75.5445 139.445 75.3788 139.122 75.269C138.8 75.1592 138.473 75.1033 138.141 75.1033C137.866 75.1033 137.59 75.1145 137.315 75.1346C137.039 75.1548 136.788 75.213 136.562 75.3093C136.336 75.4056 136.15 75.5535 136.005 75.7528C135.859 75.9522 135.794 76.2232 135.807 76.5681C135.834 76.9937 136.045 77.2804 136.437 77.4237C136.829 77.5671 137.355 77.6947 138.016 77.8045Z" fill="#545859"/>
<path d="M147.199 76.0898C148.368 76.0898 149.298 76.3967 149.985 77.0082C150.673 77.6196 151.018 78.4708 151.018 79.5571C151.018 79.846 150.946 80.0969 150.801 80.3097C150.655 80.5224 150.404 80.63 150.048 80.63H145.239C145.266 80.9883 145.342 81.2728 145.465 81.4856C145.589 81.6984 145.75 81.8596 145.952 81.9716C146.151 82.0814 146.388 82.153 146.664 82.1889C146.939 82.2225 147.242 82.2404 147.571 82.2404C147.9 82.2404 148.234 82.1933 148.572 82.0948C148.908 81.9985 149.255 81.882 149.614 81.7432C149.847 81.7028 150.05 81.7409 150.223 81.8574C150.395 81.9739 150.514 82.1508 150.583 82.3837C150.637 82.5898 150.563 82.7869 150.357 82.9728C150.151 83.1587 149.882 83.32 149.553 83.4589C149.224 83.5955 148.868 83.703 148.489 83.7791C148.111 83.8553 147.77 83.8934 147.468 83.8934C146.106 83.8934 145.056 83.5529 144.321 82.872C143.584 82.1911 143.217 81.2257 143.217 79.9737C143.217 78.7351 143.564 77.7786 144.258 77.1045C144.953 76.428 145.934 76.0898 147.199 76.0898ZM149.159 79.1853C149.09 78.6903 148.915 78.2983 148.633 78.0094C148.35 77.7204 147.88 77.5748 147.219 77.5748C146.585 77.5748 146.113 77.7115 145.795 77.987C145.479 78.2625 145.28 78.6611 145.197 79.183H149.159V79.1853Z" fill="#545859"/>
<path d="M155.722 76.1325C155.858 76.119 156.073 76.1213 156.362 76.1437C156.651 76.1638 156.929 76.2198 157.198 76.3094C157.467 76.399 157.684 76.5401 157.847 76.7327C158.013 76.9254 158.033 77.1874 157.91 77.5167V77.4965C157.854 77.6623 157.751 77.8056 157.601 77.9288C157.449 78.052 157.256 78.1013 157.023 78.0744C156.871 78.0744 156.774 78.0677 156.734 78.0542C156.638 78.0408 156.528 78.0274 156.405 78.0139C156.282 78.0005 156.172 77.9938 156.076 77.9938C155.621 77.9938 155.256 78.1461 154.983 78.4485C154.707 78.7508 154.571 79.1428 154.571 79.6244V82.8228C154.571 83.497 154.241 83.833 153.58 83.833C152.906 83.833 152.57 83.5037 152.57 82.843V76.941C152.57 76.7081 152.662 76.5043 152.848 76.3318C153.034 76.1593 153.251 76.0742 153.498 76.0742C153.787 76.0742 154.017 76.1526 154.19 76.3117C154.362 76.4707 154.447 76.6655 154.447 76.9007C154.557 76.6947 154.743 76.5222 155.005 76.3856C155.26 76.2444 155.502 76.1616 155.722 76.1325Z" fill="#545859"/>
<path d="M164.348 76.6306C164.431 76.4379 164.567 76.2946 164.76 76.196C164.953 76.0997 165.152 76.0594 165.358 76.0728C165.647 76.0997 165.896 76.2184 166.102 76.4245C166.308 76.6306 166.357 76.8725 166.247 77.1457L163.481 83.4598C163.398 83.6121 163.244 83.7218 163.017 83.789C162.791 83.8562 162.587 83.8921 162.408 83.8921C162.229 83.8921 162.027 83.8585 161.799 83.789C161.571 83.7196 161.418 83.6099 161.335 83.4598L158.569 77.1457C158.459 76.8702 158.506 76.6306 158.715 76.4245C158.923 76.2184 159.169 76.1019 159.458 76.0728C159.664 76.0594 159.864 76.0997 160.056 76.196C160.249 76.2923 160.386 76.4379 160.468 76.6306L162.408 81.5223L164.348 76.6306Z" fill="#545859"/>
<path d="M167.754 73.883C167.754 73.5672 167.868 73.3029 168.094 73.0879C168.321 72.8751 168.607 72.7676 168.95 72.7676C169.293 72.7676 169.573 72.8751 169.785 73.0879C169.998 73.3007 170.106 73.565 170.106 73.883C170.106 74.1988 169.998 74.4654 169.785 74.6782C169.573 74.8909 169.293 74.9985 168.95 74.9985C168.605 74.9985 168.321 74.8909 168.094 74.6782C167.866 74.4654 167.754 74.2011 167.754 73.883ZM167.96 76.918C167.96 76.685 168.063 76.4879 168.269 76.3289C168.475 76.1699 168.701 76.0915 168.95 76.0915C169.225 76.0915 169.463 76.1699 169.662 76.3289C169.862 76.4879 169.962 76.6828 169.962 76.918V83.026C169.962 83.2589 169.859 83.456 169.653 83.6151C169.447 83.7741 169.219 83.8525 168.972 83.8525C168.697 83.8525 168.459 83.7741 168.26 83.6151C168.061 83.456 167.96 83.2612 167.96 83.026V76.918Z" fill="#545859"/>
<path d="M176.112 77.7019C175.438 77.7019 174.893 77.8834 174.481 78.2485C174.069 78.6136 173.863 79.1869 173.863 79.9709C173.863 80.7145 174.056 81.2789 174.441 81.6642C174.826 82.0494 175.384 82.2421 176.112 82.2421C176.387 82.2421 176.665 82.2174 176.947 82.1704C177.23 82.1234 177.514 82.0158 177.803 81.8501C177.982 81.7135 178.197 81.6687 178.452 81.7157C178.708 81.765 178.889 81.8837 178.999 82.0763C179.122 82.2689 179.154 82.4952 179.091 82.7572C179.028 83.0193 178.86 83.2254 178.585 83.3754C178.173 83.6106 177.781 83.7539 177.409 83.8099C177.037 83.8637 176.605 83.8928 176.11 83.8928C174.748 83.8928 173.697 83.5524 172.963 82.8715C172.226 82.1906 171.858 81.2252 171.858 79.9731C171.858 78.7345 172.226 77.7781 172.963 77.1039C173.7 76.4297 174.748 76.0938 176.11 76.0938C176.591 76.0938 177.03 76.1318 177.431 76.208C177.83 76.2841 178.249 76.4588 178.69 76.7343C178.856 76.8441 178.981 77.0053 179.071 77.2204C179.16 77.4331 179.149 77.637 179.039 77.8296C178.943 78.0491 178.764 78.1835 178.502 78.2328C178.24 78.282 178.013 78.244 177.821 78.1185C177.518 77.9528 177.225 77.843 176.943 77.7893C176.665 77.7288 176.387 77.7019 176.112 77.7019Z" fill="#545859"/>
<path d="M184.448 76.0898C185.617 76.0898 186.547 76.3967 187.234 77.0082C187.922 77.6196 188.267 78.4708 188.267 79.5571C188.267 79.846 188.195 80.0969 188.05 80.3097C187.904 80.5224 187.653 80.63 187.297 80.63H182.488C182.515 80.9883 182.591 81.2728 182.715 81.4856C182.838 81.6984 182.999 81.8596 183.201 81.9716C183.4 82.0814 183.637 82.153 183.913 82.1889C184.188 82.2225 184.491 82.2404 184.82 82.2404C185.149 82.2404 185.483 82.1933 185.821 82.0948C186.157 81.9985 186.504 81.882 186.863 81.7432C187.096 81.7028 187.299 81.7409 187.472 81.8574C187.644 81.9739 187.763 82.1508 187.833 82.3837C187.886 82.5898 187.812 82.7869 187.606 82.9728C187.4 83.1587 187.132 83.32 186.802 83.4589C186.473 83.5955 186.117 83.703 185.738 83.7791C185.36 83.8553 185.019 83.8934 184.717 83.8934C183.355 83.8934 182.305 83.5529 181.57 82.872C180.833 82.1911 180.466 81.2257 180.466 79.9737C180.466 78.7351 180.813 77.7786 181.507 77.1045C182.202 76.428 183.183 76.0898 184.448 76.0898ZM186.41 79.1853C186.341 78.6903 186.166 78.2983 185.884 78.0094C185.602 77.7204 185.131 77.5748 184.471 77.5748C183.837 77.5748 183.364 77.7115 183.046 77.987C182.73 78.2625 182.531 78.6611 182.448 79.183H186.41V79.1853Z" fill="#545859"/>
</g>
<defs>
<clipPath id="clip0_4317_147399">
<rect width="192" height="96" fill="white"/>
</clipPath>
</defs>
</svg>
