<svg width="156" height="156" viewBox="0 0 156 156" fill="none" xmlns="http://www.w3.org/2000/svg">
<path d="M111.941 124.414C104.472 124.414 97.5706 121.99 91.9665 117.895H9.89258V156H145.676V117.895H131.916C126.316 121.99 119.415 124.414 111.941 124.414Z" fill="#FFE67D"/>
<path d="M63.1731 104.259C35.144 104.259 12.3418 81.4567 12.3418 53.4275C12.3418 25.3984 35.144 2.5918 63.1731 2.5918C91.2023 2.5918 114.001 25.3941 114.001 53.4275C114.001 81.4567 91.2023 104.259 63.1731 104.259Z" fill="white"/>
<path d="M96.7569 60.2323C97.2104 58.0068 97.448 55.7049 97.448 53.348C97.448 34.416 82.1022 19.0703 63.1702 19.0703C44.2382 19.0703 28.8926 34.416 28.8926 53.348C28.8926 72.28 44.2382 87.6256 63.1702 87.6256C68.7658 87.6256 74.0437 86.2776 78.7068 83.8994C80.767 73.5178 87.5664 64.8488 96.7569 60.2323Z" fill="#FFE67D"/>
<path d="M37.1113 97.3185C37.1113 97.3185 62.0672 113.656 89.3842 96.9624V78.6409C89.3842 78.6409 87.3833 64.6348 73.5934 64.6348H50.9394C50.9394 64.6348 37.7599 66.589 37.6497 78.7511L37.1113 97.3185Z" fill="white"/>
<path d="M77.9966 48.4825C77.9966 56.6682 71.3581 63.3067 63.1681 63.3067C54.9866 63.3067 48.3438 56.6682 48.3438 48.4825C48.3438 40.2925 54.9823 33.6582 63.1681 33.6582C71.3581 33.6582 77.9966 40.2925 77.9966 48.4825Z" fill="white"/>
<path d="M63.1701 31.0703C53.5684 31.0703 45.7559 38.883 45.7559 48.4847C45.7559 58.0863 53.5684 65.8991 63.1701 65.8991C72.7759 65.8991 80.5888 58.0863 80.5888 48.4847C80.5846 38.883 72.7717 31.0703 63.1701 31.0703ZM63.1701 60.7188C56.4256 60.7188 50.9403 55.2334 50.9403 48.4847C50.9403 41.7402 56.4256 36.2505 63.1701 36.2505C69.9188 36.2505 75.4044 41.736 75.4044 48.4847C75.4044 55.2292 69.9145 60.7188 63.1701 60.7188Z" fill="#545859"/>
<path d="M79.1152 98.9542C74.1215 100.709 68.7546 101.667 63.1716 101.667C36.571 101.667 14.9303 80.0264 14.9303 53.4301C14.9303 26.8295 36.571 5.1887 63.1716 5.1887C89.7722 5.1887 111.409 26.8295 111.409 53.4301C111.409 54.5153 111.371 55.592 111.299 56.6603C111.515 56.6561 111.727 56.6434 111.947 56.6434C113.482 56.6434 114.991 56.7536 116.475 56.9528C116.551 55.7871 116.593 54.6128 116.593 53.4301C116.589 23.9681 92.6251 0 63.1716 0C33.7139 0 9.75 23.9681 9.75 53.4258C9.75 82.8836 33.7139 106.847 63.1716 106.847C69.3396 106.847 75.2702 105.792 80.7854 103.859C80.1071 102.282 79.5476 100.641 79.1152 98.9542Z" fill="#545859"/>
<path d="M112.026 118.95C127.724 118.95 140.449 106.225 140.449 90.5269C140.449 74.8291 127.724 62.1035 112.026 62.1035C96.3281 62.1035 83.6025 74.8291 83.6025 90.5269C83.6025 106.225 96.3281 118.95 112.026 118.95Z" fill="white"/>
<path d="M83.6373 71.9013C84.6038 70.4346 85.6806 69.0399 86.8591 67.7427C83.6882 64.432 79.2285 62.3633 74.2899 62.3633H52.0514C42.4497 62.3633 34.6328 70.176 34.6328 79.7819V97.3192H39.8173V79.7819C39.8173 73.0374 45.3069 67.5477 52.0514 67.5477H74.2899C78.0373 67.5477 81.3905 69.2392 83.6373 71.9013Z" fill="#545859"/>
<path d="M111.942 60.5078C111.535 60.5078 111.12 60.5163 110.709 60.5332L110.217 60.5544L110.352 63.8652L110.844 63.844C111.209 63.8271 111.582 63.8228 111.942 63.8228C126.665 63.8228 138.644 75.8026 138.644 90.5251C138.644 105.252 126.665 117.227 111.942 117.227C104.82 117.227 98.1183 114.447 93.0695 109.398C88.0207 104.349 85.2397 97.6469 85.2397 90.5251C85.2397 90.1563 85.2483 89.7875 85.2611 89.4272L85.2822 88.9355L81.9714 88.8041L81.9503 89.2958C81.9333 89.707 81.9248 90.1224 81.9248 90.5294C81.9248 107.083 95.3926 120.547 111.942 120.547C128.492 120.547 141.96 107.079 141.96 90.5294C141.96 73.9713 128.496 60.5078 111.942 60.5078Z" fill="#545859"/>
<path d="M95.3999 69.5611C95.9467 69.1287 96.5146 68.7133 97.0912 68.3275L97.4981 68.052L95.6499 65.3008L95.243 65.5763C94.5944 66.013 93.9543 66.4793 93.3438 66.9625L92.958 67.2677L95.014 69.8663L95.3999 69.5611Z" fill="#545859"/>
<path d="M92.3345 72.4C92.805 71.8913 93.3053 71.391 93.814 70.9205L94.1744 70.5856L91.9234 68.1523L91.563 68.4872C90.9907 69.0171 90.4312 69.5767 89.9013 70.149L89.5664 70.5093L91.9996 72.7603L92.3345 72.4Z" fill="#545859"/>
<path d="M98.8693 67.2335C99.4755 66.8901 100.103 66.5722 100.73 66.2797L101.175 66.072L99.7806 63.0664L99.3354 63.2741C98.6275 63.6005 97.9239 63.9609 97.2456 64.3466L96.8174 64.5883L98.441 67.4751L98.8693 67.2335Z" fill="#545859"/>
<path d="M106.672 64.3378C107.35 64.2021 108.045 64.0919 108.736 64.0071L109.224 63.9478L108.83 60.6582L108.342 60.7176C107.566 60.8108 106.786 60.9338 106.023 61.0864L105.54 61.1839L106.189 64.4353L106.672 64.3378Z" fill="#545859"/>
<path d="M102.658 65.4779C103.311 65.2363 103.981 65.0159 104.642 64.8293L105.117 64.6937L104.214 61.5059L103.739 61.6415C102.989 61.8535 102.238 62.0993 101.505 62.3706L101.043 62.5402L102.196 65.6475L102.658 65.4779Z" fill="#545859"/>
<path d="M85.4282 87.335C85.5088 86.644 85.619 85.9488 85.7546 85.2705L85.8521 84.7873L82.6007 84.1387L82.5032 84.6219C82.3506 85.385 82.2277 86.165 82.1344 86.945L82.0752 87.4325L85.3647 87.8225L85.4282 87.335Z" fill="#545859"/>
<path d="M89.7407 75.6777C90.1264 75.1012 90.5418 74.5332 90.97 73.9863L91.2753 73.6006L88.6724 71.5488L88.3673 71.9346C87.8798 72.5493 87.4176 73.1894 86.9852 73.8337L86.7139 74.2407L89.4652 76.0847L89.7407 75.6777Z" fill="#545859"/>
<path d="M86.2433 83.24C86.4299 82.5744 86.6504 81.9047 86.892 81.2518L87.0616 80.7898L83.9542 79.6367L83.7847 80.0988C83.5134 80.8279 83.2675 81.5825 83.0555 82.337L82.9199 82.8118L86.1078 83.7148L86.2433 83.24Z" fill="#545859"/>
<path d="M87.6972 79.3209C87.9897 78.6893 88.3077 78.0619 88.651 77.4599L88.8928 77.0318L86.0059 75.4082L85.7642 75.8364C85.3826 76.5146 85.0223 77.2183 84.6959 77.9305L84.4883 78.3756L87.4981 79.766L87.6972 79.3209Z" fill="#545859"/>
<path d="M132.147 90.5221C132.147 101.679 123.105 110.726 111.947 110.726C100.79 110.726 91.748 101.679 91.748 90.5221C91.748 79.3647 100.79 70.3184 111.947 70.3184C123.105 70.3184 132.147 79.3647 132.147 90.5221Z" fill="#FFD100"/>
<path d="M124.656 83.3573L119.107 77.8125L111.943 84.9766L104.779 77.8125L99.2344 83.3573L106.398 90.5214L99.2344 97.6856L104.779 103.23L111.943 96.0662L119.107 103.23L124.656 97.6856L117.488 90.5214L124.656 83.3573Z" fill="#FF0025"/>
<path d="M25.2119 132.84C27.4247 132.84 29.1839 133.421 30.4854 134.578C31.7868 135.735 32.4395 137.346 32.4395 139.402C32.4395 139.949 32.304 140.424 32.0285 140.826C31.7529 141.229 31.2782 141.433 30.6042 141.433H21.5027C21.5535 142.111 21.6978 142.649 21.9309 143.052C22.1641 143.455 22.4693 143.76 22.8508 143.972C23.2281 144.18 23.6773 144.315 24.1987 144.383C24.7201 144.447 25.2925 144.481 25.9157 144.481C26.5388 144.481 27.1703 144.392 27.8104 144.205C28.4463 144.023 29.1033 143.802 29.7816 143.539C30.2225 143.463 30.6083 143.535 30.9347 143.756C31.2611 143.976 31.4858 144.311 31.6172 144.752C31.7189 145.142 31.5791 145.515 31.1891 145.867C30.7991 146.219 30.2905 146.524 29.6673 146.787C29.0442 147.045 28.3702 147.249 27.6537 147.393C26.9373 147.537 26.293 147.609 25.7207 147.609C23.1433 147.609 21.155 146.965 19.7646 145.676C18.3699 144.387 17.6748 142.56 17.6748 140.191C17.6748 137.846 18.3318 136.036 19.646 134.76C20.9643 133.48 22.8168 132.84 25.2119 132.84ZM28.9255 138.698C28.7941 137.761 28.4634 137.02 27.9293 136.473C27.3951 135.926 26.5049 135.65 25.2543 135.65C24.0547 135.65 23.1603 135.909 22.5583 136.43C21.9606 136.952 21.5831 137.706 21.4263 138.694H28.9255V138.698Z" fill="#545859"/>
<path d="M43.2197 136.081C44.0803 136.213 44.9324 136.374 45.776 136.569C46.6239 136.764 47.3911 137.056 48.0821 137.446C48.7731 137.836 49.3368 138.353 49.7819 138.989C50.2228 139.629 50.4602 140.456 50.4857 141.469C50.5365 142.639 50.3499 143.623 49.9175 144.42C49.4893 145.212 48.8959 145.844 48.1413 146.315C47.3867 146.785 46.5007 147.116 45.4833 147.311C44.466 147.506 43.4147 147.603 42.321 147.603C41.8504 147.603 41.2612 147.552 40.5448 147.446C39.8284 147.345 39.1078 147.179 38.3787 146.959C37.6495 146.739 36.9712 146.45 36.3481 146.098C35.7249 145.747 35.2925 145.31 35.0594 144.788C34.9831 144.606 34.9618 144.352 35 144.025C35.0381 143.699 35.1612 143.432 35.3732 143.224C35.6614 142.86 36.0641 142.656 36.5855 142.618C37.1069 142.58 37.5351 142.677 37.8742 142.911C38.5525 143.407 39.3113 143.788 40.1592 144.064C41.007 144.339 41.7276 144.475 42.3253 144.475C42.8467 144.475 43.3808 144.449 43.9276 144.398C44.4745 144.348 44.9619 144.216 45.3943 144.008C45.8225 143.801 46.1701 143.508 46.4287 143.131C46.6873 142.754 46.806 142.228 46.7805 141.55C46.7297 140.744 46.3567 140.202 45.6657 139.93C44.9747 139.659 43.9658 139.418 42.6389 139.21C41.8843 139.104 41.0875 138.968 40.2567 138.799C39.4216 138.629 38.6414 138.358 37.9123 137.98C37.1832 137.603 36.5771 137.094 36.098 136.459C35.6148 135.823 35.3477 134.966 35.2968 133.898C35.2714 132.703 35.4707 131.711 35.9031 130.931C36.3312 130.151 36.9247 129.536 37.6792 129.095C38.4338 128.654 39.3112 128.341 40.3159 128.158C41.3163 127.976 42.3676 127.883 43.4613 127.883C45.6232 127.883 47.5605 128.468 49.2816 129.642C49.7521 129.93 50.0109 130.274 50.0617 130.676C50.1126 131.079 50.0236 131.465 49.7862 131.829C49.6803 132.037 49.519 132.19 49.2986 132.279C49.0781 132.372 48.8409 132.427 48.595 132.457C48.3491 132.482 48.099 132.478 47.8532 132.436C47.6073 132.397 47.4037 132.325 47.2469 132.219C46.5686 131.804 45.9243 131.49 45.3138 131.283C44.7034 131.075 44.0845 130.969 43.4571 130.969C42.9357 130.969 42.4143 130.99 41.8929 131.028C41.3715 131.066 40.8968 131.177 40.4686 131.359C40.0405 131.541 39.6885 131.821 39.413 132.198C39.1374 132.576 39.0145 133.088 39.04 133.741C39.0909 134.547 39.4894 135.089 40.2312 135.361C40.9731 135.632 41.9692 135.874 43.2197 136.081Z" fill="#545859"/>
<path d="M60.6006 132.84C62.8134 132.84 64.5726 133.421 65.874 134.578C67.1755 135.735 67.8282 137.346 67.8282 139.402C67.8282 139.949 67.6927 140.424 67.4171 140.826C67.1416 141.229 66.6669 141.433 65.9928 141.433H56.8913C56.9422 142.111 57.0864 142.649 57.3196 143.052C57.5527 143.455 57.8579 143.76 58.2394 143.972C58.6167 144.18 59.0659 144.315 59.5874 144.383C60.1088 144.447 60.6812 144.481 61.3043 144.481C61.9275 144.481 62.559 144.392 63.1991 144.205C63.835 144.023 64.4922 143.802 65.1705 143.539C65.6114 143.463 65.997 143.535 66.3234 143.756C66.6498 143.976 66.8744 144.311 67.0059 144.752C67.1076 145.142 66.9678 145.515 66.5778 145.867C66.1878 146.219 65.6792 146.524 65.056 146.787C64.4329 147.045 63.7588 147.249 63.0424 147.393C62.326 147.537 61.6816 147.609 61.1094 147.609C58.532 147.609 56.5437 146.965 55.1532 145.676C53.7586 144.387 53.0635 142.56 53.0635 140.191C53.0635 137.846 53.7205 136.036 55.0346 134.76C56.3488 133.48 58.2055 132.84 60.6006 132.84ZM64.3098 138.698C64.1784 137.761 63.8477 137.02 63.3136 136.473C62.7794 135.926 61.8892 135.65 60.6387 135.65C59.439 135.65 58.5446 135.909 57.9426 136.43C57.3449 136.952 56.9677 137.706 56.8108 138.694H64.3098V138.698Z" fill="#545859"/>
<path d="M76.7281 132.913C76.9867 132.888 77.3938 132.892 77.9406 132.934C78.4875 132.972 79.0131 133.078 79.5218 133.248C80.0305 133.417 80.4416 133.684 80.7511 134.049C81.0648 134.414 81.1029 134.91 80.8697 135.533V135.495C80.7637 135.808 80.5688 136.08 80.2848 136.313C79.9965 136.546 79.6319 136.639 79.191 136.588C78.9028 136.588 78.7205 136.576 78.6442 136.55C78.4619 136.525 78.2543 136.499 78.0211 136.474C77.788 136.448 77.5802 136.436 77.3979 136.436C76.5373 136.436 75.8464 136.724 75.3292 137.296C74.8078 137.869 74.5493 138.61 74.5493 139.522V145.575C74.5493 146.851 73.9262 147.487 72.6756 147.487C71.3997 147.487 70.7637 146.864 70.7637 145.613V134.443C70.7637 134.002 70.9376 133.617 71.2894 133.29C71.6413 132.964 72.0524 132.803 72.5187 132.803C73.0656 132.803 73.5021 132.951 73.8286 133.252C74.155 133.553 74.316 133.922 74.316 134.367C74.5237 133.977 74.8757 133.651 75.3717 133.392C75.8549 133.125 76.3126 132.968 76.7281 132.913Z" fill="#545859"/>
<path d="M93.0544 133.855C93.2112 133.491 93.4698 133.219 93.8343 133.033C94.1989 132.851 94.5761 132.774 94.9661 132.8C95.513 132.851 95.9837 133.075 96.3737 133.465C96.7637 133.855 96.8569 134.313 96.6492 134.83L91.4138 146.78C91.2569 147.069 90.9645 147.276 90.5364 147.404C90.1082 147.531 89.7224 147.599 89.3832 147.599C89.0441 147.599 88.6627 147.535 88.2303 147.404C87.7979 147.272 87.5095 147.064 87.3527 146.78L82.1175 134.83C81.9098 134.309 81.9988 133.855 82.393 133.465C82.7872 133.075 83.2535 132.855 83.8003 132.8C84.1903 132.774 84.5676 132.851 84.9321 133.033C85.2967 133.215 85.5554 133.491 85.7123 133.855L89.3832 143.114L93.0544 133.855Z" fill="#545859"/>
<path d="M99.498 128.658C99.498 128.06 99.7143 127.56 100.142 127.153C100.571 126.75 101.113 126.547 101.762 126.547C102.41 126.547 102.94 126.75 103.343 127.153C103.746 127.556 103.949 128.056 103.949 128.658C103.949 129.256 103.746 129.76 103.343 130.163C102.94 130.566 102.41 130.769 101.762 130.769C101.109 130.769 100.571 130.566 100.142 130.163C99.7143 129.76 99.498 129.26 99.498 128.658ZM99.888 134.402C99.888 133.961 100.083 133.588 100.473 133.287C100.863 132.986 101.291 132.838 101.762 132.838C102.283 132.838 102.733 132.986 103.11 133.287C103.487 133.588 103.678 133.957 103.678 134.402V145.962C103.678 146.403 103.483 146.776 103.093 147.077C102.703 147.378 102.27 147.526 101.804 147.526C101.283 147.526 100.833 147.378 100.456 147.077C100.079 146.776 99.888 146.407 99.888 145.962V134.402Z" fill="#545859"/>
<path d="M115.32 135.887C114.044 135.887 113.014 136.231 112.234 136.922C111.454 137.613 111.064 138.698 111.064 140.182C111.064 141.589 111.428 142.657 112.157 143.386C112.887 144.116 113.942 144.48 115.32 144.48C115.841 144.48 116.367 144.434 116.901 144.345C117.435 144.256 117.973 144.052 118.52 143.738C118.859 143.48 119.266 143.395 119.75 143.484C120.233 143.577 120.576 143.802 120.784 144.166C121.017 144.531 121.076 144.959 120.958 145.455C120.839 145.951 120.521 146.341 120 146.625C119.22 147.07 118.478 147.342 117.774 147.448C117.071 147.549 116.252 147.604 115.315 147.604C112.738 147.604 110.75 146.96 109.36 145.671C107.965 144.383 107.27 142.556 107.27 140.186C107.27 137.842 107.965 136.032 109.36 134.756C110.754 133.48 112.738 132.844 115.315 132.844C116.227 132.844 117.058 132.916 117.817 133.06C118.571 133.204 119.364 133.535 120.199 134.056C120.513 134.264 120.75 134.569 120.92 134.976C121.089 135.379 121.068 135.765 120.86 136.129C120.678 136.545 120.339 136.799 119.843 136.892C119.347 136.985 118.919 136.913 118.554 136.676C117.982 136.362 117.427 136.155 116.892 136.053C116.367 135.938 115.837 135.887 115.32 135.887Z" fill="#545859"/>
<path d="M131.097 132.84C133.309 132.84 135.069 133.421 136.37 134.578C137.672 135.735 138.325 137.346 138.325 139.402C138.325 139.949 138.189 140.424 137.913 140.826C137.638 141.229 137.163 141.433 136.489 141.433H127.387C127.438 142.111 127.583 142.649 127.816 143.052C128.049 143.455 128.354 143.76 128.736 143.972C129.113 144.18 129.562 144.315 130.084 144.383C130.605 144.447 131.177 144.481 131.8 144.481C132.424 144.481 133.055 144.392 133.695 144.205C134.331 144.023 134.988 143.802 135.667 143.539C136.107 143.463 136.493 143.535 136.82 143.756C137.146 143.976 137.371 144.311 137.502 144.752C137.604 145.142 137.464 145.515 137.074 145.867C136.684 146.219 136.175 146.524 135.552 146.787C134.929 147.045 134.255 147.249 133.539 147.393C132.822 147.537 132.178 147.609 131.605 147.609C129.028 147.609 127.04 146.965 125.65 145.676C124.255 144.387 123.56 142.56 123.56 140.191C123.56 137.846 124.217 136.036 125.531 134.76C126.845 133.48 128.702 132.84 131.097 132.84ZM134.806 138.698C134.675 137.761 134.344 137.02 133.81 136.473C133.276 135.926 132.386 135.65 131.135 135.65C129.935 135.65 129.041 135.909 128.439 136.43C127.841 136.952 127.464 137.706 127.307 138.694H134.806V138.698Z" fill="#545859"/>
</svg>
