<svg width="74" height="16" viewBox="0 0 74 16" fill="none" xmlns="http://www.w3.org/2000/svg">
<path d="M73.3536 8.35355C73.5488 8.15828 73.5488 7.8417 73.3536 7.64644L70.1716 4.46446C69.9763 4.2692 69.6597 4.2692 69.4645 4.46446C69.2692 4.65972 69.2692 4.9763 69.4645 5.17157L72.2929 7.99999L69.4645 10.8284C69.2692 11.0237 69.2692 11.3403 69.4645 11.5355C69.6597 11.7308 69.9763 11.7308 70.1716 11.5355L73.3536 8.35355ZM4.37114e-08 8.5L2.02778 8.5L2.02778 7.5L-4.37114e-08 7.5L4.37114e-08 8.5ZM6.08333 8.5L10.1389 8.5L10.1389 7.5L6.08333 7.5L6.08333 8.5ZM14.1944 8.5L18.25 8.5L18.25 7.5L14.1944 7.5L14.1944 8.5ZM22.3056 8.5L26.3611 8.5L26.3611 7.5L22.3056 7.5L22.3056 8.5ZM30.4167 8.5L34.4722 8.5L34.4722 7.5L30.4167 7.5L30.4167 8.5ZM38.5278 8.5L42.5833 8.5L42.5833 7.5L38.5278 7.5L38.5278 8.5ZM46.6389 8.5L50.6945 8.5L50.6945 7.5L46.6389 7.5L46.6389 8.5ZM54.75 8.5L58.8056 8.49999L58.8056 7.49999L54.75 7.5L54.75 8.5ZM62.8611 8.49999L66.9167 8.49999L66.9167 7.49999L62.8611 7.49999L62.8611 8.49999ZM70.9722 8.49999L73 8.49999L73 7.49999L70.9722 7.49999L70.9722 8.49999ZM73.7071 8.7071C74.0976 8.31658 74.0976 7.68341 73.7071 7.29289L67.3431 0.928926C66.9526 0.538402 66.3195 0.538402 65.9289 0.928926C65.5384 1.31945 65.5384 1.95262 65.9289 2.34314L71.5858 7.99999L65.9289 13.6568C65.5384 14.0474 65.5384 14.6805 65.9289 15.0711C66.3195 15.4616 66.9526 15.4616 67.3431 15.0711L73.7071 8.7071ZM8.74228e-08 9L2.02778 9L2.02778 7L-8.74228e-08 7L8.74228e-08 9ZM6.08333 9L10.1389 9L10.1389 7L6.08333 7L6.08333 9ZM14.1944 9L18.25 9L18.25 7L14.1944 7L14.1944 9ZM22.3056 9L26.3611 9L26.3611 7L22.3056 7L22.3056 9ZM30.4167 9L34.4722 9L34.4722 7L30.4167 7L30.4167 9ZM38.5278 9L42.5833 9L42.5833 7L38.5278 7L38.5278 9ZM46.6389 9L50.6945 9L50.6945 7L46.6389 7L46.6389 9ZM54.75 9L58.8056 8.99999L58.8056 6.99999L54.75 7L54.75 9ZM62.8611 8.99999L66.9167 8.99999L66.9167 6.99999L62.8611 6.99999L62.8611 8.99999ZM70.9722 8.99999L73 8.99999L73 6.99999L70.9722 6.99999L70.9722 8.99999Z" fill="#BBBBBB"/>
</svg>
