<svg width="163" height="163" viewBox="0 0 163 163" fill="none" xmlns="http://www.w3.org/2000/svg">
<path d="M120.754 61.231C121.738 60.175 122.275 58.7784 122.249 57.3353C122.224 55.8922 121.638 54.5154 120.617 53.4948C119.595 52.4742 118.217 51.8896 116.773 51.8641C115.328 51.8387 113.93 52.3744 112.873 53.3583L68.4898 97.6979L50.1269 79.353C49.0699 78.3691 47.6719 77.8334 46.2274 77.8589C44.7829 77.8844 43.4047 78.469 42.3831 79.4895C41.3615 80.5101 40.7764 81.887 40.7509 83.3301C40.7254 84.7732 41.2616 86.1698 42.2465 87.2257L64.5496 109.507C65.5951 110.55 67.0122 111.136 68.4898 111.136C69.9674 111.136 71.3846 110.55 72.4301 109.507L120.754 61.231Z" fill="#FFD100"/>
<path fill-rule="evenodd" clip-rule="evenodd" d="M81.5 0C36.4898 0 0 36.4898 0 81.5C0 126.51 36.4898 163 81.5 163C126.51 163 163 126.51 163 81.5C163 36.4898 126.51 0 81.5 0ZM11.1136 81.5C11.1136 62.8324 18.5293 44.9293 31.7293 31.7293C44.9293 18.5293 62.8324 11.1136 81.5 11.1136C100.168 11.1136 118.071 18.5293 131.271 31.7293C144.471 44.9293 151.886 62.8324 151.886 81.5C151.886 100.168 144.471 118.071 131.271 131.271C118.071 144.471 100.168 151.886 81.5 151.886C62.8324 151.886 44.9293 144.471 31.7293 131.271C18.5293 118.071 11.1136 100.168 11.1136 81.5Z" fill="#FFD100"/>
</svg>
