<svg width="192" height="96" viewBox="0 0 192 96" fill="none" xmlns="http://www.w3.org/2000/svg">
<g clip-path="url(#clip0_2341_369175)">
<g clip-path="url(#clip1_2341_369175)">
<path d="M54.9562 36.75L54.5442 36.5159L54.2886 36.3694L49.875 33.8406L51.1258 31.5L56.8725 34.7922V36.75H54.9562Z" fill="#545859"/>
<path d="M6.79378 36L7.20577 35.7659L7.46142 35.6194L11.875 33.0906L10.6242 30.75L4.8775 34.0422V36H6.79378Z" fill="#545859"/>
<path d="M77.1132 48.2087C77.1132 47.61 77.1437 47.0189 77.1971 46.4336H47.8047V49.9856H77.1971C77.1437 49.4003 77.1132 48.8092 77.1132 48.2087Z" fill="#545859"/>
<path d="M115.141 46.4336C115.194 47.0189 115.223 47.61 115.223 48.2087C115.223 48.8073 115.194 49.4003 115.141 49.9856H139.128V46.4336H115.141Z" fill="#545859"/>
<path d="M180.151 33.6935C180.215 23.1195 171.696 14.4953 161.122 14.4307C150.548 14.3661 141.924 22.8856 141.859 33.4596C141.795 44.0336 150.314 52.6578 160.888 52.7224C171.462 52.787 180.086 44.2675 180.151 33.6935Z" fill="white"/>
<path d="M161.088 54.0829C157.038 54.0829 153.078 52.8818 149.711 50.6315C146.343 48.3811 143.718 45.1827 142.168 41.4405C140.618 37.6984 140.213 33.5806 141.003 29.608C141.793 25.6355 143.744 21.9865 146.608 19.1225C149.472 16.2585 153.122 14.3082 157.094 13.5183C161.067 12.7283 165.185 13.1341 168.927 14.6844C172.669 16.2347 175.867 18.8599 178.117 22.2279C180.367 25.5959 181.568 29.5555 181.567 33.6059C181.561 39.0351 179.401 44.2399 175.562 48.0788C171.723 51.9176 166.518 54.0769 161.088 54.0829ZM161.088 15.7886C157.564 15.7886 154.12 16.8335 151.19 18.7913C148.26 20.7491 145.976 23.5318 144.627 26.7875C143.279 30.0432 142.926 33.6257 143.613 37.0819C144.301 40.5381 145.998 43.7128 148.49 46.2046C150.981 48.6964 154.156 50.3934 157.612 51.0808C161.069 51.7683 164.651 51.4155 167.907 50.0669C171.162 48.7184 173.945 46.4347 175.903 43.5047C177.861 40.5746 178.906 37.1298 178.906 33.6059C178.901 28.882 177.022 24.353 173.682 21.0127C170.341 17.6724 165.812 15.7936 161.088 15.7886Z" fill="#545859"/>
<path d="M161.096 54.081C154.139 54.081 148.688 45.0856 148.688 33.604C148.688 22.1223 154.139 13.125 161.096 13.125C168.053 13.125 173.489 22.1204 173.489 33.604C173.489 45.0875 168.049 54.081 161.096 54.081ZM161.096 15.7867C155.813 15.7867 151.349 23.947 151.349 33.604C151.349 43.261 155.813 51.4194 161.096 51.4194C166.379 51.4194 170.837 43.261 170.837 33.604C170.837 23.947 166.368 15.7867 161.096 15.7867Z" fill="#545859"/>
<path d="M161.092 54.082H159.758V13.126H161.092C163.798 13.0998 166.482 13.6102 168.99 14.6276C171.497 15.6451 173.778 17.1493 175.701 19.0535C177.623 20.9576 179.15 23.2239 180.191 25.7214C181.233 28.2189 181.769 30.898 181.769 33.6039C181.769 36.3099 181.233 38.9891 180.191 41.4866C179.15 43.984 177.623 46.2503 175.701 48.1545C173.778 50.0586 171.497 51.5629 168.99 52.5803C166.482 53.5977 163.798 54.1081 161.092 54.082ZM162.427 15.8372V51.3708C166.908 51.0326 171.095 49.014 174.15 45.7194C177.206 42.4247 178.904 38.0973 178.904 33.6039C178.904 29.1106 177.206 24.7832 174.15 21.4886C171.095 18.1939 166.908 16.1753 162.427 15.8372Z" fill="#545859"/>
<path d="M179.907 41.6839H142.264L141.94 40.8221C140.166 36.1734 140.166 31.034 141.94 26.3852L142.266 25.5234H179.907L180.233 26.3852C182.013 31.0334 182.013 36.1758 180.233 40.8241L179.907 41.6839ZM144.129 39.0146H178.044C179.193 35.4936 179.193 31.6985 178.044 28.1775H144.131C142.986 31.6991 142.986 35.493 144.131 39.0146H144.129Z" fill="#545859"/>
<path d="M136.508 36.6263V35.6959L141.532 32.918" fill="white"/>
<path d="M185.695 36.6294V35.6989L180.461 32.8047" fill="white"/>
<path d="M136.214 36.3861L134.891 38.6953L160.419 53.3276L161.743 51.0184L136.214 36.3861Z" fill="#545859"/>
<path d="M186.602 53.6523V67.0139L161.076 81.752L135.547 67.0139V57.8126V54.2186" fill="white"/>
<path d="M159.165 82.188L136.118 68.8836C135.538 68.5489 135.057 68.0676 134.722 67.4879C134.387 66.9082 134.211 66.2507 134.211 65.5813V55.5H135.546H136.88V66.2468L161.079 80.2146L185.274 66.2468V55.5H186.609H187.943V65.5852C187.943 66.2545 187.767 66.9121 187.432 67.4917C187.098 68.0714 186.616 68.5528 186.037 68.8874L162.993 82.1918C162.411 82.5287 161.751 82.7059 161.078 82.7052C160.406 82.7045 159.746 82.5261 159.165 82.188Z" fill="#545859"/>
<path d="M160.574 80.8912L160.406 80.6014L185.932 65.8633C186.668 67.1369 187.303 68.3419 184.958 69.4992L163.752 81.7435C163.488 81.8963 163.196 81.9955 162.893 82.0354C162.59 82.0753 162.282 82.055 161.987 81.9759C161.691 81.8968 161.415 81.7602 161.172 81.5741C160.93 81.388 160.727 81.156 160.574 80.8912Z" fill="#545859"/>
<path d="M162.419 82.0961L159.758 81.5355V51.9258H162.419V82.0961Z" fill="#545859"/>
<path d="M161.078 51.819L186.604 36.8711L191.546 46.0228C192.017 46.8962 192.13 47.9189 191.859 48.8737C191.588 49.8285 190.956 50.6402 190.097 51.1364L171.153 62.0728C170.713 62.3265 170.227 62.4899 169.723 62.5534C169.22 62.6168 168.708 62.5791 168.22 62.4424C167.731 62.3056 167.274 62.0726 166.876 61.7571C166.479 61.4415 166.148 61.0497 165.904 60.6046L161.078 51.819Z" fill="#FFD100"/>
<path d="M161.114 51.8463L135.588 36.8984L130.644 46.0597C130.174 46.9329 130.062 47.9551 130.332 48.9094C130.603 49.8638 131.234 50.6752 132.093 51.1713L151.039 62.1096C151.479 62.3634 151.965 62.5268 152.469 62.5902C152.972 62.6537 153.484 62.6159 153.973 62.4792C154.461 62.3425 154.918 62.1095 155.316 61.7939C155.713 61.4784 156.044 61.0866 156.288 60.6415L161.114 51.8463Z" fill="#FFE67D"/>
<path d="M49.979 33.6935C50.0436 23.1195 41.5241 14.4952 30.9501 14.4306C20.3761 14.366 11.7519 22.8856 11.6873 33.4596C11.6227 44.0336 20.1422 52.6578 30.7162 52.7224C41.2902 52.787 49.9144 44.2675 49.979 33.6935Z" fill="white"/>
<path d="M30.9105 54.0829C26.86 54.0833 22.9004 52.8825 19.5324 50.6324C16.1643 48.3823 13.5392 45.1839 11.9889 41.4418C10.4387 37.6997 10.033 33.5819 10.8231 29.6092C11.6132 25.6365 13.5637 21.9873 16.4279 19.1232C19.292 16.259 22.9412 14.3085 26.9139 13.5184C30.8866 12.7283 35.0043 13.134 38.7465 14.6843C42.4886 16.2345 45.687 18.8596 47.9371 22.2277C50.1872 25.5957 51.388 29.5554 51.3876 33.6059C51.3816 39.0349 49.2222 44.2398 45.3833 48.0787C41.5444 51.9175 36.3395 54.0769 30.9105 54.0829ZM30.9105 15.7886C27.3865 15.7882 23.9416 16.8328 21.0113 18.7904C18.081 20.748 15.797 23.5305 14.4482 26.7862C13.0993 30.0418 12.7462 33.6244 13.4334 37.0807C14.1207 40.5371 15.8175 43.712 18.3093 46.204C20.801 48.696 23.9757 50.3931 27.432 51.0807C30.8882 51.7683 34.4708 51.4156 37.7266 50.0671C40.9824 48.7186 43.7652 46.435 45.7231 43.5049C47.681 40.5748 48.726 37.1299 48.726 33.6059C48.721 28.8823 46.8424 24.3536 43.5025 21.0134C40.1626 17.6731 35.6341 15.7941 30.9105 15.7886Z" fill="#545859"/>
<path d="M30.9082 54.081C23.949 54.081 18.5 45.0856 18.5 33.604C18.5 22.1223 23.949 13.125 30.9082 13.125C37.8673 13.125 43.3012 22.1204 43.3012 33.604C43.3012 45.0875 37.8578 54.081 30.9082 54.081ZM30.9082 15.7867C25.6249 15.7867 21.1616 23.947 21.1616 33.604C21.1616 43.261 25.6249 51.4194 30.9082 51.4194C36.1914 51.4194 40.6472 43.261 40.6472 33.604C40.6472 23.947 36.1876 15.7867 30.9082 15.7867Z" fill="#545859"/>
<path d="M30.9049 54.081H29.5703V13.125H30.9049C36.3018 13.1771 41.46 15.3575 45.2579 19.1922C49.0558 23.0269 51.1864 28.2059 51.1864 33.603C51.1864 39.0001 49.0558 44.1791 45.2579 48.0138C41.46 51.8485 36.3018 54.0289 30.9049 54.081ZM32.2396 15.8362V51.3698C36.7202 51.0316 40.9076 49.0131 43.9629 45.7184C47.0183 42.4238 48.7161 38.0963 48.7161 33.603C48.7161 29.1096 47.0183 24.7823 43.9629 21.4876C40.9076 18.1929 36.7202 16.1744 32.2396 15.8362Z" fill="#545859"/>
<path d="M49.7279 41.6839H12.0837L11.7595 40.8221C9.98641 36.1732 9.98641 31.0342 11.7595 26.3852L12.0837 25.5234H49.726L50.0501 26.3852C51.8296 31.0337 51.8296 36.1756 50.0501 40.8241L49.7279 41.6839ZM13.9503 39.0146H47.8633C49.0123 35.4936 49.0123 31.6985 47.8633 28.1775H13.9503C12.8064 31.6993 12.8064 35.4928 13.9503 39.0146Z" fill="#545859"/>
<path d="M5.83395 36.2625L4.5 38.5898L30.2282 53.3364L31.5621 51.0091L5.83395 36.2625Z" fill="#545859"/>
<path d="M56.4147 53.6523V67.0139L30.889 81.752L5.35938 67.0139V57.8126V54.2186" fill="white"/>
<path d="M28.985 82.188L5.93787 68.8836C5.3582 68.5489 4.87684 68.0676 4.54216 67.4879C4.20748 66.9082 4.03127 66.2507 4.03125 65.5813L4.125 55.5C5.16741 55.5 5.70759 55.5 6.75 55.5L6.70051 66.2468L30.8993 80.2146L55.0942 66.2468V55.5H56.4288H57.7635V65.5852C57.7634 66.2545 57.5872 66.9121 57.2525 67.4917C56.9179 68.0714 56.4365 68.5528 55.8568 68.8874L32.8135 82.1918C32.2317 82.5287 31.5711 82.7059 30.8987 82.7052C30.2264 82.7045 29.5662 82.5261 28.985 82.188Z" fill="#545859"/>
<path d="M30.36 80.8379L30.2266 80.6053L55.7523 65.8672L56.1717 66.5936C56.2914 66.8009 56.3691 67.0298 56.4004 67.2671C56.4316 67.5045 56.4158 67.7456 56.3538 67.9768C56.2918 68.2081 56.185 68.4248 56.0392 68.6147C55.8935 68.8047 55.7117 68.964 55.5044 69.0837L33.6298 81.7131C30.6345 82.9886 31.0216 81.9819 30.36 80.8379Z" fill="#545859"/>
<path d="M32.2398 51.9258H29.5781V81.5355H32.2398V51.9258Z" fill="#545859"/>
<path d="M30.8906 51.819L56.4164 36.8711L61.3564 46.0228C61.8278 46.8962 61.9402 47.9189 61.6696 48.8737C61.399 49.8285 60.7668 50.6402 59.9074 51.1364L40.9651 62.0728C40.5254 62.3268 40.0393 62.4905 39.5355 62.5541C39.0316 62.6177 38.5201 62.58 38.0309 62.4433C37.5418 62.3065 37.085 62.0735 36.6872 61.7577C36.2894 61.442 35.9586 61.0499 35.7143 60.6046L30.8906 51.819Z" fill="#FFE67D"/>
<path d="M30.9264 51.8463L5.39874 36.8984L0.45681 46.0597C-0.0139699 46.9329 -0.125974 47.9551 0.144565 48.9094C0.415103 49.8638 1.04691 50.6752 1.90586 51.1713L20.85 62.1096C21.2897 62.3637 21.7759 62.5273 22.2797 62.5909C22.7836 62.6546 23.2952 62.6169 23.7843 62.4801C24.2734 62.3434 24.7302 62.1103 25.128 61.7946C25.5258 61.4789 25.8566 61.0868 26.1008 60.6415L30.9264 51.8463Z" fill="#FFD100"/>
<path d="M96.2124 63.2021C104.493 63.2021 111.206 56.4892 111.206 48.2085C111.206 39.9277 104.493 33.2148 96.2124 33.2148C87.9316 33.2148 81.2188 39.9277 81.2188 48.2085C81.2188 56.4892 87.9316 63.2021 96.2124 63.2021Z" fill="white"/>
<path d="M96.2793 59.4141C102.47 59.4141 107.488 54.3956 107.488 48.2051C107.488 42.0145 102.47 36.9961 96.2793 36.9961C90.0888 36.9961 85.0703 42.0145 85.0703 48.2051C85.0703 54.3956 90.0888 59.4141 96.2793 59.4141Z" fill="#FFD100"/>
<path d="M96.2128 64.5429C92.9818 64.5432 89.8232 63.5855 87.1365 61.7907C84.4499 59.9959 82.3558 57.4447 81.1191 54.4598C79.8823 51.4748 79.5586 48.1902 80.1887 45.0212C80.8188 41.8522 82.3745 38.9412 84.6591 36.6564C86.9436 34.3716 89.8543 32.8156 93.0232 32.1851C96.1921 31.5547 99.4769 31.878 102.462 33.1144C105.447 34.3508 107.999 36.4446 109.794 39.1311C111.589 41.8175 112.547 44.976 112.547 48.207C112.542 52.5378 110.82 56.6899 107.758 59.7525C104.696 62.815 100.544 64.5378 96.2128 64.5429ZM96.2128 34.5575C93.5127 34.5575 90.8733 35.3582 88.6283 36.8583C86.3833 38.3584 84.6336 40.4906 83.6005 42.9852C82.5673 45.4797 82.297 48.2246 82.8239 50.8728C83.3508 53.521 84.6512 55.9534 86.5606 57.8625C88.4699 59.7716 90.9025 61.0716 93.5507 61.5982C96.1989 62.1247 98.9439 61.8541 101.438 60.8205C103.933 59.787 106.065 58.037 107.564 55.7918C109.064 53.5466 109.865 50.9071 109.864 48.207C109.86 44.588 108.42 41.1185 105.861 38.5597C103.301 36.0008 99.8318 34.5615 96.2128 34.5575Z" fill="#545859"/>
<path d="M95.1627 56.3795L93.9386 57.6017L90.0625 53.7198L93.9386 49.8398L95.1627 51.062L92.5049 53.7198L95.1627 56.3795Z" fill="#545859"/>
<path d="M102.141 47.5703V50.5084C102.14 51.6118 101.701 52.6696 100.92 53.4498C100.14 54.23 99.0824 54.669 97.979 54.6705H92.3125V52.9412H97.979C98.6239 52.9402 99.2421 52.6836 99.6981 52.2276C100.154 51.7715 100.411 51.1533 100.412 50.5084V47.5703H102.141Z" fill="#545859"/>
<path d="M102.141 42.46L98.2631 46.34L97.0391 45.1178L99.6969 42.46L97.0391 39.8003L98.2631 38.5781L102.141 42.46Z" fill="#545859"/>
<path d="M99.8833 41.5115V43.2409H94.2168C93.5719 43.2419 92.9538 43.4985 92.4977 43.9545C92.0417 44.4106 91.7851 45.0288 91.784 45.6737C91.784 47.464 91.8202 49.4259 91.8221 49.4469L90.0929 49.4793C90.0929 49.4583 90.0547 47.4793 90.0547 45.6661C90.0562 44.5627 90.4952 43.5049 91.2755 42.7246C92.0557 41.9444 93.1134 41.5054 94.2168 41.5039L99.8833 41.5115Z" fill="#545859"/>
<path d="M6.76149 55.584C6.75695 54.9171 6.16566 54.3805 5.44081 54.3855C4.71595 54.3904 4.13202 54.935 4.13655 55.6019L4.12328 56.438C4.12782 57.1049 4.71025 57.5679 5.4351 57.563C6.15996 57.5581 6.75214 57.1049 6.7476 56.438L6.76149 55.584Z" fill="#545859"/>
<path d="M136.882 55.5164C136.877 54.8868 136.29 54.3803 135.571 54.3852C134.851 54.3901 134.212 54.9132 134.216 55.5428L134.216 56.323C134.221 56.9526 134.844 57.3902 135.564 57.3853C136.284 57.3804 136.872 56.9523 136.868 56.3227L136.882 55.5164Z" fill="#545859"/>
<path d="M187.929 55.5164C187.924 54.8868 187.337 54.3803 186.618 54.3852C185.898 54.3901 185.259 54.9132 185.263 55.5428L185.263 56.323C185.267 56.9526 185.891 57.3902 186.611 57.3853C187.331 57.3804 187.919 56.9523 187.914 56.3227L187.929 55.5164Z" fill="#545859"/>
<path d="M57.7755 55.5838C57.771 54.917 57.1797 54.3804 56.4549 54.3853C55.73 54.3903 55.1053 54.9482 55.1099 55.6151L55.1237 56.4512C55.1282 57.118 55.7243 57.5678 56.4492 57.5628C57.174 57.5579 57.7662 57.1047 57.7617 56.4379L57.7755 55.5838Z" fill="#545859"/>
<path d="M185.081 36.75L184.669 36.5159L184.414 36.3694L180 33.8406L181.251 31.5L186.997 34.7922V36.75H185.081Z" fill="#545859"/>
<path d="M138.419 36L138.831 35.7659L139.086 35.6194L143.5 33.0906L142.249 30.75L136.503 34.0422V36H138.419Z" fill="#545859"/>
</g>
</g>
<defs>
<clipPath id="clip0_2341_369175">
<rect width="192" height="96" fill="white"/>
</clipPath>
<clipPath id="clip1_2341_369175">
<rect width="192" height="69.5743" fill="white" transform="translate(0 13.125)"/>
</clipPath>
</defs>
</svg>
