<svg width="192" height="96" viewBox="0 0 192 96" fill="none" xmlns="http://www.w3.org/2000/svg">
<g clip-path="url(#clip0_4317_137591)">
<path d="M24.3711 31.6709L24.3711 35.2812L130.48 35.2813L130.48 31.6709L24.3711 31.6709Z" fill="#545859"/>
<path d="M39.7604 70.4375H9V79.2829H39.7604V70.4375Z" fill="#545859"/>
<path d="M39.7604 86.8633H9V95.7087H39.7604V86.8633Z" fill="#545859"/>
<path d="M93.8444 70.4375H63.084V79.2829H93.8444V70.4375Z" fill="#545859"/>
<path d="M93.8444 86.8633H63.084V95.7087H93.8444V86.8633Z" fill="#545859"/>
<path d="M174.284 70.1875H130.779V96.0017H174.284V70.1875Z" fill="#FFD100"/>
<path d="M163.559 78.6719H141.5V87.5173H163.559V78.6719Z" fill="#545859"/>
<path d="M152.44 60.0059C168.532 60.0059 181.576 46.9614 181.576 30.8701C181.576 14.7789 168.532 1.73438 152.44 1.73438C136.349 1.73438 123.305 14.7789 123.305 30.8701C123.305 46.9614 136.349 60.0059 152.44 60.0059Z" fill="white"/>
<path d="M152.296 0C135.292 0 121.428 13.8639 121.428 30.8687C121.428 47.8736 135.292 61.7375 152.296 61.7375C152.73 61.7375 153.163 61.7375 153.56 61.7014L154.174 61.6653L154.029 58.0188L153.416 58.0549C153.055 58.0549 152.658 58.091 152.296 58.091C137.277 58.091 125.074 45.8879 125.074 30.8687C125.074 15.8496 137.277 3.64648 152.296 3.64648C167.316 3.64648 179.519 15.8496 179.519 30.8687C179.519 31.2298 179.519 31.6269 179.483 31.988L179.447 32.6017L183.093 32.7461L183.129 32.1324C183.129 31.6991 183.165 31.302 183.165 30.8687C183.165 13.8639 169.337 0 152.296 0Z" fill="#545859"/>
<path d="M169.192 52.2399C168.65 52.6732 168.072 53.1064 167.459 53.5036L166.953 53.8646L168.975 56.8973L169.48 56.5363C170.166 56.1031 170.816 55.5976 171.43 55.1282L171.935 54.7311L169.697 51.8789L169.192 52.2399Z" fill="#545859"/>
<path d="M165.655 54.6257C165.041 54.9868 164.392 55.3117 163.742 55.6005L163.164 55.8532L164.68 59.1387L165.258 58.886C165.98 58.561 166.702 58.1639 167.424 57.7667L167.966 57.4779L166.197 54.3008L165.655 54.6257Z" fill="#545859"/>
<path d="M161.792 56.3963C161.142 56.649 160.456 56.8657 159.77 57.0462L159.156 57.2267L160.131 60.7288L160.745 60.5482C161.503 60.3316 162.297 60.0789 163.055 59.7901L163.633 59.5734L162.369 56.1797L161.792 56.3963Z" fill="#545859"/>
<path d="M157.677 57.5858C156.991 57.7302 156.268 57.8385 155.583 57.9108L154.969 57.983L155.402 61.5933L156.016 61.5211C156.81 61.4128 157.604 61.3045 158.399 61.124L159.012 61.0157L158.29 57.4414L157.677 57.5858Z" fill="#545859"/>
<path d="M174.934 45.9976C174.537 46.5753 174.104 47.153 173.671 47.7306L173.273 48.2361L176.126 50.4745L176.523 49.9691C177.028 49.3553 177.498 48.6693 177.931 48.0195L178.292 47.514L175.259 45.4922L174.934 45.9976Z" fill="#545859"/>
<path d="M179.338 34.1177C179.265 34.8397 179.157 35.5257 179.013 36.2117L178.904 36.8255L182.479 37.5475L182.587 36.9338C182.731 36.1395 182.876 35.3452 182.948 34.5509L183.02 33.9372L179.41 33.5039L179.338 34.1177Z" fill="#545859"/>
<path d="M172.298 49.3551C171.829 49.8606 171.323 50.4021 170.782 50.8715L170.312 51.3047L172.768 53.9764L173.237 53.5432C173.815 53.0016 174.392 52.4239 174.934 51.8463L175.367 51.3769L172.695 48.9219L172.298 49.3551Z" fill="#545859"/>
<path d="M178.507 38.3052C178.327 38.9911 178.074 39.6771 177.857 40.327L177.641 40.9046L181.034 42.1683L181.251 41.5906C181.54 40.8324 181.793 40.0743 182.009 39.28L182.19 38.6662L178.688 37.6914L178.507 38.3052Z" fill="#545859"/>
<path d="M177.027 42.2769C176.738 42.9267 176.414 43.5405 176.053 44.1904L175.764 44.7319L178.941 46.501L179.23 45.9595C179.627 45.2735 179.988 44.5153 180.313 43.7932L180.565 43.2156L177.28 41.6992L177.027 42.2769Z" fill="#545859"/>
<path d="M153.011 51.5455C164.429 51.1507 173.366 41.5741 172.971 30.1556C172.576 18.7371 163 9.80057 151.581 10.1953C140.163 10.5901 131.226 20.1667 131.621 31.5852C132.016 43.0037 141.592 51.9403 153.011 51.5455Z" fill="#FFD100"/>
<path d="M167.711 23.5403L162.043 17.8359L147.421 32.458L143.052 28.0894L137.348 33.7577L147.348 43.9029L167.711 23.5403Z" fill="white"/>
<path d="M147.349 45.5623L135.688 33.7202L143.053 26.355L147.421 30.7236L162.043 16.1016L169.408 23.4667L147.349 45.5623ZM139.045 33.7563L147.349 42.1685L166.015 23.5028L162.007 19.4953L147.385 34.1174L143.017 29.7488L139.045 33.7563Z" fill="#545859"/>
<path d="M24.791 45.4143C31.3671 45.1869 36.5138 39.6716 36.2864 33.0955C36.0591 26.5194 30.5438 21.3727 23.9677 21.6001C17.3915 21.8274 12.2449 27.3427 12.4722 33.9188C12.6996 40.4949 18.2149 45.6416 24.791 45.4143Z" fill="#FFE67D"/>
<path d="M78.875 45.4143C85.4511 45.1869 90.5978 39.6716 90.3704 33.0955C90.1431 26.5194 84.6278 21.3727 78.0516 21.6001C71.4755 21.8274 66.3288 27.3427 66.5562 33.9188C66.7836 40.4949 72.2989 45.6416 78.875 45.4143Z" fill="#FFE67D"/>
</g>
<defs>
<clipPath id="clip0_4317_137591">
<rect width="174.165" height="96" fill="white" transform="translate(9)"/>
</clipPath>
</defs>
</svg>
