<svg width="220" height="20" viewBox="0 0 220 20" fill="none" xmlns="http://www.w3.org/2000/svg">
<circle cx="8" cy="12" r="8" fill="#FFD100"/>
<circle cx="8" cy="12" r="4" fill="#FFF6CC"/>
<path d="M32.448 13.56C32.5333 13.496 32.64 13.4427 32.768 13.4C32.896 13.3467 33.0613 13.3573 33.264 13.432C33.4773 13.5173 33.6053 13.6613 33.648 13.864C33.7013 14.0667 33.664 14.2747 33.536 14.488C33.4613 14.5947 33.3653 14.6853 33.248 14.76C33.1307 14.824 33.0133 14.8773 32.896 14.92C32.7787 14.9627 32.6613 14.9893 32.544 15C32.4373 15.0213 32.3573 15.032 32.304 15.032C31.9733 15.032 31.712 14.9787 31.52 14.872C31.3387 14.7547 31.2 14.5947 31.104 14.392C31.008 14.1893 30.9493 13.9493 30.928 13.672C30.9067 13.3947 30.896 13.0853 30.896 12.744V8.648C30.896 8.424 30.96 8.24267 31.088 8.104C31.2267 7.96533 31.424 7.896 31.68 7.896C31.9253 7.896 32.112 7.96533 32.24 8.104C32.3787 8.24267 32.448 8.424 32.448 8.648V13.56ZM36.7059 15.016C36.2152 15.016 35.8312 14.936 35.5539 14.776C35.2765 14.616 35.0685 14.3867 34.9299 14.088C34.8019 13.7893 34.7219 13.432 34.6899 13.016C34.6579 12.5893 34.6419 12.12 34.6419 11.608V8.648C34.6419 8.424 34.7059 8.24267 34.8339 8.104C34.9619 7.96533 35.1485 7.896 35.3939 7.896C35.6605 7.896 35.8525 7.96533 35.9699 8.104C36.0979 8.24267 36.1619 8.424 36.1619 8.648V11.64C36.1619 11.9067 36.1619 12.1573 36.1619 12.392C36.1725 12.6267 36.1939 12.8347 36.2259 13.016C36.2685 13.1973 36.3272 13.3413 36.4019 13.448C36.4872 13.5547 36.6045 13.608 36.7539 13.608C36.9139 13.6187 37.0525 13.5387 37.1699 13.368C37.2872 13.1973 37.3725 13.0373 37.4259 12.888V10.504C37.4259 10.3013 37.4792 10.136 37.5859 10.008C37.6925 9.86933 37.8845 9.79467 38.1619 9.784C38.4179 9.784 38.6152 9.85333 38.7539 9.992C38.9032 10.1307 38.9779 10.3013 38.9779 10.504V12.904C38.9779 13.096 39.0205 13.2613 39.1059 13.4C39.2019 13.5387 39.3405 13.608 39.5219 13.608C39.8205 13.608 40.0125 13.4853 40.0979 13.24C40.1832 12.984 40.2259 12.6693 40.2259 12.296V8.648C40.2259 8.424 40.2899 8.24267 40.4179 8.104C40.5459 7.96533 40.7325 7.896 40.9779 7.896C41.2445 7.896 41.4365 7.96533 41.5539 8.104C41.6819 8.24267 41.7459 8.424 41.7459 8.648V12.28C41.7459 13.1547 41.5859 13.832 41.2659 14.312C40.9459 14.7813 40.3699 15.016 39.5379 15.016C39.2605 15.016 38.9885 14.9627 38.7219 14.856C38.4659 14.7493 38.2472 14.6 38.0659 14.408C37.8952 14.5893 37.6925 14.7387 37.4579 14.856C37.2339 14.9627 36.9832 15.016 36.7059 15.016ZM41.2367 5.992C41.4287 6.01333 41.5621 6.088 41.6367 6.216C41.7114 6.33333 41.7487 6.46667 41.7487 6.616C41.7381 6.776 41.6794 6.90933 41.5727 7.016C41.4661 7.112 41.3167 7.16 41.1247 7.16H36.1647C35.9727 7.16 35.8234 7.112 35.7167 7.016C35.6101 6.90933 35.5514 6.776 35.5407 6.616C35.5407 6.46667 35.5781 6.33333 35.6527 6.216C35.7274 6.088 35.8607 6.01333 36.0527 5.992H41.2367ZM41.0447 4.28C40.8634 4.28 40.7034 4.232 40.5647 4.136C40.4154 4.02933 40.3407 3.896 40.3407 3.736V2.664C40.3407 2.51467 40.4154 2.38667 40.5647 2.28C40.7034 2.17333 40.8634 2.12 41.0447 2.12C41.2261 2.12 41.3914 2.17333 41.5407 2.28C41.6794 2.38667 41.7487 2.51467 41.7487 2.664V3.736C41.7487 3.896 41.6794 4.02933 41.5407 4.136C41.3914 4.232 41.2261 4.28 41.0447 4.28ZM48.6288 7.896C48.8634 7.896 49.0501 7.96533 49.1888 8.104C49.3381 8.24267 49.4128 8.408 49.4128 8.6V12.392C49.4128 12.8293 49.3381 13.2133 49.1888 13.544C49.0501 13.864 48.8528 14.136 48.5968 14.36C48.3408 14.584 48.0368 14.7547 47.6848 14.872C47.3434 14.9787 46.9754 15.032 46.5807 15.032C46.4208 15.032 46.2501 15.0107 46.0688 14.968C45.8874 14.9253 45.7061 14.8667 45.5248 14.792C45.3541 14.7067 45.1941 14.6107 45.0448 14.504C44.8954 14.3867 44.7728 14.2587 44.6768 14.12C44.6768 14.3867 44.6074 14.6 44.4688 14.76C44.3408 14.92 44.1648 15 43.9408 15C43.6954 15 43.5088 14.9307 43.3808 14.792C43.2528 14.6533 43.1888 14.4773 43.1888 14.264V8.6C43.1888 8.408 43.2581 8.24267 43.3968 8.104C43.5461 7.96533 43.7328 7.896 43.9568 7.896C44.1808 7.896 44.3621 7.96533 44.5008 8.104C44.6501 8.24267 44.7248 8.408 44.7248 8.6V12.36C44.7781 12.5307 44.8634 12.696 44.9808 12.856C45.1088 13.0053 45.2474 13.1387 45.3968 13.256C45.5568 13.3627 45.7221 13.448 45.8928 13.512C46.0741 13.576 46.2501 13.608 46.4208 13.608C46.8154 13.608 47.1514 13.5067 47.4288 13.304C47.7168 13.1013 47.8608 12.792 47.8608 12.376V8.6C47.8608 8.408 47.9354 8.24267 48.0848 8.104C48.2341 7.96533 48.4154 7.896 48.6288 7.896ZM52.397 10.728L55.421 8.216C55.7623 8.00267 56.0343 7.896 56.237 7.896C56.4503 7.88533 56.6157 7.97067 56.733 8.152C56.989 8.54667 56.9463 8.872 56.605 9.128L55.421 10.072C55.8583 10.1467 56.1943 10.328 56.429 10.616C56.6743 10.8933 56.797 11.2933 56.797 11.816V14.2C56.797 14.7333 56.541 15 56.029 15C55.517 15 55.261 14.7333 55.261 14.2V11.768C55.261 11.48 55.1757 11.272 55.005 11.144C54.8343 11.0053 54.5997 10.9253 54.301 10.904L52.397 12.328V14.296C52.397 14.4773 52.3223 14.6427 52.173 14.792C52.0343 14.9307 51.853 15 51.629 15C51.3943 15 51.2023 14.9307 51.053 14.792C50.9143 14.6427 50.845 14.4773 50.845 14.296V8.6C50.845 8.41867 50.9143 8.25333 51.053 8.104C51.2023 7.95467 51.3943 7.88 51.629 7.88C51.853 7.88 52.0343 7.95467 52.173 8.104C52.3223 8.25333 52.397 8.41867 52.397 8.6V10.728ZM63.6756 7.896C63.9103 7.896 64.097 7.96533 64.2356 8.104C64.385 8.24267 64.4596 8.408 64.4596 8.6V12.392C64.4596 12.8293 64.385 13.2133 64.2356 13.544C64.097 13.864 63.8996 14.136 63.6436 14.36C63.3876 14.584 63.0836 14.7547 62.7316 14.872C62.3903 14.9787 62.0223 15.032 61.6276 15.032C61.4676 15.032 61.297 15.0107 61.1156 14.968C60.9343 14.9253 60.753 14.8667 60.5716 14.792C60.401 14.7067 60.241 14.6107 60.0916 14.504C59.9423 14.3867 59.8196 14.2587 59.7236 14.12C59.7236 14.3867 59.6543 14.6 59.5156 14.76C59.3876 14.92 59.2116 15 58.9876 15C58.7423 15 58.5556 14.9307 58.4276 14.792C58.2996 14.6533 58.2356 14.4773 58.2356 14.264V8.6C58.2356 8.408 58.305 8.24267 58.4436 8.104C58.593 7.96533 58.7796 7.896 59.0036 7.896C59.2276 7.896 59.409 7.96533 59.5476 8.104C59.697 8.24267 59.7716 8.408 59.7716 8.6V12.36C59.825 12.5307 59.9103 12.696 60.0276 12.856C60.1556 13.0053 60.2943 13.1387 60.4436 13.256C60.6036 13.3627 60.769 13.448 60.9396 13.512C61.121 13.576 61.297 13.608 61.4676 13.608C61.8623 13.608 62.1983 13.5067 62.4756 13.304C62.7636 13.1013 62.9076 12.792 62.9076 12.376V8.6C62.9076 8.408 62.9823 8.24267 63.1316 8.104C63.281 7.96533 63.4623 7.896 63.6756 7.896ZM66.9959 9.96C66.9959 10.1627 66.9212 10.3333 66.7719 10.472C66.6225 10.6 66.4465 10.664 66.2439 10.664C66.0092 10.664 65.8225 10.6 65.6839 10.472C65.5452 10.3333 65.4759 10.1947 65.4759 10.056C65.4759 9.75733 65.5505 9.47467 65.6999 9.208C65.8599 8.94133 66.0625 8.712 66.3079 8.52C66.5639 8.328 66.8465 8.17867 67.1559 8.072C67.4759 7.95467 67.8012 7.896 68.1319 7.896C69.0492 7.896 69.7105 8.152 70.1159 8.664C70.5319 9.16533 70.7399 9.848 70.7399 10.712V14.2C70.7399 14.7333 70.4839 15 69.9719 15C69.4705 15 69.2199 14.7333 69.2199 14.2V10.84C69.2199 10.5093 69.1879 10.2427 69.1239 10.04C69.0599 9.83733 68.9745 9.68267 68.8679 9.576C68.7719 9.45867 68.6545 9.384 68.5159 9.352C68.3879 9.30933 68.2599 9.288 68.1319 9.288C67.9292 9.288 67.7532 9.32 67.6039 9.384C67.4652 9.43733 67.3479 9.50133 67.2519 9.576C67.1665 9.65067 67.1025 9.72533 67.0599 9.8C67.0172 9.87467 66.9959 9.928 66.9959 9.96ZM75.3541 13.784C75.8341 13.784 76.2075 13.6667 76.4741 13.432C76.7408 13.1867 76.8741 12.8027 76.8741 12.28V8.776C76.8741 8.56267 76.9328 8.392 77.0501 8.264C77.1781 8.136 77.3701 8.072 77.6261 8.072C77.8928 8.072 78.0848 8.136 78.2021 8.264C78.3301 8.392 78.3941 8.56267 78.3941 8.776V12.28C78.3941 13.2293 78.1221 13.9173 77.5781 14.344C77.0341 14.7707 76.2875 14.9893 75.3381 15C74.9755 15 74.6021 14.968 74.2181 14.904C73.8341 14.84 73.4875 14.7227 73.1781 14.552C72.8795 14.3813 72.6341 14.152 72.4421 13.864C72.2608 13.5653 72.1915 13.1867 72.2341 12.728C72.2555 12.3653 72.3568 12.0667 72.5381 11.832C72.7301 11.5973 72.9808 11.4107 73.2901 11.272C73.1088 11.24 72.9541 11.176 72.8261 11.08C72.6981 10.984 72.5861 10.872 72.4901 10.744C72.4048 10.616 72.3408 10.4827 72.2981 10.344C72.2555 10.1947 72.2341 10.056 72.2341 9.928C72.2341 9.26667 72.4315 8.792 72.8261 8.504C73.2208 8.216 73.7808 8.072 74.5061 8.072C74.6768 8.072 74.8475 8.08267 75.0181 8.104C75.1995 8.12533 75.3541 8.168 75.4821 8.232C75.6101 8.296 75.7008 8.38667 75.7541 8.504C75.8181 8.61067 75.8181 8.74933 75.7541 8.92C75.7221 9.03733 75.6475 9.15467 75.5301 9.272C75.4235 9.37867 75.2848 9.4 75.1141 9.336C75.0608 9.31467 74.9968 9.304 74.9221 9.304C74.8581 9.29333 74.7835 9.28267 74.6981 9.272C74.4208 9.25067 74.1915 9.288 74.0101 9.384C73.8395 9.46933 73.7541 9.66667 73.7541 9.976C73.7541 10.1253 73.7861 10.248 73.8501 10.344C73.9248 10.44 74.0155 10.5147 74.1221 10.568C74.2395 10.6213 74.3675 10.664 74.5061 10.696C74.6448 10.7173 74.7781 10.728 74.9061 10.728H75.3061C75.4875 10.728 75.6155 10.7973 75.6901 10.936C75.7755 11.064 75.8181 11.2187 75.8181 11.4C75.8181 11.6133 75.7061 11.7573 75.4821 11.832C75.2688 11.896 75.0341 11.928 74.7781 11.928C74.3728 11.928 74.0955 12.008 73.9461 12.168C73.8075 12.328 73.7488 12.5627 73.7701 12.872C73.7808 13.064 73.8341 13.224 73.9301 13.352C74.0368 13.4693 74.1648 13.56 74.3141 13.624C74.4635 13.688 74.6288 13.7307 74.8101 13.752C74.9915 13.7733 75.1728 13.784 75.3541 13.784ZM81.5574 13.56C81.6427 13.496 81.7494 13.4427 81.8774 13.4C82.0054 13.3467 82.1707 13.3573 82.3734 13.432C82.5867 13.5173 82.7147 13.6613 82.7574 13.864C82.8107 14.0667 82.7734 14.2747 82.6454 14.488C82.5707 14.5947 82.4747 14.6853 82.3574 14.76C82.24 14.824 82.1227 14.8773 82.0054 14.92C81.888 14.9627 81.7707 14.9893 81.6534 15C81.5467 15.0213 81.4667 15.032 81.4134 15.032C81.0827 15.032 80.8214 14.9787 80.6294 14.872C80.448 14.7547 80.3094 14.5947 80.2134 14.392C80.1174 14.1893 80.0587 13.9493 80.0374 13.672C80.016 13.3947 80.0054 13.0853 80.0054 12.744V8.648C80.0054 8.424 80.0694 8.24267 80.1974 8.104C80.336 7.96533 80.5334 7.896 80.7894 7.896C81.0347 7.896 81.2214 7.96533 81.3494 8.104C81.488 8.24267 81.5574 8.424 81.5574 8.648V13.56ZM88.4553 11.24C88.4553 10.9733 88.4286 10.728 88.3753 10.504C88.3326 10.28 88.2526 10.088 88.1353 9.928C88.0179 9.768 87.8526 9.64533 87.6393 9.56C87.4259 9.464 87.1593 9.416 86.8393 9.416C86.4446 9.416 86.0766 9.464 85.7353 9.56C85.3939 9.656 85.0846 9.77867 84.8073 9.928C84.6686 9.992 84.5086 9.99733 84.3273 9.944C84.1459 9.89067 84.0233 9.784 83.9593 9.624C83.8633 9.44267 83.8473 9.26667 83.9113 9.096C83.9859 8.91467 84.1033 8.78667 84.2633 8.712C84.7113 8.47733 85.1326 8.312 85.5273 8.216C85.9219 8.12 86.3593 8.072 86.8393 8.072C87.9806 8.072 88.7859 8.36 89.2553 8.936C89.7246 9.512 89.9593 10.3333 89.9593 11.4V14.296C89.9593 14.5093 89.8953 14.68 89.7673 14.808C89.6499 14.936 89.4633 15 89.2073 15C88.9406 15 88.7433 14.936 88.6153 14.808C88.4979 14.68 88.4393 14.5093 88.4393 14.296V12.712C88.3433 12.6053 88.2099 12.5093 88.0393 12.424C87.8793 12.3387 87.7033 12.264 87.5113 12.2C87.3193 12.136 87.1273 12.088 86.9353 12.056C86.7433 12.024 86.5779 12.008 86.4393 12.008C86.2899 12.008 86.1353 12.024 85.9753 12.056C85.8259 12.0773 85.6873 12.1253 85.5593 12.2C85.4419 12.264 85.3459 12.3653 85.2713 12.504C85.1966 12.6427 85.1699 12.824 85.1913 13.048C85.2126 13.2613 85.2926 13.432 85.4313 13.56C85.5699 13.6773 85.7353 13.7467 85.9273 13.768C86.0446 13.7893 86.1673 13.7893 86.2953 13.768C86.4233 13.7467 86.5406 13.7413 86.6473 13.752C86.7646 13.752 86.8659 13.784 86.9513 13.848C87.0473 13.9013 87.1113 14.0133 87.1432 14.184C87.2073 14.472 87.1379 14.68 86.9353 14.808C86.7433 14.936 86.4766 15 86.1353 15C85.7939 15 85.4686 14.9627 85.1593 14.888C84.8606 14.8027 84.5993 14.6747 84.3753 14.504C84.1513 14.3333 83.9753 14.1093 83.8473 13.832C83.7193 13.5547 83.6659 13.2187 83.6873 12.824C83.7086 12.0987 83.9433 11.576 84.3913 11.256C84.8499 10.9253 85.4793 10.76 86.2793 10.76C86.7486 10.76 87.1433 10.8027 87.4633 10.888C87.7939 10.9733 88.1246 11.0907 88.4553 11.24ZM94.2719 15C93.3652 15 92.6452 14.7493 92.1119 14.248C91.5785 13.7467 91.3119 13.0267 91.3119 12.088V11.864C91.3119 11.3307 91.4345 10.8507 91.6799 10.424C91.9252 9.98667 92.2772 9.61867 92.7359 9.32H92.0799C91.8665 9.32 91.6959 9.26133 91.5679 9.144C91.4505 9.016 91.3919 8.85067 91.3919 8.648C91.3919 8.43467 91.4505 8.26933 91.5679 8.152C91.6852 8.024 91.8559 7.96 92.0799 7.96H92.7199C92.8052 7.96 92.9279 7.976 93.0879 8.008C93.2479 8.02933 93.4079 8.08267 93.5679 8.168C93.7279 8.25333 93.8665 8.376 93.9839 8.536C94.1012 8.696 94.1599 8.91467 94.1599 9.192C94.1599 9.544 94.0799 9.82667 93.9199 10.04C93.7705 10.2427 93.6159 10.4187 93.4559 10.568C93.3065 10.7067 93.1625 10.8667 93.0239 11.048C92.8959 11.2293 92.8319 11.512 92.8319 11.896C92.8319 12.44 92.9439 12.856 93.1679 13.144C93.4025 13.432 93.7705 13.5867 94.2719 13.608C94.4105 13.608 94.5599 13.592 94.7199 13.56C94.8799 13.5173 95.0292 13.4427 95.1679 13.336C95.3172 13.2187 95.4399 13.064 95.5359 12.872C95.6319 12.6693 95.6799 12.3973 95.6799 12.056V8.696C95.6799 8.16267 95.9305 7.896 96.4319 7.896C96.9439 7.896 97.1999 8.16267 97.1999 8.696V12.184C97.1999 13.048 96.9439 13.736 96.4319 14.248C95.9199 14.7493 95.1999 15 94.2719 15ZM104.194 8.072C104.407 8.072 104.589 8.13067 104.738 8.248C104.887 8.36533 104.962 8.50933 104.962 8.68V12.2C104.962 12.6693 104.882 13.08 104.722 13.432C104.562 13.784 104.343 14.0773 104.066 14.312C103.789 14.536 103.453 14.7067 103.058 14.824C102.674 14.9413 102.258 15 101.81 15C101.373 15 100.962 14.9413 100.578 14.824C100.194 14.7067 99.8579 14.536 99.5699 14.312C99.2819 14.0773 99.0525 13.784 98.8819 13.432C98.7219 13.08 98.6419 12.6693 98.6419 12.2V8.68C98.6419 8.50933 98.7165 8.36533 98.8659 8.248C99.0152 8.13067 99.1965 8.072 99.4099 8.072C99.6019 8.072 99.7779 8.13067 99.9379 8.248C100.098 8.36533 100.178 8.50933 100.178 8.68V12.2C100.178 12.5413 100.231 12.8133 100.338 13.016C100.455 13.2187 100.594 13.3787 100.754 13.496C100.925 13.6027 101.101 13.6773 101.282 13.72C101.474 13.7627 101.65 13.784 101.81 13.784C101.959 13.784 102.13 13.7627 102.322 13.72C102.514 13.6773 102.69 13.6027 102.85 13.496C103.021 13.3787 103.159 13.2187 103.266 13.016C103.383 12.8133 103.442 12.5413 103.442 12.2V8.68C103.442 8.50933 103.511 8.36533 103.65 8.248C103.799 8.13067 103.981 8.072 104.194 8.072ZM102.327 7.16C102.103 7.16 101.895 7.128 101.703 7.064C101.501 6.98933 101.33 6.888 101.191 6.76C101.042 6.62133 100.93 6.456 100.855 6.264C100.781 6.072 100.754 5.85333 100.775 5.608C100.829 5.10667 101.101 4.872 101.591 4.904C101.751 4.91467 101.89 4.97333 102.007 5.08C102.125 5.18667 102.178 5.30933 102.167 5.448C102.114 5.58667 102.135 5.70933 102.231 5.816C102.317 5.92267 102.439 5.976 102.599 5.976H105.255C105.469 5.976 105.618 6.03467 105.704 6.152C105.8 6.26933 105.848 6.408 105.848 6.568C105.848 6.728 105.8 6.86667 105.704 6.984C105.618 7.10133 105.469 7.16 105.255 7.16H102.327ZM108.888 12.136C108.674 12.136 108.504 12.072 108.376 11.944C108.248 11.816 108.184 11.6507 108.184 11.448C108.184 11.2347 108.248 11.064 108.376 10.936C108.504 10.808 108.674 10.744 108.888 10.744H109.512C109.8 10.744 110.029 10.8187 110.2 10.968C110.37 11.1173 110.498 11.2987 110.584 11.512C110.68 11.7147 110.738 11.9227 110.76 12.136C110.792 12.3387 110.808 12.4987 110.808 12.616C110.808 14.2053 110.141 15 108.808 15C107.901 15 107.245 14.696 106.84 14.088C106.445 13.4693 106.248 12.6053 106.248 11.496C106.248 11.2187 106.264 10.92 106.296 10.6C106.338 10.2693 106.408 9.95467 106.504 9.656C106.6 9.34667 106.738 9.05867 106.92 8.792C107.101 8.52533 107.336 8.30667 107.624 8.136C107.954 7.96533 108.29 7.88533 108.632 7.896C108.834 7.90667 109.042 7.976 109.256 8.104H109.24L109.816 8.392L110.36 8.104C110.584 8.008 110.808 7.94933 111.032 7.928C111.608 7.88533 112.061 8.056 112.392 8.44C112.722 8.824 112.888 9.41067 112.888 10.2V14.264C112.888 14.4773 112.818 14.6533 112.68 14.792C112.552 14.9307 112.36 15 112.104 15C111.858 15 111.666 14.9307 111.528 14.792C111.4 14.6533 111.336 14.4773 111.336 14.264V10.008C111.336 9.79467 111.293 9.61867 111.208 9.48C111.133 9.34133 111 9.31467 110.808 9.4L110.536 9.544H110.552C110.434 9.608 110.312 9.672 110.184 9.736C110.056 9.8 109.933 9.832 109.816 9.832C109.709 9.832 109.592 9.80533 109.464 9.752C109.346 9.69867 109.229 9.62933 109.112 9.544L109.128 9.56L108.744 9.368C108.605 9.31467 108.477 9.336 108.36 9.432C108.242 9.51733 108.141 9.66133 108.056 9.864C107.97 10.056 107.901 10.296 107.848 10.584C107.805 10.8613 107.784 11.1653 107.784 11.496C107.784 12.1253 107.874 12.632 108.056 13.016C108.248 13.4 108.504 13.592 108.824 13.592C109.016 13.592 109.154 13.496 109.24 13.304C109.325 13.112 109.368 12.9093 109.368 12.696C109.368 12.5467 109.357 12.4187 109.336 12.312C109.314 12.1947 109.288 12.136 109.256 12.136H108.888ZM117.209 10.856C117.519 10.8987 117.839 10.952 118.169 11.016C118.5 11.0693 118.799 11.1653 119.065 11.304C119.343 11.432 119.572 11.6133 119.753 11.848C119.935 12.072 120.036 12.3707 120.057 12.744C120.068 13.2027 119.988 13.5813 119.817 13.88C119.647 14.168 119.417 14.3973 119.129 14.568C118.841 14.728 118.505 14.84 118.121 14.904C117.748 14.968 117.364 15 116.969 15C116.521 15 116.132 14.9573 115.801 14.872C115.471 14.7867 115.124 14.664 114.761 14.504C114.665 14.4613 114.575 14.4027 114.489 14.328C114.415 14.2427 114.351 14.152 114.297 14.056C114.255 13.96 114.239 13.8587 114.249 13.752C114.271 13.6347 114.329 13.528 114.425 13.432C114.543 13.3147 114.687 13.24 114.857 13.208C115.028 13.176 115.193 13.2027 115.353 13.288C115.46 13.352 115.588 13.416 115.737 13.48C115.897 13.5333 116.052 13.5867 116.201 13.64C116.361 13.6827 116.516 13.72 116.665 13.752C116.815 13.7733 116.943 13.784 117.049 13.784C117.22 13.784 117.396 13.7733 117.577 13.752C117.759 13.7307 117.919 13.688 118.057 13.624C118.207 13.5493 118.324 13.4533 118.409 13.336C118.495 13.208 118.532 13.048 118.521 12.856C118.5 12.6107 118.383 12.4507 118.169 12.376C117.956 12.2907 117.625 12.2107 117.177 12.136C116.9 12.104 116.601 12.0507 116.281 11.976C115.961 11.9013 115.657 11.7947 115.369 11.656C115.092 11.5173 114.857 11.336 114.665 11.112C114.473 10.888 114.367 10.6053 114.345 10.264C114.313 9.83733 114.377 9.48533 114.537 9.208C114.697 8.92 114.921 8.696 115.209 8.536C115.497 8.36533 115.828 8.248 116.201 8.184C116.575 8.10933 116.964 8.072 117.369 8.072C117.764 8.072 118.143 8.12 118.505 8.216C118.868 8.30133 119.22 8.45067 119.561 8.664C119.721 8.77067 119.807 8.90933 119.817 9.08C119.828 9.25067 119.791 9.41067 119.705 9.56C119.641 9.66667 119.529 9.752 119.369 9.816C119.22 9.88 119.076 9.86933 118.937 9.784C118.713 9.63467 118.447 9.50667 118.137 9.4C117.828 9.29333 117.545 9.24 117.289 9.24C117.14 9.24 116.98 9.24533 116.809 9.256C116.639 9.26667 116.479 9.304 116.329 9.368C116.191 9.42133 116.073 9.50667 115.977 9.624C115.881 9.74133 115.833 9.90667 115.833 10.12C115.833 10.2587 115.876 10.3707 115.961 10.456C116.057 10.5413 116.175 10.6107 116.313 10.664C116.452 10.7173 116.601 10.76 116.761 10.792C116.921 10.8133 117.071 10.8347 117.209 10.856ZM126.991 6.04C127.204 6.04 127.385 6.09867 127.535 6.216C127.684 6.33333 127.759 6.47733 127.759 6.648V12.2C127.759 12.6693 127.679 13.08 127.519 13.432C127.359 13.784 127.14 14.0773 126.863 14.312C126.585 14.536 126.249 14.7067 125.855 14.824C125.471 14.9413 125.055 15 124.607 15C124.169 15 123.759 14.9413 123.375 14.824C122.991 14.7067 122.655 14.536 122.367 14.312C122.079 14.0773 121.849 13.784 121.679 13.432C121.519 13.08 121.439 12.6693 121.439 12.2V8.68C121.439 8.50933 121.513 8.36533 121.663 8.248C121.812 8.13067 121.993 8.072 122.207 8.072C122.399 8.072 122.575 8.13067 122.735 8.248C122.895 8.36533 122.975 8.50933 122.975 8.68V12.2C122.975 12.5413 123.028 12.8133 123.135 13.016C123.252 13.2187 123.391 13.3787 123.551 13.496C123.721 13.6027 123.897 13.6773 124.079 13.72C124.271 13.7627 124.447 13.784 124.607 13.784C124.756 13.784 124.927 13.7627 125.119 13.72C125.311 13.6773 125.487 13.6027 125.647 13.496C125.817 13.3787 125.956 13.2187 126.063 13.016C126.18 12.8133 126.239 12.5413 126.239 12.2V6.648C126.239 6.47733 126.308 6.33333 126.447 6.216C126.596 6.09867 126.777 6.04 126.991 6.04ZM132.084 10.856C132.394 10.8987 132.714 10.952 133.044 11.016C133.375 11.0693 133.674 11.1653 133.94 11.304C134.218 11.432 134.447 11.6133 134.628 11.848C134.81 12.072 134.911 12.3707 134.932 12.744C134.943 13.2027 134.863 13.5813 134.692 13.88C134.522 14.168 134.292 14.3973 134.004 14.568C133.716 14.728 133.38 14.84 132.996 14.904C132.623 14.968 132.239 15 131.844 15C131.396 15 131.007 14.9573 130.676 14.872C130.346 14.7867 129.999 14.664 129.636 14.504C129.54 14.4613 129.45 14.4027 129.364 14.328C129.29 14.2427 129.226 14.152 129.172 14.056C129.13 13.96 129.114 13.8587 129.124 13.752C129.146 13.6347 129.204 13.528 129.3 13.432C129.418 13.3147 129.562 13.24 129.732 13.208C129.903 13.176 130.068 13.2027 130.228 13.288C130.335 13.352 130.463 13.416 130.612 13.48C130.772 13.5333 130.927 13.5867 131.076 13.64C131.236 13.6827 131.391 13.72 131.54 13.752C131.69 13.7733 131.818 13.784 131.924 13.784C132.095 13.784 132.271 13.7733 132.452 13.752C132.634 13.7307 132.794 13.688 132.932 13.624C133.082 13.5493 133.199 13.4533 133.284 13.336C133.37 13.208 133.407 13.048 133.396 12.856C133.375 12.6107 133.258 12.4507 133.044 12.376C132.831 12.2907 132.5 12.2107 132.052 12.136C131.775 12.104 131.476 12.0507 131.156 11.976C130.836 11.9013 130.532 11.7947 130.244 11.656C129.967 11.5173 129.732 11.336 129.54 11.112C129.348 10.888 129.242 10.6053 129.22 10.264C129.188 9.83733 129.252 9.48533 129.412 9.208C129.572 8.92 129.796 8.696 130.084 8.536C130.372 8.36533 130.703 8.248 131.076 8.184C131.45 8.10933 131.839 8.072 132.244 8.072C132.639 8.072 133.018 8.12 133.38 8.216C133.743 8.30133 134.095 8.45067 134.436 8.664C134.596 8.77067 134.682 8.90933 134.692 9.08C134.703 9.25067 134.666 9.41067 134.58 9.56C134.516 9.66667 134.404 9.752 134.244 9.816C134.095 9.88 133.951 9.86933 133.812 9.784C133.588 9.63467 133.322 9.50667 133.012 9.4C132.703 9.29333 132.42 9.24 132.164 9.24C132.015 9.24 131.855 9.24533 131.684 9.256C131.514 9.26667 131.354 9.304 131.204 9.368C131.066 9.42133 130.948 9.50667 130.852 9.624C130.756 9.74133 130.708 9.90667 130.708 10.12C130.708 10.2587 130.751 10.3707 130.836 10.456C130.932 10.5413 131.05 10.6107 131.188 10.664C131.327 10.7173 131.476 10.76 131.636 10.792C131.796 10.8133 131.946 10.8347 132.084 10.856ZM137.978 11.048C137.54 11.048 137.14 10.968 136.778 10.808C136.426 10.648 136.223 10.3653 136.17 9.96C136.159 9.82133 136.17 9.688 136.202 9.56C136.244 9.42133 136.298 9.304 136.362 9.208C136.436 9.10133 136.532 9.02133 136.65 8.968C136.767 8.904 136.9 8.88267 137.05 8.904C137.22 8.92533 137.359 8.98933 137.466 9.096C137.583 9.192 137.636 9.30933 137.626 9.448C137.583 9.576 137.572 9.68267 137.594 9.768C137.626 9.84267 137.732 9.88 137.914 9.88H139.642C139.834 9.88 139.983 9.928 140.09 10.024C140.207 10.1093 140.266 10.2533 140.266 10.456C140.266 10.616 140.212 10.7547 140.106 10.872C139.999 10.9893 139.839 11.048 139.626 11.048H137.978ZM137.978 14.36C137.54 14.36 137.14 14.28 136.778 14.12C136.426 13.96 136.223 13.6773 136.17 13.272C136.159 13.1333 136.17 13 136.202 12.872C136.244 12.7333 136.298 12.616 136.362 12.52C136.436 12.4133 136.532 12.3333 136.65 12.28C136.767 12.216 136.9 12.1947 137.05 12.216C137.22 12.2373 137.359 12.3013 137.466 12.408C137.583 12.504 137.636 12.6213 137.626 12.76C137.583 12.888 137.572 12.9947 137.594 13.08C137.626 13.1547 137.732 13.192 137.914 13.192H139.642C139.834 13.192 139.983 13.24 140.09 13.336C140.207 13.4213 140.266 13.5653 140.266 13.768C140.266 13.928 140.212 14.0667 140.106 14.184C139.999 14.3013 139.839 14.36 139.626 14.36H137.978ZM142.988 12.12C142.988 12.6 143.111 12.9627 143.356 13.208C143.601 13.4533 143.959 13.5867 144.428 13.608C144.599 13.608 144.769 13.5813 144.94 13.528C145.111 13.4747 145.26 13.3893 145.388 13.272C145.516 13.144 145.617 12.984 145.692 12.792C145.777 12.5893 145.82 12.344 145.82 12.056V11.496C145.82 11.1227 145.724 10.8453 145.532 10.664C145.351 10.4827 145.153 10.3333 144.94 10.216C144.876 10.1733 144.796 10.0987 144.7 9.992C144.615 9.88533 144.572 9.768 144.572 9.64C144.572 9.53333 144.604 9.42133 144.668 9.304C144.732 9.18667 144.817 9.10133 144.924 9.048H144.908C145.089 8.96267 145.281 8.84 145.484 8.68C145.697 8.50933 145.895 8.312 146.076 8.088V8.104C146.119 8.04 146.177 7.992 146.252 7.96C146.337 7.928 146.428 7.912 146.524 7.912C146.62 7.90133 146.711 7.912 146.796 7.944C146.892 7.96533 146.977 8.00267 147.052 8.056C147.201 8.17333 147.287 8.32267 147.308 8.504C147.34 8.67467 147.308 8.824 147.212 8.952C147.105 9.08 146.988 9.208 146.86 9.336C146.732 9.464 146.593 9.576 146.444 9.672C146.753 9.91733 146.977 10.2107 147.116 10.552C147.265 10.8933 147.34 11.2187 147.34 11.528V12.168C147.34 13.0747 147.079 13.7733 146.556 14.264C146.033 14.744 145.319 14.9893 144.412 15C143.505 15 142.785 14.7493 142.252 14.248C141.729 13.736 141.468 13.0107 141.468 12.072V11.864C141.468 11.3307 141.591 10.856 141.836 10.44C142.092 10.0133 142.444 9.65067 142.892 9.352C142.871 9.33067 142.855 9.32 142.844 9.32H142.252C142.039 9.32 141.868 9.26133 141.74 9.144C141.612 9.016 141.548 8.85067 141.548 8.648C141.548 8.43467 141.607 8.26933 141.724 8.152C141.841 8.024 142.017 7.96 142.252 7.96H142.876C142.961 7.96 143.084 7.976 143.244 8.008C143.404 8.02933 143.564 8.08267 143.724 8.168C143.884 8.25333 144.023 8.376 144.14 8.536C144.257 8.696 144.316 8.91467 144.316 9.192C144.316 9.544 144.241 9.82667 144.092 10.04C143.943 10.2427 143.783 10.4187 143.612 10.568C143.463 10.7067 143.319 10.8667 143.18 11.048C143.052 11.2293 142.988 11.512 142.988 11.896V12.12ZM149.887 9.96C149.887 10.1627 149.812 10.3333 149.663 10.472C149.513 10.6 149.337 10.664 149.135 10.664C148.9 10.664 148.713 10.6 148.575 10.472C148.436 10.3333 148.367 10.1947 148.367 10.056C148.367 9.75733 148.441 9.47467 148.59 9.208C148.751 8.94133 148.953 8.712 149.199 8.52C149.455 8.328 149.737 8.17867 150.047 8.072C150.367 7.95467 150.692 7.896 151.023 7.896C151.94 7.896 152.601 8.152 153.007 8.664C153.423 9.16533 153.631 9.848 153.631 10.712V14.2C153.631 14.7333 153.375 15 152.863 15C152.361 15 152.111 14.7333 152.111 14.2V10.84C152.111 10.5093 152.079 10.2427 152.015 10.04C151.951 9.83733 151.865 9.68267 151.759 9.576C151.663 9.45867 151.545 9.384 151.407 9.352C151.279 9.30933 151.151 9.288 151.023 9.288C150.82 9.288 150.644 9.32 150.495 9.384C150.356 9.43733 150.239 9.50133 150.143 9.576C150.057 9.65067 149.993 9.72533 149.951 9.8C149.908 9.87467 149.887 9.928 149.887 9.96ZM156.629 12.12C156.629 12.6 156.751 12.9627 156.997 13.208C157.242 13.4533 157.599 13.5867 158.069 13.608C158.239 13.608 158.41 13.5813 158.581 13.528C158.751 13.4747 158.901 13.3893 159.029 13.272C159.157 13.144 159.258 12.984 159.333 12.792C159.418 12.5893 159.461 12.344 159.461 12.056V11.496C159.461 11.1227 159.365 10.8453 159.173 10.664C158.991 10.4827 158.794 10.3333 158.581 10.216C158.517 10.1733 158.437 10.0987 158.341 9.992C158.255 9.88533 158.213 9.768 158.213 9.64C158.213 9.53333 158.245 9.42133 158.309 9.304C158.373 9.18667 158.458 9.10133 158.565 9.048H158.549C158.73 8.96267 158.922 8.84 159.125 8.68C159.338 8.50933 159.535 8.312 159.717 8.088V8.104C159.759 8.04 159.818 7.992 159.893 7.96C159.978 7.928 160.069 7.912 160.165 7.912C160.261 7.90133 160.351 7.912 160.437 7.944C160.533 7.96533 160.618 8.00267 160.693 8.056C160.842 8.17333 160.927 8.32267 160.949 8.504C160.981 8.67467 160.949 8.824 160.853 8.952C160.746 9.08 160.629 9.208 160.501 9.336C160.373 9.464 160.234 9.576 160.085 9.672C160.394 9.91733 160.618 10.2107 160.757 10.552C160.906 10.8933 160.981 11.2187 160.981 11.528V12.168C160.981 13.0747 160.719 13.7733 160.197 14.264C159.674 14.744 158.959 14.9893 158.053 15C157.146 15 156.426 14.7493 155.893 14.248C155.37 13.736 155.109 13.0107 155.109 12.072V11.864C155.109 11.3307 155.231 10.856 155.477 10.44C155.733 10.0133 156.085 9.65067 156.533 9.352C156.511 9.33067 156.495 9.32 156.485 9.32H155.893C155.679 9.32 155.509 9.26133 155.381 9.144C155.253 9.016 155.189 8.85067 155.189 8.648C155.189 8.43467 155.247 8.26933 155.365 8.152C155.482 8.024 155.658 7.96 155.893 7.96H156.517C156.602 7.96 156.725 7.976 156.885 8.008C157.045 8.02933 157.205 8.08267 157.365 8.168C157.525 8.25333 157.663 8.376 157.781 8.536C157.898 8.696 157.957 8.91467 157.957 9.192C157.957 9.544 157.882 9.82667 157.733 10.04C157.583 10.2427 157.423 10.4187 157.253 10.568C157.103 10.7067 156.959 10.8667 156.821 11.048C156.693 11.2293 156.629 11.512 156.629 11.896V12.12ZM168.487 14.264C168.487 14.4773 168.423 14.6533 168.295 14.792C168.167 14.9307 167.98 15 167.735 15C167.49 15 167.298 14.92 167.159 14.76C167.031 14.5893 166.967 14.3707 166.967 14.104C166.764 14.3813 166.492 14.6053 166.151 14.776C165.81 14.936 165.484 15.016 165.175 15.016C164.364 15.016 163.703 14.7973 163.191 14.36C162.679 13.912 162.423 13.2507 162.423 12.376V8.6C162.423 8.41867 162.492 8.25333 162.631 8.104C162.77 7.95467 162.956 7.88 163.191 7.88C163.415 7.88 163.596 7.95467 163.735 8.104C163.884 8.25333 163.959 8.41867 163.959 8.6V12.376C163.959 12.7813 164.082 13.0853 164.327 13.288C164.583 13.4907 164.914 13.592 165.319 13.592C165.671 13.592 166.002 13.4747 166.311 13.24C166.631 13.0053 166.839 12.7067 166.935 12.344V8.6C166.935 8.41867 167.004 8.25333 167.143 8.104C167.292 7.95467 167.484 7.88 167.719 7.88C167.943 7.88 168.124 7.95467 168.263 8.104C168.412 8.25333 168.487 8.41867 168.487 8.6V14.264ZM174.526 13.56C174.611 13.496 174.718 13.4427 174.846 13.4C174.974 13.3467 175.139 13.3573 175.342 13.432C175.555 13.5173 175.683 13.6613 175.726 13.864C175.779 14.0667 175.742 14.2747 175.614 14.488C175.539 14.5947 175.443 14.6853 175.326 14.76C175.209 14.824 175.091 14.8773 174.974 14.92C174.857 14.9627 174.739 14.9893 174.622 15C174.515 15.0213 174.435 15.032 174.382 15.032C174.051 15.032 173.79 14.9787 173.598 14.872C173.417 14.7547 173.278 14.5947 173.182 14.392C173.086 14.1893 173.027 13.9493 173.006 13.672C172.985 13.3947 172.974 13.0853 172.974 12.744V8.648C172.974 8.424 173.038 8.24267 173.166 8.104C173.305 7.96533 173.502 7.896 173.758 7.896C174.003 7.896 174.19 7.96533 174.318 8.104C174.457 8.24267 174.526 8.424 174.526 8.648V13.56ZM178.462 13.56C178.547 13.496 178.654 13.4427 178.782 13.4C178.91 13.3467 179.075 13.3573 179.278 13.432C179.491 13.5173 179.619 13.6613 179.662 13.864C179.715 14.0667 179.678 14.2747 179.55 14.488C179.475 14.5947 179.379 14.6853 179.262 14.76C179.145 14.824 179.027 14.8773 178.91 14.92C178.793 14.9627 178.675 14.9893 178.558 15C178.451 15.0213 178.371 15.032 178.318 15.032C177.987 15.032 177.726 14.9787 177.534 14.872C177.353 14.7547 177.214 14.5947 177.118 14.392C177.022 14.1893 176.963 13.9493 176.942 13.672C176.921 13.3947 176.91 13.0853 176.91 12.744V8.648C176.91 8.424 176.974 8.24267 177.102 8.104C177.241 7.96533 177.438 7.896 177.694 7.896C177.939 7.896 178.126 7.96533 178.254 8.104C178.393 8.24267 178.462 8.424 178.462 8.648V13.56ZM185.362 11.24C185.362 10.9733 185.335 10.728 185.282 10.504C185.239 10.28 185.159 10.088 185.042 9.928C184.924 9.768 184.759 9.64533 184.546 9.56C184.332 9.464 184.066 9.416 183.746 9.416C183.351 9.416 182.983 9.464 182.642 9.56C182.3 9.656 181.991 9.77867 181.714 9.928C181.575 9.992 181.415 9.99733 181.234 9.944C181.052 9.89067 180.93 9.784 180.866 9.624C180.77 9.44267 180.754 9.26667 180.818 9.096C180.892 8.91467 181.01 8.78667 181.17 8.712C181.618 8.47733 182.039 8.312 182.434 8.216C182.828 8.12 183.266 8.072 183.746 8.072C184.887 8.072 185.692 8.36 186.162 8.936C186.631 9.512 186.866 10.3333 186.866 11.4V14.296C186.866 14.5093 186.802 14.68 186.674 14.808C186.556 14.936 186.37 15 186.114 15C185.847 15 185.65 14.936 185.522 14.808C185.404 14.68 185.346 14.5093 185.346 14.296V12.712C185.25 12.6053 185.116 12.5093 184.946 12.424C184.786 12.3387 184.61 12.264 184.418 12.2C184.226 12.136 184.034 12.088 183.842 12.056C183.65 12.024 183.484 12.008 183.346 12.008C183.196 12.008 183.042 12.024 182.882 12.056C182.732 12.0773 182.594 12.1253 182.466 12.2C182.348 12.264 182.252 12.3653 182.178 12.504C182.103 12.6427 182.076 12.824 182.098 13.048C182.119 13.2613 182.199 13.432 182.338 13.56C182.476 13.6773 182.642 13.7467 182.834 13.768C182.951 13.7893 183.074 13.7893 183.202 13.768C183.33 13.7467 183.447 13.7413 183.554 13.752C183.671 13.752 183.772 13.784 183.858 13.848C183.954 13.9013 184.018 14.0133 184.049 14.184C184.114 14.472 184.044 14.68 183.842 14.808C183.65 14.936 183.383 15 183.042 15C182.7 15 182.375 14.9627 182.066 14.888C181.767 14.8027 181.506 14.6747 181.282 14.504C181.058 14.3333 180.882 14.1093 180.754 13.832C180.626 13.5547 180.572 13.2187 180.594 12.824C180.615 12.0987 180.85 11.576 181.298 11.256C181.756 10.9253 182.386 10.76 183.186 10.76C183.655 10.76 184.05 10.8027 184.37 10.888C184.7 10.9733 185.031 11.0907 185.362 11.24ZM189.962 11.048C189.525 11.048 189.125 10.968 188.762 10.808C188.41 10.648 188.207 10.3653 188.154 9.96C188.143 9.82133 188.154 9.688 188.186 9.56C188.229 9.42133 188.282 9.304 188.346 9.208C188.421 9.10133 188.517 9.02133 188.634 8.968C188.751 8.904 188.885 8.88267 189.034 8.904C189.205 8.92533 189.343 8.98933 189.45 9.096C189.567 9.192 189.621 9.30933 189.61 9.448C189.567 9.576 189.557 9.68267 189.578 9.768C189.61 9.84267 189.717 9.88 189.898 9.88H191.626C191.818 9.88 191.967 9.928 192.074 10.024C192.191 10.1093 192.25 10.2533 192.25 10.456C192.25 10.616 192.197 10.7547 192.09 10.872C191.983 10.9893 191.823 11.048 191.61 11.048H189.962ZM189.962 14.36C189.525 14.36 189.125 14.28 188.762 14.12C188.41 13.96 188.207 13.6773 188.154 13.272C188.143 13.1333 188.154 13 188.186 12.872C188.229 12.7333 188.282 12.616 188.346 12.52C188.421 12.4133 188.517 12.3333 188.634 12.28C188.751 12.216 188.885 12.1947 189.034 12.216C189.205 12.2373 189.343 12.3013 189.45 12.408C189.567 12.504 189.621 12.6213 189.61 12.76C189.567 12.888 189.557 12.9947 189.578 13.08C189.61 13.1547 189.717 13.192 189.898 13.192H191.626C191.818 13.192 191.967 13.24 192.074 13.336C192.191 13.4213 192.25 13.5653 192.25 13.768C192.25 13.928 192.197 14.0667 192.09 14.184C191.983 14.3013 191.823 14.36 191.61 14.36H189.962ZM196.333 7.896C196.898 7.896 197.389 7.98133 197.805 8.152C198.231 8.32267 198.578 8.56267 198.845 8.872C199.122 9.18133 199.325 9.55467 199.453 9.992C199.591 10.4293 199.661 10.92 199.661 11.464C199.661 11.9333 199.607 12.3867 199.501 12.824C199.394 13.2507 199.218 13.6293 198.973 13.96C198.727 14.28 198.402 14.536 197.997 14.728C197.591 14.92 197.095 15.016 196.509 15.016C195.474 15.016 194.69 14.7493 194.157 14.216C193.634 13.6827 193.373 12.968 193.373 12.072C193.373 11.976 193.373 11.88 193.373 11.784C193.373 11.6773 193.383 11.5813 193.405 11.496C193.426 11.3467 193.49 11.2133 193.597 11.096C193.714 10.968 193.89 10.904 194.125 10.904H196.109C196.311 10.904 196.471 10.968 196.589 11.096C196.706 11.2133 196.765 11.368 196.765 11.56C196.765 11.7733 196.706 11.944 196.589 12.072C196.482 12.1893 196.322 12.248 196.109 12.248H194.877C194.887 12.7067 195.031 13.048 195.309 13.272C195.586 13.496 195.986 13.608 196.509 13.608C197.063 13.608 197.469 13.4213 197.725 13.048C197.991 12.6747 198.135 12.152 198.157 11.48C198.146 10.8187 198.002 10.2907 197.725 9.896C197.447 9.50133 196.983 9.304 196.333 9.304C195.981 9.304 195.645 9.368 195.325 9.496C195.015 9.61333 194.706 9.77867 194.397 9.992C194.247 10.056 194.093 10.0773 193.933 10.056C193.773 10.024 193.639 9.944 193.533 9.816C193.447 9.67733 193.405 9.528 193.405 9.368C193.405 9.208 193.458 9.06933 193.565 8.952C193.735 8.76 193.933 8.6 194.157 8.472C194.381 8.33333 194.61 8.22133 194.845 8.136C195.09 8.05067 195.341 7.992 195.597 7.96C195.853 7.91733 196.098 7.896 196.333 7.896ZM198.091 5.912V5.384C198.091 5.224 198.16 5.09067 198.299 4.984C198.427 4.86667 198.592 4.808 198.795 4.808C198.997 4.808 199.168 4.86667 199.307 4.984C199.435 5.09067 199.499 5.224 199.499 5.384V6.616C199.488 6.776 199.429 6.90933 199.323 7.016C199.216 7.112 199.067 7.16 198.875 7.16H193.915C193.723 7.16 193.573 7.10667 193.467 7C193.36 6.88267 193.301 6.744 193.291 6.584C193.291 6.43467 193.328 6.28533 193.403 6.136C193.477 5.98667 193.611 5.912 193.803 5.912H198.091ZM202.667 13.56C202.752 13.496 202.859 13.4427 202.987 13.4C203.115 13.3467 203.28 13.3573 203.483 13.432C203.696 13.5173 203.824 13.6613 203.867 13.864C203.92 14.0667 203.883 14.2747 203.755 14.488C203.68 14.5947 203.584 14.6853 203.467 14.76C203.349 14.824 203.232 14.8773 203.115 14.92C202.997 14.9627 202.88 14.9893 202.763 15C202.656 15.0213 202.576 15.032 202.523 15.032C202.192 15.032 201.931 14.9787 201.739 14.872C201.557 14.7547 201.419 14.5947 201.323 14.392C201.227 14.1893 201.168 13.9493 201.147 13.672C201.125 13.3947 201.115 13.0853 201.115 12.744V8.648C201.115 8.424 201.179 8.24267 201.307 8.104C201.445 7.96533 201.643 7.896 201.899 7.896C202.144 7.896 202.331 7.96533 202.459 8.104C202.597 8.24267 202.667 8.424 202.667 8.648V13.56ZM210.301 7.896C210.535 7.896 210.722 7.96533 210.861 8.104C211.01 8.24267 211.085 8.408 211.085 8.6V12.392C211.085 12.8293 211.01 13.2133 210.861 13.544C210.722 13.864 210.525 14.136 210.269 14.36C210.013 14.584 209.709 14.7547 209.357 14.872C209.015 14.9787 208.647 15.032 208.253 15.032C208.093 15.032 207.922 15.0107 207.741 14.968C207.559 14.9253 207.378 14.8667 207.197 14.792C207.026 14.7067 206.866 14.6107 206.717 14.504C206.567 14.3867 206.445 14.2587 206.349 14.12C206.349 14.3867 206.279 14.6 206.141 14.76C206.013 14.92 205.837 15 205.613 15C205.367 15 205.181 14.9307 205.053 14.792C204.925 14.6533 204.861 14.4773 204.861 14.264V8.6C204.861 8.408 204.93 8.24267 205.069 8.104C205.218 7.96533 205.405 7.896 205.629 7.896C205.853 7.896 206.034 7.96533 206.173 8.104C206.322 8.24267 206.397 8.408 206.397 8.6V12.36C206.45 12.5307 206.535 12.696 206.653 12.856C206.781 13.0053 206.919 13.1387 207.069 13.256C207.229 13.3627 207.394 13.448 207.565 13.512C207.746 13.576 207.922 13.608 208.093 13.608C208.487 13.608 208.823 13.5067 209.101 13.304C209.389 13.1013 209.533 12.792 209.533 12.376V8.6C209.533 8.408 209.607 8.24267 209.757 8.104C209.906 7.96533 210.087 7.896 210.301 7.896ZM217.221 11.24C217.221 10.9733 217.194 10.728 217.141 10.504C217.098 10.28 217.018 10.088 216.901 9.928C216.784 9.768 216.618 9.64533 216.405 9.56C216.192 9.464 215.925 9.416 215.605 9.416C215.21 9.416 214.842 9.464 214.501 9.56C214.16 9.656 213.85 9.77867 213.573 9.928C213.434 9.992 213.274 9.99733 213.093 9.944C212.912 9.89067 212.789 9.784 212.725 9.624C212.629 9.44267 212.613 9.26667 212.677 9.096C212.752 8.91467 212.869 8.78667 213.029 8.712C213.477 8.47733 213.898 8.312 214.293 8.216C214.688 8.12 215.125 8.072 215.605 8.072C216.746 8.072 217.552 8.36 218.021 8.936C218.49 9.512 218.725 10.3333 218.725 11.4V14.296C218.725 14.5093 218.661 14.68 218.533 14.808C218.416 14.936 218.229 15 217.973 15C217.706 15 217.509 14.936 217.381 14.808C217.264 14.68 217.205 14.5093 217.205 14.296V12.712C217.109 12.6053 216.976 12.5093 216.805 12.424C216.645 12.3387 216.469 12.264 216.277 12.2C216.085 12.136 215.893 12.088 215.701 12.056C215.509 12.024 215.344 12.008 215.205 12.008C215.056 12.008 214.901 12.024 214.741 12.056C214.592 12.0773 214.453 12.1253 214.325 12.2C214.208 12.264 214.112 12.3653 214.037 12.504C213.962 12.6427 213.936 12.824 213.957 13.048C213.978 13.2613 214.058 13.432 214.197 13.56C214.336 13.6773 214.501 13.7467 214.693 13.768C214.81 13.7893 214.933 13.7893 215.061 13.768C215.189 13.7467 215.306 13.7413 215.413 13.752C215.53 13.752 215.632 13.784 215.717 13.848C215.813 13.9013 215.877 14.0133 215.909 14.184C215.973 14.472 215.904 14.68 215.701 14.808C215.509 14.936 215.242 15 214.901 15C214.56 15 214.234 14.9627 213.925 14.888C213.626 14.8027 213.365 14.6747 213.141 14.504C212.917 14.3333 212.741 14.1093 212.613 13.832C212.485 13.5547 212.432 13.2187 212.453 12.824C212.474 12.0987 212.709 11.576 213.157 11.256C213.616 10.9253 214.245 10.76 215.045 10.76C215.514 10.76 215.909 10.8027 216.229 10.888C216.56 10.9733 216.89 11.0907 217.221 11.24Z" fill="#545859"/>
</svg>
