<svg width="325" height="44" viewBox="0 0 325 44" fill="none" xmlns="http://www.w3.org/2000/svg">
<circle cx="22" cy="22" r="22" fill="#FFD100"/>
<circle cx="22" cy="22" r="20" fill="#EFEFEF"/>
<path d="M63.104 23.976C62.976 23.976 62.8693 23.9387 62.784 23.864C62.7093 23.7787 62.672 23.6773 62.672 23.56C62.672 23.4427 62.7093 23.3467 62.784 23.272C62.8693 23.1867 62.976 23.144 63.104 23.144H63.76C63.9947 23.144 64.1813 23.2133 64.32 23.352C64.4587 23.48 64.5653 23.6347 64.64 23.816C64.7147 23.9973 64.7627 24.184 64.784 24.376C64.8053 24.5573 64.816 24.696 64.816 24.792C64.816 26.264 64.224 27 63.04 27H63.024C62.1707 27 61.5573 26.7013 61.184 26.104C60.8213 25.5067 60.64 24.6747 60.64 23.608C60.64 22.5307 60.9227 21.6827 61.488 21.064C62.064 20.4453 62.8533 20.136 63.856 20.136C64.7947 20.136 65.5467 20.3653 66.112 20.824C66.6773 21.272 66.96 21.9813 66.96 22.952V26.536C66.96 26.6747 66.9173 26.7867 66.832 26.872C66.7467 26.9573 66.624 27 66.464 27C66.304 27 66.1813 26.9573 66.096 26.872C66.0107 26.7867 65.968 26.6747 65.968 26.536V23.08C65.968 22.4187 65.808 21.9013 65.488 21.528C65.1787 21.1547 64.6347 20.968 63.856 20.968C63.12 20.968 62.56 21.208 62.176 21.688C61.8027 22.168 61.616 22.808 61.616 23.608C61.616 24.376 61.7387 24.9947 61.984 25.464C62.24 25.9227 62.592 26.152 63.04 26.152C63.232 26.152 63.3867 26.0987 63.504 25.992C63.632 25.8853 63.728 25.752 63.792 25.592C63.8667 25.432 63.9093 25.256 63.92 25.064C63.9413 24.872 63.936 24.696 63.904 24.536C63.872 24.376 63.8187 24.2427 63.744 24.136C63.68 24.0293 63.5947 23.976 63.488 23.976H63.104ZM66.4856 27.96C66.635 27.96 66.7523 28.008 66.8376 28.104C66.923 28.2107 66.9656 28.328 66.9656 28.456V28.968C66.9656 29.32 66.8323 29.624 66.5656 29.88C66.299 30.1467 65.883 30.2853 65.3176 30.296C64.7523 30.2853 64.3416 30.1467 64.0856 29.88C63.8296 29.624 63.7016 29.32 63.7016 28.968V28.68H63.3816C63.2856 28.68 63.2003 28.6587 63.1256 28.616C63.0403 28.584 62.987 28.5147 62.9656 28.408C62.9443 28.3227 62.9443 28.248 62.9656 28.184C62.987 28.0773 63.0456 28.0133 63.1416 27.992C63.227 27.9707 63.3176 27.96 63.4136 27.96H64.3256C64.411 27.96 64.4803 27.9867 64.5336 28.04C64.587 28.0933 64.6136 28.1627 64.6136 28.248V28.84C64.6136 29.0853 64.683 29.2613 64.8216 29.368C64.9496 29.4853 65.1096 29.544 65.3016 29.544C65.5043 29.544 65.675 29.4907 65.8136 29.384C65.9416 29.2773 66.0056 29.096 66.0056 28.84V28.456C66.0056 28.1253 66.1656 27.96 66.4856 27.96ZM69.7976 24.904C69.7976 25.352 69.8136 25.672 69.8456 25.864C69.8776 26.056 69.9683 26.152 70.1176 26.152C70.1496 26.152 70.187 26.136 70.2296 26.104C70.283 26.0613 70.3363 26.024 70.3896 25.992C70.4536 25.96 70.523 25.9387 70.5976 25.928C70.683 25.9067 70.7736 25.9173 70.8696 25.96C70.987 26.0133 71.0563 26.104 71.0776 26.232C71.1096 26.3493 71.083 26.472 70.9976 26.6C70.9443 26.6853 70.8696 26.76 70.7736 26.824C70.6776 26.8773 70.5763 26.92 70.4696 26.952C70.3736 26.984 70.2776 27.0053 70.1816 27.016C70.0856 27.0267 70.0163 27.032 69.9736 27.032C69.6963 27.032 69.4776 26.984 69.3176 26.888C69.1683 26.7813 69.0563 26.6373 68.9816 26.456C68.907 26.264 68.859 26.04 68.8376 25.784C68.8163 25.528 68.8056 25.2453 68.8056 24.936V20.6C68.8056 20.4613 68.8483 20.3493 68.9336 20.264C69.019 20.1787 69.1416 20.136 69.3016 20.136C69.4616 20.136 69.5843 20.1787 69.6696 20.264C69.755 20.3493 69.7976 20.4613 69.7976 20.6V24.904ZM72.9656 24.904C72.9656 25.352 72.9816 25.672 73.0136 25.864C73.0456 26.056 73.1363 26.152 73.2856 26.152C73.3176 26.152 73.355 26.136 73.3976 26.104C73.451 26.0613 73.5043 26.024 73.5576 25.992C73.6216 25.96 73.691 25.9387 73.7656 25.928C73.851 25.9067 73.9416 25.9173 74.0376 25.96C74.155 26.0133 74.2243 26.104 74.2456 26.232C74.2776 26.3493 74.251 26.472 74.1656 26.6C74.1123 26.6853 74.0376 26.76 73.9416 26.824C73.8456 26.8773 73.7443 26.92 73.6376 26.952C73.5416 26.984 73.4456 27.0053 73.3496 27.016C73.2536 27.0267 73.1843 27.032 73.1416 27.032C72.8643 27.032 72.6456 26.984 72.4856 26.888C72.3363 26.7813 72.2243 26.6373 72.1496 26.456C72.075 26.264 72.027 26.04 72.0056 25.784C71.9843 25.528 71.9736 25.2453 71.9736 24.936V20.6C71.9736 20.4613 72.0163 20.3493 72.1016 20.264C72.187 20.1787 72.3096 20.136 72.4696 20.136C72.6296 20.136 72.7523 20.1787 72.8376 20.264C72.923 20.3493 72.9656 20.4613 72.9656 20.6V24.904ZM77.0939 27.016C76.6565 27.016 76.3099 26.9413 76.0539 26.792C75.8085 26.632 75.6219 26.408 75.4939 26.12C75.3765 25.832 75.3019 25.4907 75.2699 25.096C75.2379 24.6907 75.2219 24.2373 75.2219 23.736V20.6C75.2219 20.4613 75.2592 20.3493 75.3339 20.264C75.4192 20.1787 75.5419 20.136 75.7019 20.136C75.8725 20.136 75.9952 20.1787 76.0699 20.264C76.1552 20.3493 76.1979 20.4613 76.1979 20.6V23.768C76.1979 24.088 76.1979 24.3973 76.1979 24.696C76.2085 24.984 76.2405 25.24 76.2939 25.464C76.3579 25.6773 76.4539 25.848 76.5819 25.976C76.7099 26.104 76.8965 26.168 77.1419 26.168C77.2805 26.168 77.4032 26.136 77.5099 26.072C77.6272 25.9973 77.7285 25.9067 77.8139 25.8C77.8992 25.6933 77.9685 25.5813 78.0219 25.464C78.0859 25.336 78.1339 25.2133 78.1659 25.096V22.568C78.1659 22.4507 78.1979 22.3493 78.2619 22.264C78.3365 22.1787 78.4645 22.1307 78.6459 22.12C78.8165 22.12 78.9445 22.1627 79.0299 22.248C79.1259 22.3333 79.1739 22.44 79.1739 22.568V25.096C79.1739 25.3947 79.2432 25.6507 79.3819 25.864C79.5312 26.0667 79.7605 26.168 80.0699 26.168C80.2939 26.168 80.4752 26.1253 80.6139 26.04C80.7525 25.944 80.8592 25.8213 80.9339 25.672C81.0085 25.5227 81.0565 25.3467 81.0779 25.144C81.1099 24.9307 81.1259 24.7013 81.1259 24.456V20.6C81.1259 20.4613 81.1632 20.3493 81.2379 20.264C81.3232 20.1787 81.4459 20.136 81.6059 20.136C81.7765 20.136 81.8992 20.1787 81.9739 20.264C82.0592 20.3493 82.1019 20.4613 82.1019 20.6V24.44C82.1019 25.2613 81.9525 25.896 81.6539 26.344C81.3659 26.792 80.8432 27.016 80.0859 27.016C79.7552 27.016 79.4459 26.9413 79.1579 26.792C78.8805 26.6427 78.6779 26.4293 78.5499 26.152C78.3899 26.3973 78.1819 26.6053 77.9259 26.776C77.6805 26.936 77.4032 27.016 77.0939 27.016ZM78.7622 17.096C78.5809 17.096 78.4102 17.1333 78.2502 17.208C78.0902 17.272 78.0102 17.432 78.0102 17.688C78.0102 18.0933 78.1916 18.296 78.5542 18.296C78.6929 18.296 78.8102 18.2587 78.9062 18.184C79.0022 18.1093 79.0876 18.024 79.1622 17.928C79.2049 17.8747 79.2636 17.8373 79.3382 17.816C79.4129 17.784 79.4716 17.768 79.5142 17.768C79.6422 17.768 79.7542 17.816 79.8502 17.912C79.9142 18.008 79.9942 18.0987 80.0902 18.184C80.1862 18.2587 80.2929 18.3013 80.4102 18.312C80.4849 18.3227 80.5596 18.3067 80.6342 18.264C80.7089 18.2107 80.7622 18.168 80.7943 18.136C80.8796 18.0507 80.9809 18.008 81.0982 18.008C81.2049 18.008 81.3009 18.0507 81.3862 18.136C81.4609 18.2213 81.4876 18.328 81.4662 18.456C81.4449 18.584 81.3916 18.6907 81.3062 18.776C81.2636 18.8187 81.1729 18.888 81.0342 18.984C80.8956 19.0693 80.6876 19.112 80.4102 19.112C80.1969 19.112 80.0156 19.064 79.8662 18.968C79.7169 18.8613 79.5996 18.7547 79.5142 18.648C79.4289 18.7547 79.3062 18.8613 79.1462 18.968C78.9756 19.064 78.7782 19.112 78.5542 19.112C78.0422 19.112 77.6742 18.9787 77.4502 18.712C77.2156 18.4347 77.0982 18.0933 77.0982 17.688C77.0982 17.272 77.2316 16.9307 77.4982 16.664C77.7649 16.3973 78.1702 16.264 78.7142 16.264H80.0742C80.1596 16.264 80.2556 16.264 80.3622 16.264C80.4582 16.264 80.5489 16.248 80.6342 16.216C80.7196 16.184 80.7942 16.1307 80.8582 16.056C80.9116 15.9707 80.9489 15.848 80.9702 15.688C80.9809 15.5707 81.0236 15.4853 81.0982 15.432C81.1622 15.368 81.2422 15.3307 81.3382 15.32C81.4556 15.32 81.5516 15.352 81.6262 15.416C81.6902 15.4693 81.7382 15.5387 81.7702 15.624C81.8022 15.7093 81.8182 15.8053 81.8182 15.912C81.8076 16.008 81.7969 16.0987 81.7862 16.184C81.7436 16.44 81.6529 16.632 81.5142 16.76C81.3756 16.888 81.2262 16.9787 81.0662 17.032C80.8956 17.0747 80.7302 17.096 80.5702 17.096C80.4102 17.096 80.2929 17.096 80.2182 17.096H78.7622ZM86.6023 20.136C87.0076 20.136 87.3863 20.1947 87.7383 20.312C88.0903 20.4293 88.3996 20.6107 88.6663 20.856C88.9329 21.1013 89.1409 21.4107 89.2903 21.784C89.4396 22.1573 89.5143 22.6 89.5143 23.112V26.536C89.5143 26.6747 89.4716 26.7867 89.3863 26.872C89.3009 26.9573 89.1783 27 89.0183 27C88.8583 27 88.7356 26.9573 88.6503 26.872C88.5649 26.7867 88.5223 26.6747 88.5223 26.536V23.272C88.5223 22.472 88.3463 21.8907 87.9943 21.528C87.6529 21.1653 87.1889 20.984 86.6023 20.984C86.0903 20.984 85.6583 21.0693 85.3063 21.24C84.9543 21.4107 84.6556 21.608 84.4103 21.832C84.5596 21.96 84.6663 22.184 84.7303 22.504C84.7943 22.8133 84.8263 23.16 84.8263 23.544V26.536C84.8263 26.6747 84.7836 26.7867 84.6983 26.872C84.6129 26.9573 84.4903 27 84.3303 27C84.1489 27 84.0209 26.952 83.9463 26.856C83.8716 26.76 83.8343 26.6533 83.8343 26.536V23.384C83.8343 22.936 83.7916 22.584 83.7063 22.328C83.6316 22.072 83.5249 21.864 83.3863 21.704C83.4929 21.5333 83.6423 21.3573 83.8343 21.176C84.0369 20.9947 84.2716 20.8293 84.5383 20.68C84.8156 20.52 85.1249 20.392 85.4663 20.296C85.8076 20.1893 86.1863 20.136 86.6023 20.136ZM92.3445 24.904C92.3445 25.352 92.3605 25.672 92.3925 25.864C92.4245 26.056 92.5152 26.152 92.6645 26.152C92.6965 26.152 92.7338 26.136 92.7765 26.104C92.8298 26.0613 92.8832 26.024 92.9365 25.992C93.0005 25.96 93.0698 25.9387 93.1445 25.928C93.2298 25.9067 93.3205 25.9173 93.4165 25.96C93.5338 26.0133 93.6032 26.104 93.6245 26.232C93.6565 26.3493 93.6298 26.472 93.5445 26.6C93.4912 26.6853 93.4165 26.76 93.3205 26.824C93.2245 26.8773 93.1232 26.92 93.0165 26.952C92.9205 26.984 92.8245 27.0053 92.7285 27.016C92.6325 27.0267 92.5632 27.032 92.5205 27.032C92.2432 27.032 92.0245 26.984 91.8645 26.888C91.7152 26.7813 91.6032 26.6373 91.5285 26.456C91.4538 26.264 91.4058 26.04 91.3845 25.784C91.3632 25.528 91.3525 25.2453 91.3525 24.936V20.6C91.3525 20.4613 91.3952 20.3493 91.4805 20.264C91.5658 20.1787 91.6885 20.136 91.8485 20.136C92.0085 20.136 92.1312 20.1787 92.2165 20.264C92.3018 20.3493 92.3445 20.4613 92.3445 20.6V24.904ZM97.4929 20.136C97.8982 20.136 98.2769 20.1947 98.6289 20.312C98.9809 20.4293 99.2902 20.6107 99.5569 20.856C99.8235 21.1013 100.032 21.4107 100.181 21.784C100.33 22.1573 100.405 22.6 100.405 23.112V26.536C100.405 26.6747 100.362 26.7867 100.277 26.872C100.192 26.9573 100.069 27 99.9089 27C99.7489 27 99.6262 26.9573 99.5409 26.872C99.4555 26.7867 99.4129 26.6747 99.4129 26.536V23.272C99.4129 22.472 99.2369 21.8907 98.8849 21.528C98.5435 21.1653 98.0795 20.984 97.4929 20.984C96.9809 20.984 96.5489 21.0693 96.1969 21.24C95.8449 21.4107 95.5462 21.608 95.3009 21.832C95.4502 21.96 95.5569 22.184 95.6209 22.504C95.6849 22.8133 95.7169 23.16 95.7169 23.544V26.536C95.7169 26.6747 95.6742 26.7867 95.5889 26.872C95.5035 26.9573 95.3809 27 95.2209 27C95.0395 27 94.9115 26.952 94.8369 26.856C94.7622 26.76 94.7249 26.6533 94.7249 26.536V23.384C94.7249 22.936 94.6822 22.584 94.5969 22.328C94.5222 22.072 94.4155 21.864 94.2769 21.704C94.3835 21.5333 94.5329 21.3573 94.7249 21.176C94.9275 20.9947 95.1622 20.8293 95.4289 20.68C95.7062 20.52 96.0155 20.392 96.3569 20.296C96.6982 20.1893 97.0769 20.136 97.4929 20.136ZM104.675 27C104.238 27 103.891 26.9253 103.635 26.776C103.379 26.616 103.176 26.408 103.027 26.152C102.888 25.8853 102.792 25.5813 102.739 25.24C102.686 24.8987 102.643 24.5413 102.611 24.168H102.163C101.918 24.168 101.795 24.0347 101.795 23.768C101.795 23.6507 101.827 23.56 101.891 23.496C101.955 23.4213 102.046 23.384 102.163 23.384H103.203C103.32 23.384 103.406 23.416 103.459 23.48C103.512 23.544 103.539 23.624 103.539 23.72C103.539 23.9973 103.544 24.2853 103.555 24.584C103.576 24.872 103.624 25.1333 103.699 25.368C103.774 25.6027 103.886 25.7947 104.035 25.944C104.195 26.0933 104.414 26.168 104.691 26.168C104.958 26.168 105.171 26.0987 105.331 25.96C105.502 25.8107 105.63 25.6133 105.715 25.368C105.8 25.1227 105.859 24.84 105.891 24.52C105.923 24.1893 105.939 23.8427 105.939 23.48C105.939 23.128 105.923 22.8027 105.891 22.504C105.87 22.1947 105.806 21.928 105.699 21.704C105.592 21.48 105.427 21.304 105.203 21.176C104.979 21.048 104.675 20.984 104.291 20.984C103.875 20.984 103.502 21.0533 103.171 21.192C102.851 21.32 102.558 21.5013 102.291 21.736C102.206 21.7893 102.099 21.8107 101.971 21.8C101.843 21.7893 101.747 21.736 101.683 21.64C101.598 21.5333 101.571 21.4213 101.603 21.304C101.635 21.1867 101.699 21.096 101.795 21.032C102.168 20.7227 102.552 20.4933 102.947 20.344C103.352 20.1947 103.8 20.12 104.291 20.12C104.814 20.12 105.24 20.1947 105.571 20.344C105.912 20.4827 106.179 20.6907 106.371 20.968C106.574 21.2453 106.712 21.592 106.787 22.008C106.872 22.4133 106.915 22.8827 106.915 23.416C106.915 23.8533 106.883 24.2907 106.819 24.728C106.766 25.1547 106.659 25.5387 106.499 25.88C106.339 26.2107 106.11 26.4827 105.811 26.696C105.523 26.8987 105.144 27 104.675 27ZM113.835 18.072C113.973 18.072 114.091 18.1147 114.187 18.2C114.283 18.2747 114.331 18.3707 114.331 18.488V24.312C114.331 24.76 114.256 25.1547 114.107 25.496C113.957 25.8267 113.749 26.104 113.483 26.328C113.216 26.552 112.901 26.7227 112.539 26.84C112.176 26.9467 111.781 27 111.355 27C110.949 27 110.565 26.9467 110.203 26.84C109.84 26.7227 109.52 26.552 109.243 26.328C108.976 26.104 108.763 25.8267 108.603 25.496C108.443 25.1547 108.363 24.76 108.363 24.312V20.552C108.363 20.4347 108.411 20.3387 108.507 20.264C108.603 20.1787 108.72 20.136 108.859 20.136C108.987 20.136 109.099 20.1787 109.195 20.264C109.301 20.3387 109.355 20.4347 109.355 20.552V24.312C109.355 24.7067 109.424 25.0267 109.562 25.272C109.701 25.5067 109.872 25.6933 110.075 25.832C110.277 25.96 110.491 26.0507 110.715 26.104C110.949 26.1467 111.163 26.168 111.355 26.168C111.536 26.168 111.739 26.1467 111.963 26.104C112.197 26.0507 112.416 25.96 112.619 25.832C112.821 25.6933 112.992 25.5067 113.131 25.272C113.269 25.0267 113.339 24.7067 113.339 24.312V18.488C113.339 18.3707 113.381 18.2747 113.467 18.2C113.563 18.1147 113.685 18.072 113.835 18.072ZM110.005 19C109.802 19 109.616 18.9627 109.445 18.888C109.264 18.8133 109.114 18.712 108.997 18.584C108.869 18.456 108.778 18.3067 108.725 18.136C108.661 17.9547 108.656 17.7573 108.709 17.544C108.762 17.2347 108.944 17.096 109.253 17.128C109.36 17.1493 109.45 17.2027 109.525 17.288C109.6 17.3627 109.626 17.448 109.605 17.544C109.53 17.7253 109.557 17.88 109.685 18.008C109.813 18.136 109.968 18.2 110.149 18.2H112.149C112.277 18.2 112.378 18.2427 112.453 18.328C112.517 18.4027 112.549 18.4933 112.549 18.6C112.549 18.7173 112.517 18.8133 112.453 18.888C112.378 18.9627 112.277 19 112.149 19H110.005ZM118.597 27C118.16 27 117.813 26.9253 117.557 26.776C117.301 26.616 117.098 26.408 116.949 26.152C116.81 25.8853 116.714 25.5813 116.661 25.24C116.608 24.8987 116.565 24.5413 116.533 24.168H116.085C115.84 24.168 115.717 24.0347 115.717 23.768C115.717 23.6507 115.749 23.56 115.813 23.496C115.877 23.4213 115.968 23.384 116.085 23.384H117.125C117.242 23.384 117.328 23.416 117.381 23.48C117.434 23.544 117.461 23.624 117.461 23.72C117.461 23.9973 117.466 24.2853 117.477 24.584C117.498 24.872 117.546 25.1333 117.621 25.368C117.696 25.6027 117.808 25.7947 117.957 25.944C118.117 26.0933 118.336 26.168 118.613 26.168C118.88 26.168 119.093 26.0987 119.253 25.96C119.424 25.8107 119.552 25.6133 119.637 25.368C119.722 25.1227 119.781 24.84 119.813 24.52C119.845 24.1893 119.861 23.8427 119.861 23.48C119.861 23.128 119.845 22.8027 119.813 22.504C119.792 22.1947 119.728 21.928 119.621 21.704C119.514 21.48 119.349 21.304 119.125 21.176C118.901 21.048 118.597 20.984 118.213 20.984C117.797 20.984 117.424 21.0533 117.093 21.192C116.773 21.32 116.48 21.5013 116.213 21.736C116.128 21.7893 116.021 21.8107 115.893 21.8C115.765 21.7893 115.669 21.736 115.605 21.64C115.52 21.5333 115.493 21.4213 115.525 21.304C115.557 21.1867 115.621 21.096 115.717 21.032C116.09 20.7227 116.474 20.4933 116.869 20.344C117.274 20.1947 117.722 20.12 118.213 20.12C118.736 20.12 119.162 20.1947 119.493 20.344C119.834 20.4827 120.101 20.6907 120.293 20.968C120.496 21.2453 120.634 21.592 120.709 22.008C120.794 22.4133 120.837 22.8827 120.837 23.416C120.837 23.8533 120.805 24.2907 120.741 24.728C120.688 25.1547 120.581 25.5387 120.421 25.88C120.261 26.2107 120.032 26.4827 119.733 26.696C119.445 26.8987 119.066 27 118.597 27ZM124.956 27C124.519 27 124.172 26.9253 123.916 26.776C123.66 26.616 123.458 26.408 123.308 26.152C123.17 25.8853 123.074 25.5813 123.02 25.24C122.967 24.8987 122.924 24.5413 122.892 24.168H122.444C122.199 24.168 122.076 24.0347 122.076 23.768C122.076 23.6507 122.108 23.56 122.172 23.496C122.236 23.4213 122.327 23.384 122.444 23.384H123.484C123.602 23.384 123.687 23.416 123.74 23.48C123.794 23.544 123.82 23.624 123.82 23.72C123.82 23.9973 123.826 24.2853 123.836 24.584C123.858 24.872 123.906 25.1333 123.98 25.368C124.055 25.6027 124.167 25.7947 124.316 25.944C124.476 26.0933 124.695 26.168 124.972 26.168C125.239 26.168 125.452 26.0987 125.612 25.96C125.783 25.8107 125.911 25.6133 125.996 25.368C126.082 25.1227 126.14 24.84 126.172 24.52C126.204 24.1893 126.22 23.8427 126.22 23.48C126.22 23.128 126.204 22.8027 126.172 22.504C126.151 22.1947 126.087 21.928 125.98 21.704C125.874 21.48 125.708 21.304 125.484 21.176C125.26 21.048 124.956 20.984 124.572 20.984C124.156 20.984 123.783 21.0533 123.452 21.192C123.132 21.32 122.839 21.5013 122.572 21.736C122.487 21.7893 122.38 21.8107 122.252 21.8C122.124 21.7893 122.028 21.736 121.964 21.64C121.879 21.5333 121.852 21.4213 121.884 21.304C121.916 21.1867 121.98 21.096 122.076 21.032C122.45 20.7227 122.834 20.4933 123.228 20.344C123.634 20.1947 124.082 20.12 124.572 20.12C125.095 20.12 125.522 20.1947 125.852 20.344C126.194 20.4827 126.46 20.6907 126.652 20.968C126.855 21.2453 126.994 21.592 127.068 22.008C127.154 22.4133 127.196 22.8827 127.196 23.416C127.196 23.8533 127.164 24.2907 127.1 24.728C127.047 25.1547 126.94 25.5387 126.78 25.88C126.62 26.2107 126.391 26.4827 126.092 26.696C125.804 26.8987 125.426 27 124.956 27ZM126.564 27.96C126.884 27.96 127.044 28.1253 127.044 28.456V29.624C127.044 29.8267 127.006 29.9707 126.932 30.056C126.857 30.1413 126.729 30.184 126.548 30.184C126.356 30.184 126.228 30.136 126.164 30.04C126.089 29.9547 126.052 29.816 126.052 29.624V28.728H125.636C125.294 28.728 125.124 28.6 125.124 28.344C125.124 28.088 125.294 27.96 125.636 27.96H126.564ZM134.116 20.136C134.254 20.136 134.372 20.1787 134.468 20.264C134.564 20.3387 134.612 20.4347 134.612 20.552V24.312C134.612 24.76 134.537 25.1547 134.388 25.496C134.238 25.8267 134.03 26.104 133.764 26.328C133.497 26.552 133.182 26.7227 132.82 26.84C132.457 26.9467 132.062 27 131.636 27C131.23 27 130.846 26.9467 130.484 26.84C130.121 26.7227 129.801 26.552 129.524 26.328C129.257 26.104 129.044 25.8267 128.884 25.496C128.724 25.1547 128.644 24.76 128.644 24.312V20.552C128.644 20.4347 128.692 20.3387 128.788 20.264C128.884 20.1787 129.001 20.136 129.14 20.136C129.268 20.136 129.38 20.1787 129.476 20.264C129.582 20.3387 129.636 20.4347 129.636 20.552V24.312C129.636 24.7067 129.705 25.0267 129.844 25.272C129.982 25.5067 130.153 25.6933 130.356 25.832C130.558 25.96 130.772 26.0507 130.996 26.104C131.23 26.1467 131.444 26.168 131.636 26.168C131.817 26.168 132.02 26.1467 132.244 26.104C132.478 26.0507 132.697 25.96 132.9 25.832C133.102 25.6933 133.273 25.5067 133.412 25.272C133.55 25.0267 133.62 24.7067 133.62 24.312V20.552C133.62 20.4347 133.662 20.3387 133.748 20.264C133.844 20.1787 133.966 20.136 134.116 20.136ZM132.142 19C131.94 19 131.748 18.9627 131.566 18.888C131.385 18.8133 131.236 18.712 131.118 18.584C130.99 18.456 130.9 18.3067 130.846 18.136C130.782 17.9547 130.777 17.7573 130.83 17.544C130.884 17.2347 131.07 17.096 131.39 17.128C131.497 17.1493 131.588 17.2027 131.662 17.288C131.726 17.3627 131.748 17.448 131.726 17.544C131.662 17.7253 131.694 17.88 131.822 18.008C131.94 18.136 132.089 18.2 132.27 18.2H135.246C135.374 18.2 135.47 18.2427 135.534 18.328C135.609 18.4027 135.646 18.4933 135.646 18.6C135.646 18.7173 135.609 18.8133 135.534 18.888C135.47 18.9627 135.374 19 135.246 19H132.142ZM141.982 26.536C141.982 26.6747 141.94 26.7867 141.854 26.872C141.78 26.9573 141.662 27 141.502 27C141.332 27 141.209 26.9573 141.134 26.872C141.06 26.7867 141.022 26.6747 141.022 26.536V25.976C140.777 26.296 140.452 26.552 140.046 26.744C139.641 26.9253 139.225 27.016 138.798 27.016C138.425 27.016 138.078 26.968 137.758 26.872C137.438 26.7653 137.161 26.6107 136.926 26.408C136.702 26.1947 136.526 25.9333 136.398 25.624C136.27 25.3147 136.206 24.9573 136.206 24.552V20.552C136.206 20.4347 136.249 20.3333 136.334 20.248C136.43 20.1627 136.553 20.12 136.702 20.12C136.852 20.12 136.969 20.1627 137.054 20.248C137.15 20.3333 137.198 20.4347 137.198 20.552V24.552C137.198 25.0747 137.358 25.4747 137.678 25.752C137.998 26.0187 138.425 26.152 138.958 26.152C139.182 26.152 139.401 26.1093 139.614 26.024C139.838 25.9387 140.041 25.8267 140.222 25.688C140.404 25.5387 140.564 25.368 140.702 25.176C140.841 24.9733 140.937 24.76 140.99 24.536V20.552C140.99 20.4347 141.033 20.3333 141.118 20.248C141.214 20.1627 141.337 20.12 141.486 20.12C141.636 20.12 141.753 20.1627 141.838 20.248C141.934 20.3333 141.982 20.4347 141.982 20.552V26.536Z" fill="#545859"/>
<g clip-path="url(#clip0_2373_366126)">
<path d="M34.6172 32.8565H33.9726V31.7643H34.4948C34.6333 31.7643 34.7662 31.7092 34.8641 31.6113C34.9621 31.5134 35.0171 31.3805 35.0171 31.242V17.0842C35.0171 16.9457 34.9621 16.8129 34.8641 16.7149C34.7662 16.617 34.6333 16.5619 34.4948 16.5619H9.72465C9.58614 16.5619 9.4533 16.617 9.35536 16.7149C9.25742 16.8129 9.20239 16.9457 9.20239 17.0842V31.242C9.20239 31.3805 9.25742 31.5134 9.35536 31.6113C9.4533 31.7092 9.58614 31.7643 9.72465 31.7643H23.0453V32.8565H9.60155C9.2058 32.8565 8.82627 32.6993 8.54643 32.4195C8.26659 32.1397 8.10938 31.7601 8.10938 31.3644V15.4727H36.1094V31.3644C36.1094 31.7601 35.9522 32.1397 35.6723 32.4195C35.3925 32.6993 35.0129 32.8565 34.6172 32.8565V32.8565Z" fill="#545859"/>
<path d="M35.5635 12.875H8.65576V16.0168H35.5635V12.875Z" fill="white"/>
<path d="M36.1094 16.5622H8.10938V13.8203C8.10938 13.4246 8.26659 13.045 8.54643 12.7652C8.82627 12.4853 9.2058 12.3281 9.60155 12.3281H34.6172C35.0129 12.3281 35.3925 12.4853 35.6723 12.7652C35.9522 13.045 36.1094 13.4246 36.1094 13.8203V16.5622ZM9.20239 15.4692H35.0171V13.4204H9.20239V15.4692Z" fill="#545859"/>
<path d="M10.9067 13.877H9.88525V14.97H10.9067V13.877Z" fill="#545859"/>
<path d="M12.6747 13.877H11.6533V14.97H12.6747V13.877Z" fill="#545859"/>
<path d="M14.4423 13.877H13.4209V14.97H14.4423V13.877Z" fill="#545859"/>
<path d="M32.1226 21.998H23.3494C23.0477 21.998 22.8032 22.2426 22.8032 22.5442V22.5449C22.8032 22.8466 23.0477 23.0911 23.3494 23.0911H32.1226C32.4243 23.0911 32.6688 22.8466 32.6688 22.5449V22.5442C32.6688 22.2426 32.4243 21.998 32.1226 21.998Z" fill="#545859"/>
<path d="M30.814 23.7031H23.3494C23.0477 23.7031 22.8032 23.9476 22.8032 24.2493V24.25C22.8032 24.5516 23.0477 24.7961 23.3494 24.7961H30.814C31.1156 24.7961 31.3601 24.5516 31.3601 24.25V24.2493C31.3601 23.9476 31.1156 23.7031 30.814 23.7031Z" fill="#545859"/>
<path d="M28.4484 26.3242H23.3496V28.0544H28.4484V26.3242Z" fill="white"/>
<path d="M27.5842 28.6005H24.2148C23.8404 28.6005 23.4814 28.4518 23.2167 28.1871C22.9519 27.9224 22.8032 27.5633 22.8032 27.189V27.189C22.8032 26.8146 22.9519 26.4555 23.2167 26.1908C23.4814 25.9261 23.8404 25.7773 24.2148 25.7773H27.5842C27.9584 25.7775 28.3173 25.9263 28.5818 26.1911C28.8464 26.4558 28.995 26.8147 28.995 27.189V27.189C28.995 27.5632 28.8464 27.9221 28.5818 28.1868C28.3173 28.4515 27.9584 28.6004 27.5842 28.6005V28.6005ZM24.2148 27.5075H27.5834C27.6679 27.5075 27.7489 27.474 27.8087 27.4142C27.8684 27.3545 27.902 27.2734 27.902 27.189C27.902 27.1045 27.8684 27.0234 27.8087 26.9637C27.7489 26.9039 27.6679 26.8704 27.5834 26.8704H24.2148C24.1303 26.8704 24.0493 26.9039 23.9895 26.9637C23.9298 27.0234 23.8962 27.1045 23.8962 27.189V27.189C23.8962 27.2734 23.9298 27.3545 23.9895 27.4142C24.0493 27.474 24.1303 27.5075 24.2148 27.5075V27.5075Z" fill="#545859"/>
<path d="M32.3636 19.3145H23.6687C23.1907 19.3145 22.8032 19.7018 22.8032 20.1795C22.8032 20.6573 23.1907 21.0446 23.6687 21.0446H32.3636C32.8416 21.0446 33.2291 20.6573 33.2291 20.1795C33.2291 19.7018 32.8416 19.3145 32.3636 19.3145Z" fill="#FFE67D"/>
<path d="M31.6072 33.0567L27.7357 31.7428L23.8628 30.4297L25.1767 34.3019L26.4898 38.1741L27.4246 35.7321L30.0404 38.3487L31.7825 36.6081L29.1652 33.9908L31.6072 33.0567Z" fill="white"/>
<path d="M26.4583 39.7833L22.9897 29.5566L33.2164 33.0237L30.147 34.1981L32.5546 36.6049L30.0403 39.1178L27.6304 36.7139L26.4583 39.7833ZM27.2149 34.7502L30.0411 37.5756L31.011 36.6057L28.1848 33.7795L29.9985 33.0856L24.7371 31.301L26.5218 36.5632L27.2149 34.7502Z" fill="#545859"/>
<path d="M15.8781 19.4629L19.9406 21.7847L15.8513 24.1446L11.7896 21.8235L15.8781 19.4629Z" fill="#FFD100"/>
<path d="M15.8515 24.6428C15.7646 24.643 15.6791 24.6203 15.6037 24.5771L11.542 22.2561C11.4657 22.2124 11.4024 22.1493 11.3583 22.0733C11.3142 21.9972 11.291 21.9109 11.291 21.8229C11.291 21.735 11.3142 21.6487 11.3583 21.5726C11.4024 21.4966 11.4657 21.4335 11.542 21.3898L15.6306 19.0292C15.7063 18.9858 15.7921 18.9629 15.8794 18.9629C15.9667 18.9629 16.0525 18.9858 16.1282 19.0292L20.1907 21.3511C20.267 21.3947 20.3304 21.4578 20.3744 21.5339C20.4185 21.6099 20.4417 21.6962 20.4417 21.7842C20.4417 21.8721 20.4185 21.9584 20.3744 22.0345C20.3304 22.1105 20.267 22.1736 20.1907 22.2173L16.1021 24.5779C16.0258 24.6213 15.9393 24.6437 15.8515 24.6428V24.6428ZM12.7925 21.8196L15.8515 23.5677L18.9395 21.7853L15.8805 20.0379L12.7925 21.8196Z" fill="#545859"/>
<path d="M19.8952 21.7402L19.943 26.4585L15.8536 28.8199L15.8066 24.1009L19.8952 21.7402Z" fill="#FFE67D"/>
<path d="M15.8982 29.364C15.7667 29.3638 15.6405 29.3118 15.5471 29.2192C15.4536 29.1266 15.4005 29.0009 15.3991 28.8694L15.3521 24.1503C15.351 24.0617 15.3735 23.9744 15.4175 23.8974C15.4614 23.8204 15.5251 23.7565 15.602 23.7124L19.6906 21.3525C19.7661 21.3095 19.8514 21.287 19.9383 21.2871C20.0251 21.2872 20.1104 21.31 20.1858 21.3532C20.2611 21.3963 20.3239 21.4584 20.3679 21.5333C20.4119 21.6081 20.4356 21.6932 20.4367 21.78L20.4844 26.4983C20.4851 26.5867 20.4623 26.6738 20.4184 26.7506C20.3745 26.8274 20.3111 26.8912 20.2345 26.9355L16.1482 29.2946C16.0725 29.3395 15.9862 29.3634 15.8982 29.364V29.364ZM16.3533 24.4316L16.3891 28.0039L19.4854 26.2133L19.4496 22.6417L16.3533 24.4316Z" fill="#545859"/>
<path d="M15.8513 24.1453L15.899 28.8643L11.8358 26.5425L11.7896 21.8242L15.8513 24.1453Z" fill="white"/>
<path d="M15.8981 29.3633C15.8112 29.3631 15.7258 29.3402 15.6504 29.2969L11.5895 26.9751C11.5139 26.9318 11.4509 26.8695 11.4068 26.7943C11.3627 26.7192 11.339 26.6339 11.338 26.5468L11.291 21.8278C11.2904 21.7401 11.3128 21.6538 11.3561 21.5775C11.3994 21.5012 11.4619 21.4376 11.5375 21.3932C11.6131 21.3487 11.6991 21.325 11.7868 21.3242C11.8745 21.3235 11.9608 21.3459 12.0371 21.3891L16.0988 23.7109C16.1746 23.754 16.2377 23.8163 16.2818 23.8914C16.3259 23.9666 16.3495 24.052 16.3503 24.1392L16.398 28.8589C16.3986 28.9249 16.3861 28.9904 16.3613 29.0516C16.3364 29.1128 16.2997 29.1684 16.2532 29.2153C16.2067 29.2622 16.1514 29.2994 16.0905 29.3248C16.0295 29.3502 15.9642 29.3633 15.8981 29.3633V29.3633ZM12.3356 26.2498L15.3945 27.9979L15.3594 24.4361L12.3005 22.6888L12.3356 26.2498Z" fill="#545859"/>
</g>
<defs>
<clipPath id="clip0_2373_366126">
<rect width="28" height="28" fill="white" transform="translate(8 12)"/>
</clipPath>
</defs>
</svg>
