<svg width="325" height="44" viewBox="0 0 325 44" fill="none" xmlns="http://www.w3.org/2000/svg">
<circle cx="22" cy="22" r="22" fill="#FFD100"/>
<circle cx="22" cy="22" r="20" fill="#EFEFEF"/>
<path d="M30.1987 14.1612V12.3339C30.1987 11.4054 30.949 10.6543 31.8752 10.6543C32.8014 10.6543 33.5517 11.4062 33.5517 12.3339V14.1612H30.1987Z" fill="#FFD100"/>
<path d="M34.0771 14.6839H29.6753V12.333C29.6753 11.1176 30.6624 10.1289 31.8762 10.1289C33.09 10.1289 34.0771 11.1176 34.0771 12.333V14.6839V14.6839ZM30.7234 13.6359H33.0291V12.333C33.0291 11.696 32.5117 11.177 31.8762 11.177C31.2408 11.177 30.7234 11.6952 30.7234 12.333V13.6359Z" fill="#FFD100"/>
<path d="M30.1987 12.3339V31.1199H30.1932L30.1987 31.4005C30.1987 32.2626 29.5461 32.9715 28.7121 33.0684C28.2557 33.0684 13.8496 33.0653 13.104 33.0684C13.9387 32.9715 14.5859 32.2626 14.5859 31.4005V31.0176H14.5921V12.3339C14.5921 11.4718 15.2393 10.7629 16.074 10.666C16.5304 10.666 30.9357 10.6691 31.6814 10.666C30.8474 10.7621 30.1987 11.471 30.1987 12.3339Z" fill="white"/>
<path d="M31.8763 10.1289C31.7981 10.1289 31.7215 10.1328 31.6457 10.1414C31.04 10.143 26.109 10.143 16.9802 10.1414H16.0751L16.0149 10.1445C14.9059 10.2727 14.0696 11.2137 14.0696 12.333L14.0633 31.3996C14.0633 31.9865 13.6256 32.4797 13.0449 32.5469L13.1075 33.5919C13.4928 33.5903 17.5773 33.5903 25.2587 33.5911C25.0766 33.2597 24.9249 32.9088 24.8061 32.543C21.708 32.5422 19.2163 32.5423 17.3413 32.5423C16.3033 32.5423 15.4538 32.5423 14.7933 32.5423C14.9731 32.246 15.0849 31.9045 15.1075 31.5403H15.1177V12.333C15.1177 11.7554 15.5413 11.2684 16.1079 11.1895H16.9794C23.4235 11.1911 27.7761 11.1911 29.9943 11.1903C29.981 11.213 29.9685 11.2364 29.9552 11.2591C29.9497 11.2692 29.9435 11.2794 29.938 11.2896C29.9255 11.3122 29.9145 11.3349 29.9028 11.3583C29.895 11.3747 29.8872 11.3912 29.8794 11.4076C29.87 11.4287 29.8598 11.449 29.8512 11.4709C29.8364 11.506 29.8223 11.542 29.809 11.578C29.8035 11.5936 29.7981 11.61 29.7926 11.6264C29.784 11.653 29.7746 11.6796 29.7668 11.7061C29.7621 11.7225 29.7574 11.739 29.7527 11.7562C29.7441 11.7874 29.7363 11.8195 29.7293 11.8515C29.727 11.8624 29.7238 11.8734 29.7215 11.8843C29.7129 11.9273 29.7051 11.9703 29.6988 12.0141C29.6973 12.0266 29.6957 12.0391 29.6941 12.0516C29.6894 12.086 29.6863 12.1204 29.6832 12.1548C29.6824 12.168 29.6808 12.1813 29.6801 12.1946C29.6769 12.2407 29.6754 12.2861 29.6754 12.333C29.6754 12.333 29.6754 12.333 29.6754 12.3337V24.6163C29.9817 24.5686 30.2952 24.5444 30.6148 24.5444C30.6516 24.5444 30.6867 24.5467 30.7235 24.5475V12.333C30.7235 12.2947 30.7258 12.2571 30.7289 12.2196C30.7297 12.2079 30.7321 12.1962 30.7336 12.1845C30.7368 12.1587 30.7399 12.1337 30.7454 12.1086C30.7477 12.0954 30.7516 12.0829 30.7547 12.0703C30.7602 12.0469 30.7657 12.0235 30.7727 12.0008C30.7766 11.9883 30.7805 11.9766 30.7852 11.9648C30.793 11.9422 30.8008 11.9187 30.8102 11.8968C30.8149 11.8859 30.8196 11.875 30.8243 11.8648C30.8345 11.8413 30.8454 11.8187 30.8571 11.796C30.8618 11.7866 30.8673 11.778 30.872 11.7687C30.8853 11.7452 30.8985 11.7225 30.9134 11.6999C30.9181 11.6928 30.9235 11.685 30.9282 11.678C30.9447 11.6545 30.9611 11.6319 30.9791 11.61C30.9837 11.6045 30.9884 11.5983 30.9931 11.5928C31.0119 11.5701 31.0322 11.5483 31.0533 11.5264C31.058 11.5217 31.0619 11.517 31.0666 11.5131C31.0885 11.4912 31.1111 11.4709 31.1346 11.4513C31.1385 11.4474 31.1432 11.4443 31.1471 11.4404C31.1713 11.4209 31.1963 11.4021 31.2213 11.3849C31.226 11.3818 31.2307 11.3779 31.2346 11.3747C31.2596 11.3583 31.2854 11.3427 31.3112 11.3278C31.3175 11.3247 31.3237 11.32 31.33 11.3169C31.3526 11.3044 31.3769 11.2935 31.4003 11.2825C31.4105 11.2778 31.4206 11.2724 31.4308 11.2684C31.4402 11.2645 31.4503 11.2614 31.4597 11.2583C31.5488 11.2239 31.6434 11.1989 31.7419 11.1879C31.7856 11.1825 31.831 11.1793 31.8763 11.1793C32.5117 11.1793 33.0291 11.6983 33.0291 12.3353V14.6855H34.0772V12.333C34.0772 11.1176 33.0901 10.1289 31.8763 10.1289Z" fill="#545859"/>
<path d="M29.1319 14.0025C29.0593 14.1471 28.8975 14.2229 28.7396 14.1862C28.5825 14.1487 28.4707 14.008 28.4707 13.847V13.2459H28.4246C28.3551 13.2459 28.2949 13.192 28.2894 13.1209C28.2839 13.042 28.3457 12.9755 28.4246 12.9755H28.4707V12.8247C28.4707 12.741 28.5379 12.6738 28.6216 12.6738C28.7044 12.6738 28.7724 12.741 28.7724 12.8247V12.9755H28.9491C29.0241 12.9755 29.0843 13.0357 29.0843 13.1107C29.0843 13.1858 29.0241 13.2459 28.9491 13.2459H28.7724V13.847C28.7732 13.8571 28.7763 13.8665 28.7818 13.8751C28.7912 13.89 28.8084 13.9001 28.8248 13.9009C28.842 13.9025 28.8592 13.8939 28.8725 13.8829C28.885 13.8728 28.8944 13.8587 28.9045 13.847C28.9178 13.8313 28.9334 13.8181 28.9522 13.8095C28.9772 13.7977 29.0061 13.7931 29.0327 13.7977C29.0686 13.8048 29.1007 13.8282 29.1234 13.8564C29.1273 13.8618 29.1304 13.8673 29.1335 13.8736C29.1531 13.915 29.1515 13.9619 29.1319 14.0025Z" fill="#545859"/>
<path d="M28.1716 13.3937V14.0323C28.1716 14.1159 28.1044 14.1831 28.0208 14.1831C27.9372 14.1831 27.8699 14.1159 27.8699 14.0323V13.4656C27.8699 13.3421 27.7699 13.2413 27.6456 13.2413C27.5221 13.2413 27.4213 13.3413 27.4213 13.4656V14.0323C27.4213 14.1159 27.3541 14.1831 27.2705 14.1831C27.1868 14.1831 27.1196 14.1159 27.1196 14.0323V13.1256C27.1196 13.0412 27.1892 12.9732 27.2728 12.9748C27.3564 12.9763 27.4237 13.0467 27.4205 13.1311V13.1256V13.1311C27.4416 13.1014 27.4674 13.0733 27.4964 13.0506C27.569 12.9943 27.6667 12.9724 27.7613 12.9748C27.834 12.9763 27.9051 12.992 27.9661 13.0264C28.0192 13.0568 28.0646 13.1014 28.0982 13.153C28.1294 13.2007 28.1505 13.2546 28.1615 13.3101C28.1677 13.3429 28.1708 13.3765 28.1701 13.4101" fill="#545859"/>
<path d="M26.997 12.227C26.997 12.3106 26.9298 12.3786 26.8462 12.3786C26.7625 12.3786 26.6953 12.3106 26.6953 12.227C26.6953 12.1442 26.7625 12.0762 26.8462 12.0762C26.9298 12.0762 26.997 12.1442 26.997 12.227Z" fill="#FFD100"/>
<path d="M26.1459 12.6801C26.1459 12.7638 26.0787 12.8318 25.9951 12.8318C25.9115 12.8318 25.8442 12.7638 25.8442 12.6801C25.8442 12.5973 25.9115 12.5293 25.9951 12.5293C26.0787 12.5293 26.1459 12.5973 26.1459 12.6801Z" fill="#FFD100"/>
<path d="M27.271 12.8315C27.1873 12.8315 27.1201 12.7643 27.1201 12.6807V12.3774C27.1201 12.2938 27.1873 12.2266 27.271 12.2266C27.3546 12.2266 27.4218 12.2938 27.4218 12.3774V12.6807C27.4218 12.7635 27.3546 12.8315 27.271 12.8315Z" fill="#FFD100"/>
<path d="M26.4209 13.285C26.3372 13.285 26.27 13.2178 26.27 13.1342V11.9243C26.27 11.8407 26.3372 11.7734 26.4209 11.7734C26.5045 11.7734 26.5717 11.8407 26.5717 11.9243V13.1342C26.5717 13.217 26.5037 13.285 26.4209 13.285Z" fill="#FFD100"/>
<path d="M25.5698 12.9828C25.4862 12.9828 25.4189 12.9156 25.4189 12.832V12.227C25.4189 12.1434 25.4862 12.0762 25.5698 12.0762C25.6526 12.0762 25.7206 12.1434 25.7206 12.227V12.832C25.7206 12.9156 25.6534 12.9828 25.5698 12.9828Z" fill="#FFD100"/>
<path d="M27.6323 22.0156H16.9536V24.5815H27.6323V22.0156Z" fill="#FFE67D"/>
<path d="M18.9794 25.7852H16.9277V26.9239H18.9794V25.7852Z" fill="#545859"/>
<path d="M21.872 25.7852H19.8203V26.9239H21.872V25.7852Z" fill="#545859"/>
<path d="M24.7655 25.7852H22.7139V26.9239H24.7655V25.7852Z" fill="#545859"/>
<path d="M18.9794 27.793H16.9277V28.9317H18.9794V27.793Z" fill="#545859"/>
<path d="M21.872 27.793H19.8203V28.9317H21.872V27.793Z" fill="#545859"/>
<path d="M24.7655 27.793H22.7139V28.9317H24.7655V27.793Z" fill="#545859"/>
<path d="M20.6673 18.213C20.7635 18.1395 20.8455 18.048 20.9128 17.9394C21.0151 17.7729 21.0667 17.5908 21.0667 17.3985C21.0667 17.0375 20.9503 16.7451 20.7213 16.5302C20.4938 16.3168 20.1796 16.209 19.7888 16.209H18.4211C18.2843 16.209 18.1772 16.2574 18.103 16.3536C18.0342 16.4419 17.999 16.5326 17.999 16.6232V19.7667C17.999 19.8308 18.0045 19.8973 18.0162 19.9629C18.0287 20.034 18.0506 20.0997 18.0819 20.1583C18.1147 20.2208 18.1592 20.2732 18.2124 20.3138C18.2718 20.3584 18.3413 20.3811 18.4211 20.3811H19.9248C20.3735 20.3811 20.7158 20.2771 20.9432 20.0731C21.1738 19.866 21.2902 19.5612 21.2902 19.1673C21.2902 18.932 21.2105 18.7171 21.0527 18.5271C20.9417 18.3919 20.8119 18.2872 20.6673 18.213ZM20.3344 19.1094C20.3344 19.2673 20.2883 19.3822 20.1929 19.4604C20.0921 19.5432 19.978 19.5831 19.8443 19.5831H18.9549V18.6436H19.7568C19.9272 18.6436 20.0647 18.6889 20.1765 18.7819C20.2828 18.871 20.3344 18.9781 20.3344 19.1094ZM18.9549 17.8878V17.0124H19.6685C19.8115 17.0124 19.9139 17.05 19.9811 17.1273C20.0522 17.2102 20.0898 17.3149 20.0944 17.447C20.0944 17.5838 20.0585 17.6893 19.9866 17.7706C19.917 17.8487 19.8131 17.887 19.6692 17.887H18.9549V17.8878Z" fill="#545859"/>
<path d="M22.6752 17.3137C22.5814 17.2395 22.4688 17.2012 22.3406 17.2012C22.2242 17.2012 22.1163 17.2387 22.0194 17.3129C21.917 17.3919 21.8623 17.4966 21.8623 17.6154V19.9828C21.8623 20.1016 21.9147 20.2063 22.0139 20.2845C22.1077 20.3587 22.2203 20.397 22.3484 20.397C22.4657 20.397 22.5735 20.3595 22.6697 20.2861C22.7721 20.2079 22.8268 20.1032 22.8268 19.9836V17.6162C22.8268 17.4966 22.7744 17.3919 22.6752 17.3137Z" fill="#545859"/>
<path d="M22.3408 15.9121C22.1837 15.9121 22.05 15.9621 21.9445 16.0614C21.8374 16.1622 21.7827 16.2888 21.7827 16.4381C21.7827 16.5874 21.8374 16.714 21.9445 16.8148C22.05 16.9141 22.1837 16.9641 22.3408 16.9641C22.4994 16.9641 22.6307 16.9133 22.7316 16.8125C22.8324 16.7117 22.8832 16.5858 22.8832 16.4381C22.8832 16.2904 22.8324 16.1646 22.7316 16.0637C22.6307 15.9637 22.4994 15.9121 22.3408 15.9121Z" fill="#545859"/>
<path d="M24.0443 16.0332C23.9247 16.0332 23.8176 16.0746 23.7254 16.1575C23.63 16.2427 23.5815 16.3482 23.5815 16.4717V19.9669C23.5815 20.0904 23.63 20.1967 23.7246 20.2811C23.8168 20.3632 23.9239 20.4054 24.0435 20.4054C24.1685 20.4054 24.2779 20.3632 24.367 20.2803C24.4585 20.1951 24.5054 20.0904 24.5054 19.9669V16.4717C24.5054 16.349 24.4593 16.2434 24.367 16.1583C24.2779 16.0754 24.1693 16.0332 24.0443 16.0332Z" fill="#545859"/>
<path d="M25.9989 16.1583C25.909 16.0754 25.8003 16.0332 25.6753 16.0332C25.5557 16.0332 25.4486 16.0746 25.3564 16.1575C25.261 16.2427 25.2134 16.3482 25.2134 16.4717V19.9669C25.2134 20.0904 25.2618 20.1959 25.3564 20.2811C25.4486 20.3632 25.5557 20.4054 25.6753 20.4054C25.8011 20.4054 25.9098 20.3632 25.9989 20.2803C26.0903 20.1951 26.1372 20.0904 26.1372 19.9669V16.4717C26.1372 16.3482 26.0911 16.2434 25.9989 16.1583Z" fill="#545859"/>
<path d="M26.9242 25.7852H25.6064V26.9239H25.7776C26.1082 26.4956 26.4935 26.1119 26.9242 25.7852Z" fill="#545859"/>
<path d="M24.5057 30.6534C24.5057 30.4431 24.5166 30.236 24.537 30.0312H10.9727V31.3998C10.9727 32.519 11.809 33.4593 12.918 33.5882L12.9782 33.5913H13.8833C19.0018 33.5906 22.8003 33.5898 25.2576 33.5898C24.7785 32.7183 24.5057 31.7179 24.5057 30.6534Z" fill="#FFE67D"/>
<path d="M30.6145 25.2949C27.6632 25.2949 25.2622 27.6959 25.2622 30.6472C25.2622 33.5984 27.6632 35.9994 30.6145 35.9994C30.6887 35.9994 30.763 35.9979 30.8341 35.9947L30.9427 35.9901L30.9169 35.3593L30.8083 35.364C30.745 35.3664 30.6801 35.3679 30.6145 35.3679C28.011 35.3679 25.8929 33.2498 25.8929 30.6464C25.8929 28.043 28.011 25.9249 30.6145 25.9249C33.2179 25.9249 35.3352 28.043 35.3352 30.6464C35.3352 30.7105 35.3336 30.7761 35.3313 30.8402L35.3266 30.9489L35.9566 30.9747L35.9605 30.866C35.9636 30.7933 35.9651 30.7191 35.9651 30.6464C35.9667 27.6959 33.5657 25.2949 30.6145 25.2949Z" fill="#545859"/>
<path d="M33.5403 34.3543C33.4442 34.4301 33.3434 34.5036 33.2417 34.5724L33.1519 34.6326L33.5036 35.1562L33.5935 35.096C33.7091 35.0179 33.8232 34.935 33.9319 34.8491L34.0171 34.7818L33.6263 34.2871L33.5403 34.3543Z" fill="#545859"/>
<path d="M32.927 34.766C32.82 34.8262 32.709 34.8833 32.598 34.9341L32.4995 34.9794L32.7645 35.5515L32.8629 35.5062C32.9888 35.4476 33.1146 35.3835 33.2357 35.3155L33.3303 35.2623L33.0208 34.7129L32.927 34.766Z" fill="#545859"/>
<path d="M32.2571 35.0766C32.1422 35.1188 32.0242 35.1579 31.9062 35.1915L31.8022 35.2212L31.9742 35.8284L32.0781 35.7988C32.2126 35.7605 32.3462 35.7167 32.476 35.6682L32.5776 35.6307L32.358 35.0391L32.2571 35.0766Z" fill="#545859"/>
<path d="M31.5466 35.2762C31.427 35.3004 31.3043 35.3199 31.1816 35.334L31.0737 35.3473L31.1488 35.9734L31.2566 35.9608C31.3957 35.9444 31.5349 35.9218 31.6701 35.8952L31.7764 35.8741L31.6529 35.2559L31.5466 35.2762Z" fill="#545859"/>
<path d="M34.5403 33.2715C34.4716 33.3739 34.3981 33.4747 34.3231 33.5701L34.2559 33.6553L34.7506 34.0461L34.8178 33.9609C34.9046 33.8515 34.9874 33.7373 35.0648 33.6225L35.125 33.5326L34.6013 33.1816L34.5403 33.2715Z" fill="#545859"/>
<path d="M35.3031 31.2114C35.289 31.3333 35.2695 31.456 35.2452 31.5764L35.2241 31.6827L35.8424 31.8061L35.8635 31.6999C35.8908 31.5639 35.9127 31.4247 35.9291 31.2856L35.9416 31.1778L35.3156 31.1035L35.3031 31.2114Z" fill="#545859"/>
<path d="M34.0825 33.852C33.9988 33.9427 33.9105 34.0302 33.8214 34.113L33.7417 34.1865L34.17 34.6492L34.2497 34.5757C34.3513 34.4819 34.4506 34.3819 34.5459 34.2795L34.6194 34.1998L34.1559 33.7715L34.0825 33.852Z" fill="#545859"/>
<path d="M35.1578 31.9348C35.1242 32.0536 35.0859 32.1716 35.0429 32.2865L35.0054 32.3881L35.597 32.607L35.6345 32.5054C35.683 32.3748 35.7268 32.2404 35.7643 32.1068L35.794 32.002L35.1875 31.8301L35.1578 31.9348Z" fill="#545859"/>
<path d="M34.9014 32.6278C34.8498 32.7388 34.7935 32.8497 34.7333 32.9568L34.6802 33.0514L35.2304 33.3601L35.2836 33.2655C35.3523 33.1436 35.4164 33.0178 35.4743 32.8927L35.5196 32.7943L34.9475 32.5293L34.9014 32.6278Z" fill="#545859"/>
<path d="M30.7393 34.2222C32.7194 34.1537 34.269 32.4929 34.2005 30.5128C34.1319 28.5327 32.4711 26.9831 30.491 27.0517C28.5109 27.1202 26.9613 28.781 27.0299 30.7611C27.0984 32.7412 28.7592 34.2908 30.7393 34.2222Z" fill="#FFD100"/>
<path d="M33.2861 29.3762L32.3013 28.3906L29.7674 30.9237L29.0077 30.164L28.0229 31.1488L29.7565 32.905L33.2861 29.3762Z" fill="white"/>
<path d="M29.7557 33.1982L27.7314 31.1474L29.0078 29.8703L29.7682 30.6308L32.3013 28.0977L33.5784 29.3755L29.7557 33.1982ZM28.3153 31.1489L29.7581 32.6105L32.9938 29.3748L32.3013 28.6823L29.7682 31.2154L29.0078 30.4549L28.3153 31.1489Z" fill="#545859"/>
<path d="M11.9789 29.0039V29.5924L10.3009 32.6844L8.62207 29.5924V29.0039" fill="white"/>
<path d="M10.3008 33.7559L8.11084 29.7222V29.0039H9.13315V29.4627L10.3 31.6128L11.4677 29.4627V29.0039H12.49V29.7222L10.3008 33.7559Z" fill="#545859"/>
<path d="M11.9779 14.3535H8.62256V28.9565H11.9779V14.3535Z" fill="white"/>
<path d="M11.4666 14.8657V28.4456H9.13286V14.8657H11.4666ZM12.4882 13.8418H8.11133V29.4687H12.4882V13.8418Z" fill="#545859"/>
<path d="M10.8109 14.1602H9.78857V28.542H10.8109V14.1602Z" fill="#545859"/>
<path d="M11.9814 10.1702V8.81419C11.9814 8.64615 11.8165 8.51172 11.6125 8.51172H8.99107C8.78552 8.51172 8.62061 8.64615 8.62061 8.81341V10.1702" fill="white"/>
<path d="M12.4925 10.1697H11.4702V9.02231H9.13169V10.1697H8.10938V8.81362C8.10938 8.57915 8.21724 8.35718 8.40638 8.20321C8.56738 8.07191 8.77528 8 8.991 8C8.991 8 8.991 8 8.99178 8H11.6132C12.0986 8 12.4933 8.365 12.4933 8.81362V10.1697H12.4925Z" fill="#545859"/>
<path d="M12.4882 10.7969H8.11133V13.3925H12.4882V10.7969Z" fill="#FFD100"/>
<path d="M63.472 17C65.36 17 65.712 15.176 65.712 13.416C65.712 11.288 65.168 10.12 63.088 10.12C62.112 10.12 61.344 10.424 60.592 11.032C60.4 11.16 60.32 11.432 60.48 11.64C60.608 11.832 60.912 11.848 61.088 11.736C61.616 11.272 62.256 10.984 63.088 10.984C64.64 10.984 64.736 12.072 64.736 13.48C64.736 14.92 64.56 16.168 63.488 16.168C62.368 16.168 62.336 14.84 62.336 13.72C62.336 13.528 62.24 13.384 62 13.384H60.96C60.736 13.384 60.592 13.544 60.592 13.768C60.592 14.008 60.72 14.168 60.96 14.168H61.408C61.52 15.672 61.744 17 63.472 17ZM66.1994 9C66.4554 9 66.5994 8.824 66.5994 8.6C66.5994 8.392 66.4554 8.2 66.1994 8.2H63.2234C62.8714 8.2 62.5514 7.912 62.6794 7.544C62.7114 7.352 62.5514 7.16 62.3434 7.128C62.0394 7.096 61.8314 7.256 61.7834 7.544C61.5914 8.392 62.2794 9 63.0954 9H66.1994ZM69.4634 13.976H69.8474C70.4714 13.976 70.5354 16.152 69.3994 16.152C68.5034 16.152 67.9754 15.128 67.9754 13.608C67.9754 12.008 68.7594 10.968 70.2154 10.968C71.7834 10.968 72.3274 11.752 72.3274 13.08V16.536C72.3274 16.808 72.5034 17 72.8234 17C73.1434 17 73.3194 16.808 73.3194 16.536V12.952C73.3194 11.016 72.0874 10.136 70.2154 10.136C68.2314 10.136 66.9994 11.464 66.9994 13.608C66.9994 15.736 67.6874 17 69.3834 17H69.3994C70.5994 17 71.1754 16.28 71.1754 14.792C71.1754 14.392 71.0474 13.144 70.1194 13.144H69.4634C69.2074 13.144 69.0314 13.32 69.0314 13.56C69.0314 13.8 69.2074 13.976 69.4634 13.976ZM77.821 10.136C76.173 10.136 75.053 11.032 74.605 11.704C74.877 12.024 75.053 12.504 75.053 13.384V16.536C75.053 16.76 75.197 17 75.549 17C75.869 17 76.045 16.808 76.045 16.536V13.544C76.045 12.776 75.917 12.088 75.629 11.832C76.125 11.384 76.813 10.984 77.821 10.984C78.989 10.984 79.741 11.688 79.741 13.272V16.536C79.741 16.808 79.917 17 80.237 17C80.557 17 80.733 16.808 80.733 16.536V13.112C80.733 11.064 79.437 10.136 77.821 10.136ZM83.0513 11.992C83.0513 11.752 83.4673 10.968 84.5713 10.968C85.2913 10.984 86.0433 11.224 86.0433 12.92V16.472C86.0433 16.84 86.2033 17 86.5233 17C86.8593 17 87.0193 16.84 87.0193 16.472V12.792C87.0193 11.16 86.2993 10.136 84.5713 10.136C83.3393 10.136 82.0913 10.984 82.0913 12.088C82.0913 12.232 82.2833 12.424 82.5713 12.424C82.8273 12.424 83.0513 12.232 83.0513 11.992ZM91.2841 13.096C90.5961 13 89.5881 12.872 89.5561 12.104C89.5561 11 90.6281 10.936 91.3961 10.936C91.9721 10.936 92.5961 11.16 93.1081 11.496C93.2841 11.608 93.5401 11.512 93.6361 11.352C93.7641 11.16 93.7481 10.888 93.5401 10.744C92.8681 10.312 92.1961 10.136 91.4441 10.136C89.9561 10.136 88.4841 10.552 88.5961 12.2C88.6601 13.528 90.1961 13.816 91.2361 13.96C92.2761 14.12 92.8681 14.248 92.9161 14.904C92.9961 15.992 91.9241 16.168 91.0601 16.168C90.5641 16.168 89.7321 15.976 89.2041 15.64C88.9961 15.528 88.7401 15.576 88.5801 15.736C88.3401 15.992 88.5481 16.328 88.7721 16.44C89.4921 16.824 90.2601 17 91.0281 17C92.5321 17 94.0201 16.536 93.9081 14.824C93.8121 13.448 92.3721 13.24 91.2841 13.096ZM97.8425 17.032C99.5705 17.032 100.451 15.976 100.451 14.344V10.664C100.451 10.296 100.291 10.136 99.9545 10.136C99.6345 10.136 99.4745 10.296 99.4745 10.664V14.216C99.4745 15.912 98.5625 16.184 97.8425 16.2C96.5305 16.168 96.1625 15.368 96.1625 14.04C96.1625 12.248 97.5705 12.552 97.5705 11.176C97.5705 10.296 96.6425 10.2 96.3705 10.2H95.6985C95.4265 10.2 95.2825 10.36 95.2825 10.6C95.2825 10.84 95.4425 11 95.6985 11H96.3225C96.7545 11 96.8185 11.384 96.6105 11.592C95.7145 12.168 95.2025 13 95.2025 14.008V14.248C95.2025 15.992 96.1305 17.032 97.8425 17.032ZM100.85 6.792C100.53 6.792 100.386 7.048 100.274 7.288C99.954 8.088 99.042 8.216 98.29 8.168V7.416C98.29 7.208 98.226 6.888 97.81 6.888H97.122C96.802 6.888 96.498 6.904 96.498 7.288C96.498 7.672 96.754 7.736 97.09 7.736H97.378V8.296C97.378 8.568 97.362 8.824 97.682 8.904C97.874 8.952 98.146 8.968 98.37 8.984C99.586 9.048 100.962 8.696 101.25 7.24C101.298 7 101.218 6.792 100.85 6.792ZM104.802 10.136C103.858 10.136 102.754 10.424 102.114 11.128C101.986 11.272 101.986 11.48 102.098 11.64C102.21 11.784 102.418 11.832 102.578 11.752C103.282 11.288 103.97 10.984 104.802 10.984C106.37 10.984 107.026 12.024 107.042 13.592C107.01 15.224 106.37 16.168 104.978 16.168C103.586 16.168 102.85 15.416 102.93 14.088H104.562C104.802 14.088 104.93 13.928 104.93 13.688C104.93 13.464 104.786 13.304 104.562 13.304H102.466C102.162 13.304 102.034 13.48 102.018 13.656C101.762 15.656 102.786 17.016 104.978 17.016C107.25 17.016 108.002 15.4 108.002 13.576C108.002 11.496 106.978 10.136 104.802 10.136ZM114.803 10.136C114.531 10.136 114.307 10.328 114.307 10.552V14.552C114.307 15.656 113.475 16.168 112.467 16.168C111.571 16.168 110.595 15.464 110.355 14.552V10.552C110.355 10.328 110.147 10.136 109.859 10.136C109.571 10.136 109.363 10.328 109.363 10.552V16.536C109.363 16.808 109.523 17 109.843 17C110.179 17 110.323 16.808 110.323 16.536V16.008C110.867 16.664 111.795 17.032 112.627 17.032C114.147 17.032 115.299 16.184 115.299 14.568V10.552C115.299 10.328 115.091 10.136 114.803 10.136ZM114.814 17.96C114.51 17.96 114.334 18.152 114.334 18.456V18.84C114.334 19.352 114.03 19.544 113.63 19.544C113.246 19.544 112.942 19.336 112.942 18.84V18.248C112.942 18.088 112.814 17.96 112.654 17.96H111.742C111.55 17.96 111.342 17.976 111.294 18.184C111.278 18.248 111.278 18.328 111.294 18.408C111.326 18.616 111.518 18.68 111.71 18.68H112.03V18.968C112.03 19.672 112.526 20.28 113.646 20.296C114.766 20.28 115.294 19.672 115.294 18.968V18.456C115.294 18.2 115.118 17.96 114.814 17.96ZM119.774 10.136C118.702 10.136 116.59 10.728 117.038 11.48C117.134 11.688 117.438 11.768 117.63 11.672C118.19 11.304 118.846 11.032 119.774 11.032C121.454 11.032 121.774 11.976 121.774 13.512C121.038 13 120.254 12.808 119.31 12.808C117.79 12.808 116.894 13.48 116.83 14.808C116.718 16.216 117.614 16.92 118.782 16.984C118.942 17 119.134 17 119.31 17C119.742 16.984 120.238 16.856 120.126 16.408C120.062 16.12 119.854 16.072 119.63 16.104C119.342 16.168 119.022 16.184 118.75 16.136C118.254 16.04 117.87 15.752 117.806 15.208C117.694 14.056 118.43 13.656 119.39 13.656C120.27 13.656 121.358 14.008 121.758 14.536V16.536C121.758 16.808 121.934 17 122.254 17C122.574 17 122.75 16.808 122.75 16.536V13.272C122.75 11.208 121.87 10.136 119.774 10.136ZM127.227 10.136C126.155 10.136 124.043 10.728 124.491 11.48C124.587 11.688 124.891 11.768 125.083 11.672C125.643 11.304 126.299 11.032 127.227 11.032C128.907 11.032 129.227 11.976 129.227 13.512C128.491 13 127.707 12.808 126.763 12.808C125.243 12.808 124.347 13.48 124.283 14.808C124.171 16.216 125.067 16.92 126.235 16.984C126.395 17 126.587 17 126.763 17C127.195 16.984 127.691 16.856 127.579 16.408C127.515 16.12 127.307 16.072 127.083 16.104C126.795 16.168 126.475 16.184 126.203 16.136C125.707 16.04 125.323 15.752 125.259 15.208C125.147 14.056 125.883 13.656 126.843 13.656C127.723 13.656 128.811 14.008 129.211 14.536V16.536C129.211 16.808 129.387 17 129.707 17C130.027 17 130.203 16.808 130.203 16.536V13.272C130.203 12.296 129.995 11.544 129.547 11.016L130.331 10.2C130.507 10.024 130.491 9.72 130.251 9.592C129.899 9.336 129.547 9.656 129.307 9.912L128.795 10.44C128.379 10.248 127.851 10.136 127.227 10.136ZM129.594 9C129.866 9 130.106 8.824 130.106 8.584V7C130.106 6.776 129.866 6.584 129.594 6.584C129.354 6.584 129.098 6.776 129.098 7V8.584C129.098 8.824 129.354 9 129.594 9ZM133.914 10.136C133.37 10.136 131.402 10.52 131.594 11.24C131.69 11.688 132.202 11.544 132.41 11.432C132.906 11.16 133.37 10.984 133.914 10.984C135.418 10.984 136.17 11.896 136.17 13.576C136.17 15.224 135.434 16.168 133.914 16.168C133.242 16.168 132.73 15.88 132.122 15.592C131.946 15.512 131.738 15.592 131.642 15.768C131.13 16.44 133.194 16.984 133.786 17C136.01 17.08 137.146 15.784 137.146 13.576C137.146 11.416 136.09 10.136 133.914 10.136ZM144.357 10.552C144.357 10.328 144.149 10.12 143.861 10.12C143.573 10.12 143.365 10.328 143.365 10.552V14.536C143.141 15.432 142.229 16.152 141.333 16.152C140.277 16.152 139.573 15.592 139.573 14.552V10.552C139.573 10.328 139.365 10.12 139.077 10.12C138.789 10.12 138.581 10.328 138.581 10.552V14.552C138.581 16.184 139.669 17.016 141.173 17.016C142.021 17.016 142.901 16.616 143.397 15.976V16.536C143.397 16.808 143.541 17 143.877 17C144.197 17 144.357 16.808 144.357 16.536V10.552ZM148.26 13.976H148.644C149.268 13.976 149.332 16.152 148.196 16.152C147.3 16.152 146.772 15.128 146.772 13.608V13.592C146.772 11.992 147.396 10.712 148.228 11.064C148.548 11.192 149.028 11.544 149.236 11.544C149.476 11.544 149.876 11.24 150.148 11.112C150.868 10.76 151.172 11.352 151.172 12.04V16.536C151.172 16.808 151.348 17 151.668 17C151.988 17 152.164 16.808 152.164 16.536V12.248C152.164 10.808 151.556 10.088 150.564 10.168C150.356 10.184 150.132 10.232 149.956 10.312L149.236 10.696L148.484 10.312C148.308 10.216 148.132 10.152 147.972 10.136C147.652 10.12 147.348 10.2 147.092 10.344C146.004 10.968 145.796 12.52 145.796 13.608C145.796 15.736 146.484 17 148.18 17H148.196C149.396 17 149.972 16.28 149.972 14.792C149.972 14.392 149.844 13.144 148.916 13.144H148.26C148.004 13.144 147.828 13.32 147.828 13.56C147.828 13.8 148.004 13.976 148.26 13.976ZM152.809 9C153.065 9 153.209 8.824 153.209 8.6C153.209 8.392 153.065 8.2 152.809 8.2H149.833C149.481 8.2 149.161 7.912 149.289 7.544C149.321 7.352 149.161 7.16 148.953 7.128C148.649 7.096 148.441 7.256 148.393 7.544C148.201 8.392 148.889 9 149.705 9H152.809ZM155.977 10.136C155.433 10.136 153.465 10.52 153.657 11.24C153.753 11.688 154.265 11.544 154.473 11.432C154.969 11.16 155.433 10.984 155.977 10.984C157.481 10.984 158.233 11.896 158.233 13.576C158.233 15.224 157.497 16.168 155.977 16.168C155.305 16.168 154.793 15.88 154.185 15.592C154.009 15.512 153.801 15.592 153.705 15.768C153.193 16.44 155.257 16.984 155.849 17C158.073 17.08 159.209 15.784 159.209 13.576C159.209 11.416 158.153 10.136 155.977 10.136ZM164.683 10.552C164.683 10.328 164.475 10.12 164.187 10.12C163.899 10.12 163.691 10.328 163.691 10.552V16.568C163.691 16.792 163.899 17 164.187 17C164.475 17 164.683 16.792 164.683 16.568V14.376L166.923 12.712C167.835 12.728 168.347 13.096 168.347 13.944V16.472C168.347 16.84 168.523 17 168.843 17C169.179 17 169.339 16.84 169.339 16.472V13.96C169.339 12.664 168.667 12.152 167.915 11.976L169.291 10.968C169.483 10.824 169.611 10.52 169.451 10.296C169.307 10.088 168.907 10.12 168.635 10.328L164.683 13.368V10.552ZM176.381 10.136C176.109 10.136 175.885 10.328 175.885 10.552V14.552C175.885 15.656 175.053 16.168 174.045 16.168C173.149 16.168 172.173 15.464 171.933 14.552V10.552C171.933 10.328 171.725 10.136 171.437 10.136C171.149 10.136 170.941 10.328 170.941 10.552V16.536C170.941 16.808 171.101 17 171.421 17C171.757 17 171.901 16.808 171.901 16.536V16.008C172.445 16.664 173.373 17.032 174.205 17.032C175.725 17.032 176.877 16.184 176.877 14.568V10.552C176.877 10.328 176.669 10.136 176.381 10.136ZM179.192 11.992C179.192 11.752 179.608 10.968 180.712 10.968C181.432 10.984 182.184 11.224 182.184 12.92V16.472C182.184 16.84 182.344 17 182.664 17C183 17 183.16 16.84 183.16 16.472V12.792C183.16 11.16 182.44 10.136 180.712 10.136C179.48 10.136 178.232 10.984 178.232 12.088C178.232 12.232 178.424 12.424 178.712 12.424C178.968 12.424 179.192 12.232 179.192 11.992ZM187.409 16.168C186.545 16.168 185.537 16.024 185.457 15.032C185.409 14.216 185.825 13.736 186.673 13.736C187.105 13.736 187.841 13.752 187.841 13.368C187.841 13.128 187.713 12.92 187.473 12.92H186.945C186.257 12.92 185.457 12.696 185.457 11.928C185.457 11.176 185.857 10.936 186.625 10.952C186.881 10.968 187.089 11 187.265 11.048C187.489 11.144 187.681 10.952 187.729 10.776C187.905 10.264 187.153 10.136 186.529 10.136C185.217 10.136 184.465 10.664 184.465 11.912C184.465 12.472 184.817 13.096 185.553 13.288C184.913 13.528 184.545 14.056 184.465 14.728C184.321 16.536 185.937 17 187.409 17C189.201 16.968 190.225 16.2 190.225 14.36V10.552C190.225 10.328 190.017 10.136 189.729 10.136C189.457 10.136 189.233 10.328 189.233 10.552V14.36C189.233 15.576 188.609 16.168 187.409 16.168ZM193.063 14.904V10.6C193.063 10.328 192.887 10.136 192.567 10.136C192.247 10.136 192.071 10.328 192.071 10.6V14.936C192.071 16.168 192.151 17.032 193.239 17.032C193.431 17.032 194.039 16.952 194.263 16.6C194.423 16.344 194.375 16.056 194.135 15.96C193.735 15.8 193.527 16.152 193.383 16.152C193.079 16.152 193.063 15.8 193.063 14.904ZM198.196 10.136C197.124 10.136 195.012 10.728 195.46 11.48C195.556 11.688 195.86 11.768 196.052 11.672C196.612 11.304 197.268 11.032 198.196 11.032C199.876 11.032 200.196 11.976 200.196 13.512C199.46 13 198.676 12.808 197.732 12.808C196.212 12.808 195.316 13.48 195.252 14.808C195.14 16.216 196.036 16.92 197.204 16.984C197.364 17 197.556 17 197.732 17C198.164 16.984 198.66 16.856 198.548 16.408C198.484 16.12 198.276 16.072 198.052 16.104C197.764 16.168 197.444 16.184 197.172 16.136C196.676 16.04 196.292 15.752 196.228 15.208C196.116 14.056 196.852 13.656 197.812 13.656C198.692 13.656 199.78 14.008 200.18 14.536V16.536C200.18 16.808 200.356 17 200.676 17C200.996 17 201.172 16.808 201.172 16.536V13.272C201.172 11.208 200.292 10.136 198.196 10.136ZM205.249 17.032C206.977 17.032 207.857 15.976 207.857 14.344V10.664C207.857 10.296 207.697 10.136 207.361 10.136C207.041 10.136 206.881 10.296 206.881 10.664V14.216C206.881 15.912 205.969 16.184 205.249 16.2C203.937 16.168 203.569 15.368 203.569 14.04C203.569 12.248 204.977 12.552 204.977 11.176C204.977 10.296 204.049 10.2 203.777 10.2H203.105C202.833 10.2 202.689 10.36 202.689 10.6C202.689 10.84 202.849 11 203.105 11H203.729C204.161 11 204.225 11.384 204.017 11.592C203.121 12.168 202.609 13 202.609 14.008V14.248C202.609 15.992 203.537 17.032 205.249 17.032ZM214.928 10.136C214.64 10.136 214.432 10.328 214.432 10.552V14.312C214.432 15.896 213.184 16.152 212.448 16.168C211.696 16.152 210.448 15.896 210.448 14.312V10.552C210.448 10.328 210.208 10.136 209.952 10.136C209.68 10.136 209.456 10.328 209.456 10.552V14.312C209.456 16.12 210.816 17 212.448 17C214.16 17 215.424 16.12 215.424 14.312V10.552C215.424 10.328 215.2 10.136 214.928 10.136ZM219.675 13.096C218.987 13 217.979 12.872 217.947 12.104C217.947 11 219.019 10.936 219.787 10.936C220.363 10.936 220.987 11.16 221.499 11.496C221.675 11.608 221.931 11.512 222.027 11.352C222.155 11.16 222.139 10.888 221.931 10.744C221.259 10.312 220.587 10.136 219.835 10.136C218.347 10.136 216.875 10.552 216.987 12.2C217.051 13.528 218.587 13.816 219.627 13.96C220.667 14.12 221.259 14.248 221.307 14.904C221.387 15.992 220.315 16.168 219.451 16.168C218.955 16.168 218.123 15.976 217.595 15.64C217.387 15.528 217.131 15.576 216.971 15.736C216.731 15.992 216.939 16.328 217.163 16.44C217.883 16.824 218.651 17 219.419 17C220.923 17 222.411 16.536 222.299 14.824C222.203 13.448 220.763 13.24 219.675 13.096ZM216.697 8.216C216.457 8.232 216.345 8.424 216.345 8.632C216.361 8.856 216.537 9 216.777 9H221.721C221.961 9 222.137 8.856 222.153 8.632C222.153 8.424 222.041 8.232 221.801 8.216H216.697ZM226.649 10.136C225.001 10.136 223.881 11.032 223.433 11.704C223.705 12.024 223.881 12.504 223.881 13.384V16.536C223.881 16.76 224.025 17 224.377 17C224.697 17 224.873 16.808 224.873 16.536V13.544C224.873 12.776 224.745 12.088 224.457 11.832C224.953 11.384 225.641 10.984 226.649 10.984C227.817 10.984 228.569 11.688 228.569 13.272V16.536C228.569 16.808 228.745 17 229.065 17C229.385 17 229.561 16.808 229.561 16.536V13.112C229.561 11.064 228.265 10.136 226.649 10.136ZM231.879 11.992C231.879 11.752 232.295 10.968 233.399 10.968C234.119 10.984 234.871 11.224 234.871 12.92V16.472C234.871 16.84 235.031 17 235.351 17C235.687 17 235.847 16.84 235.847 16.472V12.792C235.847 11.16 235.127 10.136 233.399 10.136C232.167 10.136 230.919 10.984 230.919 12.088C230.919 12.232 231.111 12.424 231.399 12.424C231.655 12.424 231.879 12.232 231.879 11.992ZM240.112 13.096C239.424 13 238.416 12.872 238.384 12.104C238.384 11 239.456 10.936 240.224 10.936C240.8 10.936 241.424 11.16 241.936 11.496C242.112 11.608 242.368 11.512 242.464 11.352C242.592 11.16 242.576 10.888 242.368 10.744C241.696 10.312 241.024 10.136 240.272 10.136C238.784 10.136 237.312 10.552 237.424 12.2C237.488 13.528 239.024 13.816 240.064 13.96C241.104 14.12 241.696 14.248 241.744 14.904C241.824 15.992 240.752 16.168 239.888 16.168C239.392 16.168 238.56 15.976 238.032 15.64C237.824 15.528 237.568 15.576 237.408 15.736C237.168 15.992 237.376 16.328 237.6 16.44C238.32 16.824 239.088 17 239.856 17C241.36 17 242.848 16.536 242.736 14.824C242.64 13.448 241.2 13.24 240.112 13.096ZM248.47 10.6C248.47 10.328 248.294 10.136 247.974 10.136C247.654 10.136 247.478 10.328 247.478 10.6V14.936C247.478 16.168 247.558 17.032 248.646 17.032C248.838 17.032 249.446 16.952 249.67 16.6C249.83 16.344 249.782 16.056 249.542 15.96C249.142 15.8 248.934 16.152 248.789 16.152C248.486 16.152 248.47 15.8 248.47 14.904V10.6ZM251.638 10.6C251.638 10.328 251.462 10.136 251.141 10.136C250.822 10.136 250.646 10.328 250.646 10.6V14.936C250.646 16.168 250.726 17.032 251.814 17.032C252.006 17.032 252.614 16.952 252.838 16.6C252.998 16.344 252.95 16.056 252.71 15.96C252.31 15.8 252.102 16.152 251.958 16.152C251.654 16.152 251.638 15.8 251.638 14.904V10.6ZM256.566 17C258.454 17 258.806 15.176 258.806 13.416C258.806 11.288 258.262 10.12 256.182 10.12C255.206 10.12 254.438 10.424 253.686 11.032C253.494 11.16 253.414 11.432 253.574 11.64C253.702 11.832 254.006 11.848 254.182 11.736C254.71 11.272 255.35 10.984 256.182 10.984C257.734 10.984 257.83 12.072 257.83 13.48C257.83 14.92 257.654 16.168 256.582 16.168C255.462 16.168 255.43 14.84 255.43 13.72C255.43 13.528 255.334 13.384 255.094 13.384H254.054C253.83 13.384 253.686 13.544 253.686 13.768C253.686 14.008 253.814 14.168 254.054 14.168H254.502C254.614 15.672 254.838 17 256.566 17ZM259.053 6.792C258.733 6.792 258.589 7.048 258.477 7.288C258.157 8.088 257.245 8.216 256.493 8.168V7.416C256.493 7.208 256.429 6.888 256.013 6.888H255.325C255.005 6.888 254.701 6.904 254.701 7.288C254.701 7.672 254.957 7.736 255.293 7.736H255.581V8.296C255.581 8.568 255.565 8.824 255.885 8.904C256.077 8.952 256.349 8.968 256.573 8.984C257.789 9.048 259.165 8.696 259.453 7.24C259.501 7 259.421 6.792 259.053 6.792ZM263.405 10.136C262.989 10.12 261.453 10.12 261.693 10.76C261.741 10.968 261.981 11.096 262.173 11.064C262.509 10.968 263.069 10.984 263.373 11C264.589 11.112 264.813 12.696 264.781 13.592C264.733 15 264.413 16.168 262.989 16.168C261.837 16.168 261.517 14.984 260.989 13.016C260.925 12.792 260.669 12.68 260.413 12.744C260.173 12.776 259.997 12.984 260.029 13.192C260.621 15.864 261.309 17 262.957 17C265.245 17 265.725 15.336 265.789 13.544C265.837 11.816 265.085 10.264 263.405 10.136ZM268.47 14.904V10.6C268.47 10.328 268.294 10.136 267.974 10.136C267.654 10.136 267.478 10.328 267.478 10.6V14.936C267.478 16.168 267.558 17.032 268.646 17.032C268.838 17.032 269.446 16.952 269.67 16.6C269.83 16.344 269.782 16.056 269.542 15.96C269.142 15.8 268.934 16.152 268.789 16.152C268.486 16.152 268.47 15.8 268.47 14.904ZM273.026 13.976H273.41C274.034 13.976 274.098 16.152 272.962 16.152C272.066 16.152 271.538 15.128 271.538 13.608V13.592C271.538 11.992 272.162 10.712 272.994 11.064C273.314 11.192 273.794 11.544 274.002 11.544C274.242 11.544 274.642 11.24 274.914 11.112C275.634 10.76 275.938 11.352 275.938 12.04V16.536C275.938 16.808 276.114 17 276.434 17C276.754 17 276.93 16.808 276.93 16.536V12.248C276.93 10.808 276.322 10.088 275.33 10.168C275.122 10.184 274.898 10.232 274.722 10.312L274.002 10.696L273.25 10.312C273.074 10.216 272.898 10.152 272.738 10.136C272.418 10.12 272.114 10.2 271.858 10.344C270.77 10.968 270.562 12.52 270.562 13.608C270.562 15.736 271.25 17 272.946 17H272.962C274.162 17 274.738 16.28 274.738 14.792C274.738 14.392 274.61 13.144 273.682 13.144H273.026C272.77 13.144 272.594 13.32 272.594 13.56C272.594 13.8 272.77 13.976 273.026 13.976ZM276.934 7.4C276.934 7.176 276.742 7.016 276.486 7.016C276.15 7.016 276.038 7.208 276.038 7.464V8.072H275.078V7.4C275.078 7.176 274.886 7.016 274.646 7.016C274.31 7.016 274.198 7.192 274.198 7.448V8.072L271.542 8.088C271.302 8.104 271.126 8.36 271.142 8.568C271.158 8.792 271.318 9 271.558 9H276.486C276.758 9 276.934 8.824 276.934 8.6V7.4ZM281.286 10.136C280.342 10.136 279.238 10.424 278.598 11.128C278.47 11.272 278.47 11.48 278.582 11.64C278.694 11.784 278.902 11.832 279.062 11.752C279.766 11.288 280.454 10.984 281.286 10.984C282.854 10.984 283.51 12.024 283.526 13.592C283.494 15.224 282.854 16.168 281.462 16.168C280.07 16.168 279.334 15.416 279.414 14.088H281.046C281.286 14.088 281.414 13.928 281.414 13.688C281.414 13.464 281.27 13.304 281.046 13.304H278.95C278.646 13.304 278.518 13.48 278.502 13.656C278.246 15.656 279.27 17.016 281.462 17.016C283.734 17.016 284.486 15.4 284.486 13.576C284.486 11.496 283.462 10.136 281.286 10.136ZM291.623 10.552C291.623 10.328 291.415 10.12 291.127 10.12C290.839 10.12 290.631 10.328 290.631 10.552V14.536C290.407 15.432 289.495 16.152 288.599 16.152C287.543 16.152 286.839 15.592 286.839 14.552V10.552C286.839 10.328 286.631 10.12 286.343 10.12C286.055 10.12 285.847 10.328 285.847 10.552V14.552C285.847 16.184 286.935 17.016 288.439 17.016C289.287 17.016 290.167 16.616 290.663 15.976V16.536C290.663 16.808 290.807 17 291.143 17C291.463 17 291.623 16.808 291.623 16.536V10.552ZM62.032 30.6C62.032 30.328 61.856 30.136 61.536 30.136C61.216 30.136 61.04 30.328 61.04 30.6V34.936C61.04 36.168 61.12 37.032 62.208 37.032C62.4 37.032 63.008 36.952 63.232 36.6C63.392 36.344 63.344 36.056 63.104 35.96C62.704 35.8 62.496 36.152 62.352 36.152C62.048 36.152 62.032 35.8 62.032 34.904V30.6ZM65.2 30.6C65.2 30.328 65.024 30.136 64.704 30.136C64.384 30.136 64.208 30.328 64.208 30.6V34.936C64.208 36.168 64.288 37.032 65.376 37.032C65.568 37.032 66.176 36.952 66.4 36.6C66.56 36.344 66.512 36.056 66.272 35.96C65.872 35.8 65.664 36.152 65.52 36.152C65.216 36.152 65.2 35.8 65.2 34.904V30.6ZM70.3363 30.136C69.2643 30.136 67.1523 30.728 67.6003 31.48C67.6963 31.688 68.0003 31.768 68.1923 31.672C68.7523 31.304 69.4083 31.032 70.3363 31.032C72.0163 31.032 72.3363 31.976 72.3363 33.512C71.6003 33 70.8163 32.808 69.8723 32.808C68.3523 32.808 67.4563 33.48 67.3923 34.808C67.2803 36.216 68.1763 36.92 69.3443 36.984C69.5043 37 69.6963 37 69.8723 37C70.3043 36.984 70.8003 36.856 70.6883 36.408C70.6243 36.12 70.4163 36.072 70.1923 36.104C69.9043 36.168 69.5843 36.184 69.3123 36.136C68.8163 36.04 68.4323 35.752 68.3683 35.208C68.2563 34.056 68.9923 33.656 69.9523 33.656C70.8323 33.656 71.9203 34.008 72.3203 34.536V36.536C72.3203 36.808 72.4963 37 72.8163 37C73.1363 37 73.3123 36.808 73.3123 36.536V33.272C73.3123 31.208 72.4323 30.136 70.3363 30.136ZM76.3654 32.952H78.0774C78.3334 32.952 78.4934 32.776 78.4934 32.536C78.4934 32.296 78.3174 32.152 78.0774 32.152H76.1574C75.7734 32.152 75.5654 31.88 75.6774 31.544C75.7094 31.352 75.5654 31.176 75.3414 31.128C74.8294 31.016 74.7014 31.688 74.7654 32.072C74.9254 32.776 75.6294 32.952 76.3654 32.952ZM76.3654 36.28H78.0774C78.3334 36.28 78.4934 36.104 78.4934 35.864C78.4934 35.624 78.3174 35.48 78.0774 35.48H76.1574C75.7734 35.48 75.5654 35.208 75.6774 34.872C75.7094 34.68 75.5654 34.504 75.3414 34.456C74.8294 34.344 74.7014 35.016 74.7654 35.4C74.9254 36.104 75.6294 36.28 76.3654 36.28ZM85.4126 30.136C85.1246 30.136 84.9166 30.328 84.9166 30.552V34.312C84.9166 35.896 83.6686 36.152 82.9326 36.168C82.1806 36.152 80.9326 35.896 80.9326 34.312V30.552C80.9326 30.328 80.6926 30.136 80.4366 30.136C80.1646 30.136 79.9406 30.328 79.9406 30.552V34.312C79.9406 36.12 81.3006 37 82.9326 37C84.6446 37 85.9086 36.12 85.9086 34.312V30.552C85.9086 30.328 85.6846 30.136 85.4126 30.136ZM90.1591 33.096C89.4711 33 88.4631 32.872 88.4311 32.104C88.4311 31 89.5031 30.936 90.2711 30.936C90.8471 30.936 91.4711 31.16 91.9831 31.496C92.1591 31.608 92.4151 31.512 92.5111 31.352C92.6391 31.16 92.6231 30.888 92.4151 30.744C91.7431 30.312 91.0711 30.136 90.3191 30.136C88.8311 30.136 87.3591 30.552 87.4711 32.2C87.5351 33.528 89.0711 33.816 90.1111 33.96C91.1511 34.12 91.7431 34.248 91.7911 34.904C91.8711 35.992 90.7991 36.168 89.9351 36.168C89.4391 36.168 88.6071 35.976 88.0791 35.64C87.8711 35.528 87.6151 35.576 87.4551 35.736C87.2151 35.992 87.4231 36.328 87.6471 36.44C88.3671 36.824 89.1351 37 89.9031 37C91.4071 37 92.8951 36.536 92.7831 34.824C92.6871 33.448 91.2471 33.24 90.1591 33.096ZM87.1815 28.216C86.9415 28.232 86.8295 28.424 86.8295 28.632C86.8455 28.856 87.0215 29 87.2615 29H92.2055C92.4455 29 92.6215 28.856 92.6375 28.632C92.6375 28.424 92.5255 28.232 92.2855 28.216H87.1815ZM97.1335 30.136C95.4855 30.136 94.3655 31.032 93.9175 31.704C94.1895 32.024 94.3655 32.504 94.3655 33.384V36.536C94.3655 36.76 94.5095 37 94.8615 37C95.1815 37 95.3575 36.808 95.3575 36.536V33.544C95.3575 32.776 95.2295 32.088 94.9415 31.832C95.4375 31.384 96.1255 30.984 97.1335 30.984C98.3015 30.984 99.0535 31.688 99.0535 33.272V36.536C99.0535 36.808 99.2295 37 99.5495 37C99.8695 37 100.046 36.808 100.046 36.536V33.112C100.046 31.064 98.7495 30.136 97.1335 30.136ZM102.364 31.992C102.364 31.752 102.78 30.968 103.884 30.968C104.604 30.984 105.356 31.224 105.356 32.92V36.472C105.356 36.84 105.516 37 105.836 37C106.172 37 106.332 36.84 106.332 36.472V32.792C106.332 31.16 105.612 30.136 103.884 30.136C102.652 30.136 101.404 30.984 101.404 32.088C101.404 32.232 101.596 32.424 101.884 32.424C102.14 32.424 102.364 32.232 102.364 31.992ZM110.597 33.096C109.909 33 108.901 32.872 108.869 32.104C108.869 31 109.941 30.936 110.709 30.936C111.285 30.936 111.909 31.16 112.421 31.496C112.597 31.608 112.853 31.512 112.949 31.352C113.077 31.16 113.061 30.888 112.853 30.744C112.181 30.312 111.509 30.136 110.757 30.136C109.269 30.136 107.797 30.552 107.909 32.2C107.973 33.528 109.509 33.816 110.549 33.96C111.589 34.12 112.181 34.248 112.229 34.904C112.309 35.992 111.237 36.168 110.373 36.168C109.877 36.168 109.045 35.976 108.517 35.64C108.309 35.528 108.053 35.576 107.893 35.736C107.653 35.992 107.861 36.328 108.085 36.44C108.805 36.824 109.573 37 110.341 37C111.845 37 113.333 36.536 113.221 34.824C113.125 33.448 111.685 33.24 110.597 33.096ZM122.538 30.008C122.81 30.008 122.986 29.8 122.986 29.592C122.986 29.304 122.762 29.16 122.522 29.16H118.17C117.85 29.16 117.722 29.384 117.722 29.656V36.52C117.722 36.808 117.866 37 118.17 37H122.538C122.81 37 122.986 36.824 122.986 36.584C122.986 36.296 122.762 36.168 122.538 36.168H118.73V33.432H121.85C122.09 33.432 122.282 33.256 122.282 33.016C122.282 32.728 122.042 32.616 121.834 32.616H118.73V30.008H122.538ZM130.025 33.56C130.265 33.56 130.457 33.352 130.457 33.128C130.457 32.92 130.249 32.712 130.025 32.712H124.857C124.569 32.712 124.425 32.92 124.425 33.128C124.425 33.352 124.569 33.56 124.857 33.56H130.025ZM136.338 32.968C136.994 32.68 137.442 31.992 137.442 31.272C137.442 30.008 136.53 29.16 135.186 29.16H132.498C132.226 29.16 132.05 29.416 132.05 29.608V36.36C132.05 36.664 132.194 37 132.498 37H135.474C137.042 37 137.906 36.232 137.906 34.856C137.906 33.976 137.17 33.176 136.338 32.968ZM135.394 36.168H133.058V33.416H135.202C136.178 33.416 136.898 34.008 136.898 34.792C136.898 35.72 136.194 36.168 135.394 36.168ZM136.402 31.32C136.402 32.104 135.906 32.632 135.074 32.632H133.058V30.008H135.074C135.906 30.008 136.386 30.536 136.402 31.32ZM140.597 36.616V31.448C140.597 31.208 140.373 31.016 140.085 31.016C139.829 31.016 139.589 31.208 139.589 31.448V36.616C139.589 36.856 139.813 37.048 140.101 37.048C140.357 37.048 140.597 36.856 140.597 36.616ZM139.429 29.464C139.429 29.816 139.717 30.088 140.085 30.088C140.469 30.088 140.741 29.816 140.741 29.464C140.741 29.112 140.469 28.824 140.085 28.824C139.717 28.824 139.429 29.112 139.429 29.464ZM143.159 37.048C143.431 37.048 143.655 36.856 143.655 36.616V28.872C143.655 28.632 143.431 28.44 143.159 28.44C142.903 28.44 142.663 28.632 142.663 28.872V36.616C142.663 36.856 142.903 37.048 143.159 37.048ZM146.065 37.048C146.337 37.048 146.561 36.856 146.561 36.616V28.872C146.561 28.632 146.337 28.44 146.065 28.44C145.809 28.44 145.569 28.632 145.569 28.872V36.616C145.569 36.856 145.809 37.048 146.065 37.048Z" fill="#545859"/>
</svg>
