<svg width="325" height="44" viewBox="0 0 325 44" fill="none" xmlns="http://www.w3.org/2000/svg">
<g id="Frame 4031">
<g id="Group 4016">
<circle id="Ellipse 180" cx="22" cy="22" r="22" fill="#C4C4C4"/>
<circle id="Ellipse 179" cx="22" cy="22" r="20" fill="#EFEFEF"/>
<g id="Icons - Manage Info" clip-path="url(#clip0_2373_366059)">
<g id="Group 4205">
<path id="Vector" d="M22 35.3215C14.6546 35.3215 8.67871 29.3457 8.67871 22.001C8.67871 14.6563 14.6546 8.67969 22 8.67969C29.3455 8.67969 35.3206 14.6556 35.3206 22.001C35.3206 29.3464 29.3455 35.3215 22 35.3215Z" fill="white"/>
<path id="Vector_2" d="M22 8C14.2802 8 8 14.281 8 22C8 29.719 14.2802 36 22 36C29.7198 36 36 29.7198 36 22C36 14.2802 29.7198 8 22 8ZM22 34.6418C15.0289 34.6418 9.35815 28.9711 9.35815 22.0007C9.35815 15.0304 15.0289 9.35812 22 9.35812C28.9711 9.35812 34.6419 15.0297 34.6419 22.0007C34.6419 28.9718 28.9703 34.6418 22 34.6418V34.6418Z" fill="#C4C4C4"/>
<path id="Vector_3" d="M15.2383 24.6796C16.5758 24.6796 17.6601 23.5953 17.6601 22.2578C17.6601 20.9202 16.5758 19.8359 15.2383 19.8359C13.9007 19.8359 12.8164 20.9202 12.8164 22.2578C12.8164 23.5953 13.9007 24.6796 15.2383 24.6796Z" fill="#C4C4C4"/>
<path id="Vector_4" d="M21.8818 24.6796C23.2194 24.6796 24.3037 23.5953 24.3037 22.2578C24.3037 20.9202 23.2194 19.8359 21.8818 19.8359C20.5443 19.8359 19.46 20.9202 19.46 22.2578C19.46 23.5953 20.5443 24.6796 21.8818 24.6796Z" fill="#C4C4C4"/>
<path id="Vector_5" d="M28.5254 24.6796C29.8629 24.6796 30.9472 23.5953 30.9472 22.2578C30.9472 20.9202 29.8629 19.8359 28.5254 19.8359C27.1878 19.8359 26.1035 20.9202 26.1035 22.2578C26.1035 23.5953 27.1878 24.6796 28.5254 24.6796Z" fill="#C4C4C4"/>
</g>
</g>
</g>
<path id="&#224;&#184;&#154;&#224;&#184;&#163;&#224;&#184;&#180;&#224;&#184;&#129;&#224;&#184;&#178;&#224;&#184;&#163;&#224;&#184;&#173;&#224;&#184;&#183;&#224;&#185;&#136;&#224;&#184;&#153; &#224;&#185;&#134; &#224;&#185;&#132;&#224;&#184;&#148;&#224;&#185;&#137;&#224;&#185;&#129;&#224;&#184;&#129;&#224;&#185;&#136; &#224;&#184;&#170;&#224;&#184;&#165;&#224;&#184;&#177;&#224;&#184;&#154;&#224;&#184;&#163;&#224;&#184;&#176;&#224;&#184;&#148;&#224;&#184;&#177;&#224;&#184;&#154;&#224;&#184;&#132;&#224;&#184;&#167;&#224;&#184;&#178;&#224;&#184;&#161;&#224;&#185;&#128;&#224;&#184;&#163;&#224;&#185;&#135;&#224;&#184;&#167;&#224;&#184;&#173;&#224;&#184;&#180;&#224;&#184;&#153;&#224;&#185;&#128;&#224;&#184;&#149;&#224;&#184;&#173;&#224;&#184;&#163;&#224;&#185;&#140;&#224;&#185;&#128;&#224;&#184;&#153;&#224;&#185;&#135;&#224;&#184;&#149; &#224;&#184;&#132;&#224;&#185;&#137;&#224;&#184;&#153;&#224;&#184;&#171;&#224;&#184;&#178;&#224;&#184;&#168;&#224;&#184;&#185;&#224;&#184;&#153;&#224;&#184;&#162;&#224;&#185;&#140;&#224;&#184;&#154;&#224;&#184;&#163;&#224;&#184;&#180;&#224;&#184;&#129;&#224;&#184;&#178;&#224;&#184;&#163; &#224;&#185;&#129;&#224;&#184;&#165;&#224;&#184;&#176;&#224;&#184;&#163;&#224;&#184;&#185;&#224;&#185;&#137;&#224;&#184;&#136;&#224;&#184;&#177;&#224;&#184;&#129; NT" d="M66.272 10.136C66.4107 10.136 66.528 10.1787 66.624 10.264C66.72 10.3387 66.768 10.4347 66.768 10.552V14.312C66.768 14.76 66.6933 15.1547 66.544 15.496C66.3947 15.8267 66.1867 16.104 65.92 16.328C65.6533 16.552 65.3387 16.7227 64.976 16.84C64.6133 16.9467 64.2187 17 63.792 17C63.3867 17 63.0027 16.9467 62.64 16.84C62.2773 16.7227 61.9573 16.552 61.68 16.328C61.4133 16.104 61.2 15.8267 61.04 15.496C60.88 15.1547 60.8 14.76 60.8 14.312V10.552C60.8 10.4347 60.848 10.3387 60.944 10.264C61.04 10.1787 61.1573 10.136 61.296 10.136C61.424 10.136 61.536 10.1787 61.632 10.264C61.7387 10.3387 61.792 10.4347 61.792 10.552V14.312C61.792 14.7067 61.8613 15.0267 62 15.272C62.1387 15.5067 62.3093 15.6933 62.512 15.832C62.7147 15.96 62.928 16.0507 63.152 16.104C63.3867 16.1467 63.6 16.168 63.792 16.168C63.9733 16.168 64.176 16.1467 64.4 16.104C64.6347 16.0507 64.8533 15.96 65.056 15.832C65.2587 15.6933 65.4293 15.5067 65.568 15.272C65.7067 15.0267 65.776 14.7067 65.776 14.312V10.552C65.776 10.4347 65.8187 10.3387 65.904 10.264C66 10.1787 66.1227 10.136 66.272 10.136ZM71.0185 13.096C71.2852 13.128 71.5678 13.176 71.8665 13.24C72.1652 13.2933 72.4425 13.3787 72.6985 13.496C72.9545 13.6133 73.1678 13.7787 73.3385 13.992C73.5198 14.2053 73.6212 14.4827 73.6425 14.824C73.6745 15.2507 73.6105 15.608 73.4505 15.896C73.2905 16.1733 73.0718 16.3973 72.7945 16.568C72.5278 16.728 72.2132 16.84 71.8505 16.904C71.4985 16.968 71.1358 17 70.7625 17C70.3785 17 69.9945 16.9573 69.6105 16.872C69.2372 16.776 68.8692 16.632 68.5065 16.44C68.3892 16.3867 68.2985 16.2907 68.2345 16.152C68.1705 16.0027 68.1972 15.864 68.3145 15.736C68.3998 15.6507 68.4958 15.6027 68.6025 15.592C68.7198 15.5707 68.8318 15.5867 68.9385 15.64C69.0665 15.7253 69.2105 15.8 69.3705 15.864C69.5412 15.928 69.7065 15.9867 69.8665 16.04C70.0372 16.0827 70.2025 16.1147 70.3625 16.136C70.5225 16.1573 70.6665 16.168 70.7945 16.168C71.0078 16.168 71.2265 16.152 71.4505 16.12C71.6852 16.088 71.8932 16.0293 72.0745 15.944C72.2558 15.8587 72.3998 15.736 72.5065 15.576C72.6238 15.4053 72.6718 15.1813 72.6505 14.904C72.6292 14.5733 72.4745 14.3547 72.1865 14.248C71.8985 14.1413 71.4932 14.0453 70.9705 13.96C70.7145 13.928 70.4318 13.88 70.1225 13.816C69.8238 13.752 69.5412 13.656 69.2745 13.528C69.0185 13.4 68.7998 13.2293 68.6185 13.016C68.4372 12.8027 68.3412 12.5307 68.3305 12.2C68.2985 11.784 68.3572 11.4427 68.5065 11.176C68.6665 10.9093 68.8798 10.7013 69.1465 10.552C69.4238 10.392 69.7385 10.2853 70.0905 10.232C70.4425 10.168 70.8052 10.136 71.1785 10.136C71.5518 10.136 71.9092 10.184 72.2505 10.28C72.5918 10.376 72.9332 10.5307 73.2745 10.744C73.3812 10.8187 73.4398 10.9147 73.4505 11.032C73.4612 11.1493 73.4345 11.256 73.3705 11.352C73.3172 11.4373 73.2372 11.496 73.1305 11.528C73.0238 11.56 72.9278 11.5493 72.8425 11.496C72.5865 11.3253 72.3092 11.192 72.0105 11.096C71.7118 10.9893 71.4185 10.936 71.1305 10.936C70.9385 10.936 70.7358 10.9467 70.5225 10.968C70.3092 10.9787 70.1065 11.0267 69.9145 11.112C69.7332 11.1867 69.5838 11.304 69.4665 11.464C69.3492 11.6133 69.2905 11.8267 69.2905 12.104C69.3012 12.296 69.3652 12.4507 69.4825 12.568C69.5998 12.6853 69.7438 12.7813 69.9145 12.856C70.0852 12.92 70.2665 12.9733 70.4585 13.016C70.6612 13.048 70.8478 13.0747 71.0185 13.096ZM73.1449 8.216C73.2622 8.22667 73.3529 8.27467 73.4169 8.36C73.4702 8.43467 73.4969 8.52533 73.4969 8.632C73.4755 8.87733 73.3315 9 73.0649 9H68.1209C67.8542 9 67.7102 8.87733 67.6889 8.632C67.6889 8.52533 67.7209 8.43467 67.7849 8.36C67.8382 8.27467 67.9235 8.22667 68.0409 8.216H73.1449ZM77.9929 10.136C78.3982 10.136 78.7769 10.1947 79.1289 10.312C79.4809 10.4293 79.7902 10.6107 80.0569 10.856C80.3235 11.1013 80.5315 11.4107 80.6809 11.784C80.8302 12.1573 80.9049 12.6 80.9049 13.112V16.536C80.9049 16.6747 80.8622 16.7867 80.7769 16.872C80.6915 16.9573 80.5689 17 80.4089 17C80.2489 17 80.1262 16.9573 80.0409 16.872C79.9555 16.7867 79.9129 16.6747 79.9129 16.536V13.272C79.9129 12.472 79.7369 11.8907 79.3849 11.528C79.0435 11.1653 78.5795 10.984 77.9929 10.984C77.4809 10.984 77.0489 11.0693 76.6969 11.24C76.3449 11.4107 76.0462 11.608 75.8009 11.832C75.9502 11.96 76.0569 12.184 76.1209 12.504C76.1849 12.8133 76.2169 13.16 76.2169 13.544V16.536C76.2169 16.6747 76.1742 16.7867 76.0889 16.872C76.0035 16.9573 75.8809 17 75.7209 17C75.5395 17 75.4115 16.952 75.3369 16.856C75.2622 16.76 75.2249 16.6533 75.2249 16.536V13.384C75.2249 12.936 75.1822 12.584 75.0969 12.328C75.0222 12.072 74.9155 11.864 74.7769 11.704C74.8835 11.5333 75.0329 11.3573 75.2249 11.176C75.4275 10.9947 75.6622 10.8293 75.9289 10.68C76.2062 10.52 76.5155 10.392 76.8569 10.296C77.1982 10.1893 77.5769 10.136 77.9929 10.136ZM83.2231 11.992C83.2231 12.1093 83.1751 12.2107 83.0791 12.296C82.9831 12.3813 82.8711 12.424 82.7431 12.424C82.5938 12.424 82.4765 12.3867 82.3911 12.312C82.3058 12.2373 82.2631 12.1627 82.2631 12.088C82.2631 11.8107 82.3325 11.5547 82.4711 11.32C82.6205 11.0853 82.8071 10.8827 83.0311 10.712C83.2658 10.5307 83.5325 10.392 83.8311 10.296C84.1298 10.1893 84.4338 10.136 84.7431 10.136C85.6071 10.136 86.2311 10.376 86.6151 10.856C86.9991 11.3253 87.1911 11.9707 87.1911 12.792V16.472C87.1911 16.824 87.0258 17 86.6951 17C86.3751 17 86.2151 16.824 86.2151 16.472V12.92C86.2151 12.4933 86.1725 12.152 86.0871 11.896C86.0018 11.64 85.8898 11.448 85.7511 11.32C85.6125 11.1813 85.4525 11.0907 85.2711 11.048C85.1005 10.9947 84.9245 10.968 84.7431 10.968C84.4658 10.968 84.2311 11.0107 84.0391 11.096C83.8471 11.1813 83.6871 11.2827 83.5591 11.4C83.4418 11.5067 83.3565 11.6187 83.3031 11.736C83.2498 11.8427 83.2231 11.928 83.2231 11.992ZM91.456 13.096C91.7227 13.128 92.0053 13.176 92.304 13.24C92.6027 13.2933 92.88 13.3787 93.136 13.496C93.392 13.6133 93.6053 13.7787 93.776 13.992C93.9573 14.2053 94.0587 14.4827 94.08 14.824C94.112 15.2507 94.048 15.608 93.888 15.896C93.728 16.1733 93.5093 16.3973 93.232 16.568C92.9653 16.728 92.6507 16.84 92.288 16.904C91.936 16.968 91.5733 17 91.2 17C90.816 17 90.432 16.9573 90.048 16.872C89.6747 16.776 89.3067 16.632 88.944 16.44C88.8267 16.3867 88.736 16.2907 88.672 16.152C88.608 16.0027 88.6347 15.864 88.752 15.736C88.8373 15.6507 88.9333 15.6027 89.04 15.592C89.1573 15.5707 89.2693 15.5867 89.376 15.64C89.504 15.7253 89.648 15.8 89.808 15.864C89.9787 15.928 90.144 15.9867 90.304 16.04C90.4747 16.0827 90.64 16.1147 90.8 16.136C90.96 16.1573 91.104 16.168 91.232 16.168C91.4453 16.168 91.664 16.152 91.888 16.12C92.1227 16.088 92.3307 16.0293 92.512 15.944C92.6933 15.8587 92.8373 15.736 92.944 15.576C93.0613 15.4053 93.1093 15.1813 93.088 14.904C93.0667 14.5733 92.912 14.3547 92.624 14.248C92.336 14.1413 91.9307 14.0453 91.408 13.96C91.152 13.928 90.8693 13.88 90.56 13.816C90.2613 13.752 89.9787 13.656 89.712 13.528C89.456 13.4 89.2373 13.2293 89.056 13.016C88.8747 12.8027 88.7787 12.5307 88.768 12.2C88.736 11.784 88.7947 11.4427 88.944 11.176C89.104 10.9093 89.3173 10.7013 89.584 10.552C89.8613 10.392 90.176 10.2853 90.528 10.232C90.88 10.168 91.2427 10.136 91.616 10.136C91.9893 10.136 92.3467 10.184 92.688 10.28C93.0293 10.376 93.3707 10.5307 93.712 10.744C93.8187 10.8187 93.8773 10.9147 93.888 11.032C93.8987 11.1493 93.872 11.256 93.808 11.352C93.7547 11.4373 93.6747 11.496 93.568 11.528C93.4613 11.56 93.3653 11.5493 93.28 11.496C93.024 11.3253 92.7467 11.192 92.448 11.096C92.1493 10.9893 91.856 10.936 91.568 10.936C91.376 10.936 91.1733 10.9467 90.96 10.968C90.7467 10.9787 90.544 11.0267 90.352 11.112C90.1707 11.1867 90.0213 11.304 89.904 11.464C89.7867 11.6133 89.728 11.8267 89.728 12.104C89.7387 12.296 89.8027 12.4507 89.92 12.568C90.0373 12.6853 90.1813 12.7813 90.352 12.856C90.5227 12.92 90.704 12.9733 90.896 13.016C91.0987 13.048 91.2853 13.0747 91.456 13.096ZM98.2864 10.136C98.8304 10.136 99.2997 10.2213 99.6944 10.392C100.1 10.552 100.436 10.7813 100.702 11.08C100.969 11.3787 101.166 11.7413 101.294 12.168C101.422 12.584 101.486 13.0533 101.486 13.576C101.486 14.0347 101.433 14.472 101.326 14.888C101.23 15.304 101.065 15.672 100.83 15.992C100.596 16.3013 100.281 16.552 99.8864 16.744C99.5024 16.9253 99.0277 17.016 98.4624 17.016C97.9184 17.016 97.4437 16.936 97.0384 16.776C96.633 16.616 96.3077 16.3867 96.0624 16.088C95.817 15.7893 95.6464 15.4373 95.5504 15.032C95.4544 14.616 95.4384 14.1573 95.5024 13.656C95.513 13.5707 95.5504 13.4907 95.6144 13.416C95.689 13.3413 95.801 13.304 95.9504 13.304H98.0464C98.1637 13.304 98.2544 13.3413 98.3184 13.416C98.3824 13.48 98.4144 13.5707 98.4144 13.688C98.4144 13.9547 98.2917 14.088 98.0464 14.088H96.4144C96.3717 14.76 96.5264 15.2773 96.8784 15.64C97.2304 15.992 97.7584 16.168 98.4624 16.168C99.1664 16.168 99.6784 15.944 99.9984 15.496C100.329 15.048 100.505 14.4133 100.526 13.592C100.516 12.8027 100.334 12.1733 99.9824 11.704C99.641 11.224 99.0757 10.984 98.2864 10.984C97.8704 10.984 97.481 11.0533 97.1184 11.192C96.7664 11.3307 96.4144 11.5173 96.0624 11.752C95.977 11.7947 95.8864 11.8053 95.7904 11.784C95.705 11.7627 95.6357 11.7147 95.5824 11.64C95.4544 11.4587 95.4597 11.288 95.5984 11.128C95.7584 10.9573 95.945 10.808 96.1584 10.68C96.3717 10.552 96.5957 10.4507 96.8304 10.376C97.065 10.2907 97.305 10.232 97.5504 10.2C97.8064 10.1573 98.0517 10.136 98.2864 10.136ZM101.247 8.6C101.247 8.71733 101.21 8.81333 101.135 8.888C101.05 8.96267 100.938 9 100.799 9H95.8709C95.7535 9 95.6575 8.95733 95.5829 8.872C95.5082 8.78667 95.4655 8.68533 95.4549 8.568C95.4442 8.46133 95.4815 8.36 95.5669 8.264C95.6415 8.15733 95.7375 8.09867 95.8549 8.088L98.5109 8.072V7.448C98.5109 7.32 98.5429 7.21867 98.6069 7.144C98.6709 7.05867 98.7882 7.016 98.9589 7.016C99.0762 7.016 99.1775 7.05333 99.2629 7.128C99.3482 7.192 99.3909 7.28267 99.3909 7.4V8.072H100.351V7.464C100.351 7.336 100.383 7.22933 100.447 7.144C100.511 7.05867 100.628 7.016 100.799 7.016C100.927 7.016 101.034 7.05333 101.119 7.128C101.204 7.192 101.247 7.28267 101.247 7.4V8.6ZM100.767 6.28C100.65 6.28 100.543 6.248 100.447 6.184C100.351 6.10933 100.303 6.01333 100.303 5.896V4.68C100.303 4.57333 100.351 4.48267 100.447 4.408C100.543 4.33333 100.65 4.296 100.767 4.296C100.895 4.296 101.007 4.33333 101.103 4.408C101.199 4.48267 101.247 4.57333 101.247 4.68V5.896C101.247 6.01333 101.199 6.10933 101.103 6.184C101.007 6.248 100.895 6.28 100.767 6.28ZM108.623 16.536C108.623 16.6747 108.58 16.7867 108.495 16.872C108.42 16.9573 108.303 17 108.143 17C107.972 17 107.85 16.9573 107.775 16.872C107.7 16.7867 107.663 16.6747 107.663 16.536V15.976C107.418 16.296 107.092 16.552 106.687 16.744C106.282 16.9253 105.866 17.016 105.439 17.016C105.066 17.016 104.719 16.968 104.399 16.872C104.079 16.7653 103.802 16.6107 103.567 16.408C103.343 16.1947 103.167 15.9333 103.039 15.624C102.911 15.3147 102.847 14.9573 102.847 14.552V10.552C102.847 10.4347 102.89 10.3333 102.975 10.248C103.071 10.1627 103.194 10.12 103.343 10.12C103.492 10.12 103.61 10.1627 103.695 10.248C103.791 10.3333 103.839 10.4347 103.839 10.552V14.552C103.839 15.0747 103.999 15.4747 104.319 15.752C104.639 16.0187 105.066 16.152 105.599 16.152C105.823 16.152 106.042 16.1093 106.255 16.024C106.479 15.9387 106.682 15.8267 106.863 15.688C107.044 15.5387 107.204 15.368 107.343 15.176C107.482 14.9733 107.578 14.76 107.631 14.536V10.552C107.631 10.4347 107.674 10.3333 107.759 10.248C107.855 10.1627 107.978 10.12 108.127 10.12C108.276 10.12 108.394 10.1627 108.479 10.248C108.575 10.3333 108.623 10.4347 108.623 10.552V16.536ZM118.949 18.984C118.949 19.1013 118.901 19.1973 118.805 19.272C118.719 19.3573 118.602 19.4 118.453 19.4C118.303 19.4 118.181 19.3573 118.085 19.272C117.999 19.1973 117.957 19.1013 117.957 18.984V12.296C117.957 12.1253 117.919 11.992 117.845 11.896C117.781 11.7893 117.663 11.736 117.493 11.736C117.429 11.736 117.365 11.7467 117.301 11.768C117.237 11.7893 117.167 11.816 117.093 11.848C116.901 11.944 116.746 12.0187 116.629 12.072C116.511 12.1147 116.415 12.152 116.341 12.184C116.277 12.2053 116.229 12.216 116.197 12.216C116.175 12.216 116.154 12.216 116.133 12.216C115.973 12.1733 115.807 12.0987 115.637 11.992C115.466 11.8853 115.285 11.8 115.093 11.736C114.89 11.6613 114.725 11.6613 114.597 11.736C114.469 11.8107 114.362 11.928 114.277 12.088C114.202 12.2373 114.149 12.4133 114.117 12.616C114.085 12.8187 114.069 13 114.069 13.16C114.069 13.5547 114.197 13.8693 114.453 14.104C114.719 14.328 115.082 14.4187 115.541 14.376C115.658 14.3653 115.743 14.4027 115.797 14.488C115.861 14.5733 115.898 14.6693 115.909 14.776C115.909 14.904 115.866 15.0053 115.781 15.08C115.695 15.1547 115.578 15.192 115.429 15.192C115.098 15.224 114.789 15.1973 114.501 15.112C114.223 15.016 113.978 14.8827 113.765 14.712C113.562 14.5307 113.402 14.312 113.285 14.056C113.167 13.7893 113.109 13.5013 113.109 13.192C113.109 12.904 113.135 12.6213 113.189 12.344C113.242 12.056 113.333 11.8 113.461 11.576C113.599 11.352 113.775 11.176 113.989 11.048C114.213 10.9093 114.49 10.84 114.821 10.84C114.906 10.8507 114.997 10.872 115.093 10.904C115.189 10.936 115.274 10.968 115.349 11L116.181 11.384L116.645 11.16C116.73 11.128 116.821 11.0907 116.917 11.048C117.023 11.0053 117.13 10.968 117.237 10.936C117.493 10.8507 117.722 10.8293 117.925 10.872C118.138 10.904 118.319 10.9947 118.469 11.144C118.618 11.2827 118.735 11.464 118.821 11.688C118.906 11.912 118.949 12.168 118.949 12.456V18.984ZM124.157 11.144C124.157 10.376 124.248 9.70933 124.429 9.144C124.61 8.57867 124.952 8.12533 125.453 7.784C125.208 7.82667 124.904 7.85333 124.541 7.864C124.189 7.87467 123.853 7.85867 123.533 7.816C123.224 7.77333 122.968 7.69867 122.765 7.592C122.562 7.48533 122.488 7.336 122.541 7.144C122.584 7.048 122.648 6.97333 122.733 6.92C122.808 6.856 122.888 6.83467 122.973 6.856C123.282 6.93067 123.624 6.99467 123.997 7.048C124.381 7.09067 124.76 7.10133 125.133 7.08C125.378 7.05867 125.613 7.032 125.837 7C126.061 6.968 126.269 6.93067 126.461 6.888C126.578 6.86667 126.685 6.86133 126.781 6.872C126.877 6.88267 126.962 6.94667 127.037 7.064C127.09 7.16 127.106 7.26667 127.085 7.384C127.074 7.49067 127.01 7.57067 126.893 7.624C126.242 7.93333 125.789 8.33867 125.533 8.84C125.277 9.34133 125.149 9.96 125.149 10.696V14.904C125.149 15.352 125.165 15.672 125.197 15.864C125.229 16.056 125.32 16.152 125.469 16.152C125.501 16.152 125.538 16.136 125.581 16.104C125.634 16.0613 125.688 16.024 125.741 15.992C125.805 15.96 125.874 15.9387 125.949 15.928C126.034 15.9067 126.125 15.9173 126.221 15.96C126.338 16.0133 126.408 16.104 126.429 16.232C126.461 16.3493 126.434 16.472 126.349 16.6C126.296 16.6853 126.221 16.76 126.125 16.824C126.029 16.8773 125.928 16.92 125.821 16.952C125.725 16.984 125.629 17.0053 125.533 17.016C125.437 17.0267 125.368 17.032 125.325 17.032C125.048 17.032 124.829 16.984 124.669 16.888C124.52 16.7813 124.408 16.6373 124.333 16.456C124.258 16.264 124.21 16.04 124.189 15.784C124.168 15.528 124.157 15.2453 124.157 14.936V11.144ZM129.838 13.976C129.71 13.976 129.604 13.9387 129.518 13.864C129.444 13.7787 129.406 13.6773 129.406 13.56C129.406 13.4427 129.444 13.3467 129.518 13.272C129.604 13.1867 129.71 13.144 129.838 13.144H130.494C130.729 13.144 130.916 13.2133 131.054 13.352C131.193 13.48 131.3 13.6347 131.374 13.816C131.449 13.9973 131.497 14.184 131.518 14.376C131.54 14.5573 131.55 14.696 131.55 14.792C131.55 16.264 130.958 17 129.774 17H129.758C128.905 17 128.292 16.7013 127.918 16.104C127.556 15.5067 127.374 14.6747 127.374 13.608C127.374 12.5307 127.657 11.6827 128.222 11.064C128.798 10.4453 129.588 10.136 130.59 10.136C131.529 10.136 132.281 10.3653 132.846 10.824C133.412 11.272 133.694 11.9813 133.694 12.952V16.536C133.694 16.6747 133.652 16.7867 133.566 16.872C133.481 16.9573 133.358 17 133.198 17C133.038 17 132.916 16.9573 132.83 16.872C132.745 16.7867 132.702 16.6747 132.702 16.536V13.08C132.702 12.4187 132.542 11.9013 132.222 11.528C131.913 11.1547 131.369 10.968 130.59 10.968C129.854 10.968 129.294 11.208 128.91 11.688C128.537 12.168 128.35 12.808 128.35 13.608C128.35 14.376 128.473 14.9947 128.718 15.464C128.974 15.9227 129.326 16.152 129.774 16.152C129.966 16.152 130.121 16.0987 130.238 15.992C130.366 15.8853 130.462 15.752 130.526 15.592C130.601 15.432 130.644 15.256 130.654 15.064C130.676 14.872 130.67 14.696 130.638 14.536C130.606 14.376 130.553 14.2427 130.478 14.136C130.414 14.0293 130.329 13.976 130.222 13.976H129.838ZM134.1 6.792C134.281 6.792 134.399 6.84 134.452 6.936C134.505 7.02133 134.521 7.12267 134.5 7.24C134.425 7.60267 134.292 7.90133 134.1 8.136C133.908 8.37067 133.679 8.552 133.412 8.68C133.145 8.808 132.857 8.89867 132.548 8.952C132.228 8.99467 131.919 9.00533 131.62 8.984C131.503 8.97333 131.385 8.96267 131.268 8.952C131.14 8.94133 131.028 8.92533 130.932 8.904C130.772 8.86133 130.681 8.78667 130.66 8.68C130.639 8.56267 130.628 8.43467 130.628 8.296V7.736H130.34C130.169 7.736 130.031 7.70933 129.924 7.656C129.807 7.60267 129.748 7.48 129.748 7.288C129.748 7.096 129.812 6.984 129.94 6.952C130.068 6.90933 130.212 6.888 130.372 6.888H131.06C131.273 6.888 131.407 6.952 131.46 7.08C131.513 7.19733 131.54 7.30933 131.54 7.416V8.168C131.732 8.17867 131.929 8.17867 132.132 8.168C132.324 8.14667 132.511 8.104 132.692 8.04C132.873 7.976 133.039 7.88533 133.188 7.768C133.327 7.65067 133.439 7.49067 133.524 7.288C133.577 7.17067 133.647 7.05867 133.732 6.952C133.817 6.84533 133.94 6.792 134.1 6.792ZM136.532 14.904C136.532 15.352 136.548 15.672 136.58 15.864C136.612 16.056 136.703 16.152 136.852 16.152C136.884 16.152 136.921 16.136 136.964 16.104C137.017 16.0613 137.071 16.024 137.124 15.992C137.188 15.96 137.257 15.9387 137.332 15.928C137.417 15.9067 137.508 15.9173 137.604 15.96C137.721 16.0133 137.791 16.104 137.812 16.232C137.844 16.3493 137.817 16.472 137.732 16.6C137.679 16.6853 137.604 16.76 137.508 16.824C137.412 16.8773 137.311 16.92 137.204 16.952C137.108 16.984 137.012 17.0053 136.916 17.016C136.82 17.0267 136.751 17.032 136.708 17.032C136.431 17.032 136.212 16.984 136.052 16.888C135.903 16.7813 135.791 16.6373 135.716 16.456C135.641 16.264 135.593 16.04 135.572 15.784C135.551 15.528 135.54 15.2453 135.54 14.936V10.6C135.54 10.4613 135.583 10.3493 135.668 10.264C135.753 10.1787 135.876 10.136 136.036 10.136C136.196 10.136 136.319 10.1787 136.404 10.264C136.489 10.3493 136.532 10.4613 136.532 10.6V14.904ZM139.7 14.904C139.7 15.352 139.716 15.672 139.748 15.864C139.78 16.056 139.871 16.152 140.02 16.152C140.052 16.152 140.089 16.136 140.132 16.104C140.185 16.0613 140.239 16.024 140.292 15.992C140.356 15.96 140.425 15.9387 140.5 15.928C140.585 15.9067 140.676 15.9173 140.772 15.96C140.889 16.0133 140.959 16.104 140.98 16.232C141.012 16.3493 140.985 16.472 140.9 16.6C140.847 16.6853 140.772 16.76 140.676 16.824C140.58 16.8773 140.479 16.92 140.372 16.952C140.276 16.984 140.18 17.0053 140.084 17.016C139.988 17.0267 139.919 17.032 139.876 17.032C139.599 17.032 139.38 16.984 139.22 16.888C139.071 16.7813 138.959 16.6373 138.884 16.456C138.809 16.264 138.761 16.04 138.74 15.784C138.719 15.528 138.708 15.2453 138.708 14.936V10.6C138.708 10.4613 138.751 10.3493 138.836 10.264C138.921 10.1787 139.044 10.136 139.204 10.136C139.364 10.136 139.487 10.1787 139.572 10.264C139.657 10.3493 139.7 10.4613 139.7 10.6V14.904ZM144.852 10.136C145.258 10.136 145.636 10.1947 145.988 10.312C146.34 10.4293 146.65 10.6107 146.916 10.856C147.183 11.1013 147.391 11.4107 147.54 11.784C147.69 12.1573 147.764 12.6 147.764 13.112V16.536C147.764 16.6747 147.722 16.7867 147.636 16.872C147.551 16.9573 147.428 17 147.268 17C147.108 17 146.986 16.9573 146.9 16.872C146.815 16.7867 146.772 16.6747 146.772 16.536V13.272C146.772 12.472 146.596 11.8907 146.244 11.528C145.903 11.1653 145.439 10.984 144.852 10.984C144.34 10.984 143.908 11.0693 143.556 11.24C143.204 11.4107 142.906 11.608 142.66 11.832C142.81 11.96 142.916 12.184 142.98 12.504C143.044 12.8133 143.076 13.16 143.076 13.544V16.536C143.076 16.6747 143.034 16.7867 142.948 16.872C142.863 16.9573 142.74 17 142.58 17C142.399 17 142.271 16.952 142.196 16.856C142.122 16.76 142.084 16.6533 142.084 16.536V13.384C142.084 12.936 142.042 12.584 141.956 12.328C141.882 12.072 141.775 11.864 141.636 11.704C141.743 11.5333 141.892 11.3573 142.084 11.176C142.287 10.9947 142.522 10.8293 142.788 10.68C143.066 10.52 143.375 10.392 143.716 10.296C144.058 10.1893 144.436 10.136 144.852 10.136ZM147.25 9C147.133 9 147.021 8.96267 146.914 8.888C146.808 8.80267 146.754 8.70133 146.754 8.584V7C146.754 6.88267 146.808 6.78667 146.914 6.712C147.021 6.62667 147.133 6.584 147.25 6.584C147.389 6.584 147.512 6.62667 147.618 6.712C147.714 6.78667 147.762 6.88267 147.762 7V8.584C147.762 8.70133 147.714 8.80267 147.618 8.888C147.512 8.96267 147.389 9 147.25 9ZM155.289 10.136C155.897 10.136 156.42 10.2373 156.857 10.44L157.369 9.912C157.487 9.784 157.625 9.66667 157.785 9.56C157.956 9.45333 158.132 9.464 158.313 9.592C158.431 9.656 158.495 9.752 158.505 9.88C158.516 10.008 158.479 10.1147 158.393 10.2L157.609 11.016C158.047 11.528 158.265 12.28 158.265 13.272V16.536C158.265 16.6747 158.223 16.7867 158.137 16.872C158.052 16.9573 157.929 17 157.769 17C157.609 17 157.487 16.9573 157.401 16.872C157.316 16.7867 157.273 16.6747 157.273 16.536V14.536C157.177 14.408 157.039 14.2907 156.857 14.184C156.676 14.0667 156.479 13.9707 156.265 13.896C156.052 13.8213 155.828 13.7627 155.593 13.72C155.359 13.6773 155.129 13.656 154.905 13.656C154.66 13.656 154.436 13.6827 154.233 13.736C154.031 13.7893 153.855 13.88 153.705 14.008C153.567 14.1253 153.46 14.2853 153.385 14.488C153.311 14.68 153.289 14.92 153.321 15.208C153.353 15.4853 153.455 15.6987 153.625 15.848C153.807 15.9867 154.02 16.0827 154.265 16.136C154.543 16.1893 154.836 16.1787 155.145 16.104C155.263 16.0827 155.364 16.0933 155.449 16.136C155.545 16.168 155.609 16.2587 155.641 16.408C155.673 16.5253 155.668 16.6213 155.625 16.696C155.583 16.76 155.519 16.8187 155.433 16.872C155.359 16.9147 155.263 16.9467 155.145 16.968C155.039 16.9893 154.932 17 154.825 17C154.74 17 154.649 17 154.553 17C154.468 17 154.383 16.9947 154.297 16.984C153.711 16.952 153.225 16.76 152.841 16.408C152.457 16.0453 152.292 15.512 152.345 14.808C152.377 14.136 152.607 13.6347 153.033 13.304C153.46 12.9733 154.057 12.808 154.825 12.808C155.305 12.808 155.743 12.8613 156.137 12.968C156.532 13.0747 156.916 13.256 157.289 13.512C157.289 13.128 157.263 12.7867 157.209 12.488C157.156 12.1787 157.055 11.9173 156.905 11.704C156.767 11.48 156.564 11.3147 156.297 11.208C156.041 11.0907 155.705 11.032 155.289 11.032C154.82 11.032 154.415 11.096 154.073 11.224C153.732 11.3413 153.423 11.4907 153.145 11.672C153.049 11.7253 152.937 11.736 152.809 11.704C152.692 11.6613 152.607 11.5867 152.553 11.48C152.436 11.288 152.463 11.112 152.633 10.952C152.804 10.792 153.039 10.6533 153.337 10.536C153.647 10.408 153.983 10.312 154.345 10.248C154.708 10.1733 155.023 10.136 155.289 10.136ZM162.649 10.136C163.705 10.136 164.462 10.4027 164.921 10.936C165.39 11.4587 165.625 12.2373 165.625 13.272V16.536C165.625 16.6747 165.582 16.7867 165.497 16.872C165.411 16.9573 165.289 17 165.129 17C164.969 17 164.846 16.9573 164.761 16.872C164.675 16.7867 164.633 16.6747 164.633 16.536V14.536C164.537 14.408 164.398 14.2907 164.217 14.184C164.035 14.0667 163.838 13.9707 163.625 13.896C163.411 13.8213 163.187 13.7627 162.953 13.72C162.718 13.6773 162.489 13.656 162.265 13.656C162.019 13.656 161.795 13.6827 161.593 13.736C161.39 13.7893 161.214 13.88 161.065 14.008C160.926 14.1253 160.819 14.2853 160.745 14.488C160.67 14.68 160.649 14.92 160.681 15.208C160.713 15.4853 160.814 15.6987 160.985 15.848C161.166 15.9867 161.379 16.0827 161.625 16.136C161.902 16.1893 162.195 16.1787 162.505 16.104C162.622 16.0827 162.723 16.0933 162.809 16.136C162.905 16.168 162.969 16.2587 163.001 16.408C163.033 16.5253 163.027 16.6213 162.985 16.696C162.942 16.76 162.878 16.8187 162.793 16.872C162.718 16.9147 162.622 16.9467 162.505 16.968C162.398 16.9893 162.291 17 162.185 17C162.099 17 162.009 17 161.913 17C161.827 17 161.742 16.9947 161.657 16.984C161.07 16.952 160.585 16.76 160.201 16.408C159.817 16.0453 159.651 15.512 159.705 14.808C159.737 14.136 159.966 13.6347 160.393 13.304C160.819 12.9733 161.417 12.808 162.185 12.808C162.665 12.808 163.102 12.8613 163.497 12.968C163.891 13.0747 164.275 13.256 164.649 13.512C164.649 13.128 164.622 12.7867 164.569 12.488C164.515 12.1787 164.414 11.9173 164.265 11.704C164.126 11.48 163.923 11.3147 163.657 11.208C163.401 11.0907 163.065 11.032 162.649 11.032C162.179 11.032 161.774 11.096 161.433 11.224C161.091 11.3413 160.782 11.4907 160.505 11.672C160.409 11.7253 160.297 11.736 160.169 11.704C160.051 11.6613 159.966 11.5867 159.913 11.48C159.795 11.288 159.822 11.112 159.993 10.952C160.163 10.792 160.398 10.6533 160.697 10.536C161.006 10.408 161.342 10.312 161.705 10.248C162.067 10.1733 162.382 10.136 162.649 10.136ZM163.158 9C162.955 9 162.763 8.96267 162.582 8.888C162.401 8.81333 162.251 8.712 162.134 8.584C162.006 8.456 161.915 8.30667 161.862 8.136C161.798 7.95467 161.793 7.75733 161.846 7.544C161.899 7.23467 162.086 7.096 162.406 7.128C162.513 7.14933 162.603 7.20267 162.678 7.288C162.742 7.36267 162.763 7.448 162.742 7.544C162.678 7.72533 162.71 7.88 162.838 8.008C162.955 8.136 163.105 8.2 163.286 8.2H166.262C166.39 8.2 166.486 8.24267 166.55 8.328C166.625 8.40267 166.662 8.49333 166.662 8.6C166.662 8.71733 166.625 8.81333 166.55 8.888C166.486 8.96267 166.39 9 166.262 9H163.158ZM172.694 10.136C172.833 10.136 172.95 10.1787 173.046 10.264C173.142 10.3387 173.19 10.4347 173.19 10.552V14.312C173.19 14.76 173.115 15.1547 172.966 15.496C172.817 15.8267 172.609 16.104 172.342 16.328C172.075 16.552 171.761 16.7227 171.398 16.84C171.035 16.9467 170.641 17 170.214 17C169.809 17 169.425 16.9467 169.062 16.84C168.699 16.7227 168.379 16.552 168.102 16.328C167.835 16.104 167.622 15.8267 167.462 15.496C167.302 15.1547 167.222 14.76 167.222 14.312V10.552C167.222 10.4347 167.27 10.3387 167.366 10.264C167.462 10.1787 167.579 10.136 167.718 10.136C167.846 10.136 167.958 10.1787 168.054 10.264C168.161 10.3387 168.214 10.4347 168.214 10.552V14.312C168.214 14.7067 168.283 15.0267 168.422 15.272C168.561 15.5067 168.731 15.6933 168.934 15.832C169.137 15.96 169.35 16.0507 169.574 16.104C169.809 16.1467 170.022 16.168 170.214 16.168C170.395 16.168 170.598 16.1467 170.822 16.104C171.057 16.0507 171.275 15.96 171.478 15.832C171.681 15.6933 171.851 15.5067 171.99 15.272C172.129 15.0267 172.198 14.7067 172.198 14.312V10.552C172.198 10.4347 172.241 10.3387 172.326 10.264C172.422 10.1787 172.545 10.136 172.694 10.136ZM177.44 13.096C177.707 13.128 177.99 13.176 178.288 13.24C178.587 13.2933 178.864 13.3787 179.12 13.496C179.376 13.6133 179.59 13.7787 179.76 13.992C179.942 14.2053 180.043 14.4827 180.064 14.824C180.096 15.2507 180.032 15.608 179.872 15.896C179.712 16.1733 179.494 16.3973 179.216 16.568C178.95 16.728 178.635 16.84 178.272 16.904C177.92 16.968 177.558 17 177.184 17C176.8 17 176.416 16.9573 176.032 16.872C175.659 16.776 175.291 16.632 174.928 16.44C174.811 16.3867 174.72 16.2907 174.656 16.152C174.592 16.0027 174.619 15.864 174.736 15.736C174.822 15.6507 174.918 15.6027 175.024 15.592C175.142 15.5707 175.254 15.5867 175.36 15.64C175.488 15.7253 175.632 15.8 175.792 15.864C175.963 15.928 176.128 15.9867 176.288 16.04C176.459 16.0827 176.624 16.1147 176.784 16.136C176.944 16.1573 177.088 16.168 177.216 16.168C177.43 16.168 177.648 16.152 177.872 16.12C178.107 16.088 178.315 16.0293 178.496 15.944C178.678 15.8587 178.822 15.736 178.928 15.576C179.046 15.4053 179.094 15.1813 179.072 14.904C179.051 14.5733 178.896 14.3547 178.608 14.248C178.32 14.1413 177.915 14.0453 177.392 13.96C177.136 13.928 176.854 13.88 176.544 13.816C176.246 13.752 175.963 13.656 175.696 13.528C175.44 13.4 175.222 13.2293 175.04 13.016C174.859 12.8027 174.763 12.5307 174.752 12.2C174.72 11.784 174.779 11.4427 174.928 11.176C175.088 10.9093 175.302 10.7013 175.568 10.552C175.846 10.392 176.16 10.2853 176.512 10.232C176.864 10.168 177.227 10.136 177.6 10.136C177.974 10.136 178.331 10.184 178.672 10.28C179.014 10.376 179.355 10.5307 179.696 10.744C179.803 10.8187 179.862 10.9147 179.872 11.032C179.883 11.1493 179.856 11.256 179.792 11.352C179.739 11.4373 179.659 11.496 179.552 11.528C179.446 11.56 179.35 11.5493 179.264 11.496C179.008 11.3253 178.731 11.192 178.432 11.096C178.134 10.9893 177.84 10.936 177.552 10.936C177.36 10.936 177.158 10.9467 176.944 10.968C176.731 10.9787 176.528 11.0267 176.336 11.112C176.155 11.1867 176.006 11.304 175.888 11.464C175.771 11.6133 175.712 11.8267 175.712 12.104C175.723 12.296 175.787 12.4507 175.904 12.568C176.022 12.6853 176.166 12.7813 176.336 12.856C176.507 12.92 176.688 12.9733 176.88 13.016C177.083 13.048 177.27 13.0747 177.44 13.096ZM182.975 12.952C182.601 12.952 182.26 12.8933 181.951 12.776C181.652 12.6587 181.46 12.424 181.375 12.072C181.353 11.976 181.348 11.8693 181.359 11.752C181.369 11.624 181.396 11.512 181.439 11.416C181.492 11.3093 181.556 11.2293 181.631 11.176C181.716 11.112 181.823 11.096 181.951 11.128C182.068 11.1493 182.159 11.2027 182.223 11.288C182.287 11.3627 182.308 11.448 182.287 11.544C182.233 11.7147 182.249 11.8587 182.335 11.976C182.431 12.0933 182.575 12.152 182.767 12.152H184.687C184.804 12.152 184.9 12.1893 184.975 12.264C185.06 12.328 185.103 12.4187 185.103 12.536C185.103 12.6533 185.065 12.7547 184.991 12.84C184.916 12.9147 184.815 12.952 184.687 12.952H182.975ZM182.975 16.28C182.601 16.28 182.26 16.2213 181.951 16.104C181.652 15.9867 181.46 15.752 181.375 15.4C181.353 15.304 181.348 15.1973 181.359 15.08C181.369 14.952 181.396 14.84 181.439 14.744C181.492 14.6373 181.556 14.5573 181.631 14.504C181.716 14.44 181.823 14.424 181.951 14.456C182.068 14.4773 182.159 14.5307 182.223 14.616C182.287 14.6907 182.308 14.776 182.287 14.872C182.233 15.0427 182.249 15.1867 182.335 15.304C182.431 15.4213 182.575 15.48 182.767 15.48H184.687C184.804 15.48 184.9 15.5173 184.975 15.592C185.06 15.656 185.103 15.7467 185.103 15.864C185.103 15.9813 185.065 16.0827 184.991 16.168C184.916 16.2427 184.815 16.28 184.687 16.28H182.975ZM188.854 13.976C188.726 13.976 188.619 13.9387 188.534 13.864C188.459 13.7787 188.422 13.6773 188.422 13.56C188.422 13.4427 188.459 13.3467 188.534 13.272C188.619 13.1867 188.726 13.144 188.854 13.144H189.51C189.745 13.144 189.931 13.2133 190.07 13.352C190.209 13.48 190.315 13.6347 190.39 13.816C190.465 13.9973 190.513 14.184 190.534 14.376C190.555 14.5573 190.566 14.696 190.566 14.792C190.566 16.264 189.974 17 188.79 17H188.774C187.921 17 187.307 16.7013 186.934 16.104C186.571 15.5067 186.39 14.6747 186.39 13.608C186.39 12.5307 186.673 11.6827 187.238 11.064C187.814 10.4453 188.603 10.136 189.606 10.136C190.545 10.136 191.297 10.3653 191.862 10.824C192.427 11.272 192.71 11.9813 192.71 12.952V16.536C192.71 16.6747 192.667 16.7867 192.582 16.872C192.497 16.9573 192.374 17 192.214 17C192.054 17 191.931 16.9573 191.846 16.872C191.761 16.7867 191.718 16.6747 191.718 16.536V13.08C191.718 12.4187 191.558 11.9013 191.238 11.528C190.929 11.1547 190.385 10.968 189.606 10.968C188.87 10.968 188.31 11.208 187.926 11.688C187.553 12.168 187.366 12.808 187.366 13.608C187.366 14.376 187.489 14.9947 187.734 15.464C187.99 15.9227 188.342 16.152 188.79 16.152C188.982 16.152 189.137 16.0987 189.254 15.992C189.382 15.8853 189.478 15.752 189.542 15.592C189.617 15.432 189.659 15.256 189.67 15.064C189.691 14.872 189.686 14.696 189.654 14.536C189.622 14.376 189.569 14.2427 189.494 14.136C189.43 14.0293 189.345 13.976 189.238 13.976H188.854ZM190.252 9C190.049 9 189.857 8.96267 189.676 8.888C189.494 8.81333 189.345 8.712 189.228 8.584C189.1 8.456 189.009 8.30667 188.956 8.136C188.892 7.95467 188.886 7.75733 188.94 7.544C188.993 7.23467 189.18 7.096 189.5 7.128C189.606 7.14933 189.697 7.20267 189.772 7.288C189.836 7.36267 189.857 7.448 189.836 7.544C189.772 7.72533 189.804 7.88 189.932 8.008C190.049 8.136 190.198 8.2 190.38 8.2H193.356C193.484 8.2 193.58 8.24267 193.644 8.328C193.718 8.40267 193.756 8.49333 193.756 8.6C193.756 8.71733 193.718 8.81333 193.644 8.888C193.58 8.96267 193.484 9 193.356 9H190.252ZM199.788 10.136C199.926 10.136 200.044 10.1787 200.14 10.264C200.236 10.3387 200.284 10.4347 200.284 10.552V14.312C200.284 14.76 200.209 15.1547 200.06 15.496C199.91 15.8267 199.702 16.104 199.436 16.328C199.169 16.552 198.854 16.7227 198.492 16.84C198.129 16.9467 197.734 17 197.308 17C196.902 17 196.518 16.9467 196.156 16.84C195.793 16.7227 195.473 16.552 195.196 16.328C194.929 16.104 194.716 15.8267 194.556 15.496C194.396 15.1547 194.316 14.76 194.316 14.312V10.552C194.316 10.4347 194.364 10.3387 194.46 10.264C194.556 10.1787 194.673 10.136 194.812 10.136C194.94 10.136 195.052 10.1787 195.148 10.264C195.254 10.3387 195.308 10.4347 195.308 10.552V14.312C195.308 14.7067 195.377 15.0267 195.516 15.272C195.654 15.5067 195.825 15.6933 196.028 15.832C196.23 15.96 196.444 16.0507 196.668 16.104C196.902 16.1467 197.116 16.168 197.308 16.168C197.489 16.168 197.692 16.1467 197.916 16.104C198.15 16.0507 198.369 15.96 198.572 15.832C198.774 15.6933 198.945 15.5067 199.084 15.272C199.222 15.0267 199.292 14.7067 199.292 14.312V10.552C199.292 10.4347 199.334 10.3387 199.42 10.264C199.516 10.1787 199.638 10.136 199.788 10.136ZM202.854 14.184C203.035 13.8747 203.249 13.6347 203.494 13.464C203.75 13.2933 204.006 13.208 204.262 13.208C204.326 13.208 204.401 13.2133 204.486 13.224C204.571 13.224 204.657 13.24 204.742 13.272C204.827 13.2933 204.897 13.336 204.95 13.4C205.014 13.464 205.046 13.5547 205.046 13.672C205.046 13.768 205.014 13.864 204.95 13.96C204.897 14.056 204.811 14.104 204.694 14.104C204.545 14.104 204.449 14.0987 204.406 14.088C204.363 14.0773 204.283 14.072 204.166 14.072C204.049 14.072 203.926 14.1093 203.798 14.184C203.67 14.248 203.542 14.3387 203.414 14.456C203.297 14.5627 203.185 14.6907 203.078 14.84C202.982 14.9893 202.907 15.144 202.854 15.304V16.536C202.854 16.6747 202.811 16.7867 202.726 16.872C202.651 16.9573 202.534 17 202.374 17C202.203 17 202.075 16.9573 201.99 16.872C201.915 16.7867 201.878 16.6747 201.878 16.536V12.808C201.878 12.3813 201.953 12.0027 202.102 11.672C202.251 11.3413 202.459 11.064 202.726 10.84C203.003 10.6053 203.323 10.4293 203.686 10.312C204.049 10.1947 204.449 10.136 204.886 10.136C205.323 10.136 205.723 10.1947 206.086 10.312C206.459 10.4293 206.779 10.6053 207.046 10.84C207.323 11.064 207.537 11.3413 207.686 11.672C207.835 12.0027 207.91 12.3813 207.91 12.808V16.536C207.91 16.6747 207.867 16.7867 207.782 16.872C207.697 16.9573 207.574 17 207.414 17C207.254 17 207.131 16.9573 207.046 16.872C206.961 16.7867 206.918 16.6747 206.918 16.536V12.808C206.918 12.4133 206.849 12.0987 206.71 11.864C206.571 11.6187 206.395 11.432 206.182 11.304C205.979 11.1653 205.761 11.0747 205.526 11.032C205.291 10.9893 205.078 10.968 204.886 10.968C204.705 10.968 204.497 10.9893 204.262 11.032C204.027 11.0747 203.803 11.1653 203.59 11.304C203.387 11.432 203.211 11.6187 203.062 11.864C202.923 12.0987 202.854 12.4133 202.854 12.808V14.184ZM211.711 10.136C212.81 10.136 213.62 10.44 214.143 11.048C214.676 11.6453 214.943 12.488 214.943 13.576C214.943 14.6853 214.66 15.544 214.095 16.152C213.54 16.76 212.703 17.0427 211.583 17C211.434 17 211.215 16.968 210.927 16.904C210.639 16.8293 210.362 16.7387 210.095 16.632C209.828 16.5147 209.62 16.3867 209.471 16.248C209.322 16.0987 209.311 15.9387 209.439 15.768C209.492 15.6827 209.562 15.624 209.647 15.592C209.743 15.5493 209.834 15.5493 209.919 15.592C210.228 15.7413 210.516 15.8747 210.783 15.992C211.06 16.1093 211.37 16.168 211.711 16.168C212.479 16.168 213.044 15.944 213.407 15.496C213.78 15.048 213.967 14.408 213.967 13.576C213.967 12.7333 213.78 12.0933 213.407 11.656C213.034 11.208 212.468 10.984 211.711 10.984C211.434 10.984 211.172 11.0267 210.927 11.112C210.692 11.1867 210.452 11.2933 210.207 11.432C210.154 11.464 210.084 11.4907 209.999 11.512C209.924 11.5333 209.844 11.544 209.759 11.544C209.674 11.544 209.594 11.5227 209.519 11.48C209.455 11.4373 209.412 11.3573 209.391 11.24C209.338 11.0587 209.402 10.8987 209.583 10.76C209.775 10.6213 210.004 10.5093 210.271 10.424C210.538 10.328 210.81 10.2587 211.087 10.216C211.364 10.1627 211.572 10.136 211.711 10.136ZM217.098 11.992C217.098 12.1093 217.05 12.2107 216.954 12.296C216.858 12.3813 216.746 12.424 216.618 12.424C216.469 12.424 216.351 12.3867 216.266 12.312C216.181 12.2373 216.138 12.1627 216.138 12.088C216.138 11.8107 216.207 11.5547 216.346 11.32C216.495 11.0853 216.682 10.8827 216.906 10.712C217.141 10.5307 217.407 10.392 217.706 10.296C218.005 10.1893 218.309 10.136 218.618 10.136C219.482 10.136 220.106 10.376 220.49 10.856C220.874 11.3253 221.066 11.9707 221.066 12.792V16.472C221.066 16.824 220.901 17 220.57 17C220.25 17 220.09 16.824 220.09 16.472V12.92C220.09 12.4933 220.047 12.152 219.962 11.896C219.877 11.64 219.765 11.448 219.626 11.32C219.487 11.1813 219.327 11.0907 219.146 11.048C218.975 10.9947 218.799 10.968 218.618 10.968C218.341 10.968 218.106 11.0107 217.914 11.096C217.722 11.1813 217.562 11.2827 217.434 11.4C217.317 11.5067 217.231 11.6187 217.178 11.736C217.125 11.8427 217.098 11.928 217.098 11.992ZM228.115 10.136C228.264 10.136 228.382 10.1787 228.467 10.264C228.563 10.3387 228.611 10.4347 228.611 10.552V14.568C228.611 14.9733 228.542 15.3307 228.403 15.64C228.275 15.9387 228.088 16.1947 227.843 16.408C227.608 16.6107 227.326 16.7653 226.995 16.872C226.675 16.9787 226.323 17.032 225.939 17.032C225.523 17.032 225.102 16.9467 224.675 16.776C224.259 16.5947 223.912 16.3387 223.635 16.008V16.536C223.635 16.6747 223.598 16.7867 223.523 16.872C223.448 16.9573 223.326 17 223.155 17C222.995 17 222.872 16.9573 222.787 16.872C222.712 16.7867 222.675 16.6747 222.675 16.536V10.552C222.675 10.4347 222.718 10.3387 222.803 10.264C222.899 10.1787 223.022 10.136 223.171 10.136C223.32 10.136 223.438 10.1787 223.523 10.264C223.619 10.3387 223.667 10.4347 223.667 10.552V14.552C223.731 14.776 223.832 14.9893 223.971 15.192C224.12 15.384 224.291 15.5547 224.483 15.704C224.675 15.8427 224.883 15.9547 225.107 16.04C225.331 16.1253 225.555 16.168 225.779 16.168C226.035 16.168 226.27 16.136 226.483 16.072C226.707 16.008 226.904 15.912 227.075 15.784C227.246 15.6453 227.379 15.4747 227.475 15.272C227.571 15.0693 227.619 14.8293 227.619 14.552V10.552C227.619 10.4347 227.667 10.3387 227.763 10.264C227.859 10.1787 227.976 10.136 228.115 10.136ZM231.438 14.904C231.438 15.352 231.454 15.672 231.486 15.864C231.518 16.056 231.609 16.152 231.758 16.152C231.79 16.152 231.828 16.136 231.87 16.104C231.924 16.0613 231.977 16.024 232.03 15.992C232.094 15.96 232.164 15.9387 232.238 15.928C232.324 15.9067 232.414 15.9173 232.51 15.96C232.628 16.0133 232.697 16.104 232.718 16.232C232.75 16.3493 232.724 16.472 232.638 16.6C232.585 16.6853 232.51 16.76 232.414 16.824C232.318 16.8773 232.217 16.92 232.11 16.952C232.014 16.984 231.918 17.0053 231.822 17.016C231.726 17.0267 231.657 17.032 231.614 17.032C231.337 17.032 231.118 16.984 230.958 16.888C230.809 16.7813 230.697 16.6373 230.622 16.456C230.548 16.264 230.5 16.04 230.478 15.784C230.457 15.528 230.446 15.2453 230.446 14.936V10.6C230.446 10.4613 230.489 10.3493 230.574 10.264C230.66 10.1787 230.782 10.136 230.942 10.136C231.102 10.136 231.225 10.1787 231.31 10.264C231.396 10.3493 231.438 10.4613 231.438 10.6V14.904ZM236.347 13.096C236.613 13.128 236.896 13.176 237.195 13.24C237.493 13.2933 237.771 13.3787 238.027 13.496C238.283 13.6133 238.496 13.7787 238.667 13.992C238.848 14.2053 238.949 14.4827 238.971 14.824C239.003 15.2507 238.939 15.608 238.779 15.896C238.619 16.1733 238.4 16.3973 238.123 16.568C237.856 16.728 237.541 16.84 237.179 16.904C236.827 16.968 236.464 17 236.091 17C235.707 17 235.323 16.9573 234.939 16.872C234.565 16.776 234.197 16.632 233.835 16.44C233.717 16.3867 233.627 16.2907 233.563 16.152C233.499 16.0027 233.525 15.864 233.643 15.736C233.728 15.6507 233.824 15.6027 233.931 15.592C234.048 15.5707 234.16 15.5867 234.267 15.64C234.395 15.7253 234.539 15.8 234.699 15.864C234.869 15.928 235.035 15.9867 235.195 16.04C235.365 16.0827 235.531 16.1147 235.691 16.136C235.851 16.1573 235.995 16.168 236.123 16.168C236.336 16.168 236.555 16.152 236.779 16.12C237.013 16.088 237.221 16.0293 237.403 15.944C237.584 15.8587 237.728 15.736 237.835 15.576C237.952 15.4053 238 15.1813 237.979 14.904C237.957 14.5733 237.803 14.3547 237.515 14.248C237.227 14.1413 236.821 14.0453 236.299 13.96C236.043 13.928 235.76 13.88 235.451 13.816C235.152 13.752 234.869 13.656 234.603 13.528C234.347 13.4 234.128 13.2293 233.947 13.016C233.765 12.8027 233.669 12.5307 233.659 12.2C233.627 11.784 233.685 11.4427 233.835 11.176C233.995 10.9093 234.208 10.7013 234.475 10.552C234.752 10.392 235.067 10.2853 235.419 10.232C235.771 10.168 236.133 10.136 236.507 10.136C236.88 10.136 237.237 10.184 237.579 10.28C237.92 10.376 238.261 10.5307 238.603 10.744C238.709 10.8187 238.768 10.9147 238.779 11.032C238.789 11.1493 238.763 11.256 238.699 11.352C238.645 11.4373 238.565 11.496 238.459 11.528C238.352 11.56 238.256 11.5493 238.171 11.496C237.915 11.3253 237.637 11.192 237.339 11.096C237.04 10.9893 236.747 10.936 236.459 10.936C236.267 10.936 236.064 10.9467 235.851 10.968C235.637 10.9787 235.435 11.0267 235.243 11.112C235.061 11.1867 234.912 11.304 234.795 11.464C234.677 11.6133 234.619 11.8267 234.619 12.104C234.629 12.296 234.693 12.4507 234.811 12.568C234.928 12.6853 235.072 12.7813 235.243 12.856C235.413 12.92 235.595 12.9733 235.787 13.016C235.989 13.048 236.176 13.0747 236.347 13.096ZM235.481 7.096C235.3 7.096 235.129 7.13333 234.969 7.208C234.809 7.272 234.729 7.432 234.729 7.688C234.729 8.09333 234.91 8.296 235.273 8.296C235.412 8.296 235.529 8.25867 235.625 8.184C235.721 8.10933 235.806 8.024 235.881 7.928C235.924 7.87467 235.982 7.83733 236.057 7.816C236.132 7.784 236.19 7.768 236.233 7.768C236.361 7.768 236.473 7.816 236.569 7.912C236.633 8.008 236.713 8.09867 236.809 8.184C236.905 8.25867 237.012 8.30133 237.129 8.312C237.204 8.32267 237.278 8.30667 237.353 8.264C237.428 8.21067 237.481 8.168 237.513 8.136C237.598 8.05067 237.7 8.008 237.817 8.008C237.924 8.008 238.02 8.05067 238.105 8.136C238.18 8.22133 238.206 8.328 238.185 8.456C238.164 8.584 238.11 8.69067 238.025 8.776C237.982 8.81867 237.892 8.888 237.753 8.984C237.614 9.06933 237.406 9.112 237.129 9.112C236.916 9.112 236.734 9.064 236.585 8.968C236.436 8.86133 236.318 8.75467 236.233 8.648C236.148 8.75467 236.025 8.86133 235.865 8.968C235.694 9.064 235.497 9.112 235.273 9.112C234.761 9.112 234.393 8.97867 234.169 8.712C233.934 8.43467 233.817 8.09333 233.817 7.688C233.817 7.272 233.95 6.93067 234.217 6.664C234.484 6.39733 234.889 6.264 235.433 6.264H236.793C236.878 6.264 236.974 6.264 237.081 6.264C237.177 6.264 237.268 6.248 237.353 6.216C237.438 6.184 237.513 6.13067 237.577 6.056C237.63 5.97067 237.668 5.848 237.689 5.688C237.7 5.57067 237.742 5.48533 237.817 5.432C237.881 5.368 237.961 5.33067 238.057 5.32C238.174 5.32 238.27 5.352 238.345 5.416C238.409 5.46933 238.457 5.53867 238.489 5.624C238.521 5.70933 238.537 5.80533 238.537 5.912C238.526 6.008 238.516 6.09867 238.505 6.184C238.462 6.44 238.372 6.632 238.233 6.76C238.094 6.888 237.945 6.97867 237.785 7.032C237.614 7.07467 237.449 7.096 237.289 7.096C237.129 7.096 237.012 7.096 236.937 7.096H235.481ZM242.633 10.136C243.732 10.136 244.542 10.44 245.065 11.048C245.598 11.6453 245.865 12.488 245.865 13.576C245.865 14.6853 245.582 15.544 245.017 16.152C244.462 16.76 243.625 17.0427 242.505 17C242.356 17 242.137 16.968 241.849 16.904C241.561 16.8293 241.284 16.7387 241.017 16.632C240.75 16.5147 240.542 16.3867 240.393 16.248C240.244 16.0987 240.233 15.9387 240.361 15.768C240.414 15.6827 240.484 15.624 240.569 15.592C240.665 15.5493 240.756 15.5493 240.841 15.592C241.15 15.7413 241.438 15.8747 241.705 15.992C241.982 16.1093 242.292 16.168 242.633 16.168C243.401 16.168 243.966 15.944 244.329 15.496C244.702 15.048 244.889 14.408 244.889 13.576C244.889 12.7333 244.702 12.0933 244.329 11.656C243.956 11.208 243.39 10.984 242.633 10.984C242.356 10.984 242.094 11.0267 241.849 11.112C241.614 11.1867 241.374 11.2933 241.129 11.432C241.076 11.464 241.006 11.4907 240.921 11.512C240.846 11.5333 240.766 11.544 240.681 11.544C240.596 11.544 240.516 11.5227 240.441 11.48C240.377 11.4373 240.334 11.3573 240.313 11.24C240.26 11.0587 240.324 10.8987 240.505 10.76C240.697 10.6213 240.926 10.5093 241.193 10.424C241.46 10.328 241.732 10.2587 242.009 10.216C242.286 10.1627 242.494 10.136 242.633 10.136ZM250.052 10.136C250.596 10.136 251.065 10.2213 251.46 10.392C251.865 10.552 252.201 10.7813 252.468 11.08C252.735 11.3787 252.932 11.7413 253.06 12.168C253.188 12.584 253.252 13.0533 253.252 13.576C253.252 14.0347 253.199 14.472 253.092 14.888C252.996 15.304 252.831 15.672 252.596 15.992C252.361 16.3013 252.047 16.552 251.652 16.744C251.268 16.9253 250.793 17.016 250.228 17.016C249.684 17.016 249.209 16.936 248.804 16.776C248.399 16.616 248.073 16.3867 247.828 16.088C247.583 15.7893 247.412 15.4373 247.316 15.032C247.22 14.616 247.204 14.1573 247.268 13.656C247.279 13.5707 247.316 13.4907 247.38 13.416C247.455 13.3413 247.567 13.304 247.716 13.304H249.812C249.929 13.304 250.02 13.3413 250.084 13.416C250.148 13.48 250.18 13.5707 250.18 13.688C250.18 13.9547 250.057 14.088 249.812 14.088H248.18C248.137 14.76 248.292 15.2773 248.644 15.64C248.996 15.992 249.524 16.168 250.228 16.168C250.932 16.168 251.444 15.944 251.764 15.496C252.095 15.048 252.271 14.4133 252.292 13.592C252.281 12.8027 252.1 12.1733 251.748 11.704C251.407 11.224 250.841 10.984 250.052 10.984C249.636 10.984 249.247 11.0533 248.884 11.192C248.532 11.3307 248.18 11.5173 247.828 11.752C247.743 11.7947 247.652 11.8053 247.556 11.784C247.471 11.7627 247.401 11.7147 247.348 11.64C247.22 11.4587 247.225 11.288 247.364 11.128C247.524 10.9573 247.711 10.808 247.924 10.68C248.137 10.552 248.361 10.4507 248.596 10.376C248.831 10.2907 249.071 10.232 249.316 10.2C249.572 10.1573 249.817 10.136 250.052 10.136ZM252.66 8.216C252.778 8.22667 252.868 8.27467 252.932 8.36C252.986 8.43467 253.012 8.52533 253.012 8.632C252.991 8.87733 252.847 9 252.58 9H247.636C247.37 9 247.226 8.87733 247.204 8.632C247.204 8.52533 247.236 8.43467 247.3 8.36C247.354 8.27467 247.439 8.22667 247.556 8.216H252.66ZM260.389 16.536C260.389 16.6747 260.346 16.7867 260.261 16.872C260.186 16.9573 260.069 17 259.909 17C259.738 17 259.615 16.9573 259.541 16.872C259.466 16.7867 259.429 16.6747 259.429 16.536V15.976C259.183 16.296 258.858 16.552 258.453 16.744C258.047 16.9253 257.631 17.016 257.205 17.016C256.831 17.016 256.485 16.968 256.164 16.872C255.845 16.7653 255.567 16.6107 255.333 16.408C255.109 16.1947 254.933 15.9333 254.805 15.624C254.677 15.3147 254.613 14.9573 254.613 14.552V10.552C254.613 10.4347 254.655 10.3333 254.741 10.248C254.837 10.1627 254.959 10.12 255.109 10.12C255.258 10.12 255.375 10.1627 255.461 10.248C255.557 10.3333 255.605 10.4347 255.605 10.552V14.552C255.605 15.0747 255.765 15.4747 256.085 15.752C256.405 16.0187 256.831 16.152 257.365 16.152C257.589 16.152 257.807 16.1093 258.021 16.024C258.245 15.9387 258.447 15.8267 258.629 15.688C258.81 15.5387 258.97 15.368 259.109 15.176C259.247 14.9733 259.343 14.76 259.397 14.536V10.552C259.397 10.4347 259.439 10.3333 259.525 10.248C259.621 10.1627 259.743 10.12 259.893 10.12C260.042 10.12 260.159 10.1627 260.245 10.248C260.341 10.3333 260.389 10.4347 260.389 10.552V16.536ZM263.22 14.904C263.22 15.352 263.236 15.672 263.268 15.864C263.3 16.056 263.39 16.152 263.539 16.152C263.572 16.152 263.609 16.136 263.652 16.104C263.705 16.0613 263.758 16.024 263.812 15.992C263.876 15.96 263.945 15.9387 264.02 15.928C264.105 15.9067 264.196 15.9173 264.292 15.96C264.409 16.0133 264.478 16.104 264.5 16.232C264.532 16.3493 264.505 16.472 264.42 16.6C264.366 16.6853 264.292 16.76 264.196 16.824C264.1 16.8773 263.998 16.92 263.892 16.952C263.796 16.984 263.7 17.0053 263.604 17.016C263.508 17.0267 263.438 17.032 263.396 17.032C263.118 17.032 262.9 16.984 262.74 16.888C262.59 16.7813 262.478 16.6373 262.404 16.456C262.329 16.264 262.281 16.04 262.26 15.784C262.238 15.528 262.228 15.2453 262.228 14.936V10.6C262.228 10.4613 262.27 10.3493 262.356 10.264C262.441 10.1787 262.564 10.136 262.724 10.136C262.884 10.136 263.006 10.1787 263.092 10.264C263.177 10.3493 263.22 10.4613 263.22 10.6V14.904ZM267.776 13.976C267.648 13.976 267.541 13.9387 267.456 13.864C267.381 13.7787 267.344 13.6773 267.344 13.56C267.344 13.4427 267.381 13.3467 267.456 13.272C267.541 13.1867 267.648 13.144 267.776 13.144H268.432C268.667 13.144 268.853 13.2133 268.992 13.352C269.131 13.48 269.237 13.6347 269.312 13.816C269.387 13.9973 269.435 14.184 269.456 14.376C269.477 14.5573 269.488 14.696 269.488 14.792C269.488 16.264 268.896 17 267.712 17H267.696C266.843 17 266.229 16.7013 265.856 16.104C265.493 15.5067 265.312 14.6747 265.312 13.608C265.312 13.3413 265.328 13.048 265.36 12.728C265.392 12.408 265.456 12.0987 265.552 11.8C265.648 11.5013 265.776 11.224 265.936 10.968C266.107 10.712 266.331 10.504 266.608 10.344C266.885 10.1947 267.179 10.1253 267.488 10.136C267.637 10.1467 267.808 10.2053 268 10.312L268.752 10.696L269.472 10.312C269.643 10.2373 269.845 10.1893 270.08 10.168C270.581 10.1253 270.971 10.28 271.248 10.632C271.536 10.984 271.68 11.5227 271.68 12.248V16.536C271.68 16.6747 271.637 16.7867 271.552 16.872C271.467 16.9573 271.344 17 271.184 17C271.024 17 270.901 16.9573 270.816 16.872C270.731 16.7867 270.688 16.6747 270.688 16.536V12.04C270.688 11.8693 270.667 11.7093 270.624 11.56C270.592 11.4107 270.533 11.288 270.448 11.192C270.363 11.096 270.256 11.0373 270.128 11.016C270 10.9947 269.845 11.0267 269.664 11.112C269.525 11.176 269.365 11.2667 269.184 11.384C269.013 11.4907 268.869 11.544 268.752 11.544C268.699 11.544 268.629 11.528 268.544 11.496C268.469 11.4533 268.384 11.4053 268.288 11.352C268.192 11.2987 268.096 11.2453 268 11.192C267.904 11.1387 267.819 11.096 267.744 11.064C267.531 10.9787 267.333 10.9893 267.152 11.096C266.981 11.192 266.832 11.3627 266.704 11.608C266.576 11.8427 266.475 12.136 266.4 12.488C266.325 12.8293 266.288 13.1973 266.288 13.592V13.608C266.288 14.376 266.411 14.9947 266.656 15.464C266.912 15.9227 267.264 16.152 267.712 16.152C267.904 16.152 268.059 16.0987 268.176 15.992C268.304 15.8853 268.4 15.752 268.464 15.592C268.539 15.432 268.581 15.256 268.592 15.064C268.613 14.872 268.608 14.696 268.576 14.536C268.544 14.376 268.491 14.2427 268.416 14.136C268.352 14.0293 268.267 13.976 268.16 13.976H267.776ZM276.036 10.136C276.58 10.136 277.05 10.2213 277.444 10.392C277.85 10.552 278.186 10.7813 278.452 11.08C278.719 11.3787 278.916 11.7413 279.044 12.168C279.172 12.584 279.236 13.0533 279.236 13.576C279.236 14.0347 279.183 14.472 279.076 14.888C278.98 15.304 278.815 15.672 278.58 15.992C278.346 16.3013 278.031 16.552 277.636 16.744C277.252 16.9253 276.778 17.016 276.212 17.016C275.668 17.016 275.194 16.936 274.788 16.776C274.383 16.616 274.058 16.3867 273.812 16.088C273.567 15.7893 273.396 15.4373 273.3 15.032C273.204 14.616 273.188 14.1573 273.252 13.656C273.263 13.5707 273.3 13.4907 273.364 13.416C273.439 13.3413 273.551 13.304 273.7 13.304H275.796C275.914 13.304 276.004 13.3413 276.068 13.416C276.132 13.48 276.164 13.5707 276.164 13.688C276.164 13.9547 276.042 14.088 275.796 14.088H274.164C274.122 14.76 274.276 15.2773 274.628 15.64C274.98 15.992 275.508 16.168 276.212 16.168C276.916 16.168 277.428 15.944 277.748 15.496C278.079 15.048 278.255 14.4133 278.276 13.592C278.266 12.8027 278.084 12.1733 277.732 11.704C277.391 11.224 276.826 10.984 276.036 10.984C275.62 10.984 275.231 11.0533 274.868 11.192C274.516 11.3307 274.164 11.5173 273.812 11.752C273.727 11.7947 273.636 11.8053 273.54 11.784C273.455 11.7627 273.386 11.7147 273.332 11.64C273.204 11.4587 273.21 11.288 273.348 11.128C273.508 10.9573 273.695 10.808 273.908 10.68C274.122 10.552 274.346 10.4507 274.58 10.376C274.815 10.2907 275.055 10.232 275.3 10.2C275.556 10.1573 275.802 10.136 276.036 10.136ZM283.253 13.096C283.52 13.128 283.802 13.176 284.101 13.24C284.4 13.2933 284.677 13.3787 284.933 13.496C285.189 13.6133 285.402 13.7787 285.573 13.992C285.754 14.2053 285.856 14.4827 285.877 14.824C285.909 15.2507 285.845 15.608 285.685 15.896C285.525 16.1733 285.306 16.3973 285.029 16.568C284.762 16.728 284.448 16.84 284.085 16.904C283.733 16.968 283.37 17 282.997 17C282.613 17 282.229 16.9573 281.845 16.872C281.472 16.776 281.104 16.632 280.741 16.44C280.624 16.3867 280.533 16.2907 280.469 16.152C280.405 16.0027 280.432 15.864 280.549 15.736C280.634 15.6507 280.73 15.6027 280.837 15.592C280.954 15.5707 281.066 15.5867 281.173 15.64C281.301 15.7253 281.445 15.8 281.605 15.864C281.776 15.928 281.941 15.9867 282.101 16.04C282.272 16.0827 282.437 16.1147 282.597 16.136C282.757 16.1573 282.901 16.168 283.029 16.168C283.242 16.168 283.461 16.152 283.685 16.12C283.92 16.088 284.128 16.0293 284.309 15.944C284.49 15.8587 284.634 15.736 284.741 15.576C284.858 15.4053 284.906 15.1813 284.885 14.904C284.864 14.5733 284.709 14.3547 284.421 14.248C284.133 14.1413 283.728 14.0453 283.205 13.96C282.949 13.928 282.666 13.88 282.357 13.816C282.058 13.752 281.776 13.656 281.509 13.528C281.253 13.4 281.034 13.2293 280.853 13.016C280.672 12.8027 280.576 12.5307 280.565 12.2C280.533 11.784 280.592 11.4427 280.741 11.176C280.901 10.9093 281.114 10.7013 281.381 10.552C281.658 10.392 281.973 10.2853 282.325 10.232C282.677 10.168 283.04 10.136 283.413 10.136C283.786 10.136 284.144 10.184 284.485 10.28C284.826 10.376 285.168 10.5307 285.509 10.744C285.616 10.8187 285.674 10.9147 285.685 11.032C285.696 11.1493 285.669 11.256 285.605 11.352C285.552 11.4373 285.472 11.496 285.365 11.528C285.258 11.56 285.162 11.5493 285.077 11.496C284.821 11.3253 284.544 11.192 284.245 11.096C283.946 10.9893 283.653 10.936 283.365 10.936C283.173 10.936 282.97 10.9467 282.757 10.968C282.544 10.9787 282.341 11.0267 282.149 11.112C281.968 11.1867 281.818 11.304 281.701 11.464C281.584 11.6133 281.525 11.8267 281.525 12.104C281.536 12.296 281.6 12.4507 281.717 12.568C281.834 12.6853 281.978 12.7813 282.149 12.856C282.32 12.92 282.501 12.9733 282.693 13.016C282.896 13.048 283.082 13.0747 283.253 13.096ZM286.003 6.888C286.153 6.888 286.286 6.92533 286.403 7C286.51 7.07467 286.547 7.20267 286.515 7.384C286.462 7.62933 286.297 7.752 286.019 7.752C285.891 7.73067 285.747 7.72533 285.587 7.736C285.417 7.736 285.246 7.752 285.075 7.784C284.894 7.80533 284.718 7.84267 284.547 7.896C284.377 7.93867 284.227 7.99733 284.099 8.072V8.552C284.099 8.68 284.057 8.78667 283.971 8.872C283.875 8.95733 283.753 9 283.603 9C283.443 9 283.315 8.95733 283.219 8.872C283.123 8.78667 283.075 8.68 283.075 8.552V7.864C283.075 7.77867 283.097 7.71467 283.139 7.672C283.182 7.61867 283.23 7.57067 283.283 7.528C283.454 7.4 283.657 7.29333 283.891 7.208C284.126 7.112 284.366 7.03733 284.611 6.984C284.857 6.93067 285.102 6.89867 285.347 6.888C285.582 6.86667 285.801 6.86667 286.003 6.888ZM288.563 14.904C288.563 15.352 288.579 15.672 288.611 15.864C288.643 16.056 288.734 16.152 288.883 16.152C288.915 16.152 288.953 16.136 288.995 16.104C289.049 16.0613 289.102 16.024 289.155 15.992C289.219 15.96 289.289 15.9387 289.363 15.928C289.449 15.9067 289.539 15.9173 289.635 15.96C289.753 16.0133 289.822 16.104 289.843 16.232C289.875 16.3493 289.849 16.472 289.763 16.6C289.71 16.6853 289.635 16.76 289.539 16.824C289.443 16.8773 289.342 16.92 289.235 16.952C289.139 16.984 289.043 17.0053 288.947 17.016C288.851 17.0267 288.782 17.032 288.739 17.032C288.462 17.032 288.243 16.984 288.083 16.888C287.934 16.7813 287.822 16.6373 287.747 16.456C287.673 16.264 287.625 16.04 287.603 15.784C287.582 15.528 287.571 15.2453 287.571 14.936V10.6C287.571 10.4613 287.614 10.3493 287.699 10.264C287.785 10.1787 287.907 10.136 288.067 10.136C288.227 10.136 288.35 10.1787 288.435 10.264C288.521 10.3493 288.563 10.4613 288.563 10.6V14.904ZM296.592 16.536C296.592 16.6747 296.549 16.7867 296.464 16.872C296.389 16.9573 296.272 17 296.112 17C295.941 17 295.818 16.9573 295.744 16.872C295.669 16.7867 295.632 16.6747 295.632 16.536V15.976C295.386 16.296 295.061 16.552 294.656 16.744C294.25 16.9253 293.834 17.016 293.408 17.016C293.034 17.016 292.688 16.968 292.368 16.872C292.048 16.7653 291.77 16.6107 291.536 16.408C291.312 16.1947 291.136 15.9333 291.008 15.624C290.88 15.3147 290.816 14.9573 290.816 14.552V10.552C290.816 10.4347 290.858 10.3333 290.944 10.248C291.04 10.1627 291.162 10.12 291.312 10.12C291.461 10.12 291.578 10.1627 291.664 10.248C291.76 10.3333 291.808 10.4347 291.808 10.552V14.552C291.808 15.0747 291.968 15.4747 292.288 15.752C292.608 16.0187 293.034 16.152 293.568 16.152C293.792 16.152 294.01 16.1093 294.224 16.024C294.448 15.9387 294.65 15.8267 294.832 15.688C295.013 15.5387 295.173 15.368 295.312 15.176C295.45 14.9733 295.546 14.76 295.6 14.536V10.552C295.6 10.4347 295.642 10.3333 295.728 10.248C295.824 10.1627 295.946 10.12 296.096 10.12C296.245 10.12 296.362 10.1627 296.448 10.248C296.544 10.3333 296.592 10.4347 296.592 10.552V16.536ZM293.247 7.096C293.065 7.096 292.895 7.13333 292.735 7.208C292.575 7.272 292.495 7.432 292.495 7.688C292.495 8.09333 292.676 8.296 293.039 8.296C293.177 8.296 293.295 8.25867 293.391 8.184C293.487 8.10933 293.572 8.024 293.647 7.928C293.689 7.87467 293.748 7.83733 293.823 7.816C293.897 7.784 293.956 7.768 293.999 7.768C294.127 7.768 294.239 7.816 294.335 7.912C294.399 8.008 294.479 8.09867 294.575 8.184C294.671 8.25867 294.777 8.30133 294.895 8.312C294.969 8.32267 295.044 8.30667 295.119 8.264C295.193 8.21067 295.247 8.168 295.279 8.136C295.364 8.05067 295.465 8.008 295.583 8.008C295.689 8.008 295.785 8.05067 295.871 8.136C295.945 8.22133 295.972 8.328 295.951 8.456C295.929 8.584 295.876 8.69067 295.791 8.776C295.748 8.81867 295.657 8.888 295.519 8.984C295.38 9.06933 295.172 9.112 294.895 9.112C294.681 9.112 294.5 9.064 294.351 8.968C294.201 8.86133 294.084 8.75467 293.999 8.648C293.913 8.75467 293.791 8.86133 293.631 8.968C293.46 9.064 293.263 9.112 293.039 9.112C292.527 9.112 292.159 8.97867 291.935 8.712C291.7 8.43467 291.583 8.09333 291.583 7.688C291.583 7.272 291.716 6.93067 291.983 6.664C292.249 6.39733 292.655 6.264 293.199 6.264H294.559C294.644 6.264 294.74 6.264 294.847 6.264C294.943 6.264 295.033 6.248 295.119 6.216C295.204 6.184 295.279 6.13067 295.343 6.056C295.396 5.97067 295.433 5.848 295.455 5.688C295.465 5.57067 295.508 5.48533 295.583 5.432C295.647 5.368 295.727 5.33067 295.823 5.32C295.94 5.32 296.036 5.352 296.111 5.416C296.175 5.46933 296.223 5.53867 296.255 5.624C296.287 5.70933 296.303 5.80533 296.303 5.912C296.292 6.008 296.281 6.09867 296.271 6.184C296.228 6.44 296.137 6.632 295.999 6.76C295.86 6.888 295.711 6.97867 295.551 7.032C295.38 7.07467 295.215 7.096 295.055 7.096C294.895 7.096 294.777 7.096 294.703 7.096H293.247ZM300.495 13.976C300.367 13.976 300.26 13.9387 300.175 13.864C300.1 13.7787 300.063 13.6773 300.063 13.56C300.063 13.4427 300.1 13.3467 300.175 13.272C300.26 13.1867 300.367 13.144 300.495 13.144H301.151C301.385 13.144 301.572 13.2133 301.711 13.352C301.849 13.48 301.956 13.6347 302.031 13.816C302.105 13.9973 302.153 14.184 302.175 14.376C302.196 14.5573 302.207 14.696 302.207 14.792C302.207 16.264 301.615 17 300.431 17H300.415C299.561 17 298.948 16.7013 298.575 16.104C298.212 15.5067 298.031 14.6747 298.031 13.608C298.031 13.3413 298.047 13.048 298.079 12.728C298.111 12.408 298.175 12.0987 298.271 11.8C298.367 11.5013 298.495 11.224 298.655 10.968C298.825 10.712 299.049 10.504 299.327 10.344C299.604 10.1947 299.897 10.1253 300.207 10.136C300.356 10.1467 300.527 10.2053 300.719 10.312L301.471 10.696L302.191 10.312C302.361 10.2373 302.564 10.1893 302.799 10.168C303.3 10.1253 303.689 10.28 303.967 10.632C304.255 10.984 304.399 11.5227 304.399 12.248V16.536C304.399 16.6747 304.356 16.7867 304.271 16.872C304.185 16.9573 304.063 17 303.903 17C303.743 17 303.62 16.9573 303.535 16.872C303.449 16.7867 303.407 16.6747 303.407 16.536V12.04C303.407 11.8693 303.385 11.7093 303.343 11.56C303.311 11.4107 303.252 11.288 303.167 11.192C303.081 11.096 302.975 11.0373 302.847 11.016C302.719 10.9947 302.564 11.0267 302.383 11.112C302.244 11.176 302.084 11.2667 301.903 11.384C301.732 11.4907 301.588 11.544 301.471 11.544C301.417 11.544 301.348 11.528 301.263 11.496C301.188 11.4533 301.103 11.4053 301.007 11.352C300.911 11.2987 300.815 11.2453 300.719 11.192C300.623 11.1387 300.537 11.096 300.463 11.064C300.249 10.9787 300.052 10.9893 299.871 11.096C299.7 11.192 299.551 11.3627 299.423 11.608C299.295 11.8427 299.193 12.136 299.119 12.488C299.044 12.8293 299.007 13.1973 299.007 13.592V13.608C299.007 14.376 299.129 14.9947 299.375 15.464C299.631 15.9227 299.983 16.152 300.431 16.152C300.623 16.152 300.777 16.0987 300.895 15.992C301.023 15.8853 301.119 15.752 301.183 15.592C301.257 15.432 301.3 15.256 301.311 15.064C301.332 14.872 301.327 14.696 301.295 14.536C301.263 14.376 301.209 14.2427 301.135 14.136C301.071 14.0293 300.985 13.976 300.879 13.976H300.495ZM61.776 34.184C61.9573 33.8747 62.1707 33.6347 62.416 33.464C62.672 33.2933 62.928 33.208 63.184 33.208C63.248 33.208 63.3227 33.2133 63.408 33.224C63.4933 33.224 63.5787 33.24 63.664 33.272C63.7493 33.2933 63.8187 33.336 63.872 33.4C63.936 33.464 63.968 33.5547 63.968 33.672C63.968 33.768 63.936 33.864 63.872 33.96C63.8187 34.056 63.7333 34.104 63.616 34.104C63.4667 34.104 63.3707 34.0987 63.328 34.088C63.2853 34.0773 63.2053 34.072 63.088 34.072C62.9707 34.072 62.848 34.1093 62.72 34.184C62.592 34.248 62.464 34.3387 62.336 34.456C62.2187 34.5627 62.1067 34.6907 62 34.84C61.904 34.9893 61.8293 35.144 61.776 35.304V36.536C61.776 36.6747 61.7333 36.7867 61.648 36.872C61.5733 36.9573 61.456 37 61.296 37C61.1253 37 60.9973 36.9573 60.912 36.872C60.8373 36.7867 60.8 36.6747 60.8 36.536V32.808C60.8 32.3813 60.8747 32.0027 61.024 31.672C61.1733 31.3413 61.3813 31.064 61.648 30.84C61.9253 30.6053 62.2453 30.4293 62.608 30.312C62.9707 30.1947 63.3707 30.136 63.808 30.136C64.2453 30.136 64.6453 30.1947 65.008 30.312C65.3813 30.4293 65.7013 30.6053 65.968 30.84C66.2453 31.064 66.4587 31.3413 66.608 31.672C66.7573 32.0027 66.832 32.3813 66.832 32.808V36.536C66.832 36.6747 66.7893 36.7867 66.704 36.872C66.6187 36.9573 66.496 37 66.336 37C66.176 37 66.0533 36.9573 65.968 36.872C65.8827 36.7867 65.84 36.6747 65.84 36.536V32.808C65.84 32.4133 65.7707 32.0987 65.632 31.864C65.4933 31.6187 65.3173 31.432 65.104 31.304C64.9013 31.1653 64.6827 31.0747 64.448 31.032C64.2133 30.9893 64 30.968 63.808 30.968C63.6267 30.968 63.4187 30.9893 63.184 31.032C62.9493 31.0747 62.7253 31.1653 62.512 31.304C62.3093 31.432 62.1333 31.6187 61.984 31.864C61.8453 32.0987 61.776 32.4133 61.776 32.808V34.184ZM67.225 26.792C67.4063 26.792 67.5237 26.84 67.577 26.936C67.6303 27.0213 67.6463 27.1227 67.625 27.24C67.5503 27.6027 67.417 27.9013 67.225 28.136C67.033 28.3707 66.8037 28.552 66.537 28.68C66.2703 28.808 65.9823 28.8987 65.673 28.952C65.353 28.9947 65.0437 29.0053 64.745 28.984C64.6277 28.9733 64.5103 28.9627 64.393 28.952C64.265 28.9413 64.153 28.9253 64.057 28.904C63.897 28.8613 63.8063 28.7867 63.785 28.68C63.7637 28.5627 63.753 28.4347 63.753 28.296V27.736H63.465C63.2943 27.736 63.1557 27.7093 63.049 27.656C62.9317 27.6027 62.873 27.48 62.873 27.288C62.873 27.096 62.937 26.984 63.065 26.952C63.193 26.9093 63.337 26.888 63.497 26.888H64.185C64.3983 26.888 64.5317 26.952 64.585 27.08C64.6383 27.1973 64.665 27.3093 64.665 27.416V28.168C64.857 28.1787 65.0543 28.1787 65.257 28.168C65.449 28.1467 65.6357 28.104 65.817 28.04C65.9983 27.976 66.1637 27.8853 66.313 27.768C66.4517 27.6507 66.5637 27.4907 66.649 27.288C66.7023 27.1707 66.7717 27.0587 66.857 26.952C66.9423 26.8453 67.065 26.792 67.225 26.792ZM74.201 36.536C74.201 36.6747 74.1583 36.7867 74.073 36.872C73.9983 36.9573 73.881 37 73.721 37C73.5503 37 73.4277 36.9573 73.353 36.872C73.2783 36.7867 73.241 36.6747 73.241 36.536V35.976C72.9957 36.296 72.6703 36.552 72.265 36.744C71.8597 36.9253 71.4437 37.016 71.017 37.016C70.6437 37.016 70.297 36.968 69.977 36.872C69.657 36.7653 69.3797 36.6107 69.145 36.408C68.921 36.1947 68.745 35.9333 68.617 35.624C68.489 35.3147 68.425 34.9573 68.425 34.552V30.552C68.425 30.4347 68.4677 30.3333 68.553 30.248C68.649 30.1627 68.7717 30.12 68.921 30.12C69.0703 30.12 69.1877 30.1627 69.273 30.248C69.369 30.3333 69.417 30.4347 69.417 30.552V34.552C69.417 35.0747 69.577 35.4747 69.897 35.752C70.217 36.0187 70.6437 36.152 71.177 36.152C71.401 36.152 71.6197 36.1093 71.833 36.024C72.057 35.9387 72.2597 35.8267 72.441 35.688C72.6223 35.5387 72.7823 35.368 72.921 35.176C73.0597 34.9733 73.1557 34.76 73.209 34.536V30.552C73.209 30.4347 73.2517 30.3333 73.337 30.248C73.433 30.1627 73.5557 30.12 73.705 30.12C73.8543 30.12 73.9717 30.1627 74.057 30.248C74.153 30.3333 74.201 30.4347 74.201 30.552V36.536ZM76.792 33.368L80.744 30.328C80.8827 30.2213 81.032 30.1627 81.192 30.152C81.3627 30.1413 81.4853 30.1893 81.56 30.296C81.6453 30.4133 81.6613 30.536 81.608 30.664C81.5653 30.792 81.496 30.8933 81.4 30.968L80.024 31.976C80.216 32.0187 80.3973 32.088 80.568 32.184C80.7387 32.2693 80.888 32.392 81.016 32.552C81.144 32.7013 81.2453 32.8933 81.32 33.128C81.4053 33.3627 81.448 33.64 81.448 33.96V36.472C81.448 36.824 81.2827 37 80.952 37C80.6213 37 80.456 36.824 80.456 36.472V33.944C80.456 33.5173 80.3333 33.208 80.088 33.016C79.8427 32.824 79.4907 32.7227 79.032 32.712L76.792 34.376V36.568C76.792 36.6853 76.744 36.7867 76.648 36.872C76.5627 36.9573 76.4453 37 76.296 37C76.1467 37 76.024 36.9573 75.928 36.872C75.8427 36.7867 75.8 36.6853 75.8 36.568V30.552C75.8 30.4347 75.8427 30.3333 75.928 30.248C76.024 30.1627 76.1467 30.12 76.296 30.12C76.4453 30.12 76.5627 30.1627 76.648 30.248C76.744 30.3333 76.792 30.4347 76.792 30.552V33.368ZM83.77 31.992C83.77 32.1093 83.722 32.2107 83.626 32.296C83.53 32.3813 83.418 32.424 83.29 32.424C83.1407 32.424 83.0233 32.3867 82.938 32.312C82.8527 32.2373 82.81 32.1627 82.81 32.088C82.81 31.8107 82.8793 31.5547 83.018 31.32C83.1673 31.0853 83.354 30.8827 83.578 30.712C83.8127 30.5307 84.0793 30.392 84.378 30.296C84.6767 30.1893 84.9807 30.136 85.29 30.136C86.154 30.136 86.778 30.376 87.162 30.856C87.546 31.3253 87.738 31.9707 87.738 32.792V36.472C87.738 36.824 87.5727 37 87.242 37C86.922 37 86.762 36.824 86.762 36.472V32.92C86.762 32.4933 86.7193 32.152 86.634 31.896C86.5487 31.64 86.4367 31.448 86.298 31.32C86.1593 31.1813 85.9993 31.0907 85.818 31.048C85.6473 30.9947 85.4713 30.968 85.29 30.968C85.0127 30.968 84.778 31.0107 84.586 31.096C84.394 31.1813 84.234 31.2827 84.106 31.4C83.9887 31.5067 83.9033 31.6187 83.85 31.736C83.7967 31.8427 83.77 31.928 83.77 31.992ZM90.3229 34.184C90.5042 33.8747 90.7175 33.6347 90.9629 33.464C91.2189 33.2933 91.4749 33.208 91.7309 33.208C91.7949 33.208 91.8695 33.2133 91.9549 33.224C92.0402 33.224 92.1255 33.24 92.2109 33.272C92.2962 33.2933 92.3655 33.336 92.4189 33.4C92.4829 33.464 92.5149 33.5547 92.5149 33.672C92.5149 33.768 92.4829 33.864 92.4189 33.96C92.3655 34.056 92.2802 34.104 92.1629 34.104C92.0135 34.104 91.9175 34.0987 91.8749 34.088C91.8322 34.0773 91.7522 34.072 91.6349 34.072C91.5175 34.072 91.3949 34.1093 91.2669 34.184C91.1389 34.248 91.0109 34.3387 90.8829 34.456C90.7655 34.5627 90.6535 34.6907 90.5469 34.84C90.4509 34.9893 90.3762 35.144 90.3229 35.304V36.536C90.3229 36.6747 90.2802 36.7867 90.1949 36.872C90.1202 36.9573 90.0029 37 89.8429 37C89.6722 37 89.5442 36.9573 89.4589 36.872C89.3842 36.7867 89.3469 36.6747 89.3469 36.536V32.808C89.3469 32.3813 89.4215 32.0027 89.5709 31.672C89.7202 31.3413 89.9282 31.064 90.1949 30.84C90.4722 30.6053 90.7922 30.4293 91.1549 30.312C91.5175 30.1947 91.9175 30.136 92.3549 30.136C92.9949 30.136 93.5442 30.2427 94.0029 30.456L94.5149 29.912C94.6322 29.784 94.7709 29.6667 94.9309 29.56C95.1015 29.4533 95.2775 29.464 95.4589 29.592C95.5762 29.656 95.6402 29.752 95.6509 29.88C95.6615 30.008 95.6242 30.1147 95.5389 30.2L94.7549 31C95.1709 31.448 95.3789 32.0507 95.3789 32.808V36.536C95.3789 36.6747 95.3362 36.7867 95.2509 36.872C95.1655 36.9573 95.0429 37 94.8829 37C94.7229 37 94.6002 36.9573 94.5149 36.872C94.4295 36.7867 94.3869 36.6747 94.3869 36.536V32.808C94.3869 32.4133 94.3175 32.0987 94.1789 31.864C94.0402 31.6187 93.8642 31.432 93.6509 31.304C93.4482 31.1653 93.2295 31.0747 92.9949 31.032C92.7602 30.9893 92.5469 30.968 92.3549 30.968C92.1735 30.968 91.9655 30.9893 91.7309 31.032C91.4962 31.0747 91.2722 31.1653 91.0589 31.304C90.8562 31.432 90.6802 31.6187 90.5309 31.864C90.3922 32.0987 90.3229 32.4133 90.3229 32.808V34.184ZM94.8294 37.96C94.9787 37.96 95.096 38.008 95.1814 38.104C95.2667 38.2107 95.3094 38.328 95.3094 38.456V38.968C95.3094 39.32 95.176 39.624 94.9094 39.88C94.6427 40.1467 94.2267 40.2853 93.6614 40.296C93.096 40.2853 92.6854 40.1467 92.4294 39.88C92.1734 39.624 92.0454 39.32 92.0454 38.968V38.68H91.7254C91.6294 38.68 91.544 38.6587 91.4694 38.616C91.384 38.584 91.3307 38.5147 91.3094 38.408C91.288 38.3227 91.288 38.248 91.3094 38.184C91.3307 38.0773 91.3894 38.0133 91.4854 37.992C91.5707 37.9707 91.6614 37.96 91.7574 37.96H92.6694C92.7547 37.96 92.824 37.9867 92.8774 38.04C92.9307 38.0933 92.9574 38.1627 92.9574 38.248V38.84C92.9574 39.0853 93.0267 39.2613 93.1654 39.368C93.2934 39.4853 93.4534 39.544 93.6454 39.544C93.848 39.544 94.0187 39.4907 94.1574 39.384C94.2854 39.2773 94.3494 39.096 94.3494 38.84V38.456C94.3494 38.1253 94.5094 37.96 94.8294 37.96ZM102.685 36.536C102.685 36.6747 102.643 36.7867 102.557 36.872C102.483 36.9573 102.365 37 102.205 37C102.035 37 101.912 36.9573 101.837 36.872C101.763 36.7867 101.725 36.6747 101.725 36.536V35.976C101.48 36.296 101.155 36.552 100.749 36.744C100.344 36.9253 99.928 37.016 99.5014 37.016C99.128 37.016 98.7814 36.968 98.4614 36.872C98.1414 36.7653 97.864 36.6107 97.6294 36.408C97.4054 36.1947 97.2294 35.9333 97.1014 35.624C96.9734 35.3147 96.9094 34.9573 96.9094 34.552V30.552C96.9094 30.4347 96.952 30.3333 97.0374 30.248C97.1334 30.1627 97.256 30.12 97.4054 30.12C97.5547 30.12 97.672 30.1627 97.7574 30.248C97.8534 30.3333 97.9014 30.4347 97.9014 30.552V34.552C97.9014 35.0747 98.0614 35.4747 98.3814 35.752C98.7014 36.0187 99.128 36.152 99.6614 36.152C99.8854 36.152 100.104 36.1093 100.317 36.024C100.541 35.9387 100.744 35.8267 100.925 35.688C101.107 35.5387 101.267 35.368 101.405 35.176C101.544 34.9733 101.64 34.76 101.693 34.536V30.552C101.693 30.4347 101.736 30.3333 101.821 30.248C101.917 30.1627 102.04 30.12 102.189 30.12C102.339 30.12 102.456 30.1627 102.541 30.248C102.637 30.3333 102.685 30.4347 102.685 30.552V36.536ZM106.924 36.168C108.14 36.168 108.748 35.5653 108.748 34.36V30.552C108.748 30.4347 108.796 30.3387 108.892 30.264C108.988 30.1787 109.106 30.136 109.244 30.136C109.394 30.136 109.511 30.1787 109.596 30.264C109.692 30.3387 109.74 30.4347 109.74 30.552V34.36C109.74 35.288 109.495 35.9547 109.004 36.36C108.524 36.7653 107.831 36.9787 106.924 37C106.551 37 106.183 36.968 105.82 36.904C105.458 36.8293 105.132 36.7067 104.844 36.536C104.556 36.3653 104.332 36.136 104.172 35.848C104.012 35.5493 103.948 35.176 103.98 34.728C104.023 34.3867 104.135 34.0933 104.316 33.848C104.498 33.592 104.748 33.4053 105.068 33.288C104.695 33.192 104.418 33.0107 104.236 32.744C104.066 32.4667 103.98 32.1893 103.98 31.912C103.98 31.2827 104.156 30.8293 104.508 30.552C104.871 30.2747 105.383 30.136 106.044 30.136C106.204 30.136 106.364 30.1467 106.524 30.168C106.684 30.1893 106.823 30.2267 106.94 30.28C107.068 30.3227 107.159 30.3867 107.212 30.472C107.276 30.5467 107.287 30.648 107.244 30.776C107.223 30.8613 107.17 30.9413 107.084 31.016C106.999 31.0907 106.898 31.1013 106.78 31.048C106.599 30.9947 106.386 30.9627 106.14 30.952C105.756 30.9413 105.463 31.0107 105.26 31.16C105.068 31.2987 104.972 31.5547 104.972 31.928C104.972 32.12 105.015 32.28 105.1 32.408C105.196 32.536 105.314 32.6373 105.452 32.712C105.602 32.7867 105.762 32.84 105.932 32.872C106.114 32.904 106.29 32.92 106.46 32.92H106.988C107.106 32.92 107.196 32.968 107.26 33.064C107.324 33.1493 107.356 33.2507 107.356 33.368C107.356 33.464 107.314 33.5387 107.228 33.592C107.154 33.6347 107.052 33.672 106.924 33.704C106.807 33.7253 106.679 33.736 106.54 33.736C106.412 33.736 106.295 33.736 106.188 33.736C105.762 33.736 105.447 33.8533 105.244 34.088C105.042 34.312 104.951 34.6267 104.972 35.032C104.994 35.2773 105.063 35.4747 105.18 35.624C105.308 35.7733 105.463 35.8907 105.644 35.976C105.836 36.0507 106.044 36.104 106.268 36.136C106.492 36.1573 106.711 36.168 106.924 36.168ZM110.019 26.888C110.168 26.888 110.302 26.9253 110.419 27C110.526 27.0747 110.563 27.2027 110.531 27.384C110.478 27.6293 110.312 27.752 110.035 27.752C109.907 27.7307 109.763 27.7253 109.603 27.736C109.432 27.736 109.262 27.752 109.091 27.784C108.91 27.8053 108.734 27.8427 108.563 27.896C108.392 27.9387 108.243 27.9973 108.115 28.072V28.552C108.115 28.68 108.072 28.7867 107.987 28.872C107.891 28.9573 107.768 29 107.619 29C107.459 29 107.331 28.9573 107.235 28.872C107.139 28.7867 107.091 28.68 107.091 28.552V27.864C107.091 27.7787 107.112 27.7147 107.155 27.672C107.198 27.6187 107.246 27.5707 107.299 27.528C107.47 27.4 107.672 27.2933 107.907 27.208C108.142 27.112 108.382 27.0373 108.627 26.984C108.872 26.9307 109.118 26.8987 109.363 26.888C109.598 26.8667 109.816 26.8667 110.019 26.888ZM116.819 30.136C116.958 30.136 117.075 30.1787 117.171 30.264C117.267 30.3387 117.315 30.4347 117.315 30.552V34.312C117.315 34.76 117.24 35.1547 117.091 35.496C116.942 35.8267 116.734 36.104 116.467 36.328C116.2 36.552 115.886 36.7227 115.523 36.84C115.16 36.9467 114.766 37 114.339 37C113.934 37 113.55 36.9467 113.187 36.84C112.824 36.7227 112.504 36.552 112.227 36.328C111.96 36.104 111.747 35.8267 111.587 35.496C111.427 35.1547 111.347 34.76 111.347 34.312V30.552C111.347 30.4347 111.395 30.3387 111.491 30.264C111.587 30.1787 111.704 30.136 111.843 30.136C111.971 30.136 112.083 30.1787 112.179 30.264C112.286 30.3387 112.339 30.4347 112.339 30.552V34.312C112.339 34.7067 112.408 35.0267 112.547 35.272C112.686 35.5067 112.856 35.6933 113.059 35.832C113.262 35.96 113.475 36.0507 113.699 36.104C113.934 36.1467 114.147 36.168 114.339 36.168C114.52 36.168 114.723 36.1467 114.947 36.104C115.182 36.0507 115.4 35.96 115.603 35.832C115.806 35.6933 115.976 35.5067 116.115 35.272C116.254 35.0267 116.323 34.7067 116.323 34.312V30.552C116.323 30.4347 116.366 30.3387 116.451 30.264C116.547 30.1787 116.67 30.136 116.819 30.136ZM121.565 33.096C121.832 33.128 122.115 33.176 122.413 33.24C122.712 33.2933 122.989 33.3787 123.245 33.496C123.501 33.6133 123.715 33.7787 123.885 33.992C124.067 34.2053 124.168 34.4827 124.189 34.824C124.221 35.2507 124.157 35.608 123.997 35.896C123.837 36.1733 123.619 36.3973 123.341 36.568C123.075 36.728 122.76 36.84 122.397 36.904C122.045 36.968 121.683 37 121.309 37C120.925 37 120.541 36.9573 120.157 36.872C119.784 36.776 119.416 36.632 119.053 36.44C118.936 36.3867 118.845 36.2907 118.781 36.152C118.717 36.0027 118.744 35.864 118.861 35.736C118.947 35.6507 119.043 35.6027 119.149 35.592C119.267 35.5707 119.379 35.5867 119.485 35.64C119.613 35.7253 119.757 35.8 119.917 35.864C120.088 35.928 120.253 35.9867 120.413 36.04C120.584 36.0827 120.749 36.1147 120.909 36.136C121.069 36.1573 121.213 36.168 121.341 36.168C121.555 36.168 121.773 36.152 121.997 36.12C122.232 36.088 122.44 36.0293 122.621 35.944C122.803 35.8587 122.947 35.736 123.053 35.576C123.171 35.4053 123.219 35.1813 123.197 34.904C123.176 34.5733 123.021 34.3547 122.733 34.248C122.445 34.1413 122.04 34.0453 121.517 33.96C121.261 33.928 120.979 33.88 120.669 33.816C120.371 33.752 120.088 33.656 119.821 33.528C119.565 33.4 119.347 33.2293 119.165 33.016C118.984 32.8027 118.888 32.5307 118.877 32.2C118.845 31.784 118.904 31.4427 119.053 31.176C119.213 30.9093 119.427 30.7013 119.693 30.552C119.971 30.392 120.285 30.2853 120.637 30.232C120.989 30.168 121.352 30.136 121.725 30.136C122.099 30.136 122.456 30.184 122.797 30.28C123.139 30.376 123.48 30.5307 123.821 30.744C123.928 30.8187 123.987 30.9147 123.997 31.032C124.008 31.1493 123.981 31.256 123.917 31.352C123.864 31.4373 123.784 31.496 123.677 31.528C123.571 31.56 123.475 31.5493 123.389 31.496C123.133 31.3253 122.856 31.192 122.557 31.096C122.259 30.9893 121.965 30.936 121.677 30.936C121.485 30.936 121.283 30.9467 121.069 30.968C120.856 30.9787 120.653 31.0267 120.461 31.112C120.28 31.1867 120.131 31.304 120.013 31.464C119.896 31.6133 119.837 31.8267 119.837 32.104C119.848 32.296 119.912 32.4507 120.029 32.568C120.147 32.6853 120.291 32.7813 120.461 32.856C120.632 32.92 120.813 32.9733 121.005 33.016C121.208 33.048 121.395 33.0747 121.565 33.096ZM123.692 28.216C123.809 28.2267 123.9 28.2747 123.964 28.36C124.017 28.4347 124.044 28.5253 124.044 28.632C124.022 28.8773 123.878 29 123.612 29H118.668C118.401 29 118.257 28.8773 118.236 28.632C118.236 28.5253 118.268 28.4347 118.332 28.36C118.385 28.2747 118.47 28.2267 118.588 28.216H123.692ZM128.54 30.136C128.945 30.136 129.324 30.1947 129.676 30.312C130.028 30.4293 130.337 30.6107 130.604 30.856C130.87 31.1013 131.078 31.4107 131.228 31.784C131.377 32.1573 131.452 32.6 131.452 33.112V36.536C131.452 36.6747 131.409 36.7867 131.324 36.872C131.238 36.9573 131.116 37 130.956 37C130.796 37 130.673 36.9573 130.588 36.872C130.502 36.7867 130.46 36.6747 130.46 36.536V33.272C130.46 32.472 130.284 31.8907 129.932 31.528C129.59 31.1653 129.126 30.984 128.54 30.984C128.028 30.984 127.596 31.0693 127.244 31.24C126.892 31.4107 126.593 31.608 126.348 31.832C126.497 31.96 126.604 32.184 126.668 32.504C126.732 32.8133 126.764 33.16 126.764 33.544V36.536C126.764 36.6747 126.721 36.7867 126.636 36.872C126.55 36.9573 126.428 37 126.268 37C126.086 37 125.958 36.952 125.884 36.856C125.809 36.76 125.772 36.6533 125.772 36.536V33.384C125.772 32.936 125.729 32.584 125.644 32.328C125.569 32.072 125.462 31.864 125.324 31.704C125.43 31.5333 125.58 31.3573 125.772 31.176C125.974 30.9947 126.209 30.8293 126.476 30.68C126.753 30.52 127.062 30.392 127.404 30.296C127.745 30.1893 128.124 30.136 128.54 30.136ZM133.77 31.992C133.77 32.1093 133.722 32.2107 133.626 32.296C133.53 32.3813 133.418 32.424 133.29 32.424C133.141 32.424 133.023 32.3867 132.938 32.312C132.853 32.2373 132.81 32.1627 132.81 32.088C132.81 31.8107 132.879 31.5547 133.018 31.32C133.167 31.0853 133.354 30.8827 133.578 30.712C133.813 30.5307 134.079 30.392 134.378 30.296C134.677 30.1893 134.981 30.136 135.29 30.136C136.154 30.136 136.778 30.376 137.162 30.856C137.546 31.3253 137.738 31.9707 137.738 32.792V36.472C137.738 36.824 137.573 37 137.242 37C136.922 37 136.762 36.824 136.762 36.472V32.92C136.762 32.4933 136.719 32.152 136.634 31.896C136.549 31.64 136.437 31.448 136.298 31.32C136.159 31.1813 135.999 31.0907 135.818 31.048C135.647 30.9947 135.471 30.968 135.29 30.968C135.013 30.968 134.778 31.0107 134.586 31.096C134.394 31.1813 134.234 31.2827 134.106 31.4C133.989 31.5067 133.903 31.6187 133.85 31.736C133.797 31.8427 133.77 31.928 133.77 31.992ZM142.003 33.096C142.27 33.128 142.552 33.176 142.851 33.24C143.15 33.2933 143.427 33.3787 143.683 33.496C143.939 33.6133 144.152 33.7787 144.323 33.992C144.504 34.2053 144.606 34.4827 144.627 34.824C144.659 35.2507 144.595 35.608 144.435 35.896C144.275 36.1733 144.056 36.3973 143.779 36.568C143.512 36.728 143.198 36.84 142.835 36.904C142.483 36.968 142.12 37 141.747 37C141.363 37 140.979 36.9573 140.595 36.872C140.222 36.776 139.854 36.632 139.491 36.44C139.374 36.3867 139.283 36.2907 139.219 36.152C139.155 36.0027 139.182 35.864 139.299 35.736C139.384 35.6507 139.48 35.6027 139.587 35.592C139.704 35.5707 139.816 35.5867 139.923 35.64C140.051 35.7253 140.195 35.8 140.355 35.864C140.526 35.928 140.691 35.9867 140.851 36.04C141.022 36.0827 141.187 36.1147 141.347 36.136C141.507 36.1573 141.651 36.168 141.779 36.168C141.992 36.168 142.211 36.152 142.435 36.12C142.67 36.088 142.878 36.0293 143.059 35.944C143.24 35.8587 143.384 35.736 143.491 35.576C143.608 35.4053 143.656 35.1813 143.635 34.904C143.614 34.5733 143.459 34.3547 143.171 34.248C142.883 34.1413 142.478 34.0453 141.955 33.96C141.699 33.928 141.416 33.88 141.107 33.816C140.808 33.752 140.526 33.656 140.259 33.528C140.003 33.4 139.784 33.2293 139.603 33.016C139.422 32.8027 139.326 32.5307 139.315 32.2C139.283 31.784 139.342 31.4427 139.491 31.176C139.651 30.9093 139.864 30.7013 140.131 30.552C140.408 30.392 140.723 30.2853 141.075 30.232C141.427 30.168 141.79 30.136 142.163 30.136C142.536 30.136 142.894 30.184 143.235 30.28C143.576 30.376 143.918 30.5307 144.259 30.744C144.366 30.8187 144.424 30.9147 144.435 31.032C144.446 31.1493 144.419 31.256 144.355 31.352C144.302 31.4373 144.222 31.496 144.115 31.528C144.008 31.56 143.912 31.5493 143.827 31.496C143.571 31.3253 143.294 31.192 142.995 31.096C142.696 30.9893 142.403 30.936 142.115 30.936C141.923 30.936 141.72 30.9467 141.507 30.968C141.294 30.9787 141.091 31.0267 140.899 31.112C140.718 31.1867 140.568 31.304 140.451 31.464C140.334 31.6133 140.275 31.8267 140.275 32.104C140.286 32.296 140.35 32.4507 140.467 32.568C140.584 32.6853 140.728 32.7813 140.899 32.856C141.07 32.92 141.251 32.9733 141.443 33.016C141.646 33.048 141.832 33.0747 142.003 33.096ZM150.36 34.904C150.36 35.352 150.376 35.672 150.408 35.864C150.44 36.056 150.531 36.152 150.68 36.152C150.712 36.152 150.749 36.136 150.792 36.104C150.845 36.0613 150.899 36.024 150.952 35.992C151.016 35.96 151.085 35.9387 151.16 35.928C151.245 35.9067 151.336 35.9173 151.432 35.96C151.549 36.0133 151.619 36.104 151.64 36.232C151.672 36.3493 151.645 36.472 151.56 36.6C151.507 36.6853 151.432 36.76 151.336 36.824C151.24 36.8773 151.139 36.92 151.032 36.952C150.936 36.984 150.84 37.0053 150.744 37.016C150.648 37.0267 150.579 37.032 150.536 37.032C150.259 37.032 150.04 36.984 149.88 36.888C149.731 36.7813 149.619 36.6373 149.544 36.456C149.469 36.264 149.421 36.04 149.4 35.784C149.379 35.528 149.368 35.2453 149.368 34.936V30.6C149.368 30.4613 149.411 30.3493 149.496 30.264C149.581 30.1787 149.704 30.136 149.864 30.136C150.024 30.136 150.147 30.1787 150.232 30.264C150.317 30.3493 150.36 30.4613 150.36 30.6V34.904ZM153.528 34.904C153.528 35.352 153.544 35.672 153.576 35.864C153.608 36.056 153.699 36.152 153.848 36.152C153.88 36.152 153.917 36.136 153.96 36.104C154.013 36.0613 154.067 36.024 154.12 35.992C154.184 35.96 154.253 35.9387 154.328 35.928C154.413 35.9067 154.504 35.9173 154.6 35.96C154.717 36.0133 154.787 36.104 154.808 36.232C154.84 36.3493 154.813 36.472 154.728 36.6C154.675 36.6853 154.6 36.76 154.504 36.824C154.408 36.8773 154.307 36.92 154.2 36.952C154.104 36.984 154.008 37.0053 153.912 37.016C153.816 37.0267 153.747 37.032 153.704 37.032C153.427 37.032 153.208 36.984 153.048 36.888C152.899 36.7813 152.787 36.6373 152.712 36.456C152.637 36.264 152.589 36.04 152.568 35.784C152.547 35.528 152.536 35.2453 152.536 34.936V30.6C152.536 30.4613 152.579 30.3493 152.664 30.264C152.749 30.1787 152.872 30.136 153.032 30.136C153.192 30.136 153.315 30.1787 153.4 30.264C153.485 30.3493 153.528 30.4613 153.528 30.6V34.904ZM158.664 30.136C159.72 30.136 160.478 30.4027 160.936 30.936C161.406 31.4587 161.64 32.2373 161.64 33.272V36.536C161.64 36.6747 161.598 36.7867 161.512 36.872C161.427 36.9573 161.304 37 161.144 37C160.984 37 160.862 36.9573 160.776 36.872C160.691 36.7867 160.648 36.6747 160.648 36.536V34.536C160.552 34.408 160.414 34.2907 160.232 34.184C160.051 34.0667 159.854 33.9707 159.64 33.896C159.427 33.8213 159.203 33.7627 158.968 33.72C158.734 33.6773 158.504 33.656 158.28 33.656C158.035 33.656 157.811 33.6827 157.608 33.736C157.406 33.7893 157.23 33.88 157.08 34.008C156.942 34.1253 156.835 34.2853 156.76 34.488C156.686 34.68 156.664 34.92 156.696 35.208C156.728 35.4853 156.83 35.6987 157 35.848C157.182 35.9867 157.395 36.0827 157.64 36.136C157.918 36.1893 158.211 36.1787 158.52 36.104C158.638 36.0827 158.739 36.0933 158.824 36.136C158.92 36.168 158.984 36.2587 159.016 36.408C159.048 36.5253 159.043 36.6213 159 36.696C158.958 36.76 158.894 36.8187 158.808 36.872C158.734 36.9147 158.638 36.9467 158.52 36.968C158.414 36.9893 158.307 37 158.2 37C158.115 37 158.024 37 157.928 37C157.843 37 157.758 36.9947 157.672 36.984C157.086 36.952 156.6 36.76 156.216 36.408C155.832 36.0453 155.667 35.512 155.72 34.808C155.752 34.136 155.982 33.6347 156.408 33.304C156.835 32.9733 157.432 32.808 158.2 32.808C158.68 32.808 159.118 32.8613 159.512 32.968C159.907 33.0747 160.291 33.256 160.664 33.512C160.664 33.128 160.638 32.7867 160.584 32.488C160.531 32.1787 160.43 31.9173 160.28 31.704C160.142 31.48 159.939 31.3147 159.672 31.208C159.416 31.0907 159.08 31.032 158.664 31.032C158.195 31.032 157.79 31.096 157.448 31.224C157.107 31.3413 156.798 31.4907 156.52 31.672C156.424 31.7253 156.312 31.736 156.184 31.704C156.067 31.6613 155.982 31.5867 155.928 31.48C155.811 31.288 155.838 31.112 156.008 30.952C156.179 30.792 156.414 30.6533 156.712 30.536C157.022 30.408 157.358 30.312 157.72 30.248C158.083 30.1733 158.398 30.136 158.664 30.136ZM164.694 32.952C164.32 32.952 163.979 32.8933 163.67 32.776C163.371 32.6587 163.179 32.424 163.094 32.072C163.072 31.976 163.067 31.8693 163.078 31.752C163.088 31.624 163.115 31.512 163.158 31.416C163.211 31.3093 163.275 31.2293 163.35 31.176C163.435 31.112 163.542 31.096 163.67 31.128C163.787 31.1493 163.878 31.2027 163.942 31.288C164.006 31.3627 164.027 31.448 164.006 31.544C163.952 31.7147 163.968 31.8587 164.054 31.976C164.15 32.0933 164.294 32.152 164.486 32.152H166.406C166.523 32.152 166.619 32.1893 166.694 32.264C166.779 32.328 166.822 32.4187 166.822 32.536C166.822 32.6533 166.784 32.7547 166.71 32.84C166.635 32.9147 166.534 32.952 166.406 32.952H164.694ZM164.694 36.28C164.32 36.28 163.979 36.2213 163.67 36.104C163.371 35.9867 163.179 35.752 163.094 35.4C163.072 35.304 163.067 35.1973 163.078 35.08C163.088 34.952 163.115 34.84 163.158 34.744C163.211 34.6373 163.275 34.5573 163.35 34.504C163.435 34.44 163.542 34.424 163.67 34.456C163.787 34.4773 163.878 34.5307 163.942 34.616C164.006 34.6907 164.027 34.776 164.006 34.872C163.952 35.0427 163.968 35.1867 164.054 35.304C164.15 35.4213 164.294 35.48 164.486 35.48H166.406C166.523 35.48 166.619 35.5173 166.694 35.592C166.779 35.656 166.822 35.7467 166.822 35.864C166.822 35.9813 166.784 36.0827 166.71 36.168C166.635 36.2427 166.534 36.28 166.406 36.28H164.694ZM170.925 33.096C171.191 33.128 171.474 33.176 171.773 33.24C172.071 33.2933 172.349 33.3787 172.605 33.496C172.861 33.6133 173.074 33.7787 173.245 33.992C173.426 34.2053 173.527 34.4827 173.549 34.824C173.581 35.2507 173.517 35.608 173.357 35.896C173.197 36.1733 172.978 36.3973 172.701 36.568C172.434 36.728 172.119 36.84 171.757 36.904C171.405 36.968 171.042 37 170.669 37C170.285 37 169.901 36.9573 169.517 36.872C169.143 36.776 168.775 36.632 168.413 36.44C168.295 36.3867 168.205 36.2907 168.141 36.152C168.077 36.0027 168.103 35.864 168.221 35.736C168.306 35.6507 168.402 35.6027 168.509 35.592C168.626 35.5707 168.738 35.5867 168.845 35.64C168.973 35.7253 169.117 35.8 169.277 35.864C169.447 35.928 169.613 35.9867 169.773 36.04C169.943 36.0827 170.109 36.1147 170.269 36.136C170.429 36.1573 170.573 36.168 170.701 36.168C170.914 36.168 171.133 36.152 171.357 36.12C171.591 36.088 171.799 36.0293 171.981 35.944C172.162 35.8587 172.306 35.736 172.413 35.576C172.53 35.4053 172.578 35.1813 172.557 34.904C172.535 34.5733 172.381 34.3547 172.093 34.248C171.805 34.1413 171.399 34.0453 170.877 33.96C170.621 33.928 170.338 33.88 170.029 33.816C169.73 33.752 169.447 33.656 169.181 33.528C168.925 33.4 168.706 33.2293 168.525 33.016C168.343 32.8027 168.247 32.5307 168.237 32.2C168.205 31.784 168.263 31.4427 168.413 31.176C168.573 30.9093 168.786 30.7013 169.053 30.552C169.33 30.392 169.645 30.2853 169.997 30.232C170.349 30.168 170.711 30.136 171.085 30.136C171.458 30.136 171.815 30.184 172.157 30.28C172.498 30.376 172.839 30.5307 173.181 30.744C173.287 30.8187 173.346 30.9147 173.357 31.032C173.367 31.1493 173.341 31.256 173.277 31.352C173.223 31.4373 173.143 31.496 173.037 31.528C172.93 31.56 172.834 31.5493 172.749 31.496C172.493 31.3253 172.215 31.192 171.917 31.096C171.618 30.9893 171.325 30.936 171.037 30.936C170.845 30.936 170.642 30.9467 170.429 30.968C170.215 30.9787 170.013 31.0267 169.821 31.112C169.639 31.1867 169.49 31.304 169.373 31.464C169.255 31.6133 169.197 31.8267 169.197 32.104C169.207 32.296 169.271 32.4507 169.389 32.568C169.506 32.6853 169.65 32.7813 169.821 32.856C169.991 32.92 170.173 32.9733 170.365 33.016C170.567 33.048 170.754 33.0747 170.925 33.096ZM172.923 37.96C173.072 37.96 173.19 38.008 173.275 38.104C173.36 38.2107 173.403 38.328 173.403 38.456V38.968C173.403 39.32 173.27 39.624 173.003 39.88C172.736 40.1467 172.32 40.2853 171.755 40.296C171.19 40.2853 170.779 40.1467 170.523 39.88C170.267 39.624 170.139 39.32 170.139 38.968V38.68H169.819C169.723 38.68 169.638 38.6587 169.563 38.616C169.478 38.584 169.424 38.5147 169.403 38.408C169.382 38.3227 169.382 38.248 169.403 38.184C169.424 38.0773 169.483 38.0133 169.579 37.992C169.664 37.9707 169.755 37.96 169.851 37.96H170.763C170.848 37.96 170.918 37.9867 170.971 38.04C171.024 38.0933 171.051 38.1627 171.051 38.248V38.84C171.051 39.0853 171.12 39.2613 171.259 39.368C171.387 39.4853 171.547 39.544 171.739 39.544C171.942 39.544 172.112 39.4907 172.251 39.384C172.379 39.2773 172.443 39.096 172.443 38.84V38.456C172.443 38.1253 172.603 37.96 172.923 37.96ZM173.803 26.792C173.984 26.792 174.102 26.84 174.155 26.936C174.208 27.0213 174.224 27.1227 174.203 27.24C174.128 27.6027 173.995 27.9013 173.803 28.136C173.611 28.3707 173.382 28.552 173.115 28.68C172.848 28.808 172.56 28.8987 172.251 28.952C171.931 28.9947 171.622 29.0053 171.323 28.984C171.206 28.9733 171.088 28.9627 170.971 28.952C170.843 28.9413 170.731 28.9253 170.635 28.904C170.475 28.8613 170.384 28.7867 170.363 28.68C170.342 28.5627 170.331 28.4347 170.331 28.296V27.736H170.043C169.872 27.736 169.734 27.7093 169.627 27.656C169.51 27.6027 169.451 27.48 169.451 27.288C169.451 27.096 169.515 26.984 169.643 26.952C169.771 26.9093 169.915 26.888 170.075 26.888H170.763C170.976 26.888 171.11 26.952 171.163 27.08C171.216 27.1973 171.243 27.3093 171.243 27.416V28.168C171.435 28.1787 171.632 28.1787 171.835 28.168C172.027 28.1467 172.214 28.104 172.395 28.04C172.576 27.976 172.742 27.8853 172.891 27.768C173.03 27.6507 173.142 27.4907 173.227 27.288C173.28 27.1707 173.35 27.0587 173.435 26.952C173.52 26.8453 173.643 26.792 173.803 26.792ZM177.675 37C177.238 37 176.891 36.9253 176.635 36.776C176.379 36.616 176.176 36.408 176.027 36.152C175.888 35.8853 175.792 35.5813 175.739 35.24C175.686 34.8987 175.643 34.5413 175.611 34.168H175.163C174.918 34.168 174.795 34.0347 174.795 33.768C174.795 33.6507 174.827 33.56 174.891 33.496C174.955 33.4213 175.046 33.384 175.163 33.384H176.203C176.32 33.384 176.406 33.416 176.459 33.48C176.512 33.544 176.539 33.624 176.539 33.72C176.539 33.9973 176.544 34.2853 176.555 34.584C176.576 34.872 176.624 35.1333 176.699 35.368C176.774 35.6027 176.886 35.7947 177.035 35.944C177.195 36.0933 177.414 36.168 177.691 36.168C177.958 36.168 178.171 36.0987 178.331 35.96C178.502 35.8107 178.63 35.6133 178.715 35.368C178.8 35.1227 178.859 34.84 178.891 34.52C178.923 34.1893 178.939 33.8427 178.939 33.48C178.939 33.128 178.923 32.8027 178.891 32.504C178.87 32.1947 178.806 31.928 178.699 31.704C178.592 31.48 178.427 31.304 178.203 31.176C177.979 31.048 177.675 30.984 177.291 30.984C176.875 30.984 176.502 31.0533 176.171 31.192C175.851 31.32 175.558 31.5013 175.291 31.736C175.206 31.7893 175.099 31.8107 174.971 31.8C174.843 31.7893 174.747 31.736 174.683 31.64C174.598 31.5333 174.571 31.4213 174.603 31.304C174.635 31.1867 174.699 31.096 174.795 31.032C175.168 30.7227 175.552 30.4933 175.947 30.344C176.352 30.1947 176.8 30.12 177.291 30.12C177.814 30.12 178.24 30.1947 178.571 30.344C178.912 30.4827 179.179 30.6907 179.371 30.968C179.574 31.2453 179.712 31.592 179.787 32.008C179.872 32.4133 179.915 32.8827 179.915 33.416C179.915 33.8533 179.883 34.2907 179.819 34.728C179.766 35.1547 179.659 35.5387 179.499 35.88C179.339 36.2107 179.11 36.4827 178.811 36.696C178.523 36.8987 178.144 37 177.675 37ZM177.298 29C177.096 29 176.904 28.9627 176.722 28.888C176.541 28.8133 176.392 28.712 176.274 28.584C176.146 28.456 176.056 28.3067 176.002 28.136C175.938 27.9547 175.933 27.7573 175.986 27.544C176.04 27.2347 176.226 27.096 176.546 27.128C176.653 27.1493 176.744 27.2027 176.818 27.288C176.882 27.3627 176.904 27.448 176.882 27.544C176.818 27.7253 176.85 27.88 176.978 28.008C177.096 28.136 177.245 28.2 177.426 28.2H180.402C180.53 28.2 180.627 28.2427 180.691 28.328C180.765 28.4027 180.803 28.4933 180.803 28.6C180.803 28.7173 180.765 28.8133 180.691 28.888C180.627 28.9627 180.53 29 180.402 29H177.298ZM184.259 30.136C184.664 30.136 185.043 30.1947 185.395 30.312C185.747 30.4293 186.056 30.6107 186.323 30.856C186.589 31.1013 186.797 31.4107 186.947 31.784C187.096 32.1573 187.171 32.6 187.171 33.112V36.536C187.171 36.6747 187.128 36.7867 187.043 36.872C186.957 36.9573 186.835 37 186.675 37C186.515 37 186.392 36.9573 186.307 36.872C186.221 36.7867 186.179 36.6747 186.179 36.536V33.272C186.179 32.472 186.003 31.8907 185.651 31.528C185.309 31.1653 184.845 30.984 184.259 30.984C183.747 30.984 183.315 31.0693 182.963 31.24C182.611 31.4107 182.312 31.608 182.067 31.832C182.216 31.96 182.323 32.184 182.387 32.504C182.451 32.8133 182.483 33.16 182.483 33.544V36.536C182.483 36.6747 182.44 36.7867 182.355 36.872C182.269 36.9573 182.147 37 181.987 37C181.805 37 181.677 36.952 181.603 36.856C181.528 36.76 181.491 36.6533 181.491 36.536V33.384C181.491 32.936 181.448 32.584 181.363 32.328C181.288 32.072 181.181 31.864 181.043 31.704C181.149 31.5333 181.299 31.3573 181.491 31.176C181.693 30.9947 181.928 30.8293 182.195 30.68C182.472 30.52 182.781 30.392 183.123 30.296C183.464 30.1893 183.843 30.136 184.259 30.136ZM197.704 29.096C197.821 29.096 197.928 29.1387 198.024 29.224C198.13 29.3093 198.184 29.4107 198.184 29.528V36.616C198.184 36.7653 198.125 36.8773 198.008 36.952C197.901 37.016 197.778 37.048 197.64 37.048C197.501 37.048 197.357 36.968 197.208 36.808C197.058 36.6373 196.93 36.4773 196.824 36.328L192.904 30.872V36.632C192.904 36.7493 192.856 36.8507 192.76 36.936C192.664 37.0213 192.541 37.064 192.392 37.064C192.264 37.064 192.146 37.0213 192.04 36.936C191.944 36.8507 191.896 36.7493 191.896 36.632V29.544C191.896 29.384 191.944 29.272 192.04 29.208C192.146 29.1333 192.264 29.096 192.392 29.096C192.456 29.096 192.541 29.1173 192.648 29.16C192.754 29.2027 192.861 29.2987 192.968 29.448L197.192 35.288V29.528C197.192 29.4107 197.24 29.3093 197.336 29.224C197.432 29.1387 197.554 29.096 197.704 29.096ZM205.207 29.16C205.324 29.16 205.425 29.2027 205.511 29.288C205.596 29.3733 205.639 29.4747 205.639 29.592C205.639 29.6987 205.596 29.7947 205.511 29.88C205.425 29.9653 205.324 30.008 205.207 30.008H203.015V36.632C203.015 36.7493 202.961 36.8507 202.855 36.936C202.759 37.0213 202.641 37.064 202.503 37.064C202.353 37.064 202.231 37.0213 202.135 36.936C202.049 36.8507 202.007 36.7493 202.007 36.632V30.008H199.815C199.665 30.008 199.553 29.9653 199.479 29.88C199.415 29.7947 199.383 29.6987 199.383 29.592C199.383 29.4747 199.415 29.3733 199.479 29.288C199.553 29.2027 199.665 29.16 199.815 29.16H205.207Z" fill="#C4C4C4"/>
</g>
<defs>
<clipPath id="clip0_2373_366059">
<rect width="28" height="28" fill="white" transform="translate(8 8)"/>
</clipPath>
</defs>
</svg>
