<svg width="277" height="20" viewBox="0 0 277 20" fill="none" xmlns="http://www.w3.org/2000/svg">
<circle cx="8" cy="12" r="8" fill="#C4C4C4"/>
<circle cx="8" cy="12" r="4" fill="#F0F0F0"/>
<path d="M35.424 11.24C35.424 10.9733 35.3973 10.728 35.344 10.504C35.3013 10.28 35.2213 10.088 35.104 9.928C34.9867 9.768 34.8213 9.64533 34.608 9.56C34.3947 9.464 34.128 9.416 33.808 9.416C33.4133 9.416 33.0453 9.464 32.704 9.56C32.3627 9.656 32.0533 9.77867 31.776 9.928C31.6373 9.992 31.4773 9.99733 31.296 9.944C31.1147 9.89067 30.992 9.784 30.928 9.624C30.832 9.44267 30.816 9.26667 30.88 9.096C30.9547 8.91467 31.072 8.78667 31.232 8.712C31.68 8.47733 32.1013 8.312 32.496 8.216C32.8907 8.12 33.328 8.072 33.808 8.072C34.9493 8.072 35.7547 8.36 36.224 8.936C36.6933 9.512 36.928 10.3333 36.928 11.4V14.296C36.928 14.5093 36.864 14.68 36.736 14.808C36.6187 14.936 36.432 15 36.176 15C35.9093 15 35.712 14.936 35.584 14.808C35.4667 14.68 35.408 14.5093 35.408 14.296V12.712C35.312 12.6053 35.1787 12.5093 35.008 12.424C34.848 12.3387 34.672 12.264 34.48 12.2C34.288 12.136 34.096 12.088 33.904 12.056C33.712 12.024 33.5467 12.008 33.408 12.008C33.2587 12.008 33.104 12.024 32.944 12.056C32.7947 12.0773 32.656 12.1253 32.528 12.2C32.4107 12.264 32.3147 12.3653 32.24 12.504C32.1653 12.6427 32.1387 12.824 32.16 13.048C32.1813 13.2613 32.2613 13.432 32.4 13.56C32.5387 13.6773 32.704 13.7467 32.896 13.768C33.0133 13.7893 33.136 13.7893 33.264 13.768C33.392 13.7467 33.5093 13.7413 33.616 13.752C33.7333 13.752 33.8347 13.784 33.92 13.848C34.016 13.9013 34.08 14.0133 34.112 14.184C34.176 14.472 34.1067 14.68 33.904 14.808C33.712 14.936 33.4453 15 33.104 15C32.7627 15 32.4373 14.9627 32.128 14.888C31.8293 14.8027 31.568 14.6747 31.344 14.504C31.12 14.3333 30.944 14.1093 30.816 13.832C30.688 13.5547 30.6347 13.2187 30.656 12.824C30.6773 12.0987 30.912 11.576 31.36 11.256C31.8187 10.9253 32.448 10.76 33.248 10.76C33.7173 10.76 34.112 10.8027 34.432 10.888C34.7627 10.9733 35.0933 11.0907 35.424 11.24ZM41.5286 8.072C41.9766 8.09333 42.3713 8.19467 42.7126 8.376C43.054 8.55733 43.3366 8.80267 43.5606 9.112C43.7953 9.41067 43.966 9.768 44.0726 10.184C44.19 10.5893 44.2433 11.032 44.2326 11.512C44.222 11.9813 44.1686 12.4293 44.0726 12.856C43.9873 13.272 43.8273 13.64 43.5926 13.96C43.3686 14.28 43.0646 14.536 42.6806 14.728C42.2966 14.9093 41.806 15 41.2086 15C40.7286 15 40.3286 14.9253 40.0086 14.776C39.6886 14.616 39.422 14.3813 39.2086 14.072C39.1446 13.976 39.0593 13.8267 38.9526 13.624C38.8566 13.4107 38.7553 13.176 38.6486 12.92C38.542 12.6533 38.4406 12.376 38.3446 12.088C38.2486 11.7893 38.1793 11.512 38.1366 11.256C38.126 11.1067 38.1793 10.9733 38.2966 10.856C38.4246 10.7387 38.5793 10.664 38.7606 10.632C38.9526 10.5893 39.134 10.6053 39.3046 10.68C39.4753 10.7547 39.582 10.8773 39.6246 11.048C39.7206 11.4 39.8113 11.7413 39.8966 12.072C39.9926 12.4027 40.0993 12.696 40.2166 12.952C40.3446 13.208 40.4886 13.4107 40.6486 13.56C40.8193 13.7093 41.0273 13.784 41.2726 13.784C41.5606 13.784 41.7953 13.7307 41.9766 13.624C42.158 13.5067 42.302 13.352 42.4086 13.16C42.526 12.968 42.606 12.7387 42.6486 12.472C42.6913 12.2053 42.718 11.9173 42.7286 11.608C42.7286 11.416 42.718 11.1973 42.6966 10.952C42.6753 10.696 42.6166 10.456 42.5206 10.232C42.4353 9.99733 42.3126 9.8 42.1526 9.64C41.9926 9.46933 41.7793 9.37333 41.5126 9.352C41.3633 9.34133 41.198 9.34133 41.0166 9.352C40.846 9.352 40.6806 9.368 40.5206 9.4C40.382 9.42133 40.2433 9.39467 40.1046 9.32C39.966 9.23467 39.8753 9.11733 39.8326 8.968C39.7686 8.76533 39.79 8.60533 39.8966 8.488C40.014 8.36 40.1686 8.26933 40.3606 8.216C40.5526 8.152 40.7553 8.11467 40.9686 8.104C41.1926 8.08267 41.3793 8.072 41.5286 8.072ZM48.8285 9.288C48.4765 9.29867 48.1405 9.42133 47.8205 9.656C47.5112 9.88 47.2605 10.1733 47.0685 10.536V14.264C47.0685 14.4773 47.0045 14.6533 46.8765 14.792C46.7485 14.9307 46.5618 15 46.3165 15C46.0605 15 45.8632 14.9307 45.7245 14.792C45.5965 14.6533 45.5325 14.4773 45.5325 14.264V8.648C45.5325 8.424 45.5912 8.24267 45.7085 8.104C45.8258 7.96533 46.0178 7.896 46.2845 7.896C46.5938 7.896 46.7912 7.98667 46.8765 8.168C46.9725 8.34933 47.0205 8.57867 47.0205 8.856C47.1165 8.728 47.2338 8.60533 47.3725 8.488C47.5218 8.37067 47.6818 8.26933 47.8525 8.184C48.0232 8.088 48.1992 8.01867 48.3805 7.976C48.5725 7.92267 48.7592 7.896 48.9405 7.896C49.3352 7.896 49.7032 7.94933 50.0445 8.056C50.3965 8.152 50.6952 8.30667 50.9405 8.52C51.1965 8.73333 51.3938 9.00533 51.5325 9.336C51.6818 9.656 51.7565 10.04 51.7565 10.488V14.264C51.7565 14.4773 51.6872 14.6533 51.5485 14.792C51.4098 14.9307 51.2178 15 50.9725 15C50.7058 15 50.5085 14.9307 50.3805 14.792C50.2632 14.6533 50.2045 14.4773 50.2045 14.264V10.584C50.1938 10.136 50.0712 9.816 49.8365 9.624C49.6018 9.42133 49.2658 9.30933 48.8285 9.288ZM54.8528 11.048C54.4154 11.048 54.0154 10.968 53.6528 10.808C53.3008 10.648 53.0981 10.3653 53.0448 9.96C53.0341 9.82133 53.0448 9.688 53.0768 9.56C53.1194 9.42133 53.1728 9.304 53.2368 9.208C53.3114 9.10133 53.4074 9.02133 53.5247 8.968C53.6421 8.904 53.7754 8.88267 53.9248 8.904C54.0954 8.92533 54.2341 8.98933 54.3408 9.096C54.4581 9.192 54.5114 9.30933 54.5008 9.448C54.4581 9.576 54.4474 9.68267 54.4688 9.768C54.5008 9.84267 54.6074 9.88 54.7888 9.88H56.5168C56.7088 9.88 56.8581 9.928 56.9648 10.024C57.0821 10.1093 57.1408 10.2533 57.1408 10.456C57.1408 10.616 57.0874 10.7547 56.9808 10.872C56.8741 10.9893 56.7141 11.048 56.5008 11.048H54.8528ZM54.8528 14.36C54.4154 14.36 54.0154 14.28 53.6528 14.12C53.3008 13.96 53.0981 13.6773 53.0448 13.272C53.0341 13.1333 53.0448 13 53.0768 12.872C53.1194 12.7333 53.1728 12.616 53.2368 12.52C53.3114 12.4133 53.4074 12.3333 53.5247 12.28C53.6421 12.216 53.7754 12.1947 53.9248 12.216C54.0954 12.2373 54.2341 12.3013 54.3408 12.408C54.4581 12.504 54.5114 12.6213 54.5008 12.76C54.4581 12.888 54.4474 12.9947 54.4688 13.08C54.5008 13.1547 54.6074 13.192 54.7888 13.192H56.5168C56.7088 13.192 56.8581 13.24 56.9648 13.336C57.0821 13.4213 57.1408 13.5653 57.1408 13.768C57.1408 13.928 57.0874 14.0667 56.9808 14.184C56.8741 14.3013 56.7141 14.36 56.5008 14.36H54.8528ZM60.1511 13.56C60.2365 13.496 60.3431 13.4427 60.4711 13.4C60.5991 13.3467 60.7645 13.3573 60.9671 13.432C61.1805 13.5173 61.3085 13.6613 61.3511 13.864C61.4045 14.0667 61.3671 14.2747 61.2391 14.488C61.1645 14.5947 61.0685 14.6853 60.9511 14.76C60.8338 14.824 60.7165 14.8773 60.5991 14.92C60.4818 14.9627 60.3645 14.9893 60.2471 15C60.1405 15.0213 60.0605 15.032 60.0071 15.032C59.6765 15.032 59.4151 14.9787 59.2231 14.872C59.0418 14.7547 58.9031 14.5947 58.8071 14.392C58.7111 14.1893 58.6525 13.9493 58.6311 13.672C58.6098 13.3947 58.5991 13.0853 58.5991 12.744V8.648C58.5991 8.424 58.6631 8.24267 58.7911 8.104C58.9298 7.96533 59.1271 7.896 59.3831 7.896C59.6285 7.896 59.8151 7.96533 59.9431 8.104C60.0818 8.24267 60.1511 8.424 60.1511 8.648V13.56ZM67.897 8.072C68.1103 8.072 68.2917 8.13067 68.441 8.248C68.5903 8.36533 68.665 8.50933 68.665 8.68V12.2C68.665 12.6693 68.585 13.08 68.425 13.432C68.265 13.784 68.0463 14.0773 67.769 14.312C67.4917 14.536 67.1557 14.7067 66.761 14.824C66.377 14.9413 65.961 15 65.513 15C65.0757 15 64.665 14.9413 64.281 14.824C63.897 14.7067 63.561 14.536 63.273 14.312C62.985 14.0773 62.7557 13.784 62.585 13.432C62.425 13.08 62.345 12.6693 62.345 12.2V8.68C62.345 8.50933 62.4197 8.36533 62.569 8.248C62.7183 8.13067 62.8997 8.072 63.113 8.072C63.305 8.072 63.481 8.13067 63.641 8.248C63.801 8.36533 63.881 8.50933 63.881 8.68V12.2C63.881 12.5413 63.9343 12.8133 64.041 13.016C64.1583 13.2187 64.297 13.3787 64.457 13.496C64.6277 13.6027 64.8037 13.6773 64.985 13.72C65.177 13.7627 65.353 13.784 65.513 13.784C65.6623 13.784 65.833 13.7627 66.025 13.72C66.217 13.6773 66.393 13.6027 66.553 13.496C66.7237 13.3787 66.8623 13.2187 66.969 13.016C67.0863 12.8133 67.145 12.5413 67.145 12.2V8.68C67.145 8.50933 67.2143 8.36533 67.353 8.248C67.5023 8.13067 67.6837 8.072 67.897 8.072ZM67.2626 5.912V5.384C67.2626 5.224 67.332 5.09067 67.4706 4.984C67.5986 4.86667 67.764 4.808 67.9666 4.808C68.1693 4.808 68.34 4.86667 68.4786 4.984C68.6066 5.09067 68.6706 5.224 68.6706 5.384V6.616C68.66 6.776 68.6013 6.90933 68.4946 7.016C68.388 7.112 68.2386 7.16 68.0466 7.16H63.0866C62.8946 7.16 62.7453 7.10667 62.6386 7C62.532 6.88267 62.4733 6.744 62.4626 6.584C62.4626 6.43467 62.5 6.28533 62.5746 6.136C62.6493 5.98667 62.7826 5.912 62.9746 5.912H67.2626ZM73.1666 13.784C73.6466 13.784 74.02 13.6667 74.2866 13.432C74.5533 13.1867 74.6866 12.8027 74.6866 12.28V8.776C74.6866 8.56267 74.7453 8.392 74.8626 8.264C74.9906 8.136 75.1826 8.072 75.4386 8.072C75.7053 8.072 75.8973 8.136 76.0146 8.264C76.1426 8.392 76.2066 8.56267 76.2066 8.776V12.28C76.2066 13.2293 75.9346 13.9173 75.3906 14.344C74.8466 14.7707 74.1 14.9893 73.1506 15C72.788 15 72.4146 14.968 72.0306 14.904C71.6466 14.84 71.3 14.7227 70.9906 14.552C70.692 14.3813 70.4466 14.152 70.2546 13.864C70.0733 13.5653 70.004 13.1867 70.0466 12.728C70.068 12.3653 70.1693 12.0667 70.3506 11.832C70.5426 11.5973 70.7933 11.4107 71.1026 11.272C70.9213 11.24 70.7666 11.176 70.6386 11.08C70.5106 10.984 70.3986 10.872 70.3026 10.744C70.2173 10.616 70.1533 10.4827 70.1106 10.344C70.068 10.1947 70.0466 10.056 70.0466 9.928C70.0466 9.26667 70.244 8.792 70.6386 8.504C71.0333 8.216 71.5933 8.072 72.3186 8.072C72.4893 8.072 72.66 8.08267 72.8306 8.104C73.012 8.12533 73.1666 8.168 73.2946 8.232C73.4226 8.296 73.5133 8.38667 73.5666 8.504C73.6306 8.61067 73.6306 8.74933 73.5666 8.92C73.5346 9.03733 73.46 9.15467 73.3426 9.272C73.236 9.37867 73.0973 9.4 72.9266 9.336C72.8733 9.31467 72.8093 9.304 72.7346 9.304C72.6706 9.29333 72.596 9.28267 72.5106 9.272C72.2333 9.25067 72.004 9.288 71.8226 9.384C71.652 9.46933 71.5666 9.66667 71.5666 9.976C71.5666 10.1253 71.5986 10.248 71.6626 10.344C71.7373 10.44 71.828 10.5147 71.9346 10.568C72.052 10.6213 72.18 10.664 72.3186 10.696C72.4573 10.7173 72.5906 10.728 72.7186 10.728H73.1186C73.3 10.728 73.428 10.7973 73.5026 10.936C73.588 11.064 73.6306 11.2187 73.6306 11.4C73.6306 11.6133 73.5186 11.7573 73.2946 11.832C73.0813 11.896 72.8466 11.928 72.5906 11.928C72.1853 11.928 71.908 12.008 71.7586 12.168C71.62 12.328 71.5613 12.5627 71.5826 12.872C71.5933 13.064 71.6466 13.224 71.7426 13.352C71.8493 13.4693 71.9773 13.56 72.1266 13.624C72.276 13.688 72.4413 13.7307 72.6226 13.752C72.804 13.7733 72.9853 13.784 73.1666 13.784ZM83.7059 14.264C83.7059 14.4773 83.6419 14.6533 83.5139 14.792C83.3859 14.9307 83.1992 15 82.9539 15C82.7085 15 82.5165 14.92 82.3779 14.76C82.2499 14.5893 82.1859 14.3707 82.1859 14.104C81.9832 14.3813 81.7112 14.6053 81.3699 14.776C81.0285 14.936 80.7032 15.016 80.3939 15.016C79.5832 15.016 78.9219 14.7973 78.4099 14.36C77.8979 13.912 77.6419 13.2507 77.6419 12.376V8.6C77.6419 8.41867 77.7112 8.25333 77.8499 8.104C77.9885 7.95467 78.1752 7.88 78.4099 7.88C78.6339 7.88 78.8152 7.95467 78.9539 8.104C79.1032 8.25333 79.1779 8.41867 79.1779 8.6V12.376C79.1779 12.7813 79.3005 13.0853 79.5459 13.288C79.8019 13.4907 80.1325 13.592 80.5379 13.592C80.8899 13.592 81.2205 13.4747 81.5299 13.24C81.8499 13.0053 82.0579 12.7067 82.1539 12.344V8.6C82.1539 8.41867 82.2232 8.25333 82.3619 8.104C82.5112 7.95467 82.7032 7.88 82.9379 7.88C83.1619 7.88 83.3432 7.95467 83.4819 8.104C83.6312 8.25333 83.7059 8.41867 83.7059 8.6V14.264ZM87.6219 12.136C87.4085 12.136 87.2325 12.072 87.0939 11.944C86.9659 11.816 86.9019 11.6507 86.9019 11.448C86.9019 11.2347 86.9659 11.064 87.0939 10.936C87.2325 10.808 87.4085 10.744 87.6219 10.744H88.2459C88.5339 10.744 88.7632 10.8187 88.9339 10.968C89.1045 11.1173 89.2325 11.2987 89.3179 11.512C89.4139 11.7147 89.4725 11.9227 89.4939 12.136C89.5259 12.3387 89.5419 12.4987 89.5419 12.616C89.5419 14.2053 88.8752 15 87.5419 15C86.6352 15 85.9792 14.696 85.5739 14.088C85.1792 13.4693 84.9819 12.6053 84.9819 11.496C84.9819 10.376 85.2805 9.496 85.8779 8.856C86.4752 8.216 87.2912 7.896 88.3259 7.896C88.8165 7.896 89.2592 7.95467 89.6539 8.072C90.0592 8.18933 90.4005 8.37067 90.6779 8.616C90.9659 8.86133 91.1845 9.17067 91.3339 9.544C91.4939 9.91733 91.5739 10.36 91.5739 10.872V14.264C91.5739 14.4773 91.5045 14.6533 91.3659 14.792C91.2379 14.9307 91.0512 15 90.8059 15C90.5499 15 90.3525 14.9307 90.2139 14.792C90.0859 14.6533 90.0219 14.4773 90.0219 14.264V10.984C90.0219 10.4613 89.8939 10.0507 89.6379 9.752C89.3925 9.44267 88.9552 9.288 88.3259 9.288C87.7392 9.288 87.2912 9.49067 86.9819 9.896C86.6725 10.2907 86.5179 10.824 86.5179 11.496C86.5179 12.1253 86.6085 12.632 86.7899 13.016C86.9712 13.4 87.2272 13.592 87.5579 13.592C87.7499 13.592 87.8885 13.496 87.9739 13.304C88.0592 13.112 88.1019 12.9093 88.1019 12.696C88.1019 12.5467 88.0912 12.4187 88.0699 12.312C88.0485 12.1947 88.0219 12.136 87.9899 12.136H87.6219ZM91.7049 4.712C91.9502 4.712 92.1155 4.77067 92.2009 4.888C92.2862 4.99467 92.3075 5.13333 92.2649 5.304C92.1689 5.70933 92.0142 6.03467 91.8009 6.28C91.5769 6.52533 91.3315 6.712 91.0649 6.84C90.7875 6.968 90.4995 7.05333 90.2009 7.096C89.9022 7.13867 89.6142 7.15467 89.3369 7.144C89.1982 7.13333 89.0489 7.12267 88.8889 7.112C88.7182 7.10133 88.5795 7.08 88.4729 7.048C88.3235 6.99467 88.2275 6.92 88.1849 6.824C88.1422 6.71733 88.1209 6.59467 88.1209 6.456V5.928H87.9289C87.7155 5.928 87.5555 5.88533 87.4489 5.8C87.3315 5.71467 87.2729 5.56533 87.2729 5.352C87.2729 5.13867 87.3315 4.99467 87.4489 4.92C87.5662 4.83467 87.7262 4.792 87.9289 4.792H88.6969C88.9422 4.792 89.1129 4.86133 89.2089 5C89.3049 5.13867 89.3529 5.304 89.3529 5.496V6.072C89.4809 6.072 89.6195 6.06667 89.7689 6.056C89.9182 6.04533 90.0622 6.01867 90.2009 5.976C90.3395 5.92267 90.4675 5.848 90.5849 5.752C90.7022 5.656 90.8035 5.51733 90.8889 5.336C90.9742 5.16533 91.0649 5.02133 91.1609 4.904C91.2569 4.776 91.4382 4.712 91.7049 4.712ZM95.3209 8.072C96.4942 8.072 97.3475 8.38133 97.8809 9C98.4142 9.61867 98.6809 10.4667 98.6809 11.544C98.6809 12.6213 98.4142 13.4693 97.8809 14.088C97.3475 14.7067 96.4942 15.016 95.3209 15.016C95.2462 15.016 95.1555 15.0053 95.0489 14.984C94.8995 14.9733 94.6702 14.9307 94.3609 14.856C94.0622 14.7813 93.7742 14.68 93.4969 14.552C93.2302 14.4133 93.0222 14.2533 92.8729 14.072C92.7342 13.88 92.7449 13.672 92.9049 13.448C92.9582 13.3307 93.0435 13.2453 93.1609 13.192C93.2889 13.128 93.4115 13.1173 93.5289 13.16C93.6889 13.2133 93.8382 13.2773 93.9769 13.352C94.1155 13.416 94.2542 13.48 94.3929 13.544C94.5422 13.5973 94.6862 13.6453 94.8249 13.688C94.9742 13.7307 95.1395 13.752 95.3209 13.752C95.9715 13.752 96.4462 13.56 96.7449 13.176C97.0435 12.7813 97.1929 12.2373 97.1929 11.544C97.1929 10.84 97.0435 10.296 96.7449 9.912C96.4462 9.51733 95.9715 9.32 95.3209 9.32C94.9689 9.32 94.6595 9.384 94.3929 9.512C94.1262 9.64 93.8382 9.768 93.5289 9.896C93.3475 9.928 93.1875 9.88533 93.0489 9.768C92.9102 9.65067 92.8302 9.50133 92.8089 9.32C92.7662 9.10667 92.8409 8.92 93.0329 8.76C93.2355 8.6 93.4809 8.472 93.7689 8.376C94.0569 8.26933 94.3502 8.19467 94.6489 8.152C94.9475 8.09867 95.1715 8.072 95.3209 8.072ZM103.01 13.784C103.49 13.784 103.864 13.6667 104.13 13.432C104.397 13.1867 104.53 12.8027 104.53 12.28V8.776C104.53 8.56267 104.589 8.392 104.706 8.264C104.834 8.136 105.026 8.072 105.282 8.072C105.549 8.072 105.741 8.136 105.858 8.264C105.986 8.392 106.05 8.56267 106.05 8.776V12.28C106.05 13.2293 105.778 13.9173 105.234 14.344C104.69 14.7707 103.944 14.9893 102.994 15C102.632 15 102.258 14.968 101.874 14.904C101.49 14.84 101.144 14.7227 100.834 14.552C100.536 14.3813 100.29 14.152 100.098 13.864C99.917 13.5653 99.8477 13.1867 99.8904 12.728C99.9117 12.3653 100.013 12.0667 100.194 11.832C100.386 11.5973 100.637 11.4107 100.946 11.272C100.765 11.24 100.61 11.176 100.482 11.08C100.354 10.984 100.242 10.872 100.146 10.744C100.061 10.616 99.997 10.4827 99.9544 10.344C99.9117 10.1947 99.8904 10.056 99.8904 9.928C99.8904 9.26667 100.088 8.792 100.482 8.504C100.877 8.216 101.437 8.072 102.162 8.072C102.333 8.072 102.504 8.08267 102.674 8.104C102.856 8.12533 103.01 8.168 103.138 8.232C103.266 8.296 103.357 8.38667 103.41 8.504C103.474 8.61067 103.474 8.74933 103.41 8.92C103.378 9.03733 103.304 9.15467 103.186 9.272C103.08 9.37867 102.941 9.4 102.77 9.336C102.717 9.31467 102.653 9.304 102.578 9.304C102.514 9.29333 102.44 9.28267 102.354 9.272C102.077 9.25067 101.848 9.288 101.666 9.384C101.496 9.46933 101.41 9.66667 101.41 9.976C101.41 10.1253 101.442 10.248 101.506 10.344C101.581 10.44 101.672 10.5147 101.778 10.568C101.896 10.6213 102.024 10.664 102.162 10.696C102.301 10.7173 102.434 10.728 102.562 10.728H102.962C103.144 10.728 103.272 10.7973 103.346 10.936C103.432 11.064 103.474 11.2187 103.474 11.4C103.474 11.6133 103.362 11.7573 103.138 11.832C102.925 11.896 102.69 11.928 102.434 11.928C102.029 11.928 101.752 12.008 101.602 12.168C101.464 12.328 101.405 12.5627 101.426 12.872C101.437 13.064 101.49 13.224 101.586 13.352C101.693 13.4693 101.821 13.56 101.97 13.624C102.12 13.688 102.285 13.7307 102.466 13.752C102.648 13.7733 102.829 13.784 103.01 13.784ZM109.038 10.728L112.062 8.216C112.403 8.00267 112.675 7.896 112.878 7.896C113.091 7.88533 113.256 7.97067 113.374 8.152C113.63 8.54667 113.587 8.872 113.246 9.128L112.062 10.072C112.499 10.1467 112.835 10.328 113.07 10.616C113.315 10.8933 113.438 11.2933 113.438 11.816V14.2C113.438 14.7333 113.182 15 112.67 15C112.158 15 111.902 14.7333 111.902 14.2V11.768C111.902 11.48 111.816 11.272 111.646 11.144C111.475 11.0053 111.24 10.9253 110.942 10.904L109.038 12.328V14.296C109.038 14.4773 108.963 14.6427 108.814 14.792C108.675 14.9307 108.494 15 108.27 15C108.035 15 107.843 14.9307 107.694 14.792C107.555 14.6427 107.486 14.4773 107.486 14.296V8.6C107.486 8.41867 107.555 8.25333 107.694 8.104C107.843 7.95467 108.035 7.88 108.27 7.88C108.494 7.88 108.675 7.95467 108.814 8.104C108.963 8.25333 109.038 8.41867 109.038 8.6V10.728ZM120.316 7.896C120.551 7.896 120.738 7.96533 120.876 8.104C121.026 8.24267 121.1 8.408 121.1 8.6V12.392C121.1 12.8293 121.026 13.2133 120.876 13.544C120.738 13.864 120.54 14.136 120.284 14.36C120.028 14.584 119.724 14.7547 119.372 14.872C119.031 14.9787 118.663 15.032 118.268 15.032C118.108 15.032 117.938 15.0107 117.756 14.968C117.575 14.9253 117.394 14.8667 117.212 14.792C117.042 14.7067 116.882 14.6107 116.732 14.504C116.583 14.3867 116.46 14.2587 116.364 14.12C116.364 14.3867 116.295 14.6 116.156 14.76C116.028 14.92 115.852 15 115.628 15C115.383 15 115.196 14.9307 115.068 14.792C114.94 14.6533 114.876 14.4773 114.876 14.264V8.6C114.876 8.408 114.946 8.24267 115.084 8.104C115.234 7.96533 115.42 7.896 115.644 7.896C115.868 7.896 116.05 7.96533 116.188 8.104C116.338 8.24267 116.412 8.408 116.412 8.6V12.36C116.466 12.5307 116.551 12.696 116.668 12.856C116.796 13.0053 116.935 13.1387 117.084 13.256C117.244 13.3627 117.41 13.448 117.58 13.512C117.762 13.576 117.938 13.608 118.108 13.608C118.503 13.608 118.839 13.5067 119.116 13.304C119.404 13.1013 119.548 12.792 119.548 12.376V8.6C119.548 8.408 119.623 8.24267 119.772 8.104C119.922 7.96533 120.103 7.896 120.316 7.896ZM123.637 9.96C123.637 10.1627 123.562 10.3333 123.413 10.472C123.263 10.6 123.087 10.664 122.885 10.664C122.65 10.664 122.463 10.6 122.325 10.472C122.186 10.3333 122.117 10.1947 122.117 10.056C122.117 9.75733 122.191 9.47467 122.34 9.208C122.501 8.94133 122.703 8.712 122.949 8.52C123.205 8.328 123.487 8.17867 123.797 8.072C124.117 7.95467 124.442 7.896 124.773 7.896C125.69 7.896 126.351 8.152 126.757 8.664C127.173 9.16533 127.381 9.848 127.381 10.712V14.2C127.381 14.7333 127.125 15 126.613 15C126.111 15 125.861 14.7333 125.861 14.2V10.84C125.861 10.5093 125.829 10.2427 125.765 10.04C125.701 9.83733 125.615 9.68267 125.509 9.576C125.413 9.45867 125.295 9.384 125.157 9.352C125.029 9.30933 124.901 9.288 124.773 9.288C124.57 9.288 124.394 9.32 124.245 9.384C124.106 9.43733 123.989 9.50133 123.893 9.576C123.807 9.65067 123.743 9.72533 123.701 9.8C123.658 9.87467 123.637 9.928 123.637 9.96ZM131.995 13.784C132.475 13.784 132.848 13.6667 133.115 13.432C133.381 13.1867 133.515 12.8027 133.515 12.28V8.776C133.515 8.56267 133.573 8.392 133.691 8.264C133.819 8.136 134.011 8.072 134.267 8.072C134.533 8.072 134.725 8.136 134.843 8.264C134.971 8.392 135.035 8.56267 135.035 8.776V12.28C135.035 13.2293 134.763 13.9173 134.219 14.344C133.675 14.7707 132.928 14.9893 131.979 15C131.616 15 131.243 14.968 130.859 14.904C130.475 14.84 130.128 14.7227 129.819 14.552C129.52 14.3813 129.275 14.152 129.083 13.864C128.901 13.5653 128.832 13.1867 128.875 12.728C128.896 12.3653 128.997 12.0667 129.179 11.832C129.371 11.5973 129.621 11.4107 129.931 11.272C129.749 11.24 129.595 11.176 129.467 11.08C129.339 10.984 129.227 10.872 129.131 10.744C129.045 10.616 128.981 10.4827 128.939 10.344C128.896 10.1947 128.875 10.056 128.875 9.928C128.875 9.26667 129.072 8.792 129.467 8.504C129.861 8.216 130.421 8.072 131.147 8.072C131.317 8.072 131.488 8.08267 131.659 8.104C131.84 8.12533 131.995 8.168 132.123 8.232C132.251 8.296 132.341 8.38667 132.395 8.504C132.459 8.61067 132.459 8.74933 132.395 8.92C132.363 9.03733 132.288 9.15467 132.171 9.272C132.064 9.37867 131.925 9.4 131.755 9.336C131.701 9.31467 131.637 9.304 131.563 9.304C131.499 9.29333 131.424 9.28267 131.339 9.272C131.061 9.25067 130.832 9.288 130.651 9.384C130.48 9.46933 130.395 9.66667 130.395 9.976C130.395 10.1253 130.427 10.248 130.491 10.344C130.565 10.44 130.656 10.5147 130.763 10.568C130.88 10.6213 131.008 10.664 131.147 10.696C131.285 10.7173 131.419 10.728 131.547 10.728H131.947C132.128 10.728 132.256 10.7973 132.331 10.936C132.416 11.064 132.459 11.2187 132.459 11.4C132.459 11.6133 132.347 11.7573 132.123 11.832C131.909 11.896 131.675 11.928 131.419 11.928C131.013 11.928 130.736 12.008 130.587 12.168C130.448 12.328 130.389 12.5627 130.411 12.872C130.421 13.064 130.475 13.224 130.571 13.352C130.677 13.4693 130.805 13.56 130.955 13.624C131.104 13.688 131.269 13.7307 131.451 13.752C131.632 13.7733 131.813 13.784 131.995 13.784ZM138.198 13.56C138.283 13.496 138.39 13.4427 138.518 13.4C138.646 13.3467 138.811 13.3573 139.014 13.432C139.227 13.5173 139.355 13.6613 139.398 13.864C139.451 14.0667 139.414 14.2747 139.286 14.488C139.211 14.5947 139.115 14.6853 138.998 14.76C138.881 14.824 138.763 14.8773 138.646 14.92C138.529 14.9627 138.411 14.9893 138.294 15C138.187 15.0213 138.107 15.032 138.054 15.032C137.723 15.032 137.462 14.9787 137.27 14.872C137.089 14.7547 136.95 14.5947 136.854 14.392C136.758 14.1893 136.699 13.9493 136.678 13.672C136.657 13.3947 136.646 13.0853 136.646 12.744V8.648C136.646 8.424 136.71 8.24267 136.838 8.104C136.977 7.96533 137.174 7.896 137.43 7.896C137.675 7.896 137.862 7.96533 137.99 8.104C138.129 8.24267 138.198 8.424 138.198 8.648V13.56ZM145.096 11.24C145.096 10.9733 145.069 10.728 145.016 10.504C144.973 10.28 144.893 10.088 144.776 9.928C144.659 9.768 144.493 9.64533 144.28 9.56C144.067 9.464 143.8 9.416 143.48 9.416C143.085 9.416 142.717 9.464 142.376 9.56C142.035 9.656 141.725 9.77867 141.448 9.928C141.309 9.992 141.149 9.99733 140.968 9.944C140.787 9.89067 140.664 9.784 140.6 9.624C140.504 9.44267 140.488 9.26667 140.552 9.096C140.627 8.91467 140.744 8.78667 140.904 8.712C141.352 8.47733 141.773 8.312 142.168 8.216C142.563 8.12 143 8.072 143.48 8.072C144.621 8.072 145.427 8.36 145.896 8.936C146.365 9.512 146.6 10.3333 146.6 11.4V14.296C146.6 14.5093 146.536 14.68 146.408 14.808C146.291 14.936 146.104 15 145.848 15C145.581 15 145.384 14.936 145.256 14.808C145.139 14.68 145.08 14.5093 145.08 14.296V12.712C144.984 12.6053 144.851 12.5093 144.68 12.424C144.52 12.3387 144.344 12.264 144.152 12.2C143.96 12.136 143.768 12.088 143.576 12.056C143.384 12.024 143.219 12.008 143.08 12.008C142.931 12.008 142.776 12.024 142.616 12.056C142.467 12.0773 142.328 12.1253 142.2 12.2C142.083 12.264 141.987 12.3653 141.912 12.504C141.837 12.6427 141.811 12.824 141.832 13.048C141.853 13.2613 141.933 13.432 142.072 13.56C142.211 13.6773 142.376 13.7467 142.568 13.768C142.685 13.7893 142.808 13.7893 142.936 13.768C143.064 13.7467 143.181 13.7413 143.288 13.752C143.405 13.752 143.507 13.784 143.592 13.848C143.688 13.9013 143.752 14.0133 143.784 14.184C143.848 14.472 143.779 14.68 143.576 14.808C143.384 14.936 143.117 15 142.776 15C142.435 15 142.109 14.9627 141.8 14.888C141.501 14.8027 141.24 14.6747 141.016 14.504C140.792 14.3333 140.616 14.1093 140.488 13.832C140.36 13.5547 140.307 13.2187 140.328 12.824C140.349 12.0987 140.584 11.576 141.032 11.256C141.491 10.9253 142.12 10.76 142.92 10.76C143.389 10.76 143.784 10.8027 144.104 10.888C144.435 10.9733 144.765 11.0907 145.096 11.24ZM150.913 15C150.006 15 149.286 14.7493 148.753 14.248C148.219 13.7467 147.953 13.0267 147.953 12.088V11.864C147.953 11.3307 148.075 10.8507 148.321 10.424C148.566 9.98667 148.918 9.61867 149.377 9.32H148.721C148.507 9.32 148.337 9.26133 148.209 9.144C148.091 9.016 148.033 8.85067 148.033 8.648C148.033 8.43467 148.091 8.26933 148.209 8.152C148.326 8.024 148.497 7.96 148.721 7.96H149.361C149.446 7.96 149.569 7.976 149.729 8.008C149.889 8.02933 150.049 8.08267 150.209 8.168C150.369 8.25333 150.507 8.376 150.625 8.536C150.742 8.696 150.801 8.91467 150.801 9.192C150.801 9.544 150.721 9.82667 150.561 10.04C150.411 10.2427 150.257 10.4187 150.097 10.568C149.947 10.7067 149.803 10.8667 149.664 11.048C149.537 11.2293 149.473 11.512 149.473 11.896C149.473 12.44 149.585 12.856 149.809 13.144C150.043 13.432 150.411 13.5867 150.913 13.608C151.051 13.608 151.201 13.592 151.361 13.56C151.521 13.5173 151.67 13.4427 151.809 13.336C151.958 13.2187 152.081 13.064 152.177 12.872C152.273 12.6693 152.321 12.3973 152.321 12.056V8.696C152.321 8.16267 152.571 7.896 153.073 7.896C153.585 7.896 153.841 8.16267 153.841 8.696V12.184C153.841 13.048 153.585 13.736 153.073 14.248C152.561 14.7493 151.841 15 150.913 15ZM160.835 8.072C161.048 8.072 161.229 8.13067 161.379 8.248C161.528 8.36533 161.603 8.50933 161.603 8.68V12.2C161.603 12.6693 161.523 13.08 161.363 13.432C161.203 13.784 160.984 14.0773 160.707 14.312C160.429 14.536 160.093 14.7067 159.699 14.824C159.315 14.9413 158.899 15 158.451 15C158.013 15 157.603 14.9413 157.219 14.824C156.835 14.7067 156.499 14.536 156.211 14.312C155.923 14.0773 155.693 13.784 155.523 13.432C155.363 13.08 155.283 12.6693 155.283 12.2V8.68C155.283 8.50933 155.357 8.36533 155.507 8.248C155.656 8.13067 155.837 8.072 156.051 8.072C156.243 8.072 156.419 8.13067 156.579 8.248C156.739 8.36533 156.819 8.50933 156.819 8.68V12.2C156.819 12.5413 156.872 12.8133 156.979 13.016C157.096 13.2187 157.235 13.3787 157.395 13.496C157.565 13.6027 157.741 13.6773 157.923 13.72C158.115 13.7627 158.291 13.784 158.451 13.784C158.6 13.784 158.771 13.7627 158.963 13.72C159.155 13.6773 159.331 13.6027 159.491 13.496C159.661 13.3787 159.8 13.2187 159.907 13.016C160.024 12.8133 160.083 12.5413 160.083 12.2V8.68C160.083 8.50933 160.152 8.36533 160.291 8.248C160.44 8.13067 160.621 8.072 160.835 8.072ZM158.968 7.16C158.744 7.16 158.536 7.128 158.344 7.064C158.141 6.98933 157.971 6.888 157.832 6.76C157.683 6.62133 157.571 6.456 157.496 6.264C157.421 6.072 157.395 5.85333 157.416 5.608C157.469 5.10667 157.741 4.872 158.232 4.904C158.392 4.91467 158.531 4.97333 158.648 5.08C158.765 5.18667 158.819 5.30933 158.808 5.448C158.755 5.58667 158.776 5.70933 158.872 5.816C158.957 5.92267 159.08 5.976 159.24 5.976H161.896C162.109 5.976 162.259 6.03467 162.344 6.152C162.44 6.26933 162.488 6.408 162.488 6.568C162.488 6.728 162.44 6.86667 162.344 6.984C162.259 7.10133 162.109 7.16 161.896 7.16H158.968ZM165.528 12.136C165.315 12.136 165.144 12.072 165.016 11.944C164.888 11.816 164.824 11.6507 164.824 11.448C164.824 11.2347 164.888 11.064 165.016 10.936C165.144 10.808 165.315 10.744 165.528 10.744H166.152C166.44 10.744 166.669 10.8187 166.84 10.968C167.011 11.1173 167.139 11.2987 167.224 11.512C167.32 11.7147 167.379 11.9227 167.4 12.136C167.432 12.3387 167.448 12.4987 167.448 12.616C167.448 14.2053 166.781 15 165.448 15C164.541 15 163.885 14.696 163.48 14.088C163.085 13.4693 162.888 12.6053 162.888 11.496C162.888 11.2187 162.904 10.92 162.936 10.6C162.979 10.2693 163.048 9.95467 163.144 9.656C163.24 9.34667 163.379 9.05867 163.56 8.792C163.741 8.52533 163.976 8.30667 164.264 8.136C164.595 7.96533 164.931 7.88533 165.272 7.896C165.475 7.90667 165.683 7.976 165.896 8.104H165.88L166.456 8.392L167 8.104C167.224 8.008 167.448 7.94933 167.672 7.928C168.248 7.88533 168.701 8.056 169.032 8.44C169.363 8.824 169.528 9.41067 169.528 10.2V14.264C169.528 14.4773 169.459 14.6533 169.32 14.792C169.192 14.9307 169 15 168.744 15C168.499 15 168.307 14.9307 168.168 14.792C168.04 14.6533 167.976 14.4773 167.976 14.264V10.008C167.976 9.79467 167.933 9.61867 167.848 9.48C167.773 9.34133 167.64 9.31467 167.448 9.4L167.176 9.544H167.192C167.075 9.608 166.952 9.672 166.824 9.736C166.696 9.8 166.573 9.832 166.456 9.832C166.349 9.832 166.232 9.80533 166.104 9.752C165.987 9.69867 165.869 9.62933 165.752 9.544L165.768 9.56L165.384 9.368C165.245 9.31467 165.117 9.336 165 9.432C164.883 9.51733 164.781 9.66133 164.696 9.864C164.611 10.056 164.541 10.296 164.488 10.584C164.445 10.8613 164.424 11.1653 164.424 11.496C164.424 12.1253 164.515 12.632 164.696 13.016C164.888 13.4 165.144 13.592 165.464 13.592C165.656 13.592 165.795 13.496 165.88 13.304C165.965 13.112 166.008 12.9093 166.008 12.696C166.008 12.5467 165.997 12.4187 165.976 12.312C165.955 12.1947 165.928 12.136 165.896 12.136H165.528ZM173.85 10.856C174.159 10.8987 174.479 10.952 174.81 11.016C175.141 11.0693 175.439 11.1653 175.706 11.304C175.983 11.432 176.213 11.6133 176.394 11.848C176.575 12.072 176.677 12.3707 176.698 12.744C176.709 13.2027 176.629 13.5813 176.458 13.88C176.287 14.168 176.058 14.3973 175.77 14.568C175.482 14.728 175.146 14.84 174.762 14.904C174.389 14.968 174.005 15 173.61 15C173.162 15 172.773 14.9573 172.442 14.872C172.111 14.7867 171.765 14.664 171.402 14.504C171.306 14.4613 171.215 14.4027 171.13 14.328C171.055 14.2427 170.991 14.152 170.938 14.056C170.895 13.96 170.879 13.8587 170.89 13.752C170.911 13.6347 170.97 13.528 171.066 13.432C171.183 13.3147 171.327 13.24 171.498 13.208C171.669 13.176 171.834 13.2027 171.994 13.288C172.101 13.352 172.229 13.416 172.378 13.48C172.538 13.5333 172.693 13.5867 172.842 13.64C173.002 13.6827 173.157 13.72 173.306 13.752C173.455 13.7733 173.583 13.784 173.69 13.784C173.861 13.784 174.037 13.7733 174.218 13.752C174.399 13.7307 174.559 13.688 174.698 13.624C174.847 13.5493 174.965 13.4533 175.05 13.336C175.135 13.208 175.173 13.048 175.162 12.856C175.141 12.6107 175.023 12.4507 174.81 12.376C174.597 12.2907 174.266 12.2107 173.818 12.136C173.541 12.104 173.242 12.0507 172.922 11.976C172.602 11.9013 172.298 11.7947 172.01 11.656C171.733 11.5173 171.498 11.336 171.306 11.112C171.114 10.888 171.007 10.6053 170.986 10.264C170.954 9.83733 171.018 9.48533 171.178 9.208C171.338 8.92 171.562 8.696 171.85 8.536C172.138 8.36533 172.469 8.248 172.842 8.184C173.215 8.10933 173.605 8.072 174.01 8.072C174.405 8.072 174.783 8.12 175.146 8.216C175.509 8.30133 175.861 8.45067 176.202 8.664C176.362 8.77067 176.447 8.90933 176.458 9.08C176.469 9.25067 176.431 9.41067 176.346 9.56C176.282 9.66667 176.17 9.752 176.01 9.816C175.861 9.88 175.717 9.86933 175.578 9.784C175.354 9.63467 175.087 9.50667 174.778 9.4C174.469 9.29333 174.186 9.24 173.93 9.24C173.781 9.24 173.621 9.24533 173.45 9.256C173.279 9.26667 173.119 9.304 172.97 9.368C172.831 9.42133 172.714 9.50667 172.618 9.624C172.522 9.74133 172.474 9.90667 172.474 10.12C172.474 10.2587 172.517 10.3707 172.602 10.456C172.698 10.5413 172.815 10.6107 172.954 10.664C173.093 10.7173 173.242 10.76 173.402 10.792C173.562 10.8133 173.711 10.8347 173.85 10.856ZM183.631 6.04C183.845 6.04 184.026 6.09867 184.175 6.216C184.325 6.33333 184.399 6.47733 184.399 6.648V12.2C184.399 12.6693 184.319 13.08 184.159 13.432C183.999 13.784 183.781 14.0773 183.503 14.312C183.226 14.536 182.89 14.7067 182.495 14.824C182.111 14.9413 181.695 15 181.247 15C180.81 15 180.399 14.9413 180.015 14.824C179.631 14.7067 179.295 14.536 179.007 14.312C178.719 14.0773 178.49 13.784 178.319 13.432C178.159 13.08 178.079 12.6693 178.079 12.2V8.68C178.079 8.50933 178.154 8.36533 178.303 8.248C178.453 8.13067 178.634 8.072 178.847 8.072C179.039 8.072 179.215 8.13067 179.375 8.248C179.535 8.36533 179.615 8.50933 179.615 8.68V12.2C179.615 12.5413 179.669 12.8133 179.775 13.016C179.893 13.2187 180.031 13.3787 180.191 13.496C180.362 13.6027 180.538 13.6773 180.719 13.72C180.911 13.7627 181.087 13.784 181.247 13.784C181.397 13.784 181.567 13.7627 181.759 13.72C181.951 13.6773 182.127 13.6027 182.287 13.496C182.458 13.3787 182.597 13.2187 182.703 13.016C182.821 12.8133 182.879 12.5413 182.879 12.2V6.648C182.879 6.47733 182.949 6.33333 183.087 6.216C183.237 6.09867 183.418 6.04 183.631 6.04ZM188.725 10.856C189.034 10.8987 189.354 10.952 189.685 11.016C190.016 11.0693 190.314 11.1653 190.581 11.304C190.858 11.432 191.088 11.6133 191.269 11.848C191.45 12.072 191.552 12.3707 191.573 12.744C191.584 13.2027 191.504 13.5813 191.333 13.88C191.162 14.168 190.933 14.3973 190.645 14.568C190.357 14.728 190.021 14.84 189.637 14.904C189.264 14.968 188.88 15 188.485 15C188.037 15 187.648 14.9573 187.317 14.872C186.986 14.7867 186.64 14.664 186.277 14.504C186.181 14.4613 186.09 14.4027 186.005 14.328C185.93 14.2427 185.866 14.152 185.813 14.056C185.77 13.96 185.754 13.8587 185.765 13.752C185.786 13.6347 185.845 13.528 185.941 13.432C186.058 13.3147 186.202 13.24 186.373 13.208C186.544 13.176 186.709 13.2027 186.869 13.288C186.976 13.352 187.104 13.416 187.253 13.48C187.413 13.5333 187.568 13.5867 187.717 13.64C187.877 13.6827 188.032 13.72 188.181 13.752C188.33 13.7733 188.458 13.784 188.565 13.784C188.736 13.784 188.912 13.7733 189.093 13.752C189.274 13.7307 189.434 13.688 189.573 13.624C189.722 13.5493 189.84 13.4533 189.925 13.336C190.01 13.208 190.048 13.048 190.037 12.856C190.016 12.6107 189.898 12.4507 189.685 12.376C189.472 12.2907 189.141 12.2107 188.693 12.136C188.416 12.104 188.117 12.0507 187.797 11.976C187.477 11.9013 187.173 11.7947 186.885 11.656C186.608 11.5173 186.373 11.336 186.181 11.112C185.989 10.888 185.882 10.6053 185.861 10.264C185.829 9.83733 185.893 9.48533 186.053 9.208C186.213 8.92 186.437 8.696 186.725 8.536C187.013 8.36533 187.344 8.248 187.717 8.184C188.09 8.10933 188.48 8.072 188.885 8.072C189.28 8.072 189.658 8.12 190.021 8.216C190.384 8.30133 190.736 8.45067 191.077 8.664C191.237 8.77067 191.322 8.90933 191.333 9.08C191.344 9.25067 191.306 9.41067 191.221 9.56C191.157 9.66667 191.045 9.752 190.885 9.816C190.736 9.88 190.592 9.86933 190.453 9.784C190.229 9.63467 189.962 9.50667 189.653 9.4C189.344 9.29333 189.061 9.24 188.805 9.24C188.656 9.24 188.496 9.24533 188.325 9.256C188.154 9.26667 187.994 9.304 187.845 9.368C187.706 9.42133 187.589 9.50667 187.493 9.624C187.397 9.74133 187.349 9.90667 187.349 10.12C187.349 10.2587 187.392 10.3707 187.477 10.456C187.573 10.5413 187.69 10.6107 187.829 10.664C187.968 10.7173 188.117 10.76 188.277 10.792C188.437 10.8133 188.586 10.8347 188.725 10.856ZM194.618 11.048C194.181 11.048 193.781 10.968 193.418 10.808C193.066 10.648 192.864 10.3653 192.81 9.96C192.8 9.82133 192.81 9.688 192.842 9.56C192.885 9.42133 192.938 9.304 193.002 9.208C193.077 9.10133 193.173 9.02133 193.29 8.968C193.408 8.904 193.541 8.88267 193.69 8.904C193.861 8.92533 194 8.98933 194.106 9.096C194.224 9.192 194.277 9.30933 194.266 9.448C194.224 9.576 194.213 9.68267 194.234 9.768C194.266 9.84267 194.373 9.88 194.554 9.88H196.282C196.474 9.88 196.624 9.928 196.73 10.024C196.848 10.1093 196.906 10.2533 196.906 10.456C196.906 10.616 196.853 10.7547 196.746 10.872C196.64 10.9893 196.48 11.048 196.266 11.048H194.618ZM194.618 14.36C194.181 14.36 193.781 14.28 193.418 14.12C193.066 13.96 192.864 13.6773 192.81 13.272C192.8 13.1333 192.81 13 192.842 12.872C192.885 12.7333 192.938 12.616 193.002 12.52C193.077 12.4133 193.173 12.3333 193.29 12.28C193.408 12.216 193.541 12.1947 193.69 12.216C193.861 12.2373 194 12.3013 194.106 12.408C194.224 12.504 194.277 12.6213 194.266 12.76C194.224 12.888 194.213 12.9947 194.234 13.08C194.266 13.1547 194.373 13.192 194.554 13.192H196.282C196.474 13.192 196.624 13.24 196.73 13.336C196.848 13.4213 196.906 13.5653 196.906 13.768C196.906 13.928 196.853 14.0667 196.746 14.184C196.64 14.3013 196.48 14.36 196.266 14.36H194.618ZM199.629 12.12C199.629 12.6 199.751 12.9627 199.997 13.208C200.242 13.4533 200.599 13.5867 201.069 13.608C201.239 13.608 201.41 13.5813 201.581 13.528C201.751 13.4747 201.901 13.3893 202.029 13.272C202.157 13.144 202.258 12.984 202.333 12.792C202.418 12.5893 202.461 12.344 202.461 12.056V11.496C202.461 11.1227 202.365 10.8453 202.173 10.664C201.991 10.4827 201.794 10.3333 201.581 10.216C201.517 10.1733 201.437 10.0987 201.341 9.992C201.255 9.88533 201.213 9.768 201.213 9.64C201.213 9.53333 201.245 9.42133 201.309 9.304C201.373 9.18667 201.458 9.10133 201.565 9.048H201.549C201.73 8.96267 201.922 8.84 202.125 8.68C202.338 8.50933 202.535 8.312 202.717 8.088V8.104C202.759 8.04 202.818 7.992 202.893 7.96C202.978 7.928 203.069 7.912 203.165 7.912C203.261 7.90133 203.351 7.912 203.437 7.944C203.533 7.96533 203.618 8.00267 203.693 8.056C203.842 8.17333 203.927 8.32267 203.949 8.504C203.981 8.67467 203.949 8.824 203.853 8.952C203.746 9.08 203.629 9.208 203.501 9.336C203.373 9.464 203.234 9.576 203.085 9.672C203.394 9.91733 203.618 10.2107 203.757 10.552C203.906 10.8933 203.981 11.2187 203.981 11.528V12.168C203.981 13.0747 203.719 13.7733 203.197 14.264C202.674 14.744 201.959 14.9893 201.053 15C200.146 15 199.426 14.7493 198.893 14.248C198.37 13.736 198.109 13.0107 198.109 12.072V11.864C198.109 11.3307 198.231 10.856 198.477 10.44C198.733 10.0133 199.085 9.65067 199.533 9.352C199.511 9.33067 199.495 9.32 199.485 9.32H198.893C198.679 9.32 198.509 9.26133 198.381 9.144C198.253 9.016 198.189 8.85067 198.189 8.648C198.189 8.43467 198.247 8.26933 198.365 8.152C198.482 8.024 198.658 7.96 198.893 7.96H199.517C199.602 7.96 199.725 7.976 199.885 8.008C200.045 8.02933 200.205 8.08267 200.365 8.168C200.525 8.25333 200.663 8.376 200.781 8.536C200.898 8.696 200.957 8.91467 200.957 9.192C200.957 9.544 200.882 9.82667 200.733 10.04C200.583 10.2427 200.423 10.4187 200.253 10.568C200.103 10.7067 199.959 10.8667 199.821 11.048C199.693 11.2293 199.629 11.512 199.629 11.896V12.12ZM206.527 9.96C206.527 10.1627 206.452 10.3333 206.303 10.472C206.154 10.6 205.978 10.664 205.775 10.664C205.54 10.664 205.354 10.6 205.215 10.472C205.076 10.3333 205.007 10.1947 205.007 10.056C205.007 9.75733 205.082 9.47467 205.231 9.208C205.391 8.94133 205.594 8.712 205.839 8.52C206.095 8.328 206.378 8.17867 206.687 8.072C207.007 7.95467 207.332 7.896 207.663 7.896C208.58 7.896 209.242 8.152 209.647 8.664C210.063 9.16533 210.271 9.848 210.271 10.712V14.2C210.271 14.7333 210.015 15 209.503 15C209.002 15 208.751 14.7333 208.751 14.2V10.84C208.751 10.5093 208.719 10.2427 208.655 10.04C208.591 9.83733 208.506 9.68267 208.399 9.576C208.303 9.45867 208.186 9.384 208.047 9.352C207.919 9.30933 207.791 9.288 207.663 9.288C207.46 9.288 207.284 9.32 207.135 9.384C206.996 9.43733 206.879 9.50133 206.783 9.576C206.698 9.65067 206.634 9.72533 206.591 9.8C206.548 9.87467 206.527 9.928 206.527 9.96ZM213.269 12.12C213.269 12.6 213.392 12.9627 213.637 13.208C213.883 13.4533 214.24 13.5867 214.709 13.608C214.88 13.608 215.051 13.5813 215.221 13.528C215.392 13.4747 215.541 13.3893 215.669 13.272C215.797 13.144 215.899 12.984 215.973 12.792C216.059 12.5893 216.101 12.344 216.101 12.056V11.496C216.101 11.1227 216.005 10.8453 215.813 10.664C215.632 10.4827 215.435 10.3333 215.221 10.216C215.157 10.1733 215.077 10.0987 214.981 9.992C214.896 9.88533 214.853 9.768 214.853 9.64C214.853 9.53333 214.885 9.42133 214.949 9.304C215.013 9.18667 215.099 9.10133 215.205 9.048H215.189C215.371 8.96267 215.563 8.84 215.765 8.68C215.979 8.50933 216.176 8.312 216.357 8.088V8.104C216.4 8.04 216.459 7.992 216.533 7.96C216.619 7.928 216.709 7.912 216.805 7.912C216.901 7.90133 216.992 7.912 217.077 7.944C217.173 7.96533 217.259 8.00267 217.333 8.056C217.483 8.17333 217.568 8.32267 217.589 8.504C217.621 8.67467 217.589 8.824 217.493 8.952C217.387 9.08 217.269 9.208 217.141 9.336C217.013 9.464 216.875 9.576 216.725 9.672C217.035 9.91733 217.259 10.2107 217.397 10.552C217.547 10.8933 217.621 11.2187 217.621 11.528V12.168C217.621 13.0747 217.36 13.7733 216.837 14.264C216.315 14.744 215.6 14.9893 214.693 15C213.787 15 213.067 14.7493 212.533 14.248C212.011 13.736 211.749 13.0107 211.749 12.072V11.864C211.749 11.3307 211.872 10.856 212.117 10.44C212.373 10.0133 212.725 9.65067 213.173 9.352C213.152 9.33067 213.136 9.32 213.125 9.32H212.533C212.32 9.32 212.149 9.26133 212.021 9.144C211.893 9.016 211.829 8.85067 211.829 8.648C211.829 8.43467 211.888 8.26933 212.005 8.152C212.123 8.024 212.299 7.96 212.533 7.96H213.157C213.243 7.96 213.365 7.976 213.525 8.008C213.685 8.02933 213.845 8.08267 214.005 8.168C214.165 8.25333 214.304 8.376 214.421 8.536C214.539 8.696 214.597 8.91467 214.597 9.192C214.597 9.544 214.523 9.82667 214.373 10.04C214.224 10.2427 214.064 10.4187 213.893 10.568C213.744 10.7067 213.6 10.8667 213.461 11.048C213.333 11.2293 213.269 11.512 213.269 11.896V12.12ZM225.128 14.264C225.128 14.4773 225.064 14.6533 224.936 14.792C224.808 14.9307 224.621 15 224.376 15C224.13 15 223.938 14.92 223.8 14.76C223.672 14.5893 223.608 14.3707 223.608 14.104C223.405 14.3813 223.133 14.6053 222.792 14.776C222.45 14.936 222.125 15.016 221.816 15.016C221.005 15.016 220.344 14.7973 219.832 14.36C219.32 13.912 219.064 13.2507 219.064 12.376V8.6C219.064 8.41867 219.133 8.25333 219.272 8.104C219.41 7.95467 219.597 7.88 219.832 7.88C220.056 7.88 220.237 7.95467 220.376 8.104C220.525 8.25333 220.6 8.41867 220.6 8.6V12.376C220.6 12.7813 220.722 13.0853 220.968 13.288C221.224 13.4907 221.554 13.592 221.96 13.592C222.312 13.592 222.642 13.4747 222.952 13.24C223.272 13.0053 223.48 12.7067 223.576 12.344V8.6C223.576 8.41867 223.645 8.25333 223.784 8.104C223.933 7.95467 224.125 7.88 224.36 7.88C224.584 7.88 224.765 7.95467 224.904 8.104C225.053 8.25333 225.128 8.41867 225.128 8.6V14.264ZM231.167 13.56C231.252 13.496 231.359 13.4427 231.487 13.4C231.615 13.3467 231.78 13.3573 231.983 13.432C232.196 13.5173 232.324 13.6613 232.367 13.864C232.42 14.0667 232.383 14.2747 232.255 14.488C232.18 14.5947 232.084 14.6853 231.967 14.76C231.849 14.824 231.732 14.8773 231.615 14.92C231.497 14.9627 231.38 14.9893 231.263 15C231.156 15.0213 231.076 15.032 231.023 15.032C230.692 15.032 230.431 14.9787 230.239 14.872C230.057 14.7547 229.919 14.5947 229.823 14.392C229.727 14.1893 229.668 13.9493 229.647 13.672C229.625 13.3947 229.615 13.0853 229.615 12.744V8.648C229.615 8.424 229.679 8.24267 229.807 8.104C229.945 7.96533 230.143 7.896 230.399 7.896C230.644 7.896 230.831 7.96533 230.959 8.104C231.097 8.24267 231.167 8.424 231.167 8.648V13.56ZM235.103 13.56C235.188 13.496 235.295 13.4427 235.423 13.4C235.551 13.3467 235.716 13.3573 235.919 13.432C236.132 13.5173 236.26 13.6613 236.303 13.864C236.356 14.0667 236.319 14.2747 236.191 14.488C236.116 14.5947 236.02 14.6853 235.903 14.76C235.785 14.824 235.668 14.8773 235.551 14.92C235.433 14.9627 235.316 14.9893 235.199 15C235.092 15.0213 235.012 15.032 234.959 15.032C234.628 15.032 234.367 14.9787 234.175 14.872C233.993 14.7547 233.855 14.5947 233.759 14.392C233.663 14.1893 233.604 13.9493 233.583 13.672C233.561 13.3947 233.551 13.0853 233.551 12.744V8.648C233.551 8.424 233.615 8.24267 233.743 8.104C233.881 7.96533 234.079 7.896 234.335 7.896C234.58 7.896 234.767 7.96533 234.895 8.104C235.033 8.24267 235.103 8.424 235.103 8.648V13.56ZM242.002 11.24C242.002 10.9733 241.975 10.728 241.922 10.504C241.879 10.28 241.799 10.088 241.682 9.928C241.565 9.768 241.399 9.64533 241.186 9.56C240.973 9.464 240.706 9.416 240.386 9.416C239.991 9.416 239.623 9.464 239.282 9.56C238.941 9.656 238.631 9.77867 238.354 9.928C238.215 9.992 238.055 9.99733 237.874 9.944C237.693 9.89067 237.57 9.784 237.506 9.624C237.41 9.44267 237.394 9.26667 237.458 9.096C237.533 8.91467 237.65 8.78667 237.81 8.712C238.258 8.47733 238.679 8.312 239.074 8.216C239.469 8.12 239.906 8.072 240.386 8.072C241.527 8.072 242.333 8.36 242.802 8.936C243.271 9.512 243.506 10.3333 243.506 11.4V14.296C243.506 14.5093 243.442 14.68 243.314 14.808C243.197 14.936 243.01 15 242.754 15C242.487 15 242.29 14.936 242.162 14.808C242.045 14.68 241.986 14.5093 241.986 14.296V12.712C241.89 12.6053 241.757 12.5093 241.586 12.424C241.426 12.3387 241.25 12.264 241.058 12.2C240.866 12.136 240.674 12.088 240.482 12.056C240.29 12.024 240.125 12.008 239.986 12.008C239.837 12.008 239.682 12.024 239.522 12.056C239.373 12.0773 239.234 12.1253 239.106 12.2C238.989 12.264 238.893 12.3653 238.818 12.504C238.743 12.6427 238.717 12.824 238.738 13.048C238.759 13.2613 238.839 13.432 238.978 13.56C239.117 13.6773 239.282 13.7467 239.474 13.768C239.591 13.7893 239.714 13.7893 239.842 13.768C239.97 13.7467 240.087 13.7413 240.194 13.752C240.311 13.752 240.413 13.784 240.498 13.848C240.594 13.9013 240.658 14.0133 240.69 14.184C240.754 14.472 240.685 14.68 240.482 14.808C240.29 14.936 240.023 15 239.682 15C239.341 15 239.015 14.9627 238.706 14.888C238.407 14.8027 238.146 14.6747 237.922 14.504C237.698 14.3333 237.522 14.1093 237.394 13.832C237.266 13.5547 237.213 13.2187 237.234 12.824C237.255 12.0987 237.49 11.576 237.938 11.256C238.397 10.9253 239.026 10.76 239.826 10.76C240.295 10.76 240.69 10.8027 241.01 10.888C241.341 10.9733 241.671 11.0907 242.002 11.24ZM246.603 11.048C246.165 11.048 245.765 10.968 245.403 10.808C245.051 10.648 244.848 10.3653 244.795 9.96C244.784 9.82133 244.795 9.688 244.827 9.56C244.869 9.42133 244.923 9.304 244.987 9.208C245.061 9.10133 245.157 9.02133 245.275 8.968C245.392 8.904 245.525 8.88267 245.675 8.904C245.845 8.92533 245.984 8.98933 246.091 9.096C246.208 9.192 246.261 9.30933 246.251 9.448C246.208 9.576 246.197 9.68267 246.219 9.768C246.251 9.84267 246.357 9.88 246.539 9.88H248.267C248.459 9.88 248.608 9.928 248.715 10.024C248.832 10.1093 248.891 10.2533 248.891 10.456C248.891 10.616 248.837 10.7547 248.731 10.872C248.624 10.9893 248.464 11.048 248.251 11.048H246.603ZM246.603 14.36C246.165 14.36 245.765 14.28 245.403 14.12C245.051 13.96 244.848 13.6773 244.795 13.272C244.784 13.1333 244.795 13 244.827 12.872C244.869 12.7333 244.923 12.616 244.987 12.52C245.061 12.4133 245.157 12.3333 245.275 12.28C245.392 12.216 245.525 12.1947 245.675 12.216C245.845 12.2373 245.984 12.3013 246.091 12.408C246.208 12.504 246.261 12.6213 246.251 12.76C246.208 12.888 246.197 12.9947 246.219 13.08C246.251 13.1547 246.357 13.192 246.539 13.192H248.267C248.459 13.192 248.608 13.24 248.715 13.336C248.832 13.4213 248.891 13.5653 248.891 13.768C248.891 13.928 248.837 14.0667 248.731 14.184C248.624 14.3013 248.464 14.36 248.251 14.36H246.603ZM252.973 7.896C253.538 7.896 254.029 7.98133 254.445 8.152C254.872 8.32267 255.218 8.56267 255.485 8.872C255.762 9.18133 255.965 9.55467 256.093 9.992C256.232 10.4293 256.301 10.92 256.301 11.464C256.301 11.9333 256.248 12.3867 256.141 12.824C256.034 13.2507 255.858 13.6293 255.613 13.96C255.368 14.28 255.042 14.536 254.637 14.728C254.232 14.92 253.736 15.016 253.149 15.016C252.114 15.016 251.33 14.7493 250.797 14.216C250.274 13.6827 250.013 12.968 250.013 12.072C250.013 11.976 250.013 11.88 250.013 11.784C250.013 11.6773 250.024 11.5813 250.045 11.496C250.066 11.3467 250.13 11.2133 250.237 11.096C250.354 10.968 250.53 10.904 250.765 10.904H252.749C252.952 10.904 253.112 10.968 253.229 11.096C253.346 11.2133 253.405 11.368 253.405 11.56C253.405 11.7733 253.346 11.944 253.229 12.072C253.122 12.1893 252.962 12.248 252.749 12.248H251.517C251.528 12.7067 251.672 13.048 251.949 13.272C252.226 13.496 252.626 13.608 253.149 13.608C253.704 13.608 254.109 13.4213 254.365 13.048C254.632 12.6747 254.776 12.152 254.797 11.48C254.786 10.8187 254.642 10.2907 254.365 9.896C254.088 9.50133 253.624 9.304 252.973 9.304C252.621 9.304 252.285 9.368 251.965 9.496C251.656 9.61333 251.346 9.77867 251.037 9.992C250.888 10.056 250.733 10.0773 250.573 10.056C250.413 10.024 250.28 9.944 250.173 9.816C250.088 9.67733 250.045 9.528 250.045 9.368C250.045 9.208 250.098 9.06933 250.205 8.952C250.376 8.76 250.573 8.6 250.797 8.472C251.021 8.33333 251.25 8.22133 251.485 8.136C251.73 8.05067 251.981 7.992 252.237 7.96C252.493 7.91733 252.738 7.896 252.973 7.896ZM254.731 5.912V5.384C254.731 5.224 254.801 5.09067 254.939 4.984C255.067 4.86667 255.233 4.808 255.435 4.808C255.638 4.808 255.809 4.86667 255.947 4.984C256.075 5.09067 256.139 5.224 256.139 5.384V6.616C256.129 6.776 256.07 6.90933 255.963 7.016C255.857 7.112 255.707 7.16 255.515 7.16H250.555C250.363 7.16 250.214 7.10667 250.107 7C250.001 6.88267 249.942 6.744 249.931 6.584C249.931 6.43467 249.969 6.28533 250.043 6.136C250.118 5.98667 250.251 5.912 250.443 5.912H254.731ZM259.307 13.56C259.393 13.496 259.499 13.4427 259.627 13.4C259.755 13.3467 259.921 13.3573 260.123 13.432C260.337 13.5173 260.465 13.6613 260.507 13.864C260.561 14.0667 260.523 14.2747 260.395 14.488C260.321 14.5947 260.225 14.6853 260.107 14.76C259.99 14.824 259.873 14.8773 259.755 14.92C259.638 14.9627 259.521 14.9893 259.403 15C259.297 15.0213 259.217 15.032 259.163 15.032C258.833 15.032 258.571 14.9787 258.379 14.872C258.198 14.7547 258.059 14.5947 257.963 14.392C257.867 14.1893 257.809 13.9493 257.787 13.672C257.766 13.3947 257.755 13.0853 257.755 12.744V8.648C257.755 8.424 257.819 8.24267 257.947 8.104C258.086 7.96533 258.283 7.896 258.539 7.896C258.785 7.896 258.971 7.96533 259.099 8.104C259.238 8.24267 259.307 8.424 259.307 8.648V13.56ZM266.941 7.896C267.176 7.896 267.363 7.96533 267.501 8.104C267.651 8.24267 267.725 8.408 267.725 8.6V12.392C267.725 12.8293 267.651 13.2133 267.501 13.544C267.363 13.864 267.165 14.136 266.909 14.36C266.653 14.584 266.349 14.7547 265.997 14.872C265.656 14.9787 265.288 15.032 264.893 15.032C264.733 15.032 264.563 15.0107 264.381 14.968C264.2 14.9253 264.019 14.8667 263.837 14.792C263.667 14.7067 263.507 14.6107 263.357 14.504C263.208 14.3867 263.085 14.2587 262.989 14.12C262.989 14.3867 262.92 14.6 262.781 14.76C262.653 14.92 262.477 15 262.253 15C262.008 15 261.821 14.9307 261.693 14.792C261.565 14.6533 261.501 14.4773 261.501 14.264V8.6C261.501 8.408 261.571 8.24267 261.709 8.104C261.859 7.96533 262.045 7.896 262.269 7.896C262.493 7.896 262.675 7.96533 262.813 8.104C262.963 8.24267 263.037 8.408 263.037 8.6V12.36C263.091 12.5307 263.176 12.696 263.293 12.856C263.421 13.0053 263.56 13.1387 263.709 13.256C263.869 13.3627 264.035 13.448 264.205 13.512C264.387 13.576 264.563 13.608 264.733 13.608C265.128 13.608 265.464 13.5067 265.741 13.304C266.029 13.1013 266.173 12.792 266.173 12.376V8.6C266.173 8.408 266.248 8.24267 266.397 8.104C266.547 7.96533 266.728 7.896 266.941 7.896ZM273.862 11.24C273.862 10.9733 273.835 10.728 273.782 10.504C273.739 10.28 273.659 10.088 273.542 9.928C273.424 9.768 273.259 9.64533 273.046 9.56C272.832 9.464 272.566 9.416 272.246 9.416C271.851 9.416 271.483 9.464 271.142 9.56C270.8 9.656 270.491 9.77867 270.214 9.928C270.075 9.992 269.915 9.99733 269.734 9.944C269.552 9.89067 269.43 9.784 269.366 9.624C269.27 9.44267 269.254 9.26667 269.318 9.096C269.392 8.91467 269.51 8.78667 269.67 8.712C270.118 8.47733 270.539 8.312 270.934 8.216C271.328 8.12 271.766 8.072 272.246 8.072C273.387 8.072 274.192 8.36 274.662 8.936C275.131 9.512 275.366 10.3333 275.366 11.4V14.296C275.366 14.5093 275.302 14.68 275.174 14.808C275.056 14.936 274.87 15 274.614 15C274.347 15 274.15 14.936 274.022 14.808C273.904 14.68 273.846 14.5093 273.846 14.296V12.712C273.75 12.6053 273.616 12.5093 273.446 12.424C273.286 12.3387 273.11 12.264 272.918 12.2C272.726 12.136 272.534 12.088 272.342 12.056C272.15 12.024 271.984 12.008 271.846 12.008C271.696 12.008 271.542 12.024 271.382 12.056C271.232 12.0773 271.094 12.1253 270.966 12.2C270.848 12.264 270.752 12.3653 270.678 12.504C270.603 12.6427 270.576 12.824 270.598 13.048C270.619 13.2613 270.699 13.432 270.838 13.56C270.976 13.6773 271.142 13.7467 271.334 13.768C271.451 13.7893 271.574 13.7893 271.702 13.768C271.83 13.7467 271.947 13.7413 272.054 13.752C272.171 13.752 272.272 13.784 272.358 13.848C272.454 13.9013 272.518 14.0133 272.549 14.184C272.614 14.472 272.544 14.68 272.342 14.808C272.15 14.936 271.883 15 271.542 15C271.2 15 270.875 14.9627 270.566 14.888C270.267 14.8027 270.006 14.6747 269.782 14.504C269.558 14.3333 269.382 14.1093 269.254 13.832C269.126 13.5547 269.072 13.2187 269.094 12.824C269.115 12.0987 269.35 11.576 269.798 11.256C270.256 10.9253 270.886 10.76 271.686 10.76C272.155 10.76 272.55 10.8027 272.87 10.888C273.2 10.9733 273.531 11.0907 273.862 11.24Z" fill="#545859"/>
</svg>
