<svg width="325" height="44" viewBox="0 0 325 44" fill="none" xmlns="http://www.w3.org/2000/svg">
<g id="Frame 4029">
<g id="Group 4016">
<circle id="Ellipse 180" cx="22" cy="22" r="22" fill="#C4C4C4"/>
<circle id="Ellipse 179" cx="22" cy="22" r="20" fill="#EFEFEF"/>
<g id="Icons - Edit Bill Address" clip-path="url(#clip0_2373_366053)">
<g id="Group">
<path id="Vector" d="M30.1987 14.1612V12.3339C30.1987 11.4054 30.949 10.6543 31.8752 10.6543C32.8014 10.6543 33.5517 11.4062 33.5517 12.3339V14.1612H30.1987Z" fill="#C4C4C4"/>
<path id="Vector_2" d="M34.0771 14.6839H29.6753V12.333C29.6753 11.1176 30.6624 10.1289 31.8762 10.1289C33.09 10.1289 34.0771 11.1176 34.0771 12.333V14.6839V14.6839ZM30.7234 13.6359H33.0291V12.333C33.0291 11.696 32.5117 11.177 31.8762 11.177C31.2408 11.177 30.7234 11.6952 30.7234 12.333V13.6359Z" fill="#C4C4C4"/>
<path id="Vector_3" d="M30.1987 12.3339V31.1199H30.1932L30.1987 31.4005C30.1987 32.2626 29.5461 32.9715 28.7121 33.0684C28.2557 33.0684 13.8496 33.0653 13.104 33.0684C13.9387 32.9715 14.5859 32.2626 14.5859 31.4005V31.0176H14.5921V12.3339C14.5921 11.4718 15.2393 10.7629 16.074 10.666C16.5304 10.666 30.9357 10.6691 31.6814 10.666C30.8474 10.7621 30.1987 11.471 30.1987 12.3339Z" fill="white"/>
<path id="Vector_4" d="M31.8763 10.1289C31.7981 10.1289 31.7215 10.1328 31.6457 10.1414C31.04 10.143 26.109 10.143 16.9802 10.1414H16.0751L16.0149 10.1445C14.9059 10.2727 14.0696 11.2137 14.0696 12.333L14.0633 31.3996C14.0633 31.9865 13.6256 32.4797 13.0449 32.5469L13.1075 33.5919C13.4928 33.5903 17.5773 33.5903 25.2587 33.5911C25.0766 33.2597 24.9249 32.9088 24.8061 32.543C21.708 32.5422 19.2163 32.5423 17.3413 32.5423C16.3033 32.5423 15.4538 32.5423 14.7933 32.5423C14.9731 32.246 15.0849 31.9045 15.1075 31.5403H15.1177V12.333C15.1177 11.7554 15.5413 11.2684 16.1079 11.1895H16.9794C23.4235 11.1911 27.7761 11.1911 29.9943 11.1903C29.981 11.213 29.9685 11.2364 29.9552 11.2591C29.9497 11.2692 29.9435 11.2794 29.938 11.2896C29.9255 11.3122 29.9145 11.3349 29.9028 11.3583C29.895 11.3747 29.8872 11.3912 29.8794 11.4076C29.87 11.4287 29.8598 11.449 29.8512 11.4709C29.8364 11.506 29.8223 11.542 29.809 11.578C29.8035 11.5936 29.7981 11.61 29.7926 11.6264C29.784 11.653 29.7746 11.6796 29.7668 11.7061C29.7621 11.7225 29.7574 11.739 29.7527 11.7562C29.7441 11.7874 29.7363 11.8195 29.7293 11.8515C29.727 11.8624 29.7238 11.8734 29.7215 11.8843C29.7129 11.9273 29.7051 11.9703 29.6988 12.0141C29.6973 12.0266 29.6957 12.0391 29.6941 12.0516C29.6894 12.086 29.6863 12.1204 29.6832 12.1548C29.6824 12.168 29.6808 12.1813 29.6801 12.1946C29.6769 12.2407 29.6754 12.2861 29.6754 12.333C29.6754 12.333 29.6754 12.333 29.6754 12.3337V24.6163C29.9817 24.5686 30.2952 24.5444 30.6148 24.5444C30.6516 24.5444 30.6867 24.5467 30.7235 24.5475V12.333C30.7235 12.2947 30.7258 12.2571 30.7289 12.2196C30.7297 12.2079 30.7321 12.1962 30.7336 12.1845C30.7368 12.1587 30.7399 12.1337 30.7454 12.1086C30.7477 12.0954 30.7516 12.0829 30.7547 12.0703C30.7602 12.0469 30.7657 12.0235 30.7727 12.0008C30.7766 11.9883 30.7805 11.9766 30.7852 11.9648C30.793 11.9422 30.8008 11.9187 30.8102 11.8968C30.8149 11.8859 30.8196 11.875 30.8243 11.8648C30.8345 11.8413 30.8454 11.8187 30.8571 11.796C30.8618 11.7866 30.8673 11.778 30.872 11.7687C30.8853 11.7452 30.8985 11.7225 30.9134 11.6999C30.9181 11.6928 30.9235 11.685 30.9282 11.678C30.9447 11.6545 30.9611 11.6319 30.9791 11.61C30.9837 11.6045 30.9884 11.5983 30.9931 11.5928C31.0119 11.5701 31.0322 11.5483 31.0533 11.5264C31.058 11.5217 31.0619 11.517 31.0666 11.5131C31.0885 11.4912 31.1111 11.4709 31.1346 11.4513C31.1385 11.4474 31.1432 11.4443 31.1471 11.4404C31.1713 11.4209 31.1963 11.4021 31.2213 11.3849C31.226 11.3818 31.2307 11.3779 31.2346 11.3747C31.2596 11.3583 31.2854 11.3427 31.3112 11.3278C31.3175 11.3247 31.3237 11.32 31.33 11.3169C31.3526 11.3044 31.3769 11.2935 31.4003 11.2825C31.4105 11.2778 31.4206 11.2724 31.4308 11.2684C31.4402 11.2645 31.4503 11.2614 31.4597 11.2583C31.5488 11.2239 31.6434 11.1989 31.7419 11.1879C31.7856 11.1825 31.831 11.1793 31.8763 11.1793C32.5117 11.1793 33.0291 11.6983 33.0291 12.3353V14.6855H34.0772V12.333C34.0772 11.1176 33.0901 10.1289 31.8763 10.1289Z" fill="#C4C4C4"/>
<path id="XMLID_7_" d="M29.1319 14.0025C29.0593 14.1471 28.8975 14.2229 28.7396 14.1862C28.5825 14.1487 28.4707 14.008 28.4707 13.847V13.2459H28.4246C28.3551 13.2459 28.2949 13.192 28.2894 13.1209C28.2839 13.042 28.3457 12.9755 28.4246 12.9755H28.4707V12.8247C28.4707 12.741 28.5379 12.6738 28.6216 12.6738C28.7044 12.6738 28.7724 12.741 28.7724 12.8247V12.9755H28.9491C29.0241 12.9755 29.0843 13.0357 29.0843 13.1107C29.0843 13.1858 29.0241 13.2459 28.9491 13.2459H28.7724V13.847C28.7732 13.8571 28.7763 13.8665 28.7818 13.8751C28.7912 13.89 28.8084 13.9001 28.8248 13.9009C28.842 13.9025 28.8592 13.8939 28.8725 13.8829C28.885 13.8728 28.8944 13.8587 28.9045 13.847C28.9178 13.8313 28.9334 13.8181 28.9522 13.8095C28.9772 13.7977 29.0061 13.7931 29.0327 13.7977C29.0686 13.8048 29.1007 13.8282 29.1234 13.8564C29.1273 13.8618 29.1304 13.8673 29.1335 13.8736C29.1531 13.915 29.1515 13.9619 29.1319 14.0025Z" fill="#C4C4C4"/>
<path id="XMLID_6_" d="M28.1716 13.3937V14.0323C28.1716 14.1159 28.1044 14.1831 28.0208 14.1831C27.9372 14.1831 27.8699 14.1159 27.8699 14.0323V13.4656C27.8699 13.3421 27.7699 13.2413 27.6456 13.2413C27.5221 13.2413 27.4213 13.3413 27.4213 13.4656V14.0323C27.4213 14.1159 27.3541 14.1831 27.2705 14.1831C27.1868 14.1831 27.1196 14.1159 27.1196 14.0323V13.1256C27.1196 13.0412 27.1892 12.9732 27.2728 12.9748C27.3564 12.9763 27.4237 13.0467 27.4205 13.1311V13.1256V13.1311C27.4416 13.1014 27.4674 13.0733 27.4964 13.0506C27.569 12.9943 27.6667 12.9724 27.7613 12.9748C27.834 12.9763 27.9051 12.992 27.9661 13.0264C28.0192 13.0568 28.0646 13.1014 28.0982 13.153C28.1294 13.2007 28.1505 13.2546 28.1615 13.3101C28.1677 13.3429 28.1708 13.3765 28.1701 13.4101" fill="#C4C4C4"/>
<path id="XMLID_5_" d="M26.997 12.227C26.997 12.3106 26.9298 12.3786 26.8462 12.3786C26.7625 12.3786 26.6953 12.3106 26.6953 12.227C26.6953 12.1442 26.7625 12.0762 26.8462 12.0762C26.9298 12.0762 26.997 12.1442 26.997 12.227Z" fill="#C4C4C4"/>
<path id="XMLID_4_" d="M26.1459 12.6801C26.1459 12.7638 26.0787 12.8318 25.9951 12.8318C25.9115 12.8318 25.8442 12.7638 25.8442 12.6801C25.8442 12.5973 25.9115 12.5293 25.9951 12.5293C26.0787 12.5293 26.1459 12.5973 26.1459 12.6801Z" fill="#C4C4C4"/>
<path id="XMLID_3_" d="M27.271 12.8315C27.1873 12.8315 27.1201 12.7643 27.1201 12.6807V12.3774C27.1201 12.2938 27.1873 12.2266 27.271 12.2266C27.3546 12.2266 27.4218 12.2938 27.4218 12.3774V12.6807C27.4218 12.7635 27.3546 12.8315 27.271 12.8315Z" fill="#C4C4C4"/>
<path id="XMLID_2_" d="M26.4209 13.285C26.3372 13.285 26.27 13.2178 26.27 13.1342V11.9243C26.27 11.8407 26.3372 11.7734 26.4209 11.7734C26.5045 11.7734 26.5717 11.8407 26.5717 11.9243V13.1342C26.5717 13.217 26.5037 13.285 26.4209 13.285Z" fill="#C4C4C4"/>
<path id="XMLID_1_" d="M25.5698 12.9828C25.4862 12.9828 25.4189 12.9156 25.4189 12.832V12.227C25.4189 12.1434 25.4862 12.0762 25.5698 12.0762C25.6526 12.0762 25.7206 12.1434 25.7206 12.227V12.832C25.7206 12.9156 25.6534 12.9828 25.5698 12.9828Z" fill="#C4C4C4"/>
<path id="Vector_5" d="M27.6323 22.0156H16.9536V24.5815H27.6323V22.0156Z" fill="#C4C4C4"/>
<path id="Vector_6" d="M18.9794 25.7852H16.9277V26.9239H18.9794V25.7852Z" fill="#C4C4C4"/>
<path id="Vector_7" d="M21.872 25.7852H19.8203V26.9239H21.872V25.7852Z" fill="#C4C4C4"/>
<path id="Vector_8" d="M24.7655 25.7852H22.7139V26.9239H24.7655V25.7852Z" fill="#C4C4C4"/>
<path id="Vector_9" d="M18.9794 27.793H16.9277V28.9317H18.9794V27.793Z" fill="#C4C4C4"/>
<path id="Vector_10" d="M21.872 27.793H19.8203V28.9317H21.872V27.793Z" fill="#C4C4C4"/>
<path id="Vector_11" d="M24.7655 27.793H22.7139V28.9317H24.7655V27.793Z" fill="#C4C4C4"/>
<path id="Vector_12" d="M20.6673 18.213C20.7635 18.1395 20.8455 18.048 20.9128 17.9394C21.0151 17.7729 21.0667 17.5908 21.0667 17.3985C21.0667 17.0375 20.9503 16.7451 20.7213 16.5302C20.4938 16.3168 20.1796 16.209 19.7888 16.209H18.4211C18.2843 16.209 18.1772 16.2574 18.103 16.3536C18.0342 16.4419 17.999 16.5326 17.999 16.6232V19.7667C17.999 19.8308 18.0045 19.8973 18.0162 19.9629C18.0287 20.034 18.0506 20.0997 18.0819 20.1583C18.1147 20.2208 18.1592 20.2732 18.2124 20.3138C18.2718 20.3584 18.3413 20.3811 18.4211 20.3811H19.9248C20.3735 20.3811 20.7158 20.2771 20.9432 20.0731C21.1738 19.866 21.2902 19.5612 21.2902 19.1673C21.2902 18.932 21.2105 18.7171 21.0527 18.5271C20.9417 18.3919 20.8119 18.2872 20.6673 18.213ZM20.3344 19.1094C20.3344 19.2673 20.2883 19.3822 20.1929 19.4604C20.0921 19.5432 19.978 19.5831 19.8443 19.5831H18.9549V18.6436H19.7568C19.9272 18.6436 20.0647 18.6889 20.1765 18.7819C20.2828 18.871 20.3344 18.9781 20.3344 19.1094ZM18.9549 17.8878V17.0124H19.6685C19.8115 17.0124 19.9139 17.05 19.9811 17.1273C20.0522 17.2102 20.0898 17.3149 20.0944 17.447C20.0944 17.5838 20.0585 17.6893 19.9866 17.7706C19.917 17.8487 19.8131 17.887 19.6692 17.887H18.9549V17.8878Z" fill="#C4C4C4"/>
<path id="Vector_13" d="M22.6752 17.3137C22.5814 17.2395 22.4688 17.2012 22.3406 17.2012C22.2242 17.2012 22.1163 17.2387 22.0194 17.3129C21.917 17.3919 21.8623 17.4966 21.8623 17.6154V19.9828C21.8623 20.1016 21.9147 20.2063 22.0139 20.2845C22.1077 20.3587 22.2203 20.397 22.3484 20.397C22.4657 20.397 22.5735 20.3595 22.6697 20.2861C22.7721 20.2079 22.8268 20.1032 22.8268 19.9836V17.6162C22.8268 17.4966 22.7744 17.3919 22.6752 17.3137Z" fill="#C4C4C4"/>
<path id="Vector_14" d="M22.3408 15.9121C22.1837 15.9121 22.05 15.9621 21.9445 16.0614C21.8374 16.1622 21.7827 16.2888 21.7827 16.4381C21.7827 16.5874 21.8374 16.714 21.9445 16.8148C22.05 16.9141 22.1837 16.9641 22.3408 16.9641C22.4994 16.9641 22.6307 16.9133 22.7316 16.8125C22.8324 16.7117 22.8832 16.5858 22.8832 16.4381C22.8832 16.2904 22.8324 16.1646 22.7316 16.0637C22.6307 15.9637 22.4994 15.9121 22.3408 15.9121Z" fill="#C4C4C4"/>
<path id="Vector_15" d="M24.0443 16.0332C23.9247 16.0332 23.8176 16.0746 23.7254 16.1575C23.63 16.2427 23.5815 16.3482 23.5815 16.4717V19.9669C23.5815 20.0904 23.63 20.1967 23.7246 20.2811C23.8168 20.3632 23.9239 20.4054 24.0435 20.4054C24.1685 20.4054 24.2779 20.3632 24.367 20.2803C24.4585 20.1951 24.5054 20.0904 24.5054 19.9669V16.4717C24.5054 16.349 24.4593 16.2434 24.367 16.1583C24.2779 16.0754 24.1693 16.0332 24.0443 16.0332Z" fill="#C4C4C4"/>
<path id="Vector_16" d="M25.9989 16.1583C25.909 16.0754 25.8003 16.0332 25.6753 16.0332C25.5557 16.0332 25.4486 16.0746 25.3564 16.1575C25.261 16.2427 25.2134 16.3482 25.2134 16.4717V19.9669C25.2134 20.0904 25.2618 20.1959 25.3564 20.2811C25.4486 20.3632 25.5557 20.4054 25.6753 20.4054C25.8011 20.4054 25.9098 20.3632 25.9989 20.2803C26.0903 20.1951 26.1372 20.0904 26.1372 19.9669V16.4717C26.1372 16.3482 26.0911 16.2434 25.9989 16.1583Z" fill="#C4C4C4"/>
<path id="Vector_17" d="M26.9242 25.7852H25.6064V26.9239H25.7776C26.1082 26.4956 26.4935 26.1119 26.9242 25.7852Z" fill="#C4C4C4"/>
<path id="Vector_18" d="M24.5057 30.6534C24.5057 30.4431 24.5166 30.236 24.537 30.0312H10.9727V31.3998C10.9727 32.519 11.809 33.4593 12.918 33.5882L12.9782 33.5913H13.8833C19.0018 33.5906 22.8003 33.5898 25.2576 33.5898C24.7785 32.7183 24.5057 31.7179 24.5057 30.6534Z" fill="#C4C4C4"/>
<path id="Vector_19" d="M30.6145 25.2949C27.6632 25.2949 25.2622 27.6959 25.2622 30.6472C25.2622 33.5984 27.6632 35.9994 30.6145 35.9994C30.6887 35.9994 30.763 35.9979 30.8341 35.9947L30.9427 35.9901L30.9169 35.3593L30.8083 35.364C30.745 35.3664 30.6801 35.3679 30.6145 35.3679C28.011 35.3679 25.8929 33.2498 25.8929 30.6464C25.8929 28.043 28.011 25.9249 30.6145 25.9249C33.2179 25.9249 35.3352 28.043 35.3352 30.6464C35.3352 30.7105 35.3336 30.7761 35.3313 30.8402L35.3266 30.9489L35.9566 30.9747L35.9605 30.866C35.9636 30.7933 35.9651 30.7191 35.9651 30.6464C35.9667 27.6959 33.5657 25.2949 30.6145 25.2949Z" fill="#C4C4C4"/>
<path id="Vector_20" d="M33.5403 34.3543C33.4442 34.4301 33.3434 34.5036 33.2417 34.5724L33.1519 34.6326L33.5036 35.1562L33.5935 35.096C33.7091 35.0179 33.8232 34.935 33.9319 34.8491L34.0171 34.7818L33.6263 34.2871L33.5403 34.3543Z" fill="#C4C4C4"/>
<path id="Vector_21" d="M32.927 34.766C32.82 34.8262 32.709 34.8833 32.598 34.9341L32.4995 34.9794L32.7645 35.5515L32.8629 35.5062C32.9888 35.4476 33.1146 35.3835 33.2357 35.3155L33.3303 35.2623L33.0208 34.7129L32.927 34.766Z" fill="#C4C4C4"/>
<path id="Vector_22" d="M32.2571 35.0766C32.1422 35.1188 32.0242 35.1579 31.9062 35.1915L31.8022 35.2212L31.9742 35.8284L32.0781 35.7988C32.2126 35.7605 32.3462 35.7167 32.476 35.6682L32.5776 35.6307L32.358 35.0391L32.2571 35.0766Z" fill="#C4C4C4"/>
<path id="Vector_23" d="M31.5466 35.2762C31.427 35.3004 31.3043 35.3199 31.1816 35.334L31.0737 35.3473L31.1488 35.9734L31.2566 35.9608C31.3957 35.9444 31.5349 35.9218 31.6701 35.8952L31.7764 35.8741L31.6529 35.2559L31.5466 35.2762Z" fill="#C4C4C4"/>
<path id="Vector_24" d="M34.5403 33.2715C34.4716 33.3739 34.3981 33.4747 34.3231 33.5701L34.2559 33.6553L34.7506 34.0461L34.8178 33.9609C34.9046 33.8515 34.9874 33.7373 35.0648 33.6225L35.125 33.5326L34.6013 33.1816L34.5403 33.2715Z" fill="#C4C4C4"/>
<path id="Vector_25" d="M35.3031 31.2114C35.289 31.3333 35.2695 31.456 35.2452 31.5764L35.2241 31.6827L35.8424 31.8061L35.8635 31.6999C35.8908 31.5639 35.9127 31.4247 35.9291 31.2856L35.9416 31.1778L35.3156 31.1035L35.3031 31.2114Z" fill="#C4C4C4"/>
<path id="Vector_26" d="M34.0825 33.852C33.9988 33.9427 33.9105 34.0302 33.8214 34.113L33.7417 34.1865L34.17 34.6492L34.2497 34.5757C34.3513 34.4819 34.4506 34.3819 34.5459 34.2795L34.6194 34.1998L34.1559 33.7715L34.0825 33.852Z" fill="#C4C4C4"/>
<path id="Vector_27" d="M35.1578 31.9348C35.1242 32.0536 35.0859 32.1716 35.0429 32.2865L35.0054 32.3881L35.597 32.607L35.6345 32.5054C35.683 32.3748 35.7268 32.2404 35.7643 32.1068L35.794 32.002L35.1875 31.8301L35.1578 31.9348Z" fill="#C4C4C4"/>
<path id="Vector_28" d="M34.9014 32.6278C34.8498 32.7388 34.7935 32.8497 34.7333 32.9568L34.6802 33.0514L35.2304 33.3601L35.2836 33.2655C35.3523 33.1436 35.4164 33.0178 35.4743 32.8927L35.5196 32.7943L34.9475 32.5293L34.9014 32.6278Z" fill="#C4C4C4"/>
<path id="Vector_29" d="M30.7393 34.2222C32.7194 34.1537 34.269 32.4929 34.2005 30.5128C34.1319 28.5327 32.4711 26.9831 30.491 27.0517C28.5109 27.1202 26.9613 28.781 27.0299 30.7611C27.0984 32.7412 28.7592 34.2908 30.7393 34.2222Z" fill="#C4C4C4"/>
<path id="Vector_30" d="M33.2861 29.3762L32.3013 28.3906L29.7674 30.9237L29.0077 30.164L28.0229 31.1488L29.7565 32.905L33.2861 29.3762Z" fill="white"/>
<path id="Vector_31" d="M29.7557 33.1982L27.7314 31.1474L29.0078 29.8703L29.7682 30.6308L32.3013 28.0977L33.5784 29.3755L29.7557 33.1982ZM28.3153 31.1489L29.7581 32.6105L32.9938 29.3748L32.3013 28.6823L29.7682 31.2154L29.0078 30.4549L28.3153 31.1489Z" fill="#C4C4C4"/>
<g id="Group_2">
<path id="Vector_32" d="M11.9789 29.0039V29.5924L10.3009 32.6844L8.62207 29.5924V29.0039" fill="white"/>
<path id="Vector_33" d="M10.3008 33.7559L8.11084 29.7222V29.0039H9.13315V29.4627L10.3 31.6128L11.4677 29.4627V29.0039H12.49V29.7222L10.3008 33.7559Z" fill="#C4C4C4"/>
<path id="Vector_34" d="M11.9779 14.3535H8.62256V28.9565H11.9779V14.3535Z" fill="white"/>
<path id="Vector_35" d="M11.4666 14.8657V28.4456H9.13286V14.8657H11.4666ZM12.4882 13.8418H8.11133V29.4687H12.4882V13.8418Z" fill="#C4C4C4"/>
<path id="Vector_36" d="M10.8109 14.1602H9.78857V28.542H10.8109V14.1602Z" fill="#C4C4C4"/>
<path id="Vector_37" d="M11.9814 10.1702V8.81419C11.9814 8.64615 11.8165 8.51172 11.6125 8.51172H8.99107C8.78552 8.51172 8.62061 8.64615 8.62061 8.81341V10.1702" fill="white"/>
<path id="Vector_38" d="M12.4925 10.1697H11.4702V9.02231H9.13169V10.1697H8.10938V8.81362C8.10938 8.57915 8.21724 8.35718 8.40638 8.20321C8.56738 8.07191 8.77528 8 8.991 8C8.991 8 8.991 8 8.99178 8H11.6132C12.0986 8 12.4933 8.365 12.4933 8.81362V10.1697H12.4925Z" fill="#C4C4C4"/>
<path id="Vector_39" d="M12.4882 10.7969H8.11133V13.3925H12.4882V10.7969Z" fill="#C4C4C4"/>
</g>
</g>
</g>
</g>
<path id="&#224;&#184;&#136;&#224;&#184;&#177;&#224;&#184;&#148;&#224;&#184;&#129;&#224;&#184;&#178;&#224;&#184;&#163;&#224;&#184;&#130;&#224;&#185;&#137;&#224;&#184;&#173;&#224;&#184;&#161;&#224;&#184;&#185;&#224;&#184;&#165;&#224;&#184;&#170;&#224;&#185;&#136;&#224;&#184;&#167;&#224;&#184;&#153;&#224;&#184;&#149;&#224;&#184;&#177;&#224;&#184;&#167; &#224;&#184;&#171;&#224;&#184;&#161;&#224;&#184;&#178;&#224;&#184;&#162;&#224;&#185;&#128;&#224;&#184;&#165;&#224;&#184;&#130;&#224;&#184;&#154;&#224;&#184;&#163;&#224;&#184;&#180;&#224;&#184;&#129;&#224;&#184;&#178;&#224;&#184;&#163; &#224;&#185;&#129;&#224;&#184;&#136;&#224;&#185;&#137;&#224;&#184;&#135;&#224;&#185;&#128;&#224;&#184;&#149;&#224;&#184;&#183;&#224;&#184;&#173;&#224;&#184;&#153;&#10;&#224;&#185;&#129;&#224;&#184;&#165;&#224;&#184;&#176;&#224;&#184;&#154;&#224;&#184;&#163;&#224;&#184;&#180;&#224;&#184;&#129;&#224;&#184;&#178;&#224;&#184;&#163; E-Bill" d="M63.472 17C63.0347 17 62.688 16.9253 62.432 16.776C62.176 16.616 61.9733 16.408 61.824 16.152C61.6853 15.8853 61.5893 15.5813 61.536 15.24C61.4827 14.8987 61.44 14.5413 61.408 14.168H60.96C60.7147 14.168 60.592 14.0347 60.592 13.768C60.592 13.6507 60.624 13.56 60.688 13.496C60.752 13.4213 60.8427 13.384 60.96 13.384H62C62.1173 13.384 62.2027 13.416 62.256 13.48C62.3093 13.544 62.336 13.624 62.336 13.72C62.336 13.9973 62.3413 14.2853 62.352 14.584C62.3733 14.872 62.4213 15.1333 62.496 15.368C62.5707 15.6027 62.6827 15.7947 62.832 15.944C62.992 16.0933 63.2107 16.168 63.488 16.168C63.7547 16.168 63.968 16.0987 64.128 15.96C64.2987 15.8107 64.4267 15.6133 64.512 15.368C64.5973 15.1227 64.656 14.84 64.688 14.52C64.72 14.1893 64.736 13.8427 64.736 13.48C64.736 13.128 64.72 12.8027 64.688 12.504C64.6667 12.1947 64.6027 11.928 64.496 11.704C64.3893 11.48 64.224 11.304 64 11.176C63.776 11.048 63.472 10.984 63.088 10.984C62.672 10.984 62.2987 11.0533 61.968 11.192C61.648 11.32 61.3547 11.5013 61.088 11.736C61.0027 11.7893 60.896 11.8107 60.768 11.8C60.64 11.7893 60.544 11.736 60.48 11.64C60.3947 11.5333 60.368 11.4213 60.4 11.304C60.432 11.1867 60.496 11.096 60.592 11.032C60.9653 10.7227 61.3493 10.4933 61.744 10.344C62.1493 10.1947 62.5973 10.12 63.088 10.12C63.6107 10.12 64.0373 10.1947 64.368 10.344C64.7093 10.4827 64.976 10.6907 65.168 10.968C65.3707 11.2453 65.5093 11.592 65.584 12.008C65.6693 12.4133 65.712 12.8827 65.712 13.416C65.712 13.8533 65.68 14.2907 65.616 14.728C65.5627 15.1547 65.456 15.5387 65.296 15.88C65.136 16.2107 64.9067 16.4827 64.608 16.696C64.32 16.8987 63.9413 17 63.472 17ZM63.0954 9C62.8927 9 62.7007 8.96267 62.5194 8.888C62.338 8.81333 62.1887 8.712 62.0714 8.584C61.9434 8.456 61.8527 8.30667 61.7994 8.136C61.7354 7.95467 61.73 7.75733 61.7834 7.544C61.8367 7.23467 62.0234 7.096 62.3434 7.128C62.45 7.14933 62.5407 7.20267 62.6154 7.288C62.6794 7.36267 62.7007 7.448 62.6794 7.544C62.6154 7.72533 62.6474 7.88 62.7754 8.008C62.8927 8.136 63.042 8.2 63.2234 8.2H66.1994C66.3274 8.2 66.4234 8.24267 66.4874 8.328C66.562 8.40267 66.5994 8.49333 66.5994 8.6C66.5994 8.71733 66.562 8.81333 66.4874 8.888C66.4234 8.96267 66.3274 9 66.1994 9H63.0954ZM69.4634 13.976C69.3354 13.976 69.2287 13.9387 69.1434 13.864C69.0687 13.7787 69.0314 13.6773 69.0314 13.56C69.0314 13.4427 69.0687 13.3467 69.1434 13.272C69.2287 13.1867 69.3354 13.144 69.4634 13.144H70.1194C70.354 13.144 70.5407 13.2133 70.6794 13.352C70.818 13.48 70.9247 13.6347 70.9994 13.816C71.074 13.9973 71.122 14.184 71.1434 14.376C71.1647 14.5573 71.1754 14.696 71.1754 14.792C71.1754 16.264 70.5834 17 69.3994 17H69.3834C68.53 17 67.9167 16.7013 67.5434 16.104C67.1807 15.5067 66.9994 14.6747 66.9994 13.608C66.9994 12.5307 67.282 11.6827 67.8474 11.064C68.4234 10.4453 69.2127 10.136 70.2154 10.136C71.154 10.136 71.906 10.3653 72.4714 10.824C73.0367 11.272 73.3194 11.9813 73.3194 12.952V16.536C73.3194 16.6747 73.2767 16.7867 73.1914 16.872C73.106 16.9573 72.9834 17 72.8234 17C72.6634 17 72.5407 16.9573 72.4554 16.872C72.37 16.7867 72.3274 16.6747 72.3274 16.536V13.08C72.3274 12.4187 72.1674 11.9013 71.8474 11.528C71.538 11.1547 70.994 10.968 70.2154 10.968C69.4794 10.968 68.9194 11.208 68.5354 11.688C68.162 12.168 67.9754 12.808 67.9754 13.608C67.9754 14.376 68.098 14.9947 68.3434 15.464C68.5994 15.9227 68.9514 16.152 69.3994 16.152C69.5914 16.152 69.746 16.0987 69.8634 15.992C69.9914 15.8853 70.0874 15.752 70.1514 15.592C70.226 15.432 70.2687 15.256 70.2794 15.064C70.3007 14.872 70.2954 14.696 70.2634 14.536C70.2314 14.376 70.178 14.2427 70.1034 14.136C70.0394 14.0293 69.954 13.976 69.8474 13.976H69.4634ZM77.821 10.136C78.2263 10.136 78.605 10.1947 78.957 10.312C79.309 10.4293 79.6183 10.6107 79.885 10.856C80.1517 11.1013 80.3597 11.4107 80.509 11.784C80.6583 12.1573 80.733 12.6 80.733 13.112V16.536C80.733 16.6747 80.6903 16.7867 80.605 16.872C80.5197 16.9573 80.397 17 80.237 17C80.077 17 79.9543 16.9573 79.869 16.872C79.7837 16.7867 79.741 16.6747 79.741 16.536V13.272C79.741 12.472 79.565 11.8907 79.213 11.528C78.8717 11.1653 78.4077 10.984 77.821 10.984C77.309 10.984 76.877 11.0693 76.525 11.24C76.173 11.4107 75.8743 11.608 75.629 11.832C75.7783 11.96 75.885 12.184 75.949 12.504C76.013 12.8133 76.045 13.16 76.045 13.544V16.536C76.045 16.6747 76.0023 16.7867 75.917 16.872C75.8317 16.9573 75.709 17 75.549 17C75.3677 17 75.2397 16.952 75.165 16.856C75.0903 16.76 75.053 16.6533 75.053 16.536V13.384C75.053 12.936 75.0103 12.584 74.925 12.328C74.8503 12.072 74.7437 11.864 74.605 11.704C74.7117 11.5333 74.861 11.3573 75.053 11.176C75.2557 10.9947 75.4903 10.8293 75.757 10.68C76.0343 10.52 76.3437 10.392 76.685 10.296C77.0263 10.1893 77.405 10.136 77.821 10.136ZM83.0513 11.992C83.0513 12.1093 83.0033 12.2107 82.9073 12.296C82.8113 12.3813 82.6993 12.424 82.5713 12.424C82.4219 12.424 82.3046 12.3867 82.2193 12.312C82.1339 12.2373 82.0913 12.1627 82.0913 12.088C82.0913 11.8107 82.1606 11.5547 82.2993 11.32C82.4486 11.0853 82.6353 10.8827 82.8593 10.712C83.0939 10.5307 83.3606 10.392 83.6593 10.296C83.9579 10.1893 84.2619 10.136 84.5713 10.136C85.4353 10.136 86.0593 10.376 86.4433 10.856C86.8273 11.3253 87.0193 11.9707 87.0193 12.792V16.472C87.0193 16.824 86.8539 17 86.5233 17C86.2033 17 86.0433 16.824 86.0433 16.472V12.92C86.0433 12.4933 86.0006 12.152 85.9153 11.896C85.8299 11.64 85.7179 11.448 85.5793 11.32C85.4406 11.1813 85.2806 11.0907 85.0993 11.048C84.9286 10.9947 84.7526 10.968 84.5713 10.968C84.2939 10.968 84.0593 11.0107 83.8673 11.096C83.6753 11.1813 83.5153 11.2827 83.3873 11.4C83.2699 11.5067 83.1846 11.6187 83.1313 11.736C83.0779 11.8427 83.0513 11.928 83.0513 11.992ZM91.2841 13.096C91.5508 13.128 91.8335 13.176 92.1321 13.24C92.4308 13.2933 92.7081 13.3787 92.9641 13.496C93.2201 13.6133 93.4335 13.7787 93.6041 13.992C93.7855 14.2053 93.8868 14.4827 93.9081 14.824C93.9401 15.2507 93.8761 15.608 93.7161 15.896C93.5561 16.1733 93.3375 16.3973 93.0601 16.568C92.7935 16.728 92.4788 16.84 92.1161 16.904C91.7641 16.968 91.4015 17 91.0281 17C90.6441 17 90.2601 16.9573 89.8761 16.872C89.5028 16.776 89.1348 16.632 88.7721 16.44C88.6548 16.3867 88.5641 16.2907 88.5001 16.152C88.4361 16.0027 88.4628 15.864 88.5801 15.736C88.6655 15.6507 88.7615 15.6027 88.8681 15.592C88.9855 15.5707 89.0975 15.5867 89.2041 15.64C89.3321 15.7253 89.4761 15.8 89.6361 15.864C89.8068 15.928 89.9721 15.9867 90.1321 16.04C90.3028 16.0827 90.4681 16.1147 90.6281 16.136C90.7881 16.1573 90.9321 16.168 91.0601 16.168C91.2735 16.168 91.4921 16.152 91.7161 16.12C91.9508 16.088 92.1588 16.0293 92.3401 15.944C92.5215 15.8587 92.6655 15.736 92.7721 15.576C92.8895 15.4053 92.9375 15.1813 92.9161 14.904C92.8948 14.5733 92.7401 14.3547 92.4521 14.248C92.1641 14.1413 91.7588 14.0453 91.2361 13.96C90.9801 13.928 90.6975 13.88 90.3881 13.816C90.0895 13.752 89.8068 13.656 89.5401 13.528C89.2841 13.4 89.0655 13.2293 88.8841 13.016C88.7028 12.8027 88.6068 12.5307 88.5961 12.2C88.5641 11.784 88.6228 11.4427 88.7721 11.176C88.9321 10.9093 89.1455 10.7013 89.4121 10.552C89.6895 10.392 90.0041 10.2853 90.3561 10.232C90.7081 10.168 91.0708 10.136 91.4441 10.136C91.8175 10.136 92.1748 10.184 92.5161 10.28C92.8575 10.376 93.1988 10.5307 93.5401 10.744C93.6468 10.8187 93.7055 10.9147 93.7161 11.032C93.7268 11.1493 93.7001 11.256 93.6361 11.352C93.5828 11.4373 93.5028 11.496 93.3961 11.528C93.2895 11.56 93.1935 11.5493 93.1081 11.496C92.8521 11.3253 92.5748 11.192 92.2761 11.096C91.9775 10.9893 91.6841 10.936 91.3961 10.936C91.2041 10.936 91.0015 10.9467 90.7881 10.968C90.5748 10.9787 90.3721 11.0267 90.1801 11.112C89.9988 11.1867 89.8495 11.304 89.7321 11.464C89.6148 11.6133 89.5561 11.8267 89.5561 12.104C89.5668 12.296 89.6308 12.4507 89.7481 12.568C89.8655 12.6853 90.0095 12.7813 90.1801 12.856C90.3508 12.92 90.5321 12.9733 90.7241 13.016C90.9268 13.048 91.1135 13.0747 91.2841 13.096ZM97.8425 17.032C96.9785 17.032 96.3225 16.7867 95.8745 16.296C95.4265 15.8053 95.2025 15.1227 95.2025 14.248V14.008C95.2025 13.496 95.3252 13.0373 95.5705 12.632C95.8158 12.2267 96.1625 11.88 96.6105 11.592C96.7172 11.4853 96.7492 11.3627 96.7065 11.224C96.6638 11.0747 96.5358 11 96.3225 11H95.6985C95.4212 11 95.2825 10.8667 95.2825 10.6C95.2825 10.3333 95.4212 10.2 95.6985 10.2H96.3705C96.4345 10.2 96.5305 10.2107 96.6585 10.232C96.7972 10.2533 96.9305 10.296 97.0585 10.36C97.1972 10.424 97.3145 10.52 97.4105 10.648C97.5172 10.776 97.5705 10.952 97.5705 11.176C97.5705 11.5173 97.4958 11.7787 97.3465 11.96C97.1972 12.1307 97.0318 12.296 96.8505 12.456C96.6798 12.616 96.5198 12.808 96.3705 13.032C96.2318 13.256 96.1625 13.592 96.1625 14.04C96.1625 14.3707 96.1892 14.6693 96.2425 14.936C96.2958 15.2027 96.3865 15.4267 96.5145 15.608C96.6425 15.7893 96.8132 15.9333 97.0265 16.04C97.2398 16.136 97.5118 16.1893 97.8425 16.2C98.0238 16.2 98.2105 16.1787 98.4025 16.136C98.5945 16.0827 98.7705 15.9867 98.9305 15.848C99.0905 15.6987 99.2185 15.496 99.3145 15.24C99.4212 14.984 99.4745 14.6427 99.4745 14.216V10.664C99.4745 10.312 99.6345 10.136 99.9545 10.136C100.285 10.136 100.451 10.312 100.451 10.664V14.344C100.451 15.1653 100.232 15.8213 99.7945 16.312C99.3572 16.792 98.7065 17.032 97.8425 17.032ZM100.85 6.792C101.031 6.792 101.149 6.84 101.202 6.936C101.255 7.02133 101.271 7.12267 101.25 7.24C101.175 7.60267 101.042 7.90133 100.85 8.136C100.658 8.37067 100.429 8.552 100.162 8.68C99.8953 8.808 99.6073 8.89867 99.298 8.952C98.978 8.99467 98.6687 9.00533 98.37 8.984C98.2527 8.97333 98.1353 8.96267 98.018 8.952C97.89 8.94133 97.778 8.92533 97.682 8.904C97.522 8.86133 97.4313 8.78667 97.41 8.68C97.3887 8.56267 97.378 8.43467 97.378 8.296V7.736H97.09C96.9193 7.736 96.7807 7.70933 96.674 7.656C96.5567 7.60267 96.498 7.48 96.498 7.288C96.498 7.096 96.562 6.984 96.69 6.952C96.818 6.90933 96.962 6.888 97.122 6.888H97.81C98.0233 6.888 98.1567 6.952 98.21 7.08C98.2633 7.19733 98.29 7.30933 98.29 7.416V8.168C98.482 8.17867 98.6793 8.17867 98.882 8.168C99.074 8.14667 99.2607 8.104 99.442 8.04C99.6233 7.976 99.7887 7.88533 99.938 7.768C100.077 7.65067 100.189 7.49067 100.274 7.288C100.327 7.17067 100.397 7.05867 100.482 6.952C100.567 6.84533 100.69 6.792 100.85 6.792ZM104.802 10.136C105.346 10.136 105.815 10.2213 106.21 10.392C106.615 10.552 106.951 10.7813 107.218 11.08C107.485 11.3787 107.682 11.7413 107.81 12.168C107.938 12.584 108.002 13.0533 108.002 13.576C108.002 14.0347 107.949 14.472 107.842 14.888C107.746 15.304 107.581 15.672 107.346 15.992C107.111 16.3013 106.797 16.552 106.402 16.744C106.018 16.9253 105.543 17.016 104.978 17.016C104.434 17.016 103.959 16.936 103.554 16.776C103.149 16.616 102.823 16.3867 102.578 16.088C102.333 15.7893 102.162 15.4373 102.066 15.032C101.97 14.616 101.954 14.1573 102.018 13.656C102.029 13.5707 102.066 13.4907 102.13 13.416C102.205 13.3413 102.317 13.304 102.466 13.304H104.562C104.679 13.304 104.77 13.3413 104.834 13.416C104.898 13.48 104.93 13.5707 104.93 13.688C104.93 13.9547 104.807 14.088 104.562 14.088H102.93C102.887 14.76 103.042 15.2773 103.394 15.64C103.746 15.992 104.274 16.168 104.978 16.168C105.682 16.168 106.194 15.944 106.514 15.496C106.845 15.048 107.021 14.4133 107.042 13.592C107.031 12.8027 106.85 12.1733 106.498 11.704C106.157 11.224 105.591 10.984 104.802 10.984C104.386 10.984 103.997 11.0533 103.634 11.192C103.282 11.3307 102.93 11.5173 102.578 11.752C102.493 11.7947 102.402 11.8053 102.306 11.784C102.221 11.7627 102.151 11.7147 102.098 11.64C101.97 11.4587 101.975 11.288 102.114 11.128C102.274 10.9573 102.461 10.808 102.674 10.68C102.887 10.552 103.111 10.4507 103.346 10.376C103.581 10.2907 103.821 10.232 104.066 10.2C104.322 10.1573 104.567 10.136 104.802 10.136ZM114.803 10.136C114.952 10.136 115.069 10.1787 115.155 10.264C115.251 10.3387 115.299 10.4347 115.299 10.552V14.568C115.299 14.9733 115.229 15.3307 115.091 15.64C114.963 15.9387 114.776 16.1947 114.531 16.408C114.296 16.6107 114.013 16.7653 113.683 16.872C113.363 16.9787 113.011 17.032 112.627 17.032C112.211 17.032 111.789 16.9467 111.363 16.776C110.947 16.5947 110.6 16.3387 110.323 16.008V16.536C110.323 16.6747 110.285 16.7867 110.211 16.872C110.136 16.9573 110.013 17 109.843 17C109.683 17 109.56 16.9573 109.475 16.872C109.4 16.7867 109.363 16.6747 109.363 16.536V10.552C109.363 10.4347 109.405 10.3387 109.491 10.264C109.587 10.1787 109.709 10.136 109.859 10.136C110.008 10.136 110.125 10.1787 110.211 10.264C110.307 10.3387 110.355 10.4347 110.355 10.552V14.552C110.419 14.776 110.52 14.9893 110.659 15.192C110.808 15.384 110.979 15.5547 111.171 15.704C111.363 15.8427 111.571 15.9547 111.795 16.04C112.019 16.1253 112.243 16.168 112.467 16.168C112.723 16.168 112.957 16.136 113.171 16.072C113.395 16.008 113.592 15.912 113.763 15.784C113.933 15.6453 114.067 15.4747 114.163 15.272C114.259 15.0693 114.307 14.8293 114.307 14.552V10.552C114.307 10.4347 114.355 10.3387 114.451 10.264C114.547 10.1787 114.664 10.136 114.803 10.136ZM114.814 17.96C114.963 17.96 115.08 18.008 115.166 18.104C115.251 18.2107 115.294 18.328 115.294 18.456V18.968C115.294 19.32 115.16 19.624 114.894 19.88C114.627 20.1467 114.211 20.2853 113.646 20.296C113.08 20.2853 112.67 20.1467 112.414 19.88C112.158 19.624 112.03 19.32 112.03 18.968V18.68H111.71C111.614 18.68 111.528 18.6587 111.454 18.616C111.368 18.584 111.315 18.5147 111.294 18.408C111.272 18.3227 111.272 18.248 111.294 18.184C111.315 18.0773 111.374 18.0133 111.47 17.992C111.555 17.9707 111.646 17.96 111.742 17.96H112.654C112.739 17.96 112.808 17.9867 112.862 18.04C112.915 18.0933 112.942 18.1627 112.942 18.248V18.84C112.942 19.0853 113.011 19.2613 113.15 19.368C113.278 19.4853 113.438 19.544 113.63 19.544C113.832 19.544 114.003 19.4907 114.142 19.384C114.27 19.2773 114.334 19.096 114.334 18.84V18.456C114.334 18.1253 114.494 17.96 114.814 17.96ZM119.774 10.136C120.83 10.136 121.587 10.4027 122.046 10.936C122.515 11.4587 122.75 12.2373 122.75 13.272V16.536C122.75 16.6747 122.707 16.7867 122.622 16.872C122.536 16.9573 122.414 17 122.254 17C122.094 17 121.971 16.9573 121.886 16.872C121.8 16.7867 121.758 16.6747 121.758 16.536V14.536C121.662 14.408 121.523 14.2907 121.342 14.184C121.16 14.0667 120.963 13.9707 120.75 13.896C120.536 13.8213 120.312 13.7627 120.078 13.72C119.843 13.6773 119.614 13.656 119.39 13.656C119.144 13.656 118.92 13.6827 118.718 13.736C118.515 13.7893 118.339 13.88 118.19 14.008C118.051 14.1253 117.944 14.2853 117.87 14.488C117.795 14.68 117.774 14.92 117.806 15.208C117.838 15.4853 117.939 15.6987 118.11 15.848C118.291 15.9867 118.504 16.0827 118.75 16.136C119.027 16.1893 119.32 16.1787 119.63 16.104C119.747 16.0827 119.848 16.0933 119.934 16.136C120.03 16.168 120.094 16.2587 120.126 16.408C120.158 16.5253 120.152 16.6213 120.11 16.696C120.067 16.76 120.003 16.8187 119.918 16.872C119.843 16.9147 119.747 16.9467 119.63 16.968C119.523 16.9893 119.416 17 119.31 17C119.224 17 119.134 17 119.038 17C118.952 17 118.867 16.9947 118.782 16.984C118.195 16.952 117.71 16.76 117.326 16.408C116.942 16.0453 116.776 15.512 116.83 14.808C116.862 14.136 117.091 13.6347 117.518 13.304C117.944 12.9733 118.542 12.808 119.31 12.808C119.79 12.808 120.227 12.8613 120.622 12.968C121.016 13.0747 121.4 13.256 121.774 13.512C121.774 13.128 121.747 12.7867 121.694 12.488C121.64 12.1787 121.539 11.9173 121.39 11.704C121.251 11.48 121.048 11.3147 120.782 11.208C120.526 11.0907 120.19 11.032 119.774 11.032C119.304 11.032 118.899 11.096 118.558 11.224C118.216 11.3413 117.907 11.4907 117.63 11.672C117.534 11.7253 117.422 11.736 117.294 11.704C117.176 11.6613 117.091 11.5867 117.038 11.48C116.92 11.288 116.947 11.112 117.118 10.952C117.288 10.792 117.523 10.6533 117.822 10.536C118.131 10.408 118.467 10.312 118.83 10.248C119.192 10.1733 119.507 10.136 119.774 10.136ZM127.227 10.136C127.835 10.136 128.358 10.2373 128.795 10.44L129.307 9.912C129.424 9.784 129.563 9.66667 129.723 9.56C129.894 9.45333 130.07 9.464 130.251 9.592C130.368 9.656 130.432 9.752 130.443 9.88C130.454 10.008 130.416 10.1147 130.331 10.2L129.547 11.016C129.984 11.528 130.203 12.28 130.203 13.272V16.536C130.203 16.6747 130.16 16.7867 130.075 16.872C129.99 16.9573 129.867 17 129.707 17C129.547 17 129.424 16.9573 129.339 16.872C129.254 16.7867 129.211 16.6747 129.211 16.536V14.536C129.115 14.408 128.976 14.2907 128.795 14.184C128.614 14.0667 128.416 13.9707 128.203 13.896C127.99 13.8213 127.766 13.7627 127.531 13.72C127.296 13.6773 127.067 13.656 126.843 13.656C126.598 13.656 126.374 13.6827 126.171 13.736C125.968 13.7893 125.792 13.88 125.643 14.008C125.504 14.1253 125.398 14.2853 125.323 14.488C125.248 14.68 125.227 14.92 125.259 15.208C125.291 15.4853 125.392 15.6987 125.563 15.848C125.744 15.9867 125.958 16.0827 126.203 16.136C126.48 16.1893 126.774 16.1787 127.083 16.104C127.2 16.0827 127.302 16.0933 127.387 16.136C127.483 16.168 127.547 16.2587 127.579 16.408C127.611 16.5253 127.606 16.6213 127.563 16.696C127.52 16.76 127.456 16.8187 127.371 16.872C127.296 16.9147 127.2 16.9467 127.083 16.968C126.976 16.9893 126.87 17 126.763 17C126.678 17 126.587 17 126.491 17C126.406 17 126.32 16.9947 126.235 16.984C125.648 16.952 125.163 16.76 124.779 16.408C124.395 16.0453 124.23 15.512 124.283 14.808C124.315 14.136 124.544 13.6347 124.971 13.304C125.398 12.9733 125.995 12.808 126.763 12.808C127.243 12.808 127.68 12.8613 128.075 12.968C128.47 13.0747 128.854 13.256 129.227 13.512C129.227 13.128 129.2 12.7867 129.147 12.488C129.094 12.1787 128.992 11.9173 128.843 11.704C128.704 11.48 128.502 11.3147 128.235 11.208C127.979 11.0907 127.643 11.032 127.227 11.032C126.758 11.032 126.352 11.096 126.011 11.224C125.67 11.3413 125.36 11.4907 125.083 11.672C124.987 11.7253 124.875 11.736 124.747 11.704C124.63 11.6613 124.544 11.5867 124.491 11.48C124.374 11.288 124.4 11.112 124.571 10.952C124.742 10.792 124.976 10.6533 125.275 10.536C125.584 10.408 125.92 10.312 126.283 10.248C126.646 10.1733 126.96 10.136 127.227 10.136ZM129.594 9C129.477 9 129.365 8.96267 129.258 8.888C129.152 8.80267 129.098 8.70133 129.098 8.584V7C129.098 6.88267 129.152 6.78667 129.258 6.712C129.365 6.62667 129.477 6.584 129.594 6.584C129.733 6.584 129.856 6.62667 129.962 6.712C130.058 6.78667 130.106 6.88267 130.106 7V8.584C130.106 8.70133 130.058 8.80267 129.962 8.888C129.856 8.96267 129.733 9 129.594 9ZM133.914 10.136C135.013 10.136 135.824 10.44 136.346 11.048C136.88 11.6453 137.146 12.488 137.146 13.576C137.146 14.6853 136.864 15.544 136.298 16.152C135.744 16.76 134.906 17.0427 133.786 17C133.637 17 133.418 16.968 133.13 16.904C132.842 16.8293 132.565 16.7387 132.298 16.632C132.032 16.5147 131.824 16.3867 131.674 16.248C131.525 16.0987 131.514 15.9387 131.642 15.768C131.696 15.6827 131.765 15.624 131.85 15.592C131.946 15.5493 132.037 15.5493 132.122 15.592C132.432 15.7413 132.72 15.8747 132.986 15.992C133.264 16.1093 133.573 16.168 133.914 16.168C134.682 16.168 135.248 15.944 135.61 15.496C135.984 15.048 136.17 14.408 136.17 13.576C136.17 12.7333 135.984 12.0933 135.61 11.656C135.237 11.208 134.672 10.984 133.914 10.984C133.637 10.984 133.376 11.0267 133.13 11.112C132.896 11.1867 132.656 11.2933 132.41 11.432C132.357 11.464 132.288 11.4907 132.202 11.512C132.128 11.5333 132.048 11.544 131.962 11.544C131.877 11.544 131.797 11.5227 131.722 11.48C131.658 11.4373 131.616 11.3573 131.594 11.24C131.541 11.0587 131.605 10.8987 131.786 10.76C131.978 10.6213 132.208 10.5093 132.474 10.424C132.741 10.328 133.013 10.2587 133.29 10.216C133.568 10.1627 133.776 10.136 133.914 10.136ZM144.357 16.536C144.357 16.6747 144.315 16.7867 144.229 16.872C144.155 16.9573 144.037 17 143.877 17C143.707 17 143.584 16.9573 143.509 16.872C143.435 16.7867 143.397 16.6747 143.397 16.536V15.976C143.152 16.296 142.827 16.552 142.421 16.744C142.016 16.9253 141.6 17.016 141.173 17.016C140.8 17.016 140.453 16.968 140.133 16.872C139.813 16.7653 139.536 16.6107 139.301 16.408C139.077 16.1947 138.901 15.9333 138.773 15.624C138.645 15.3147 138.581 14.9573 138.581 14.552V10.552C138.581 10.4347 138.624 10.3333 138.709 10.248C138.805 10.1627 138.928 10.12 139.077 10.12C139.227 10.12 139.344 10.1627 139.429 10.248C139.525 10.3333 139.573 10.4347 139.573 10.552V14.552C139.573 15.0747 139.733 15.4747 140.053 15.752C140.373 16.0187 140.8 16.152 141.333 16.152C141.557 16.152 141.776 16.1093 141.989 16.024C142.213 15.9387 142.416 15.8267 142.597 15.688C142.779 15.5387 142.939 15.368 143.077 15.176C143.216 14.9733 143.312 14.76 143.365 14.536V10.552C143.365 10.4347 143.408 10.3333 143.493 10.248C143.589 10.1627 143.712 10.12 143.861 10.12C144.011 10.12 144.128 10.1627 144.213 10.248C144.309 10.3333 144.357 10.4347 144.357 10.552V16.536ZM148.26 13.976C148.132 13.976 148.026 13.9387 147.94 13.864C147.866 13.7787 147.828 13.6773 147.828 13.56C147.828 13.4427 147.866 13.3467 147.94 13.272C148.026 13.1867 148.132 13.144 148.26 13.144H148.916C149.151 13.144 149.338 13.2133 149.476 13.352C149.615 13.48 149.722 13.6347 149.796 13.816C149.871 13.9973 149.919 14.184 149.94 14.376C149.962 14.5573 149.972 14.696 149.972 14.792C149.972 16.264 149.38 17 148.196 17H148.18C147.327 17 146.714 16.7013 146.34 16.104C145.978 15.5067 145.796 14.6747 145.796 13.608C145.796 13.3413 145.812 13.048 145.844 12.728C145.876 12.408 145.94 12.0987 146.036 11.8C146.132 11.5013 146.26 11.224 146.42 10.968C146.591 10.712 146.815 10.504 147.092 10.344C147.37 10.1947 147.663 10.1253 147.972 10.136C148.122 10.1467 148.292 10.2053 148.484 10.312L149.236 10.696L149.956 10.312C150.127 10.2373 150.33 10.1893 150.564 10.168C151.066 10.1253 151.455 10.28 151.732 10.632C152.02 10.984 152.164 11.5227 152.164 12.248V16.536C152.164 16.6747 152.122 16.7867 152.036 16.872C151.951 16.9573 151.828 17 151.668 17C151.508 17 151.386 16.9573 151.3 16.872C151.215 16.7867 151.172 16.6747 151.172 16.536V12.04C151.172 11.8693 151.151 11.7093 151.108 11.56C151.076 11.4107 151.018 11.288 150.932 11.192C150.847 11.096 150.74 11.0373 150.612 11.016C150.484 10.9947 150.33 11.0267 150.148 11.112C150.01 11.176 149.85 11.2667 149.668 11.384C149.498 11.4907 149.354 11.544 149.236 11.544C149.183 11.544 149.114 11.528 149.028 11.496C148.954 11.4533 148.868 11.4053 148.772 11.352C148.676 11.2987 148.58 11.2453 148.484 11.192C148.388 11.1387 148.303 11.096 148.228 11.064C148.015 10.9787 147.818 10.9893 147.636 11.096C147.466 11.192 147.316 11.3627 147.188 11.608C147.06 11.8427 146.959 12.136 146.884 12.488C146.81 12.8293 146.772 13.1973 146.772 13.592V13.608C146.772 14.376 146.895 14.9947 147.14 15.464C147.396 15.9227 147.748 16.152 148.196 16.152C148.388 16.152 148.543 16.0987 148.66 15.992C148.788 15.8853 148.884 15.752 148.948 15.592C149.023 15.432 149.066 15.256 149.076 15.064C149.098 14.872 149.092 14.696 149.06 14.536C149.028 14.376 148.975 14.2427 148.9 14.136C148.836 14.0293 148.751 13.976 148.644 13.976H148.26ZM149.705 9C149.502 9 149.31 8.96267 149.129 8.888C148.947 8.81333 148.798 8.712 148.681 8.584C148.553 8.456 148.462 8.30667 148.409 8.136C148.345 7.95467 148.339 7.75733 148.393 7.544C148.446 7.23467 148.633 7.096 148.953 7.128C149.059 7.14933 149.15 7.20267 149.225 7.288C149.289 7.36267 149.31 7.448 149.289 7.544C149.225 7.72533 149.257 7.88 149.385 8.008C149.502 8.136 149.651 8.2 149.833 8.2H152.809C152.937 8.2 153.033 8.24267 153.097 8.328C153.171 8.40267 153.209 8.49333 153.209 8.6C153.209 8.71733 153.171 8.81333 153.097 8.888C153.033 8.96267 152.937 9 152.809 9H149.705ZM155.977 10.136C157.075 10.136 157.886 10.44 158.409 11.048C158.942 11.6453 159.209 12.488 159.209 13.576C159.209 14.6853 158.926 15.544 158.361 16.152C157.806 16.76 156.969 17.0427 155.849 17C155.699 17 155.481 16.968 155.193 16.904C154.905 16.8293 154.627 16.7387 154.361 16.632C154.094 16.5147 153.886 16.3867 153.737 16.248C153.587 16.0987 153.577 15.9387 153.705 15.768C153.758 15.6827 153.827 15.624 153.913 15.592C154.009 15.5493 154.099 15.5493 154.185 15.592C154.494 15.7413 154.782 15.8747 155.049 15.992C155.326 16.1093 155.635 16.168 155.977 16.168C156.745 16.168 157.31 15.944 157.673 15.496C158.046 15.048 158.233 14.408 158.233 13.576C158.233 12.7333 158.046 12.0933 157.673 11.656C157.299 11.208 156.734 10.984 155.977 10.984C155.699 10.984 155.438 11.0267 155.193 11.112C154.958 11.1867 154.718 11.2933 154.473 11.432C154.419 11.464 154.35 11.4907 154.265 11.512C154.19 11.5333 154.11 11.544 154.025 11.544C153.939 11.544 153.859 11.5227 153.785 11.48C153.721 11.4373 153.678 11.3573 153.657 11.24C153.603 11.0587 153.667 10.8987 153.849 10.76C154.041 10.6213 154.27 10.5093 154.537 10.424C154.803 10.328 155.075 10.2587 155.353 10.216C155.63 10.1627 155.838 10.136 155.977 10.136ZM164.683 13.368L168.635 10.328C168.773 10.2213 168.923 10.1627 169.083 10.152C169.253 10.1413 169.376 10.1893 169.451 10.296C169.536 10.4133 169.552 10.536 169.499 10.664C169.456 10.792 169.387 10.8933 169.291 10.968L167.915 11.976C168.107 12.0187 168.288 12.088 168.459 12.184C168.629 12.2693 168.779 12.392 168.907 12.552C169.035 12.7013 169.136 12.8933 169.211 13.128C169.296 13.3627 169.339 13.64 169.339 13.96V16.472C169.339 16.824 169.173 17 168.843 17C168.512 17 168.347 16.824 168.347 16.472V13.944C168.347 13.5173 168.224 13.208 167.979 13.016C167.733 12.824 167.381 12.7227 166.923 12.712L164.683 14.376V16.568C164.683 16.6853 164.635 16.7867 164.539 16.872C164.453 16.9573 164.336 17 164.187 17C164.037 17 163.915 16.9573 163.819 16.872C163.733 16.7867 163.691 16.6853 163.691 16.568V10.552C163.691 10.4347 163.733 10.3333 163.819 10.248C163.915 10.1627 164.037 10.12 164.187 10.12C164.336 10.12 164.453 10.1627 164.539 10.248C164.635 10.3333 164.683 10.4347 164.683 10.552V13.368ZM176.381 10.136C176.53 10.136 176.647 10.1787 176.733 10.264C176.829 10.3387 176.877 10.4347 176.877 10.552V14.568C176.877 14.9733 176.807 15.3307 176.669 15.64C176.541 15.9387 176.354 16.1947 176.109 16.408C175.874 16.6107 175.591 16.7653 175.261 16.872C174.941 16.9787 174.589 17.032 174.205 17.032C173.789 17.032 173.367 16.9467 172.941 16.776C172.525 16.5947 172.178 16.3387 171.901 16.008V16.536C171.901 16.6747 171.863 16.7867 171.789 16.872C171.714 16.9573 171.591 17 171.421 17C171.261 17 171.138 16.9573 171.053 16.872C170.978 16.7867 170.941 16.6747 170.941 16.536V10.552C170.941 10.4347 170.983 10.3387 171.069 10.264C171.165 10.1787 171.287 10.136 171.437 10.136C171.586 10.136 171.703 10.1787 171.789 10.264C171.885 10.3387 171.933 10.4347 171.933 10.552V14.552C171.997 14.776 172.098 14.9893 172.237 15.192C172.386 15.384 172.557 15.5547 172.749 15.704C172.941 15.8427 173.149 15.9547 173.373 16.04C173.597 16.1253 173.821 16.168 174.045 16.168C174.301 16.168 174.535 16.136 174.749 16.072C174.973 16.008 175.17 15.912 175.341 15.784C175.511 15.6453 175.645 15.4747 175.741 15.272C175.837 15.0693 175.885 14.8293 175.885 14.552V10.552C175.885 10.4347 175.933 10.3387 176.029 10.264C176.125 10.1787 176.242 10.136 176.381 10.136ZM179.192 11.992C179.192 12.1093 179.144 12.2107 179.048 12.296C178.952 12.3813 178.84 12.424 178.712 12.424C178.563 12.424 178.445 12.3867 178.36 12.312C178.275 12.2373 178.232 12.1627 178.232 12.088C178.232 11.8107 178.301 11.5547 178.44 11.32C178.589 11.0853 178.776 10.8827 179 10.712C179.235 10.5307 179.501 10.392 179.8 10.296C180.099 10.1893 180.403 10.136 180.712 10.136C181.576 10.136 182.2 10.376 182.584 10.856C182.968 11.3253 183.16 11.9707 183.16 12.792V16.472C183.16 16.824 182.995 17 182.664 17C182.344 17 182.184 16.824 182.184 16.472V12.92C182.184 12.4933 182.141 12.152 182.056 11.896C181.971 11.64 181.859 11.448 181.72 11.32C181.581 11.1813 181.421 11.0907 181.24 11.048C181.069 10.9947 180.893 10.968 180.712 10.968C180.435 10.968 180.2 11.0107 180.008 11.096C179.816 11.1813 179.656 11.2827 179.528 11.4C179.411 11.5067 179.325 11.6187 179.272 11.736C179.219 11.8427 179.192 11.928 179.192 11.992ZM187.409 16.168C188.625 16.168 189.233 15.5653 189.233 14.36V10.552C189.233 10.4347 189.281 10.3387 189.377 10.264C189.473 10.1787 189.59 10.136 189.729 10.136C189.878 10.136 189.995 10.1787 190.081 10.264C190.177 10.3387 190.225 10.4347 190.225 10.552V14.36C190.225 15.288 189.979 15.9547 189.489 16.36C189.009 16.7653 188.315 16.9787 187.409 17C187.035 17 186.667 16.968 186.305 16.904C185.942 16.8293 185.617 16.7067 185.329 16.536C185.041 16.3653 184.817 16.136 184.657 15.848C184.497 15.5493 184.433 15.176 184.465 14.728C184.507 14.3867 184.619 14.0933 184.801 13.848C184.982 13.592 185.233 13.4053 185.553 13.288C185.179 13.192 184.902 13.0107 184.721 12.744C184.55 12.4667 184.465 12.1893 184.465 11.912C184.465 11.2827 184.641 10.8293 184.993 10.552C185.355 10.2747 185.867 10.136 186.529 10.136C186.689 10.136 186.849 10.1467 187.009 10.168C187.169 10.1893 187.307 10.2267 187.425 10.28C187.553 10.3227 187.643 10.3867 187.697 10.472C187.761 10.5467 187.771 10.648 187.729 10.776C187.707 10.8613 187.654 10.9413 187.569 11.016C187.483 11.0907 187.382 11.1013 187.265 11.048C187.083 10.9947 186.87 10.9627 186.625 10.952C186.241 10.9413 185.947 11.0107 185.745 11.16C185.553 11.2987 185.457 11.5547 185.457 11.928C185.457 12.12 185.499 12.28 185.585 12.408C185.681 12.536 185.798 12.6373 185.937 12.712C186.086 12.7867 186.246 12.84 186.417 12.872C186.598 12.904 186.774 12.92 186.945 12.92H187.473C187.59 12.92 187.681 12.968 187.745 13.064C187.809 13.1493 187.841 13.2507 187.841 13.368C187.841 13.464 187.798 13.5387 187.713 13.592C187.638 13.6347 187.537 13.672 187.409 13.704C187.291 13.7253 187.163 13.736 187.025 13.736C186.897 13.736 186.779 13.736 186.673 13.736C186.246 13.736 185.931 13.8533 185.729 14.088C185.526 14.312 185.435 14.6267 185.457 15.032C185.478 15.2773 185.547 15.4747 185.665 15.624C185.793 15.7733 185.947 15.8907 186.129 15.976C186.321 16.0507 186.529 16.104 186.753 16.136C186.977 16.1573 187.195 16.168 187.409 16.168ZM193.063 14.904C193.063 15.352 193.079 15.672 193.111 15.864C193.143 16.056 193.234 16.152 193.383 16.152C193.415 16.152 193.453 16.136 193.495 16.104C193.549 16.0613 193.602 16.024 193.655 15.992C193.719 15.96 193.789 15.9387 193.863 15.928C193.949 15.9067 194.039 15.9173 194.135 15.96C194.253 16.0133 194.322 16.104 194.343 16.232C194.375 16.3493 194.349 16.472 194.263 16.6C194.21 16.6853 194.135 16.76 194.039 16.824C193.943 16.8773 193.842 16.92 193.735 16.952C193.639 16.984 193.543 17.0053 193.447 17.016C193.351 17.0267 193.282 17.032 193.239 17.032C192.962 17.032 192.743 16.984 192.583 16.888C192.434 16.7813 192.322 16.6373 192.247 16.456C192.173 16.264 192.125 16.04 192.103 15.784C192.082 15.528 192.071 15.2453 192.071 14.936V10.6C192.071 10.4613 192.114 10.3493 192.199 10.264C192.285 10.1787 192.407 10.136 192.567 10.136C192.727 10.136 192.85 10.1787 192.935 10.264C193.021 10.3493 193.063 10.4613 193.063 10.6V14.904ZM198.196 10.136C199.252 10.136 200.009 10.4027 200.468 10.936C200.937 11.4587 201.172 12.2373 201.172 13.272V16.536C201.172 16.6747 201.129 16.7867 201.044 16.872C200.958 16.9573 200.836 17 200.676 17C200.516 17 200.393 16.9573 200.308 16.872C200.222 16.7867 200.18 16.6747 200.18 16.536V14.536C200.084 14.408 199.945 14.2907 199.764 14.184C199.582 14.0667 199.385 13.9707 199.172 13.896C198.958 13.8213 198.734 13.7627 198.5 13.72C198.265 13.6773 198.036 13.656 197.812 13.656C197.566 13.656 197.342 13.6827 197.14 13.736C196.937 13.7893 196.761 13.88 196.612 14.008C196.473 14.1253 196.366 14.2853 196.292 14.488C196.217 14.68 196.196 14.92 196.228 15.208C196.26 15.4853 196.361 15.6987 196.532 15.848C196.713 15.9867 196.926 16.0827 197.172 16.136C197.449 16.1893 197.742 16.1787 198.052 16.104C198.169 16.0827 198.27 16.0933 198.356 16.136C198.452 16.168 198.516 16.2587 198.548 16.408C198.58 16.5253 198.574 16.6213 198.532 16.696C198.489 16.76 198.425 16.8187 198.34 16.872C198.265 16.9147 198.169 16.9467 198.052 16.968C197.945 16.9893 197.838 17 197.732 17C197.646 17 197.556 17 197.46 17C197.374 17 197.289 16.9947 197.204 16.984C196.617 16.952 196.132 16.76 195.748 16.408C195.364 16.0453 195.198 15.512 195.252 14.808C195.284 14.136 195.513 13.6347 195.94 13.304C196.366 12.9733 196.964 12.808 197.732 12.808C198.212 12.808 198.649 12.8613 199.044 12.968C199.438 13.0747 199.822 13.256 200.196 13.512C200.196 13.128 200.169 12.7867 200.116 12.488C200.062 12.1787 199.961 11.9173 199.812 11.704C199.673 11.48 199.47 11.3147 199.204 11.208C198.948 11.0907 198.612 11.032 198.196 11.032C197.726 11.032 197.321 11.096 196.98 11.224C196.638 11.3413 196.329 11.4907 196.052 11.672C195.956 11.7253 195.844 11.736 195.716 11.704C195.598 11.6613 195.513 11.5867 195.46 11.48C195.342 11.288 195.369 11.112 195.54 10.952C195.71 10.792 195.945 10.6533 196.244 10.536C196.553 10.408 196.889 10.312 197.252 10.248C197.614 10.1733 197.929 10.136 198.196 10.136ZM205.249 17.032C204.385 17.032 203.729 16.7867 203.281 16.296C202.833 15.8053 202.609 15.1227 202.609 14.248V14.008C202.609 13.496 202.731 13.0373 202.977 12.632C203.222 12.2267 203.569 11.88 204.017 11.592C204.123 11.4853 204.155 11.3627 204.113 11.224C204.07 11.0747 203.942 11 203.729 11H203.105C202.827 11 202.689 10.8667 202.689 10.6C202.689 10.3333 202.827 10.2 203.105 10.2H203.777C203.841 10.2 203.937 10.2107 204.065 10.232C204.203 10.2533 204.337 10.296 204.465 10.36C204.603 10.424 204.721 10.52 204.817 10.648C204.923 10.776 204.977 10.952 204.977 11.176C204.977 11.5173 204.902 11.7787 204.753 11.96C204.603 12.1307 204.438 12.296 204.257 12.456C204.086 12.616 203.926 12.808 203.777 13.032C203.638 13.256 203.569 13.592 203.569 14.04C203.569 14.3707 203.595 14.6693 203.649 14.936C203.702 15.2027 203.793 15.4267 203.921 15.608C204.049 15.7893 204.219 15.9333 204.433 16.04C204.646 16.136 204.918 16.1893 205.249 16.2C205.43 16.2 205.617 16.1787 205.809 16.136C206.001 16.0827 206.177 15.9867 206.337 15.848C206.497 15.6987 206.625 15.496 206.721 15.24C206.827 14.984 206.881 14.6427 206.881 14.216V10.664C206.881 10.312 207.041 10.136 207.361 10.136C207.691 10.136 207.857 10.312 207.857 10.664V14.344C207.857 15.1653 207.638 15.8213 207.201 16.312C206.763 16.792 206.113 17.032 205.249 17.032ZM214.928 10.136C215.067 10.136 215.184 10.1787 215.28 10.264C215.376 10.3387 215.424 10.4347 215.424 10.552V14.312C215.424 14.76 215.35 15.1547 215.2 15.496C215.051 15.8267 214.843 16.104 214.576 16.328C214.31 16.552 213.995 16.7227 213.632 16.84C213.27 16.9467 212.875 17 212.448 17C212.043 17 211.659 16.9467 211.296 16.84C210.934 16.7227 210.614 16.552 210.336 16.328C210.07 16.104 209.856 15.8267 209.696 15.496C209.536 15.1547 209.456 14.76 209.456 14.312V10.552C209.456 10.4347 209.504 10.3387 209.6 10.264C209.696 10.1787 209.814 10.136 209.952 10.136C210.08 10.136 210.192 10.1787 210.288 10.264C210.395 10.3387 210.448 10.4347 210.448 10.552V14.312C210.448 14.7067 210.518 15.0267 210.656 15.272C210.795 15.5067 210.966 15.6933 211.168 15.832C211.371 15.96 211.584 16.0507 211.808 16.104C212.043 16.1467 212.256 16.168 212.448 16.168C212.63 16.168 212.832 16.1467 213.056 16.104C213.291 16.0507 213.51 15.96 213.712 15.832C213.915 15.6933 214.086 15.5067 214.224 15.272C214.363 15.0267 214.432 14.7067 214.432 14.312V10.552C214.432 10.4347 214.475 10.3387 214.56 10.264C214.656 10.1787 214.779 10.136 214.928 10.136ZM219.675 13.096C219.941 13.128 220.224 13.176 220.523 13.24C220.821 13.2933 221.099 13.3787 221.355 13.496C221.611 13.6133 221.824 13.7787 221.995 13.992C222.176 14.2053 222.277 14.4827 222.299 14.824C222.331 15.2507 222.267 15.608 222.107 15.896C221.947 16.1733 221.728 16.3973 221.451 16.568C221.184 16.728 220.869 16.84 220.507 16.904C220.155 16.968 219.792 17 219.419 17C219.035 17 218.651 16.9573 218.267 16.872C217.893 16.776 217.525 16.632 217.163 16.44C217.045 16.3867 216.955 16.2907 216.891 16.152C216.827 16.0027 216.853 15.864 216.971 15.736C217.056 15.6507 217.152 15.6027 217.259 15.592C217.376 15.5707 217.488 15.5867 217.595 15.64C217.723 15.7253 217.867 15.8 218.027 15.864C218.197 15.928 218.363 15.9867 218.523 16.04C218.693 16.0827 218.859 16.1147 219.019 16.136C219.179 16.1573 219.323 16.168 219.451 16.168C219.664 16.168 219.883 16.152 220.107 16.12C220.341 16.088 220.549 16.0293 220.731 15.944C220.912 15.8587 221.056 15.736 221.163 15.576C221.28 15.4053 221.328 15.1813 221.307 14.904C221.285 14.5733 221.131 14.3547 220.843 14.248C220.555 14.1413 220.149 14.0453 219.627 13.96C219.371 13.928 219.088 13.88 218.779 13.816C218.48 13.752 218.197 13.656 217.931 13.528C217.675 13.4 217.456 13.2293 217.275 13.016C217.093 12.8027 216.997 12.5307 216.987 12.2C216.955 11.784 217.013 11.4427 217.163 11.176C217.323 10.9093 217.536 10.7013 217.803 10.552C218.08 10.392 218.395 10.2853 218.747 10.232C219.099 10.168 219.461 10.136 219.835 10.136C220.208 10.136 220.565 10.184 220.907 10.28C221.248 10.376 221.589 10.5307 221.931 10.744C222.037 10.8187 222.096 10.9147 222.107 11.032C222.117 11.1493 222.091 11.256 222.027 11.352C221.973 11.4373 221.893 11.496 221.787 11.528C221.68 11.56 221.584 11.5493 221.499 11.496C221.243 11.3253 220.965 11.192 220.667 11.096C220.368 10.9893 220.075 10.936 219.787 10.936C219.595 10.936 219.392 10.9467 219.179 10.968C218.965 10.9787 218.763 11.0267 218.571 11.112C218.389 11.1867 218.24 11.304 218.123 11.464C218.005 11.6133 217.947 11.8267 217.947 12.104C217.957 12.296 218.021 12.4507 218.139 12.568C218.256 12.6853 218.4 12.7813 218.571 12.856C218.741 12.92 218.923 12.9733 219.115 13.016C219.317 13.048 219.504 13.0747 219.675 13.096ZM221.801 8.216C221.918 8.22667 222.009 8.27467 222.073 8.36C222.126 8.43467 222.153 8.52533 222.153 8.632C222.132 8.87733 221.988 9 221.721 9H216.777C216.51 9 216.366 8.87733 216.345 8.632C216.345 8.52533 216.377 8.43467 216.441 8.36C216.494 8.27467 216.58 8.22667 216.697 8.216H221.801ZM226.649 10.136C227.054 10.136 227.433 10.1947 227.785 10.312C228.137 10.4293 228.446 10.6107 228.713 10.856C228.98 11.1013 229.188 11.4107 229.337 11.784C229.486 12.1573 229.561 12.6 229.561 13.112V16.536C229.561 16.6747 229.518 16.7867 229.433 16.872C229.348 16.9573 229.225 17 229.065 17C228.905 17 228.782 16.9573 228.697 16.872C228.612 16.7867 228.569 16.6747 228.569 16.536V13.272C228.569 12.472 228.393 11.8907 228.041 11.528C227.7 11.1653 227.236 10.984 226.649 10.984C226.137 10.984 225.705 11.0693 225.353 11.24C225.001 11.4107 224.702 11.608 224.457 11.832C224.606 11.96 224.713 12.184 224.777 12.504C224.841 12.8133 224.873 13.16 224.873 13.544V16.536C224.873 16.6747 224.83 16.7867 224.745 16.872C224.66 16.9573 224.537 17 224.377 17C224.196 17 224.068 16.952 223.993 16.856C223.918 16.76 223.881 16.6533 223.881 16.536V13.384C223.881 12.936 223.838 12.584 223.753 12.328C223.678 12.072 223.572 11.864 223.433 11.704C223.54 11.5333 223.689 11.3573 223.881 11.176C224.084 10.9947 224.318 10.8293 224.585 10.68C224.862 10.52 225.172 10.392 225.513 10.296C225.854 10.1893 226.233 10.136 226.649 10.136ZM231.879 11.992C231.879 12.1093 231.831 12.2107 231.735 12.296C231.639 12.3813 231.527 12.424 231.399 12.424C231.25 12.424 231.133 12.3867 231.047 12.312C230.962 12.2373 230.919 12.1627 230.919 12.088C230.919 11.8107 230.989 11.5547 231.127 11.32C231.277 11.0853 231.463 10.8827 231.687 10.712C231.922 10.5307 232.189 10.392 232.487 10.296C232.786 10.1893 233.09 10.136 233.399 10.136C234.263 10.136 234.887 10.376 235.271 10.856C235.655 11.3253 235.847 11.9707 235.847 12.792V16.472C235.847 16.824 235.682 17 235.351 17C235.031 17 234.871 16.824 234.871 16.472V12.92C234.871 12.4933 234.829 12.152 234.743 11.896C234.658 11.64 234.546 11.448 234.407 11.32C234.269 11.1813 234.109 11.0907 233.927 11.048C233.757 10.9947 233.581 10.968 233.399 10.968C233.122 10.968 232.887 11.0107 232.695 11.096C232.503 11.1813 232.343 11.2827 232.215 11.4C232.098 11.5067 232.013 11.6187 231.959 11.736C231.906 11.8427 231.879 11.928 231.879 11.992ZM240.112 13.096C240.379 13.128 240.662 13.176 240.96 13.24C241.259 13.2933 241.536 13.3787 241.792 13.496C242.048 13.6133 242.262 13.7787 242.432 13.992C242.614 14.2053 242.715 14.4827 242.736 14.824C242.768 15.2507 242.704 15.608 242.544 15.896C242.384 16.1733 242.166 16.3973 241.888 16.568C241.622 16.728 241.307 16.84 240.944 16.904C240.592 16.968 240.23 17 239.856 17C239.472 17 239.088 16.9573 238.704 16.872C238.331 16.776 237.963 16.632 237.6 16.44C237.483 16.3867 237.392 16.2907 237.328 16.152C237.264 16.0027 237.291 15.864 237.408 15.736C237.494 15.6507 237.59 15.6027 237.696 15.592C237.814 15.5707 237.926 15.5867 238.032 15.64C238.16 15.7253 238.304 15.8 238.464 15.864C238.635 15.928 238.8 15.9867 238.96 16.04C239.131 16.0827 239.296 16.1147 239.456 16.136C239.616 16.1573 239.76 16.168 239.888 16.168C240.102 16.168 240.32 16.152 240.544 16.12C240.779 16.088 240.987 16.0293 241.168 15.944C241.35 15.8587 241.494 15.736 241.6 15.576C241.718 15.4053 241.766 15.1813 241.744 14.904C241.723 14.5733 241.568 14.3547 241.28 14.248C240.992 14.1413 240.587 14.0453 240.064 13.96C239.808 13.928 239.526 13.88 239.216 13.816C238.918 13.752 238.635 13.656 238.368 13.528C238.112 13.4 237.894 13.2293 237.712 13.016C237.531 12.8027 237.435 12.5307 237.424 12.2C237.392 11.784 237.451 11.4427 237.6 11.176C237.76 10.9093 237.974 10.7013 238.24 10.552C238.518 10.392 238.832 10.2853 239.184 10.232C239.536 10.168 239.899 10.136 240.272 10.136C240.646 10.136 241.003 10.184 241.344 10.28C241.686 10.376 242.027 10.5307 242.368 10.744C242.475 10.8187 242.534 10.9147 242.544 11.032C242.555 11.1493 242.528 11.256 242.464 11.352C242.411 11.4373 242.331 11.496 242.224 11.528C242.118 11.56 242.022 11.5493 241.936 11.496C241.68 11.3253 241.403 11.192 241.104 11.096C240.806 10.9893 240.512 10.936 240.224 10.936C240.032 10.936 239.83 10.9467 239.616 10.968C239.403 10.9787 239.2 11.0267 239.008 11.112C238.827 11.1867 238.678 11.304 238.56 11.464C238.443 11.6133 238.384 11.8267 238.384 12.104C238.395 12.296 238.459 12.4507 238.576 12.568C238.694 12.6853 238.838 12.7813 239.008 12.856C239.179 12.92 239.36 12.9733 239.552 13.016C239.755 13.048 239.942 13.0747 240.112 13.096ZM248.47 14.904C248.47 15.352 248.486 15.672 248.518 15.864C248.55 16.056 248.64 16.152 248.789 16.152C248.822 16.152 248.859 16.136 248.902 16.104C248.955 16.0613 249.008 16.024 249.062 15.992C249.126 15.96 249.195 15.9387 249.27 15.928C249.355 15.9067 249.446 15.9173 249.542 15.96C249.659 16.0133 249.728 16.104 249.75 16.232C249.782 16.3493 249.755 16.472 249.67 16.6C249.616 16.6853 249.542 16.76 249.446 16.824C249.35 16.8773 249.248 16.92 249.142 16.952C249.046 16.984 248.95 17.0053 248.854 17.016C248.758 17.0267 248.688 17.032 248.646 17.032C248.368 17.032 248.15 16.984 247.99 16.888C247.84 16.7813 247.728 16.6373 247.654 16.456C247.579 16.264 247.531 16.04 247.51 15.784C247.488 15.528 247.478 15.2453 247.478 14.936V10.6C247.478 10.4613 247.52 10.3493 247.606 10.264C247.691 10.1787 247.814 10.136 247.974 10.136C248.134 10.136 248.256 10.1787 248.342 10.264C248.427 10.3493 248.47 10.4613 248.47 10.6V14.904ZM251.638 14.904C251.638 15.352 251.654 15.672 251.686 15.864C251.718 16.056 251.808 16.152 251.958 16.152C251.99 16.152 252.027 16.136 252.07 16.104C252.123 16.0613 252.176 16.024 252.23 15.992C252.294 15.96 252.363 15.9387 252.438 15.928C252.523 15.9067 252.614 15.9173 252.71 15.96C252.827 16.0133 252.896 16.104 252.918 16.232C252.95 16.3493 252.923 16.472 252.838 16.6C252.784 16.6853 252.71 16.76 252.614 16.824C252.518 16.8773 252.416 16.92 252.31 16.952C252.214 16.984 252.118 17.0053 252.022 17.016C251.926 17.0267 251.856 17.032 251.814 17.032C251.536 17.032 251.318 16.984 251.158 16.888C251.008 16.7813 250.896 16.6373 250.822 16.456C250.747 16.264 250.699 16.04 250.678 15.784C250.656 15.528 250.646 15.2453 250.646 14.936V10.6C250.646 10.4613 250.688 10.3493 250.774 10.264C250.859 10.1787 250.982 10.136 251.141 10.136C251.302 10.136 251.424 10.1787 251.51 10.264C251.595 10.3493 251.638 10.4613 251.638 10.6V14.904ZM256.566 17C256.128 17 255.782 16.9253 255.526 16.776C255.27 16.616 255.067 16.408 254.918 16.152C254.779 15.8853 254.683 15.5813 254.63 15.24C254.576 14.8987 254.534 14.5413 254.502 14.168H254.054C253.808 14.168 253.686 14.0347 253.686 13.768C253.686 13.6507 253.718 13.56 253.782 13.496C253.846 13.4213 253.936 13.384 254.054 13.384H255.094C255.211 13.384 255.296 13.416 255.35 13.48C255.403 13.544 255.43 13.624 255.43 13.72C255.43 13.9973 255.435 14.2853 255.446 14.584C255.467 14.872 255.515 15.1333 255.59 15.368C255.664 15.6027 255.776 15.7947 255.926 15.944C256.086 16.0933 256.304 16.168 256.582 16.168C256.848 16.168 257.062 16.0987 257.222 15.96C257.392 15.8107 257.52 15.6133 257.606 15.368C257.691 15.1227 257.75 14.84 257.782 14.52C257.814 14.1893 257.83 13.8427 257.83 13.48C257.83 13.128 257.814 12.8027 257.782 12.504C257.76 12.1947 257.696 11.928 257.59 11.704C257.483 11.48 257.318 11.304 257.094 11.176C256.87 11.048 256.566 10.984 256.182 10.984C255.766 10.984 255.392 11.0533 255.062 11.192C254.742 11.32 254.448 11.5013 254.182 11.736C254.096 11.7893 253.99 11.8107 253.862 11.8C253.734 11.7893 253.638 11.736 253.574 11.64C253.488 11.5333 253.462 11.4213 253.494 11.304C253.526 11.1867 253.59 11.096 253.686 11.032C254.059 10.7227 254.443 10.4933 254.838 10.344C255.243 10.1947 255.691 10.12 256.182 10.12C256.704 10.12 257.131 10.1947 257.462 10.344C257.803 10.4827 258.07 10.6907 258.262 10.968C258.464 11.2453 258.603 11.592 258.678 12.008C258.763 12.4133 258.806 12.8827 258.806 13.416C258.806 13.8533 258.774 14.2907 258.71 14.728C258.656 15.1547 258.55 15.5387 258.39 15.88C258.23 16.2107 258 16.4827 257.702 16.696C257.414 16.8987 257.035 17 256.566 17ZM259.053 6.792C259.234 6.792 259.352 6.84 259.405 6.936C259.458 7.02133 259.474 7.12267 259.453 7.24C259.378 7.60267 259.245 7.90133 259.053 8.136C258.861 8.37067 258.632 8.552 258.365 8.68C258.098 8.808 257.81 8.89867 257.501 8.952C257.181 8.99467 256.872 9.00533 256.573 8.984C256.456 8.97333 256.338 8.96267 256.221 8.952C256.093 8.94133 255.981 8.92533 255.885 8.904C255.725 8.86133 255.634 8.78667 255.613 8.68C255.592 8.56267 255.581 8.43467 255.581 8.296V7.736H255.293C255.122 7.736 254.984 7.70933 254.877 7.656C254.76 7.60267 254.701 7.48 254.701 7.288C254.701 7.096 254.765 6.984 254.893 6.952C255.021 6.90933 255.165 6.888 255.325 6.888H256.013C256.226 6.888 256.36 6.952 256.413 7.08C256.466 7.19733 256.493 7.30933 256.493 7.416V8.168C256.685 8.17867 256.882 8.17867 257.085 8.168C257.277 8.14667 257.464 8.104 257.645 8.04C257.826 7.976 257.992 7.88533 258.141 7.768C258.28 7.65067 258.392 7.49067 258.477 7.288C258.53 7.17067 258.6 7.05867 258.685 6.952C258.77 6.84533 258.893 6.792 259.053 6.792ZM263.405 10.136C263.821 10.168 264.184 10.2853 264.493 10.488C264.802 10.68 265.053 10.9307 265.245 11.24C265.437 11.5493 265.576 11.9067 265.661 12.312C265.757 12.7067 265.8 13.1173 265.789 13.544C265.768 13.992 265.714 14.424 265.629 14.84C265.554 15.256 265.41 15.624 265.197 15.944C264.994 16.264 264.712 16.52 264.349 16.712C263.997 16.904 263.533 17 262.957 17C262.541 17 262.184 16.9307 261.885 16.792C261.586 16.6427 261.325 16.4133 261.101 16.104C260.877 15.7947 260.68 15.4 260.509 14.92C260.338 14.44 260.178 13.864 260.029 13.192C260.008 13.0853 260.034 12.9893 260.109 12.904C260.194 12.8187 260.296 12.7653 260.413 12.744C260.541 12.712 260.658 12.7227 260.765 12.776C260.882 12.8187 260.957 12.8987 260.989 13.016C261.117 13.5067 261.24 13.9493 261.357 14.344C261.474 14.728 261.602 15.0587 261.741 15.336C261.89 15.6027 262.061 15.8107 262.253 15.96C262.456 16.0987 262.701 16.168 262.989 16.168C263.341 16.168 263.629 16.0987 263.853 15.96C264.088 15.8213 264.269 15.64 264.397 15.416C264.536 15.1813 264.632 14.9093 264.685 14.6C264.738 14.28 264.77 13.944 264.781 13.592C264.792 13.368 264.781 13.112 264.749 12.824C264.717 12.536 264.648 12.264 264.541 12.008C264.445 11.7413 264.301 11.5173 264.109 11.336C263.917 11.144 263.672 11.032 263.373 11C263.224 10.9893 263.026 10.984 262.781 10.984C262.546 10.984 262.344 11.0107 262.173 11.064C262.077 11.0853 261.976 11.0693 261.869 11.016C261.773 10.952 261.714 10.8667 261.693 10.76C261.629 10.6 261.661 10.4773 261.789 10.392C261.928 10.3067 262.098 10.2427 262.301 10.2C262.504 10.1573 262.712 10.136 262.925 10.136C263.138 10.136 263.298 10.136 263.405 10.136ZM268.47 14.904C268.47 15.352 268.486 15.672 268.518 15.864C268.55 16.056 268.64 16.152 268.789 16.152C268.822 16.152 268.859 16.136 268.902 16.104C268.955 16.0613 269.008 16.024 269.062 15.992C269.126 15.96 269.195 15.9387 269.27 15.928C269.355 15.9067 269.446 15.9173 269.542 15.96C269.659 16.0133 269.728 16.104 269.75 16.232C269.782 16.3493 269.755 16.472 269.67 16.6C269.616 16.6853 269.542 16.76 269.446 16.824C269.35 16.8773 269.248 16.92 269.142 16.952C269.046 16.984 268.95 17.0053 268.854 17.016C268.758 17.0267 268.688 17.032 268.646 17.032C268.368 17.032 268.15 16.984 267.99 16.888C267.84 16.7813 267.728 16.6373 267.654 16.456C267.579 16.264 267.531 16.04 267.51 15.784C267.488 15.528 267.478 15.2453 267.478 14.936V10.6C267.478 10.4613 267.52 10.3493 267.606 10.264C267.691 10.1787 267.814 10.136 267.974 10.136C268.134 10.136 268.256 10.1787 268.342 10.264C268.427 10.3493 268.47 10.4613 268.47 10.6V14.904ZM273.026 13.976C272.898 13.976 272.791 13.9387 272.706 13.864C272.631 13.7787 272.594 13.6773 272.594 13.56C272.594 13.4427 272.631 13.3467 272.706 13.272C272.791 13.1867 272.898 13.144 273.026 13.144H273.682C273.917 13.144 274.103 13.2133 274.242 13.352C274.381 13.48 274.487 13.6347 274.562 13.816C274.637 13.9973 274.685 14.184 274.706 14.376C274.727 14.5573 274.738 14.696 274.738 14.792C274.738 16.264 274.146 17 272.962 17H272.946C272.093 17 271.479 16.7013 271.106 16.104C270.743 15.5067 270.562 14.6747 270.562 13.608C270.562 13.3413 270.578 13.048 270.61 12.728C270.642 12.408 270.706 12.0987 270.802 11.8C270.898 11.5013 271.026 11.224 271.186 10.968C271.357 10.712 271.581 10.504 271.858 10.344C272.135 10.1947 272.429 10.1253 272.738 10.136C272.887 10.1467 273.058 10.2053 273.25 10.312L274.002 10.696L274.722 10.312C274.893 10.2373 275.095 10.1893 275.33 10.168C275.831 10.1253 276.221 10.28 276.498 10.632C276.786 10.984 276.93 11.5227 276.93 12.248V16.536C276.93 16.6747 276.887 16.7867 276.802 16.872C276.717 16.9573 276.594 17 276.434 17C276.274 17 276.151 16.9573 276.066 16.872C275.981 16.7867 275.938 16.6747 275.938 16.536V12.04C275.938 11.8693 275.917 11.7093 275.874 11.56C275.842 11.4107 275.783 11.288 275.698 11.192C275.613 11.096 275.506 11.0373 275.378 11.016C275.25 10.9947 275.095 11.0267 274.914 11.112C274.775 11.176 274.615 11.2667 274.434 11.384C274.263 11.4907 274.119 11.544 274.002 11.544C273.949 11.544 273.879 11.528 273.794 11.496C273.719 11.4533 273.634 11.4053 273.538 11.352C273.442 11.2987 273.346 11.2453 273.25 11.192C273.154 11.1387 273.069 11.096 272.994 11.064C272.781 10.9787 272.583 10.9893 272.402 11.096C272.231 11.192 272.082 11.3627 271.954 11.608C271.826 11.8427 271.725 12.136 271.65 12.488C271.575 12.8293 271.538 13.1973 271.538 13.592V13.608C271.538 14.376 271.661 14.9947 271.906 15.464C272.162 15.9227 272.514 16.152 272.962 16.152C273.154 16.152 273.309 16.0987 273.426 15.992C273.554 15.8853 273.65 15.752 273.714 15.592C273.789 15.432 273.831 15.256 273.842 15.064C273.863 14.872 273.858 14.696 273.826 14.536C273.794 14.376 273.741 14.2427 273.666 14.136C273.602 14.0293 273.517 13.976 273.41 13.976H273.026ZM276.934 8.6C276.934 8.71733 276.897 8.81333 276.822 8.888C276.737 8.96267 276.625 9 276.486 9H271.558C271.441 9 271.345 8.95733 271.27 8.872C271.196 8.78667 271.153 8.68533 271.142 8.568C271.132 8.46133 271.169 8.36 271.254 8.264C271.329 8.15733 271.425 8.09867 271.542 8.088L274.198 8.072V7.448C274.198 7.32 274.23 7.21867 274.294 7.144C274.358 7.05867 274.476 7.016 274.646 7.016C274.764 7.016 274.865 7.05333 274.95 7.128C275.036 7.192 275.078 7.28267 275.078 7.4V8.072H276.038V7.464C276.038 7.336 276.07 7.22933 276.134 7.144C276.198 7.05867 276.316 7.016 276.486 7.016C276.614 7.016 276.721 7.05333 276.806 7.128C276.892 7.192 276.934 7.28267 276.934 7.4V8.6ZM281.286 10.136C281.83 10.136 282.3 10.2213 282.694 10.392C283.1 10.552 283.436 10.7813 283.702 11.08C283.969 11.3787 284.166 11.7413 284.294 12.168C284.422 12.584 284.486 13.0533 284.486 13.576C284.486 14.0347 284.433 14.472 284.326 14.888C284.23 15.304 284.065 15.672 283.83 15.992C283.596 16.3013 283.281 16.552 282.886 16.744C282.502 16.9253 282.028 17.016 281.462 17.016C280.918 17.016 280.444 16.936 280.038 16.776C279.633 16.616 279.308 16.3867 279.062 16.088C278.817 15.7893 278.646 15.4373 278.55 15.032C278.454 14.616 278.438 14.1573 278.502 13.656C278.513 13.5707 278.55 13.4907 278.614 13.416C278.689 13.3413 278.801 13.304 278.95 13.304H281.046C281.164 13.304 281.254 13.3413 281.318 13.416C281.382 13.48 281.414 13.5707 281.414 13.688C281.414 13.9547 281.292 14.088 281.046 14.088H279.414C279.372 14.76 279.526 15.2773 279.878 15.64C280.23 15.992 280.758 16.168 281.462 16.168C282.166 16.168 282.678 15.944 282.998 15.496C283.329 15.048 283.505 14.4133 283.526 13.592C283.516 12.8027 283.334 12.1733 282.982 11.704C282.641 11.224 282.076 10.984 281.286 10.984C280.87 10.984 280.481 11.0533 280.118 11.192C279.766 11.3307 279.414 11.5173 279.062 11.752C278.977 11.7947 278.886 11.8053 278.79 11.784C278.705 11.7627 278.636 11.7147 278.582 11.64C278.454 11.4587 278.46 11.288 278.598 11.128C278.758 10.9573 278.945 10.808 279.158 10.68C279.372 10.552 279.596 10.4507 279.83 10.376C280.065 10.2907 280.305 10.232 280.55 10.2C280.806 10.1573 281.052 10.136 281.286 10.136ZM291.623 16.536C291.623 16.6747 291.58 16.7867 291.495 16.872C291.42 16.9573 291.303 17 291.143 17C290.972 17 290.85 16.9573 290.775 16.872C290.7 16.7867 290.663 16.6747 290.663 16.536V15.976C290.418 16.296 290.092 16.552 289.687 16.744C289.282 16.9253 288.866 17.016 288.439 17.016C288.066 17.016 287.719 16.968 287.399 16.872C287.079 16.7653 286.802 16.6107 286.567 16.408C286.343 16.1947 286.167 15.9333 286.039 15.624C285.911 15.3147 285.847 14.9573 285.847 14.552V10.552C285.847 10.4347 285.89 10.3333 285.975 10.248C286.071 10.1627 286.194 10.12 286.343 10.12C286.492 10.12 286.61 10.1627 286.695 10.248C286.791 10.3333 286.839 10.4347 286.839 10.552V14.552C286.839 15.0747 286.999 15.4747 287.319 15.752C287.639 16.0187 288.066 16.152 288.599 16.152C288.823 16.152 289.042 16.1093 289.255 16.024C289.479 15.9387 289.682 15.8267 289.863 15.688C290.044 15.5387 290.204 15.368 290.343 15.176C290.482 14.9733 290.578 14.76 290.631 14.536V10.552C290.631 10.4347 290.674 10.3333 290.759 10.248C290.855 10.1627 290.978 10.12 291.127 10.12C291.276 10.12 291.394 10.1627 291.479 10.248C291.575 10.3333 291.623 10.4347 291.623 10.552V16.536ZM62.032 34.904C62.032 35.352 62.048 35.672 62.08 35.864C62.112 36.056 62.2027 36.152 62.352 36.152C62.384 36.152 62.4213 36.136 62.464 36.104C62.5173 36.0613 62.5707 36.024 62.624 35.992C62.688 35.96 62.7573 35.9387 62.832 35.928C62.9173 35.9067 63.008 35.9173 63.104 35.96C63.2213 36.0133 63.2907 36.104 63.312 36.232C63.344 36.3493 63.3173 36.472 63.232 36.6C63.1787 36.6853 63.104 36.76 63.008 36.824C62.912 36.8773 62.8107 36.92 62.704 36.952C62.608 36.984 62.512 37.0053 62.416 37.016C62.32 37.0267 62.2507 37.032 62.208 37.032C61.9307 37.032 61.712 36.984 61.552 36.888C61.4027 36.7813 61.2907 36.6373 61.216 36.456C61.1413 36.264 61.0933 36.04 61.072 35.784C61.0507 35.528 61.04 35.2453 61.04 34.936V30.6C61.04 30.4613 61.0827 30.3493 61.168 30.264C61.2533 30.1787 61.376 30.136 61.536 30.136C61.696 30.136 61.8187 30.1787 61.904 30.264C61.9893 30.3493 62.032 30.4613 62.032 30.6V34.904ZM65.2 34.904C65.2 35.352 65.216 35.672 65.248 35.864C65.28 36.056 65.3707 36.152 65.52 36.152C65.552 36.152 65.5893 36.136 65.632 36.104C65.6853 36.0613 65.7387 36.024 65.792 35.992C65.856 35.96 65.9253 35.9387 66 35.928C66.0853 35.9067 66.176 35.9173 66.272 35.96C66.3893 36.0133 66.4587 36.104 66.48 36.232C66.512 36.3493 66.4853 36.472 66.4 36.6C66.3467 36.6853 66.272 36.76 66.176 36.824C66.08 36.8773 65.9787 36.92 65.872 36.952C65.776 36.984 65.68 37.0053 65.584 37.016C65.488 37.0267 65.4187 37.032 65.376 37.032C65.0987 37.032 64.88 36.984 64.72 36.888C64.5707 36.7813 64.4587 36.6373 64.384 36.456C64.3093 36.264 64.2613 36.04 64.24 35.784C64.2187 35.528 64.208 35.2453 64.208 34.936V30.6C64.208 30.4613 64.2507 30.3493 64.336 30.264C64.4213 30.1787 64.544 30.136 64.704 30.136C64.864 30.136 64.9867 30.1787 65.072 30.264C65.1573 30.3493 65.2 30.4613 65.2 30.6V34.904ZM70.3363 30.136C71.3923 30.136 72.1496 30.4027 72.6083 30.936C73.0776 31.4587 73.3123 32.2373 73.3123 33.272V36.536C73.3123 36.6747 73.2696 36.7867 73.1843 36.872C73.0989 36.9573 72.9763 37 72.8163 37C72.6563 37 72.5336 36.9573 72.4483 36.872C72.3629 36.7867 72.3203 36.6747 72.3203 36.536V34.536C72.2243 34.408 72.0856 34.2907 71.9043 34.184C71.7229 34.0667 71.5256 33.9707 71.3123 33.896C71.0989 33.8213 70.8749 33.7627 70.6403 33.72C70.4056 33.6773 70.1763 33.656 69.9523 33.656C69.7069 33.656 69.4829 33.6827 69.2803 33.736C69.0776 33.7893 68.9016 33.88 68.7523 34.008C68.6136 34.1253 68.5069 34.2853 68.4323 34.488C68.3576 34.68 68.3363 34.92 68.3683 35.208C68.4003 35.4853 68.5016 35.6987 68.6723 35.848C68.8536 35.9867 69.0669 36.0827 69.3123 36.136C69.5896 36.1893 69.8829 36.1787 70.1923 36.104C70.3096 36.0827 70.4109 36.0933 70.4963 36.136C70.5923 36.168 70.6563 36.2587 70.6883 36.408C70.7203 36.5253 70.7149 36.6213 70.6723 36.696C70.6296 36.76 70.5656 36.8187 70.4803 36.872C70.4056 36.9147 70.3096 36.9467 70.1923 36.968C70.0856 36.9893 69.9789 37 69.8723 37C69.7869 37 69.6963 37 69.6003 37C69.5149 37 69.4296 36.9947 69.3443 36.984C68.7576 36.952 68.2723 36.76 67.8883 36.408C67.5043 36.0453 67.3389 35.512 67.3923 34.808C67.4243 34.136 67.6536 33.6347 68.0803 33.304C68.5069 32.9733 69.1043 32.808 69.8723 32.808C70.3523 32.808 70.7896 32.8613 71.1843 32.968C71.5789 33.0747 71.9629 33.256 72.3363 33.512C72.3363 33.128 72.3096 32.7867 72.2563 32.488C72.2029 32.1787 72.1016 31.9173 71.9523 31.704C71.8136 31.48 71.6109 31.3147 71.3443 31.208C71.0883 31.0907 70.7523 31.032 70.3363 31.032C69.8669 31.032 69.4616 31.096 69.1203 31.224C68.7789 31.3413 68.4696 31.4907 68.1923 31.672C68.0963 31.7253 67.9843 31.736 67.8563 31.704C67.7389 31.6613 67.6536 31.5867 67.6003 31.48C67.4829 31.288 67.5096 31.112 67.6803 30.952C67.8509 30.792 68.0856 30.6533 68.3843 30.536C68.6936 30.408 69.0296 30.312 69.3923 30.248C69.7549 30.1733 70.0696 30.136 70.3363 30.136ZM76.3654 32.952C75.992 32.952 75.6507 32.8933 75.3414 32.776C75.0427 32.6587 74.8507 32.424 74.7654 32.072C74.744 31.976 74.7387 31.8693 74.7494 31.752C74.76 31.624 74.7867 31.512 74.8294 31.416C74.8827 31.3093 74.9467 31.2293 75.0214 31.176C75.1067 31.112 75.2134 31.096 75.3414 31.128C75.4587 31.1493 75.5494 31.2027 75.6134 31.288C75.6774 31.3627 75.6987 31.448 75.6774 31.544C75.624 31.7147 75.64 31.8587 75.7254 31.976C75.8214 32.0933 75.9654 32.152 76.1574 32.152H78.0774C78.1947 32.152 78.2907 32.1893 78.3654 32.264C78.4507 32.328 78.4934 32.4187 78.4934 32.536C78.4934 32.6533 78.456 32.7547 78.3814 32.84C78.3067 32.9147 78.2054 32.952 78.0774 32.952H76.3654ZM76.3654 36.28C75.992 36.28 75.6507 36.2213 75.3414 36.104C75.0427 35.9867 74.8507 35.752 74.7654 35.4C74.744 35.304 74.7387 35.1973 74.7494 35.08C74.76 34.952 74.7867 34.84 74.8294 34.744C74.8827 34.6373 74.9467 34.5573 75.0214 34.504C75.1067 34.44 75.2134 34.424 75.3414 34.456C75.4587 34.4773 75.5494 34.5307 75.6134 34.616C75.6774 34.6907 75.6987 34.776 75.6774 34.872C75.624 35.0427 75.64 35.1867 75.7254 35.304C75.8214 35.4213 75.9654 35.48 76.1574 35.48H78.0774C78.1947 35.48 78.2907 35.5173 78.3654 35.592C78.4507 35.656 78.4934 35.7467 78.4934 35.864C78.4934 35.9813 78.456 36.0827 78.3814 36.168C78.3067 36.2427 78.2054 36.28 78.0774 36.28H76.3654ZM85.4126 30.136C85.5513 30.136 85.6686 30.1787 85.7646 30.264C85.8606 30.3387 85.9086 30.4347 85.9086 30.552V34.312C85.9086 34.76 85.834 35.1547 85.6846 35.496C85.5353 35.8267 85.3273 36.104 85.0606 36.328C84.794 36.552 84.4793 36.7227 84.1166 36.84C83.754 36.9467 83.3593 37 82.9326 37C82.5273 37 82.1433 36.9467 81.7806 36.84C81.418 36.7227 81.098 36.552 80.8206 36.328C80.554 36.104 80.3406 35.8267 80.1806 35.496C80.0206 35.1547 79.9406 34.76 79.9406 34.312V30.552C79.9406 30.4347 79.9886 30.3387 80.0846 30.264C80.1806 30.1787 80.298 30.136 80.4366 30.136C80.5646 30.136 80.6766 30.1787 80.7726 30.264C80.8793 30.3387 80.9326 30.4347 80.9326 30.552V34.312C80.9326 34.7067 81.002 35.0267 81.1406 35.272C81.2793 35.5067 81.45 35.6933 81.6526 35.832C81.8553 35.96 82.0686 36.0507 82.2926 36.104C82.5273 36.1467 82.7406 36.168 82.9326 36.168C83.114 36.168 83.3166 36.1467 83.5406 36.104C83.7753 36.0507 83.994 35.96 84.1966 35.832C84.3993 35.6933 84.57 35.5067 84.7086 35.272C84.8473 35.0267 84.9166 34.7067 84.9166 34.312V30.552C84.9166 30.4347 84.9593 30.3387 85.0446 30.264C85.1406 30.1787 85.2633 30.136 85.4126 30.136ZM90.1591 33.096C90.4258 33.128 90.7085 33.176 91.0071 33.24C91.3058 33.2933 91.5831 33.3787 91.8391 33.496C92.0951 33.6133 92.3085 33.7787 92.4791 33.992C92.6605 34.2053 92.7618 34.4827 92.7831 34.824C92.8151 35.2507 92.7511 35.608 92.5911 35.896C92.4311 36.1733 92.2125 36.3973 91.9351 36.568C91.6685 36.728 91.3538 36.84 90.9911 36.904C90.6391 36.968 90.2765 37 89.9031 37C89.5191 37 89.1351 36.9573 88.7511 36.872C88.3778 36.776 88.0098 36.632 87.6471 36.44C87.5298 36.3867 87.4391 36.2907 87.3751 36.152C87.3111 36.0027 87.3378 35.864 87.4551 35.736C87.5405 35.6507 87.6365 35.6027 87.7431 35.592C87.8605 35.5707 87.9725 35.5867 88.0791 35.64C88.2071 35.7253 88.3511 35.8 88.5111 35.864C88.6818 35.928 88.8471 35.9867 89.0071 36.04C89.1778 36.0827 89.3431 36.1147 89.5031 36.136C89.6631 36.1573 89.8071 36.168 89.9351 36.168C90.1485 36.168 90.3671 36.152 90.5911 36.12C90.8258 36.088 91.0338 36.0293 91.2151 35.944C91.3965 35.8587 91.5405 35.736 91.6471 35.576C91.7645 35.4053 91.8125 35.1813 91.7911 34.904C91.7698 34.5733 91.6151 34.3547 91.3271 34.248C91.0391 34.1413 90.6338 34.0453 90.1111 33.96C89.8551 33.928 89.5725 33.88 89.2631 33.816C88.9645 33.752 88.6818 33.656 88.4151 33.528C88.1591 33.4 87.9405 33.2293 87.7591 33.016C87.5778 32.8027 87.4818 32.5307 87.4711 32.2C87.4391 31.784 87.4978 31.4427 87.6471 31.176C87.8071 30.9093 88.0205 30.7013 88.2871 30.552C88.5645 30.392 88.8791 30.2853 89.2311 30.232C89.5831 30.168 89.9458 30.136 90.3191 30.136C90.6925 30.136 91.0498 30.184 91.3911 30.28C91.7325 30.376 92.0738 30.5307 92.4151 30.744C92.5218 30.8187 92.5805 30.9147 92.5911 31.032C92.6018 31.1493 92.5751 31.256 92.5111 31.352C92.4578 31.4373 92.3778 31.496 92.2711 31.528C92.1645 31.56 92.0685 31.5493 91.9831 31.496C91.7271 31.3253 91.4498 31.192 91.1511 31.096C90.8525 30.9893 90.5591 30.936 90.2711 30.936C90.0791 30.936 89.8765 30.9467 89.6631 30.968C89.4498 30.9787 89.2471 31.0267 89.0551 31.112C88.8738 31.1867 88.7245 31.304 88.6071 31.464C88.4898 31.6133 88.4311 31.8267 88.4311 32.104C88.4418 32.296 88.5058 32.4507 88.6231 32.568C88.7405 32.6853 88.8845 32.7813 89.0551 32.856C89.2258 32.92 89.4071 32.9733 89.5991 33.016C89.8018 33.048 89.9885 33.0747 90.1591 33.096ZM92.2855 28.216C92.4028 28.2267 92.4935 28.2747 92.5575 28.36C92.6108 28.4347 92.6375 28.5253 92.6375 28.632C92.6162 28.8773 92.4722 29 92.2055 29H87.2615C86.9948 29 86.8508 28.8773 86.8295 28.632C86.8295 28.5253 86.8615 28.4347 86.9255 28.36C86.9788 28.2747 87.0642 28.2267 87.1815 28.216H92.2855ZM97.1335 30.136C97.5388 30.136 97.9175 30.1947 98.2695 30.312C98.6215 30.4293 98.9308 30.6107 99.1975 30.856C99.4642 31.1013 99.6722 31.4107 99.8215 31.784C99.9708 32.1573 100.046 32.6 100.046 33.112V36.536C100.046 36.6747 100.003 36.7867 99.9175 36.872C99.8322 36.9573 99.7095 37 99.5495 37C99.3895 37 99.2668 36.9573 99.1815 36.872C99.0962 36.7867 99.0535 36.6747 99.0535 36.536V33.272C99.0535 32.472 98.8775 31.8907 98.5255 31.528C98.1842 31.1653 97.7202 30.984 97.1335 30.984C96.6215 30.984 96.1895 31.0693 95.8375 31.24C95.4855 31.4107 95.1868 31.608 94.9415 31.832C95.0908 31.96 95.1975 32.184 95.2615 32.504C95.3255 32.8133 95.3575 33.16 95.3575 33.544V36.536C95.3575 36.6747 95.3148 36.7867 95.2295 36.872C95.1442 36.9573 95.0215 37 94.8615 37C94.6802 37 94.5522 36.952 94.4775 36.856C94.4028 36.76 94.3655 36.6533 94.3655 36.536V33.384C94.3655 32.936 94.3228 32.584 94.2375 32.328C94.1628 32.072 94.0562 31.864 93.9175 31.704C94.0242 31.5333 94.1735 31.3573 94.3655 31.176C94.5682 30.9947 94.8028 30.8293 95.0695 30.68C95.3468 30.52 95.6562 30.392 95.9975 30.296C96.3388 30.1893 96.7175 30.136 97.1335 30.136ZM102.364 31.992C102.364 32.1093 102.316 32.2107 102.22 32.296C102.124 32.3813 102.012 32.424 101.884 32.424C101.734 32.424 101.617 32.3867 101.532 32.312C101.446 32.2373 101.404 32.1627 101.404 32.088C101.404 31.8107 101.473 31.5547 101.612 31.32C101.761 31.0853 101.948 30.8827 102.172 30.712C102.406 30.5307 102.673 30.392 102.972 30.296C103.27 30.1893 103.574 30.136 103.884 30.136C104.748 30.136 105.372 30.376 105.756 30.856C106.14 31.3253 106.332 31.9707 106.332 32.792V36.472C106.332 36.824 106.166 37 105.836 37C105.516 37 105.356 36.824 105.356 36.472V32.92C105.356 32.4933 105.313 32.152 105.228 31.896C105.142 31.64 105.03 31.448 104.892 31.32C104.753 31.1813 104.593 31.0907 104.412 31.048C104.241 30.9947 104.065 30.968 103.884 30.968C103.606 30.968 103.372 31.0107 103.18 31.096C102.988 31.1813 102.828 31.2827 102.7 31.4C102.582 31.5067 102.497 31.6187 102.444 31.736C102.39 31.8427 102.364 31.928 102.364 31.992ZM110.597 33.096C110.863 33.128 111.146 33.176 111.445 33.24C111.743 33.2933 112.021 33.3787 112.277 33.496C112.533 33.6133 112.746 33.7787 112.917 33.992C113.098 34.2053 113.199 34.4827 113.221 34.824C113.253 35.2507 113.189 35.608 113.029 35.896C112.869 36.1733 112.65 36.3973 112.373 36.568C112.106 36.728 111.791 36.84 111.429 36.904C111.077 36.968 110.714 37 110.341 37C109.957 37 109.573 36.9573 109.189 36.872C108.815 36.776 108.447 36.632 108.085 36.44C107.967 36.3867 107.877 36.2907 107.813 36.152C107.749 36.0027 107.775 35.864 107.893 35.736C107.978 35.6507 108.074 35.6027 108.181 35.592C108.298 35.5707 108.41 35.5867 108.517 35.64C108.645 35.7253 108.789 35.8 108.949 35.864C109.119 35.928 109.285 35.9867 109.445 36.04C109.615 36.0827 109.781 36.1147 109.941 36.136C110.101 36.1573 110.245 36.168 110.373 36.168C110.586 36.168 110.805 36.152 111.029 36.12C111.263 36.088 111.471 36.0293 111.653 35.944C111.834 35.8587 111.978 35.736 112.085 35.576C112.202 35.4053 112.25 35.1813 112.229 34.904C112.207 34.5733 112.053 34.3547 111.765 34.248C111.477 34.1413 111.071 34.0453 110.549 33.96C110.293 33.928 110.01 33.88 109.701 33.816C109.402 33.752 109.119 33.656 108.853 33.528C108.597 33.4 108.378 33.2293 108.197 33.016C108.015 32.8027 107.919 32.5307 107.909 32.2C107.877 31.784 107.935 31.4427 108.085 31.176C108.245 30.9093 108.458 30.7013 108.725 30.552C109.002 30.392 109.317 30.2853 109.669 30.232C110.021 30.168 110.383 30.136 110.757 30.136C111.13 30.136 111.487 30.184 111.829 30.28C112.17 30.376 112.511 30.5307 112.853 30.744C112.959 30.8187 113.018 30.9147 113.029 31.032C113.039 31.1493 113.013 31.256 112.949 31.352C112.895 31.4373 112.815 31.496 112.709 31.528C112.602 31.56 112.506 31.5493 112.421 31.496C112.165 31.3253 111.887 31.192 111.589 31.096C111.29 30.9893 110.997 30.936 110.709 30.936C110.517 30.936 110.314 30.9467 110.101 30.968C109.887 30.9787 109.685 31.0267 109.493 31.112C109.311 31.1867 109.162 31.304 109.045 31.464C108.927 31.6133 108.869 31.8267 108.869 32.104C108.879 32.296 108.943 32.4507 109.061 32.568C109.178 32.6853 109.322 32.7813 109.493 32.856C109.663 32.92 109.845 32.9733 110.037 33.016C110.239 33.048 110.426 33.0747 110.597 33.096ZM120.458 31.016C121.354 31.0267 122.063 31.2773 122.586 31.768C123.119 32.2587 123.386 32.9573 123.386 33.864C123.386 34.0133 123.349 34.1413 123.274 34.248C123.199 34.344 123.077 34.392 122.906 34.392H118.49C118.543 35.064 118.762 35.5333 119.146 35.8C119.53 36.0667 120.058 36.2 120.73 36.2C121.029 36.2 121.317 36.1627 121.594 36.088C121.871 36.0027 122.154 35.8907 122.442 35.752C122.591 35.7093 122.714 35.736 122.81 35.832C122.906 35.9173 122.965 36.0187 122.986 36.136C123.007 36.232 122.97 36.3227 122.874 36.408C122.789 36.4933 122.671 36.5627 122.522 36.616C121.925 36.9147 121.317 37.064 120.698 37.064C119.663 37.064 118.869 36.8027 118.314 36.28C117.759 35.7467 117.482 34.9947 117.482 34.024C117.482 33.064 117.738 32.3227 118.25 31.8C118.773 31.2773 119.509 31.016 120.458 31.016ZM122.442 33.608C122.389 33.064 122.207 32.632 121.898 32.312C121.599 31.9813 121.125 31.816 120.474 31.816C119.845 31.816 119.37 31.9707 119.05 32.28C118.73 32.5893 118.538 33.032 118.474 33.608H122.442ZM125.185 33.56C125.036 33.56 124.924 33.5173 124.849 33.432C124.785 33.3467 124.753 33.2453 124.753 33.128C124.753 33.0213 124.785 32.9253 124.849 32.84C124.924 32.7547 125.036 32.712 125.185 32.712H130.353C130.47 32.712 130.572 32.7547 130.657 32.84C130.742 32.9253 130.785 33.0213 130.785 33.128C130.785 33.2453 130.742 33.3467 130.657 33.432C130.572 33.5173 130.47 33.56 130.353 33.56H125.185ZM136.666 32.968C136.869 33.0213 137.066 33.112 137.258 33.24C137.45 33.3573 137.615 33.5013 137.754 33.672C137.903 33.832 138.021 34.0133 138.106 34.216C138.191 34.4187 138.234 34.632 138.234 34.856C138.234 35.5493 138.026 36.0827 137.61 36.456C137.194 36.8187 136.591 37 135.802 37H132.826C132.677 37 132.565 36.9307 132.49 36.792C132.415 36.6533 132.378 36.5093 132.378 36.36V29.608C132.378 29.512 132.415 29.416 132.49 29.32C132.575 29.2133 132.687 29.16 132.826 29.16H135.514C136.186 29.16 136.73 29.352 137.146 29.736C137.562 30.12 137.77 30.632 137.77 31.272C137.77 31.6347 137.669 31.9707 137.466 32.28C137.263 32.5893 136.997 32.8187 136.666 32.968ZM135.722 36.168C136.127 36.168 136.479 36.056 136.778 35.832C137.077 35.608 137.226 35.2613 137.226 34.792C137.226 34.3973 137.066 34.072 136.746 33.816C136.426 33.5493 136.021 33.416 135.53 33.416H133.386V36.168H135.722ZM136.73 31.32C136.719 30.9253 136.597 30.6107 136.362 30.376C136.138 30.1307 135.818 30.008 135.402 30.008H133.386V32.632H135.402C135.818 32.632 136.143 32.5147 136.378 32.28C136.613 32.0347 136.73 31.7147 136.73 31.32ZM140.925 36.616C140.925 36.7333 140.872 36.8347 140.765 36.92C140.669 37.0053 140.557 37.048 140.429 37.048C140.28 37.048 140.157 37.0053 140.061 36.92C139.965 36.8347 139.917 36.7333 139.917 36.616V31.448C139.917 31.3307 139.965 31.2293 140.061 31.144C140.168 31.0587 140.285 31.016 140.413 31.016C140.562 31.016 140.685 31.0587 140.781 31.144C140.877 31.2293 140.925 31.3307 140.925 31.448V36.616ZM139.757 29.464C139.757 29.2827 139.821 29.1333 139.949 29.016C140.077 28.888 140.232 28.824 140.413 28.824C140.605 28.824 140.76 28.888 140.877 29.016C141.005 29.1333 141.069 29.2827 141.069 29.464C141.069 29.6453 141.005 29.7947 140.877 29.912C140.76 30.0293 140.605 30.088 140.413 30.088C140.232 30.088 140.077 30.0293 139.949 29.912C139.821 29.7947 139.757 29.6453 139.757 29.464ZM143.487 37.048C143.359 37.048 143.242 37.0053 143.135 36.92C143.039 36.8347 142.991 36.7333 142.991 36.616V28.872C142.991 28.7547 143.039 28.6533 143.135 28.568C143.242 28.4827 143.359 28.44 143.487 28.44C143.626 28.44 143.743 28.4827 143.839 28.568C143.935 28.6533 143.983 28.7547 143.983 28.872V36.616C143.983 36.7333 143.935 36.8347 143.839 36.92C143.743 37.0053 143.626 37.048 143.487 37.048ZM146.394 37.048C146.266 37.048 146.148 37.0053 146.042 36.92C145.946 36.8347 145.898 36.7333 145.898 36.616V28.872C145.898 28.7547 145.946 28.6533 146.042 28.568C146.148 28.4827 146.266 28.44 146.394 28.44C146.532 28.44 146.65 28.4827 146.746 28.568C146.842 28.6533 146.89 28.7547 146.89 28.872V36.616C146.89 36.7333 146.842 36.8347 146.746 36.92C146.65 37.0053 146.532 37.048 146.394 37.048Z" fill="#C4C4C4"/>
</g>
<defs>
<clipPath id="clip0_2373_366053">
<rect width="28" height="28" fill="white" transform="translate(8 8)"/>
</clipPath>
</defs>
</svg>
