<svg width="325" height="44" viewBox="0 0 325 44" fill="none" xmlns="http://www.w3.org/2000/svg">
<circle cx="22" cy="22" r="22" fill="#FFD100"/>
<circle cx="22" cy="22" r="20" fill="#EFEFEF"/>
<path d="M26.9055 13.0296H25.755C25.755 10.8906 24.0149 9.15049 21.8766 9.15049H20.1448C18.0058 9.15049 16.2657 10.8906 16.2657 13.0296H15.1152C15.1152 10.2563 17.3716 8 20.1448 8H21.8766C24.6491 8.00076 26.9055 10.2563 26.9055 13.0296Z" fill="#545859"/>
<path d="M26.7037 14.5742H9.4502V32.7338H26.7037V14.5742Z" fill="white"/>
<path d="M24.0107 17.3507H22.8602V13.0296C22.8602 10.8906 21.1201 9.15049 18.9818 9.15049H17.25C15.111 9.15049 13.3717 10.8906 13.3717 13.0296V17.3507H12.2212V13.0296C12.2212 10.2563 14.4775 8 17.25 8H18.9818C21.7543 8 24.0107 10.2563 24.0107 13.0296V17.3507V17.3507Z" fill="#545859"/>
<path d="M31.3486 14.5742H26.668V32.7338H31.3486V14.5742Z" fill="white"/>
<path d="M29.5367 14.5742H28.3862V15.1495H29.5367V14.5742Z" fill="#545859"/>
<path d="M29.5367 21.9531H28.3862V20.8193H29.5367V21.9531ZM29.5367 19.6847H28.3862V18.5509H29.5367V19.6847ZM29.5367 17.417H28.3862V16.2832H29.5367V17.417Z" fill="#545859"/>
<path d="M29.5367 32.1582H28.3862V32.7334H29.5367V32.1582Z" fill="#545859"/>
<path d="M29.0509 30.7695L30.1515 31.758L31.252 32.7465H29.0509H26.8491L27.9504 31.758L29.0509 30.7695Z" fill="white"/>
<path d="M31.252 33.3205H26.8498L26.4653 32.3169L28.6672 30.3398H29.4362L31.6372 32.3169L31.252 33.3205ZM28.3508 32.17H29.7503L29.0509 31.5418L28.3508 32.17Z" fill="#545859"/>
<path d="M21.5907 29.5881C21.5907 27.0223 22.9456 24.7675 24.9779 23.5012V16.3008H11.1758V31.0088H21.7323C21.6399 30.5487 21.5907 30.0741 21.5907 29.5881Z" fill="#FFE67D"/>
<path d="M22.0678 32.1595H10.0255V15.1505H26.093V22.9352C26.4737 22.7823 26.8703 22.6604 27.279 22.5742V15.1505H30.7729V22.7074C31.1718 22.8239 31.5563 22.9753 31.9234 23.1562V14H27.279H26.093H8.875V33.31H22.6347C22.4129 32.9467 22.2229 32.5615 22.0678 32.1595Z" fill="#545859"/>
<path d="M28.7608 35.4715C25.5168 35.4715 22.8774 32.8322 22.8774 29.5889C22.8774 26.3456 25.5168 23.707 28.7608 23.707C32.0042 23.707 34.6427 26.3463 34.6427 29.5889C34.6427 32.8322 32.0042 35.4715 28.7608 35.4715Z" fill="#FFD100"/>
<path d="M28.7608 24.9161C31.3366 24.9161 33.4317 27.012 33.4317 29.5869C33.4317 32.1627 31.3358 34.2585 28.7608 34.2585C26.1843 34.2585 24.0885 32.1627 24.0885 29.5869C24.0885 27.012 26.1843 24.9161 28.7608 24.9161ZM28.7608 23.7051C25.5168 23.7051 22.8774 26.3444 22.8774 29.5869C22.8774 32.8303 25.5168 35.4696 28.7608 35.4696C32.0042 35.4696 34.6427 32.8303 34.6427 29.5869C34.6427 26.3444 32.0042 23.7051 28.7608 23.7051Z" fill="white"/>
<path d="M28.7609 23.1758C25.2246 23.1758 22.3477 26.052 22.3477 29.5875C22.3477 33.1237 25.2246 35.9999 28.7609 35.9999C32.2963 35.9999 35.1726 33.123 35.1726 29.5875C35.1726 26.052 32.2963 23.1758 28.7609 23.1758ZM28.7609 34.941C25.809 34.941 23.4073 32.5394 23.4073 29.5882C23.4073 26.6371 25.809 24.2362 28.7609 24.2362C31.712 24.2362 34.1129 26.6371 34.1129 29.5882C34.1129 32.5394 31.712 34.941 28.7609 34.941Z" fill="#545859"/>
<path d="M29.5994 26.666H28.0054V32.51H29.5994V26.666Z" fill="#545859"/>
<path d="M31.7249 28.791H25.8809V30.385H31.7249V28.791Z" fill="#545859"/>
<path d="M18.066 18.5391L22.1881 20.8945L18.0395 23.2894L13.9189 20.9339L18.066 18.5391Z" fill="#FFD100"/>
<path d="M22.4676 20.8938C22.4676 20.7939 22.4132 20.7015 22.3269 20.6516L18.2055 18.2961C18.1624 18.2719 18.1147 18.2598 18.067 18.2598C18.0186 18.2598 17.9701 18.2719 17.927 18.2969L13.7792 20.6917C13.6929 20.7416 13.6392 20.8347 13.6392 20.9346C13.6392 21.0346 13.6937 21.1269 13.7799 21.1769L17.9013 23.5323C17.986 23.5808 18.095 23.5808 18.1798 23.5316L22.3284 21.1367C22.4139 21.0868 22.4676 20.9937 22.4676 20.8938ZM18.039 22.9662L14.4801 20.9324L18.067 18.8615L21.6267 20.8953L18.039 22.9662Z" fill="#545859"/>
<path d="M22.1417 20.8496L22.1894 25.6362L18.0416 28.0318L17.9932 23.2444L22.1417 20.8496Z" fill="#FFE67D"/>
<path d="M18.2273 28.3189L22.3758 25.9234C22.4629 25.8727 22.5166 25.7788 22.5159 25.6781L22.4682 20.8915C22.4674 20.7923 22.4129 20.7008 22.3274 20.6516C22.285 20.6273 22.2366 20.6152 22.1889 20.6152C22.1404 20.6152 22.092 20.6281 22.0489 20.6523L17.9003 23.0471C17.8132 23.0979 17.7595 23.1917 17.7603 23.2924L17.8079 28.0798C17.8087 28.1789 17.8632 28.2705 17.9487 28.3197C18.0335 28.3674 18.1433 28.3674 18.2273 28.3189ZM21.9134 21.3759L21.955 25.5207L18.3628 27.5954L18.3211 23.4498L21.9134 21.3759Z" fill="#545859"/>
<path d="M18.0395 23.291L18.0872 28.0784L13.9659 25.7222L13.9189 20.9355L18.0395 23.291Z" fill="white"/>
<path d="M13.8276 25.9651L17.949 28.3206C18.0345 28.3691 18.1442 28.3691 18.229 28.3191C18.3153 28.2684 18.3683 28.1753 18.3668 28.0754L18.3191 23.288C18.3183 23.1888 18.2638 23.0973 18.1783 23.0481L14.0577 20.6926C14.0153 20.6684 13.9669 20.6562 13.9192 20.6562C13.87 20.6562 13.8208 20.6691 13.7769 20.6949C13.6914 20.7456 13.6384 20.8387 13.6392 20.9386L13.6869 25.726C13.6876 25.8244 13.7413 25.9159 13.8276 25.9651ZM17.762 23.4538L17.8036 27.5932L14.2447 25.5594L14.2038 21.42L17.762 23.4538Z" fill="#545859"/>
<path d="M63.68 20.136C64.288 20.136 64.8107 20.2373 65.248 20.44L65.76 19.912C65.8773 19.784 66.016 19.6667 66.176 19.56C66.3467 19.4533 66.5227 19.464 66.704 19.592C66.8213 19.656 66.8853 19.752 66.896 19.88C66.9067 20.008 66.8693 20.1147 66.784 20.2L66 21.016C66.4373 21.528 66.656 22.28 66.656 23.272V26.536C66.656 26.6747 66.6133 26.7867 66.528 26.872C66.4427 26.9573 66.32 27 66.16 27C66 27 65.8773 26.9573 65.792 26.872C65.7067 26.7867 65.664 26.6747 65.664 26.536V24.536C65.568 24.408 65.4293 24.2907 65.248 24.184C65.0667 24.0667 64.8693 23.9707 64.656 23.896C64.4427 23.8213 64.2187 23.7627 63.984 23.72C63.7493 23.6773 63.52 23.656 63.296 23.656C63.0507 23.656 62.8267 23.6827 62.624 23.736C62.4213 23.7893 62.2453 23.88 62.096 24.008C61.9573 24.1253 61.8507 24.2853 61.776 24.488C61.7013 24.68 61.68 24.92 61.712 25.208C61.744 25.4853 61.8453 25.6987 62.016 25.848C62.1973 25.9867 62.4107 26.0827 62.656 26.136C62.9333 26.1893 63.2267 26.1787 63.536 26.104C63.6533 26.0827 63.7547 26.0933 63.84 26.136C63.936 26.168 64 26.2587 64.032 26.408C64.064 26.5253 64.0587 26.6213 64.016 26.696C63.9733 26.76 63.9093 26.8187 63.824 26.872C63.7493 26.9147 63.6533 26.9467 63.536 26.968C63.4293 26.9893 63.3227 27 63.216 27C63.1307 27 63.04 27 62.944 27C62.8587 27 62.7733 26.9947 62.688 26.984C62.1013 26.952 61.616 26.76 61.232 26.408C60.848 26.0453 60.6827 25.512 60.736 24.808C60.768 24.136 60.9973 23.6347 61.424 23.304C61.8507 22.9733 62.448 22.808 63.216 22.808C63.696 22.808 64.1333 22.8613 64.528 22.968C64.9227 23.0747 65.3067 23.256 65.68 23.512C65.68 23.128 65.6533 22.7867 65.6 22.488C65.5467 22.1787 65.4453 21.9173 65.296 21.704C65.1573 21.48 64.9547 21.3147 64.688 21.208C64.432 21.0907 64.096 21.032 63.68 21.032C63.2107 21.032 62.8053 21.096 62.464 21.224C62.1227 21.3413 61.8133 21.4907 61.536 21.672C61.44 21.7253 61.328 21.736 61.2 21.704C61.0827 21.6613 60.9973 21.5867 60.944 21.48C60.8267 21.288 60.8533 21.112 61.024 20.952C61.1947 20.792 61.4293 20.6533 61.728 20.536C62.0373 20.408 62.3733 20.312 62.736 20.248C63.0987 20.1733 63.4133 20.136 63.68 20.136ZM73.5994 20.136C73.7487 20.136 73.866 20.1787 73.9514 20.264C74.0474 20.3387 74.0954 20.4347 74.0954 20.552V24.568C74.0954 24.9733 74.026 25.3307 73.8874 25.64C73.7594 25.9387 73.5727 26.1947 73.3274 26.408C73.0927 26.6107 72.81 26.7653 72.4794 26.872C72.1594 26.9787 71.8074 27.032 71.4234 27.032C71.0074 27.032 70.586 26.9467 70.1594 26.776C69.7434 26.5947 69.3967 26.3387 69.1194 26.008V26.536C69.1194 26.6747 69.082 26.7867 69.0074 26.872C68.9327 26.9573 68.81 27 68.6394 27C68.4794 27 68.3567 26.9573 68.2714 26.872C68.1967 26.7867 68.1594 26.6747 68.1594 26.536V20.552C68.1594 20.4347 68.202 20.3387 68.2874 20.264C68.3834 20.1787 68.506 20.136 68.6554 20.136C68.8047 20.136 68.922 20.1787 69.0074 20.264C69.1034 20.3387 69.1514 20.4347 69.1514 20.552V24.552C69.2154 24.776 69.3167 24.9893 69.4554 25.192C69.6047 25.384 69.7754 25.5547 69.9674 25.704C70.1594 25.8427 70.3674 25.9547 70.5914 26.04C70.8154 26.1253 71.0394 26.168 71.2634 26.168C71.5194 26.168 71.754 26.136 71.9674 26.072C72.1914 26.008 72.3887 25.912 72.5594 25.784C72.73 25.6453 72.8634 25.4747 72.9594 25.272C73.0554 25.0693 73.1034 24.8293 73.1034 24.552V20.552C73.1034 20.4347 73.1514 20.3387 73.2474 20.264C73.3434 20.1787 73.4607 20.136 73.5994 20.136ZM71.6266 19C71.424 19 71.232 18.9627 71.0506 18.888C70.8693 18.8133 70.72 18.712 70.6026 18.584C70.4746 18.456 70.384 18.3067 70.3306 18.136C70.2666 17.9547 70.2613 17.7573 70.3146 17.544C70.368 17.2347 70.5546 17.096 70.8746 17.128C70.9813 17.1493 71.072 17.2027 71.1466 17.288C71.2106 17.3627 71.232 17.448 71.2106 17.544C71.1466 17.7253 71.1786 17.88 71.3066 18.008C71.424 18.136 71.5733 18.2 71.7546 18.2H74.7306C74.8586 18.2 74.9546 18.2427 75.0186 18.328C75.0933 18.4027 75.1306 18.4933 75.1306 18.6C75.1306 18.7173 75.0933 18.8133 75.0186 18.888C74.9546 18.9627 74.8586 19 74.7306 19H71.6266ZM76.6666 24.184C76.848 23.8747 77.0613 23.6347 77.3066 23.464C77.5626 23.2933 77.8186 23.208 78.0746 23.208C78.1386 23.208 78.2133 23.2133 78.2986 23.224C78.384 23.224 78.4693 23.24 78.5546 23.272C78.64 23.2933 78.7093 23.336 78.7626 23.4C78.8266 23.464 78.8586 23.5547 78.8586 23.672C78.8586 23.768 78.8266 23.864 78.7626 23.96C78.7093 24.056 78.624 24.104 78.5066 24.104C78.3573 24.104 78.2613 24.0987 78.2186 24.088C78.176 24.0773 78.096 24.072 77.9786 24.072C77.8613 24.072 77.7386 24.1093 77.6106 24.184C77.4826 24.248 77.3546 24.3387 77.2266 24.456C77.1093 24.5627 76.9973 24.6907 76.8906 24.84C76.7946 24.9893 76.72 25.144 76.6666 25.304V26.536C76.6666 26.6747 76.624 26.7867 76.5386 26.872C76.464 26.9573 76.3466 27 76.1866 27C76.016 27 75.888 26.9573 75.8026 26.872C75.728 26.7867 75.6906 26.6747 75.6906 26.536V22.808C75.6906 22.3813 75.7653 22.0027 75.9146 21.672C76.064 21.3413 76.272 21.064 76.5386 20.84C76.816 20.6053 77.136 20.4293 77.4986 20.312C77.8613 20.1947 78.2613 20.136 78.6986 20.136C79.136 20.136 79.536 20.1947 79.8986 20.312C80.272 20.4293 80.592 20.6053 80.8586 20.84C81.136 21.064 81.3493 21.3413 81.4986 21.672C81.648 22.0027 81.7226 22.3813 81.7226 22.808V26.536C81.7226 26.6747 81.68 26.7867 81.5946 26.872C81.5093 26.9573 81.3866 27 81.2266 27C81.0666 27 80.944 26.9573 80.8586 26.872C80.7733 26.7867 80.7306 26.6747 80.7306 26.536V22.808C80.7306 22.4133 80.6613 22.0987 80.5226 21.864C80.384 21.6187 80.208 21.432 79.9946 21.304C79.792 21.1653 79.5733 21.0747 79.3386 21.032C79.104 20.9893 78.8906 20.968 78.6986 20.968C78.5173 20.968 78.3093 20.9893 78.0746 21.032C77.84 21.0747 77.616 21.1653 77.4026 21.304C77.2 21.432 77.024 21.6187 76.8746 21.864C76.736 22.0987 76.6666 22.4133 76.6666 22.808V24.184ZM85.9716 23.096C86.2383 23.128 86.521 23.176 86.8196 23.24C87.1183 23.2933 87.3956 23.3787 87.6516 23.496C87.9076 23.6133 88.121 23.7787 88.2916 23.992C88.473 24.2053 88.5743 24.4827 88.5956 24.824C88.6276 25.2507 88.5636 25.608 88.4036 25.896C88.2436 26.1733 88.025 26.3973 87.7476 26.568C87.481 26.728 87.1663 26.84 86.8036 26.904C86.4516 26.968 86.089 27 85.7156 27C85.3316 27 84.9476 26.9573 84.5636 26.872C84.1903 26.776 83.8223 26.632 83.4596 26.44C83.3423 26.3867 83.2516 26.2907 83.1876 26.152C83.1236 26.0027 83.1503 25.864 83.2676 25.736C83.353 25.6507 83.449 25.6027 83.5556 25.592C83.673 25.5707 83.785 25.5867 83.8916 25.64C84.0196 25.7253 84.1636 25.8 84.3236 25.864C84.4943 25.928 84.6596 25.9867 84.8196 26.04C84.9903 26.0827 85.1556 26.1147 85.3156 26.136C85.4756 26.1573 85.6196 26.168 85.7476 26.168C85.961 26.168 86.1796 26.152 86.4036 26.12C86.6383 26.088 86.8463 26.0293 87.0276 25.944C87.209 25.8587 87.353 25.736 87.4596 25.576C87.577 25.4053 87.625 25.1813 87.6036 24.904C87.5823 24.5733 87.4276 24.3547 87.1396 24.248C86.8516 24.1413 86.4463 24.0453 85.9236 23.96C85.6676 23.928 85.385 23.88 85.0756 23.816C84.777 23.752 84.4943 23.656 84.2276 23.528C83.9716 23.4 83.753 23.2293 83.5716 23.016C83.3903 22.8027 83.2943 22.5307 83.2836 22.2C83.2516 21.784 83.3103 21.4427 83.4596 21.176C83.6196 20.9093 83.833 20.7013 84.0996 20.552C84.377 20.392 84.6916 20.2853 85.0436 20.232C85.3956 20.168 85.7583 20.136 86.1316 20.136C86.505 20.136 86.8623 20.184 87.2036 20.28C87.545 20.376 87.8863 20.5307 88.2276 20.744C88.3343 20.8187 88.393 20.9147 88.4036 21.032C88.4143 21.1493 88.3876 21.256 88.3236 21.352C88.2703 21.4373 88.1903 21.496 88.0836 21.528C87.977 21.56 87.881 21.5493 87.7956 21.496C87.5396 21.3253 87.2623 21.192 86.9636 21.096C86.665 20.9893 86.3716 20.936 86.0836 20.936C85.8916 20.936 85.689 20.9467 85.4756 20.968C85.2623 20.9787 85.0596 21.0267 84.8676 21.112C84.6863 21.1867 84.537 21.304 84.4196 21.464C84.3023 21.6133 84.2436 21.8267 84.2436 22.104C84.2543 22.296 84.3183 22.4507 84.4356 22.568C84.553 22.6853 84.697 22.7813 84.8676 22.856C85.0383 22.92 85.2196 22.9733 85.4116 23.016C85.6143 23.048 85.801 23.0747 85.9716 23.096ZM95.522 20.136C95.6607 20.136 95.778 20.1787 95.874 20.264C95.97 20.3387 96.018 20.4347 96.018 20.552V24.312C96.018 24.76 95.9433 25.1547 95.794 25.496C95.6447 25.8267 95.4367 26.104 95.17 26.328C94.9033 26.552 94.5887 26.7227 94.226 26.84C93.8633 26.9467 93.4687 27 93.042 27C92.6367 27 92.2527 26.9467 91.89 26.84C91.5273 26.7227 91.2073 26.552 90.93 26.328C90.6633 26.104 90.45 25.8267 90.29 25.496C90.13 25.1547 90.05 24.76 90.05 24.312V20.552C90.05 20.4347 90.098 20.3387 90.194 20.264C90.29 20.1787 90.4073 20.136 90.546 20.136C90.674 20.136 90.786 20.1787 90.882 20.264C90.9887 20.3387 91.042 20.4347 91.042 20.552V24.312C91.042 24.7067 91.1113 25.0267 91.25 25.272C91.3887 25.5067 91.5593 25.6933 91.762 25.832C91.9647 25.96 92.178 26.0507 92.402 26.104C92.6367 26.1467 92.85 26.168 93.042 26.168C93.2233 26.168 93.426 26.1467 93.65 26.104C93.8847 26.0507 94.1033 25.96 94.306 25.832C94.5087 25.6933 94.6793 25.5067 94.818 25.272C94.9567 25.0267 95.026 24.7067 95.026 24.312V20.552C95.026 20.4347 95.0687 20.3387 95.154 20.264C95.25 20.1787 95.3727 20.136 95.522 20.136ZM100.269 23.096C100.535 23.128 100.818 23.176 101.117 23.24C101.415 23.2933 101.693 23.3787 101.949 23.496C102.205 23.6133 102.418 23.7787 102.589 23.992C102.77 24.2053 102.871 24.4827 102.893 24.824C102.925 25.2507 102.861 25.608 102.701 25.896C102.541 26.1733 102.322 26.3973 102.045 26.568C101.778 26.728 101.463 26.84 101.101 26.904C100.749 26.968 100.386 27 100.013 27C99.6285 27 99.2445 26.9573 98.8605 26.872C98.4872 26.776 98.1192 26.632 97.7565 26.44C97.6392 26.3867 97.5485 26.2907 97.4845 26.152C97.4205 26.0027 97.4472 25.864 97.5645 25.736C97.6498 25.6507 97.7458 25.6027 97.8525 25.592C97.9698 25.5707 98.0818 25.5867 98.1885 25.64C98.3165 25.7253 98.4605 25.8 98.6205 25.864C98.7912 25.928 98.9565 25.9867 99.1165 26.04C99.2872 26.0827 99.4525 26.1147 99.6125 26.136C99.7725 26.1573 99.9165 26.168 100.045 26.168C100.258 26.168 100.477 26.152 100.701 26.12C100.935 26.088 101.143 26.0293 101.325 25.944C101.506 25.8587 101.65 25.736 101.757 25.576C101.874 25.4053 101.922 25.1813 101.901 24.904C101.879 24.5733 101.725 24.3547 101.437 24.248C101.149 24.1413 100.743 24.0453 100.221 23.96C99.9645 23.928 99.6818 23.88 99.3725 23.816C99.0738 23.752 98.7912 23.656 98.5245 23.528C98.2685 23.4 98.0498 23.2293 97.8685 23.016C97.6872 22.8027 97.5912 22.5307 97.5805 22.2C97.5485 21.784 97.6072 21.4427 97.7565 21.176C97.9165 20.9093 98.1298 20.7013 98.3965 20.552C98.6738 20.392 98.9885 20.2853 99.3405 20.232C99.6925 20.168 100.055 20.136 100.429 20.136C100.802 20.136 101.159 20.184 101.501 20.28C101.842 20.376 102.183 20.5307 102.525 20.744C102.631 20.8187 102.69 20.9147 102.701 21.032C102.711 21.1493 102.685 21.256 102.621 21.352C102.567 21.4373 102.487 21.496 102.381 21.528C102.274 21.56 102.178 21.5493 102.093 21.496C101.837 21.3253 101.559 21.192 101.261 21.096C100.962 20.9893 100.669 20.936 100.381 20.936C100.189 20.936 99.9858 20.9467 99.7725 20.968C99.5592 20.9787 99.3565 21.0267 99.1645 21.112C98.9832 21.1867 98.8338 21.304 98.7165 21.464C98.5992 21.6133 98.5405 21.8267 98.5405 22.104C98.5512 22.296 98.6152 22.4507 98.7325 22.568C98.8498 22.6853 98.9938 22.7813 99.1645 22.856C99.3352 22.92 99.5165 22.9733 99.7085 23.016C99.9112 23.048 100.098 23.0747 100.269 23.096ZM102.395 18.216C102.512 18.2267 102.603 18.2747 102.667 18.36C102.72 18.4347 102.747 18.5253 102.747 18.632C102.726 18.8773 102.582 19 102.315 19H97.3709C97.1042 19 96.9602 18.8773 96.9389 18.632C96.9389 18.5253 96.9709 18.4347 97.0349 18.36C97.0882 18.2747 97.1735 18.2267 97.2909 18.216H102.395ZM107.243 20.136C107.648 20.136 108.027 20.1947 108.379 20.312C108.731 20.4293 109.04 20.6107 109.307 20.856C109.574 21.1013 109.782 21.4107 109.931 21.784C110.08 22.1573 110.155 22.6 110.155 23.112V26.536C110.155 26.6747 110.112 26.7867 110.027 26.872C109.942 26.9573 109.819 27 109.659 27C109.499 27 109.376 26.9573 109.291 26.872C109.206 26.7867 109.163 26.6747 109.163 26.536V23.272C109.163 22.472 108.987 21.8907 108.635 21.528C108.294 21.1653 107.83 20.984 107.243 20.984C106.731 20.984 106.299 21.0693 105.947 21.24C105.595 21.4107 105.296 21.608 105.051 21.832C105.2 21.96 105.307 22.184 105.371 22.504C105.435 22.8133 105.467 23.16 105.467 23.544V26.536C105.467 26.6747 105.424 26.7867 105.339 26.872C105.254 26.9573 105.131 27 104.971 27C104.79 27 104.662 26.952 104.587 26.856C104.512 26.76 104.475 26.6533 104.475 26.536V23.384C104.475 22.936 104.432 22.584 104.347 22.328C104.272 22.072 104.166 21.864 104.027 21.704C104.134 21.5333 104.283 21.3573 104.475 21.176C104.678 20.9947 104.912 20.8293 105.179 20.68C105.456 20.52 105.766 20.392 106.107 20.296C106.448 20.1893 106.827 20.136 107.243 20.136ZM112.473 21.992C112.473 22.1093 112.425 22.2107 112.329 22.296C112.233 22.3813 112.121 22.424 111.993 22.424C111.844 22.424 111.726 22.3867 111.641 22.312C111.556 22.2373 111.513 22.1627 111.513 22.088C111.513 21.8107 111.582 21.5547 111.721 21.32C111.87 21.0853 112.057 20.8827 112.281 20.712C112.516 20.5307 112.782 20.392 113.081 20.296C113.38 20.1893 113.684 20.136 113.993 20.136C114.857 20.136 115.481 20.376 115.865 20.856C116.249 21.3253 116.441 21.9707 116.441 22.792V26.472C116.441 26.824 116.276 27 115.945 27C115.625 27 115.465 26.824 115.465 26.472V22.92C115.465 22.4933 115.422 22.152 115.337 21.896C115.252 21.64 115.14 21.448 115.001 21.32C114.862 21.1813 114.702 21.0907 114.521 21.048C114.35 20.9947 114.174 20.968 113.993 20.968C113.716 20.968 113.481 21.0107 113.289 21.096C113.097 21.1813 112.937 21.2827 112.809 21.4C112.692 21.5067 112.606 21.6187 112.553 21.736C112.5 21.8427 112.473 21.928 112.473 21.992ZM120.706 23.096C120.973 23.128 121.255 23.176 121.554 23.24C121.853 23.2933 122.13 23.3787 122.386 23.496C122.642 23.6133 122.855 23.7787 123.026 23.992C123.207 24.2053 123.309 24.4827 123.33 24.824C123.362 25.2507 123.298 25.608 123.138 25.896C122.978 26.1733 122.759 26.3973 122.482 26.568C122.215 26.728 121.901 26.84 121.538 26.904C121.186 26.968 120.823 27 120.45 27C120.066 27 119.682 26.9573 119.298 26.872C118.925 26.776 118.557 26.632 118.194 26.44C118.077 26.3867 117.986 26.2907 117.922 26.152C117.858 26.0027 117.885 25.864 118.002 25.736C118.087 25.6507 118.183 25.6027 118.29 25.592C118.407 25.5707 118.519 25.5867 118.626 25.64C118.754 25.7253 118.898 25.8 119.058 25.864C119.229 25.928 119.394 25.9867 119.554 26.04C119.725 26.0827 119.89 26.1147 120.05 26.136C120.21 26.1573 120.354 26.168 120.482 26.168C120.695 26.168 120.914 26.152 121.138 26.12C121.373 26.088 121.581 26.0293 121.762 25.944C121.943 25.8587 122.087 25.736 122.194 25.576C122.311 25.4053 122.359 25.1813 122.338 24.904C122.317 24.5733 122.162 24.3547 121.874 24.248C121.586 24.1413 121.181 24.0453 120.658 23.96C120.402 23.928 120.119 23.88 119.81 23.816C119.511 23.752 119.229 23.656 118.962 23.528C118.706 23.4 118.487 23.2293 118.306 23.016C118.125 22.8027 118.029 22.5307 118.018 22.2C117.986 21.784 118.045 21.4427 118.194 21.176C118.354 20.9093 118.567 20.7013 118.834 20.552C119.111 20.392 119.426 20.2853 119.778 20.232C120.13 20.168 120.493 20.136 120.866 20.136C121.239 20.136 121.597 20.184 121.938 20.28C122.279 20.376 122.621 20.5307 122.962 20.744C123.069 20.8187 123.127 20.9147 123.138 21.032C123.149 21.1493 123.122 21.256 123.058 21.352C123.005 21.4373 122.925 21.496 122.818 21.528C122.711 21.56 122.615 21.5493 122.53 21.496C122.274 21.3253 121.997 21.192 121.698 21.096C121.399 20.9893 121.106 20.936 120.818 20.936C120.626 20.936 120.423 20.9467 120.21 20.968C119.997 20.9787 119.794 21.0267 119.602 21.112C119.421 21.1867 119.271 21.304 119.154 21.464C119.037 21.6133 118.978 21.8267 118.978 22.104C118.989 22.296 119.053 22.4507 119.17 22.568C119.287 22.6853 119.431 22.7813 119.602 22.856C119.773 22.92 119.954 22.9733 120.146 23.016C120.349 23.048 120.535 23.0747 120.706 23.096ZM130.135 23.976C130.007 23.976 129.901 23.9387 129.815 23.864C129.741 23.7787 129.703 23.6773 129.703 23.56C129.703 23.4427 129.741 23.3467 129.815 23.272C129.901 23.1867 130.007 23.144 130.135 23.144H130.791C131.026 23.144 131.213 23.2133 131.351 23.352C131.49 23.48 131.597 23.6347 131.671 23.816C131.746 23.9973 131.794 24.184 131.815 24.376C131.837 24.5573 131.847 24.696 131.847 24.792C131.847 26.264 131.255 27 130.071 27H130.055C129.202 27 128.589 26.7013 128.215 26.104C127.853 25.5067 127.671 24.6747 127.671 23.608C127.671 23.3413 127.687 23.048 127.719 22.728C127.751 22.408 127.815 22.0987 127.911 21.8C128.007 21.5013 128.135 21.224 128.295 20.968C128.466 20.712 128.69 20.504 128.967 20.344C129.245 20.1947 129.538 20.1253 129.847 20.136C129.997 20.1467 130.167 20.2053 130.359 20.312L131.111 20.696L131.831 20.312C132.002 20.2373 132.205 20.1893 132.439 20.168C132.941 20.1253 133.33 20.28 133.607 20.632C133.895 20.984 134.039 21.5227 134.039 22.248V26.536C134.039 26.6747 133.997 26.7867 133.911 26.872C133.826 26.9573 133.703 27 133.543 27C133.383 27 133.261 26.9573 133.175 26.872C133.09 26.7867 133.047 26.6747 133.047 26.536V22.04C133.047 21.8693 133.026 21.7093 132.983 21.56C132.951 21.4107 132.893 21.288 132.807 21.192C132.722 21.096 132.615 21.0373 132.487 21.016C132.359 20.9947 132.205 21.0267 132.023 21.112C131.885 21.176 131.725 21.2667 131.543 21.384C131.373 21.4907 131.229 21.544 131.111 21.544C131.058 21.544 130.989 21.528 130.903 21.496C130.829 21.4533 130.743 21.4053 130.647 21.352C130.551 21.2987 130.455 21.2453 130.359 21.192C130.263 21.1387 130.178 21.096 130.103 21.064C129.89 20.9787 129.693 20.9893 129.511 21.096C129.341 21.192 129.191 21.3627 129.063 21.608C128.935 21.8427 128.834 22.136 128.759 22.488C128.685 22.8293 128.647 23.1973 128.647 23.592V23.608C128.647 24.376 128.77 24.9947 129.015 25.464C129.271 25.9227 129.623 26.152 130.071 26.152C130.263 26.152 130.418 26.0987 130.535 25.992C130.663 25.8853 130.759 25.752 130.823 25.592C130.898 25.432 130.941 25.256 130.951 25.064C130.973 24.872 130.967 24.696 130.935 24.536C130.903 24.376 130.85 24.2427 130.775 24.136C130.711 24.0293 130.626 23.976 130.519 23.976H130.135ZM133.692 18.216C133.809 18.2267 133.9 18.2747 133.964 18.36C134.017 18.4347 134.044 18.5253 134.044 18.632C134.022 18.8773 133.878 19 133.612 19H128.668C128.401 19 128.257 18.8773 128.236 18.632C128.236 18.5253 128.268 18.4347 128.332 18.36C128.385 18.2747 128.47 18.2267 128.588 18.216H133.692ZM137.948 23.976C137.82 23.976 137.713 23.9387 137.628 23.864C137.553 23.7787 137.516 23.6773 137.516 23.56C137.516 23.4427 137.553 23.3467 137.628 23.272C137.713 23.1867 137.82 23.144 137.948 23.144H138.604C138.838 23.144 139.025 23.2133 139.164 23.352C139.302 23.48 139.409 23.6347 139.484 23.816C139.558 23.9973 139.606 24.184 139.628 24.376C139.649 24.5573 139.66 24.696 139.66 24.792C139.66 26.264 139.068 27 137.884 27H137.868C137.014 27 136.401 26.7013 136.028 26.104C135.665 25.5067 135.484 24.6747 135.484 23.608C135.484 22.5307 135.766 21.6827 136.332 21.064C136.908 20.4453 137.697 20.136 138.7 20.136C139.638 20.136 140.39 20.3653 140.956 20.824C141.521 21.272 141.804 21.9813 141.804 22.952V26.536C141.804 26.6747 141.761 26.7867 141.676 26.872C141.59 26.9573 141.468 27 141.308 27C141.148 27 141.025 26.9573 140.94 26.872C140.854 26.7867 140.812 26.6747 140.812 26.536V23.08C140.812 22.4187 140.652 21.9013 140.332 21.528C140.022 21.1547 139.478 20.968 138.7 20.968C137.964 20.968 137.404 21.208 137.02 21.688C136.646 22.168 136.46 22.808 136.46 23.608C136.46 24.376 136.582 24.9947 136.828 25.464C137.084 25.9227 137.436 26.152 137.884 26.152C138.076 26.152 138.23 26.0987 138.348 25.992C138.476 25.8853 138.572 25.752 138.636 25.592C138.71 25.432 138.753 25.256 138.764 25.064C138.785 24.872 138.78 24.696 138.748 24.536C138.716 24.376 138.662 24.2427 138.588 24.136C138.524 24.0293 138.438 23.976 138.332 23.976H137.948ZM145.713 23.976C145.585 23.976 145.479 23.9387 145.393 23.864C145.319 23.7787 145.281 23.6773 145.281 23.56C145.281 23.4427 145.319 23.3467 145.393 23.272C145.479 23.1867 145.585 23.144 145.713 23.144H146.369C146.604 23.144 146.791 23.2133 146.929 23.352C147.068 23.48 147.175 23.6347 147.249 23.816C147.324 23.9973 147.372 24.184 147.393 24.376C147.415 24.5573 147.425 24.696 147.425 24.792C147.425 26.264 146.833 27 145.649 27H145.633C144.78 27 144.167 26.7013 143.793 26.104C143.431 25.5067 143.249 24.6747 143.249 23.608C143.249 23.3413 143.265 23.048 143.297 22.728C143.329 22.408 143.393 22.0987 143.489 21.8C143.585 21.5013 143.713 21.224 143.873 20.968C144.044 20.712 144.268 20.504 144.545 20.344C144.823 20.1947 145.116 20.1253 145.425 20.136C145.575 20.1467 145.745 20.2053 145.937 20.312L146.689 20.696L147.409 20.312C147.58 20.2373 147.783 20.1893 148.017 20.168C148.519 20.1253 148.908 20.28 149.185 20.632C149.473 20.984 149.617 21.5227 149.617 22.248V26.536C149.617 26.6747 149.575 26.7867 149.489 26.872C149.404 26.9573 149.281 27 149.121 27C148.961 27 148.839 26.9573 148.753 26.872C148.668 26.7867 148.625 26.6747 148.625 26.536V22.04C148.625 21.8693 148.604 21.7093 148.561 21.56C148.529 21.4107 148.471 21.288 148.385 21.192C148.3 21.096 148.193 21.0373 148.065 21.016C147.937 20.9947 147.783 21.0267 147.601 21.112C147.463 21.176 147.303 21.2667 147.121 21.384C146.951 21.4907 146.807 21.544 146.689 21.544C146.636 21.544 146.567 21.528 146.481 21.496C146.407 21.4533 146.321 21.4053 146.225 21.352C146.129 21.2987 146.033 21.2453 145.937 21.192C145.841 21.1387 145.756 21.096 145.681 21.064C145.468 20.9787 145.271 20.9893 145.089 21.096C144.919 21.192 144.769 21.3627 144.641 21.608C144.513 21.8427 144.412 22.136 144.337 22.488C144.263 22.8293 144.225 23.1973 144.225 23.592V23.608C144.225 24.376 144.348 24.9947 144.593 25.464C144.849 25.9227 145.201 26.152 145.649 26.152C145.841 26.152 145.996 26.0987 146.113 25.992C146.241 25.8853 146.337 25.752 146.401 25.592C146.476 25.432 146.519 25.256 146.529 25.064C146.551 24.872 146.545 24.696 146.513 24.536C146.481 24.376 146.428 24.2427 146.353 24.136C146.289 24.0293 146.204 23.976 146.097 23.976H145.713ZM151.942 21.992C151.942 22.1093 151.894 22.2107 151.798 22.296C151.702 22.3813 151.59 22.424 151.462 22.424C151.313 22.424 151.195 22.3867 151.11 22.312C151.025 22.2373 150.982 22.1627 150.982 22.088C150.982 21.8107 151.051 21.5547 151.19 21.32C151.339 21.0853 151.526 20.8827 151.75 20.712C151.985 20.5307 152.251 20.392 152.55 20.296C152.849 20.1893 153.153 20.136 153.462 20.136C154.326 20.136 154.95 20.376 155.334 20.856C155.718 21.3253 155.91 21.9707 155.91 22.792V26.472C155.91 26.824 155.745 27 155.414 27C155.094 27 154.934 26.824 154.934 26.472V22.92C154.934 22.4933 154.891 22.152 154.806 21.896C154.721 21.64 154.609 21.448 154.47 21.32C154.331 21.1813 154.171 21.0907 153.99 21.048C153.819 20.9947 153.643 20.968 153.462 20.968C153.185 20.968 152.95 21.0107 152.758 21.096C152.566 21.1813 152.406 21.2827 152.278 21.4C152.161 21.5067 152.075 21.6187 152.022 21.736C151.969 21.8427 151.942 21.928 151.942 21.992ZM162.959 20.136C163.108 20.136 163.225 20.1787 163.311 20.264C163.407 20.3387 163.455 20.4347 163.455 20.552V24.568C163.455 24.9733 163.385 25.3307 163.247 25.64C163.119 25.9387 162.932 26.1947 162.687 26.408C162.452 26.6107 162.169 26.7653 161.839 26.872C161.519 26.9787 161.167 27.032 160.783 27.032C160.367 27.032 159.945 26.9467 159.519 26.776C159.103 26.5947 158.756 26.3387 158.479 26.008V26.536C158.479 26.6747 158.441 26.7867 158.367 26.872C158.292 26.9573 158.169 27 157.999 27C157.839 27 157.716 26.9573 157.631 26.872C157.556 26.7867 157.519 26.6747 157.519 26.536V20.552C157.519 20.4347 157.561 20.3387 157.647 20.264C157.743 20.1787 157.865 20.136 158.015 20.136C158.164 20.136 158.281 20.1787 158.367 20.264C158.463 20.3387 158.511 20.4347 158.511 20.552V24.552C158.575 24.776 158.676 24.9893 158.815 25.192C158.964 25.384 159.135 25.5547 159.327 25.704C159.519 25.8427 159.727 25.9547 159.951 26.04C160.175 26.1253 160.399 26.168 160.623 26.168C160.879 26.168 161.113 26.136 161.327 26.072C161.551 26.008 161.748 25.912 161.919 25.784C162.089 25.6453 162.223 25.4747 162.319 25.272C162.415 25.0693 162.463 24.8293 162.463 24.552V20.552C162.463 20.4347 162.511 20.3387 162.607 20.264C162.703 20.1787 162.82 20.136 162.959 20.136ZM167.93 20.136C168.538 20.136 169.061 20.2373 169.498 20.44L170.01 19.912C170.127 19.784 170.266 19.6667 170.426 19.56C170.597 19.4533 170.773 19.464 170.954 19.592C171.071 19.656 171.135 19.752 171.146 19.88C171.157 20.008 171.119 20.1147 171.034 20.2L170.25 21.016C170.687 21.528 170.906 22.28 170.906 23.272V26.536C170.906 26.6747 170.863 26.7867 170.778 26.872C170.693 26.9573 170.57 27 170.41 27C170.25 27 170.127 26.9573 170.042 26.872C169.957 26.7867 169.914 26.6747 169.914 26.536V24.536C169.818 24.408 169.679 24.2907 169.498 24.184C169.317 24.0667 169.119 23.9707 168.906 23.896C168.693 23.8213 168.469 23.7627 168.234 23.72C167.999 23.6773 167.77 23.656 167.546 23.656C167.301 23.656 167.077 23.6827 166.874 23.736C166.671 23.7893 166.495 23.88 166.346 24.008C166.207 24.1253 166.101 24.2853 166.026 24.488C165.951 24.68 165.93 24.92 165.962 25.208C165.994 25.4853 166.095 25.6987 166.266 25.848C166.447 25.9867 166.661 26.0827 166.906 26.136C167.183 26.1893 167.477 26.1787 167.786 26.104C167.903 26.0827 168.005 26.0933 168.09 26.136C168.186 26.168 168.25 26.2587 168.282 26.408C168.314 26.5253 168.309 26.6213 168.266 26.696C168.223 26.76 168.159 26.8187 168.074 26.872C167.999 26.9147 167.903 26.9467 167.786 26.968C167.679 26.9893 167.573 27 167.466 27C167.381 27 167.29 27 167.194 27C167.109 27 167.023 26.9947 166.938 26.984C166.351 26.952 165.866 26.76 165.482 26.408C165.098 26.0453 164.933 25.512 164.986 24.808C165.018 24.136 165.247 23.6347 165.674 23.304C166.101 22.9733 166.698 22.808 167.466 22.808C167.946 22.808 168.383 22.8613 168.778 22.968C169.173 23.0747 169.557 23.256 169.93 23.512C169.93 23.128 169.903 22.7867 169.85 22.488C169.797 22.1787 169.695 21.9173 169.546 21.704C169.407 21.48 169.205 21.3147 168.938 21.208C168.682 21.0907 168.346 21.032 167.93 21.032C167.461 21.032 167.055 21.096 166.714 21.224C166.373 21.3413 166.063 21.4907 165.786 21.672C165.69 21.7253 165.578 21.736 165.45 21.704C165.333 21.6613 165.247 21.5867 165.194 21.48C165.077 21.288 165.103 21.112 165.274 20.952C165.445 20.792 165.679 20.6533 165.978 20.536C166.287 20.408 166.623 20.312 166.986 20.248C167.349 20.1733 167.663 20.136 167.93 20.136ZM172.537 23.384C172.537 22.936 172.495 22.584 172.409 22.328C172.335 22.072 172.228 21.864 172.089 21.704C172.196 21.5333 172.345 21.3573 172.537 21.176C172.74 20.9947 172.975 20.8293 173.241 20.68C173.519 20.52 173.828 20.392 174.169 20.296C174.511 20.1893 174.889 20.136 175.305 20.136C175.711 20.136 176.089 20.1947 176.441 20.312C176.793 20.4293 177.103 20.6107 177.369 20.856C177.636 21.1013 177.844 21.4107 177.993 21.784C178.143 22.1573 178.217 22.6 178.217 23.112V26.536C178.217 26.6747 178.175 26.7867 178.089 26.872C178.004 26.9573 177.881 27 177.721 27C177.561 27 177.439 26.9573 177.353 26.872C177.268 26.7867 177.225 26.6747 177.225 26.536V23.272C177.225 22.472 177.049 21.8907 176.697 21.528C176.356 21.1653 175.892 20.984 175.305 20.984C174.793 20.984 174.361 21.0693 174.009 21.24C173.657 21.4107 173.359 21.608 173.113 21.832C173.263 21.96 173.369 22.184 173.433 22.504C173.497 22.8133 173.529 23.16 173.529 23.544V25.192C173.551 25.5653 173.652 25.8373 173.833 26.008C174.025 26.1787 174.372 26.216 174.873 26.12C174.991 26.1093 175.087 26.136 175.161 26.2C175.236 26.264 175.279 26.3547 175.289 26.472C175.3 26.632 175.252 26.7493 175.145 26.824C175.039 26.8987 174.911 26.952 174.761 26.984C174.612 27.016 174.452 27.0267 174.281 27.016C174.121 27.016 173.993 27.0107 173.897 27C173.663 26.9787 173.46 26.9147 173.289 26.808C173.119 26.6907 172.98 26.5467 172.873 26.376C172.767 26.2053 172.687 26.0187 172.633 25.816C172.58 25.6027 172.548 25.384 172.537 25.16V23.384ZM180.536 21.992C180.536 22.1093 180.488 22.2107 180.392 22.296C180.296 22.3813 180.184 22.424 180.056 22.424C179.906 22.424 179.789 22.3867 179.704 22.312C179.618 22.2373 179.576 22.1627 179.576 22.088C179.576 21.8107 179.645 21.5547 179.784 21.32C179.933 21.0853 180.12 20.8827 180.344 20.712C180.578 20.5307 180.845 20.392 181.144 20.296C181.442 20.1893 181.746 20.136 182.056 20.136C182.92 20.136 183.544 20.376 183.928 20.856C184.312 21.3253 184.504 21.9707 184.504 22.792V26.472C184.504 26.824 184.338 27 184.008 27C183.688 27 183.528 26.824 183.528 26.472V22.92C183.528 22.4933 183.485 22.152 183.4 21.896C183.314 21.64 183.202 21.448 183.064 21.32C182.925 21.1813 182.765 21.0907 182.584 21.048C182.413 20.9947 182.237 20.968 182.056 20.968C181.778 20.968 181.544 21.0107 181.352 21.096C181.16 21.1813 181 21.2827 180.872 21.4C180.754 21.5067 180.669 21.6187 180.616 21.736C180.562 21.8427 180.536 21.928 180.536 21.992ZM191.889 26.536C191.889 26.6747 191.846 26.7867 191.761 26.872C191.686 26.9573 191.569 27 191.409 27C191.238 27 191.115 26.9573 191.041 26.872C190.966 26.7867 190.929 26.6747 190.929 26.536V25.976C190.683 26.296 190.358 26.552 189.953 26.744C189.547 26.9253 189.131 27.016 188.705 27.016C188.331 27.016 187.985 26.968 187.664 26.872C187.345 26.7653 187.067 26.6107 186.833 26.408C186.609 26.1947 186.433 25.9333 186.305 25.624C186.177 25.3147 186.113 24.9573 186.113 24.552V20.552C186.113 20.4347 186.155 20.3333 186.241 20.248C186.337 20.1627 186.459 20.12 186.609 20.12C186.758 20.12 186.875 20.1627 186.961 20.248C187.057 20.3333 187.105 20.4347 187.105 20.552V24.552C187.105 25.0747 187.265 25.4747 187.585 25.752C187.905 26.0187 188.331 26.152 188.865 26.152C189.089 26.152 189.307 26.1093 189.521 26.024C189.745 25.9387 189.947 25.8267 190.129 25.688C190.31 25.5387 190.47 25.368 190.609 25.176C190.747 24.9733 190.843 24.76 190.897 24.536V20.552C190.897 20.4347 190.939 20.3333 191.025 20.248C191.121 20.1627 191.243 20.12 191.393 20.12C191.542 20.12 191.659 20.1627 191.745 20.248C191.841 20.3333 191.889 20.4347 191.889 20.552V26.536ZM194.944 22.952C194.57 22.952 194.229 22.8933 193.92 22.776C193.621 22.6587 193.429 22.424 193.344 22.072C193.322 21.976 193.317 21.8693 193.328 21.752C193.338 21.624 193.365 21.512 193.408 21.416C193.461 21.3093 193.525 21.2293 193.6 21.176C193.685 21.112 193.792 21.096 193.92 21.128C194.037 21.1493 194.128 21.2027 194.192 21.288C194.256 21.3627 194.277 21.448 194.256 21.544C194.202 21.7147 194.218 21.8587 194.304 21.976C194.4 22.0933 194.544 22.152 194.736 22.152H196.656C196.773 22.152 196.869 22.1893 196.944 22.264C197.029 22.328 197.072 22.4187 197.072 22.536C197.072 22.6533 197.034 22.7547 196.96 22.84C196.885 22.9147 196.784 22.952 196.656 22.952H194.944ZM194.944 26.28C194.57 26.28 194.229 26.2213 193.92 26.104C193.621 25.9867 193.429 25.752 193.344 25.4C193.322 25.304 193.317 25.1973 193.328 25.08C193.338 24.952 193.365 24.84 193.408 24.744C193.461 24.6373 193.525 24.5573 193.6 24.504C193.685 24.44 193.792 24.424 193.92 24.456C194.037 24.4773 194.128 24.5307 194.192 24.616C194.256 24.6907 194.277 24.776 194.256 24.872C194.202 25.0427 194.218 25.1867 194.304 25.304C194.4 25.4213 194.544 25.48 194.736 25.48H196.656C196.773 25.48 196.869 25.5173 196.944 25.592C197.029 25.656 197.072 25.7467 197.072 25.864C197.072 25.9813 197.034 26.0827 196.96 26.168C196.885 26.2427 196.784 26.28 196.656 26.28H194.944ZM202.366 24.28C202.366 24.888 202.526 25.352 202.846 25.672C203.166 25.9813 203.619 26.1467 204.206 26.168C204.43 26.168 204.648 26.136 204.862 26.072C205.075 25.9973 205.267 25.8853 205.438 25.736C205.608 25.5867 205.742 25.3893 205.838 25.144C205.944 24.8987 205.998 24.5893 205.998 24.216V23.624C205.998 23.3893 205.966 23.1867 205.902 23.016C205.838 22.8347 205.752 22.6853 205.646 22.568C205.55 22.44 205.432 22.3333 205.294 22.248C205.166 22.152 205.038 22.0667 204.91 21.992C204.867 21.9707 204.819 21.928 204.766 21.864C204.712 21.8 204.686 21.7307 204.686 21.656C204.686 21.592 204.702 21.528 204.734 21.464C204.766 21.3893 204.808 21.3413 204.862 21.32C205.075 21.2133 205.299 21.064 205.534 20.872C205.779 20.68 206.003 20.4613 206.206 20.216C206.259 20.152 206.344 20.12 206.462 20.12C206.579 20.1093 206.68 20.1413 206.766 20.216C206.851 20.2907 206.904 20.3813 206.926 20.488C206.958 20.584 206.947 20.664 206.894 20.728C206.744 20.92 206.568 21.1013 206.366 21.272C206.174 21.432 205.96 21.5653 205.726 21.672C206.131 21.8853 206.44 22.184 206.654 22.568C206.867 22.9413 206.974 23.304 206.974 23.656V24.328C206.974 25.1813 206.723 25.8373 206.222 26.296C205.731 26.7547 205.054 26.9893 204.19 27C203.326 27 202.643 26.76 202.142 26.28C201.651 25.7893 201.406 25.1067 201.406 24.232V24.008C201.406 23.496 201.528 23.0373 201.774 22.632C202.019 22.2267 202.366 21.88 202.814 21.592C202.92 21.4853 202.952 21.3627 202.91 21.224C202.867 21.0747 202.739 21 202.526 21H201.902C201.624 21 201.486 20.8667 201.486 20.6C201.486 20.3333 201.624 20.2 201.902 20.2H202.574C202.638 20.2 202.734 20.2107 202.862 20.232C203 20.2533 203.134 20.296 203.262 20.36C203.4 20.424 203.518 20.52 203.614 20.648C203.72 20.776 203.774 20.952 203.774 21.176C203.774 21.5173 203.699 21.7787 203.55 21.96C203.4 22.1307 203.235 22.296 203.054 22.456C202.883 22.616 202.723 22.808 202.574 23.032C202.435 23.256 202.366 23.592 202.366 24.04V24.28ZM205.893 16.936C206.064 16.936 206.224 16.968 206.373 17.032C206.523 17.096 206.656 17.1867 206.773 17.304C206.88 17.4107 206.971 17.5387 207.045 17.688C207.109 17.8373 207.141 17.9973 207.141 18.168C207.141 18.3387 207.109 18.504 207.045 18.664C206.971 18.8133 206.88 18.9467 206.773 19.064C206.656 19.1707 206.523 19.256 206.373 19.32C206.224 19.384 206.064 19.416 205.893 19.416C205.552 19.416 205.259 19.2933 205.013 19.048C204.768 18.8027 204.645 18.5093 204.645 18.168C204.645 17.8267 204.768 17.5387 205.013 17.304C205.259 17.0587 205.552 16.936 205.893 16.936ZM205.893 18.696C206.043 18.696 206.171 18.648 206.277 18.552C206.373 18.4453 206.421 18.3173 206.421 18.168C206.421 18.0187 206.373 17.896 206.277 17.8C206.171 17.704 206.043 17.656 205.893 17.656C205.744 17.656 205.621 17.704 205.525 17.8C205.429 17.896 205.381 18.0187 205.381 18.168C205.381 18.3173 205.429 18.4453 205.525 18.552C205.621 18.648 205.744 18.696 205.893 18.696ZM209.301 21.992C209.301 22.1093 209.253 22.2107 209.157 22.296C209.061 22.3813 208.949 22.424 208.821 22.424C208.672 22.424 208.555 22.3867 208.469 22.312C208.384 22.2373 208.341 22.1627 208.341 22.088C208.341 21.8107 208.411 21.5547 208.549 21.32C208.699 21.0853 208.885 20.8827 209.109 20.712C209.344 20.5307 209.611 20.392 209.909 20.296C210.208 20.1893 210.512 20.136 210.821 20.136C211.685 20.136 212.309 20.376 212.693 20.856C213.077 21.3253 213.269 21.9707 213.269 22.792V26.472C213.269 26.824 213.104 27 212.773 27C212.453 27 212.293 26.824 212.293 26.472V22.92C212.293 22.4933 212.251 22.152 212.165 21.896C212.08 21.64 211.968 21.448 211.829 21.32C211.691 21.1813 211.531 21.0907 211.349 21.048C211.179 20.9947 211.003 20.968 210.821 20.968C210.544 20.968 210.309 21.0107 210.117 21.096C209.925 21.1813 209.765 21.2827 209.637 21.4C209.52 21.5067 209.435 21.6187 209.381 21.736C209.328 21.8427 209.301 21.928 209.301 21.992ZM217.534 23.096C217.801 23.128 218.083 23.176 218.382 23.24C218.681 23.2933 218.958 23.3787 219.214 23.496C219.47 23.6133 219.683 23.7787 219.854 23.992C220.035 24.2053 220.137 24.4827 220.158 24.824C220.19 25.2507 220.126 25.608 219.966 25.896C219.806 26.1733 219.587 26.3973 219.31 26.568C219.043 26.728 218.729 26.84 218.366 26.904C218.014 26.968 217.651 27 217.278 27C216.894 27 216.51 26.9573 216.126 26.872C215.753 26.776 215.385 26.632 215.022 26.44C214.905 26.3867 214.814 26.2907 214.75 26.152C214.686 26.0027 214.713 25.864 214.83 25.736C214.915 25.6507 215.011 25.6027 215.118 25.592C215.235 25.5707 215.347 25.5867 215.454 25.64C215.582 25.7253 215.726 25.8 215.886 25.864C216.057 25.928 216.222 25.9867 216.382 26.04C216.553 26.0827 216.718 26.1147 216.878 26.136C217.038 26.1573 217.182 26.168 217.31 26.168C217.523 26.168 217.742 26.152 217.966 26.12C218.201 26.088 218.409 26.0293 218.59 25.944C218.771 25.8587 218.915 25.736 219.022 25.576C219.139 25.4053 219.187 25.1813 219.166 24.904C219.145 24.5733 218.99 24.3547 218.702 24.248C218.414 24.1413 218.009 24.0453 217.486 23.96C217.23 23.928 216.947 23.88 216.638 23.816C216.339 23.752 216.057 23.656 215.79 23.528C215.534 23.4 215.315 23.2293 215.134 23.016C214.953 22.8027 214.857 22.5307 214.846 22.2C214.814 21.784 214.873 21.4427 215.022 21.176C215.182 20.9093 215.395 20.7013 215.662 20.552C215.939 20.392 216.254 20.2853 216.606 20.232C216.958 20.168 217.321 20.136 217.694 20.136C218.067 20.136 218.425 20.184 218.766 20.28C219.107 20.376 219.449 20.5307 219.79 20.744C219.897 20.8187 219.955 20.9147 219.966 21.032C219.977 21.1493 219.95 21.256 219.886 21.352C219.833 21.4373 219.753 21.496 219.646 21.528C219.539 21.56 219.443 21.5493 219.358 21.496C219.102 21.3253 218.825 21.192 218.526 21.096C218.227 20.9893 217.934 20.936 217.646 20.936C217.454 20.936 217.251 20.9467 217.038 20.968C216.825 20.9787 216.622 21.0267 216.43 21.112C216.249 21.1867 216.099 21.304 215.982 21.464C215.865 21.6133 215.806 21.8267 215.806 22.104C215.817 22.296 215.881 22.4507 215.998 22.568C216.115 22.6853 216.259 22.7813 216.43 22.856C216.601 22.92 216.782 22.9733 216.974 23.016C217.177 23.048 217.363 23.0747 217.534 23.096ZM223.069 22.952C222.695 22.952 222.354 22.8933 222.045 22.776C221.746 22.6587 221.554 22.424 221.469 22.072C221.447 21.976 221.442 21.8693 221.453 21.752C221.463 21.624 221.49 21.512 221.533 21.416C221.586 21.3093 221.65 21.2293 221.725 21.176C221.81 21.112 221.917 21.096 222.045 21.128C222.162 21.1493 222.253 21.2027 222.317 21.288C222.381 21.3627 222.402 21.448 222.381 21.544C222.327 21.7147 222.343 21.8587 222.429 21.976C222.525 22.0933 222.669 22.152 222.861 22.152H224.781C224.898 22.152 224.994 22.1893 225.069 22.264C225.154 22.328 225.197 22.4187 225.197 22.536C225.197 22.6533 225.159 22.7547 225.085 22.84C225.01 22.9147 224.909 22.952 224.781 22.952H223.069ZM223.069 26.28C222.695 26.28 222.354 26.2213 222.045 26.104C221.746 25.9867 221.554 25.752 221.469 25.4C221.447 25.304 221.442 25.1973 221.453 25.08C221.463 24.952 221.49 24.84 221.533 24.744C221.586 24.6373 221.65 24.5573 221.725 24.504C221.81 24.44 221.917 24.424 222.045 24.456C222.162 24.4773 222.253 24.5307 222.317 24.616C222.381 24.6907 222.402 24.776 222.381 24.872C222.327 25.0427 222.343 25.1867 222.429 25.304C222.525 25.4213 222.669 25.48 222.861 25.48H224.781C224.898 25.48 224.994 25.5173 225.069 25.592C225.154 25.656 225.197 25.7467 225.197 25.864C225.197 25.9813 225.159 26.0827 225.085 26.168C225.01 26.2427 224.909 26.28 224.781 26.28H223.069ZM227.62 24.184C227.801 23.8747 228.014 23.6347 228.26 23.464C228.516 23.2933 228.772 23.208 229.028 23.208C229.092 23.208 229.166 23.2133 229.252 23.224C229.337 23.224 229.422 23.24 229.508 23.272C229.593 23.2933 229.662 23.336 229.716 23.4C229.78 23.464 229.812 23.5547 229.812 23.672C229.812 23.768 229.78 23.864 229.716 23.96C229.662 24.056 229.577 24.104 229.46 24.104C229.31 24.104 229.214 24.0987 229.172 24.088C229.129 24.0773 229.049 24.072 228.932 24.072C228.814 24.072 228.692 24.1093 228.564 24.184C228.436 24.248 228.308 24.3387 228.18 24.456C228.062 24.5627 227.95 24.6907 227.844 24.84C227.748 24.9893 227.673 25.144 227.62 25.304V26.536C227.62 26.6747 227.577 26.7867 227.492 26.872C227.417 26.9573 227.3 27 227.14 27C226.969 27 226.841 26.9573 226.756 26.872C226.681 26.7867 226.644 26.6747 226.644 26.536V22.808C226.644 22.3813 226.718 22.0027 226.868 21.672C227.017 21.3413 227.225 21.064 227.492 20.84C227.769 20.6053 228.089 20.4293 228.452 20.312C228.814 20.1947 229.214 20.136 229.652 20.136C230.089 20.136 230.489 20.1947 230.852 20.312C231.225 20.4293 231.545 20.6053 231.812 20.84C232.089 21.064 232.302 21.3413 232.452 21.672C232.601 22.0027 232.676 22.3813 232.676 22.808V26.536C232.676 26.6747 232.633 26.7867 232.548 26.872C232.462 26.9573 232.34 27 232.18 27C232.02 27 231.897 26.9573 231.812 26.872C231.726 26.7867 231.684 26.6747 231.684 26.536V22.808C231.684 22.4133 231.614 22.0987 231.476 21.864C231.337 21.6187 231.161 21.432 230.948 21.304C230.745 21.1653 230.526 21.0747 230.292 21.032C230.057 20.9893 229.844 20.968 229.652 20.968C229.47 20.968 229.262 20.9893 229.028 21.032C228.793 21.0747 228.569 21.1653 228.356 21.304C228.153 21.432 227.977 21.6187 227.828 21.864C227.689 22.0987 227.62 22.4133 227.62 22.808V24.184ZM232.157 19C232.039 19 231.927 18.9627 231.821 18.888C231.714 18.8027 231.661 18.7013 231.661 18.584V17C231.661 16.8827 231.714 16.7867 231.821 16.712C231.927 16.6267 232.039 16.584 232.157 16.584C232.295 16.584 232.418 16.6267 232.525 16.712C232.621 16.7867 232.669 16.8827 232.669 17V18.584C232.669 18.7013 232.621 18.8027 232.525 18.888C232.418 18.9627 232.295 19 232.157 19ZM234.989 21.992C234.989 22.1093 234.941 22.2107 234.845 22.296C234.749 22.3813 234.637 22.424 234.509 22.424C234.359 22.424 234.242 22.3867 234.157 22.312C234.071 22.2373 234.029 22.1627 234.029 22.088C234.029 21.8107 234.098 21.5547 234.237 21.32C234.386 21.0853 234.573 20.8827 234.797 20.712C235.031 20.5307 235.298 20.392 235.597 20.296C235.895 20.1893 236.199 20.136 236.509 20.136C237.373 20.136 237.997 20.376 238.381 20.856C238.765 21.3253 238.957 21.9707 238.957 22.792V26.472C238.957 26.824 238.791 27 238.461 27C238.141 27 237.981 26.824 237.981 26.472V22.92C237.981 22.4933 237.938 22.152 237.853 21.896C237.767 21.64 237.655 21.448 237.517 21.32C237.378 21.1813 237.218 21.0907 237.037 21.048C236.866 20.9947 236.69 20.968 236.509 20.968C236.231 20.968 235.997 21.0107 235.805 21.096C235.613 21.1813 235.453 21.2827 235.325 21.4C235.207 21.5067 235.122 21.6187 235.069 21.736C235.015 21.8427 234.989 21.928 234.989 21.992ZM242.87 23.976C242.742 23.976 242.635 23.9387 242.55 23.864C242.475 23.7787 242.438 23.6773 242.438 23.56C242.438 23.4427 242.475 23.3467 242.55 23.272C242.635 23.1867 242.742 23.144 242.87 23.144H243.526C243.76 23.144 243.947 23.2133 244.086 23.352C244.224 23.48 244.331 23.6347 244.406 23.816C244.48 23.9973 244.528 24.184 244.55 24.376C244.571 24.5573 244.582 24.696 244.582 24.792C244.582 26.264 243.99 27 242.806 27H242.79C241.936 27 241.323 26.7013 240.95 26.104C240.587 25.5067 240.406 24.6747 240.406 23.608C240.406 23.3413 240.422 23.048 240.454 22.728C240.486 22.408 240.55 22.0987 240.646 21.8C240.742 21.5013 240.87 21.224 241.03 20.968C241.2 20.712 241.424 20.504 241.702 20.344C241.979 20.1947 242.272 20.1253 242.582 20.136C242.731 20.1467 242.902 20.2053 243.094 20.312L243.846 20.696L244.566 20.312C244.736 20.2373 244.939 20.1893 245.174 20.168C245.675 20.1253 246.064 20.28 246.342 20.632C246.63 20.984 246.774 21.5227 246.774 22.248V26.536C246.774 26.6747 246.731 26.7867 246.646 26.872C246.56 26.9573 246.438 27 246.278 27C246.118 27 245.995 26.9573 245.91 26.872C245.824 26.7867 245.782 26.6747 245.782 26.536V22.04C245.782 21.8693 245.76 21.7093 245.718 21.56C245.686 21.4107 245.627 21.288 245.542 21.192C245.456 21.096 245.35 21.0373 245.222 21.016C245.094 20.9947 244.939 21.0267 244.758 21.112C244.619 21.176 244.459 21.2667 244.278 21.384C244.107 21.4907 243.963 21.544 243.846 21.544C243.792 21.544 243.723 21.528 243.638 21.496C243.563 21.4533 243.478 21.4053 243.382 21.352C243.286 21.2987 243.19 21.2453 243.094 21.192C242.998 21.1387 242.912 21.096 242.838 21.064C242.624 20.9787 242.427 20.9893 242.246 21.096C242.075 21.192 241.926 21.3627 241.798 21.608C241.67 21.8427 241.568 22.136 241.494 22.488C241.419 22.8293 241.382 23.1973 241.382 23.592V23.608C241.382 24.376 241.504 24.9947 241.75 25.464C242.006 25.9227 242.358 26.152 242.806 26.152C242.998 26.152 243.152 26.0987 243.27 25.992C243.398 25.8853 243.494 25.752 243.558 25.592C243.632 25.432 243.675 25.256 243.686 25.064C243.707 24.872 243.702 24.696 243.67 24.536C243.638 24.376 243.584 24.2427 243.51 24.136C243.446 24.0293 243.36 23.976 243.254 23.976H242.87ZM246.426 18.216C246.543 18.2267 246.634 18.2747 246.698 18.36C246.751 18.4347 246.778 18.5253 246.778 18.632C246.757 18.8773 246.613 19 246.346 19H241.402C241.135 19 240.991 18.8773 240.97 18.632C240.97 18.5253 241.002 18.4347 241.066 18.36C241.119 18.2747 241.205 18.2267 241.322 18.216H246.426ZM250.682 23.976C250.554 23.976 250.447 23.9387 250.362 23.864C250.287 23.7787 250.25 23.6773 250.25 23.56C250.25 23.4427 250.287 23.3467 250.362 23.272C250.447 23.1867 250.554 23.144 250.682 23.144H251.338C251.573 23.144 251.759 23.2133 251.898 23.352C252.037 23.48 252.143 23.6347 252.218 23.816C252.293 23.9973 252.341 24.184 252.362 24.376C252.383 24.5573 252.394 24.696 252.394 24.792C252.394 26.264 251.802 27 250.618 27H250.602C249.749 27 249.135 26.7013 248.762 26.104C248.399 25.5067 248.218 24.6747 248.218 23.608C248.218 22.5307 248.501 21.6827 249.066 21.064C249.642 20.4453 250.431 20.136 251.434 20.136C252.373 20.136 253.125 20.3653 253.69 20.824C254.255 21.272 254.538 21.9813 254.538 22.952V26.536C254.538 26.6747 254.495 26.7867 254.41 26.872C254.325 26.9573 254.202 27 254.042 27C253.882 27 253.759 26.9573 253.674 26.872C253.589 26.7867 253.546 26.6747 253.546 26.536V23.08C253.546 22.4187 253.386 21.9013 253.066 21.528C252.757 21.1547 252.213 20.968 251.434 20.968C250.698 20.968 250.138 21.208 249.754 21.688C249.381 22.168 249.194 22.808 249.194 23.608C249.194 24.376 249.317 24.9947 249.562 25.464C249.818 25.9227 250.17 26.152 250.618 26.152C250.81 26.152 250.965 26.0987 251.082 25.992C251.21 25.8853 251.306 25.752 251.37 25.592C251.445 25.432 251.487 25.256 251.498 25.064C251.519 24.872 251.514 24.696 251.482 24.536C251.45 24.376 251.397 24.2427 251.322 24.136C251.258 24.0293 251.173 23.976 251.066 23.976H250.682ZM258.448 23.976C258.32 23.976 258.213 23.9387 258.128 23.864C258.053 23.7787 258.016 23.6773 258.016 23.56C258.016 23.4427 258.053 23.3467 258.128 23.272C258.213 23.1867 258.32 23.144 258.448 23.144H259.104C259.338 23.144 259.525 23.2133 259.664 23.352C259.802 23.48 259.909 23.6347 259.984 23.816C260.058 23.9973 260.106 24.184 260.128 24.376C260.149 24.5573 260.16 24.696 260.16 24.792C260.16 26.264 259.568 27 258.384 27H258.368C257.514 27 256.901 26.7013 256.528 26.104C256.165 25.5067 255.984 24.6747 255.984 23.608C255.984 23.3413 256 23.048 256.032 22.728C256.064 22.408 256.128 22.0987 256.224 21.8C256.32 21.5013 256.448 21.224 256.608 20.968C256.778 20.712 257.002 20.504 257.28 20.344C257.557 20.1947 257.85 20.1253 258.16 20.136C258.309 20.1467 258.48 20.2053 258.672 20.312L259.424 20.696L260.144 20.312C260.314 20.2373 260.517 20.1893 260.752 20.168C261.253 20.1253 261.642 20.28 261.92 20.632C262.208 20.984 262.352 21.5227 262.352 22.248V26.536C262.352 26.6747 262.309 26.7867 262.224 26.872C262.138 26.9573 262.016 27 261.856 27C261.696 27 261.573 26.9573 261.488 26.872C261.402 26.7867 261.36 26.6747 261.36 26.536V22.04C261.36 21.8693 261.338 21.7093 261.296 21.56C261.264 21.4107 261.205 21.288 261.12 21.192C261.034 21.096 260.928 21.0373 260.8 21.016C260.672 20.9947 260.517 21.0267 260.336 21.112C260.197 21.176 260.037 21.2667 259.856 21.384C259.685 21.4907 259.541 21.544 259.424 21.544C259.37 21.544 259.301 21.528 259.216 21.496C259.141 21.4533 259.056 21.4053 258.96 21.352C258.864 21.2987 258.768 21.2453 258.672 21.192C258.576 21.1387 258.49 21.096 258.416 21.064C258.202 20.9787 258.005 20.9893 257.824 21.096C257.653 21.192 257.504 21.3627 257.376 21.608C257.248 21.8427 257.146 22.136 257.072 22.488C256.997 22.8293 256.96 23.1973 256.96 23.592V23.608C256.96 24.376 257.082 24.9947 257.328 25.464C257.584 25.9227 257.936 26.152 258.384 26.152C258.576 26.152 258.73 26.0987 258.848 25.992C258.976 25.8853 259.072 25.752 259.136 25.592C259.21 25.432 259.253 25.256 259.264 25.064C259.285 24.872 259.28 24.696 259.248 24.536C259.216 24.376 259.162 24.2427 259.088 24.136C259.024 24.0293 258.938 23.976 258.832 23.976H258.448ZM259.892 19C259.69 19 259.498 18.9627 259.316 18.888C259.135 18.8133 258.986 18.712 258.868 18.584C258.74 18.456 258.65 18.3067 258.596 18.136C258.532 17.9547 258.527 17.7573 258.58 17.544C258.634 17.2347 258.82 17.096 259.14 17.128C259.247 17.1493 259.338 17.2027 259.412 17.288C259.476 17.3627 259.498 17.448 259.476 17.544C259.412 17.7253 259.444 17.88 259.572 18.008C259.69 18.136 259.839 18.2 260.02 18.2H262.996C263.124 18.2 263.22 18.2427 263.284 18.328C263.359 18.4027 263.396 18.4933 263.396 18.6C263.396 18.7173 263.359 18.8133 263.284 18.888C263.22 18.9627 263.124 19 262.996 19H259.892ZM262.98 14.264C263.162 14.264 263.274 14.3067 263.316 14.392C263.37 14.4773 263.386 14.5787 263.364 14.696C263.3 15.0373 263.183 15.3147 263.012 15.528C262.831 15.7307 262.628 15.8907 262.404 16.008C262.17 16.1253 261.919 16.2053 261.652 16.248C261.375 16.28 261.103 16.2853 260.836 16.264C260.73 16.2533 260.623 16.2427 260.516 16.232C260.41 16.2213 260.308 16.2053 260.212 16.184C260.063 16.152 259.978 16.0827 259.956 15.976C259.935 15.8693 259.924 15.752 259.924 15.624V15.096H259.668C259.508 15.096 259.375 15.0747 259.268 15.032C259.162 14.9787 259.108 14.8667 259.108 14.696C259.108 14.5147 259.172 14.408 259.3 14.376C259.418 14.3333 259.551 14.312 259.7 14.312H260.34C260.543 14.312 260.666 14.3707 260.708 14.488C260.74 14.6053 260.756 14.7067 260.756 14.792V15.512C260.916 15.5227 261.082 15.5227 261.252 15.512C261.423 15.5013 261.583 15.4693 261.732 15.416C261.882 15.3627 262.02 15.2827 262.148 15.176C262.276 15.0693 262.378 14.9253 262.452 14.744C262.506 14.6267 262.57 14.52 262.644 14.424C262.719 14.3173 262.831 14.264 262.98 14.264ZM267.108 20.136C267.524 20.168 267.887 20.2853 268.196 20.488C268.506 20.68 268.756 20.9307 268.948 21.24C269.14 21.5493 269.279 21.9067 269.364 22.312C269.46 22.7067 269.503 23.1173 269.492 23.544C269.471 23.992 269.418 24.424 269.332 24.84C269.258 25.256 269.114 25.624 268.9 25.944C268.698 26.264 268.415 26.52 268.052 26.712C267.7 26.904 267.236 27 266.66 27C266.244 27 265.887 26.9307 265.588 26.792C265.29 26.6427 265.028 26.4133 264.804 26.104C264.58 25.7947 264.383 25.4 264.212 24.92C264.042 24.44 263.882 23.864 263.732 23.192C263.711 23.0853 263.738 22.9893 263.812 22.904C263.898 22.8187 263.999 22.7653 264.116 22.744C264.244 22.712 264.362 22.7227 264.468 22.776C264.586 22.8187 264.66 22.8987 264.692 23.016C264.82 23.5067 264.943 23.9493 265.06 24.344C265.178 24.728 265.306 25.0587 265.444 25.336C265.594 25.6027 265.764 25.8107 265.956 25.96C266.159 26.0987 266.404 26.168 266.692 26.168C267.044 26.168 267.332 26.0987 267.556 25.96C267.791 25.8213 267.972 25.64 268.1 25.416C268.239 25.1813 268.335 24.9093 268.388 24.6C268.442 24.28 268.474 23.944 268.484 23.592C268.495 23.368 268.484 23.112 268.452 22.824C268.42 22.536 268.351 22.264 268.244 22.008C268.148 21.7413 268.004 21.5173 267.812 21.336C267.62 21.144 267.375 21.032 267.076 21C266.927 20.9893 266.73 20.984 266.484 20.984C266.25 20.984 266.047 21.0107 265.876 21.064C265.78 21.0853 265.679 21.0693 265.572 21.016C265.476 20.952 265.418 20.8667 265.396 20.76C265.332 20.6 265.364 20.4773 265.492 20.392C265.631 20.3067 265.802 20.2427 266.004 20.2C266.207 20.1573 266.415 20.136 266.628 20.136C266.842 20.136 267.002 20.136 267.108 20.136Z" fill="#545859"/>
</svg>
