<svg width="325" height="44" viewBox="0 0 325 44" fill="none" xmlns="http://www.w3.org/2000/svg">
<circle cx="22" cy="22" r="22" fill="#FFD100"/>
<circle cx="22" cy="22" r="20" fill="#EFEFEF"/>
<path d="M21.3961 35.3034H9.40476C8.9977 35.3034 8.66748 34.9732 8.66748 34.5662V9.32127C8.66748 8.9142 8.9977 8.58398 9.40476 8.58398H21.3961C21.8031 8.58398 22.1334 8.9142 22.1334 9.32127V34.5662C22.1334 34.9732 21.8039 35.3034 21.3961 35.3034Z" fill="white"/>
<path d="M21.3601 36H9.41065C8.63304 36 8 35.367 8 34.5893V9.40989C8 8.63228 8.63304 8 9.41065 8H21.3601C22.1377 8 22.7708 8.63228 22.7708 9.40989V16.8961H21.6561V9.40989C21.6561 9.24707 21.5229 9.11391 21.3601 9.11391H9.41065C9.24707 9.11391 9.11467 9.2463 9.11467 9.40989V34.5886C9.11467 34.7522 9.24783 34.8853 9.41065 34.8853H21.3601C21.5237 34.8853 21.6561 34.7522 21.6561 34.5886V30.9828H22.7708V34.5886C22.7708 35.367 22.1377 36 21.3601 36Z" fill="#545859"/>
<path d="M20.7379 12.1855H10.0332V31.603H20.7379V12.1855Z" fill="#FFD100"/>
<path d="M17.6662 9.90625H13.104V11.0209H17.6662V9.90625Z" fill="#545859"/>
<path d="M15.9428 32.6602H14.8281V33.7748H15.9428V32.6602Z" fill="#545859"/>
<path d="M35.3644 18.3457H15.4189V29.5898H35.3644V18.3457Z" fill="white"/>
<path d="M35.9641 30.1886H14.8203V17.7461H35.9649V30.1886H35.9641ZM16.0187 28.9902H34.765V18.9445H16.0187V28.9902Z" fill="#545859"/>
<path d="M18.4503 27.7434C18.2677 27.1879 17.8249 26.7565 17.2656 26.5884V21.3201C17.815 21.1542 18.254 20.732 18.4419 20.1895H32.3438C32.5317 20.732 32.9707 21.1542 33.5201 21.3201V26.5884C32.9601 26.7565 32.518 27.1879 32.3354 27.7434H18.4503Z" fill="#FFE67D"/>
<path d="M27.3711 23.9665C27.3711 25.0592 26.4847 25.9448 25.3921 25.9448C24.2994 25.9448 23.4146 25.0592 23.4146 23.9665C23.4146 22.8732 24.3002 21.9883 25.3921 21.9883C26.4847 21.9883 27.3711 22.8739 27.3711 23.9665Z" fill="white"/>
<path d="M25.392 26.5443C23.9707 26.5443 22.8149 25.3878 22.8149 23.9665C22.8149 22.5452 23.9715 21.3887 25.392 21.3887C26.8141 21.3887 27.9706 22.5452 27.9706 23.9665C27.9706 25.3878 26.8141 26.5443 25.392 26.5443ZM25.392 22.5878C24.6319 22.5878 24.0141 23.2064 24.0141 23.9673C24.0141 24.7274 24.6319 25.346 25.392 25.346C26.1529 25.346 26.7715 24.7274 26.7715 23.9673C26.7715 23.2064 26.1529 22.5878 25.392 22.5878Z" fill="#545859"/>
<path d="M32.3012 23.3672H29.0454V24.5663H32.3012V23.3672Z" fill="#545859"/>
<path d="M21.7389 23.3672H18.4839V24.5663H21.7389V23.3672Z" fill="#545859"/>
<path d="M25.1765 13.0675L24.2354 12.1264C27.1388 9.22363 31.8623 9.22363 34.7658 12.1256L33.8246 13.0668C31.4408 10.683 27.5611 10.683 25.1765 13.0675Z" fill="#545859"/>
<path d="M26.8191 14.7158L25.8779 13.7746C26.845 12.8068 28.1316 12.2742 29.4997 12.2734H29.5004C30.8685 12.2734 32.1543 12.806 33.1214 13.7731L32.1802 14.7143C31.4642 13.9983 30.5124 13.6042 29.4997 13.6042H29.4989C28.4877 13.605 27.5359 13.9999 26.8191 14.7158Z" fill="#545859"/>
<path d="M28.4637 16.3036L27.5225 15.3632C28.0513 14.8344 28.7535 14.543 29.5007 14.543H29.5015C30.2487 14.543 30.9509 14.8336 31.479 15.3624L30.5378 16.3036C30.2608 16.0267 29.8926 15.8737 29.5007 15.8737C29.1096 15.8737 28.7414 16.0267 28.4637 16.3036Z" fill="#545859"/>
<path d="M62.032 24.904C62.032 25.352 62.048 25.672 62.08 25.864C62.112 26.056 62.2027 26.152 62.352 26.152C62.384 26.152 62.4213 26.136 62.464 26.104C62.5173 26.0613 62.5707 26.024 62.624 25.992C62.688 25.96 62.7573 25.9387 62.832 25.928C62.9173 25.9067 63.008 25.9173 63.104 25.96C63.2213 26.0133 63.2907 26.104 63.312 26.232C63.344 26.3493 63.3173 26.472 63.232 26.6C63.1787 26.6853 63.104 26.76 63.008 26.824C62.912 26.8773 62.8107 26.92 62.704 26.952C62.608 26.984 62.512 27.0053 62.416 27.016C62.32 27.0267 62.2507 27.032 62.208 27.032C61.9307 27.032 61.712 26.984 61.552 26.888C61.4027 26.7813 61.2907 26.6373 61.216 26.456C61.1413 26.264 61.0933 26.04 61.072 25.784C61.0507 25.528 61.04 25.2453 61.04 24.936V20.6C61.04 20.4613 61.0827 20.3493 61.168 20.264C61.2533 20.1787 61.376 20.136 61.536 20.136C61.696 20.136 61.8187 20.1787 61.904 20.264C61.9893 20.3493 62.032 20.4613 62.032 20.6V24.904ZM66.5884 23.976C66.4604 23.976 66.3537 23.9387 66.2684 23.864C66.1937 23.7787 66.1564 23.6773 66.1564 23.56C66.1564 23.4427 66.1937 23.3467 66.2684 23.272C66.3537 23.1867 66.4604 23.144 66.5884 23.144H67.2444C67.479 23.144 67.6657 23.2133 67.8044 23.352C67.943 23.48 68.0497 23.6347 68.1244 23.816C68.199 23.9973 68.247 24.184 68.2684 24.376C68.2897 24.5573 68.3004 24.696 68.3004 24.792C68.3004 26.264 67.7084 27 66.5244 27H66.5084C65.655 27 65.0417 26.7013 64.6684 26.104C64.3057 25.5067 64.1244 24.6747 64.1244 23.608C64.1244 23.3413 64.1404 23.048 64.1724 22.728C64.2044 22.408 64.2684 22.0987 64.3644 21.8C64.4604 21.5013 64.5884 21.224 64.7484 20.968C64.919 20.712 65.143 20.504 65.4204 20.344C65.6977 20.1947 65.991 20.1253 66.3004 20.136C66.4497 20.1467 66.6204 20.2053 66.8124 20.312L67.5644 20.696L68.2844 20.312C68.455 20.2373 68.6577 20.1893 68.8924 20.168C69.3937 20.1253 69.783 20.28 70.0604 20.632C70.3484 20.984 70.4924 21.5227 70.4924 22.248V26.536C70.4924 26.6747 70.4497 26.7867 70.3644 26.872C70.279 26.9573 70.1564 27 69.9964 27C69.8364 27 69.7137 26.9573 69.6284 26.872C69.543 26.7867 69.5004 26.6747 69.5004 26.536V22.04C69.5004 21.8693 69.479 21.7093 69.4364 21.56C69.4044 21.4107 69.3457 21.288 69.2604 21.192C69.175 21.096 69.0684 21.0373 68.9404 21.016C68.8124 20.9947 68.6577 21.0267 68.4764 21.112C68.3377 21.176 68.1777 21.2667 67.9964 21.384C67.8257 21.4907 67.6817 21.544 67.5644 21.544C67.511 21.544 67.4417 21.528 67.3564 21.496C67.2817 21.4533 67.1964 21.4053 67.1004 21.352C67.0044 21.2987 66.9084 21.2453 66.8124 21.192C66.7164 21.1387 66.631 21.096 66.5564 21.064C66.343 20.9787 66.1457 20.9893 65.9644 21.096C65.7937 21.192 65.6444 21.3627 65.5164 21.608C65.3884 21.8427 65.287 22.136 65.2124 22.488C65.1377 22.8293 65.1004 23.1973 65.1004 23.592V23.608C65.1004 24.376 65.223 24.9947 65.4684 25.464C65.7244 25.9227 66.0764 26.152 66.5244 26.152C66.7164 26.152 66.871 26.0987 66.9884 25.992C67.1164 25.8853 67.2124 25.752 67.2764 25.592C67.351 25.432 67.3937 25.256 67.4044 25.064C67.4257 24.872 67.4204 24.696 67.3884 24.536C67.3564 24.376 67.303 24.2427 67.2284 24.136C67.1644 24.0293 67.079 23.976 66.9724 23.976H66.5884ZM70.1449 18.216C70.2622 18.2267 70.3529 18.2747 70.4169 18.36C70.4702 18.4347 70.4969 18.5253 70.4969 18.632C70.4755 18.8773 70.3315 19 70.0649 19H65.1209C64.8542 19 64.7102 18.8773 64.6889 18.632C64.6889 18.5253 64.7209 18.4347 64.7849 18.36C64.8382 18.2747 64.9235 18.2267 65.0409 18.216H70.1449ZM77.5369 20.136C77.6862 20.136 77.8035 20.1787 77.8889 20.264C77.9849 20.3387 78.0329 20.4347 78.0329 20.552V24.568C78.0329 24.9733 77.9635 25.3307 77.8249 25.64C77.6969 25.9387 77.5102 26.1947 77.2649 26.408C77.0302 26.6107 76.7475 26.7653 76.4169 26.872C76.0969 26.9787 75.7449 27.032 75.3609 27.032C74.9449 27.032 74.5235 26.9467 74.0969 26.776C73.6809 26.5947 73.3342 26.3387 73.0569 26.008V26.536C73.0569 26.6747 73.0195 26.7867 72.9449 26.872C72.8702 26.9573 72.7475 27 72.5769 27C72.4169 27 72.2942 26.9573 72.2089 26.872C72.1342 26.7867 72.0969 26.6747 72.0969 26.536V20.552C72.0969 20.4347 72.1395 20.3387 72.2249 20.264C72.3209 20.1787 72.4435 20.136 72.5929 20.136C72.7422 20.136 72.8595 20.1787 72.9449 20.264C73.0409 20.3387 73.0889 20.4347 73.0889 20.552V24.552C73.1529 24.776 73.2542 24.9893 73.3929 25.192C73.5422 25.384 73.7129 25.5547 73.9049 25.704C74.0969 25.8427 74.3049 25.9547 74.5289 26.04C74.7529 26.1253 74.9769 26.168 75.2009 26.168C75.4569 26.168 75.6915 26.136 75.9049 26.072C76.1289 26.008 76.3262 25.912 76.4969 25.784C76.6675 25.6453 76.8009 25.4747 76.8969 25.272C76.9929 25.0693 77.0409 24.8293 77.0409 24.552V20.552C77.0409 20.4347 77.0889 20.3387 77.1849 20.264C77.2809 20.1787 77.3982 20.136 77.5369 20.136ZM80.8601 24.904C80.8601 25.352 80.8761 25.672 80.9081 25.864C80.9401 26.056 81.0308 26.152 81.1801 26.152C81.2121 26.152 81.2495 26.136 81.2921 26.104C81.3455 26.0613 81.3988 26.024 81.4521 25.992C81.5161 25.96 81.5855 25.9387 81.6601 25.928C81.7455 25.9067 81.8361 25.9173 81.9321 25.96C82.0495 26.0133 82.1188 26.104 82.1401 26.232C82.1721 26.3493 82.1455 26.472 82.0601 26.6C82.0068 26.6853 81.9321 26.76 81.8361 26.824C81.7401 26.8773 81.6388 26.92 81.5321 26.952C81.4361 26.984 81.3401 27.0053 81.2441 27.016C81.1481 27.0267 81.0788 27.032 81.0361 27.032C80.7588 27.032 80.5401 26.984 80.3801 26.888C80.2308 26.7813 80.1188 26.6373 80.0441 26.456C79.9695 26.264 79.9215 26.04 79.9001 25.784C79.8788 25.528 79.8681 25.2453 79.8681 24.936V20.6C79.8681 20.4613 79.9108 20.3493 79.9961 20.264C80.0815 20.1787 80.2041 20.136 80.3641 20.136C80.5241 20.136 80.6468 20.1787 80.7321 20.264C80.8175 20.3493 80.8601 20.4613 80.8601 20.6V24.904ZM86.2645 20.136C86.6805 20.168 87.0432 20.2853 87.3525 20.488C87.6618 20.68 87.9125 20.9307 88.1045 21.24C88.2965 21.5493 88.4352 21.9067 88.5205 22.312C88.6165 22.7067 88.6592 23.1173 88.6485 23.544C88.6272 23.992 88.5738 24.424 88.4885 24.84C88.4138 25.256 88.2698 25.624 88.0565 25.944C87.8538 26.264 87.5712 26.52 87.2085 26.712C86.8565 26.904 86.3925 27 85.8165 27C85.4005 27 85.0432 26.9307 84.7445 26.792C84.4458 26.6427 84.1845 26.4133 83.9605 26.104C83.7365 25.7947 83.5392 25.4 83.3685 24.92C83.1978 24.44 83.0378 23.864 82.8885 23.192C82.8672 23.0853 82.8938 22.9893 82.9685 22.904C83.0538 22.8187 83.1552 22.7653 83.2725 22.744C83.4005 22.712 83.5178 22.7227 83.6245 22.776C83.7418 22.8187 83.8165 22.8987 83.8485 23.016C83.9765 23.5067 84.0992 23.9493 84.2165 24.344C84.3338 24.728 84.4618 25.0587 84.6005 25.336C84.7498 25.6027 84.9205 25.8107 85.1125 25.96C85.3152 26.0987 85.5605 26.168 85.8485 26.168C86.2005 26.168 86.4885 26.0987 86.7125 25.96C86.9472 25.8213 87.1285 25.64 87.2565 25.416C87.3952 25.1813 87.4912 24.9093 87.5445 24.6C87.5978 24.28 87.6298 23.944 87.6405 23.592C87.6512 23.368 87.6405 23.112 87.6085 22.824C87.5765 22.536 87.5072 22.264 87.4005 22.008C87.3045 21.7413 87.1605 21.5173 86.9685 21.336C86.7765 21.144 86.5312 21.032 86.2325 21C86.0832 20.9893 85.8858 20.984 85.6405 20.984C85.4058 20.984 85.2032 21.0107 85.0325 21.064C84.9365 21.0853 84.8352 21.0693 84.7285 21.016C84.6325 20.952 84.5738 20.8667 84.5525 20.76C84.4885 20.6 84.5205 20.4773 84.6485 20.392C84.7872 20.3067 84.9578 20.2427 85.1605 20.2C85.3632 20.1573 85.5712 20.136 85.7845 20.136C85.9978 20.136 86.1578 20.136 86.2645 20.136ZM88.1449 18.216C88.2622 18.2267 88.3529 18.2747 88.4169 18.36C88.4702 18.4347 88.4969 18.5253 88.4969 18.632C88.4755 18.8773 88.3315 19 88.0649 19H83.1209C82.8542 19 82.7102 18.8773 82.6889 18.632C82.6889 18.5253 82.7209 18.4347 82.7849 18.36C82.8382 18.2747 82.9235 18.2267 83.0409 18.216H88.1449ZM95.8729 26.536C95.8729 26.6747 95.8302 26.7867 95.7449 26.872C95.6702 26.9573 95.5529 27 95.3929 27C95.2222 27 95.0995 26.9573 95.0249 26.872C94.9502 26.7867 94.9129 26.6747 94.9129 26.536V25.976C94.6675 26.296 94.3422 26.552 93.9369 26.744C93.5315 26.9253 93.1155 27.016 92.6889 27.016C92.3155 27.016 91.9689 26.968 91.6489 26.872C91.3289 26.7653 91.0515 26.6107 90.8169 26.408C90.5929 26.1947 90.4169 25.9333 90.2889 25.624C90.1609 25.3147 90.0969 24.9573 90.0969 24.552V20.552C90.0969 20.4347 90.1395 20.3333 90.2249 20.248C90.3209 20.1627 90.4435 20.12 90.5929 20.12C90.7422 20.12 90.8595 20.1627 90.9449 20.248C91.0409 20.3333 91.0889 20.4347 91.0889 20.552V24.552C91.0889 25.0747 91.2489 25.4747 91.5689 25.752C91.8889 26.0187 92.3155 26.152 92.8489 26.152C93.0729 26.152 93.2915 26.1093 93.5049 26.024C93.7289 25.9387 93.9315 25.8267 94.1129 25.688C94.2942 25.5387 94.4542 25.368 94.5929 25.176C94.7315 24.9733 94.8275 24.76 94.8809 24.536V20.552C94.8809 20.4347 94.9235 20.3333 95.0089 20.248C95.1049 20.1627 95.2275 20.12 95.3769 20.12C95.5262 20.12 95.6435 20.1627 95.7289 20.248C95.8249 20.3333 95.8729 20.4347 95.8729 20.552V26.536ZM106.407 19.096C106.524 19.096 106.631 19.1387 106.727 19.224C106.833 19.3093 106.887 19.4107 106.887 19.528V26.616C106.887 26.7653 106.828 26.8773 106.711 26.952C106.604 27.016 106.481 27.048 106.343 27.048C106.204 27.048 106.06 26.968 105.911 26.808C105.761 26.6373 105.633 26.4773 105.527 26.328L101.607 20.872V26.632C101.607 26.7493 101.559 26.8507 101.463 26.936C101.367 27.0213 101.244 27.064 101.095 27.064C100.967 27.064 100.849 27.0213 100.743 26.936C100.647 26.8507 100.599 26.7493 100.599 26.632V19.544C100.599 19.384 100.647 19.272 100.743 19.208C100.849 19.1333 100.967 19.096 101.095 19.096C101.159 19.096 101.244 19.1173 101.351 19.16C101.457 19.2027 101.564 19.2987 101.671 19.448L105.895 25.288V19.528C105.895 19.4107 105.943 19.3093 106.039 19.224C106.135 19.1387 106.257 19.096 106.407 19.096ZM113.91 19.16C114.027 19.16 114.128 19.2027 114.214 19.288C114.299 19.3733 114.342 19.4747 114.342 19.592C114.342 19.6987 114.299 19.7947 114.214 19.88C114.128 19.9653 114.027 20.008 113.91 20.008H111.718V26.632C111.718 26.7493 111.664 26.8507 111.558 26.936C111.462 27.0213 111.344 27.064 111.206 27.064C111.056 27.064 110.934 27.0213 110.838 26.936C110.752 26.8507 110.71 26.7493 110.71 26.632V20.008H108.518C108.368 20.008 108.256 19.9653 108.182 19.88C108.118 19.7947 108.086 19.6987 108.086 19.592C108.086 19.4747 108.118 19.3733 108.182 19.288C108.256 19.2027 108.368 19.16 108.518 19.16H113.91ZM125.111 19.128C125.25 19.128 125.367 19.1707 125.463 19.256C125.559 19.3307 125.607 19.4267 125.607 19.544V26.632C125.607 26.7493 125.559 26.8507 125.463 26.936C125.367 27.0213 125.25 27.064 125.111 27.064C124.972 27.064 124.85 27.0213 124.743 26.936C124.647 26.8507 124.599 26.7493 124.599 26.632V20.888L122.503 23.672C122.46 23.7253 122.402 23.768 122.327 23.8C122.252 23.832 122.178 23.848 122.103 23.848C121.911 23.848 121.772 23.7893 121.687 23.672L119.591 20.888V26.632C119.591 26.7493 119.538 26.8507 119.431 26.936C119.335 27.0213 119.218 27.064 119.079 27.064C118.951 27.064 118.834 27.0213 118.727 26.936C118.631 26.8507 118.583 26.7493 118.583 26.632V19.544C118.583 19.4267 118.631 19.3307 118.727 19.256C118.834 19.1707 118.951 19.128 119.079 19.128C119.282 19.128 119.42 19.1813 119.495 19.288L122.103 22.792L124.679 19.288C124.775 19.1813 124.919 19.128 125.111 19.128ZM130.196 21.016C131.167 21.016 131.919 21.2773 132.452 21.8C132.986 22.3227 133.252 23.064 133.252 24.024C133.252 24.9947 132.986 25.7467 132.452 26.28C131.919 26.8027 131.167 27.064 130.196 27.064C129.215 27.064 128.458 26.8027 127.924 26.28C127.391 25.7467 127.124 24.9947 127.124 24.024C127.124 23.064 127.391 22.3227 127.924 21.8C128.458 21.2773 129.215 21.016 130.196 21.016ZM130.196 26.248C130.847 26.248 131.354 26.056 131.716 25.672C132.079 25.288 132.26 24.7387 132.26 24.024C132.26 23.32 132.084 22.776 131.732 22.392C131.38 22.008 130.868 21.816 130.196 21.816C129.524 21.816 129.007 22.008 128.644 22.392C128.292 22.776 128.116 23.32 128.116 24.024C128.116 24.7387 128.287 25.288 128.628 25.672C128.98 26.056 129.503 26.248 130.196 26.248ZM134.707 18.84C134.707 18.7227 134.755 18.6213 134.851 18.536C134.947 18.4507 135.069 18.408 135.219 18.408C135.347 18.408 135.459 18.4507 135.555 18.536C135.661 18.6213 135.715 18.7227 135.715 18.84V22.312C135.757 22.12 135.837 21.944 135.955 21.784C136.072 21.624 136.216 21.4853 136.387 21.368C136.557 21.2507 136.739 21.16 136.931 21.096C137.133 21.032 137.341 21 137.555 21C138.419 21 139.096 21.256 139.587 21.768C140.077 22.28 140.323 23.0427 140.323 24.056C140.323 24.4933 140.264 24.8987 140.147 25.272C140.029 25.6347 139.859 25.9493 139.635 26.216C139.411 26.4827 139.128 26.6907 138.787 26.84C138.456 26.9787 138.072 27.048 137.635 27.048C137.197 27.048 136.803 26.9573 136.451 26.776C136.099 26.5947 135.832 26.3653 135.651 26.088V26.664C135.651 26.7707 135.603 26.8667 135.507 26.952C135.421 27.0267 135.304 27.064 135.155 27.064C135.037 27.064 134.931 27.0267 134.835 26.952C134.749 26.8667 134.707 26.7707 134.707 26.664V18.84ZM135.699 24.504C135.699 24.664 135.736 24.8453 135.811 25.048C135.885 25.24 135.997 25.4267 136.147 25.608C136.296 25.7787 136.483 25.928 136.707 26.056C136.931 26.1733 137.197 26.232 137.507 26.232C137.709 26.232 137.917 26.1893 138.131 26.104C138.355 26.0187 138.552 25.8853 138.723 25.704C138.904 25.5227 139.053 25.288 139.171 25C139.288 24.712 139.347 24.36 139.347 23.944C139.347 23.2827 139.192 22.7653 138.883 22.392C138.584 22.0187 138.131 21.832 137.523 21.832C137.224 21.832 136.963 21.896 136.739 22.024C136.515 22.152 136.323 22.312 136.163 22.504C136.013 22.6853 135.896 22.8773 135.811 23.08C135.736 23.2827 135.699 23.464 135.699 23.624V24.504ZM143.034 26.616C143.034 26.7333 142.981 26.8347 142.874 26.92C142.778 27.0053 142.666 27.048 142.538 27.048C142.389 27.048 142.266 27.0053 142.17 26.92C142.074 26.8347 142.026 26.7333 142.026 26.616V21.448C142.026 21.3307 142.074 21.2293 142.17 21.144C142.277 21.0587 142.394 21.016 142.522 21.016C142.672 21.016 142.794 21.0587 142.89 21.144C142.986 21.2293 143.034 21.3307 143.034 21.448V26.616ZM141.866 19.464C141.866 19.2827 141.93 19.1333 142.058 19.016C142.186 18.888 142.341 18.824 142.522 18.824C142.714 18.824 142.869 18.888 142.986 19.016C143.114 19.1333 143.178 19.2827 143.178 19.464C143.178 19.6453 143.114 19.7947 142.986 19.912C142.869 20.0293 142.714 20.088 142.522 20.088C142.341 20.088 142.186 20.0293 142.058 19.912C141.93 19.7947 141.866 19.6453 141.866 19.464ZM145.597 27.048C145.469 27.048 145.351 27.0053 145.245 26.92C145.149 26.8347 145.101 26.7333 145.101 26.616V18.872C145.101 18.7547 145.149 18.6533 145.245 18.568C145.351 18.4827 145.469 18.44 145.597 18.44C145.735 18.44 145.853 18.4827 145.949 18.568C146.045 18.6533 146.093 18.7547 146.093 18.872V26.616C146.093 26.7333 146.045 26.8347 145.949 26.92C145.853 27.0053 145.735 27.048 145.597 27.048ZM150.583 21.016C151.479 21.0267 152.188 21.2773 152.711 21.768C153.244 22.2587 153.511 22.9573 153.511 23.864C153.511 24.0133 153.474 24.1413 153.399 24.248C153.324 24.344 153.202 24.392 153.031 24.392H148.615C148.668 25.064 148.887 25.5333 149.271 25.8C149.655 26.0667 150.183 26.2 150.855 26.2C151.154 26.2 151.442 26.1627 151.719 26.088C151.996 26.0027 152.279 25.8907 152.567 25.752C152.716 25.7093 152.839 25.736 152.935 25.832C153.031 25.9173 153.09 26.0187 153.111 26.136C153.132 26.232 153.095 26.3227 152.999 26.408C152.914 26.4933 152.796 26.5627 152.647 26.616C152.05 26.9147 151.442 27.064 150.823 27.064C149.788 27.064 148.994 26.8027 148.439 26.28C147.884 25.7467 147.607 24.9947 147.607 24.024C147.607 23.064 147.863 22.3227 148.375 21.8C148.898 21.2773 149.634 21.016 150.583 21.016ZM152.567 23.608C152.514 23.064 152.332 22.632 152.023 22.312C151.724 21.9813 151.25 21.816 150.599 21.816C149.97 21.816 149.495 21.9707 149.175 22.28C148.855 22.5893 148.663 23.032 148.599 23.608H152.567Z" fill="#545859"/>
</svg>
