<svg width="325" height="44" viewBox="0 0 325 44" fill="none" xmlns="http://www.w3.org/2000/svg">
<circle cx="22" cy="22" r="22" fill="#FFD100"/>
<circle cx="22" cy="22" r="20" fill="#EFEFEF"/>
<g clip-path="url(#clip0_2373_366143)">
<path d="M18.024 13.2305V12.6785L16.3424 9.58594L14.6602 12.6779V13.2305H15.4186V12.8708L16.3424 11.1731L17.2656 12.8708L17.2649 13.2305H18.024Z" fill="#545859"/>
<path d="M18.04 12.8711H14.6431V32.5347H18.04V12.8711Z" fill="#FFD100"/>
<path d="M17.6464 32.7539V33.8046C17.6464 33.9341 17.5188 34.0387 17.3602 34.0387H15.3257C15.1665 34.0387 15.0383 33.9348 15.0376 33.8052V32.7539" fill="white"/>
<path d="M17.3601 34.4186H15.3256C15.1616 34.4186 15.0044 34.3646 14.8829 34.2655C14.7405 34.1501 14.6589 33.982 14.6582 33.8052V32.7539H15.4167V33.6595H17.267V32.7539H18.0254V33.8039C18.0261 33.9591 17.964 34.1069 17.8507 34.2202L17.85 34.2209C17.7251 34.3464 17.547 34.4179 17.3601 34.4186ZM17.267 33.8046V33.8039C17.267 33.8046 17.267 33.8046 17.267 33.8046Z" fill="#545859"/>
<path d="M18.0407 32.1543H14.6431V32.9128H18.0407V32.1543Z" fill="#545859"/>
<path d="M12.2991 24.2191C12.2991 24.0092 12.1291 23.8398 11.9199 23.8398H8.75912C8.54993 23.8398 8.37988 24.0099 8.37988 24.2191V33.6568C8.37988 33.8666 8.54993 34.036 8.75979 34.036H11.9205C12.1304 34.036 12.2998 33.866 12.2998 33.6568L12.2991 24.2191Z" fill="#FFE67D"/>
<path d="M12.4557 34.1942C12.4557 34.1942 12.4557 34.1949 12.4557 34.1942C12.3119 34.338 12.1217 34.4162 11.9192 34.4162H8.75915C8.34077 34.4162 8 34.0755 8 33.6578V24.2201C8 23.8024 8.3401 23.4616 8.7578 23.4609H11.9192C12.1217 23.4609 12.3126 23.5399 12.4557 23.6829C12.5987 23.826 12.6777 24.017 12.6777 24.2194V33.6571C12.6784 33.8602 12.5994 34.0512 12.4557 34.1942ZM8.75847 24.2201V33.6578H11.9192V24.2194L8.75847 24.2201Z" fill="#545859"/>
<path d="M9.04346 22.5117V23.4598C9.04346 23.6697 9.16762 23.839 9.32147 23.839H11.358C11.5112 23.839 11.6353 23.669 11.6353 23.4598V22.5117H9.04346Z" fill="#FFD100"/>
<path d="M11.7897 24.0351C11.6716 24.1531 11.5191 24.2193 11.3579 24.2193H9.32131C8.95287 24.2193 8.66406 23.8859 8.66406 23.4608V22.1328L12.0151 22.1335V23.4608C12.0151 23.6417 11.9604 23.8171 11.8606 23.9527C11.8383 23.9824 11.8147 24.0101 11.7897 24.0351ZM9.42253 23.4608H11.256V22.892H9.42253V23.4608Z" fill="#545859"/>
<path d="M10.7179 13.4883H9.95947V22.8443H10.7179V13.4883Z" fill="#545859"/>
<path d="M10.1903 14.1904L9.28271 13.2754L9.81108 11.3151L10.8671 11.3145L11.3962 13.2754L10.4879 14.1904H10.1903Z" fill="white"/>
<path d="M10.6457 14.57H10.0317L8.85889 13.3884L9.51951 10.9362L11.1572 10.9355L11.8185 13.3878L10.6457 14.57ZM9.70575 13.1637L10.3394 13.8021L10.973 13.1637L10.5769 11.694H10.1019L9.70575 13.1637Z" fill="#545859"/>
<path d="M10.0158 24.9102H9.25732V32.9706H10.0158V24.9102Z" fill="#545859"/>
<path d="M11.4211 24.9102H10.6626V32.9699H11.4211V24.9102Z" fill="#545859"/>
<path d="M31.215 23.827C31.215 25.9041 29.5313 27.5877 27.455 27.5877C25.378 27.5877 23.6943 25.9041 23.6943 23.827C23.6943 21.75 25.3773 20.0664 27.455 20.0664C29.5313 20.0671 31.215 21.75 31.215 23.827Z" fill="#FFE67D"/>
<path d="M27.3989 24.358L25.5034 22.4389L25.9488 21.9989L27.3989 23.4672L29.6224 21.2168L30.0677 21.6568L27.3989 24.358Z" fill="#545859"/>
<path d="M31.4627 30.8972H29.0206L29.0165 30.5881C29.0159 30.5598 29.0138 29.8796 29.5186 29.1393C29.7332 28.8242 30.0652 28.5516 30.3574 28.3107C30.5983 28.1123 30.9627 27.8127 30.9627 27.6784V27.5394C30.9627 27.1352 30.634 26.8059 30.2298 26.8059C29.8256 26.8059 29.4963 27.1345 29.4963 27.5394H28.8701C28.8701 26.7897 29.4801 26.1797 30.2298 26.1797C30.9789 26.1797 31.5889 26.7897 31.5889 27.5394V27.6784C31.5889 28.1083 31.184 28.4416 30.7548 28.7945C30.4822 29.0192 30.2001 29.2514 30.0355 29.4923C29.8344 29.7878 29.7359 30.0685 29.688 30.2717H31.462V30.8972H31.4627Z" fill="#545859"/>
<path d="M33.8684 26.3535H33.2422V30.8173H33.8684V26.3535Z" fill="#545859"/>
<path d="M34.4541 29.5257H31.4121L33.253 26.3359L33.7955 26.649L32.4958 28.8995H34.4541V29.5257Z" fill="#545859"/>
<path d="M27.537 29.1274C27.5181 29.1274 27.5006 29.1294 27.4817 29.1294C24.5585 29.1294 22.1805 26.7514 22.1805 23.8289C22.1805 20.9056 24.5585 18.5283 27.4817 18.5283C30.0803 18.5283 32.2451 20.4083 32.6945 22.8794H31.8591L32.7262 23.9092L33.5933 24.9389L34.4604 23.9092L35.3276 22.8794H34.2425C33.7782 19.5628 30.9245 17.002 27.4824 17.002C23.7177 17.002 20.6548 20.0649 20.6548 23.8295C20.6548 27.5942 23.7177 30.6571 27.4824 30.6571C27.5006 30.6571 27.5188 30.6564 27.5377 30.6558V29.1274H27.537Z" fill="white"/>
<path d="M27.4815 30.9682C25.5772 30.9682 23.785 30.2246 22.4347 28.875C21.0844 27.5247 20.3408 25.7325 20.3408 23.8282C20.3408 19.8908 23.5441 16.6875 27.4815 16.6875C30.9304 16.6875 33.9042 19.1957 34.5088 22.565H36.0001L33.5931 25.4241L31.1861 22.565H32.3049C31.7368 20.3854 29.7657 18.8401 27.4815 18.8401C24.731 18.8401 22.4934 21.0777 22.4934 23.8275C22.4934 26.578 24.731 28.8149 27.4815 28.8149L27.4943 28.8143C27.5072 28.8136 27.52 28.8129 27.5335 28.8129L27.85 28.8089V30.9635L27.52 30.9662C27.5065 30.9675 27.4937 30.9682 27.4815 30.9682ZM27.4808 17.3137C23.8889 17.3137 20.9664 20.2363 20.9664 23.8282C20.9664 25.5651 21.6445 27.2001 22.8767 28.4323C24.0475 29.6031 25.5826 30.2738 27.2231 30.3373V29.4357C24.2465 29.3008 21.8665 26.8371 21.8665 23.8282C21.8665 20.7329 24.3849 18.2146 27.4808 18.2146C30.1942 18.2146 32.5162 20.1526 33.0013 22.8227L33.0681 23.1919H32.5303L33.5918 24.4524L34.6532 23.1919H33.9683L33.9305 22.9219C33.4838 19.7241 30.7104 17.3137 27.4808 17.3137Z" fill="#545859"/>
<path d="M28.2722 23.8269C28.2722 24.2784 27.9065 24.6448 27.4551 24.6448C27.0036 24.6448 26.6372 24.2791 26.6372 23.8269C26.6372 23.3755 27.0036 23.0098 27.4551 23.0098C27.9065 23.0098 28.2722 23.3755 28.2722 23.8269Z" fill="white"/>
<path d="M27.4552 24.9585C26.8317 24.9585 26.3242 24.4511 26.3242 23.8276C26.3242 23.204 26.8317 22.6973 27.4552 22.6973C28.0787 22.6973 28.5854 23.2047 28.5854 23.8276C28.5854 24.4511 28.078 24.9585 27.4552 24.9585ZM27.4552 23.3235C27.1772 23.3235 26.9504 23.5495 26.9504 23.8282C26.9504 24.1062 27.1772 24.333 27.4552 24.333C27.7332 24.333 27.9592 24.1069 27.9592 23.8282C27.9592 23.5495 27.7332 23.3235 27.4552 23.3235Z" fill="#545859"/>
<path d="M27.6335 19.9961H27.0073V20.6223H27.6335V19.9961Z" fill="#545859"/>
<path d="M24.1902 23.5957H23.564V24.2219H24.1902V23.5957Z" fill="#545859"/>
<path d="M27.7903 27.0391H27.1641V27.6653H27.7903V27.0391Z" fill="#545859"/>
<path d="M31.2336 23.4395H30.6074V24.0657H31.2336V23.4395Z" fill="#545859"/>
</g>
<path d="M62.032 24.904C62.032 25.352 62.048 25.672 62.08 25.864C62.112 26.056 62.2027 26.152 62.352 26.152C62.384 26.152 62.4213 26.136 62.464 26.104C62.5173 26.0613 62.5707 26.024 62.624 25.992C62.688 25.96 62.7573 25.9387 62.832 25.928C62.9173 25.9067 63.008 25.9173 63.104 25.96C63.2213 26.0133 63.2907 26.104 63.312 26.232C63.344 26.3493 63.3173 26.472 63.232 26.6C63.1787 26.6853 63.104 26.76 63.008 26.824C62.912 26.8773 62.8107 26.92 62.704 26.952C62.608 26.984 62.512 27.0053 62.416 27.016C62.32 27.0267 62.2507 27.032 62.208 27.032C61.9307 27.032 61.712 26.984 61.552 26.888C61.4027 26.7813 61.2907 26.6373 61.216 26.456C61.1413 26.264 61.0933 26.04 61.072 25.784C61.0507 25.528 61.04 25.2453 61.04 24.936V20.6C61.04 20.4613 61.0827 20.3493 61.168 20.264C61.2533 20.1787 61.376 20.136 61.536 20.136C61.696 20.136 61.8187 20.1787 61.904 20.264C61.9893 20.3493 62.032 20.4613 62.032 20.6V24.904ZM65.2 24.904C65.2 25.352 65.216 25.672 65.248 25.864C65.28 26.056 65.3707 26.152 65.52 26.152C65.552 26.152 65.5893 26.136 65.632 26.104C65.6853 26.0613 65.7387 26.024 65.792 25.992C65.856 25.96 65.9253 25.9387 66 25.928C66.0853 25.9067 66.176 25.9173 66.272 25.96C66.3893 26.0133 66.4587 26.104 66.48 26.232C66.512 26.3493 66.4853 26.472 66.4 26.6C66.3467 26.6853 66.272 26.76 66.176 26.824C66.08 26.8773 65.9787 26.92 65.872 26.952C65.776 26.984 65.68 27.0053 65.584 27.016C65.488 27.0267 65.4187 27.032 65.376 27.032C65.0987 27.032 64.88 26.984 64.72 26.888C64.5707 26.7813 64.4587 26.6373 64.384 26.456C64.3093 26.264 64.2613 26.04 64.24 25.784C64.2187 25.528 64.208 25.2453 64.208 24.936V20.6C64.208 20.4613 64.2507 20.3493 64.336 20.264C64.4213 20.1787 64.544 20.136 64.704 20.136C64.864 20.136 64.9867 20.1787 65.072 20.264C65.1573 20.3493 65.2 20.4613 65.2 20.6V24.904ZM70.1283 27C69.6909 27 69.3443 26.9253 69.0883 26.776C68.8323 26.616 68.6296 26.408 68.4803 26.152C68.3416 25.8853 68.2456 25.5813 68.1923 25.24C68.1389 24.8987 68.0963 24.5413 68.0643 24.168H67.6163C67.3709 24.168 67.2483 24.0347 67.2483 23.768C67.2483 23.6507 67.2803 23.56 67.3443 23.496C67.4083 23.4213 67.4989 23.384 67.6163 23.384H68.6562C68.7736 23.384 68.8589 23.416 68.9123 23.48C68.9656 23.544 68.9923 23.624 68.9923 23.72C68.9923 23.9973 68.9976 24.2853 69.0082 24.584C69.0296 24.872 69.0776 25.1333 69.1523 25.368C69.2269 25.6027 69.3389 25.7947 69.4883 25.944C69.6483 26.0933 69.8669 26.168 70.1443 26.168C70.4109 26.168 70.6243 26.0987 70.7843 25.96C70.9549 25.8107 71.0829 25.6133 71.1683 25.368C71.2536 25.1227 71.3123 24.84 71.3443 24.52C71.3763 24.1893 71.3923 23.8427 71.3923 23.48C71.3923 23.128 71.3763 22.8027 71.3443 22.504C71.3229 22.1947 71.2589 21.928 71.1523 21.704C71.0456 21.48 70.8803 21.304 70.6562 21.176C70.4323 21.048 70.1283 20.984 69.7443 20.984C69.3283 20.984 68.9549 21.0533 68.6243 21.192C68.3043 21.32 68.0109 21.5013 67.7443 21.736C67.6589 21.7893 67.5523 21.8107 67.4243 21.8C67.2963 21.7893 67.2003 21.736 67.1363 21.64C67.0509 21.5333 67.0243 21.4213 67.0563 21.304C67.0883 21.1867 67.1523 21.096 67.2483 21.032C67.6216 20.7227 68.0056 20.4933 68.4003 20.344C68.8056 20.1947 69.2536 20.12 69.7443 20.12C70.2669 20.12 70.6936 20.1947 71.0243 20.344C71.3656 20.4827 71.6323 20.6907 71.8243 20.968C72.0269 21.2453 72.1656 21.592 72.2403 22.008C72.3256 22.4133 72.3683 22.8827 72.3683 23.416C72.3683 23.8533 72.3363 24.2907 72.2723 24.728C72.2189 25.1547 72.1123 25.5387 71.9523 25.88C71.7923 26.2107 71.5629 26.4827 71.2643 26.696C70.9763 26.8987 70.5976 27 70.1283 27ZM72.6156 16.792C72.797 16.792 72.9143 16.84 72.9676 16.936C73.021 17.0213 73.037 17.1227 73.0156 17.24C72.941 17.6027 72.8076 17.9013 72.6156 18.136C72.4236 18.3707 72.1943 18.552 71.9276 18.68C71.661 18.808 71.373 18.8987 71.0636 18.952C70.7436 18.9947 70.4343 19.0053 70.1356 18.984C70.0183 18.9733 69.901 18.9627 69.7836 18.952C69.6556 18.9413 69.5436 18.9253 69.4476 18.904C69.2876 18.8613 69.197 18.7867 69.1756 18.68C69.1543 18.5627 69.1436 18.4347 69.1436 18.296V17.736H68.8556C68.685 17.736 68.5463 17.7093 68.4396 17.656C68.3223 17.6027 68.2636 17.48 68.2636 17.288C68.2636 17.096 68.3276 16.984 68.4556 16.952C68.5836 16.9093 68.7276 16.888 68.8876 16.888H69.5756C69.789 16.888 69.9223 16.952 69.9756 17.08C70.029 17.1973 70.0556 17.3093 70.0556 17.416V18.168C70.2476 18.1787 70.445 18.1787 70.6476 18.168C70.8396 18.1467 71.0263 18.104 71.2076 18.04C71.389 17.976 71.5543 17.8853 71.7036 17.768C71.8423 17.6507 71.9543 17.4907 72.0396 17.288C72.093 17.1707 72.1623 17.0587 72.2476 16.952C72.333 16.8453 72.4556 16.792 72.6156 16.792ZM76.9676 20.136C77.3836 20.168 77.7463 20.2853 78.0556 20.488C78.365 20.68 78.6156 20.9307 78.8076 21.24C78.9996 21.5493 79.1383 21.9067 79.2236 22.312C79.3196 22.7067 79.3623 23.1173 79.3516 23.544C79.3303 23.992 79.277 24.424 79.1916 24.84C79.117 25.256 78.973 25.624 78.7596 25.944C78.557 26.264 78.2743 26.52 77.9116 26.712C77.5596 26.904 77.0956 27 76.5196 27C76.1036 27 75.7463 26.9307 75.4476 26.792C75.149 26.6427 74.8876 26.4133 74.6636 26.104C74.4396 25.7947 74.2423 25.4 74.0716 24.92C73.901 24.44 73.741 23.864 73.5916 23.192C73.5703 23.0853 73.597 22.9893 73.6716 22.904C73.757 22.8187 73.8583 22.7653 73.9756 22.744C74.1036 22.712 74.221 22.7227 74.3276 22.776C74.445 22.8187 74.5196 22.8987 74.5516 23.016C74.6796 23.5067 74.8023 23.9493 74.9196 24.344C75.037 24.728 75.165 25.0587 75.3036 25.336C75.453 25.6027 75.6236 25.8107 75.8156 25.96C76.0183 26.0987 76.2636 26.168 76.5516 26.168C76.9036 26.168 77.1916 26.0987 77.4156 25.96C77.6503 25.8213 77.8316 25.64 77.9596 25.416C78.0983 25.1813 78.1943 24.9093 78.2476 24.6C78.301 24.28 78.333 23.944 78.3436 23.592C78.3543 23.368 78.3436 23.112 78.3116 22.824C78.2796 22.536 78.2103 22.264 78.1036 22.008C78.0076 21.7413 77.8636 21.5173 77.6716 21.336C77.4796 21.144 77.2343 21.032 76.9356 21C76.7863 20.9893 76.589 20.984 76.3436 20.984C76.109 20.984 75.9063 21.0107 75.7356 21.064C75.6396 21.0853 75.5383 21.0693 75.4316 21.016C75.3356 20.952 75.277 20.8667 75.2556 20.76C75.1916 20.6 75.2236 20.4773 75.3516 20.392C75.4903 20.3067 75.661 20.2427 75.8636 20.2C76.0663 20.1573 76.2743 20.136 76.4876 20.136C76.701 20.136 76.861 20.136 76.9676 20.136ZM82.032 24.904C82.032 25.352 82.048 25.672 82.08 25.864C82.112 26.056 82.2027 26.152 82.352 26.152C82.384 26.152 82.4213 26.136 82.464 26.104C82.5173 26.0613 82.5707 26.024 82.624 25.992C82.688 25.96 82.7573 25.9387 82.832 25.928C82.9173 25.9067 83.008 25.9173 83.104 25.96C83.2213 26.0133 83.2907 26.104 83.312 26.232C83.344 26.3493 83.3173 26.472 83.232 26.6C83.1787 26.6853 83.104 26.76 83.008 26.824C82.912 26.8773 82.8107 26.92 82.704 26.952C82.608 26.984 82.512 27.0053 82.416 27.016C82.32 27.0267 82.2507 27.032 82.208 27.032C81.9307 27.032 81.712 26.984 81.552 26.888C81.4027 26.7813 81.2907 26.6373 81.216 26.456C81.1413 26.264 81.0933 26.04 81.072 25.784C81.0507 25.528 81.04 25.2453 81.04 24.936V20.6C81.04 20.4613 81.0827 20.3493 81.168 20.264C81.2533 20.1787 81.376 20.136 81.536 20.136C81.696 20.136 81.8187 20.1787 81.904 20.264C81.9893 20.3493 82.032 20.4613 82.032 20.6V24.904ZM85.2764 23.368L89.2284 20.328C89.367 20.2213 89.5164 20.1627 89.6764 20.152C89.847 20.1413 89.9697 20.1893 90.0444 20.296C90.1297 20.4133 90.1457 20.536 90.0924 20.664C90.0497 20.792 89.9804 20.8933 89.8844 20.968L88.5084 21.976C88.7004 22.0187 88.8817 22.088 89.0524 22.184C89.223 22.2693 89.3724 22.392 89.5004 22.552C89.6284 22.7013 89.7297 22.8933 89.8044 23.128C89.8897 23.3627 89.9324 23.64 89.9324 23.96V26.472C89.9324 26.824 89.767 27 89.4364 27C89.1057 27 88.9404 26.824 88.9404 26.472V23.944C88.9404 23.5173 88.8177 23.208 88.5724 23.016C88.327 22.824 87.975 22.7227 87.5164 22.712L85.2764 24.376V26.568C85.2764 26.6853 85.2284 26.7867 85.1324 26.872C85.047 26.9573 84.9297 27 84.7804 27C84.631 27 84.5084 26.9573 84.4124 26.872C84.327 26.7867 84.2844 26.6853 84.2844 26.568V20.552C84.2844 20.4347 84.327 20.3333 84.4124 20.248C84.5084 20.1627 84.631 20.12 84.7804 20.12C84.9297 20.12 85.047 20.1627 85.1324 20.248C85.2284 20.3333 85.2764 20.4347 85.2764 20.552V23.368ZM93.8384 23.976C93.7104 23.976 93.6037 23.9387 93.5184 23.864C93.4437 23.7787 93.4064 23.6773 93.4064 23.56C93.4064 23.4427 93.4437 23.3467 93.5184 23.272C93.6037 23.1867 93.7104 23.144 93.8384 23.144H94.4944C94.729 23.144 94.9157 23.2133 95.0544 23.352C95.193 23.48 95.2997 23.6347 95.3744 23.816C95.449 23.9973 95.497 24.184 95.5184 24.376C95.5397 24.5573 95.5504 24.696 95.5504 24.792C95.5504 26.264 94.9584 27 93.7744 27H93.7584C92.905 27 92.2917 26.7013 91.9184 26.104C91.5557 25.5067 91.3744 24.6747 91.3744 23.608C91.3744 23.3413 91.3904 23.048 91.4224 22.728C91.4544 22.408 91.5184 22.0987 91.6144 21.8C91.7104 21.5013 91.8384 21.224 91.9984 20.968C92.169 20.712 92.393 20.504 92.6704 20.344C92.9477 20.1947 93.241 20.1253 93.5504 20.136C93.6997 20.1467 93.8704 20.2053 94.0624 20.312L94.8144 20.696L95.5344 20.312C95.705 20.2373 95.9077 20.1893 96.1424 20.168C96.6437 20.1253 97.033 20.28 97.3104 20.632C97.5984 20.984 97.7424 21.5227 97.7424 22.248V26.536C97.7424 26.6747 97.6997 26.7867 97.6144 26.872C97.529 26.9573 97.4064 27 97.2464 27C97.0864 27 96.9637 26.9573 96.8784 26.872C96.793 26.7867 96.7504 26.6747 96.7504 26.536V22.04C96.7504 21.8693 96.729 21.7093 96.6864 21.56C96.6544 21.4107 96.5957 21.288 96.5104 21.192C96.425 21.096 96.3184 21.0373 96.1904 21.016C96.0624 20.9947 95.9077 21.0267 95.7264 21.112C95.5877 21.176 95.4277 21.2667 95.2464 21.384C95.0757 21.4907 94.9317 21.544 94.8144 21.544C94.761 21.544 94.6917 21.528 94.6064 21.496C94.5317 21.4533 94.4464 21.4053 94.3504 21.352C94.2544 21.2987 94.1584 21.2453 94.0624 21.192C93.9664 21.1387 93.881 21.096 93.8064 21.064C93.593 20.9787 93.3957 20.9893 93.2144 21.096C93.0437 21.192 92.8944 21.3627 92.7664 21.608C92.6384 21.8427 92.537 22.136 92.4624 22.488C92.3877 22.8293 92.3504 23.1973 92.3504 23.592V23.608C92.3504 24.376 92.473 24.9947 92.7184 25.464C92.9744 25.9227 93.3264 26.152 93.7744 26.152C93.9664 26.152 94.121 26.0987 94.2384 25.992C94.3664 25.8853 94.4624 25.752 94.5264 25.592C94.601 25.432 94.6437 25.256 94.6544 25.064C94.6757 24.872 94.6704 24.696 94.6384 24.536C94.6064 24.376 94.553 24.2427 94.4784 24.136C94.4144 24.0293 94.329 23.976 94.2224 23.976H93.8384ZM97.2669 27.96C97.5869 27.96 97.7469 28.1253 97.7469 28.456V29.624C97.7469 29.8267 97.7095 29.9707 97.6349 30.056C97.5602 30.1413 97.4322 30.184 97.2509 30.184C97.0589 30.184 96.9309 30.136 96.8669 30.04C96.7922 29.9547 96.7549 29.816 96.7549 29.624V28.728H96.3389C95.9975 28.728 95.8269 28.6 95.8269 28.344C95.8269 28.088 95.9975 27.96 96.3389 27.96H97.2669ZM100.579 24.904C100.579 25.352 100.595 25.672 100.627 25.864C100.659 26.056 100.75 26.152 100.899 26.152C100.931 26.152 100.968 26.136 101.011 26.104C101.064 26.0613 101.118 26.024 101.171 25.992C101.235 25.96 101.304 25.9387 101.379 25.928C101.464 25.9067 101.555 25.9173 101.651 25.96C101.768 26.0133 101.838 26.104 101.859 26.232C101.891 26.3493 101.864 26.472 101.779 26.6C101.726 26.6853 101.651 26.76 101.555 26.824C101.459 26.8773 101.358 26.92 101.251 26.952C101.155 26.984 101.059 27.0053 100.963 27.016C100.867 27.0267 100.798 27.032 100.755 27.032C100.478 27.032 100.259 26.984 100.099 26.888C99.9495 26.7813 99.8375 26.6373 99.7629 26.456C99.6882 26.264 99.6402 26.04 99.6189 25.784C99.5975 25.528 99.5869 25.2453 99.5869 24.936V20.6C99.5869 20.4613 99.6295 20.3493 99.7149 20.264C99.8002 20.1787 99.9229 20.136 100.083 20.136C100.243 20.136 100.366 20.1787 100.451 20.264C100.536 20.3493 100.579 20.4613 100.579 20.6V24.904ZM105.711 20.136C106.319 20.136 106.842 20.2373 107.279 20.44L107.791 19.912C107.909 19.784 108.047 19.6667 108.207 19.56C108.378 19.4533 108.554 19.464 108.735 19.592C108.853 19.656 108.917 19.752 108.927 19.88C108.938 20.008 108.901 20.1147 108.815 20.2L108.031 21.016C108.469 21.528 108.687 22.28 108.687 23.272V26.536C108.687 26.6747 108.645 26.7867 108.559 26.872C108.474 26.9573 108.351 27 108.191 27C108.031 27 107.909 26.9573 107.823 26.872C107.738 26.7867 107.695 26.6747 107.695 26.536V24.536C107.599 24.408 107.461 24.2907 107.279 24.184C107.098 24.0667 106.901 23.9707 106.687 23.896C106.474 23.8213 106.25 23.7627 106.015 23.72C105.781 23.6773 105.551 23.656 105.327 23.656C105.082 23.656 104.858 23.6827 104.655 23.736C104.453 23.7893 104.277 23.88 104.127 24.008C103.989 24.1253 103.882 24.2853 103.807 24.488C103.733 24.68 103.711 24.92 103.743 25.208C103.775 25.4853 103.877 25.6987 104.047 25.848C104.229 25.9867 104.442 26.0827 104.687 26.136C104.965 26.1893 105.258 26.1787 105.567 26.104C105.685 26.0827 105.786 26.0933 105.871 26.136C105.967 26.168 106.031 26.2587 106.063 26.408C106.095 26.5253 106.09 26.6213 106.047 26.696C106.005 26.76 105.941 26.8187 105.855 26.872C105.781 26.9147 105.685 26.9467 105.567 26.968C105.461 26.9893 105.354 27 105.247 27C105.162 27 105.071 27 104.975 27C104.89 27 104.805 26.9947 104.719 26.984C104.133 26.952 103.647 26.76 103.263 26.408C102.879 26.0453 102.714 25.512 102.767 24.808C102.799 24.136 103.029 23.6347 103.455 23.304C103.882 22.9733 104.479 22.808 105.247 22.808C105.727 22.808 106.165 22.8613 106.559 22.968C106.954 23.0747 107.338 23.256 107.711 23.512C107.711 23.128 107.685 22.7867 107.631 22.488C107.578 22.1787 107.477 21.9173 107.327 21.704C107.189 21.48 106.986 21.3147 106.719 21.208C106.463 21.0907 106.127 21.032 105.711 21.032C105.242 21.032 104.837 21.096 104.495 21.224C104.154 21.3413 103.845 21.4907 103.567 21.672C103.471 21.7253 103.359 21.736 103.231 21.704C103.114 21.6613 103.029 21.5867 102.975 21.48C102.858 21.288 102.885 21.112 103.055 20.952C103.226 20.792 103.461 20.6533 103.759 20.536C104.069 20.408 104.405 20.312 104.767 20.248C105.13 20.1733 105.445 20.136 105.711 20.136ZM108.591 18.6C108.591 18.7173 108.553 18.8133 108.479 18.888C108.393 18.9627 108.281 19 108.143 19H103.215C102.959 19 102.82 18.8773 102.799 18.632C102.788 18.5253 102.815 18.4347 102.879 18.36C102.932 18.2747 103.017 18.2267 103.135 18.216L107.663 18.184V17.416C107.663 17.2987 107.705 17.2027 107.791 17.128C107.876 17.0533 107.988 17.016 108.127 17.016C108.255 17.016 108.367 17.0533 108.463 17.128C108.548 17.2027 108.591 17.2987 108.591 17.416V18.6ZM112.831 26.168C114.047 26.168 114.655 25.5653 114.655 24.36V20.552C114.655 20.4347 114.703 20.3387 114.799 20.264C114.895 20.1787 115.012 20.136 115.151 20.136C115.3 20.136 115.417 20.1787 115.503 20.264C115.599 20.3387 115.647 20.4347 115.647 20.552V24.36C115.647 25.288 115.401 25.9547 114.911 26.36C114.431 26.7653 113.737 26.9787 112.831 27C112.457 27 112.089 26.968 111.727 26.904C111.364 26.8293 111.039 26.7067 110.751 26.536C110.463 26.3653 110.239 26.136 110.079 25.848C109.919 25.5493 109.855 25.176 109.887 24.728C109.929 24.3867 110.041 24.0933 110.223 23.848C110.404 23.592 110.655 23.4053 110.975 23.288C110.601 23.192 110.324 23.0107 110.143 22.744C109.972 22.4667 109.887 22.1893 109.887 21.912C109.887 21.2827 110.063 20.8293 110.415 20.552C110.777 20.2747 111.289 20.136 111.951 20.136C112.111 20.136 112.271 20.1467 112.431 20.168C112.591 20.1893 112.729 20.2267 112.847 20.28C112.975 20.3227 113.065 20.3867 113.119 20.472C113.183 20.5467 113.193 20.648 113.151 20.776C113.129 20.8613 113.076 20.9413 112.991 21.016C112.905 21.0907 112.804 21.1013 112.687 21.048C112.505 20.9947 112.292 20.9627 112.047 20.952C111.663 20.9413 111.369 21.0107 111.167 21.16C110.975 21.2987 110.879 21.5547 110.879 21.928C110.879 22.12 110.921 22.28 111.007 22.408C111.103 22.536 111.22 22.6373 111.359 22.712C111.508 22.7867 111.668 22.84 111.839 22.872C112.02 22.904 112.196 22.92 112.367 22.92H112.895C113.012 22.92 113.103 22.968 113.167 23.064C113.231 23.1493 113.263 23.2507 113.263 23.368C113.263 23.464 113.22 23.5387 113.135 23.592C113.06 23.6347 112.959 23.672 112.831 23.704C112.713 23.7253 112.585 23.736 112.447 23.736C112.319 23.736 112.201 23.736 112.095 23.736C111.668 23.736 111.353 23.8533 111.151 24.088C110.948 24.312 110.857 24.6267 110.879 25.032C110.9 25.2773 110.969 25.4747 111.087 25.624C111.215 25.7733 111.369 25.8907 111.551 25.976C111.743 26.0507 111.951 26.104 112.175 26.136C112.399 26.1573 112.617 26.168 112.831 26.168ZM121.532 24.904C121.532 25.352 121.548 25.672 121.58 25.864C121.612 26.056 121.703 26.152 121.852 26.152C121.884 26.152 121.921 26.136 121.964 26.104C122.017 26.0613 122.071 26.024 122.124 25.992C122.188 25.96 122.257 25.9387 122.332 25.928C122.417 25.9067 122.508 25.9173 122.604 25.96C122.721 26.0133 122.791 26.104 122.812 26.232C122.844 26.3493 122.817 26.472 122.732 26.6C122.679 26.6853 122.604 26.76 122.508 26.824C122.412 26.8773 122.311 26.92 122.204 26.952C122.108 26.984 122.012 27.0053 121.916 27.016C121.82 27.0267 121.751 27.032 121.708 27.032C121.431 27.032 121.212 26.984 121.052 26.888C120.903 26.7813 120.791 26.6373 120.716 26.456C120.641 26.264 120.593 26.04 120.572 25.784C120.551 25.528 120.54 25.2453 120.54 24.936V20.6C120.54 20.4613 120.583 20.3493 120.668 20.264C120.753 20.1787 120.876 20.136 121.036 20.136C121.196 20.136 121.319 20.1787 121.404 20.264C121.489 20.3493 121.532 20.4613 121.532 20.6V24.904ZM124.7 24.904C124.7 25.352 124.716 25.672 124.748 25.864C124.78 26.056 124.871 26.152 125.02 26.152C125.052 26.152 125.089 26.136 125.132 26.104C125.185 26.0613 125.239 26.024 125.292 25.992C125.356 25.96 125.425 25.9387 125.5 25.928C125.585 25.9067 125.676 25.9173 125.772 25.96C125.889 26.0133 125.959 26.104 125.98 26.232C126.012 26.3493 125.985 26.472 125.9 26.6C125.847 26.6853 125.772 26.76 125.676 26.824C125.58 26.8773 125.479 26.92 125.372 26.952C125.276 26.984 125.18 27.0053 125.084 27.016C124.988 27.0267 124.919 27.032 124.876 27.032C124.599 27.032 124.38 26.984 124.22 26.888C124.071 26.7813 123.959 26.6373 123.884 26.456C123.809 26.264 123.761 26.04 123.74 25.784C123.719 25.528 123.708 25.2453 123.708 24.936V20.6C123.708 20.4613 123.751 20.3493 123.836 20.264C123.921 20.1787 124.044 20.136 124.204 20.136C124.364 20.136 124.487 20.1787 124.572 20.264C124.657 20.3493 124.7 20.4613 124.7 20.6V24.904ZM129.836 20.136C130.892 20.136 131.65 20.4027 132.108 20.936C132.578 21.4587 132.812 22.2373 132.812 23.272V26.536C132.812 26.6747 132.77 26.7867 132.684 26.872C132.599 26.9573 132.476 27 132.316 27C132.156 27 132.034 26.9573 131.948 26.872C131.863 26.7867 131.82 26.6747 131.82 26.536V24.536C131.724 24.408 131.586 24.2907 131.404 24.184C131.223 24.0667 131.026 23.9707 130.812 23.896C130.599 23.8213 130.375 23.7627 130.14 23.72C129.906 23.6773 129.676 23.656 129.452 23.656C129.207 23.656 128.983 23.6827 128.78 23.736C128.578 23.7893 128.402 23.88 128.252 24.008C128.114 24.1253 128.007 24.2853 127.932 24.488C127.858 24.68 127.836 24.92 127.868 25.208C127.9 25.4853 128.002 25.6987 128.172 25.848C128.354 25.9867 128.567 26.0827 128.812 26.136C129.09 26.1893 129.383 26.1787 129.692 26.104C129.81 26.0827 129.911 26.0933 129.996 26.136C130.092 26.168 130.156 26.2587 130.188 26.408C130.22 26.5253 130.215 26.6213 130.172 26.696C130.13 26.76 130.066 26.8187 129.98 26.872C129.906 26.9147 129.81 26.9467 129.692 26.968C129.586 26.9893 129.479 27 129.372 27C129.287 27 129.196 27 129.1 27C129.015 27 128.93 26.9947 128.844 26.984C128.258 26.952 127.772 26.76 127.388 26.408C127.004 26.0453 126.839 25.512 126.892 24.808C126.924 24.136 127.154 23.6347 127.58 23.304C128.007 22.9733 128.604 22.808 129.372 22.808C129.852 22.808 130.29 22.8613 130.684 22.968C131.079 23.0747 131.463 23.256 131.836 23.512C131.836 23.128 131.81 22.7867 131.756 22.488C131.703 22.1787 131.602 21.9173 131.452 21.704C131.314 21.48 131.111 21.3147 130.844 21.208C130.588 21.0907 130.252 21.032 129.836 21.032C129.367 21.032 128.962 21.096 128.62 21.224C128.279 21.3413 127.97 21.4907 127.692 21.672C127.596 21.7253 127.484 21.736 127.356 21.704C127.239 21.6613 127.154 21.5867 127.1 21.48C126.983 21.288 127.01 21.112 127.18 20.952C127.351 20.792 127.586 20.6533 127.884 20.536C128.194 20.408 128.53 20.312 128.892 20.248C129.255 20.1733 129.57 20.136 129.836 20.136ZM135.865 22.952C135.492 22.952 135.151 22.8933 134.841 22.776C134.543 22.6587 134.351 22.424 134.265 22.072C134.244 21.976 134.239 21.8693 134.249 21.752C134.26 21.624 134.287 21.512 134.329 21.416C134.383 21.3093 134.447 21.2293 134.521 21.176C134.607 21.112 134.713 21.096 134.841 21.128C134.959 21.1493 135.049 21.2027 135.113 21.288C135.177 21.3627 135.199 21.448 135.177 21.544C135.124 21.7147 135.14 21.8587 135.225 21.976C135.321 22.0933 135.465 22.152 135.657 22.152H137.577C137.695 22.152 137.791 22.1893 137.865 22.264C137.951 22.328 137.993 22.4187 137.993 22.536C137.993 22.6533 137.956 22.7547 137.881 22.84C137.807 22.9147 137.705 22.952 137.577 22.952H135.865ZM135.865 26.28C135.492 26.28 135.151 26.2213 134.841 26.104C134.543 25.9867 134.351 25.752 134.265 25.4C134.244 25.304 134.239 25.1973 134.249 25.08C134.26 24.952 134.287 24.84 134.329 24.744C134.383 24.6373 134.447 24.5573 134.521 24.504C134.607 24.44 134.713 24.424 134.841 24.456C134.959 24.4773 135.049 24.5307 135.113 24.616C135.177 24.6907 135.199 24.776 135.177 24.872C135.124 25.0427 135.14 25.1867 135.225 25.304C135.321 25.4213 135.465 25.48 135.657 25.48H137.577C137.695 25.48 137.791 25.5173 137.865 25.592C137.951 25.656 137.993 25.7467 137.993 25.864C137.993 25.9813 137.956 26.0827 137.881 26.168C137.807 26.2427 137.705 26.28 137.577 26.28H135.865ZM144.913 18.072C145.051 18.072 145.169 18.1147 145.265 18.2C145.361 18.2747 145.409 18.3707 145.409 18.488V24.312C145.409 24.76 145.334 25.1547 145.185 25.496C145.035 25.8267 144.827 26.104 144.561 26.328C144.294 26.552 143.979 26.7227 143.617 26.84C143.254 26.9467 142.859 27 142.433 27C142.027 27 141.643 26.9467 141.281 26.84C140.918 26.7227 140.598 26.552 140.321 26.328C140.054 26.104 139.841 25.8267 139.681 25.496C139.521 25.1547 139.441 24.76 139.441 24.312V20.552C139.441 20.4347 139.489 20.3387 139.585 20.264C139.681 20.1787 139.798 20.136 139.937 20.136C140.065 20.136 140.177 20.1787 140.273 20.264C140.379 20.3387 140.433 20.4347 140.433 20.552V24.312C140.433 24.7067 140.502 25.0267 140.641 25.272C140.779 25.5067 140.95 25.6933 141.153 25.832C141.355 25.96 141.569 26.0507 141.793 26.104C142.027 26.1467 142.241 26.168 142.433 26.168C142.614 26.168 142.817 26.1467 143.041 26.104C143.275 26.0507 143.494 25.96 143.697 25.832C143.899 25.6933 144.07 25.5067 144.209 25.272C144.347 25.0267 144.417 24.7067 144.417 24.312V18.488C144.417 18.3707 144.459 18.2747 144.545 18.2C144.641 18.1147 144.763 18.072 144.913 18.072ZM141.083 19C140.88 19 140.694 18.9627 140.523 18.888C140.342 18.8133 140.192 18.712 140.075 18.584C139.947 18.456 139.856 18.3067 139.803 18.136C139.739 17.9547 139.734 17.7573 139.787 17.544C139.84 17.2347 140.022 17.096 140.331 17.128C140.438 17.1493 140.528 17.2027 140.603 17.288C140.678 17.3627 140.704 17.448 140.683 17.544C140.608 17.7253 140.635 17.88 140.763 18.008C140.891 18.136 141.046 18.2 141.227 18.2H143.227C143.355 18.2 143.456 18.2427 143.531 18.328C143.595 18.4027 143.627 18.4933 143.627 18.6C143.627 18.7173 143.595 18.8133 143.531 18.888C143.456 18.9627 143.355 19 143.227 19H141.083ZM152.475 23.976C152.475 24.1893 152.496 24.392 152.539 24.584C152.582 24.776 152.651 24.9413 152.747 25.08C152.843 25.2187 152.976 25.3307 153.147 25.416C153.318 25.4907 153.531 25.528 153.787 25.528C154.011 25.528 154.219 25.4747 154.411 25.368C154.603 25.2507 154.774 25.1067 154.923 24.936C155.083 24.7653 155.216 24.5787 155.323 24.376C155.43 24.1627 155.51 23.9653 155.563 23.784V20.6C155.563 20.4613 155.6 20.3493 155.675 20.264C155.76 20.1787 155.883 20.136 156.043 20.136C156.214 20.136 156.336 20.1787 156.411 20.264C156.496 20.3493 156.539 20.4613 156.539 20.6V25.928C156.539 26.888 156.363 27.608 156.011 28.088C155.67 28.5787 155.078 28.824 154.235 28.824C153.947 28.824 153.606 28.7813 153.211 28.696C152.816 28.6107 152.459 28.4507 152.139 28.216C152.064 28.1627 152.027 28.072 152.027 27.944C152.038 27.8267 152.075 27.7307 152.139 27.656C152.214 27.56 152.31 27.512 152.427 27.512C152.555 27.512 152.662 27.5387 152.747 27.592C152.907 27.6667 153.046 27.7253 153.163 27.768C153.291 27.8213 153.403 27.8587 153.499 27.88C153.595 27.912 153.686 27.9333 153.771 27.944C153.867 27.9547 153.968 27.96 154.075 27.96C154.64 27.96 155.04 27.7947 155.275 27.464C155.51 27.144 155.627 26.6587 155.627 26.008V25.208C155.435 25.5707 155.168 25.848 154.827 26.04C154.496 26.232 154.134 26.3333 153.739 26.344C153.43 26.3547 153.136 26.3173 152.859 26.232C152.592 26.136 152.358 25.992 152.155 25.8C151.952 25.608 151.792 25.368 151.675 25.08C151.558 24.792 151.499 24.456 151.499 24.072V23.272C151.499 22.472 151.35 21.8907 151.051 21.528C150.763 21.1653 150.326 20.984 149.739 20.984C149.238 20.984 148.832 21.0693 148.523 21.24C148.224 21.4107 147.952 21.608 147.707 21.832C147.856 21.96 147.963 22.184 148.027 22.504C148.091 22.8133 148.123 23.16 148.123 23.544V26.168H148.843C148.971 26.168 149.072 26.2107 149.147 26.296C149.232 26.3707 149.275 26.4667 149.275 26.584C149.275 26.7013 149.232 26.8027 149.147 26.888C149.072 26.9627 148.971 27 148.843 27H147.547C147.43 27 147.328 26.9573 147.243 26.872C147.168 26.7867 147.131 26.68 147.131 26.552V23.384C147.131 22.936 147.088 22.584 147.003 22.328C146.928 22.072 146.822 21.864 146.683 21.704C146.79 21.5333 146.934 21.3573 147.115 21.176C147.296 20.9947 147.51 20.8293 147.755 20.68C148.011 20.52 148.299 20.392 148.619 20.296C148.95 20.1893 149.323 20.136 149.739 20.136C150.55 20.136 151.206 20.376 151.707 20.856C152.219 21.336 152.475 22.088 152.475 23.112V23.976ZM159.136 23.368L163.088 20.328C163.226 20.2213 163.376 20.1627 163.536 20.152C163.706 20.1413 163.829 20.1893 163.904 20.296C163.989 20.4133 164.005 20.536 163.952 20.664C163.909 20.792 163.84 20.8933 163.744 20.968L162.368 21.976C162.56 22.0187 162.741 22.088 162.912 22.184C163.082 22.2693 163.232 22.392 163.36 22.552C163.488 22.7013 163.589 22.8933 163.664 23.128C163.749 23.3627 163.792 23.64 163.792 23.96V26.472C163.792 26.824 163.626 27 163.296 27C162.965 27 162.8 26.824 162.8 26.472V23.944C162.8 23.5173 162.677 23.208 162.432 23.016C162.186 22.824 161.834 22.7227 161.376 22.712L159.136 24.376V26.568C159.136 26.6853 159.088 26.7867 158.992 26.872C158.906 26.9573 158.789 27 158.64 27C158.49 27 158.368 26.9573 158.272 26.872C158.186 26.7867 158.144 26.6853 158.144 26.568V20.552C158.144 20.4347 158.186 20.3333 158.272 20.248C158.368 20.1627 158.49 20.12 158.64 20.12C158.789 20.12 158.906 20.1627 158.992 20.248C159.088 20.3333 159.136 20.4347 159.136 20.552V23.368ZM166.114 21.992C166.114 22.1093 166.066 22.2107 165.97 22.296C165.874 22.3813 165.762 22.424 165.634 22.424C165.484 22.424 165.367 22.3867 165.282 22.312C165.196 22.2373 165.154 22.1627 165.154 22.088C165.154 21.8107 165.223 21.5547 165.362 21.32C165.511 21.0853 165.698 20.8827 165.922 20.712C166.156 20.5307 166.423 20.392 166.722 20.296C167.02 20.1893 167.324 20.136 167.634 20.136C168.498 20.136 169.122 20.376 169.506 20.856C169.89 21.3253 170.082 21.9707 170.082 22.792V26.472C170.082 26.824 169.916 27 169.586 27C169.266 27 169.106 26.824 169.106 26.472V22.92C169.106 22.4933 169.063 22.152 168.978 21.896C168.892 21.64 168.78 21.448 168.642 21.32C168.503 21.1813 168.343 21.0907 168.162 21.048C167.991 20.9947 167.815 20.968 167.634 20.968C167.356 20.968 167.122 21.0107 166.93 21.096C166.738 21.1813 166.578 21.2827 166.45 21.4C166.332 21.5067 166.247 21.6187 166.194 21.736C166.14 21.8427 166.114 21.928 166.114 21.992ZM174.587 20.136C174.992 20.136 175.371 20.1947 175.723 20.312C176.075 20.4293 176.384 20.6107 176.651 20.856C176.917 21.1013 177.125 21.4107 177.275 21.784C177.424 22.1573 177.499 22.6 177.499 23.112V26.536C177.499 26.6747 177.456 26.7867 177.371 26.872C177.285 26.9573 177.163 27 177.003 27C176.843 27 176.72 26.9573 176.635 26.872C176.549 26.7867 176.507 26.6747 176.507 26.536V23.272C176.507 22.472 176.331 21.8907 175.979 21.528C175.637 21.1653 175.173 20.984 174.587 20.984C174.075 20.984 173.643 21.0693 173.291 21.24C172.939 21.4107 172.64 21.608 172.395 21.832C172.544 21.96 172.651 22.184 172.715 22.504C172.779 22.8133 172.811 23.16 172.811 23.544V26.536C172.811 26.6747 172.768 26.7867 172.683 26.872C172.597 26.9573 172.475 27 172.315 27C172.133 27 172.005 26.952 171.931 26.856C171.856 26.76 171.819 26.6533 171.819 26.536V23.384C171.819 22.936 171.776 22.584 171.691 22.328C171.616 22.072 171.509 21.864 171.371 21.704C171.477 21.5333 171.627 21.3573 171.819 21.176C172.021 20.9947 172.256 20.8293 172.523 20.68C172.8 20.52 173.109 20.392 173.451 20.296C173.792 20.1893 174.171 20.136 174.587 20.136ZM179.817 21.992C179.817 22.1093 179.769 22.2107 179.673 22.296C179.577 22.3813 179.465 22.424 179.337 22.424C179.188 22.424 179.07 22.3867 178.985 22.312C178.9 22.2373 178.857 22.1627 178.857 22.088C178.857 21.8107 178.926 21.5547 179.065 21.32C179.214 21.0853 179.401 20.8827 179.625 20.712C179.86 20.5307 180.126 20.392 180.425 20.296C180.724 20.1893 181.028 20.136 181.337 20.136C182.201 20.136 182.825 20.376 183.209 20.856C183.593 21.3253 183.785 21.9707 183.785 22.792V26.472C183.785 26.824 183.62 27 183.289 27C182.969 27 182.809 26.824 182.809 26.472V22.92C182.809 22.4933 182.766 22.152 182.681 21.896C182.596 21.64 182.484 21.448 182.345 21.32C182.206 21.1813 182.046 21.0907 181.865 21.048C181.694 20.9947 181.518 20.968 181.337 20.968C181.06 20.968 180.825 21.0107 180.633 21.096C180.441 21.1813 180.281 21.2827 180.153 21.4C180.036 21.5067 179.95 21.6187 179.897 21.736C179.844 21.8427 179.817 21.928 179.817 21.992ZM188.05 23.096C188.316 23.128 188.599 23.176 188.898 23.24C189.196 23.2933 189.474 23.3787 189.73 23.496C189.986 23.6133 190.199 23.7787 190.37 23.992C190.551 24.2053 190.652 24.4827 190.674 24.824C190.706 25.2507 190.642 25.608 190.482 25.896C190.322 26.1733 190.103 26.3973 189.826 26.568C189.559 26.728 189.244 26.84 188.882 26.904C188.53 26.968 188.167 27 187.794 27C187.41 27 187.026 26.9573 186.642 26.872C186.268 26.776 185.9 26.632 185.538 26.44C185.42 26.3867 185.33 26.2907 185.266 26.152C185.202 26.0027 185.228 25.864 185.346 25.736C185.431 25.6507 185.527 25.6027 185.634 25.592C185.751 25.5707 185.863 25.5867 185.97 25.64C186.098 25.7253 186.242 25.8 186.402 25.864C186.572 25.928 186.738 25.9867 186.898 26.04C187.068 26.0827 187.234 26.1147 187.394 26.136C187.554 26.1573 187.698 26.168 187.826 26.168C188.039 26.168 188.258 26.152 188.482 26.12C188.716 26.088 188.924 26.0293 189.106 25.944C189.287 25.8587 189.431 25.736 189.538 25.576C189.655 25.4053 189.703 25.1813 189.682 24.904C189.66 24.5733 189.506 24.3547 189.218 24.248C188.93 24.1413 188.524 24.0453 188.002 23.96C187.746 23.928 187.463 23.88 187.154 23.816C186.855 23.752 186.572 23.656 186.306 23.528C186.05 23.4 185.831 23.2293 185.65 23.016C185.468 22.8027 185.372 22.5307 185.362 22.2C185.33 21.784 185.388 21.4427 185.538 21.176C185.698 20.9093 185.911 20.7013 186.178 20.552C186.455 20.392 186.77 20.2853 187.122 20.232C187.474 20.168 187.836 20.136 188.21 20.136C188.583 20.136 188.94 20.184 189.282 20.28C189.623 20.376 189.964 20.5307 190.306 20.744C190.412 20.8187 190.471 20.9147 190.482 21.032C190.492 21.1493 190.466 21.256 190.402 21.352C190.348 21.4373 190.268 21.496 190.162 21.528C190.055 21.56 189.959 21.5493 189.874 21.496C189.618 21.3253 189.34 21.192 189.042 21.096C188.743 20.9893 188.45 20.936 188.162 20.936C187.97 20.936 187.767 20.9467 187.554 20.968C187.34 20.9787 187.138 21.0267 186.946 21.112C186.764 21.1867 186.615 21.304 186.498 21.464C186.38 21.6133 186.322 21.8267 186.322 22.104C186.332 22.296 186.396 22.4507 186.514 22.568C186.631 22.6853 186.775 22.7813 186.946 22.856C187.116 22.92 187.298 22.9733 187.49 23.016C187.692 23.048 187.879 23.0747 188.05 23.096ZM192.688 21.72C192.688 21.2933 192.784 20.9413 192.976 20.664C193.168 20.3867 193.381 20.1467 193.616 19.944C193.851 19.7307 194.064 19.5333 194.256 19.352C194.448 19.1707 194.544 18.952 194.544 18.696C194.544 18.2693 194.331 17.9867 193.904 17.848C193.744 17.7947 193.563 17.768 193.36 17.768C193.157 17.7573 192.955 17.7733 192.752 17.816C192.56 17.8587 192.373 17.9173 192.192 17.992C192.011 18.0667 191.861 18.1573 191.744 18.264C191.648 18.3173 191.547 18.3333 191.44 18.312C191.344 18.2907 191.264 18.2427 191.2 18.168C191.125 18.0933 191.083 18.008 191.072 17.912C191.061 17.8053 191.104 17.704 191.2 17.608C191.445 17.352 191.792 17.16 192.24 17.032C192.699 16.904 193.147 16.8613 193.584 16.904C194.139 16.968 194.592 17.1493 194.944 17.448C195.307 17.7467 195.488 18.152 195.488 18.664C195.488 19.0267 195.392 19.3253 195.2 19.56C195.019 19.7947 194.811 20.0133 194.576 20.216C194.352 20.408 194.144 20.616 193.952 20.84C193.771 21.064 193.68 21.3413 193.68 21.672V24.904C193.68 25.352 193.696 25.672 193.728 25.864C193.76 26.056 193.851 26.152 194 26.152C194.032 26.152 194.069 26.136 194.112 26.104C194.165 26.0613 194.219 26.024 194.272 25.992C194.336 25.96 194.405 25.9387 194.48 25.928C194.565 25.9067 194.656 25.9173 194.752 25.96C194.869 26.0133 194.939 26.104 194.96 26.232C194.992 26.3493 194.965 26.472 194.88 26.6C194.827 26.6853 194.752 26.76 194.656 26.824C194.56 26.8773 194.459 26.92 194.352 26.952C194.256 26.984 194.16 27.0053 194.064 27.016C193.968 27.0267 193.899 27.032 193.856 27.032C193.579 27.032 193.36 26.984 193.2 26.888C193.051 26.7813 192.939 26.6373 192.864 26.456C192.789 26.264 192.741 26.04 192.72 25.784C192.699 25.528 192.688 25.2453 192.688 24.936V21.72ZM196.913 24.28C196.913 24.888 197.073 25.352 197.393 25.672C197.713 25.9813 198.166 26.1467 198.753 26.168C198.977 26.168 199.195 26.136 199.409 26.072C199.622 25.9973 199.814 25.8853 199.985 25.736C200.155 25.5867 200.289 25.3893 200.385 25.144C200.491 24.8987 200.545 24.5893 200.545 24.216V23.624C200.545 23.3893 200.513 23.1867 200.449 23.016C200.385 22.8347 200.299 22.6853 200.193 22.568C200.097 22.44 199.979 22.3333 199.841 22.248C199.713 22.152 199.585 22.0667 199.457 21.992C199.414 21.9707 199.366 21.928 199.312 21.864C199.259 21.8 199.233 21.7307 199.233 21.656C199.233 21.592 199.249 21.528 199.281 21.464C199.313 21.3893 199.355 21.3413 199.409 21.32C199.622 21.2133 199.846 21.064 200.081 20.872C200.326 20.68 200.55 20.4613 200.753 20.216C200.806 20.152 200.891 20.12 201.009 20.12C201.126 20.1093 201.227 20.1413 201.313 20.216C201.398 20.2907 201.451 20.3813 201.473 20.488C201.505 20.584 201.494 20.664 201.441 20.728C201.291 20.92 201.115 21.1013 200.913 21.272C200.721 21.432 200.507 21.5653 200.273 21.672C200.678 21.8853 200.987 22.184 201.201 22.568C201.414 22.9413 201.521 23.304 201.521 23.656V24.328C201.521 25.1813 201.27 25.8373 200.769 26.296C200.278 26.7547 199.601 26.9893 198.737 27C197.873 27 197.19 26.76 196.689 26.28C196.198 25.7893 195.953 25.1067 195.953 24.232V24.008C195.953 23.496 196.075 23.0373 196.321 22.632C196.566 22.2267 196.913 21.88 197.361 21.592C197.467 21.4853 197.499 21.3627 197.457 21.224C197.414 21.0747 197.286 21 197.073 21H196.449C196.171 21 196.033 20.8667 196.033 20.6C196.033 20.3333 196.171 20.2 196.449 20.2H197.121C197.185 20.2 197.281 20.2107 197.409 20.232C197.547 20.2533 197.681 20.296 197.809 20.36C197.947 20.424 198.065 20.52 198.161 20.648C198.267 20.776 198.321 20.952 198.321 21.176C198.321 21.5173 198.246 21.7787 198.097 21.96C197.947 22.1307 197.782 22.296 197.601 22.456C197.43 22.616 197.27 22.808 197.121 23.032C196.982 23.256 196.913 23.592 196.913 24.04V24.28ZM201.928 16.792C202.109 16.792 202.227 16.84 202.28 16.936C202.333 17.0213 202.349 17.1227 202.328 17.24C202.253 17.6027 202.12 17.9013 201.928 18.136C201.736 18.3707 201.507 18.552 201.24 18.68C200.973 18.808 200.685 18.8987 200.376 18.952C200.056 18.9947 199.747 19.0053 199.448 18.984C199.331 18.9733 199.213 18.9627 199.096 18.952C198.968 18.9413 198.856 18.9253 198.76 18.904C198.6 18.8613 198.509 18.7867 198.488 18.68C198.467 18.5627 198.456 18.4347 198.456 18.296V17.736H198.168C197.997 17.736 197.859 17.7093 197.752 17.656C197.635 17.6027 197.576 17.48 197.576 17.288C197.576 17.096 197.64 16.984 197.768 16.952C197.896 16.9093 198.04 16.888 198.2 16.888H198.888C199.101 16.888 199.235 16.952 199.288 17.08C199.341 17.1973 199.368 17.3093 199.368 17.416V18.168C199.56 18.1787 199.757 18.1787 199.96 18.168C200.152 18.1467 200.339 18.104 200.52 18.04C200.701 17.976 200.867 17.8853 201.016 17.768C201.155 17.6507 201.267 17.4907 201.352 17.288C201.405 17.1707 201.475 17.0587 201.56 16.952C201.645 16.8453 201.768 16.792 201.928 16.792ZM206.28 20.136C206.696 20.168 207.059 20.2853 207.368 20.488C207.677 20.68 207.928 20.9307 208.12 21.24C208.312 21.5493 208.451 21.9067 208.536 22.312C208.632 22.7067 208.675 23.1173 208.664 23.544C208.643 23.992 208.589 24.424 208.504 24.84C208.429 25.256 208.285 25.624 208.072 25.944C207.869 26.264 207.587 26.52 207.224 26.712C206.872 26.904 206.408 27 205.832 27C205.416 27 205.059 26.9307 204.76 26.792C204.461 26.6427 204.2 26.4133 203.976 26.104C203.752 25.7947 203.555 25.4 203.384 24.92C203.213 24.44 203.053 23.864 202.904 23.192C202.883 23.0853 202.909 22.9893 202.984 22.904C203.069 22.8187 203.171 22.7653 203.288 22.744C203.416 22.712 203.533 22.7227 203.64 22.776C203.757 22.8187 203.832 22.8987 203.864 23.016C203.992 23.5067 204.115 23.9493 204.232 24.344C204.349 24.728 204.477 25.0587 204.616 25.336C204.765 25.6027 204.936 25.8107 205.128 25.96C205.331 26.0987 205.576 26.168 205.864 26.168C206.216 26.168 206.504 26.0987 206.728 25.96C206.963 25.8213 207.144 25.64 207.272 25.416C207.411 25.1813 207.507 24.9093 207.56 24.6C207.613 24.28 207.645 23.944 207.656 23.592C207.667 23.368 207.656 23.112 207.624 22.824C207.592 22.536 207.523 22.264 207.416 22.008C207.32 21.7413 207.176 21.5173 206.984 21.336C206.792 21.144 206.547 21.032 206.248 21C206.099 20.9893 205.901 20.984 205.656 20.984C205.421 20.984 205.219 21.0107 205.048 21.064C204.952 21.0853 204.851 21.0693 204.744 21.016C204.648 20.952 204.589 20.8667 204.568 20.76C204.504 20.6 204.536 20.4773 204.664 20.392C204.803 20.3067 204.973 20.2427 205.176 20.2C205.379 20.1573 205.587 20.136 205.8 20.136C206.013 20.136 206.173 20.136 206.28 20.136ZM210.833 21.992C210.833 22.1093 210.785 22.2107 210.689 22.296C210.593 22.3813 210.481 22.424 210.353 22.424C210.203 22.424 210.086 22.3867 210.001 22.312C209.915 22.2373 209.873 22.1627 209.873 22.088C209.873 21.8107 209.942 21.5547 210.081 21.32C210.23 21.0853 210.417 20.8827 210.641 20.712C210.875 20.5307 211.142 20.392 211.441 20.296C211.739 20.1893 212.043 20.136 212.353 20.136C213.217 20.136 213.841 20.376 214.225 20.856C214.609 21.3253 214.801 21.9707 214.801 22.792V26.472C214.801 26.824 214.635 27 214.305 27C213.985 27 213.825 26.824 213.825 26.472V22.92C213.825 22.4933 213.782 22.152 213.697 21.896C213.611 21.64 213.499 21.448 213.361 21.32C213.222 21.1813 213.062 21.0907 212.881 21.048C212.71 20.9947 212.534 20.968 212.353 20.968C212.075 20.968 211.841 21.0107 211.649 21.096C211.457 21.1813 211.297 21.2827 211.169 21.4C211.051 21.5067 210.966 21.6187 210.913 21.736C210.859 21.8427 210.833 21.928 210.833 21.992ZM222.185 26.536C222.185 26.6747 222.143 26.7867 222.057 26.872C221.983 26.9573 221.865 27 221.705 27C221.535 27 221.412 26.9573 221.337 26.872C221.263 26.7867 221.225 26.6747 221.225 26.536V25.976C220.98 26.296 220.655 26.552 220.249 26.744C219.844 26.9253 219.428 27.016 219.001 27.016C218.628 27.016 218.281 26.968 217.961 26.872C217.641 26.7653 217.364 26.6107 217.129 26.408C216.905 26.1947 216.729 25.9333 216.601 25.624C216.473 25.3147 216.409 24.9573 216.409 24.552V20.552C216.409 20.4347 216.452 20.3333 216.537 20.248C216.633 20.1627 216.756 20.12 216.905 20.12C217.055 20.12 217.172 20.1627 217.257 20.248C217.353 20.3333 217.401 20.4347 217.401 20.552V24.552C217.401 25.0747 217.561 25.4747 217.881 25.752C218.201 26.0187 218.628 26.152 219.161 26.152C219.385 26.152 219.604 26.1093 219.817 26.024C220.041 25.9387 220.244 25.8267 220.425 25.688C220.607 25.5387 220.767 25.368 220.905 25.176C221.044 24.9733 221.14 24.76 221.193 24.536V20.552C221.193 20.4347 221.236 20.3333 221.321 20.248C221.417 20.1627 221.54 20.12 221.689 20.12C221.839 20.12 221.956 20.1627 222.041 20.248C222.137 20.3333 222.185 20.4347 222.185 20.552V26.536Z" fill="#545859"/>
<defs>
<clipPath id="clip0_2373_366143">
<rect width="28" height="28" fill="white" transform="translate(8 8)"/>
</clipPath>
</defs>
</svg>
