<svg width="325" height="96" viewBox="0 0 325 96" fill="none" xmlns="http://www.w3.org/2000/svg">
<circle cx="22" cy="22" r="22" fill="#FFD100"/>
<circle cx="22" cy="22" r="20" fill="#EFEFEF"/>
<circle cx="22" cy="22" r="22" fill="#FFD100"/>
<circle cx="22" cy="22" r="20" fill="#EFEFEF"/>
<path d="M63.104 23.976C62.976 23.976 62.8693 23.9387 62.784 23.864C62.7093 23.7787 62.672 23.6773 62.672 23.56C62.672 23.4427 62.7093 23.3467 62.784 23.272C62.8693 23.1867 62.976 23.144 63.104 23.144H63.76C63.9947 23.144 64.1813 23.2133 64.32 23.352C64.4587 23.48 64.5653 23.6347 64.64 23.816C64.7147 23.9973 64.7627 24.184 64.784 24.376C64.8053 24.5573 64.816 24.696 64.816 24.792C64.816 26.264 64.224 27 63.04 27H63.024C62.1707 27 61.5573 26.7013 61.184 26.104C60.8213 25.5067 60.64 24.6747 60.64 23.608C60.64 22.5307 60.9227 21.6827 61.488 21.064C62.064 20.4453 62.8533 20.136 63.856 20.136C64.7947 20.136 65.5467 20.3653 66.112 20.824C66.6773 21.272 66.96 21.9813 66.96 22.952V26.536C66.96 26.6747 66.9173 26.7867 66.832 26.872C66.7467 26.9573 66.624 27 66.464 27C66.304 27 66.1813 26.9573 66.096 26.872C66.0107 26.7867 65.968 26.6747 65.968 26.536V23.08C65.968 22.4187 65.808 21.9013 65.488 21.528C65.1787 21.1547 64.6347 20.968 63.856 20.968C63.12 20.968 62.56 21.208 62.176 21.688C61.8027 22.168 61.616 22.808 61.616 23.608C61.616 24.376 61.7387 24.9947 61.984 25.464C62.24 25.9227 62.592 26.152 63.04 26.152C63.232 26.152 63.3867 26.0987 63.504 25.992C63.632 25.8853 63.728 25.752 63.792 25.592C63.8667 25.432 63.9093 25.256 63.92 25.064C63.9413 24.872 63.936 24.696 63.904 24.536C63.872 24.376 63.8187 24.2427 63.744 24.136C63.68 24.0293 63.5947 23.976 63.488 23.976H63.104ZM66.4856 27.96C66.635 27.96 66.7523 28.008 66.8376 28.104C66.923 28.2107 66.9656 28.328 66.9656 28.456V28.968C66.9656 29.32 66.8323 29.624 66.5656 29.88C66.299 30.1467 65.883 30.2853 65.3176 30.296C64.7523 30.2853 64.3416 30.1467 64.0856 29.88C63.8296 29.624 63.7016 29.32 63.7016 28.968V28.68H63.3816C63.2856 28.68 63.2003 28.6587 63.1256 28.616C63.0403 28.584 62.987 28.5147 62.9656 28.408C62.9443 28.3227 62.9443 28.248 62.9656 28.184C62.987 28.0773 63.0456 28.0133 63.1416 27.992C63.227 27.9707 63.3176 27.96 63.4136 27.96H64.3256C64.411 27.96 64.4803 27.9867 64.5336 28.04C64.587 28.0933 64.6136 28.1627 64.6136 28.248V28.84C64.6136 29.0853 64.683 29.2613 64.8216 29.368C64.9496 29.4853 65.1096 29.544 65.3016 29.544C65.5043 29.544 65.675 29.4907 65.8136 29.384C65.9416 29.2773 66.0056 29.096 66.0056 28.84V28.456C66.0056 28.1253 66.1656 27.96 66.4856 27.96ZM69.7976 24.904C69.7976 25.352 69.8136 25.672 69.8456 25.864C69.8776 26.056 69.9683 26.152 70.1176 26.152C70.1496 26.152 70.187 26.136 70.2296 26.104C70.283 26.0613 70.3363 26.024 70.3896 25.992C70.4536 25.96 70.523 25.9387 70.5976 25.928C70.683 25.9067 70.7736 25.9173 70.8696 25.96C70.987 26.0133 71.0563 26.104 71.0776 26.232C71.1096 26.3493 71.083 26.472 70.9976 26.6C70.9443 26.6853 70.8696 26.76 70.7736 26.824C70.6776 26.8773 70.5763 26.92 70.4696 26.952C70.3736 26.984 70.2776 27.0053 70.1816 27.016C70.0856 27.0267 70.0163 27.032 69.9736 27.032C69.6963 27.032 69.4776 26.984 69.3176 26.888C69.1683 26.7813 69.0563 26.6373 68.9816 26.456C68.907 26.264 68.859 26.04 68.8376 25.784C68.8163 25.528 68.8056 25.2453 68.8056 24.936V20.6C68.8056 20.4613 68.8483 20.3493 68.9336 20.264C69.019 20.1787 69.1416 20.136 69.3016 20.136C69.4616 20.136 69.5843 20.1787 69.6696 20.264C69.755 20.3493 69.7976 20.4613 69.7976 20.6V24.904ZM72.9656 24.904C72.9656 25.352 72.9816 25.672 73.0136 25.864C73.0456 26.056 73.1363 26.152 73.2856 26.152C73.3176 26.152 73.355 26.136 73.3976 26.104C73.451 26.0613 73.5043 26.024 73.5576 25.992C73.6216 25.96 73.691 25.9387 73.7656 25.928C73.851 25.9067 73.9416 25.9173 74.0376 25.96C74.155 26.0133 74.2243 26.104 74.2456 26.232C74.2776 26.3493 74.251 26.472 74.1656 26.6C74.1123 26.6853 74.0376 26.76 73.9416 26.824C73.8456 26.8773 73.7443 26.92 73.6376 26.952C73.5416 26.984 73.4456 27.0053 73.3496 27.016C73.2536 27.0267 73.1843 27.032 73.1416 27.032C72.8643 27.032 72.6456 26.984 72.4856 26.888C72.3363 26.7813 72.2243 26.6373 72.1496 26.456C72.075 26.264 72.027 26.04 72.0056 25.784C71.9843 25.528 71.9736 25.2453 71.9736 24.936V20.6C71.9736 20.4613 72.0163 20.3493 72.1016 20.264C72.187 20.1787 72.3096 20.136 72.4696 20.136C72.6296 20.136 72.7523 20.1787 72.8376 20.264C72.923 20.3493 72.9656 20.4613 72.9656 20.6V24.904ZM77.0939 27.016C76.6565 27.016 76.3099 26.9413 76.0539 26.792C75.8085 26.632 75.6219 26.408 75.4939 26.12C75.3765 25.832 75.3019 25.4907 75.2699 25.096C75.2379 24.6907 75.2219 24.2373 75.2219 23.736V20.6C75.2219 20.4613 75.2592 20.3493 75.3339 20.264C75.4192 20.1787 75.5419 20.136 75.7019 20.136C75.8725 20.136 75.9952 20.1787 76.0699 20.264C76.1552 20.3493 76.1979 20.4613 76.1979 20.6V23.768C76.1979 24.088 76.1979 24.3973 76.1979 24.696C76.2085 24.984 76.2405 25.24 76.2939 25.464C76.3579 25.6773 76.4539 25.848 76.5819 25.976C76.7099 26.104 76.8965 26.168 77.1419 26.168C77.2805 26.168 77.4032 26.136 77.5099 26.072C77.6272 25.9973 77.7285 25.9067 77.8139 25.8C77.8992 25.6933 77.9685 25.5813 78.0219 25.464C78.0859 25.336 78.1339 25.2133 78.1659 25.096V22.568C78.1659 22.4507 78.1979 22.3493 78.2619 22.264C78.3365 22.1787 78.4645 22.1307 78.6459 22.12C78.8165 22.12 78.9445 22.1627 79.0299 22.248C79.1259 22.3333 79.1739 22.44 79.1739 22.568V25.096C79.1739 25.3947 79.2432 25.6507 79.3819 25.864C79.5312 26.0667 79.7605 26.168 80.0699 26.168C80.2939 26.168 80.4752 26.1253 80.6139 26.04C80.7525 25.944 80.8592 25.8213 80.9339 25.672C81.0085 25.5227 81.0565 25.3467 81.0779 25.144C81.1099 24.9307 81.1259 24.7013 81.1259 24.456V20.6C81.1259 20.4613 81.1632 20.3493 81.2379 20.264C81.3232 20.1787 81.4459 20.136 81.6059 20.136C81.7765 20.136 81.8992 20.1787 81.9739 20.264C82.0592 20.3493 82.1019 20.4613 82.1019 20.6V24.44C82.1019 25.2613 81.9525 25.896 81.6539 26.344C81.3659 26.792 80.8432 27.016 80.0859 27.016C79.7552 27.016 79.4459 26.9413 79.1579 26.792C78.8805 26.6427 78.6779 26.4293 78.5499 26.152C78.3899 26.3973 78.1819 26.6053 77.9259 26.776C77.6805 26.936 77.4032 27.016 77.0939 27.016ZM78.7622 17.096C78.5809 17.096 78.4102 17.1333 78.2502 17.208C78.0902 17.272 78.0102 17.432 78.0102 17.688C78.0102 18.0933 78.1916 18.296 78.5542 18.296C78.6929 18.296 78.8102 18.2587 78.9062 18.184C79.0022 18.1093 79.0876 18.024 79.1622 17.928C79.2049 17.8747 79.2636 17.8373 79.3382 17.816C79.4129 17.784 79.4716 17.768 79.5142 17.768C79.6422 17.768 79.7542 17.816 79.8502 17.912C79.9142 18.008 79.9942 18.0987 80.0902 18.184C80.1862 18.2587 80.2929 18.3013 80.4102 18.312C80.4849 18.3227 80.5596 18.3067 80.6342 18.264C80.7089 18.2107 80.7622 18.168 80.7943 18.136C80.8796 18.0507 80.9809 18.008 81.0982 18.008C81.2049 18.008 81.3009 18.0507 81.3862 18.136C81.4609 18.2213 81.4876 18.328 81.4662 18.456C81.4449 18.584 81.3916 18.6907 81.3062 18.776C81.2636 18.8187 81.1729 18.888 81.0342 18.984C80.8956 19.0693 80.6876 19.112 80.4102 19.112C80.1969 19.112 80.0156 19.064 79.8662 18.968C79.7169 18.8613 79.5996 18.7547 79.5142 18.648C79.4289 18.7547 79.3062 18.8613 79.1462 18.968C78.9756 19.064 78.7782 19.112 78.5542 19.112C78.0422 19.112 77.6742 18.9787 77.4502 18.712C77.2156 18.4347 77.0982 18.0933 77.0982 17.688C77.0982 17.272 77.2316 16.9307 77.4982 16.664C77.7649 16.3973 78.1702 16.264 78.7142 16.264H80.0742C80.1596 16.264 80.2556 16.264 80.3622 16.264C80.4582 16.264 80.5489 16.248 80.6342 16.216C80.7196 16.184 80.7942 16.1307 80.8582 16.056C80.9116 15.9707 80.9489 15.848 80.9702 15.688C80.9809 15.5707 81.0236 15.4853 81.0982 15.432C81.1622 15.368 81.2422 15.3307 81.3382 15.32C81.4556 15.32 81.5516 15.352 81.6262 15.416C81.6902 15.4693 81.7382 15.5387 81.7702 15.624C81.8022 15.7093 81.8182 15.8053 81.8182 15.912C81.8076 16.008 81.7969 16.0987 81.7862 16.184C81.7436 16.44 81.6529 16.632 81.5142 16.76C81.3756 16.888 81.2262 16.9787 81.0662 17.032C80.8956 17.0747 80.7302 17.096 80.5702 17.096C80.4102 17.096 80.2929 17.096 80.2182 17.096H78.7622ZM86.6023 20.136C87.0076 20.136 87.3863 20.1947 87.7383 20.312C88.0903 20.4293 88.3996 20.6107 88.6663 20.856C88.9329 21.1013 89.1409 21.4107 89.2903 21.784C89.4396 22.1573 89.5143 22.6 89.5143 23.112V26.536C89.5143 26.6747 89.4716 26.7867 89.3863 26.872C89.3009 26.9573 89.1783 27 89.0183 27C88.8583 27 88.7356 26.9573 88.6503 26.872C88.5649 26.7867 88.5223 26.6747 88.5223 26.536V23.272C88.5223 22.472 88.3463 21.8907 87.9943 21.528C87.6529 21.1653 87.1889 20.984 86.6023 20.984C86.0903 20.984 85.6583 21.0693 85.3063 21.24C84.9543 21.4107 84.6556 21.608 84.4103 21.832C84.5596 21.96 84.6663 22.184 84.7303 22.504C84.7943 22.8133 84.8263 23.16 84.8263 23.544V26.536C84.8263 26.6747 84.7836 26.7867 84.6983 26.872C84.6129 26.9573 84.4903 27 84.3303 27C84.1489 27 84.0209 26.952 83.9463 26.856C83.8716 26.76 83.8343 26.6533 83.8343 26.536V23.384C83.8343 22.936 83.7916 22.584 83.7063 22.328C83.6316 22.072 83.5249 21.864 83.3863 21.704C83.4929 21.5333 83.6423 21.3573 83.8343 21.176C84.0369 20.9947 84.2716 20.8293 84.5383 20.68C84.8156 20.52 85.1249 20.392 85.4663 20.296C85.8076 20.1893 86.1863 20.136 86.6023 20.136ZM92.3445 24.904C92.3445 25.352 92.3605 25.672 92.3925 25.864C92.4245 26.056 92.5152 26.152 92.6645 26.152C92.6965 26.152 92.7338 26.136 92.7765 26.104C92.8298 26.0613 92.8832 26.024 92.9365 25.992C93.0005 25.96 93.0698 25.9387 93.1445 25.928C93.2298 25.9067 93.3205 25.9173 93.4165 25.96C93.5338 26.0133 93.6032 26.104 93.6245 26.232C93.6565 26.3493 93.6298 26.472 93.5445 26.6C93.4912 26.6853 93.4165 26.76 93.3205 26.824C93.2245 26.8773 93.1232 26.92 93.0165 26.952C92.9205 26.984 92.8245 27.0053 92.7285 27.016C92.6325 27.0267 92.5632 27.032 92.5205 27.032C92.2432 27.032 92.0245 26.984 91.8645 26.888C91.7152 26.7813 91.6032 26.6373 91.5285 26.456C91.4538 26.264 91.4058 26.04 91.3845 25.784C91.3632 25.528 91.3525 25.2453 91.3525 24.936V20.6C91.3525 20.4613 91.3952 20.3493 91.4805 20.264C91.5658 20.1787 91.6885 20.136 91.8485 20.136C92.0085 20.136 92.1312 20.1787 92.2165 20.264C92.3018 20.3493 92.3445 20.4613 92.3445 20.6V24.904ZM97.4929 20.136C97.8982 20.136 98.2769 20.1947 98.6289 20.312C98.9809 20.4293 99.2902 20.6107 99.5569 20.856C99.8235 21.1013 100.032 21.4107 100.181 21.784C100.33 22.1573 100.405 22.6 100.405 23.112V26.536C100.405 26.6747 100.362 26.7867 100.277 26.872C100.192 26.9573 100.069 27 99.9089 27C99.7489 27 99.6262 26.9573 99.5409 26.872C99.4555 26.7867 99.4129 26.6747 99.4129 26.536V23.272C99.4129 22.472 99.2369 21.8907 98.8849 21.528C98.5435 21.1653 98.0795 20.984 97.4929 20.984C96.9809 20.984 96.5489 21.0693 96.1969 21.24C95.8449 21.4107 95.5462 21.608 95.3009 21.832C95.4502 21.96 95.5569 22.184 95.6209 22.504C95.6849 22.8133 95.7169 23.16 95.7169 23.544V26.536C95.7169 26.6747 95.6742 26.7867 95.5889 26.872C95.5035 26.9573 95.3809 27 95.2209 27C95.0395 27 94.9115 26.952 94.8369 26.856C94.7622 26.76 94.7249 26.6533 94.7249 26.536V23.384C94.7249 22.936 94.6822 22.584 94.5969 22.328C94.5222 22.072 94.4155 21.864 94.2769 21.704C94.3835 21.5333 94.5329 21.3573 94.7249 21.176C94.9275 20.9947 95.1622 20.8293 95.4289 20.68C95.7062 20.52 96.0155 20.392 96.3569 20.296C96.6982 20.1893 97.0769 20.136 97.4929 20.136ZM104.675 27C104.238 27 103.891 26.9253 103.635 26.776C103.379 26.616 103.176 26.408 103.027 26.152C102.888 25.8853 102.792 25.5813 102.739 25.24C102.686 24.8987 102.643 24.5413 102.611 24.168H102.163C101.918 24.168 101.795 24.0347 101.795 23.768C101.795 23.6507 101.827 23.56 101.891 23.496C101.955 23.4213 102.046 23.384 102.163 23.384H103.203C103.32 23.384 103.406 23.416 103.459 23.48C103.512 23.544 103.539 23.624 103.539 23.72C103.539 23.9973 103.544 24.2853 103.555 24.584C103.576 24.872 103.624 25.1333 103.699 25.368C103.774 25.6027 103.886 25.7947 104.035 25.944C104.195 26.0933 104.414 26.168 104.691 26.168C104.958 26.168 105.171 26.0987 105.331 25.96C105.502 25.8107 105.63 25.6133 105.715 25.368C105.8 25.1227 105.859 24.84 105.891 24.52C105.923 24.1893 105.939 23.8427 105.939 23.48C105.939 23.128 105.923 22.8027 105.891 22.504C105.87 22.1947 105.806 21.928 105.699 21.704C105.592 21.48 105.427 21.304 105.203 21.176C104.979 21.048 104.675 20.984 104.291 20.984C103.875 20.984 103.502 21.0533 103.171 21.192C102.851 21.32 102.558 21.5013 102.291 21.736C102.206 21.7893 102.099 21.8107 101.971 21.8C101.843 21.7893 101.747 21.736 101.683 21.64C101.598 21.5333 101.571 21.4213 101.603 21.304C101.635 21.1867 101.699 21.096 101.795 21.032C102.168 20.7227 102.552 20.4933 102.947 20.344C103.352 20.1947 103.8 20.12 104.291 20.12C104.814 20.12 105.24 20.1947 105.571 20.344C105.912 20.4827 106.179 20.6907 106.371 20.968C106.574 21.2453 106.712 21.592 106.787 22.008C106.872 22.4133 106.915 22.8827 106.915 23.416C106.915 23.8533 106.883 24.2907 106.819 24.728C106.766 25.1547 106.659 25.5387 106.499 25.88C106.339 26.2107 106.11 26.4827 105.811 26.696C105.523 26.8987 105.144 27 104.675 27ZM109.595 24.904C109.595 25.352 109.611 25.672 109.643 25.864C109.675 26.056 109.765 26.152 109.914 26.152C109.947 26.152 109.984 26.136 110.027 26.104C110.08 26.0613 110.133 26.024 110.187 25.992C110.251 25.96 110.32 25.9387 110.395 25.928C110.48 25.9067 110.571 25.9173 110.667 25.96C110.784 26.0133 110.853 26.104 110.875 26.232C110.907 26.3493 110.88 26.472 110.795 26.6C110.741 26.6853 110.667 26.76 110.571 26.824C110.475 26.8773 110.373 26.92 110.267 26.952C110.171 26.984 110.075 27.0053 109.979 27.016C109.883 27.0267 109.813 27.032 109.771 27.032C109.493 27.032 109.275 26.984 109.115 26.888C108.965 26.7813 108.853 26.6373 108.779 26.456C108.704 26.264 108.656 26.04 108.635 25.784C108.613 25.528 108.603 25.2453 108.603 24.936V20.6C108.603 20.4613 108.645 20.3493 108.731 20.264C108.816 20.1787 108.939 20.136 109.099 20.136C109.259 20.136 109.381 20.1787 109.467 20.264C109.552 20.3493 109.595 20.4613 109.595 20.6V24.904ZM112.763 24.904C112.763 25.352 112.779 25.672 112.811 25.864C112.843 26.056 112.933 26.152 113.083 26.152C113.115 26.152 113.152 26.136 113.195 26.104C113.248 26.0613 113.301 26.024 113.355 25.992C113.419 25.96 113.488 25.9387 113.563 25.928C113.648 25.9067 113.739 25.9173 113.835 25.96C113.952 26.0133 114.021 26.104 114.043 26.232C114.075 26.3493 114.048 26.472 113.963 26.6C113.909 26.6853 113.835 26.76 113.739 26.824C113.643 26.8773 113.541 26.92 113.435 26.952C113.339 26.984 113.243 27.0053 113.147 27.016C113.051 27.0267 112.981 27.032 112.939 27.032C112.661 27.032 112.443 26.984 112.283 26.888C112.133 26.7813 112.021 26.6373 111.947 26.456C111.872 26.264 111.824 26.04 111.803 25.784C111.781 25.528 111.771 25.2453 111.771 24.936V20.6C111.771 20.4613 111.813 20.3493 111.899 20.264C111.984 20.1787 112.107 20.136 112.266 20.136C112.427 20.136 112.549 20.1787 112.635 20.264C112.72 20.3493 112.763 20.4613 112.763 20.6V24.904ZM120.795 26.536C120.795 26.6747 120.752 26.7867 120.667 26.872C120.592 26.9573 120.475 27 120.315 27C120.144 27 120.021 26.9573 119.947 26.872C119.872 26.7867 119.835 26.6747 119.835 26.536V25.976C119.589 26.296 119.264 26.552 118.859 26.744C118.453 26.9253 118.037 27.016 117.611 27.016C117.237 27.016 116.891 26.968 116.571 26.872C116.251 26.7653 115.973 26.6107 115.739 26.408C115.515 26.1947 115.339 25.9333 115.211 25.624C115.083 25.3147 115.019 24.9573 115.019 24.552V20.552C115.019 20.4347 115.061 20.3333 115.147 20.248C115.243 20.1627 115.365 20.12 115.515 20.12C115.664 20.12 115.781 20.1627 115.867 20.248C115.963 20.3333 116.011 20.4347 116.011 20.552V24.552C116.011 25.0747 116.171 25.4747 116.491 25.752C116.811 26.0187 117.237 26.152 117.771 26.152C117.995 26.152 118.213 26.1093 118.427 26.024C118.651 25.9387 118.853 25.8267 119.035 25.688C119.216 25.5387 119.376 25.368 119.515 25.176C119.653 24.9733 119.749 24.76 119.803 24.536V20.552C119.803 20.4347 119.845 20.3333 119.931 20.248C120.027 20.1627 120.149 20.12 120.299 20.12C120.448 20.12 120.565 20.1627 120.651 20.248C120.747 20.3333 120.795 20.4347 120.795 20.552V26.536ZM123.85 22.952C123.476 22.952 123.135 22.8933 122.826 22.776C122.527 22.6587 122.335 22.424 122.25 22.072C122.228 21.976 122.223 21.8693 122.234 21.752C122.244 21.624 122.271 21.512 122.314 21.416C122.367 21.3093 122.431 21.2293 122.506 21.176C122.591 21.112 122.698 21.096 122.826 21.128C122.943 21.1493 123.034 21.2027 123.098 21.288C123.162 21.3627 123.183 21.448 123.162 21.544C123.108 21.7147 123.124 21.8587 123.21 21.976C123.306 22.0933 123.45 22.152 123.642 22.152H125.562C125.679 22.152 125.775 22.1893 125.85 22.264C125.935 22.328 125.978 22.4187 125.978 22.536C125.978 22.6533 125.94 22.7547 125.866 22.84C125.791 22.9147 125.69 22.952 125.562 22.952H123.85ZM123.85 26.28C123.476 26.28 123.135 26.2213 122.826 26.104C122.527 25.9867 122.335 25.752 122.25 25.4C122.228 25.304 122.223 25.1973 122.234 25.08C122.244 24.952 122.271 24.84 122.314 24.744C122.367 24.6373 122.431 24.5573 122.506 24.504C122.591 24.44 122.698 24.424 122.826 24.456C122.943 24.4773 123.034 24.5307 123.098 24.616C123.162 24.6907 123.183 24.776 123.162 24.872C123.108 25.0427 123.124 25.1867 123.21 25.304C123.306 25.4213 123.45 25.48 123.642 25.48H125.562C125.679 25.48 125.775 25.5173 125.85 25.592C125.935 25.656 125.978 25.7467 125.978 25.864C125.978 25.9813 125.94 26.0827 125.866 26.168C125.791 26.2427 125.69 26.28 125.562 26.28H123.85ZM133.201 26.536C133.201 26.6747 133.158 26.7867 133.073 26.872C132.998 26.9573 132.881 27 132.721 27C132.55 27 132.428 26.9573 132.353 26.872C132.278 26.7867 132.241 26.6747 132.241 26.536V25.976C131.996 26.296 131.67 26.552 131.265 26.744C130.86 26.9253 130.444 27.016 130.017 27.016C129.644 27.016 129.297 26.968 128.977 26.872C128.657 26.7653 128.38 26.6107 128.145 26.408C127.921 26.1947 127.745 25.9333 127.617 25.624C127.489 25.3147 127.425 24.9573 127.425 24.552V20.552C127.425 20.4347 127.468 20.3333 127.553 20.248C127.649 20.1627 127.772 20.12 127.921 20.12C128.07 20.12 128.188 20.1627 128.273 20.248C128.369 20.3333 128.417 20.4347 128.417 20.552V24.552C128.417 25.0747 128.577 25.4747 128.897 25.752C129.217 26.0187 129.644 26.152 130.177 26.152C130.401 26.152 130.62 26.1093 130.833 26.024C131.057 25.9387 131.26 25.8267 131.441 25.688C131.622 25.5387 131.782 25.368 131.921 25.176C132.06 24.9733 132.156 24.76 132.209 24.536V20.552C132.209 20.4347 132.252 20.3333 132.337 20.248C132.433 20.1627 132.556 20.12 132.705 20.12C132.854 20.12 132.972 20.1627 133.057 20.248C133.153 20.3333 133.201 20.4347 133.201 20.552V26.536ZM132.112 16.936C132.283 16.936 132.443 16.968 132.592 17.032C132.741 17.096 132.875 17.1867 132.992 17.304C133.099 17.4107 133.189 17.5387 133.264 17.688C133.328 17.8373 133.36 17.9973 133.36 18.168C133.36 18.3387 133.328 18.504 133.264 18.664C133.189 18.8133 133.099 18.9467 132.992 19.064C132.875 19.1707 132.741 19.256 132.592 19.32C132.443 19.384 132.283 19.416 132.112 19.416C131.771 19.416 131.477 19.2933 131.232 19.048C130.987 18.8027 130.864 18.5093 130.864 18.168C130.864 17.8267 130.987 17.5387 131.232 17.304C131.477 17.0587 131.771 16.936 132.112 16.936ZM132.112 18.696C132.261 18.696 132.389 18.648 132.496 18.552C132.592 18.4453 132.64 18.3173 132.64 18.168C132.64 18.0187 132.592 17.896 132.496 17.8C132.389 17.704 132.261 17.656 132.112 17.656C131.963 17.656 131.84 17.704 131.744 17.8C131.648 17.896 131.6 18.0187 131.6 18.168C131.6 18.3173 131.648 18.4453 131.744 18.552C131.84 18.648 131.963 18.696 132.112 18.696ZM135.52 21.992C135.52 22.1093 135.472 22.2107 135.376 22.296C135.28 22.3813 135.168 22.424 135.04 22.424C134.891 22.424 134.773 22.3867 134.688 22.312C134.603 22.2373 134.56 22.1627 134.56 22.088C134.56 21.8107 134.629 21.5547 134.768 21.32C134.917 21.0853 135.104 20.8827 135.328 20.712C135.563 20.5307 135.829 20.392 136.128 20.296C136.427 20.1893 136.731 20.136 137.04 20.136C137.904 20.136 138.528 20.376 138.912 20.856C139.296 21.3253 139.488 21.9707 139.488 22.792V26.472C139.488 26.824 139.323 27 138.992 27C138.672 27 138.512 26.824 138.512 26.472V22.92C138.512 22.4933 138.469 22.152 138.384 21.896C138.299 21.64 138.187 21.448 138.048 21.32C137.909 21.1813 137.749 21.0907 137.568 21.048C137.397 20.9947 137.221 20.968 137.04 20.968C136.763 20.968 136.528 21.0107 136.336 21.096C136.144 21.1813 135.984 21.2827 135.856 21.4C135.739 21.5067 135.653 21.6187 135.6 21.736C135.547 21.8427 135.52 21.928 135.52 21.992Z" fill="#545859"/>
<g clip-path="url(#clip0_2373_366101)">
<path d="M26.3186 16.1648C26.3419 12.3929 23.3031 9.31629 19.5312 9.29301C15.7592 9.26973 12.6826 12.3086 12.6593 16.0805C12.6361 19.8524 15.6749 22.929 19.4468 22.9523C23.2188 22.9756 26.2954 19.9367 26.3186 16.1648Z" fill="white"/>
<path d="M19.4891 23.4293C15.461 23.4293 12.1846 20.1522 12.1846 16.1248C12.1846 12.0974 15.461 8.82031 19.4891 8.82031C23.5172 8.82031 26.7936 12.0974 26.7936 16.1248C26.7936 20.1522 23.5164 23.4293 19.4891 23.4293ZM19.4891 9.77002C15.9848 9.77002 13.1336 12.6206 13.1336 16.1248C13.1336 19.6291 15.9848 22.4796 19.4891 22.4796C22.9933 22.4796 25.8446 19.6291 25.8446 16.1248C25.8446 12.6206 22.9933 9.77002 19.4891 9.77002Z" fill="#545859"/>
<path d="M19.4893 23.4293C17.0071 23.4293 15.063 20.221 15.063 16.1248C15.063 12.0286 17.0071 8.82031 19.4893 8.82031C21.97 8.82031 23.9127 12.0286 23.9127 16.1248C23.9127 20.221 21.9693 23.4293 19.4893 23.4293ZM19.4893 9.77002C17.6048 9.77002 16.0127 12.6802 16.0127 16.1248C16.0127 19.5694 17.6048 22.4796 19.4893 22.4796C21.3724 22.4796 22.9637 19.5694 22.9637 16.1248C22.9637 12.6802 21.3724 9.77002 19.4893 9.77002Z" fill="#545859"/>
<path d="M19.4895 23.4293H19.0146V8.82031H19.4895C23.5176 8.82031 26.794 12.0974 26.794 16.1248C26.794 20.1522 23.5169 23.4293 19.4895 23.4293ZM19.9644 9.78705V22.4626C23.2479 22.2191 25.845 19.4694 25.845 16.1248C25.845 12.7803 23.2479 10.0305 19.9644 9.78705Z" fill="#545859"/>
<path d="M26.2018 19.0071H12.7739L12.6582 18.6998C12.3438 17.8651 12.1841 16.9984 12.1841 16.1254C12.1841 15.2516 12.3438 14.385 12.6589 13.5495L12.7746 13.2422H26.2011L26.3168 13.5495C26.6327 14.3857 26.7931 15.253 26.7931 16.1254C26.7931 16.9977 26.6327 17.8644 26.3168 18.7005L26.2018 19.0071ZM13.4397 18.0574H25.5367C25.7412 17.4257 25.8441 16.777 25.8441 16.1254C25.8441 15.4738 25.7405 14.8243 25.5367 14.1919H13.4404C13.2367 14.8236 13.1345 15.4724 13.1345 16.1254C13.1338 16.7777 13.2367 17.4264 13.4397 18.0574Z" fill="#545859"/>
<path d="M10.7207 17.2032V16.8717L12.5122 15.8809" fill="white"/>
<path d="M10.9509 17.2862L10.9048 17.2024H10.2461V16.5913L12.2825 15.4648L12.7424 16.2953L11.1958 17.1506V17.2024H11.1021L10.9509 17.2862Z" fill="#545859"/>
<path d="M28.2642 17.2034V16.8719L26.3975 15.8398" fill="white"/>
<path d="M28.0347 17.287L27.8835 17.2033H27.7898V17.1515L26.168 16.255L26.6272 15.4238L28.7388 16.5914V17.2033H28.0809L28.0347 17.287Z" fill="#545859"/>
<path d="M10.852 23.3945H9.90234V27.9685H10.852V23.3945Z" fill="#545859"/>
<path d="M10.6145 17.1161L10.1426 17.9395L19.2493 23.1593L19.7212 22.336L10.6145 17.1161Z" fill="#545859"/>
<path d="M28.5884 23.2754V28.041L19.4831 33.2984L10.3765 28.041V24.7589V23.477" fill="white"/>
<path d="M19.4832 33.8464L9.90234 28.3157V23.477H10.8513V27.767L19.4832 32.7505L28.1136 27.767V23.2754H29.0633V28.3157L19.4832 33.8464Z" fill="#545859"/>
<path d="M28.3528 27.6349L19.2471 32.8906L19.7218 33.7132L28.8276 28.4575L28.3528 27.6349Z" fill="#545859"/>
<path d="M19.9644 22.6602H19.0146V33.2219H19.9644V22.6602Z" fill="#545859"/>
<path d="M19.4829 22.6217L28.5882 17.2891L30.9781 21.7196L21.8728 26.977L19.4829 22.6217Z" fill="#FFD100"/>
<path d="M19.4958 22.6328L10.3906 17.3008L8 21.7313L17.106 26.9888L19.4958 22.6328Z" fill="#FFD100"/>
<path d="M29.6706 33.1783C27.3723 33.1783 25.502 31.308 25.502 29.0097C25.502 26.7114 27.3723 24.8418 29.6706 24.8418C31.9689 24.8418 33.8385 26.7114 33.8385 29.0097C33.8385 31.308 31.9689 33.1783 29.6706 33.1783Z" fill="#FFE67D"/>
<path d="M28.0591 30.0927C27.9867 30.0927 27.9171 30.0593 27.8724 29.9997L27.0164 28.8612V29.8591C27.0164 29.9883 26.912 30.0927 26.7828 30.0927C26.6537 30.0927 26.5493 29.9883 26.5493 29.8591V28.1613C26.5493 28.0605 26.6139 27.9718 26.709 27.9399C26.8041 27.9079 26.9092 27.9406 26.9695 28.0208L27.8255 29.1593V28.1613C27.8255 28.0321 27.9299 27.9278 28.0591 27.9278C28.1882 27.9278 28.2926 28.0321 28.2926 28.1613V29.8591C28.2926 29.9599 28.228 30.0487 28.1329 30.0806C28.1087 30.0891 28.0839 30.0927 28.0591 30.0927Z" fill="#545859"/>
<path d="M29.9877 30.0926H28.8619C28.7328 30.0926 28.6284 29.9883 28.6284 29.8591V28.1613C28.6284 28.0321 28.7328 27.9277 28.8619 27.9277H29.9877C30.1169 27.9277 30.2212 28.0321 30.2212 28.1613C30.2212 28.2904 30.1169 28.3948 29.9877 28.3948H29.0955V29.6249H29.9877C30.1169 29.6249 30.2212 29.7292 30.2212 29.8584C30.2212 29.9883 30.1162 30.0926 29.9877 30.0926Z" fill="#545859"/>
<path d="M29.9877 29.2444H28.8619C28.7328 29.2444 28.6284 29.14 28.6284 29.0109C28.6284 28.8817 28.7328 28.7773 28.8619 28.7773H29.9877C30.1169 28.7773 30.2212 28.8817 30.2212 29.0109C30.2212 29.14 30.1162 29.2444 29.9877 29.2444Z" fill="#545859"/>
<path d="M32.2328 30.0917C32.137 30.0917 32.0511 30.0335 32.0156 29.9448L31.7303 29.2307L31.4321 29.9483C31.3959 30.0356 31.3108 30.0924 31.2164 30.0924C31.2156 30.0924 31.2149 30.0924 31.2149 30.0924C31.1198 30.0917 31.0346 30.0335 30.9999 29.9455L30.3227 28.2484C30.2752 28.1284 30.3334 27.9929 30.4533 27.9446C30.5733 27.8963 30.7089 27.9553 30.7571 28.0752L31.2213 29.24L31.5194 28.5231C31.5556 28.4358 31.6408 28.379 31.7352 28.379C31.7359 28.379 31.7366 28.379 31.7366 28.379C31.8317 28.3797 31.9169 28.4379 31.9517 28.5259L32.2328 29.2293L32.6927 28.0759C32.7403 27.956 32.8766 27.8978 32.9965 27.9453C33.1165 27.9929 33.1747 28.1292 33.1271 28.2491L32.45 29.9462C32.4145 30.0335 32.3286 30.0917 32.2328 30.0917Z" fill="#545859"/>
<path d="M30.0593 22.8789H29.5923V23.9258H30.0593V22.8789Z" fill="#484F59"/>
<path d="M30.0599 22.879V23.9259H29.5928V22.879H30.0599ZM30.2728 22.666H30.0599H29.5928H29.3799V22.879V23.9259V24.1389H29.5928H30.0599H30.2728V23.9259V22.879V22.666Z" fill="white"/>
<path d="M27.007 23.5321L26.6025 23.7656L27.126 24.6724L27.5305 24.4389L27.007 23.5321Z" fill="#484F59"/>
<path d="M27.0032 23.5352L27.5263 24.4416L27.1218 24.6751L26.5986 23.7687L27.0032 23.5352ZM27.0813 23.2441L26.8967 23.3506L26.4922 23.5841L26.3076 23.6906L26.4141 23.8751L26.9372 24.7816L27.0437 24.9661L27.2282 24.8596L27.6328 24.6261L27.8173 24.5196L27.7109 24.3351L27.1878 23.4287L27.0813 23.2441Z" fill="white"/>
<path d="M24.6877 25.6307L24.4541 26.0352L25.3601 26.5584L25.5937 26.1539L24.6877 25.6307Z" fill="#484F59"/>
<path d="M24.6847 25.6309L25.5911 26.154L25.3576 26.5586L24.4512 26.0354L24.6847 25.6309ZM24.6066 25.3398L24.5001 25.5244L24.2666 25.929L24.1602 26.1135L24.3447 26.22L25.2511 26.7431L25.4357 26.8496L25.5421 26.665L25.7757 26.2604L25.8821 26.0759L25.6976 25.9694L24.7912 25.4463L24.6066 25.3398Z" fill="white"/>
<path d="M24.772 28.6055H23.7251V29.0725H24.772V28.6055Z" fill="#484F59"/>
<path d="M24.7711 28.6055V29.0726H23.7242V28.6055H24.7711ZM24.9841 28.3926H24.7711H23.7242H23.5112V28.6055V29.0726V29.2855H23.7242H24.7711H24.9841V29.0726V28.6055V28.3926Z" fill="white"/>
<path d="M25.289 31.143L24.3828 31.666L24.6163 32.0705L25.5224 31.5475L25.289 31.143Z" fill="#484F59"/>
<path d="M25.2873 31.1387L25.5208 31.5433L24.6144 32.0664L24.3809 31.6618L25.2873 31.1387ZM25.3653 30.8477L25.1808 30.9541L24.2744 31.4772L24.0898 31.5837L24.1963 31.7683L24.4298 32.1728L24.5363 32.3574L24.7209 32.2509L25.6273 31.7278L25.8118 31.6213L25.7053 31.4368L25.4718 31.0322L25.3653 30.8477Z" fill="white"/>
<path d="M27.0008 33.0725L26.4775 33.9785L26.882 34.2121L27.4052 33.306L27.0008 33.0725Z" fill="#484F59"/>
<path d="M27.0007 33.0742L27.4052 33.3077L26.8821 34.2141L26.4775 33.9806L27.0007 33.0742ZM26.9226 32.7832L26.8161 32.9678L26.293 33.8742L26.1865 34.0587L26.3711 34.1652L26.7757 34.3987L26.9602 34.5052L27.0667 34.3206L27.5898 33.4142L27.6963 33.2297L27.5117 33.1232L27.1071 32.8897L26.9226 32.7832Z" fill="white"/>
<path d="M29.9192 33.8945H29.4521V34.9408H29.9192V33.8945Z" fill="#484F59"/>
<path d="M29.9192 33.8946V34.9408H29.4522V33.8946H29.9192ZM30.1322 33.6816H29.9192H29.4522H29.2393V33.8946V34.9408V35.1537H29.4522H29.9192H30.1322V34.9408V33.8946V33.6816Z" fill="white"/>
<path d="M32.3874 33.1454L31.9829 33.3789L32.506 34.2849L32.9105 34.0514L32.3874 33.1454Z" fill="#484F59"/>
<path d="M32.3899 33.1445L32.9131 34.0509L32.5085 34.2845L31.9854 33.3781L32.3899 33.1445ZM32.468 32.8535L32.2835 32.96L31.8789 33.1935L31.6943 33.3L31.8008 33.4845L32.3239 34.3909L32.4304 34.5755L32.615 34.469L33.0195 34.2355L33.2041 34.129L33.0976 33.9445L32.5745 33.0381L32.468 32.8535Z" fill="white"/>
<path d="M34.1524 31.2576L33.9189 31.6621L34.8251 32.1851L35.0586 31.7806L34.1524 31.2576Z" fill="#484F59"/>
<path d="M34.1544 31.2617L35.0608 31.7848L34.8273 32.1894L33.9209 31.6663L34.1544 31.2617ZM34.0763 30.9707L33.9699 31.1552L33.7364 31.5598L33.6299 31.7444L33.8144 31.8508L34.7208 32.374L34.9054 32.4804L35.0118 32.2959L35.2454 31.8913L35.3518 31.7068L35.1673 31.6003L34.2609 31.0772L34.0763 30.9707Z" fill="white"/>
<path d="M35.787 28.7461H34.7407V29.2131H35.787V28.7461Z" fill="#484F59"/>
<path d="M35.787 28.7461V29.2132H34.7408V28.7461H35.787ZM36 28.5332H35.787H34.7408H34.5278V28.7461V29.2132V29.4261H34.7408H35.787H36V29.2132V28.7461V28.5332Z" fill="white"/>
<path d="M34.8967 25.754L33.9907 26.2773L34.2243 26.6818L35.1303 26.1584L34.8967 25.754Z" fill="#484F59"/>
<path d="M34.8972 25.7539L35.1307 26.1585L34.2243 26.6816L33.9907 26.277L34.8972 25.7539ZM34.9752 25.4629L34.7907 25.5694L33.8843 26.0925L33.6997 26.1989L33.8062 26.3835L34.0397 26.7881L34.1462 26.9726L34.3307 26.8661L35.2372 26.343L35.4217 26.2366L35.3152 26.052L35.0817 25.6474L34.9752 25.4629Z" fill="white"/>
<path d="M32.629 23.6036L32.106 24.5098L32.5105 24.7432L33.0335 23.8371L32.629 23.6036Z" fill="#484F59"/>
<path d="M32.6301 23.6055L33.0347 23.839L32.5115 24.7454L32.1069 24.5119L32.6301 23.6055ZM32.552 23.3145L32.4455 23.499L31.9224 24.4054L31.8159 24.59L32.0005 24.6964L32.4051 24.93L32.5896 25.0364L32.6961 24.8519L33.2192 23.9455L33.3257 23.7609L33.1411 23.6544L32.7365 23.4209L32.552 23.3145Z" fill="white"/>
</g>
<circle cx="22" cy="74" r="22" fill="#FFD100"/>
<circle cx="22" cy="74" r="20" fill="#EFEFEF"/>
<path d="M27.6472 81.3978H33.3869V69.5425C33.1287 69.1592 31.456 69.1726 31.2246 69.5734L26.2599 74.4081C26.0285 74.8084 26.187 75.089 26.3091 75.8276L27.6472 81.3978Z" fill="#FFD100"/>
<path d="M34.9424 63.2461C35.3032 63.2461 35.5978 63.5407 35.5978 63.9015V75.3493C35.5978 75.71 35.3032 76.0046 34.9424 76.0046H28.2789C27.9181 76.0046 27.6235 75.71 27.6235 75.3493V63.9015C27.6235 63.5413 27.9181 63.2461 28.2789 63.2461H34.9424Z" fill="white"/>
<path d="M34.9426 76.4064H28.2791C27.696 76.4064 27.2217 75.9321 27.2217 75.349V63.9012C27.2217 63.3181 27.696 62.8438 28.2791 62.8438H34.9426C35.5257 62.8438 36.0001 63.3181 36.0001 63.9012V75.349C36.0001 75.9321 35.5257 76.4064 34.9426 76.4064ZM28.2797 63.6473C28.14 63.6473 28.0258 63.7609 28.0258 63.9006V75.3484C28.0258 75.4881 28.1394 75.6017 28.2797 75.6017H34.9432C35.0829 75.6017 35.1971 75.4881 35.1971 75.3484V63.9012C35.1971 63.7639 35.0811 63.6479 34.9432 63.6479H28.2797V63.6473Z" fill="#545859"/>
<path d="M32.472 72.7207H31.6685V75.0099H32.472V72.7207Z" fill="#545859"/>
<path d="M34.1185 70.9531H33.3149V75.0104H34.1185V70.9531Z" fill="#545859"/>
<path d="M32.472 69.8555H31.6685V72.1447H32.472V69.8555Z" fill="#545859"/>
<path d="M32.472 66.9883H31.6685V69.2775H32.472V66.9883Z" fill="#545859"/>
<path d="M32.472 64.123H31.6685V66.4122H32.472V64.123Z" fill="#545859"/>
<path d="M30.2834 66.0893C30.6757 65.6969 30.6757 65.0609 30.2834 64.6686C29.8911 64.2762 29.255 64.2762 28.8627 64.6686C28.4704 65.0609 28.4704 65.6969 28.8627 66.0893C29.255 66.4816 29.8911 66.4816 30.2834 66.0893Z" fill="#FFD100"/>
<path d="M30.2834 67.4291C30.6757 67.0368 30.6757 66.4007 30.2834 66.0084C29.8911 65.6161 29.255 65.6161 28.8627 66.0084C28.4704 66.4007 28.4704 67.0368 28.8627 67.4291C29.255 67.8214 29.8911 67.8214 30.2834 67.4291Z" fill="#FFE67D"/>
<path d="M31.9268 80.7279C31.962 80.4072 31.9809 80.075 31.9809 79.7343C31.9809 78.0962 31.6292 76.8353 30.9696 75.9394V71.514C30.9696 70.9917 30.5462 70.5684 30.0239 70.5684H29.6455C29.1232 70.5684 28.6992 70.9917 28.6992 71.514V77.0642" fill="#FFD100"/>
<path d="M26.1172 84.0566V81.9004H34.7589V84.0566" fill="#FFE67D"/>
<path d="M22.0142 69.0752V66.2424C22.0142 65.5482 22.5766 64.9863 23.2708 64.9863C23.9651 64.9863 24.5275 65.5482 24.5275 66.2424V69.0746H22.0142V69.0752Z" fill="#FFD100"/>
<path d="M22.014 66.243V80.2904H22.0104L22.014 80.5006C22.014 81.145 21.5251 81.6752 20.9001 81.7475C20.5581 81.7475 9.76386 81.7451 9.20508 81.7475C9.83007 81.6752 10.3154 81.145 10.3154 80.5006V80.2139H10.3202V66.243C10.3202 65.598 10.8049 65.0678 11.4305 64.9961C11.7725 64.9961 22.5661 64.9985 23.1249 64.9961C22.4999 65.0684 22.014 65.5986 22.014 66.243Z" fill="white"/>
<path d="M20.9226 82.1403H20.2211C13.2314 82.139 9.5258 82.139 9.20693 82.1403L9.16016 81.358C9.59504 81.3075 9.92362 80.9389 9.92362 80.5003L9.92849 66.2428C9.92849 65.4059 10.5547 64.7019 11.3856 64.6059L11.4305 64.6035H12.1084C19.098 64.6047 22.8036 64.6047 23.1225 64.6035L23.1693 65.3858C22.7338 65.4362 22.4058 65.8049 22.4058 66.2434V80.6832H22.3949C22.3092 81.4412 21.714 82.0485 20.9444 82.1378L20.9226 82.1403ZM12.3823 81.3543C14.2159 81.3543 16.8325 81.3549 20.2217 81.3555H20.8758C21.3028 81.296 21.6223 80.9322 21.6223 80.5009L21.6113 79.8984H21.6223V66.2428C21.6223 65.9318 21.7091 65.6385 21.8604 65.3889C20.1986 65.3889 16.937 65.3889 12.109 65.3882H11.4554C11.0309 65.4472 10.7132 65.8116 10.7132 66.2434V80.6066H10.7053C10.6883 80.8781 10.6045 81.1332 10.4703 81.3549C10.9653 81.3543 11.603 81.3543 12.3823 81.3543Z" fill="#545859"/>
<path d="M19.6944 79.8691V80.5008C19.6944 81.1452 20.1797 81.6755 20.8047 81.7478C20.2465 81.7453 9.45223 81.7478 9.11028 81.7478C8.48529 81.6755 8 81.1452 8 80.5008V79.8691H19.6944V79.8691Z" fill="#FFD100"/>
<path d="M24.9191 69.6258H24.1344V66.2422C24.1344 65.766 23.7469 65.3785 23.2701 65.3785C22.7939 65.3785 22.4058 65.766 22.4058 66.2422H21.6211C21.6211 65.3329 22.3609 64.5938 23.2695 64.5938C24.1787 64.5938 24.9185 65.3335 24.9185 66.2422V69.6258H24.9191Z" fill="#545859"/>
<path d="M20.8777 82.1404C20.0383 82.1404 19.3027 81.3745 19.3027 80.5011V79.4844H20.0875V80.5011C20.0875 80.9324 20.4792 81.3557 20.8783 81.3557V82.1404H20.8777Z" fill="#545859"/>
<path d="M20.4087 67.2246H14.0361V68.0093H20.4087V67.2246Z" fill="#545859"/>
<path d="M20.4087 68.6836H14.0361V69.4683H20.4087V68.6836Z" fill="#545859"/>
<path d="M13.2607 67.2305H11.8467V68.6444H13.2607V67.2305Z" fill="#FFE67D"/>
<path d="M15.2643 71.1895H14.0361V71.9742H15.2643V71.1895Z" fill="#545859"/>
<path d="M15.2643 72.6484H14.0361V73.4332H15.2643V72.6484Z" fill="#545859"/>
<path d="M13.2607 71.1895H11.8467V72.6034H13.2607V71.1895Z" fill="#FFE67D"/>
<path d="M15.2643 75.1133H14.0361V75.898H15.2643V75.1133Z" fill="#545859"/>
<path d="M15.2643 76.5723H14.0361V77.357H15.2643V76.5723Z" fill="#545859"/>
<path d="M13.2607 75.1133H11.8467V76.5273H13.2607V75.1133Z" fill="#FFE67D"/>
<path d="M26.3899 84.6431C26.3899 84.7324 26.3176 84.8052 26.2283 84.8052H16.4052C16.3159 84.8052 16.2437 84.7324 16.2437 84.6431V71.0294C16.2437 70.9401 16.3159 70.8672 16.4052 70.8672H26.2283C26.3176 70.8672 26.3899 70.9401 26.3899 71.0294V84.6431Z" fill="white"/>
<path d="M26.2285 85.1968H16.4054C16.0999 85.1968 15.8521 84.9484 15.8521 84.6422V71.0285C15.8521 70.723 16.1005 70.4746 16.4054 70.4746H26.2285C26.534 70.4746 26.7824 70.723 26.7824 71.0285V84.6422C26.7824 84.9484 26.534 85.1968 26.2285 85.1968ZM16.6362 84.412H25.9977V71.2593H16.6362V84.412Z" fill="#545859"/>
<path d="M26.3899 72.6641V83.4911C26.3899 83.581 26.3176 83.6533 26.2283 83.6533H16.4052C16.3159 83.6533 16.2437 83.581 16.2437 83.4911V72.6641" fill="white"/>
<path d="M26.2285 84.045H16.4054C16.0999 84.045 15.8521 83.7966 15.8521 83.4905V72.6641H16.6368V83.2609H25.9983V72.6641H26.783V83.4911C26.7824 83.7966 26.534 84.045 26.2285 84.045Z" fill="#545859"/>
<path d="M25.0001 72.9336H17.6333V74.6998H25.0001V72.9336Z" fill="#FFE67D"/>
<path d="M19.0309 75.918H17.6157V76.7027H19.0309V75.918Z" fill="#545859"/>
<path d="M21.0265 75.918H19.6113V76.7027H21.0265V75.918Z" fill="#545859"/>
<path d="M23.0221 75.918H21.6069V76.7027H23.0221V75.918Z" fill="#545859"/>
<path d="M25.0177 75.918H23.6025V76.7027H25.0177V75.918Z" fill="#545859"/>
<path d="M19.0309 77.3008H17.6157V78.0855H19.0309V77.3008Z" fill="#545859"/>
<path d="M21.0265 77.3008H19.6113V78.0855H21.0265V77.3008Z" fill="#545859"/>
<path d="M23.0221 77.3008H21.6069V78.0855H23.0221V77.3008Z" fill="#545859"/>
<path d="M25.0177 77.3008H23.6025V78.0855H25.0177V77.3008Z" fill="#545859"/>
<path d="M19.0309 78.6836H17.6157V79.4683H19.0309V78.6836Z" fill="#545859"/>
<path d="M21.0265 78.6836H19.6113V79.4683H21.0265V78.6836Z" fill="#545859"/>
<path d="M23.0221 78.6836H21.6069V79.4683H23.0221V78.6836Z" fill="#545859"/>
<path d="M25.0177 78.6836H23.6025V79.4683H25.0177V78.6836Z" fill="#545859"/>
<path d="M19.0309 80.0664H17.6157V80.8511H19.0309V80.0664Z" fill="#545859"/>
<path d="M21.0265 80.0664H19.6113V80.8511H21.0265V80.0664Z" fill="#545859"/>
<path d="M23.0221 80.0664H21.6069V80.8511H23.0221V80.0664Z" fill="#545859"/>
<path d="M25.0177 80.0664H23.6025V80.8511H25.0177V80.0664Z" fill="#545859"/>
<path d="M19.0309 81.4473H17.6157V82.232H19.0309V81.4473Z" fill="#545859"/>
<path d="M21.0265 81.4473H19.6113V82.232H21.0265V81.4473Z" fill="#545859"/>
<path d="M23.0221 81.4473H21.6069V82.232H23.0221V81.4473Z" fill="#545859"/>
<path d="M25.0177 81.4473H23.6025V82.232H25.0177V81.4473Z" fill="#545859"/>
<circle cx="22" cy="74" r="22" fill="#FFD100"/>
<circle cx="22" cy="74" r="20" fill="#EFEFEF"/>
<path d="M27.6472 81.3978H33.3869V69.5425C33.1287 69.1592 31.456 69.1726 31.2246 69.5734L26.2599 74.4081C26.0285 74.8084 26.187 75.089 26.3091 75.8276L27.6472 81.3978Z" fill="#FFD100"/>
<path d="M34.9424 63.2461C35.3032 63.2461 35.5978 63.5407 35.5978 63.9015V75.3493C35.5978 75.71 35.3032 76.0046 34.9424 76.0046H28.2789C27.9181 76.0046 27.6235 75.71 27.6235 75.3493V63.9015C27.6235 63.5413 27.9181 63.2461 28.2789 63.2461H34.9424Z" fill="white"/>
<path d="M34.9426 76.4064H28.2791C27.696 76.4064 27.2217 75.9321 27.2217 75.349V63.9012C27.2217 63.3181 27.696 62.8438 28.2791 62.8438H34.9426C35.5257 62.8438 36.0001 63.3181 36.0001 63.9012V75.349C36.0001 75.9321 35.5257 76.4064 34.9426 76.4064ZM28.2797 63.6473C28.14 63.6473 28.0258 63.7609 28.0258 63.9006V75.3484C28.0258 75.4881 28.1394 75.6017 28.2797 75.6017H34.9432C35.0829 75.6017 35.1971 75.4881 35.1971 75.3484V63.9012C35.1971 63.7639 35.0811 63.6479 34.9432 63.6479H28.2797V63.6473Z" fill="#545859"/>
<path d="M32.472 72.7207H31.6685V75.0099H32.472V72.7207Z" fill="#545859"/>
<path d="M34.1185 70.9531H33.3149V75.0104H34.1185V70.9531Z" fill="#545859"/>
<path d="M32.472 69.8555H31.6685V72.1447H32.472V69.8555Z" fill="#545859"/>
<path d="M32.472 66.9883H31.6685V69.2775H32.472V66.9883Z" fill="#545859"/>
<path d="M32.472 64.123H31.6685V66.4122H32.472V64.123Z" fill="#545859"/>
<path d="M30.2834 66.0893C30.6757 65.6969 30.6757 65.0609 30.2834 64.6686C29.8911 64.2762 29.255 64.2762 28.8627 64.6686C28.4704 65.0609 28.4704 65.6969 28.8627 66.0893C29.255 66.4816 29.8911 66.4816 30.2834 66.0893Z" fill="#FFD100"/>
<path d="M30.2834 67.4291C30.6757 67.0368 30.6757 66.4007 30.2834 66.0084C29.8911 65.6161 29.255 65.6161 28.8627 66.0084C28.4704 66.4007 28.4704 67.0368 28.8627 67.4291C29.255 67.8214 29.8911 67.8214 30.2834 67.4291Z" fill="#FFE67D"/>
<path d="M31.9268 80.7279C31.962 80.4072 31.9809 80.075 31.9809 79.7343C31.9809 78.0962 31.6292 76.8353 30.9696 75.9394V71.514C30.9696 70.9917 30.5462 70.5684 30.0239 70.5684H29.6455C29.1232 70.5684 28.6992 70.9917 28.6992 71.514V77.0642" fill="#FFD100"/>
<path d="M26.1172 84.0566V81.9004H34.7589V84.0566" fill="#FFE67D"/>
<path d="M22.0142 69.0752V66.2424C22.0142 65.5482 22.5766 64.9863 23.2708 64.9863C23.9651 64.9863 24.5275 65.5482 24.5275 66.2424V69.0746H22.0142V69.0752Z" fill="#FFD100"/>
<path d="M22.014 66.243V80.2904H22.0104L22.014 80.5006C22.014 81.145 21.5251 81.6752 20.9001 81.7475C20.5581 81.7475 9.76386 81.7451 9.20508 81.7475C9.83007 81.6752 10.3154 81.145 10.3154 80.5006V80.2139H10.3202V66.243C10.3202 65.598 10.8049 65.0678 11.4305 64.9961C11.7725 64.9961 22.5661 64.9985 23.1249 64.9961C22.4999 65.0684 22.014 65.5986 22.014 66.243Z" fill="white"/>
<path d="M20.9226 82.1403H20.2211C13.2314 82.139 9.5258 82.139 9.20693 82.1403L9.16016 81.358C9.59504 81.3075 9.92362 80.9389 9.92362 80.5003L9.92849 66.2428C9.92849 65.4059 10.5547 64.7019 11.3856 64.6059L11.4305 64.6035H12.1084C19.098 64.6047 22.8036 64.6047 23.1225 64.6035L23.1693 65.3858C22.7338 65.4362 22.4058 65.8049 22.4058 66.2434V80.6832H22.3949C22.3092 81.4412 21.714 82.0485 20.9444 82.1378L20.9226 82.1403ZM12.3823 81.3543C14.2159 81.3543 16.8325 81.3549 20.2217 81.3555H20.8758C21.3028 81.296 21.6223 80.9322 21.6223 80.5009L21.6113 79.8984H21.6223V66.2428C21.6223 65.9318 21.7091 65.6385 21.8604 65.3889C20.1986 65.3889 16.937 65.3889 12.109 65.3882H11.4554C11.0309 65.4472 10.7132 65.8116 10.7132 66.2434V80.6066H10.7053C10.6883 80.8781 10.6045 81.1332 10.4703 81.3549C10.9653 81.3543 11.603 81.3543 12.3823 81.3543Z" fill="#545859"/>
<path d="M19.6944 79.8691V80.5008C19.6944 81.1452 20.1797 81.6755 20.8047 81.7478C20.2465 81.7453 9.45223 81.7478 9.11028 81.7478C8.48529 81.6755 8 81.1452 8 80.5008V79.8691H19.6944V79.8691Z" fill="#FFD100"/>
<path d="M24.9191 69.6258H24.1344V66.2422C24.1344 65.766 23.7469 65.3785 23.2701 65.3785C22.7939 65.3785 22.4058 65.766 22.4058 66.2422H21.6211C21.6211 65.3329 22.3609 64.5938 23.2695 64.5938C24.1787 64.5938 24.9185 65.3335 24.9185 66.2422V69.6258H24.9191Z" fill="#545859"/>
<path d="M20.8777 82.1404C20.0383 82.1404 19.3027 81.3745 19.3027 80.5011V79.4844H20.0875V80.5011C20.0875 80.9324 20.4792 81.3557 20.8783 81.3557V82.1404H20.8777Z" fill="#545859"/>
<path d="M20.4087 67.2246H14.0361V68.0093H20.4087V67.2246Z" fill="#545859"/>
<path d="M20.4087 68.6836H14.0361V69.4683H20.4087V68.6836Z" fill="#545859"/>
<path d="M13.2607 67.2305H11.8467V68.6444H13.2607V67.2305Z" fill="#FFE67D"/>
<path d="M15.2643 71.1895H14.0361V71.9742H15.2643V71.1895Z" fill="#545859"/>
<path d="M15.2643 72.6484H14.0361V73.4332H15.2643V72.6484Z" fill="#545859"/>
<path d="M13.2607 71.1895H11.8467V72.6034H13.2607V71.1895Z" fill="#FFE67D"/>
<path d="M15.2643 75.1133H14.0361V75.898H15.2643V75.1133Z" fill="#545859"/>
<path d="M15.2643 76.5723H14.0361V77.357H15.2643V76.5723Z" fill="#545859"/>
<path d="M13.2607 75.1133H11.8467V76.5273H13.2607V75.1133Z" fill="#FFE67D"/>
<path d="M26.3899 84.6431C26.3899 84.7324 26.3176 84.8052 26.2283 84.8052H16.4052C16.3159 84.8052 16.2437 84.7324 16.2437 84.6431V71.0294C16.2437 70.9401 16.3159 70.8672 16.4052 70.8672H26.2283C26.3176 70.8672 26.3899 70.9401 26.3899 71.0294V84.6431Z" fill="white"/>
<path d="M26.2285 85.1968H16.4054C16.0999 85.1968 15.8521 84.9484 15.8521 84.6422V71.0285C15.8521 70.723 16.1005 70.4746 16.4054 70.4746H26.2285C26.534 70.4746 26.7824 70.723 26.7824 71.0285V84.6422C26.7824 84.9484 26.534 85.1968 26.2285 85.1968ZM16.6362 84.412H25.9977V71.2593H16.6362V84.412Z" fill="#545859"/>
<path d="M26.3899 72.6641V83.4911C26.3899 83.581 26.3176 83.6533 26.2283 83.6533H16.4052C16.3159 83.6533 16.2437 83.581 16.2437 83.4911V72.6641" fill="white"/>
<path d="M26.2285 84.045H16.4054C16.0999 84.045 15.8521 83.7966 15.8521 83.4905V72.6641H16.6368V83.2609H25.9983V72.6641H26.783V83.4911C26.7824 83.7966 26.534 84.045 26.2285 84.045Z" fill="#545859"/>
<path d="M25.0001 72.9336H17.6333V74.6998H25.0001V72.9336Z" fill="#FFE67D"/>
<path d="M19.0309 75.918H17.6157V76.7027H19.0309V75.918Z" fill="#545859"/>
<path d="M21.0265 75.918H19.6113V76.7027H21.0265V75.918Z" fill="#545859"/>
<path d="M23.0221 75.918H21.6069V76.7027H23.0221V75.918Z" fill="#545859"/>
<path d="M25.0177 75.918H23.6025V76.7027H25.0177V75.918Z" fill="#545859"/>
<path d="M19.0309 77.3008H17.6157V78.0855H19.0309V77.3008Z" fill="#545859"/>
<path d="M21.0265 77.3008H19.6113V78.0855H21.0265V77.3008Z" fill="#545859"/>
<path d="M23.0221 77.3008H21.6069V78.0855H23.0221V77.3008Z" fill="#545859"/>
<path d="M25.0177 77.3008H23.6025V78.0855H25.0177V77.3008Z" fill="#545859"/>
<path d="M19.0309 78.6836H17.6157V79.4683H19.0309V78.6836Z" fill="#545859"/>
<path d="M21.0265 78.6836H19.6113V79.4683H21.0265V78.6836Z" fill="#545859"/>
<path d="M23.0221 78.6836H21.6069V79.4683H23.0221V78.6836Z" fill="#545859"/>
<path d="M25.0177 78.6836H23.6025V79.4683H25.0177V78.6836Z" fill="#545859"/>
<path d="M19.0309 80.0664H17.6157V80.8511H19.0309V80.0664Z" fill="#545859"/>
<path d="M21.0265 80.0664H19.6113V80.8511H21.0265V80.0664Z" fill="#545859"/>
<path d="M23.0221 80.0664H21.6069V80.8511H23.0221V80.0664Z" fill="#545859"/>
<path d="M25.0177 80.0664H23.6025V80.8511H25.0177V80.0664Z" fill="#545859"/>
<path d="M19.0309 81.4473H17.6157V82.232H19.0309V81.4473Z" fill="#545859"/>
<path d="M21.0265 81.4473H19.6113V82.232H21.0265V81.4473Z" fill="#545859"/>
<path d="M23.0221 81.4473H21.6069V82.232H23.0221V81.4473Z" fill="#545859"/>
<path d="M25.0177 81.4473H23.6025V82.232H25.0177V81.4473Z" fill="#545859"/>
<path d="M62.032 76.904C62.032 77.352 62.048 77.672 62.08 77.864C62.112 78.056 62.2027 78.152 62.352 78.152C62.384 78.152 62.4213 78.136 62.464 78.104C62.5173 78.0613 62.5707 78.024 62.624 77.992C62.688 77.96 62.7573 77.9387 62.832 77.928C62.9173 77.9067 63.008 77.9173 63.104 77.96C63.2213 78.0133 63.2907 78.104 63.312 78.232C63.344 78.3493 63.3173 78.472 63.232 78.6C63.1787 78.6853 63.104 78.76 63.008 78.824C62.912 78.8773 62.8107 78.92 62.704 78.952C62.608 78.984 62.512 79.0053 62.416 79.016C62.32 79.0267 62.2507 79.032 62.208 79.032C61.9307 79.032 61.712 78.984 61.552 78.888C61.4027 78.7813 61.2907 78.6373 61.216 78.456C61.1413 78.264 61.0933 78.04 61.072 77.784C61.0507 77.528 61.04 77.2453 61.04 76.936V72.6C61.04 72.4613 61.0827 72.3493 61.168 72.264C61.2533 72.1787 61.376 72.136 61.536 72.136C61.696 72.136 61.8187 72.1787 61.904 72.264C61.9893 72.3493 62.032 72.4613 62.032 72.6V76.904ZM65.0844 76.28C65.0844 76.888 65.2444 77.352 65.5644 77.672C65.8844 77.9813 66.3377 78.1467 66.9244 78.168C67.1484 78.168 67.367 78.136 67.5804 78.072C67.7937 77.9973 67.9857 77.8853 68.1564 77.736C68.327 77.5867 68.4604 77.3893 68.5564 77.144C68.663 76.8987 68.7164 76.5893 68.7164 76.216V75.624C68.7164 75.3893 68.6844 75.1867 68.6204 75.016C68.5564 74.8347 68.471 74.6853 68.3644 74.568C68.2684 74.44 68.151 74.3333 68.0124 74.248C67.8844 74.152 67.7564 74.0667 67.6284 73.992C67.5857 73.9707 67.5377 73.928 67.4844 73.864C67.431 73.8 67.4044 73.7307 67.4044 73.656C67.4044 73.592 67.4204 73.528 67.4524 73.464C67.4844 73.3893 67.527 73.3413 67.5804 73.32C67.7937 73.2133 68.0177 73.064 68.2524 72.872C68.4977 72.68 68.7217 72.4613 68.9244 72.216C68.9777 72.152 69.063 72.12 69.1804 72.12C69.2977 72.1093 69.399 72.1413 69.4844 72.216C69.5697 72.2907 69.623 72.3813 69.6444 72.488C69.6764 72.584 69.6657 72.664 69.6124 72.728C69.463 72.92 69.287 73.1013 69.0844 73.272C68.8924 73.432 68.679 73.5653 68.4444 73.672C68.8497 73.8853 69.159 74.184 69.3724 74.568C69.5857 74.9413 69.6924 75.304 69.6924 75.656V76.328C69.6924 77.1813 69.4417 77.8373 68.9404 78.296C68.4497 78.7547 67.7724 78.9893 66.9084 79C66.0444 79 65.3617 78.76 64.8604 78.28C64.3697 77.7893 64.1244 77.1067 64.1244 76.232V76.008C64.1244 75.496 64.247 75.0373 64.4924 74.632C64.7377 74.2267 65.0844 73.88 65.5324 73.592C65.639 73.4853 65.671 73.3627 65.6284 73.224C65.5857 73.0747 65.4577 73 65.2444 73H64.6204C64.343 73 64.2044 72.8667 64.2044 72.6C64.2044 72.3333 64.343 72.2 64.6204 72.2H65.2924C65.3564 72.2 65.4524 72.2107 65.5804 72.232C65.719 72.2533 65.8524 72.296 65.9804 72.36C66.119 72.424 66.2364 72.52 66.3324 72.648C66.439 72.776 66.4924 72.952 66.4924 73.176C66.4924 73.5173 66.4177 73.7787 66.2684 73.96C66.119 74.1307 65.9537 74.296 65.7724 74.456C65.6017 74.616 65.4417 74.808 65.2924 75.032C65.1537 75.256 65.0844 75.592 65.0844 76.04V76.28ZM66.356 69.096C66.1747 69.096 66.004 69.1333 65.844 69.208C65.684 69.272 65.604 69.432 65.604 69.688C65.604 70.0933 65.7853 70.296 66.148 70.296C66.2867 70.296 66.404 70.2587 66.5 70.184C66.596 70.1093 66.6813 70.024 66.756 69.928C66.7987 69.8747 66.8573 69.8373 66.932 69.816C67.0067 69.784 67.0653 69.768 67.108 69.768C67.236 69.768 67.348 69.816 67.444 69.912C67.508 70.008 67.588 70.0987 67.684 70.184C67.78 70.2587 67.8867 70.3013 68.004 70.312C68.0787 70.3227 68.1533 70.3067 68.228 70.264C68.3027 70.2107 68.356 70.168 68.388 70.136C68.4733 70.0507 68.5747 70.008 68.692 70.008C68.7987 70.008 68.8947 70.0507 68.98 70.136C69.0547 70.2213 69.0813 70.328 69.06 70.456C69.0387 70.584 68.9853 70.6907 68.9 70.776C68.8573 70.8187 68.7667 70.888 68.628 70.984C68.4893 71.0693 68.2813 71.112 68.004 71.112C67.7907 71.112 67.6093 71.064 67.46 70.968C67.3107 70.8613 67.1933 70.7547 67.108 70.648C67.0227 70.7547 66.9 70.8613 66.74 70.968C66.5693 71.064 66.372 71.112 66.148 71.112C65.636 71.112 65.268 70.9787 65.044 70.712C64.8093 70.4347 64.692 70.0933 64.692 69.688C64.692 69.272 64.8253 68.9307 65.092 68.664C65.3587 68.3973 65.764 68.264 66.308 68.264H67.668C67.7533 68.264 67.8493 68.264 67.956 68.264C68.052 68.264 68.1427 68.248 68.228 68.216C68.3133 68.184 68.388 68.1307 68.452 68.056C68.5053 67.9707 68.5427 67.848 68.564 67.688C68.5747 67.5707 68.6173 67.4853 68.692 67.432C68.756 67.368 68.836 67.3307 68.932 67.32C69.0493 67.32 69.1453 67.352 69.22 67.416C69.284 67.4693 69.332 67.5387 69.364 67.624C69.396 67.7093 69.412 67.8053 69.412 67.912C69.4013 68.008 69.3907 68.0987 69.38 68.184C69.3373 68.44 69.2467 68.632 69.108 68.76C68.9693 68.888 68.82 68.9787 68.66 69.032C68.4893 69.0747 68.324 69.096 68.164 69.096C68.004 69.096 67.8867 69.096 67.812 69.096H66.356ZM74.196 72.136C74.6013 72.136 74.98 72.1947 75.332 72.312C75.684 72.4293 75.9933 72.6107 76.26 72.856C76.5267 73.1013 76.7347 73.4107 76.884 73.784C77.0333 74.1573 77.108 74.6 77.108 75.112V78.536C77.108 78.6747 77.0653 78.7867 76.98 78.872C76.8947 78.9573 76.772 79 76.612 79C76.452 79 76.3293 78.9573 76.244 78.872C76.1587 78.7867 76.116 78.6747 76.116 78.536V75.272C76.116 74.472 75.94 73.8907 75.588 73.528C75.2467 73.1653 74.7827 72.984 74.196 72.984C73.684 72.984 73.252 73.0693 72.9 73.24C72.548 73.4107 72.2493 73.608 72.004 73.832C72.1533 73.96 72.26 74.184 72.324 74.504C72.388 74.8133 72.42 75.16 72.42 75.544V78.536C72.42 78.6747 72.3773 78.7867 72.292 78.872C72.2067 78.9573 72.084 79 71.924 79C71.7427 79 71.6147 78.952 71.54 78.856C71.4653 78.76 71.428 78.6533 71.428 78.536V75.384C71.428 74.936 71.3853 74.584 71.3 74.328C71.2253 74.072 71.1187 73.864 70.98 73.704C71.0867 73.5333 71.236 73.3573 71.428 73.176C71.6307 72.9947 71.8653 72.8293 72.132 72.68C72.4093 72.52 72.7187 72.392 73.06 72.296C73.4013 72.1893 73.78 72.136 74.196 72.136ZM81.3463 78.168C82.5623 78.168 83.1703 77.5653 83.1703 76.36V72.552C83.1703 72.4347 83.2183 72.3387 83.3143 72.264C83.4103 72.1787 83.5276 72.136 83.6663 72.136C83.8156 72.136 83.9329 72.1787 84.0183 72.264C84.1143 72.3387 84.1623 72.4347 84.1623 72.552V76.36C84.1623 77.288 83.9169 77.9547 83.4263 78.36C82.9463 78.7653 82.2529 78.9787 81.3463 79C80.9729 79 80.6049 78.968 80.2423 78.904C79.8796 78.8293 79.5543 78.7067 79.2663 78.536C78.9783 78.3653 78.7543 78.136 78.5943 77.848C78.4343 77.5493 78.3703 77.176 78.4023 76.728C78.4449 76.3867 78.5569 76.0933 78.7383 75.848C78.9196 75.592 79.1703 75.4053 79.4903 75.288C79.1169 75.192 78.8396 75.0107 78.6583 74.744C78.4876 74.4667 78.4023 74.1893 78.4023 73.912C78.4023 73.2827 78.5783 72.8293 78.9303 72.552C79.2929 72.2747 79.8049 72.136 80.4663 72.136C80.6263 72.136 80.7863 72.1467 80.9463 72.168C81.1063 72.1893 81.2449 72.2267 81.3623 72.28C81.4903 72.3227 81.5809 72.3867 81.6343 72.472C81.6983 72.5467 81.7089 72.648 81.6663 72.776C81.6449 72.8613 81.5916 72.9413 81.5063 73.016C81.4209 73.0907 81.3196 73.1013 81.2023 73.048C81.0209 72.9947 80.8076 72.9627 80.5623 72.952C80.1783 72.9413 79.8849 73.0107 79.6823 73.16C79.4903 73.2987 79.3943 73.5547 79.3943 73.928C79.3943 74.12 79.4369 74.28 79.5223 74.408C79.6183 74.536 79.7356 74.6373 79.8743 74.712C80.0236 74.7867 80.1836 74.84 80.3543 74.872C80.5356 74.904 80.7116 74.92 80.8823 74.92H81.4103C81.5276 74.92 81.6183 74.968 81.6823 75.064C81.7463 75.1493 81.7783 75.2507 81.7783 75.368C81.7783 75.464 81.7356 75.5387 81.6503 75.592C81.5756 75.6347 81.4743 75.672 81.3463 75.704C81.2289 75.7253 81.1009 75.736 80.9623 75.736C80.8343 75.736 80.7169 75.736 80.6103 75.736C80.1836 75.736 79.8689 75.8533 79.6663 76.088C79.4636 76.312 79.3729 76.6267 79.3943 77.032C79.4156 77.2773 79.4849 77.4747 79.6023 77.624C79.7303 77.7733 79.8849 77.8907 80.0663 77.976C80.2583 78.0507 80.4663 78.104 80.6903 78.136C80.9143 78.1573 81.1329 78.168 81.3463 78.168ZM88.5208 72.136C89.0648 72.136 89.5341 72.2213 89.9288 72.392C90.3341 72.552 90.6701 72.7813 90.9368 73.08C91.2034 73.3787 91.4008 73.7413 91.5288 74.168C91.6568 74.584 91.7208 75.0533 91.7208 75.576C91.7208 76.0347 91.6674 76.472 91.5608 76.888C91.4648 77.304 91.2994 77.672 91.0648 77.992C90.8301 78.3013 90.5154 78.552 90.1208 78.744C89.7368 78.9253 89.2621 79.016 88.6968 79.016C88.1528 79.016 87.6781 78.936 87.2728 78.776C86.8674 78.616 86.5421 78.3867 86.2968 78.088C86.0514 77.7893 85.8808 77.4373 85.7848 77.032C85.6888 76.616 85.6728 76.1573 85.7368 75.656C85.7474 75.5707 85.7848 75.4907 85.8488 75.416C85.9234 75.3413 86.0354 75.304 86.1848 75.304H88.2808C88.3981 75.304 88.4888 75.3413 88.5528 75.416C88.6168 75.48 88.6488 75.5707 88.6488 75.688C88.6488 75.9547 88.5261 76.088 88.2808 76.088H86.6488C86.6061 76.76 86.7608 77.2773 87.1128 77.64C87.4648 77.992 87.9928 78.168 88.6968 78.168C89.4008 78.168 89.9128 77.944 90.2328 77.496C90.5634 77.048 90.7394 76.4133 90.7608 75.592C90.7501 74.8027 90.5688 74.1733 90.2168 73.704C89.8754 73.224 89.3101 72.984 88.5208 72.984C88.1048 72.984 87.7154 73.0533 87.3528 73.192C87.0008 73.3307 86.6488 73.5173 86.2968 73.752C86.2114 73.7947 86.1208 73.8053 86.0247 73.784C85.9394 73.7627 85.8701 73.7147 85.8168 73.64C85.6888 73.4587 85.6941 73.288 85.8328 73.128C85.9928 72.9573 86.1794 72.808 86.3928 72.68C86.6061 72.552 86.8301 72.4507 87.0648 72.376C87.2994 72.2907 87.5394 72.232 87.7848 72.2C88.0408 72.1573 88.2861 72.136 88.5208 72.136ZM95.3853 75.976C95.2573 75.976 95.1506 75.9387 95.0653 75.864C94.9906 75.7787 94.9533 75.6773 94.9533 75.56C94.9533 75.4427 94.9906 75.3467 95.0653 75.272C95.1506 75.1867 95.2573 75.144 95.3853 75.144H96.0413C96.2759 75.144 96.4626 75.2133 96.6013 75.352C96.7399 75.48 96.8466 75.6347 96.9213 75.816C96.9959 75.9973 97.0439 76.184 97.0653 76.376C97.0866 76.5573 97.0973 76.696 97.0973 76.792C97.0973 78.264 96.5053 79 95.3213 79H95.3053C94.4519 79 93.8386 78.7013 93.4653 78.104C93.1026 77.5067 92.9213 76.6747 92.9213 75.608C92.9213 74.5307 93.2039 73.6827 93.7693 73.064C94.3453 72.4453 95.1346 72.136 96.1373 72.136C97.0759 72.136 97.8279 72.3653 98.3933 72.824C98.9586 73.272 99.2413 73.9813 99.2413 74.952V78.536C99.2413 78.6747 99.1986 78.7867 99.1133 78.872C99.0279 78.9573 98.9053 79 98.7453 79C98.5853 79 98.4626 78.9573 98.3773 78.872C98.2919 78.7867 98.2493 78.6747 98.2493 78.536V75.08C98.2493 74.4187 98.0893 73.9013 97.7693 73.528C97.4599 73.1547 96.9159 72.968 96.1373 72.968C95.4013 72.968 94.8413 73.208 94.4573 73.688C94.0839 74.168 93.8973 74.808 93.8973 75.608C93.8973 76.376 94.0199 76.9947 94.2653 77.464C94.5213 77.9227 94.8733 78.152 95.3213 78.152C95.5133 78.152 95.6679 78.0987 95.7853 77.992C95.9133 77.8853 96.0093 77.752 96.0733 77.592C96.1479 77.432 96.1906 77.256 96.2013 77.064C96.2226 76.872 96.2173 76.696 96.1853 76.536C96.1533 76.376 96.0999 76.2427 96.0253 76.136C95.9613 76.0293 95.8759 75.976 95.7693 75.976H95.3853ZM106.566 79C106.128 79 105.782 78.9253 105.526 78.776C105.27 78.616 105.067 78.408 104.918 78.152C104.779 77.8853 104.683 77.5813 104.63 77.24C104.576 76.8987 104.534 76.5413 104.502 76.168H104.054C103.808 76.168 103.686 76.0347 103.686 75.768C103.686 75.6507 103.718 75.56 103.782 75.496C103.846 75.4213 103.936 75.384 104.054 75.384H105.094C105.211 75.384 105.296 75.416 105.35 75.48C105.403 75.544 105.43 75.624 105.43 75.72C105.43 75.9973 105.435 76.2853 105.446 76.584C105.467 76.872 105.515 77.1333 105.59 77.368C105.664 77.6027 105.776 77.7947 105.926 77.944C106.086 78.0933 106.304 78.168 106.582 78.168C106.848 78.168 107.062 78.0987 107.222 77.96C107.392 77.8107 107.52 77.6133 107.606 77.368C107.691 77.1227 107.75 76.84 107.782 76.52C107.814 76.1893 107.83 75.8427 107.83 75.48C107.83 75.128 107.814 74.8027 107.782 74.504C107.76 74.1947 107.696 73.928 107.59 73.704C107.483 73.48 107.318 73.304 107.094 73.176C106.87 73.048 106.566 72.984 106.182 72.984C105.766 72.984 105.392 73.0533 105.062 73.192C104.742 73.32 104.448 73.5013 104.182 73.736C104.096 73.7893 103.99 73.8107 103.862 73.8C103.734 73.7893 103.638 73.736 103.574 73.64C103.488 73.5333 103.462 73.4213 103.494 73.304C103.526 73.1867 103.59 73.096 103.686 73.032C104.059 72.7227 104.443 72.4933 104.838 72.344C105.243 72.1947 105.691 72.12 106.182 72.12C106.704 72.12 107.131 72.1947 107.462 72.344C107.803 72.4827 108.07 72.6907 108.262 72.968C108.464 73.2453 108.603 73.592 108.678 74.008C108.763 74.4133 108.806 74.8827 108.806 75.416C108.806 75.8533 108.774 76.2907 108.71 76.728C108.656 77.1547 108.55 77.5387 108.39 77.88C108.23 78.2107 108 78.4827 107.702 78.696C107.414 78.8987 107.035 79 106.566 79ZM108.141 71C108.024 71 107.912 70.9627 107.805 70.888C107.698 70.8027 107.645 70.7013 107.645 70.584V69C107.645 68.8827 107.698 68.7867 107.805 68.712C107.912 68.6267 108.024 68.584 108.141 68.584C108.28 68.584 108.402 68.6267 108.509 68.712C108.605 68.7867 108.653 68.8827 108.653 69V70.584C108.653 70.7013 108.605 70.8027 108.509 70.888C108.402 70.9627 108.28 71 108.141 71ZM110.973 73.992C110.973 74.1093 110.925 74.2107 110.829 74.296C110.733 74.3813 110.621 74.424 110.493 74.424C110.344 74.424 110.226 74.3867 110.141 74.312C110.056 74.2373 110.013 74.1627 110.013 74.088C110.013 73.8107 110.082 73.5547 110.221 73.32C110.37 73.0853 110.557 72.8827 110.781 72.712C111.016 72.5307 111.282 72.392 111.581 72.296C111.88 72.1893 112.184 72.136 112.493 72.136C113.357 72.136 113.981 72.376 114.365 72.856C114.749 73.3253 114.941 73.9707 114.941 74.792V78.472C114.941 78.824 114.776 79 114.445 79C114.125 79 113.965 78.824 113.965 78.472V74.92C113.965 74.4933 113.922 74.152 113.837 73.896C113.752 73.64 113.64 73.448 113.501 73.32C113.362 73.1813 113.202 73.0907 113.021 73.048C112.85 72.9947 112.674 72.968 112.493 72.968C112.216 72.968 111.981 73.0107 111.789 73.096C111.597 73.1813 111.437 73.2827 111.309 73.4C111.192 73.5067 111.106 73.6187 111.053 73.736C111 73.8427 110.973 73.928 110.973 73.992ZM119.19 78.168C120.406 78.168 121.014 77.5653 121.014 76.36V72.552C121.014 72.4347 121.062 72.3387 121.158 72.264C121.254 72.1787 121.371 72.136 121.51 72.136C121.659 72.136 121.777 72.1787 121.862 72.264C121.958 72.3387 122.006 72.4347 122.006 72.552V76.36C122.006 77.288 121.761 77.9547 121.27 78.36C120.79 78.7653 120.097 78.9787 119.19 79C118.817 79 118.449 78.968 118.086 78.904C117.723 78.8293 117.398 78.7067 117.11 78.536C116.822 78.3653 116.598 78.136 116.438 77.848C116.278 77.5493 116.214 77.176 116.246 76.728C116.289 76.3867 116.401 76.0933 116.582 75.848C116.763 75.592 117.014 75.4053 117.334 75.288C116.961 75.192 116.683 75.0107 116.502 74.744C116.331 74.4667 116.246 74.1893 116.246 73.912C116.246 73.2827 116.422 72.8293 116.774 72.552C117.137 72.2747 117.649 72.136 118.31 72.136C118.47 72.136 118.63 72.1467 118.79 72.168C118.95 72.1893 119.089 72.2267 119.206 72.28C119.334 72.3227 119.425 72.3867 119.478 72.472C119.542 72.5467 119.553 72.648 119.51 72.776C119.489 72.8613 119.435 72.9413 119.35 73.016C119.265 73.0907 119.163 73.1013 119.046 73.048C118.865 72.9947 118.651 72.9627 118.406 72.952C118.022 72.9413 117.729 73.0107 117.526 73.16C117.334 73.2987 117.238 73.5547 117.238 73.928C117.238 74.12 117.281 74.28 117.366 74.408C117.462 74.536 117.579 74.6373 117.718 74.712C117.867 74.7867 118.027 74.84 118.198 74.872C118.379 74.904 118.555 74.92 118.726 74.92H119.254C119.371 74.92 119.462 74.968 119.526 75.064C119.59 75.1493 119.622 75.2507 119.622 75.368C119.622 75.464 119.579 75.5387 119.494 75.592C119.419 75.6347 119.318 75.672 119.19 75.704C119.073 75.7253 118.945 75.736 118.806 75.736C118.678 75.736 118.561 75.736 118.454 75.736C118.027 75.736 117.713 75.8533 117.51 76.088C117.307 76.312 117.217 76.6267 117.238 77.032C117.259 77.2773 117.329 77.4747 117.446 77.624C117.574 77.7733 117.729 77.8907 117.91 77.976C118.102 78.0507 118.31 78.104 118.534 78.136C118.758 78.1573 118.977 78.168 119.19 78.168ZM129.085 72.136C129.223 72.136 129.341 72.1787 129.437 72.264C129.533 72.3387 129.581 72.4347 129.581 72.552V76.312C129.581 76.76 129.506 77.1547 129.357 77.496C129.207 77.8267 128.999 78.104 128.733 78.328C128.466 78.552 128.151 78.7227 127.789 78.84C127.426 78.9467 127.031 79 126.605 79C126.199 79 125.815 78.9467 125.453 78.84C125.09 78.7227 124.77 78.552 124.493 78.328C124.226 78.104 124.013 77.8267 123.853 77.496C123.693 77.1547 123.613 76.76 123.613 76.312V72.552C123.613 72.4347 123.661 72.3387 123.757 72.264C123.853 72.1787 123.97 72.136 124.109 72.136C124.237 72.136 124.349 72.1787 124.445 72.264C124.551 72.3387 124.605 72.4347 124.605 72.552V76.312C124.605 76.7067 124.674 77.0267 124.812 77.272C124.951 77.5067 125.122 77.6933 125.325 77.832C125.527 77.96 125.741 78.0507 125.965 78.104C126.199 78.1467 126.413 78.168 126.605 78.168C126.786 78.168 126.989 78.1467 127.213 78.104C127.447 78.0507 127.666 77.96 127.869 77.832C128.071 77.6933 128.242 77.5067 128.381 77.272C128.519 77.0267 128.589 76.7067 128.589 76.312V72.552C128.589 72.4347 128.631 72.3387 128.717 72.264C128.813 72.1787 128.935 72.136 129.085 72.136ZM129.223 70.216C129.34 70.2267 129.431 70.2747 129.495 70.36C129.548 70.4347 129.575 70.5253 129.575 70.632C129.554 70.8773 129.41 71 129.143 71H124.199C123.932 71 123.788 70.8773 123.767 70.632C123.767 70.5253 123.799 70.4347 123.863 70.36C123.916 70.2747 124.002 70.2267 124.119 70.216H129.223ZM134.055 72.136C135.111 72.136 135.868 72.4027 136.327 72.936C136.796 73.4587 137.031 74.2373 137.031 75.272V78.536C137.031 78.6747 136.988 78.7867 136.903 78.872C136.818 78.9573 136.695 79 136.535 79C136.375 79 136.252 78.9573 136.167 78.872C136.082 78.7867 136.039 78.6747 136.039 78.536V76.536C135.943 76.408 135.804 76.2907 135.623 76.184C135.442 76.0667 135.244 75.9707 135.031 75.896C134.818 75.8213 134.594 75.7627 134.359 75.72C134.124 75.6773 133.895 75.656 133.671 75.656C133.426 75.656 133.202 75.6827 132.999 75.736C132.796 75.7893 132.62 75.88 132.471 76.008C132.332 76.1253 132.226 76.2853 132.151 76.488C132.076 76.68 132.055 76.92 132.087 77.208C132.119 77.4853 132.22 77.6987 132.391 77.848C132.572 77.9867 132.786 78.0827 133.031 78.136C133.308 78.1893 133.602 78.1787 133.911 78.104C134.028 78.0827 134.13 78.0933 134.215 78.136C134.311 78.168 134.375 78.2587 134.407 78.408C134.439 78.5253 134.434 78.6213 134.391 78.696C134.348 78.76 134.284 78.8187 134.199 78.872C134.124 78.9147 134.028 78.9467 133.911 78.968C133.804 78.9893 133.698 79 133.591 79C133.506 79 133.415 79 133.319 79C133.234 79 133.148 78.9947 133.063 78.984C132.476 78.952 131.991 78.76 131.607 78.408C131.223 78.0453 131.058 77.512 131.111 76.808C131.143 76.136 131.372 75.6347 131.799 75.304C132.226 74.9733 132.823 74.808 133.591 74.808C134.071 74.808 134.508 74.8613 134.903 74.968C135.298 75.0747 135.682 75.256 136.055 75.512C136.055 75.128 136.028 74.7867 135.975 74.488C135.922 74.1787 135.82 73.9173 135.671 73.704C135.532 73.48 135.33 73.3147 135.063 73.208C134.807 73.0907 134.471 73.032 134.055 73.032C133.586 73.032 133.18 73.096 132.839 73.224C132.498 73.3413 132.188 73.4907 131.911 73.672C131.815 73.7253 131.703 73.736 131.575 73.704C131.458 73.6613 131.372 73.5867 131.319 73.48C131.202 73.288 131.228 73.112 131.399 72.952C131.57 72.792 131.804 72.6533 132.103 72.536C132.412 72.408 132.748 72.312 133.111 72.248C133.474 72.1733 133.788 72.136 134.055 72.136Z" fill="#545859"/>
<defs>
<clipPath id="clip0_2373_366101">
<rect width="28" height="28" fill="white" transform="translate(8 8)"/>
</clipPath>
</defs>
</svg>
