<svg width="325" height="44" viewBox="0 0 325 44" fill="none" xmlns="http://www.w3.org/2000/svg">
<circle cx="22" cy="22" r="22" fill="#FFD100"/>
<circle cx="22" cy="22" r="20" fill="#EFEFEF"/>
<path d="M27.6472 29.3978H33.3869V17.5425C33.1287 17.1592 31.456 17.1726 31.2246 17.5734L26.2599 22.4081C26.0285 22.8084 26.187 23.089 26.3091 23.8276L27.6472 29.3978Z" fill="#FFD100"/>
<path d="M34.9424 11.2461C35.3032 11.2461 35.5978 11.5407 35.5978 11.9015V23.3493C35.5978 23.71 35.3032 24.0046 34.9424 24.0046H28.2789C27.9181 24.0046 27.6235 23.71 27.6235 23.3493V11.9015C27.6235 11.5413 27.9181 11.2461 28.2789 11.2461H34.9424Z" fill="white"/>
<path d="M34.9426 24.4064H28.2791C27.696 24.4064 27.2217 23.9321 27.2217 23.349V11.9012C27.2217 11.3181 27.696 10.8438 28.2791 10.8438H34.9426C35.5257 10.8438 36.0001 11.3181 36.0001 11.9012V23.349C36.0001 23.9321 35.5257 24.4064 34.9426 24.4064ZM28.2797 11.6473C28.14 11.6473 28.0258 11.7609 28.0258 11.9006V23.3484C28.0258 23.4881 28.1394 23.6017 28.2797 23.6017H34.9432C35.0829 23.6017 35.1971 23.4881 35.1971 23.3484V11.9012C35.1971 11.7639 35.0811 11.6479 34.9432 11.6479H28.2797V11.6473Z" fill="#545859"/>
<path d="M32.472 20.7207H31.6685V23.0099H32.472V20.7207Z" fill="#545859"/>
<path d="M34.1185 18.9531H33.3149V23.0104H34.1185V18.9531Z" fill="#545859"/>
<path d="M32.472 17.8555H31.6685V20.1447H32.472V17.8555Z" fill="#545859"/>
<path d="M32.472 14.9883H31.6685V17.2775H32.472V14.9883Z" fill="#545859"/>
<path d="M32.472 12.123H31.6685V14.4122H32.472V12.123Z" fill="#545859"/>
<path d="M30.2834 14.0893C30.6757 13.6969 30.6757 13.0609 30.2834 12.6686C29.8911 12.2762 29.255 12.2762 28.8627 12.6686C28.4704 13.0609 28.4704 13.6969 28.8627 14.0893C29.255 14.4816 29.8911 14.4816 30.2834 14.0893Z" fill="#FFD100"/>
<path d="M30.2834 15.4291C30.6757 15.0368 30.6757 14.4007 30.2834 14.0084C29.8911 13.6161 29.255 13.6161 28.8627 14.0084C28.4704 14.4007 28.4704 15.0368 28.8627 15.4291C29.255 15.8214 29.8911 15.8214 30.2834 15.4291Z" fill="#FFE67D"/>
<path d="M31.9268 28.7279C31.962 28.4072 31.9809 28.075 31.9809 27.7343C31.9809 26.0962 31.6292 24.8353 30.9696 23.9394V19.514C30.9696 18.9917 30.5462 18.5684 30.0239 18.5684H29.6455C29.1232 18.5684 28.6992 18.9917 28.6992 19.514V25.0642" fill="#FFD100"/>
<path d="M26.1172 32.0566V29.9004H34.7589V32.0566" fill="#FFE67D"/>
<path d="M22.0142 17.0752V14.2424C22.0142 13.5482 22.5766 12.9863 23.2708 12.9863C23.9651 12.9863 24.5275 13.5482 24.5275 14.2424V17.0746H22.0142V17.0752Z" fill="#FFD100"/>
<path d="M22.014 14.243V28.2904H22.0104L22.014 28.5006C22.014 29.145 21.5251 29.6752 20.9001 29.7475C20.5581 29.7475 9.76386 29.7451 9.20508 29.7475C9.83007 29.6752 10.3154 29.145 10.3154 28.5006V28.2139H10.3202V14.243C10.3202 13.598 10.8049 13.0678 11.4305 12.9961C11.7725 12.9961 22.5661 12.9985 23.1249 12.9961C22.4999 13.0684 22.014 13.5986 22.014 14.243Z" fill="white"/>
<path d="M20.9226 30.1403H20.2211C13.2314 30.139 9.5258 30.139 9.20693 30.1403L9.16016 29.358C9.59504 29.3075 9.92362 28.9389 9.92362 28.5003L9.92849 14.2428C9.92849 13.4059 10.5547 12.7019 11.3856 12.6059L11.4305 12.6035H12.1084C19.098 12.6047 22.8036 12.6047 23.1225 12.6035L23.1693 13.3858C22.7338 13.4362 22.4058 13.8049 22.4058 14.2434V28.6832H22.3949C22.3092 29.4412 21.714 30.0485 20.9444 30.1378L20.9226 30.1403ZM12.3823 29.3543C14.2159 29.3543 16.8325 29.3549 20.2217 29.3555H20.8758C21.3028 29.296 21.6223 28.9322 21.6223 28.5009L21.6113 27.8984H21.6223V14.2428C21.6223 13.9318 21.7091 13.6385 21.8604 13.3889C20.1986 13.3889 16.937 13.3889 12.109 13.3882H11.4554C11.0309 13.4472 10.7132 13.8116 10.7132 14.2434V28.6066H10.7053C10.6883 28.8781 10.6045 29.1332 10.4703 29.3549C10.9653 29.3543 11.603 29.3543 12.3823 29.3543Z" fill="#545859"/>
<path d="M19.6944 27.8691V28.5008C19.6944 29.1452 20.1797 29.6755 20.8047 29.7478C20.2465 29.7453 9.45223 29.7478 9.11028 29.7478C8.48529 29.6755 8 29.1452 8 28.5008V27.8691H19.6944Z" fill="#FFD100"/>
<path d="M24.9191 17.6258H24.1344V14.2422C24.1344 13.766 23.7469 13.3785 23.2701 13.3785C22.7939 13.3785 22.4058 13.766 22.4058 14.2422H21.6211C21.6211 13.3329 22.3609 12.5938 23.2695 12.5938C24.1787 12.5938 24.9185 13.3335 24.9185 14.2422V17.6258H24.9191Z" fill="#545859"/>
<path d="M20.8777 30.1404C20.0383 30.1404 19.3027 29.3745 19.3027 28.5011V27.4844H20.0875V28.5011C20.0875 28.9324 20.4792 29.3557 20.8783 29.3557V30.1404H20.8777Z" fill="#545859"/>
<path d="M20.4087 15.2246H14.0361V16.0093H20.4087V15.2246Z" fill="#545859"/>
<path d="M20.4087 16.6836H14.0361V17.4683H20.4087V16.6836Z" fill="#545859"/>
<path d="M13.2607 15.2305H11.8467V16.6444H13.2607V15.2305Z" fill="#FFE67D"/>
<path d="M15.2643 19.1895H14.0361V19.9742H15.2643V19.1895Z" fill="#545859"/>
<path d="M15.2643 20.6484H14.0361V21.4332H15.2643V20.6484Z" fill="#545859"/>
<path d="M13.2607 19.1895H11.8467V20.6034H13.2607V19.1895Z" fill="#FFE67D"/>
<path d="M15.2643 23.1133H14.0361V23.898H15.2643V23.1133Z" fill="#545859"/>
<path d="M15.2643 24.5723H14.0361V25.357H15.2643V24.5723Z" fill="#545859"/>
<path d="M13.2607 23.1133H11.8467V24.5273H13.2607V23.1133Z" fill="#FFE67D"/>
<path d="M26.3899 32.6431C26.3899 32.7324 26.3176 32.8053 26.2283 32.8053H16.4052C16.3159 32.8053 16.2437 32.7324 16.2437 32.6431V19.0294C16.2437 18.9401 16.3159 18.8672 16.4052 18.8672H26.2283C26.3176 18.8672 26.3899 18.9401 26.3899 19.0294V32.6431Z" fill="white"/>
<path d="M26.2285 33.1968H16.4054C16.0999 33.1968 15.8521 32.9484 15.8521 32.6422V19.0285C15.8521 18.723 16.1005 18.4746 16.4054 18.4746H26.2285C26.534 18.4746 26.7824 18.723 26.7824 19.0285V32.6422C26.7824 32.9484 26.534 33.1968 26.2285 33.1968ZM16.6362 32.412H25.9977V19.2593H16.6362V32.412Z" fill="#545859"/>
<path d="M26.3899 20.6641V31.4911C26.3899 31.581 26.3176 31.6533 26.2283 31.6533H16.4052C16.3159 31.6533 16.2437 31.581 16.2437 31.4911V20.6641" fill="white"/>
<path d="M26.2285 32.045H16.4054C16.0999 32.045 15.8521 31.7966 15.8521 31.4905V20.6641H16.6368V31.2609H25.9983V20.6641H26.783V31.4911C26.7824 31.7966 26.534 32.045 26.2285 32.045Z" fill="#545859"/>
<path d="M25.0001 20.9336H17.6333V22.6998H25.0001V20.9336Z" fill="#FFE67D"/>
<path d="M19.0309 23.918H17.6157V24.7027H19.0309V23.918Z" fill="#545859"/>
<path d="M21.0265 23.918H19.6113V24.7027H21.0265V23.918Z" fill="#545859"/>
<path d="M23.0221 23.918H21.6069V24.7027H23.0221V23.918Z" fill="#545859"/>
<path d="M25.0177 23.918H23.6025V24.7027H25.0177V23.918Z" fill="#545859"/>
<path d="M19.0309 25.3008H17.6157V26.0855H19.0309V25.3008Z" fill="#545859"/>
<path d="M21.0265 25.3008H19.6113V26.0855H21.0265V25.3008Z" fill="#545859"/>
<path d="M23.0221 25.3008H21.6069V26.0855H23.0221V25.3008Z" fill="#545859"/>
<path d="M25.0177 25.3008H23.6025V26.0855H25.0177V25.3008Z" fill="#545859"/>
<path d="M19.0309 26.6836H17.6157V27.4683H19.0309V26.6836Z" fill="#545859"/>
<path d="M21.0265 26.6836H19.6113V27.4683H21.0265V26.6836Z" fill="#545859"/>
<path d="M23.0221 26.6836H21.6069V27.4683H23.0221V26.6836Z" fill="#545859"/>
<path d="M25.0177 26.6836H23.6025V27.4683H25.0177V26.6836Z" fill="#545859"/>
<path d="M19.0309 28.0664H17.6157V28.8511H19.0309V28.0664Z" fill="#545859"/>
<path d="M21.0265 28.0664H19.6113V28.8511H21.0265V28.0664Z" fill="#545859"/>
<path d="M23.0221 28.0664H21.6069V28.8511H23.0221V28.0664Z" fill="#545859"/>
<path d="M25.0177 28.0664H23.6025V28.8511H25.0177V28.0664Z" fill="#545859"/>
<path d="M19.0309 29.4473H17.6157V30.232H19.0309V29.4473Z" fill="#545859"/>
<path d="M21.0265 29.4473H19.6113V30.232H21.0265V29.4473Z" fill="#545859"/>
<path d="M23.0221 29.4473H21.6069V30.232H23.0221V29.4473Z" fill="#545859"/>
<path d="M25.0177 29.4473H23.6025V30.232H25.0177V29.4473Z" fill="#545859"/>
<circle cx="22" cy="22" r="22" fill="#FFD100"/>
<circle cx="22" cy="22" r="20" fill="#EFEFEF"/>
<path d="M27.6472 29.3978H33.3869V17.5425C33.1287 17.1592 31.456 17.1726 31.2246 17.5734L26.2599 22.4081C26.0285 22.8084 26.187 23.089 26.3091 23.8276L27.6472 29.3978Z" fill="#FFD100"/>
<path d="M34.9424 11.2461C35.3032 11.2461 35.5978 11.5407 35.5978 11.9015V23.3493C35.5978 23.71 35.3032 24.0046 34.9424 24.0046H28.2789C27.9181 24.0046 27.6235 23.71 27.6235 23.3493V11.9015C27.6235 11.5413 27.9181 11.2461 28.2789 11.2461H34.9424Z" fill="white"/>
<path d="M34.9426 24.4064H28.2791C27.696 24.4064 27.2217 23.9321 27.2217 23.349V11.9012C27.2217 11.3181 27.696 10.8438 28.2791 10.8438H34.9426C35.5257 10.8438 36.0001 11.3181 36.0001 11.9012V23.349C36.0001 23.9321 35.5257 24.4064 34.9426 24.4064ZM28.2797 11.6473C28.14 11.6473 28.0258 11.7609 28.0258 11.9006V23.3484C28.0258 23.4881 28.1394 23.6017 28.2797 23.6017H34.9432C35.0829 23.6017 35.1971 23.4881 35.1971 23.3484V11.9012C35.1971 11.7639 35.0811 11.6479 34.9432 11.6479H28.2797V11.6473Z" fill="#545859"/>
<path d="M32.472 20.7207H31.6685V23.0099H32.472V20.7207Z" fill="#545859"/>
<path d="M34.1185 18.9531H33.3149V23.0104H34.1185V18.9531Z" fill="#545859"/>
<path d="M32.472 17.8555H31.6685V20.1447H32.472V17.8555Z" fill="#545859"/>
<path d="M32.472 14.9883H31.6685V17.2775H32.472V14.9883Z" fill="#545859"/>
<path d="M32.472 12.123H31.6685V14.4122H32.472V12.123Z" fill="#545859"/>
<path d="M30.2834 14.0893C30.6757 13.6969 30.6757 13.0609 30.2834 12.6686C29.8911 12.2762 29.255 12.2762 28.8627 12.6686C28.4704 13.0609 28.4704 13.6969 28.8627 14.0893C29.255 14.4816 29.8911 14.4816 30.2834 14.0893Z" fill="#FFD100"/>
<path d="M30.2834 15.4291C30.6757 15.0368 30.6757 14.4007 30.2834 14.0084C29.8911 13.6161 29.255 13.6161 28.8627 14.0084C28.4704 14.4007 28.4704 15.0368 28.8627 15.4291C29.255 15.8214 29.8911 15.8214 30.2834 15.4291Z" fill="#FFE67D"/>
<path d="M31.9268 28.7279C31.962 28.4072 31.9809 28.075 31.9809 27.7343C31.9809 26.0962 31.6292 24.8353 30.9696 23.9394V19.514C30.9696 18.9917 30.5462 18.5684 30.0239 18.5684H29.6455C29.1232 18.5684 28.6992 18.9917 28.6992 19.514V25.0642" fill="#FFD100"/>
<path d="M26.1172 32.0566V29.9004H34.7589V32.0566" fill="#FFE67D"/>
<path d="M22.0142 17.0752V14.2424C22.0142 13.5482 22.5766 12.9863 23.2708 12.9863C23.9651 12.9863 24.5275 13.5482 24.5275 14.2424V17.0746H22.0142V17.0752Z" fill="#FFD100"/>
<path d="M22.014 14.243V28.2904H22.0104L22.014 28.5006C22.014 29.145 21.5251 29.6752 20.9001 29.7475C20.5581 29.7475 9.76386 29.7451 9.20508 29.7475C9.83007 29.6752 10.3154 29.145 10.3154 28.5006V28.2139H10.3202V14.243C10.3202 13.598 10.8049 13.0678 11.4305 12.9961C11.7725 12.9961 22.5661 12.9985 23.1249 12.9961C22.4999 13.0684 22.014 13.5986 22.014 14.243Z" fill="white"/>
<path d="M20.9226 30.1403H20.2211C13.2314 30.139 9.5258 30.139 9.20693 30.1403L9.16016 29.358C9.59504 29.3075 9.92362 28.9389 9.92362 28.5003L9.92849 14.2428C9.92849 13.4059 10.5547 12.7019 11.3856 12.6059L11.4305 12.6035H12.1084C19.098 12.6047 22.8036 12.6047 23.1225 12.6035L23.1693 13.3858C22.7338 13.4362 22.4058 13.8049 22.4058 14.2434V28.6832H22.3949C22.3092 29.4412 21.714 30.0485 20.9444 30.1378L20.9226 30.1403ZM12.3823 29.3543C14.2159 29.3543 16.8325 29.3549 20.2217 29.3555H20.8758C21.3028 29.296 21.6223 28.9322 21.6223 28.5009L21.6113 27.8984H21.6223V14.2428C21.6223 13.9318 21.7091 13.6385 21.8604 13.3889C20.1986 13.3889 16.937 13.3889 12.109 13.3882H11.4554C11.0309 13.4472 10.7132 13.8116 10.7132 14.2434V28.6066H10.7053C10.6883 28.8781 10.6045 29.1332 10.4703 29.3549C10.9653 29.3543 11.603 29.3543 12.3823 29.3543Z" fill="#545859"/>
<path d="M19.6944 27.8691V28.5008C19.6944 29.1452 20.1797 29.6755 20.8047 29.7478C20.2465 29.7453 9.45223 29.7478 9.11028 29.7478C8.48529 29.6755 8 29.1452 8 28.5008V27.8691H19.6944Z" fill="#FFD100"/>
<path d="M24.9191 17.6258H24.1344V14.2422C24.1344 13.766 23.7469 13.3785 23.2701 13.3785C22.7939 13.3785 22.4058 13.766 22.4058 14.2422H21.6211C21.6211 13.3329 22.3609 12.5938 23.2695 12.5938C24.1787 12.5938 24.9185 13.3335 24.9185 14.2422V17.6258H24.9191Z" fill="#545859"/>
<path d="M20.8777 30.1404C20.0383 30.1404 19.3027 29.3745 19.3027 28.5011V27.4844H20.0875V28.5011C20.0875 28.9324 20.4792 29.3557 20.8783 29.3557V30.1404H20.8777Z" fill="#545859"/>
<path d="M20.4087 15.2246H14.0361V16.0093H20.4087V15.2246Z" fill="#545859"/>
<path d="M20.4087 16.6836H14.0361V17.4683H20.4087V16.6836Z" fill="#545859"/>
<path d="M13.2607 15.2305H11.8467V16.6444H13.2607V15.2305Z" fill="#FFE67D"/>
<path d="M15.2643 19.1895H14.0361V19.9742H15.2643V19.1895Z" fill="#545859"/>
<path d="M15.2643 20.6484H14.0361V21.4332H15.2643V20.6484Z" fill="#545859"/>
<path d="M13.2607 19.1895H11.8467V20.6034H13.2607V19.1895Z" fill="#FFE67D"/>
<path d="M15.2643 23.1133H14.0361V23.898H15.2643V23.1133Z" fill="#545859"/>
<path d="M15.2643 24.5723H14.0361V25.357H15.2643V24.5723Z" fill="#545859"/>
<path d="M13.2607 23.1133H11.8467V24.5273H13.2607V23.1133Z" fill="#FFE67D"/>
<path d="M26.3899 32.6431C26.3899 32.7324 26.3176 32.8053 26.2283 32.8053H16.4052C16.3159 32.8053 16.2437 32.7324 16.2437 32.6431V19.0294C16.2437 18.9401 16.3159 18.8672 16.4052 18.8672H26.2283C26.3176 18.8672 26.3899 18.9401 26.3899 19.0294V32.6431Z" fill="white"/>
<path d="M26.2285 33.1968H16.4054C16.0999 33.1968 15.8521 32.9484 15.8521 32.6422V19.0285C15.8521 18.723 16.1005 18.4746 16.4054 18.4746H26.2285C26.534 18.4746 26.7824 18.723 26.7824 19.0285V32.6422C26.7824 32.9484 26.534 33.1968 26.2285 33.1968ZM16.6362 32.412H25.9977V19.2593H16.6362V32.412Z" fill="#545859"/>
<path d="M26.3899 20.6641V31.4911C26.3899 31.581 26.3176 31.6533 26.2283 31.6533H16.4052C16.3159 31.6533 16.2437 31.581 16.2437 31.4911V20.6641" fill="white"/>
<path d="M26.2285 32.045H16.4054C16.0999 32.045 15.8521 31.7966 15.8521 31.4905V20.6641H16.6368V31.2609H25.9983V20.6641H26.783V31.4911C26.7824 31.7966 26.534 32.045 26.2285 32.045Z" fill="#545859"/>
<path d="M25.0001 20.9336H17.6333V22.6998H25.0001V20.9336Z" fill="#FFE67D"/>
<path d="M19.0309 23.918H17.6157V24.7027H19.0309V23.918Z" fill="#545859"/>
<path d="M21.0265 23.918H19.6113V24.7027H21.0265V23.918Z" fill="#545859"/>
<path d="M23.0221 23.918H21.6069V24.7027H23.0221V23.918Z" fill="#545859"/>
<path d="M25.0177 23.918H23.6025V24.7027H25.0177V23.918Z" fill="#545859"/>
<path d="M19.0309 25.3008H17.6157V26.0855H19.0309V25.3008Z" fill="#545859"/>
<path d="M21.0265 25.3008H19.6113V26.0855H21.0265V25.3008Z" fill="#545859"/>
<path d="M23.0221 25.3008H21.6069V26.0855H23.0221V25.3008Z" fill="#545859"/>
<path d="M25.0177 25.3008H23.6025V26.0855H25.0177V25.3008Z" fill="#545859"/>
<path d="M19.0309 26.6836H17.6157V27.4683H19.0309V26.6836Z" fill="#545859"/>
<path d="M21.0265 26.6836H19.6113V27.4683H21.0265V26.6836Z" fill="#545859"/>
<path d="M23.0221 26.6836H21.6069V27.4683H23.0221V26.6836Z" fill="#545859"/>
<path d="M25.0177 26.6836H23.6025V27.4683H25.0177V26.6836Z" fill="#545859"/>
<path d="M19.0309 28.0664H17.6157V28.8511H19.0309V28.0664Z" fill="#545859"/>
<path d="M21.0265 28.0664H19.6113V28.8511H21.0265V28.0664Z" fill="#545859"/>
<path d="M23.0221 28.0664H21.6069V28.8511H23.0221V28.0664Z" fill="#545859"/>
<path d="M25.0177 28.0664H23.6025V28.8511H25.0177V28.0664Z" fill="#545859"/>
<path d="M19.0309 29.4473H17.6157V30.232H19.0309V29.4473Z" fill="#545859"/>
<path d="M21.0265 29.4473H19.6113V30.232H21.0265V29.4473Z" fill="#545859"/>
<path d="M23.0221 29.4473H21.6069V30.232H23.0221V29.4473Z" fill="#545859"/>
<path d="M25.0177 29.4473H23.6025V30.232H25.0177V29.4473Z" fill="#545859"/>
<path d="M62.032 24.904C62.032 25.352 62.048 25.672 62.08 25.864C62.112 26.056 62.2027 26.152 62.352 26.152C62.384 26.152 62.4213 26.136 62.464 26.104C62.5173 26.0613 62.5707 26.024 62.624 25.992C62.688 25.96 62.7573 25.9387 62.832 25.928C62.9173 25.9067 63.008 25.9173 63.104 25.96C63.2213 26.0133 63.2907 26.104 63.312 26.232C63.344 26.3493 63.3173 26.472 63.232 26.6C63.1787 26.6853 63.104 26.76 63.008 26.824C62.912 26.8773 62.8107 26.92 62.704 26.952C62.608 26.984 62.512 27.0053 62.416 27.016C62.32 27.0267 62.2507 27.032 62.208 27.032C61.9307 27.032 61.712 26.984 61.552 26.888C61.4027 26.7813 61.2907 26.6373 61.216 26.456C61.1413 26.264 61.0933 26.04 61.072 25.784C61.0507 25.528 61.04 25.2453 61.04 24.936V20.6C61.04 20.4613 61.0827 20.3493 61.168 20.264C61.2533 20.1787 61.376 20.136 61.536 20.136C61.696 20.136 61.8187 20.1787 61.904 20.264C61.9893 20.3493 62.032 20.4613 62.032 20.6V24.904ZM65.0844 24.28C65.0844 24.888 65.2444 25.352 65.5644 25.672C65.8844 25.9813 66.3377 26.1467 66.9244 26.168C67.1484 26.168 67.367 26.136 67.5804 26.072C67.7937 25.9973 67.9857 25.8853 68.1564 25.736C68.327 25.5867 68.4604 25.3893 68.5564 25.144C68.663 24.8987 68.7164 24.5893 68.7164 24.216V23.624C68.7164 23.3893 68.6844 23.1867 68.6204 23.016C68.5564 22.8347 68.471 22.6853 68.3644 22.568C68.2684 22.44 68.151 22.3333 68.0124 22.248C67.8844 22.152 67.7564 22.0667 67.6284 21.992C67.5857 21.9707 67.5377 21.928 67.4844 21.864C67.431 21.8 67.4044 21.7307 67.4044 21.656C67.4044 21.592 67.4204 21.528 67.4524 21.464C67.4844 21.3893 67.527 21.3413 67.5804 21.32C67.7937 21.2133 68.0177 21.064 68.2524 20.872C68.4977 20.68 68.7217 20.4613 68.9244 20.216C68.9777 20.152 69.063 20.12 69.1804 20.12C69.2977 20.1093 69.399 20.1413 69.4844 20.216C69.5697 20.2907 69.623 20.3813 69.6444 20.488C69.6764 20.584 69.6657 20.664 69.6124 20.728C69.463 20.92 69.287 21.1013 69.0844 21.272C68.8924 21.432 68.679 21.5653 68.4444 21.672C68.8497 21.8853 69.159 22.184 69.3724 22.568C69.5857 22.9413 69.6924 23.304 69.6924 23.656V24.328C69.6924 25.1813 69.4417 25.8373 68.9404 26.296C68.4497 26.7547 67.7724 26.9893 66.9084 27C66.0444 27 65.3617 26.76 64.8604 26.28C64.3697 25.7893 64.1244 25.1067 64.1244 24.232V24.008C64.1244 23.496 64.247 23.0373 64.4924 22.632C64.7377 22.2267 65.0844 21.88 65.5324 21.592C65.639 21.4853 65.671 21.3627 65.6284 21.224C65.5857 21.0747 65.4577 21 65.2444 21H64.6204C64.343 21 64.2044 20.8667 64.2044 20.6C64.2044 20.3333 64.343 20.2 64.6204 20.2H65.2924C65.3564 20.2 65.4524 20.2107 65.5804 20.232C65.719 20.2533 65.8524 20.296 65.9804 20.36C66.119 20.424 66.2364 20.52 66.3324 20.648C66.439 20.776 66.4924 20.952 66.4924 21.176C66.4924 21.5173 66.4177 21.7787 66.2684 21.96C66.119 22.1307 65.9537 22.296 65.7724 22.456C65.6017 22.616 65.4417 22.808 65.2924 23.032C65.1537 23.256 65.0844 23.592 65.0844 24.04V24.28ZM66.356 17.096C66.1747 17.096 66.004 17.1333 65.844 17.208C65.684 17.272 65.604 17.432 65.604 17.688C65.604 18.0933 65.7853 18.296 66.148 18.296C66.2867 18.296 66.404 18.2587 66.5 18.184C66.596 18.1093 66.6813 18.024 66.756 17.928C66.7987 17.8747 66.8573 17.8373 66.932 17.816C67.0067 17.784 67.0653 17.768 67.108 17.768C67.236 17.768 67.348 17.816 67.444 17.912C67.508 18.008 67.588 18.0987 67.684 18.184C67.78 18.2587 67.8867 18.3013 68.004 18.312C68.0787 18.3227 68.1533 18.3067 68.228 18.264C68.3027 18.2107 68.356 18.168 68.388 18.136C68.4733 18.0507 68.5747 18.008 68.692 18.008C68.7987 18.008 68.8947 18.0507 68.98 18.136C69.0547 18.2213 69.0813 18.328 69.06 18.456C69.0387 18.584 68.9853 18.6907 68.9 18.776C68.8573 18.8187 68.7667 18.888 68.628 18.984C68.4893 19.0693 68.2813 19.112 68.004 19.112C67.7907 19.112 67.6093 19.064 67.46 18.968C67.3107 18.8613 67.1933 18.7547 67.108 18.648C67.0227 18.7547 66.9 18.8613 66.74 18.968C66.5693 19.064 66.372 19.112 66.148 19.112C65.636 19.112 65.268 18.9787 65.044 18.712C64.8093 18.4347 64.692 18.0933 64.692 17.688C64.692 17.272 64.8253 16.9307 65.092 16.664C65.3587 16.3973 65.764 16.264 66.308 16.264H67.668C67.7533 16.264 67.8493 16.264 67.956 16.264C68.052 16.264 68.1427 16.248 68.228 16.216C68.3133 16.184 68.388 16.1307 68.452 16.056C68.5053 15.9707 68.5427 15.848 68.564 15.688C68.5747 15.5707 68.6173 15.4853 68.692 15.432C68.756 15.368 68.836 15.3307 68.932 15.32C69.0493 15.32 69.1453 15.352 69.22 15.416C69.284 15.4693 69.332 15.5387 69.364 15.624C69.396 15.7093 69.412 15.8053 69.412 15.912C69.4013 16.008 69.3907 16.0987 69.38 16.184C69.3373 16.44 69.2467 16.632 69.108 16.76C68.9693 16.888 68.82 16.9787 68.66 17.032C68.4893 17.0747 68.324 17.096 68.164 17.096C68.004 17.096 67.8867 17.096 67.812 17.096H66.356ZM74.196 20.136C74.6013 20.136 74.98 20.1947 75.332 20.312C75.684 20.4293 75.9933 20.6107 76.26 20.856C76.5267 21.1013 76.7347 21.4107 76.884 21.784C77.0333 22.1573 77.108 22.6 77.108 23.112V26.536C77.108 26.6747 77.0653 26.7867 76.98 26.872C76.8947 26.9573 76.772 27 76.612 27C76.452 27 76.3293 26.9573 76.244 26.872C76.1587 26.7867 76.116 26.6747 76.116 26.536V23.272C76.116 22.472 75.94 21.8907 75.588 21.528C75.2467 21.1653 74.7827 20.984 74.196 20.984C73.684 20.984 73.252 21.0693 72.9 21.24C72.548 21.4107 72.2493 21.608 72.004 21.832C72.1533 21.96 72.26 22.184 72.324 22.504C72.388 22.8133 72.42 23.16 72.42 23.544V26.536C72.42 26.6747 72.3773 26.7867 72.292 26.872C72.2067 26.9573 72.084 27 71.924 27C71.7427 27 71.6147 26.952 71.54 26.856C71.4653 26.76 71.428 26.6533 71.428 26.536V23.384C71.428 22.936 71.3853 22.584 71.3 22.328C71.2253 22.072 71.1187 21.864 70.98 21.704C71.0867 21.5333 71.236 21.3573 71.428 21.176C71.6307 20.9947 71.8653 20.8293 72.132 20.68C72.4093 20.52 72.7187 20.392 73.06 20.296C73.4013 20.1893 73.78 20.136 74.196 20.136ZM81.3463 26.168C82.5623 26.168 83.1703 25.5653 83.1703 24.36V20.552C83.1703 20.4347 83.2183 20.3387 83.3143 20.264C83.4103 20.1787 83.5276 20.136 83.6663 20.136C83.8156 20.136 83.9329 20.1787 84.0183 20.264C84.1143 20.3387 84.1623 20.4347 84.1623 20.552V24.36C84.1623 25.288 83.9169 25.9547 83.4263 26.36C82.9463 26.7653 82.2529 26.9787 81.3463 27C80.9729 27 80.6049 26.968 80.2423 26.904C79.8796 26.8293 79.5543 26.7067 79.2663 26.536C78.9783 26.3653 78.7543 26.136 78.5943 25.848C78.4343 25.5493 78.3703 25.176 78.4023 24.728C78.4449 24.3867 78.5569 24.0933 78.7383 23.848C78.9196 23.592 79.1703 23.4053 79.4903 23.288C79.1169 23.192 78.8396 23.0107 78.6583 22.744C78.4876 22.4667 78.4023 22.1893 78.4023 21.912C78.4023 21.2827 78.5783 20.8293 78.9303 20.552C79.2929 20.2747 79.8049 20.136 80.4663 20.136C80.6263 20.136 80.7863 20.1467 80.9463 20.168C81.1063 20.1893 81.2449 20.2267 81.3623 20.28C81.4903 20.3227 81.5809 20.3867 81.6343 20.472C81.6983 20.5467 81.7089 20.648 81.6663 20.776C81.6449 20.8613 81.5916 20.9413 81.5063 21.016C81.4209 21.0907 81.3196 21.1013 81.2023 21.048C81.0209 20.9947 80.8076 20.9627 80.5623 20.952C80.1783 20.9413 79.8849 21.0107 79.6823 21.16C79.4903 21.2987 79.3943 21.5547 79.3943 21.928C79.3943 22.12 79.4369 22.28 79.5223 22.408C79.6183 22.536 79.7356 22.6373 79.8743 22.712C80.0236 22.7867 80.1836 22.84 80.3543 22.872C80.5356 22.904 80.7116 22.92 80.8823 22.92H81.4103C81.5276 22.92 81.6183 22.968 81.6823 23.064C81.7463 23.1493 81.7783 23.2507 81.7783 23.368C81.7783 23.464 81.7356 23.5387 81.6503 23.592C81.5756 23.6347 81.4743 23.672 81.3463 23.704C81.2289 23.7253 81.1009 23.736 80.9623 23.736C80.8343 23.736 80.7169 23.736 80.6103 23.736C80.1836 23.736 79.8689 23.8533 79.6663 24.088C79.4636 24.312 79.3729 24.6267 79.3943 25.032C79.4156 25.2773 79.4849 25.4747 79.6023 25.624C79.7303 25.7733 79.8849 25.8907 80.0663 25.976C80.2583 26.0507 80.4663 26.104 80.6903 26.136C80.9143 26.1573 81.1329 26.168 81.3463 26.168ZM88.5208 20.136C89.0648 20.136 89.5341 20.2213 89.9288 20.392C90.3341 20.552 90.6701 20.7813 90.9368 21.08C91.2034 21.3787 91.4008 21.7413 91.5288 22.168C91.6568 22.584 91.7208 23.0533 91.7208 23.576C91.7208 24.0347 91.6674 24.472 91.5608 24.888C91.4648 25.304 91.2994 25.672 91.0648 25.992C90.8301 26.3013 90.5154 26.552 90.1208 26.744C89.7368 26.9253 89.2621 27.016 88.6968 27.016C88.1528 27.016 87.6781 26.936 87.2728 26.776C86.8674 26.616 86.5421 26.3867 86.2968 26.088C86.0514 25.7893 85.8808 25.4373 85.7848 25.032C85.6888 24.616 85.6728 24.1573 85.7368 23.656C85.7474 23.5707 85.7848 23.4907 85.8488 23.416C85.9234 23.3413 86.0354 23.304 86.1848 23.304H88.2808C88.3981 23.304 88.4888 23.3413 88.5528 23.416C88.6168 23.48 88.6488 23.5707 88.6488 23.688C88.6488 23.9547 88.5261 24.088 88.2808 24.088H86.6488C86.6061 24.76 86.7608 25.2773 87.1128 25.64C87.4648 25.992 87.9928 26.168 88.6968 26.168C89.4008 26.168 89.9128 25.944 90.2328 25.496C90.5634 25.048 90.7394 24.4133 90.7608 23.592C90.7501 22.8027 90.5688 22.1733 90.2168 21.704C89.8754 21.224 89.3101 20.984 88.5208 20.984C88.1048 20.984 87.7154 21.0533 87.3528 21.192C87.0008 21.3307 86.6488 21.5173 86.2968 21.752C86.2114 21.7947 86.1208 21.8053 86.0247 21.784C85.9394 21.7627 85.8701 21.7147 85.8168 21.64C85.6888 21.4587 85.6941 21.288 85.8328 21.128C85.9928 20.9573 86.1794 20.808 86.3928 20.68C86.6061 20.552 86.8301 20.4507 87.0648 20.376C87.2994 20.2907 87.5394 20.232 87.7848 20.2C88.0408 20.1573 88.2861 20.136 88.5208 20.136ZM95.3853 23.976C95.2573 23.976 95.1506 23.9387 95.0653 23.864C94.9906 23.7787 94.9533 23.6773 94.9533 23.56C94.9533 23.4427 94.9906 23.3467 95.0653 23.272C95.1506 23.1867 95.2573 23.144 95.3853 23.144H96.0413C96.2759 23.144 96.4626 23.2133 96.6013 23.352C96.7399 23.48 96.8466 23.6347 96.9213 23.816C96.9959 23.9973 97.0439 24.184 97.0653 24.376C97.0866 24.5573 97.0973 24.696 97.0973 24.792C97.0973 26.264 96.5053 27 95.3213 27H95.3053C94.4519 27 93.8386 26.7013 93.4653 26.104C93.1026 25.5067 92.9213 24.6747 92.9213 23.608C92.9213 22.5307 93.2039 21.6827 93.7693 21.064C94.3453 20.4453 95.1346 20.136 96.1373 20.136C97.0759 20.136 97.8279 20.3653 98.3933 20.824C98.9586 21.272 99.2413 21.9813 99.2413 22.952V26.536C99.2413 26.6747 99.1986 26.7867 99.1133 26.872C99.0279 26.9573 98.9053 27 98.7453 27C98.5853 27 98.4626 26.9573 98.3773 26.872C98.2919 26.7867 98.2493 26.6747 98.2493 26.536V23.08C98.2493 22.4187 98.0893 21.9013 97.7693 21.528C97.4599 21.1547 96.9159 20.968 96.1373 20.968C95.4013 20.968 94.8413 21.208 94.4573 21.688C94.0839 22.168 93.8973 22.808 93.8973 23.608C93.8973 24.376 94.0199 24.9947 94.2653 25.464C94.5213 25.9227 94.8733 26.152 95.3213 26.152C95.5133 26.152 95.6679 26.0987 95.7853 25.992C95.9133 25.8853 96.0093 25.752 96.0733 25.592C96.1479 25.432 96.1906 25.256 96.2013 25.064C96.2226 24.872 96.2173 24.696 96.1853 24.536C96.1533 24.376 96.0999 24.2427 96.0253 24.136C95.9613 24.0293 95.8759 23.976 95.7693 23.976H95.3853ZM106.566 27C106.128 27 105.782 26.9253 105.526 26.776C105.27 26.616 105.067 26.408 104.918 26.152C104.779 25.8853 104.683 25.5813 104.63 25.24C104.576 24.8987 104.534 24.5413 104.502 24.168H104.054C103.808 24.168 103.686 24.0347 103.686 23.768C103.686 23.6507 103.718 23.56 103.782 23.496C103.846 23.4213 103.936 23.384 104.054 23.384H105.094C105.211 23.384 105.296 23.416 105.35 23.48C105.403 23.544 105.43 23.624 105.43 23.72C105.43 23.9973 105.435 24.2853 105.446 24.584C105.467 24.872 105.515 25.1333 105.59 25.368C105.664 25.6027 105.776 25.7947 105.926 25.944C106.086 26.0933 106.304 26.168 106.582 26.168C106.848 26.168 107.062 26.0987 107.222 25.96C107.392 25.8107 107.52 25.6133 107.606 25.368C107.691 25.1227 107.75 24.84 107.782 24.52C107.814 24.1893 107.83 23.8427 107.83 23.48C107.83 23.128 107.814 22.8027 107.782 22.504C107.76 22.1947 107.696 21.928 107.59 21.704C107.483 21.48 107.318 21.304 107.094 21.176C106.87 21.048 106.566 20.984 106.182 20.984C105.766 20.984 105.392 21.0533 105.062 21.192C104.742 21.32 104.448 21.5013 104.182 21.736C104.096 21.7893 103.99 21.8107 103.862 21.8C103.734 21.7893 103.638 21.736 103.574 21.64C103.488 21.5333 103.462 21.4213 103.494 21.304C103.526 21.1867 103.59 21.096 103.686 21.032C104.059 20.7227 104.443 20.4933 104.838 20.344C105.243 20.1947 105.691 20.12 106.182 20.12C106.704 20.12 107.131 20.1947 107.462 20.344C107.803 20.4827 108.07 20.6907 108.262 20.968C108.464 21.2453 108.603 21.592 108.678 22.008C108.763 22.4133 108.806 22.8827 108.806 23.416C108.806 23.8533 108.774 24.2907 108.71 24.728C108.656 25.1547 108.55 25.5387 108.39 25.88C108.23 26.2107 108 26.4827 107.702 26.696C107.414 26.8987 107.035 27 106.566 27ZM108.141 19C108.024 19 107.912 18.9627 107.805 18.888C107.698 18.8027 107.645 18.7013 107.645 18.584V17C107.645 16.8827 107.698 16.7867 107.805 16.712C107.912 16.6267 108.024 16.584 108.141 16.584C108.28 16.584 108.402 16.6267 108.509 16.712C108.605 16.7867 108.653 16.8827 108.653 17V18.584C108.653 18.7013 108.605 18.8027 108.509 18.888C108.402 18.9627 108.28 19 108.141 19ZM110.973 21.992C110.973 22.1093 110.925 22.2107 110.829 22.296C110.733 22.3813 110.621 22.424 110.493 22.424C110.344 22.424 110.226 22.3867 110.141 22.312C110.056 22.2373 110.013 22.1627 110.013 22.088C110.013 21.8107 110.082 21.5547 110.221 21.32C110.37 21.0853 110.557 20.8827 110.781 20.712C111.016 20.5307 111.282 20.392 111.581 20.296C111.88 20.1893 112.184 20.136 112.493 20.136C113.357 20.136 113.981 20.376 114.365 20.856C114.749 21.3253 114.941 21.9707 114.941 22.792V26.472C114.941 26.824 114.776 27 114.445 27C114.125 27 113.965 26.824 113.965 26.472V22.92C113.965 22.4933 113.922 22.152 113.837 21.896C113.752 21.64 113.64 21.448 113.501 21.32C113.362 21.1813 113.202 21.0907 113.021 21.048C112.85 20.9947 112.674 20.968 112.493 20.968C112.216 20.968 111.981 21.0107 111.789 21.096C111.597 21.1813 111.437 21.2827 111.309 21.4C111.192 21.5067 111.106 21.6187 111.053 21.736C111 21.8427 110.973 21.928 110.973 21.992ZM119.19 26.168C120.406 26.168 121.014 25.5653 121.014 24.36V20.552C121.014 20.4347 121.062 20.3387 121.158 20.264C121.254 20.1787 121.371 20.136 121.51 20.136C121.659 20.136 121.777 20.1787 121.862 20.264C121.958 20.3387 122.006 20.4347 122.006 20.552V24.36C122.006 25.288 121.761 25.9547 121.27 26.36C120.79 26.7653 120.097 26.9787 119.19 27C118.817 27 118.449 26.968 118.086 26.904C117.723 26.8293 117.398 26.7067 117.11 26.536C116.822 26.3653 116.598 26.136 116.438 25.848C116.278 25.5493 116.214 25.176 116.246 24.728C116.289 24.3867 116.401 24.0933 116.582 23.848C116.763 23.592 117.014 23.4053 117.334 23.288C116.961 23.192 116.683 23.0107 116.502 22.744C116.331 22.4667 116.246 22.1893 116.246 21.912C116.246 21.2827 116.422 20.8293 116.774 20.552C117.137 20.2747 117.649 20.136 118.31 20.136C118.47 20.136 118.63 20.1467 118.79 20.168C118.95 20.1893 119.089 20.2267 119.206 20.28C119.334 20.3227 119.425 20.3867 119.478 20.472C119.542 20.5467 119.553 20.648 119.51 20.776C119.489 20.8613 119.435 20.9413 119.35 21.016C119.265 21.0907 119.163 21.1013 119.046 21.048C118.865 20.9947 118.651 20.9627 118.406 20.952C118.022 20.9413 117.729 21.0107 117.526 21.16C117.334 21.2987 117.238 21.5547 117.238 21.928C117.238 22.12 117.281 22.28 117.366 22.408C117.462 22.536 117.579 22.6373 117.718 22.712C117.867 22.7867 118.027 22.84 118.198 22.872C118.379 22.904 118.555 22.92 118.726 22.92H119.254C119.371 22.92 119.462 22.968 119.526 23.064C119.59 23.1493 119.622 23.2507 119.622 23.368C119.622 23.464 119.579 23.5387 119.494 23.592C119.419 23.6347 119.318 23.672 119.19 23.704C119.073 23.7253 118.945 23.736 118.806 23.736C118.678 23.736 118.561 23.736 118.454 23.736C118.027 23.736 117.713 23.8533 117.51 24.088C117.307 24.312 117.217 24.6267 117.238 25.032C117.259 25.2773 117.329 25.4747 117.446 25.624C117.574 25.7733 117.729 25.8907 117.91 25.976C118.102 26.0507 118.31 26.104 118.534 26.136C118.758 26.1573 118.977 26.168 119.19 26.168ZM129.085 20.136C129.223 20.136 129.341 20.1787 129.437 20.264C129.533 20.3387 129.581 20.4347 129.581 20.552V24.312C129.581 24.76 129.506 25.1547 129.357 25.496C129.207 25.8267 128.999 26.104 128.733 26.328C128.466 26.552 128.151 26.7227 127.789 26.84C127.426 26.9467 127.031 27 126.605 27C126.199 27 125.815 26.9467 125.453 26.84C125.09 26.7227 124.77 26.552 124.493 26.328C124.226 26.104 124.013 25.8267 123.853 25.496C123.693 25.1547 123.613 24.76 123.613 24.312V20.552C123.613 20.4347 123.661 20.3387 123.757 20.264C123.853 20.1787 123.97 20.136 124.109 20.136C124.237 20.136 124.349 20.1787 124.445 20.264C124.551 20.3387 124.605 20.4347 124.605 20.552V24.312C124.605 24.7067 124.674 25.0267 124.812 25.272C124.951 25.5067 125.122 25.6933 125.325 25.832C125.527 25.96 125.741 26.0507 125.965 26.104C126.199 26.1467 126.413 26.168 126.605 26.168C126.786 26.168 126.989 26.1467 127.213 26.104C127.447 26.0507 127.666 25.96 127.869 25.832C128.071 25.6933 128.242 25.5067 128.381 25.272C128.519 25.0267 128.589 24.7067 128.589 24.312V20.552C128.589 20.4347 128.631 20.3387 128.717 20.264C128.813 20.1787 128.935 20.136 129.085 20.136ZM129.223 18.216C129.34 18.2267 129.431 18.2747 129.495 18.36C129.548 18.4347 129.575 18.5253 129.575 18.632C129.554 18.8773 129.41 19 129.143 19H124.199C123.932 19 123.788 18.8773 123.767 18.632C123.767 18.5253 123.799 18.4347 123.863 18.36C123.916 18.2747 124.002 18.2267 124.119 18.216H129.223ZM134.055 20.136C135.111 20.136 135.868 20.4027 136.327 20.936C136.796 21.4587 137.031 22.2373 137.031 23.272V26.536C137.031 26.6747 136.988 26.7867 136.903 26.872C136.818 26.9573 136.695 27 136.535 27C136.375 27 136.252 26.9573 136.167 26.872C136.082 26.7867 136.039 26.6747 136.039 26.536V24.536C135.943 24.408 135.804 24.2907 135.623 24.184C135.442 24.0667 135.244 23.9707 135.031 23.896C134.818 23.8213 134.594 23.7627 134.359 23.72C134.124 23.6773 133.895 23.656 133.671 23.656C133.426 23.656 133.202 23.6827 132.999 23.736C132.796 23.7893 132.62 23.88 132.471 24.008C132.332 24.1253 132.226 24.2853 132.151 24.488C132.076 24.68 132.055 24.92 132.087 25.208C132.119 25.4853 132.22 25.6987 132.391 25.848C132.572 25.9867 132.786 26.0827 133.031 26.136C133.308 26.1893 133.602 26.1787 133.911 26.104C134.028 26.0827 134.13 26.0933 134.215 26.136C134.311 26.168 134.375 26.2587 134.407 26.408C134.439 26.5253 134.434 26.6213 134.391 26.696C134.348 26.76 134.284 26.8187 134.199 26.872C134.124 26.9147 134.028 26.9467 133.911 26.968C133.804 26.9893 133.698 27 133.591 27C133.506 27 133.415 27 133.319 27C133.234 27 133.148 26.9947 133.063 26.984C132.476 26.952 131.991 26.76 131.607 26.408C131.223 26.0453 131.058 25.512 131.111 24.808C131.143 24.136 131.372 23.6347 131.799 23.304C132.226 22.9733 132.823 22.808 133.591 22.808C134.071 22.808 134.508 22.8613 134.903 22.968C135.298 23.0747 135.682 23.256 136.055 23.512C136.055 23.128 136.028 22.7867 135.975 22.488C135.922 22.1787 135.82 21.9173 135.671 21.704C135.532 21.48 135.33 21.3147 135.063 21.208C134.807 21.0907 134.471 21.032 134.055 21.032C133.586 21.032 133.18 21.096 132.839 21.224C132.498 21.3413 132.188 21.4907 131.911 21.672C131.815 21.7253 131.703 21.736 131.575 21.704C131.458 21.6613 131.372 21.5867 131.319 21.48C131.202 21.288 131.228 21.112 131.399 20.952C131.57 20.792 131.804 20.6533 132.103 20.536C132.412 20.408 132.748 20.312 133.111 20.248C133.474 20.1733 133.788 20.136 134.055 20.136Z" fill="#545859"/>
</svg>
