<svg width="198" height="20" viewBox="0 0 198 20" fill="none" xmlns="http://www.w3.org/2000/svg">
<circle cx="8" cy="12" r="8" fill="#FFD100"/>
<circle cx="8" cy="12" r="4" fill="#FFF6CC"/>
<path d="M35.424 11.24C34.768 10.936 34.176 10.76 33.248 10.76C31.664 10.76 30.704 11.384 30.656 12.824C30.592 14.408 31.728 15 33.104 15C33.792 15 34.24 14.76 34.112 14.184C33.968 13.512 33.376 13.832 32.896 13.768C32.512 13.72 32.208 13.48 32.16 13.048C32.08 12.152 32.832 12.008 33.408 12.008C33.968 12.008 35.04 12.28 35.408 12.712V14.296C35.408 14.712 35.648 15 36.176 15C36.688 15 36.928 14.712 36.928 14.296V11.4C36.928 9.272 36.096 8.072 33.808 8.072C32.848 8.072 32.112 8.248 31.232 8.712C30.912 8.856 30.736 9.272 30.928 9.624C31.056 9.944 31.504 10.056 31.776 9.928C32.32 9.624 33.024 9.416 33.808 9.416C35.104 9.416 35.424 10.184 35.424 11.24ZM41.5286 8.072C40.9526 8.056 39.5766 8.152 39.8326 8.968C39.9126 9.256 40.2486 9.432 40.5206 9.4C40.8406 9.336 41.2246 9.336 41.5126 9.352C42.5846 9.432 42.7446 10.84 42.7286 11.608C42.6966 12.856 42.4086 13.784 41.2726 13.784C40.2966 13.784 39.9926 12.472 39.6246 11.048C39.5446 10.712 39.1446 10.552 38.7606 10.632C38.3926 10.696 38.1206 10.968 38.1366 11.256C38.3126 12.28 38.9526 13.704 39.2086 14.072C39.6406 14.696 40.2646 15 41.2086 15C43.5926 15 44.2006 13.384 44.2326 11.512C44.2646 9.608 43.3366 8.152 41.5286 8.072ZM48.8285 9.288C49.6925 9.32 50.1885 9.704 50.2045 10.584V14.264C50.2045 14.696 50.4445 15 50.9725 15C51.4685 15 51.7565 14.696 51.7565 14.264V10.488C51.7565 8.696 50.5405 7.896 48.9405 7.896C48.2205 7.896 47.3885 8.328 47.0205 8.856C47.0205 8.296 46.8925 7.896 46.2845 7.896C45.7565 7.896 45.5325 8.2 45.5325 8.648V14.264C45.5325 14.696 45.8045 15 46.3165 15C46.7965 15 47.0685 14.696 47.0685 14.264V10.536C47.4525 9.816 48.1245 9.304 48.8285 9.288ZM56.5008 11.048C56.9168 11.048 57.1408 10.776 57.1408 10.456C57.1408 10.056 56.9008 9.88 56.5168 9.88H54.7888C54.4368 9.88 54.4208 9.704 54.5008 9.448C54.5168 9.176 54.2608 8.936 53.9248 8.904C53.3168 8.824 53.0128 9.416 53.0448 9.96C53.1408 10.776 53.9888 11.048 54.8528 11.048H56.5008ZM56.5008 14.36C56.9168 14.36 57.1408 14.088 57.1408 13.768C57.1408 13.368 56.9008 13.192 56.5168 13.192H54.7888C54.4368 13.192 54.4208 13.016 54.5008 12.76C54.5168 12.488 54.2608 12.248 53.9248 12.216C53.3168 12.136 53.0128 12.728 53.0448 13.272C53.1408 14.088 53.9888 14.36 54.8528 14.36H56.5008ZM60.1511 13.56V8.648C60.1511 8.2 59.8791 7.896 59.3831 7.896C58.8711 7.896 58.5991 8.2 58.5991 8.648V12.744C58.5991 14.088 58.6951 15.032 60.0071 15.032C60.2311 15.032 60.9511 14.92 61.2391 14.488C61.4951 14.056 61.3831 13.592 60.9671 13.432C60.5671 13.288 60.3271 13.432 60.1511 13.56ZM67.897 8.072C67.465 8.072 67.145 8.344 67.145 8.68V12.2C67.145 13.544 66.121 13.768 65.513 13.784C64.889 13.768 63.881 13.544 63.881 12.2V8.68C63.881 8.344 63.497 8.072 63.113 8.072C62.697 8.072 62.345 8.344 62.345 8.68V12.2C62.345 14.072 63.785 15 65.513 15C67.321 15 68.665 14.072 68.665 12.2V8.68C68.665 8.344 68.329 8.072 67.897 8.072ZM62.9746 5.912C62.5906 5.912 62.4626 6.28 62.4626 6.584C62.4786 6.904 62.7026 7.16 63.0866 7.16H68.0466C68.4306 7.16 68.6546 6.936 68.6706 6.616V5.384C68.6706 5.064 68.3666 4.808 67.9666 4.808C67.5666 4.808 67.2626 5.064 67.2626 5.384V5.912H62.9746ZM73.1666 13.784C72.4466 13.784 71.6466 13.656 71.5826 12.872C71.5506 12.264 71.7906 11.928 72.5906 11.928C73.1026 11.928 73.6306 11.832 73.6306 11.4C73.6306 11.048 73.4706 10.728 73.1186 10.728H72.7186C72.1906 10.728 71.5666 10.552 71.5666 9.976C71.5666 9.352 71.9666 9.24 72.5106 9.272C72.6706 9.288 72.8146 9.304 72.9266 9.336C73.2626 9.464 73.5026 9.144 73.5666 8.92C73.8066 8.232 73.0226 8.072 72.3186 8.072C70.8786 8.072 70.0466 8.616 70.0466 9.928C70.0466 10.44 70.3986 11.128 71.1026 11.272C70.4786 11.544 70.0946 12.008 70.0466 12.728C69.8866 14.552 71.7106 15 73.1506 15C75.0546 14.968 76.2066 14.184 76.2066 12.28V8.776C76.2066 8.36 75.9666 8.072 75.4386 8.072C74.9266 8.072 74.6866 8.36 74.6866 8.776V12.28C74.6866 13.32 74.1266 13.784 73.1666 13.784ZM83.7059 8.6C83.7059 8.232 83.3859 7.88 82.9379 7.88C82.4739 7.88 82.1539 8.232 82.1539 8.6V12.344C81.9619 13.064 81.2419 13.592 80.5379 13.592C79.7219 13.592 79.1779 13.176 79.1779 12.376V8.6C79.1779 8.232 78.8579 7.88 78.4099 7.88C77.9459 7.88 77.6419 8.232 77.6419 8.6V12.376C77.6419 14.12 78.7779 15.016 80.3939 15.016C81.0179 15.016 81.7859 14.648 82.1859 14.104C82.1859 14.632 82.4739 15 82.9539 15C83.4499 15 83.7059 14.696 83.7059 14.264V8.6ZM87.6219 12.136H87.9899C88.0539 12.136 88.1019 12.408 88.1019 12.696C88.1019 13.128 87.9419 13.592 87.5579 13.592C86.9019 13.592 86.5179 12.744 86.5179 11.496C86.5179 10.152 87.1579 9.288 88.3259 9.288C89.5899 9.288 90.0219 9.928 90.0219 10.984V14.264C90.0219 14.696 90.2939 15 90.8059 15C91.3019 15 91.5739 14.696 91.5739 14.264V10.872C91.5739 8.824 90.2779 7.896 88.3259 7.896C86.2779 7.896 84.9819 9.272 84.9819 11.496C84.9819 13.704 85.7339 15 87.5419 15C88.9019 15 89.5419 14.216 89.5419 12.616C89.5419 12.152 89.3979 10.744 88.2459 10.744H87.6219C87.1899 10.744 86.9019 11.032 86.9019 11.448C86.9019 11.848 87.1899 12.136 87.6219 12.136ZM91.7049 4.712C91.1769 4.712 91.0489 5 90.8889 5.336C90.5689 6.04 89.8809 6.088 89.3529 6.072V5.496C89.3529 5.112 89.1929 4.792 88.6969 4.792H87.9289C87.5289 4.792 87.2729 4.92 87.2729 5.352C87.2729 5.768 87.4969 5.928 87.9289 5.928H88.1209V6.456C88.1209 6.728 88.1689 6.952 88.4729 7.048C88.6809 7.112 89.0649 7.128 89.3369 7.144C90.4409 7.176 91.8649 6.92 92.2649 5.304C92.3449 4.968 92.2009 4.712 91.7049 4.712ZM95.3209 8.072C94.7289 8.072 92.6329 8.456 92.8089 9.32C92.8409 9.688 93.1769 9.96 93.5289 9.896C94.1529 9.64 94.6169 9.32 95.3209 9.32C96.6169 9.32 97.1929 10.136 97.1929 11.544C97.1929 12.92 96.6169 13.752 95.3209 13.752C94.6169 13.752 94.1689 13.384 93.5289 13.16C93.2889 13.08 93.0169 13.224 92.9049 13.448C92.2489 14.36 94.4409 14.952 95.0489 14.984C95.1289 15 95.2249 15.016 95.3209 15.016C97.6729 15.016 98.6809 13.704 98.6809 11.544C98.6809 9.384 97.6729 8.072 95.3209 8.072ZM103.01 13.784C102.29 13.784 101.49 13.656 101.426 12.872C101.394 12.264 101.634 11.928 102.434 11.928C102.946 11.928 103.474 11.832 103.474 11.4C103.474 11.048 103.314 10.728 102.962 10.728H102.562C102.034 10.728 101.41 10.552 101.41 9.976C101.41 9.352 101.81 9.24 102.354 9.272C102.514 9.288 102.658 9.304 102.77 9.336C103.106 9.464 103.346 9.144 103.41 8.92C103.65 8.232 102.866 8.072 102.162 8.072C100.722 8.072 99.8904 8.616 99.8904 9.928C99.8904 10.44 100.242 11.128 100.946 11.272C100.322 11.544 99.9384 12.008 99.8904 12.728C99.7304 14.552 101.554 15 102.994 15C104.898 14.968 106.05 14.184 106.05 12.28V8.776C106.05 8.36 105.81 8.072 105.282 8.072C104.77 8.072 104.53 8.36 104.53 8.776V12.28C104.53 13.32 103.97 13.784 103.01 13.784ZM109.038 8.6C109.038 8.232 108.718 7.88 108.27 7.88C107.806 7.88 107.486 8.232 107.486 8.6V14.296C107.486 14.648 107.806 15 108.27 15C108.718 15 109.038 14.648 109.038 14.296V12.328L110.942 10.904C111.534 10.952 111.902 11.192 111.902 11.768V14.2C111.902 14.76 112.174 15 112.67 15C113.198 15 113.438 14.76 113.438 14.2V11.816C113.438 10.776 112.926 10.216 112.062 10.072L113.246 9.128C113.566 8.888 113.63 8.552 113.374 8.152C113.15 7.8 112.734 7.784 112.062 8.216L109.038 10.728V8.6ZM120.316 7.896C119.9 7.896 119.548 8.216 119.548 8.6V12.376C119.548 13.208 118.892 13.608 118.108 13.608C117.42 13.608 116.636 13.048 116.412 12.36V8.6C116.412 8.216 116.092 7.896 115.644 7.896C115.196 7.896 114.876 8.216 114.876 8.6V14.264C114.876 14.696 115.132 15 115.628 15C116.076 15 116.364 14.648 116.364 14.12C116.732 14.664 117.628 15.032 118.268 15.032C119.868 15.032 121.1 14.12 121.1 12.392V8.6C121.1 8.216 120.78 7.896 120.316 7.896ZM123.637 9.96C123.637 9.816 123.957 9.288 124.773 9.288C125.301 9.304 125.861 9.512 125.861 10.84V14.2C125.861 14.76 126.117 15 126.613 15C127.141 15 127.381 14.76 127.381 14.2V10.712C127.381 8.984 126.613 7.896 124.773 7.896C123.461 7.896 122.117 8.84 122.117 10.056C122.117 10.328 122.421 10.664 122.885 10.664C123.285 10.664 123.637 10.36 123.637 9.96ZM131.995 13.784C131.275 13.784 130.475 13.656 130.411 12.872C130.379 12.264 130.619 11.928 131.419 11.928C131.931 11.928 132.459 11.832 132.459 11.4C132.459 11.048 132.299 10.728 131.947 10.728H131.547C131.019 10.728 130.395 10.552 130.395 9.976C130.395 9.352 130.795 9.24 131.339 9.272C131.499 9.288 131.643 9.304 131.755 9.336C132.091 9.464 132.331 9.144 132.395 8.92C132.635 8.232 131.851 8.072 131.147 8.072C129.707 8.072 128.875 8.616 128.875 9.928C128.875 10.44 129.227 11.128 129.931 11.272C129.307 11.544 128.923 12.008 128.875 12.728C128.715 14.552 130.539 15 131.979 15C133.883 14.968 135.035 14.184 135.035 12.28V8.776C135.035 8.36 134.795 8.072 134.267 8.072C133.755 8.072 133.515 8.36 133.515 8.776V12.28C133.515 13.32 132.955 13.784 131.995 13.784ZM138.198 13.56V8.648C138.198 8.2 137.926 7.896 137.43 7.896C136.918 7.896 136.646 8.2 136.646 8.648V12.744C136.646 14.088 136.742 15.032 138.054 15.032C138.278 15.032 138.998 14.92 139.286 14.488C139.542 14.056 139.43 13.592 139.014 13.432C138.614 13.288 138.374 13.432 138.198 13.56ZM145.096 11.24C144.44 10.936 143.848 10.76 142.92 10.76C141.336 10.76 140.376 11.384 140.328 12.824C140.264 14.408 141.4 15 142.776 15C143.464 15 143.912 14.76 143.784 14.184C143.64 13.512 143.048 13.832 142.568 13.768C142.184 13.72 141.88 13.48 141.832 13.048C141.752 12.152 142.504 12.008 143.08 12.008C143.64 12.008 144.712 12.28 145.08 12.712V14.296C145.08 14.712 145.32 15 145.848 15C146.36 15 146.6 14.712 146.6 14.296V11.4C146.6 9.272 145.768 8.072 143.48 8.072C142.52 8.072 141.784 8.248 140.904 8.712C140.584 8.856 140.408 9.272 140.6 9.624C140.728 9.944 141.176 10.056 141.448 9.928C141.992 9.624 142.696 9.416 143.48 9.416C144.776 9.416 145.096 10.184 145.096 11.24ZM150.913 15C152.753 15 153.841 13.912 153.841 12.184V8.696C153.841 8.136 153.601 7.896 153.073 7.896C152.577 7.896 152.321 8.136 152.321 8.696V12.056C152.321 13.4 151.457 13.592 150.913 13.608C149.921 13.576 149.473 12.968 149.473 11.896C149.473 11.128 149.793 10.84 150.097 10.568C150.417 10.264 150.801 9.896 150.801 9.192C150.801 8.088 149.697 7.96 149.361 7.96H148.721C148.273 7.96 148.033 8.232 148.033 8.648C148.033 9.048 148.305 9.32 148.721 9.32H149.377C148.465 9.912 147.953 10.808 147.953 11.864V12.088C147.953 13.944 149.105 15 150.913 15ZM157.155 13.56V8.856C157.155 7.992 157.043 7.096 156.307 6.392C156.562 6.312 156.883 6.264 157.203 6.264C157.747 6.264 158.115 6.456 158.451 6.616C158.579 6.68 158.915 6.808 158.883 6.808L158.835 6.792C159.299 7.032 159.763 6.472 159.763 6.136C159.763 5.4 158.275 4.84 157.235 4.84C156.291 4.84 154.402 5.288 154.402 6.328C154.434 6.488 154.53 6.68 154.691 6.792C155.523 7.288 155.618 8.12 155.618 8.888V12.744C155.618 14.088 155.715 15.032 157.027 15.032C157.251 15.032 157.955 14.92 158.243 14.488C158.515 14.056 158.403 13.592 157.971 13.432C157.587 13.288 157.347 13.432 157.155 13.56ZM162.657 9.288C163.521 9.32 164.017 9.704 164.033 10.584V14.264C164.033 14.696 164.273 15 164.801 15C165.297 15 165.585 14.696 165.585 14.264V10.488C165.585 8.696 164.369 7.896 162.769 7.896C162.049 7.896 161.217 8.328 160.849 8.856C160.849 8.296 160.721 7.896 160.113 7.896C159.585 7.896 159.361 8.2 159.361 8.648V14.264C159.361 14.696 159.633 15 160.145 15C160.625 15 160.897 14.696 160.897 14.264V10.536C161.281 9.816 161.953 9.304 162.657 9.288ZM169.897 10.856C169.337 10.776 168.537 10.664 168.521 10.12C168.521 9.272 169.385 9.24 169.977 9.24C170.489 9.24 171.177 9.496 171.625 9.784C171.897 9.944 172.265 9.768 172.393 9.56C172.569 9.272 172.569 8.872 172.249 8.664C171.561 8.232 170.841 8.072 170.057 8.072C168.457 8.072 166.905 8.552 167.033 10.264C167.113 11.64 168.761 11.992 169.865 12.136C170.745 12.28 171.177 12.36 171.209 12.856C171.257 13.64 170.425 13.784 169.737 13.784C169.305 13.784 168.489 13.544 168.041 13.288C167.721 13.128 167.353 13.192 167.113 13.432C166.713 13.832 167.081 14.344 167.449 14.504C168.169 14.824 168.777 15 169.657 15C171.241 15 172.809 14.584 172.745 12.744C172.681 11.256 171.129 11.016 169.897 10.856ZM175.662 10.728C175.662 9.512 176.686 9.288 177.278 9.288C177.886 9.288 178.894 9.512 178.894 10.728V14.264C178.894 14.696 179.166 15 179.662 15C180.158 15 180.446 14.696 180.446 14.264V10.728C180.446 10.072 180.254 9.48 179.95 9.032L180.494 8.472C180.782 8.184 180.75 7.672 180.366 7.432C179.854 7.08 179.39 7.464 179.086 7.8L178.766 8.136C178.334 7.976 177.854 7.896 177.278 7.896C175.47 7.896 174.126 8.936 174.126 10.728V14.264C174.126 14.696 174.366 15 174.894 15C175.406 15 175.662 14.696 175.662 14.264V13.176C175.838 12.68 176.27 12.232 176.59 12.232C176.782 12.232 176.926 12.264 177.086 12.264C177.502 12.264 177.726 11.864 177.726 11.544C177.726 10.776 177.006 10.808 176.686 10.808C176.318 10.808 175.966 10.952 175.662 11.224V10.728ZM180.74 7.16C181.156 7.16 181.332 6.888 181.332 6.568C181.332 6.248 181.156 5.976 180.74 5.976H178.084C177.764 5.976 177.556 5.72 177.652 5.448C177.668 5.176 177.396 4.92 177.076 4.904C176.596 4.872 176.308 5.128 176.26 5.608C176.164 6.6 176.932 7.16 177.812 7.16H180.74ZM183.956 15.016C184.516 15.016 184.98 14.776 185.316 14.408C185.668 14.792 186.228 15.016 186.788 15.016C188.452 15.016 188.996 14.024 188.996 12.28V8.648C188.996 8.2 188.756 7.896 188.228 7.896C187.732 7.896 187.476 8.2 187.476 8.648V12.296C187.476 13.032 187.364 13.608 186.772 13.608C186.404 13.608 186.228 13.288 186.228 12.904V10.504C186.228 10.104 185.924 9.784 185.412 9.784C184.868 9.8 184.676 10.104 184.676 10.504V12.888C184.564 13.192 184.324 13.624 184.004 13.608C183.396 13.608 183.412 12.696 183.412 11.64V8.648C183.412 8.2 183.172 7.896 182.644 7.896C182.148 7.896 181.892 8.2 181.892 8.648V11.608C181.892 13.672 182.004 15.016 183.956 15.016ZM193.735 9.288C194.599 9.32 195.095 9.704 195.111 10.584V14.264C195.111 14.696 195.351 15 195.879 15C196.375 15 196.663 14.696 196.663 14.264V10.488C196.663 8.696 195.447 7.896 193.847 7.896C193.127 7.896 192.295 8.328 191.927 8.856C191.927 8.296 191.799 7.896 191.191 7.896C190.663 7.896 190.439 8.2 190.439 8.648V14.264C190.439 14.696 190.711 15 191.223 15C191.703 15 191.975 14.696 191.975 14.264V10.536C192.359 9.816 193.031 9.304 193.735 9.288ZM196.623 4.824C195.823 4.76 194.591 4.968 193.919 5.48C193.743 5.608 193.631 5.752 193.631 5.912V6.584C193.631 6.904 193.919 7.16 194.351 7.16C194.767 7.16 195.039 6.904 195.039 6.584V6.2C195.519 5.96 196.287 5.896 196.719 5.96C197.103 5.96 197.311 5.8 197.359 5.48C197.423 4.984 197.007 4.824 196.623 4.824Z" fill="#545859"/>
</svg>
