<svg width="180" height="32" viewBox="0 0 180 32" fill="none" xmlns="http://www.w3.org/2000/svg">
<path d="M8.47584 17.36C8.47584 16.96 8.43584 16.592 8.35584 16.256C8.29184 15.92 8.17184 15.632 7.99584 15.392C7.81984 15.152 7.57184 14.968 7.25184 14.84C6.93184 14.696 6.53184 14.624 6.05184 14.624C5.45984 14.624 4.90784 14.696 4.39584 14.84C3.88384 14.984 3.41984 15.168 3.00384 15.392C2.79584 15.488 2.55584 15.496 2.28384 15.416C2.01184 15.336 1.82784 15.176 1.73184 14.936C1.58784 14.664 1.56384 14.4 1.65984 14.144C1.77184 13.872 1.94784 13.68 2.18784 13.568C2.85984 13.216 3.49184 12.968 4.08384 12.824C4.67584 12.68 5.33184 12.608 6.05184 12.608C7.76384 12.608 8.97184 13.04 9.67584 13.904C10.3798 14.768 10.7318 16 10.7318 17.6V21.944C10.7318 22.264 10.6358 22.52 10.4438 22.712C10.2678 22.904 9.98784 23 9.60384 23C9.20384 23 8.90784 22.904 8.71584 22.712C8.53984 22.52 8.45184 22.264 8.45184 21.944V19.568C8.30784 19.408 8.10784 19.264 7.85184 19.136C7.61184 19.008 7.34784 18.896 7.05984 18.8C6.77184 18.704 6.48384 18.632 6.19584 18.584C5.90784 18.536 5.65984 18.512 5.45184 18.512C5.22784 18.512 4.99584 18.536 4.75584 18.584C4.53184 18.616 4.32384 18.688 4.13184 18.8C3.95584 18.896 3.81184 19.048 3.69984 19.256C3.58784 19.464 3.54784 19.736 3.57984 20.072C3.61184 20.392 3.73184 20.648 3.93984 20.84C4.14784 21.016 4.39584 21.12 4.68384 21.152C4.85984 21.184 5.04384 21.184 5.23584 21.152C5.42784 21.12 5.60384 21.112 5.76384 21.128C5.93984 21.128 6.09184 21.176 6.21984 21.272C6.36384 21.352 6.45984 21.52 6.50784 21.776C6.60384 22.208 6.49984 22.52 6.19584 22.712C5.90784 22.904 5.50784 23 4.99584 23C4.48384 23 3.99584 22.944 3.53184 22.832C3.08384 22.704 2.69184 22.512 2.35584 22.256C2.01984 22 1.75584 21.664 1.56384 21.248C1.37184 20.832 1.29184 20.328 1.32384 19.736C1.35584 18.648 1.70784 17.864 2.37984 17.384C3.06784 16.888 4.01184 16.64 5.21184 16.64C5.91584 16.64 6.50784 16.704 6.98784 16.832C7.48384 16.96 7.97984 17.136 8.47584 17.36ZM17.6328 12.608C18.3048 12.64 18.8968 12.792 19.4088 13.064C19.9208 13.336 20.3448 13.704 20.6808 14.168C21.0328 14.616 21.2888 15.152 21.4488 15.776C21.6248 16.384 21.7048 17.048 21.6888 17.768C21.6728 18.472 21.5928 19.144 21.4488 19.784C21.3208 20.408 21.0808 20.96 20.7288 21.44C20.3928 21.92 19.9368 22.304 19.3608 22.592C18.7848 22.864 18.0488 23 17.1528 23C16.4328 23 15.8328 22.888 15.3528 22.664C14.8728 22.424 14.4728 22.072 14.1528 21.608C14.0568 21.464 13.9288 21.24 13.7688 20.936C13.6248 20.616 13.4728 20.264 13.3128 19.88C13.1528 19.48 13.0008 19.064 12.8568 18.632C12.7128 18.184 12.6088 17.768 12.5448 17.384C12.5288 17.16 12.6088 16.96 12.7848 16.784C12.9768 16.608 13.2088 16.496 13.4808 16.448C13.7688 16.384 14.0408 16.408 14.2968 16.52C14.5528 16.632 14.7128 16.816 14.7768 17.072C14.9208 17.6 15.0568 18.112 15.1848 18.608C15.3288 19.104 15.4888 19.544 15.6648 19.928C15.8568 20.312 16.0728 20.616 16.3128 20.84C16.5688 21.064 16.8808 21.176 17.2488 21.176C17.6808 21.176 18.0328 21.096 18.3048 20.936C18.5768 20.76 18.7928 20.528 18.9528 20.24C19.1288 19.952 19.2488 19.608 19.3128 19.208C19.3768 18.808 19.4168 18.376 19.4328 17.912C19.4328 17.624 19.4168 17.296 19.3848 16.928C19.3528 16.544 19.2648 16.184 19.1208 15.848C18.9928 15.496 18.8088 15.2 18.5688 14.96C18.3288 14.704 18.0088 14.56 17.6088 14.528C17.3848 14.512 17.1368 14.512 16.8648 14.528C16.6088 14.528 16.3608 14.552 16.1208 14.6C15.9128 14.632 15.7048 14.592 15.4968 14.48C15.2888 14.352 15.1528 14.176 15.0888 13.952C14.9928 13.648 15.0248 13.408 15.1848 13.232C15.3608 13.04 15.5928 12.904 15.8808 12.824C16.1688 12.728 16.4728 12.672 16.7928 12.656C17.1288 12.624 17.4088 12.608 17.6328 12.608ZM28.5826 14.432C28.0546 14.448 27.5506 14.632 27.0706 14.984C26.6066 15.32 26.2306 15.76 25.9426 16.304V21.896C25.9426 22.216 25.8466 22.48 25.6546 22.688C25.4626 22.896 25.1826 23 24.8146 23C24.4306 23 24.1346 22.896 23.9266 22.688C23.7346 22.48 23.6386 22.216 23.6386 21.896V13.472C23.6386 13.136 23.7266 12.864 23.9026 12.656C24.0786 12.448 24.3666 12.344 24.7666 12.344C25.2306 12.344 25.5266 12.48 25.6546 12.752C25.7986 13.024 25.8706 13.368 25.8706 13.784C26.0146 13.592 26.1906 13.408 26.3986 13.232C26.6226 13.056 26.8626 12.904 27.1186 12.776C27.3746 12.632 27.6386 12.528 27.9106 12.464C28.1986 12.384 28.4786 12.344 28.7506 12.344C29.3426 12.344 29.8946 12.424 30.4066 12.584C30.9346 12.728 31.3826 12.96 31.7506 13.28C32.1346 13.6 32.4306 14.008 32.6386 14.504C32.8626 14.984 32.9746 15.56 32.9746 16.232V21.896C32.9746 22.216 32.8706 22.48 32.6626 22.688C32.4546 22.896 32.1666 23 31.7986 23C31.3986 23 31.1026 22.896 30.9106 22.688C30.7346 22.48 30.6466 22.216 30.6466 21.896V16.376C30.6306 15.704 30.4466 15.224 30.0946 14.936C29.7426 14.632 29.2386 14.464 28.5826 14.432ZM37.619 17.072C36.963 17.072 36.363 16.952 35.819 16.712C35.291 16.472 34.987 16.048 34.907 15.44C34.891 15.232 34.907 15.032 34.955 14.84C35.019 14.632 35.099 14.456 35.195 14.312C35.307 14.152 35.451 14.032 35.627 13.952C35.803 13.856 36.003 13.824 36.227 13.856C36.483 13.888 36.691 13.984 36.851 14.144C37.027 14.288 37.107 14.464 37.091 14.672C37.027 14.864 37.011 15.024 37.043 15.152C37.091 15.264 37.251 15.32 37.523 15.32H40.115C40.403 15.32 40.627 15.392 40.787 15.536C40.963 15.664 41.051 15.88 41.051 16.184C41.051 16.424 40.971 16.632 40.811 16.808C40.651 16.984 40.411 17.072 40.091 17.072H37.619ZM37.619 22.04C36.963 22.04 36.363 21.92 35.819 21.68C35.291 21.44 34.987 21.016 34.907 20.408C34.891 20.2 34.907 20 34.955 19.808C35.019 19.6 35.099 19.424 35.195 19.28C35.307 19.12 35.451 19 35.627 18.92C35.803 18.824 36.003 18.792 36.227 18.824C36.483 18.856 36.691 18.952 36.851 19.112C37.027 19.256 37.107 19.432 37.091 19.64C37.027 19.832 37.011 19.992 37.043 20.12C37.091 20.232 37.251 20.288 37.523 20.288H40.115C40.403 20.288 40.627 20.36 40.787 20.504C40.963 20.632 41.051 20.848 41.051 21.152C41.051 21.392 40.971 21.6 40.811 21.776C40.651 21.952 40.411 22.04 40.091 22.04H37.619ZM45.5665 20.84C45.6945 20.744 45.8545 20.664 46.0465 20.6C46.2385 20.52 46.4865 20.536 46.7905 20.648C47.1105 20.776 47.3025 20.992 47.3665 21.296C47.4465 21.6 47.3905 21.912 47.1985 22.232C47.0865 22.392 46.9425 22.528 46.7665 22.64C46.5905 22.736 46.4145 22.816 46.2385 22.88C46.0625 22.944 45.8865 22.984 45.7105 23C45.5505 23.032 45.4305 23.048 45.3505 23.048C44.8545 23.048 44.4625 22.968 44.1745 22.808C43.9025 22.632 43.6945 22.392 43.5505 22.088C43.4065 21.784 43.3185 21.424 43.2865 21.008C43.2545 20.592 43.2385 20.128 43.2385 19.616V13.472C43.2385 13.136 43.3345 12.864 43.5265 12.656C43.7345 12.448 44.0305 12.344 44.4145 12.344C44.7825 12.344 45.0625 12.448 45.2545 12.656C45.4625 12.864 45.5665 13.136 45.5665 13.472V20.84ZM57.1853 12.608C57.5053 12.608 57.7773 12.696 58.0013 12.872C58.2253 13.048 58.3373 13.264 58.3373 13.52V18.8C58.3373 19.504 58.2173 20.12 57.9773 20.648C57.7373 21.176 57.4093 21.616 56.9933 21.968C56.5773 22.304 56.0733 22.56 55.4813 22.736C54.9053 22.912 54.2813 23 53.6093 23C52.9533 23 52.3373 22.912 51.7613 22.736C51.1853 22.56 50.6813 22.304 50.2493 21.968C49.8173 21.616 49.4733 21.176 49.2173 20.648C48.9773 20.12 48.8573 19.504 48.8573 18.8V13.52C48.8573 13.264 48.9693 13.048 49.1933 12.872C49.4173 12.696 49.6893 12.608 50.0093 12.608C50.2973 12.608 50.5613 12.696 50.8013 12.872C51.0413 13.048 51.1613 13.264 51.1613 13.52V18.8C51.1613 19.312 51.2413 19.72 51.4013 20.024C51.5773 20.328 51.7853 20.568 52.0253 20.744C52.2813 20.904 52.5453 21.016 52.8173 21.08C53.1053 21.144 53.3693 21.176 53.6093 21.176C53.8333 21.176 54.0893 21.144 54.3773 21.08C54.6653 21.016 54.9293 20.904 55.1693 20.744C55.4253 20.568 55.6333 20.328 55.7933 20.024C55.9693 19.72 56.0573 19.312 56.0573 18.8V13.52C56.0573 13.264 56.1613 13.048 56.3693 12.872C56.5933 12.696 56.8653 12.608 57.1853 12.608ZM56.2338 9.368V8.576C56.2338 8.336 56.3378 8.136 56.5458 7.976C56.7378 7.8 56.9858 7.712 57.2898 7.712C57.5938 7.712 57.8498 7.8 58.0578 7.976C58.2498 8.136 58.3458 8.336 58.3458 8.576V10.424C58.3298 10.664 58.2418 10.864 58.0818 11.024C57.9218 11.168 57.6978 11.24 57.4098 11.24H49.9698C49.6818 11.24 49.4578 11.16 49.2978 11C49.1378 10.824 49.0498 10.616 49.0338 10.376C49.0338 10.152 49.0898 9.928 49.2018 9.704C49.3138 9.48 49.5138 9.368 49.8018 9.368H56.2338ZM65.0898 21.176C65.8098 21.176 66.3698 21 66.7698 20.648C67.1698 20.28 67.3698 19.704 67.3698 18.92V13.664C67.3698 13.344 67.4578 13.088 67.6338 12.896C67.8258 12.704 68.1138 12.608 68.4978 12.608C68.8978 12.608 69.1858 12.704 69.3618 12.896C69.5538 13.088 69.6498 13.344 69.6498 13.664V18.92C69.6498 20.344 69.2418 21.376 68.4258 22.016C67.6098 22.656 66.4898 22.984 65.0658 23C64.5218 23 63.9618 22.952 63.3858 22.856C62.8098 22.76 62.2898 22.584 61.8258 22.328C61.3778 22.072 61.0098 21.728 60.7218 21.296C60.4498 20.848 60.3458 20.28 60.4098 19.592C60.4418 19.048 60.5938 18.6 60.8658 18.248C61.1538 17.896 61.5298 17.616 61.9938 17.408C61.7218 17.36 61.4898 17.264 61.2978 17.12C61.1058 16.976 60.9378 16.808 60.7938 16.616C60.6658 16.424 60.5698 16.224 60.5058 16.016C60.4418 15.792 60.4098 15.584 60.4098 15.392C60.4098 14.4 60.7058 13.688 61.2978 13.256C61.8898 12.824 62.7298 12.608 63.8178 12.608C64.0738 12.608 64.3298 12.624 64.5858 12.656C64.8578 12.688 65.0898 12.752 65.2818 12.848C65.4738 12.944 65.6098 13.08 65.6898 13.256C65.7858 13.416 65.7858 13.624 65.6898 13.88C65.6418 14.056 65.5298 14.232 65.3538 14.408C65.1938 14.568 64.9858 14.6 64.7298 14.504C64.6498 14.472 64.5538 14.456 64.4418 14.456C64.3458 14.44 64.2338 14.424 64.1058 14.408C63.6898 14.376 63.3458 14.432 63.0738 14.576C62.8178 14.704 62.6898 15 62.6898 15.464C62.6898 15.688 62.7378 15.872 62.8338 16.016C62.9458 16.16 63.0818 16.272 63.2418 16.352C63.4178 16.432 63.6098 16.496 63.8178 16.544C64.0258 16.576 64.2258 16.592 64.4178 16.592H65.0178C65.2898 16.592 65.4818 16.696 65.5938 16.904C65.7218 17.096 65.7858 17.328 65.7858 17.6C65.7858 17.92 65.6178 18.136 65.2818 18.248C64.9618 18.344 64.6098 18.392 64.2258 18.392C63.6178 18.392 63.2018 18.512 62.9778 18.752C62.7698 18.992 62.6818 19.344 62.7138 19.808C62.7298 20.096 62.8098 20.336 62.9538 20.528C63.1138 20.704 63.3058 20.84 63.5298 20.936C63.7538 21.032 64.0018 21.096 64.2738 21.128C64.5458 21.16 64.8178 21.176 65.0898 21.176ZM80.8987 21.896C80.8987 22.216 80.8027 22.48 80.6107 22.688C80.4187 22.896 80.1387 23 79.7707 23C79.4027 23 79.1147 22.88 78.9067 22.64C78.7147 22.384 78.6187 22.056 78.6187 21.656C78.3147 22.072 77.9067 22.408 77.3947 22.664C76.8827 22.904 76.3947 23.024 75.9307 23.024C74.7147 23.024 73.7227 22.696 72.9547 22.04C72.1867 21.368 71.8027 20.376 71.8027 19.064V13.4C71.8027 13.128 71.9067 12.88 72.1147 12.656C72.3227 12.432 72.6027 12.32 72.9547 12.32C73.2907 12.32 73.5627 12.432 73.7707 12.656C73.9947 12.88 74.1067 13.128 74.1067 13.4V19.064C74.1067 19.672 74.2907 20.128 74.6587 20.432C75.0427 20.736 75.5387 20.888 76.1467 20.888C76.6747 20.888 77.1707 20.712 77.6347 20.36C78.1147 20.008 78.4267 19.56 78.5707 19.016V13.4C78.5707 13.128 78.6747 12.88 78.8827 12.656C79.1067 12.432 79.3947 12.32 79.7467 12.32C80.0827 12.32 80.3547 12.432 80.5627 12.656C80.7867 12.88 80.8987 13.128 80.8987 13.4V21.896ZM85.6447 20.84C85.7727 20.744 85.9327 20.664 86.1247 20.6C86.3167 20.52 86.5647 20.536 86.8687 20.648C87.1887 20.776 87.3807 20.992 87.4447 21.296C87.5247 21.6 87.4687 21.912 87.2767 22.232C87.1647 22.392 87.0207 22.528 86.8447 22.64C86.6687 22.736 86.4927 22.816 86.3167 22.88C86.1407 22.944 85.9647 22.984 85.7887 23C85.6287 23.032 85.5087 23.048 85.4287 23.048C84.9327 23.048 84.5407 22.968 84.2527 22.808C83.9807 22.632 83.7727 22.392 83.6287 22.088C83.4847 21.784 83.3967 21.424 83.3647 21.008C83.3327 20.592 83.3167 20.128 83.3167 19.616V13.472C83.3167 13.136 83.4127 12.864 83.6047 12.656C83.8127 12.448 84.1087 12.344 84.4927 12.344C84.8607 12.344 85.1407 12.448 85.3327 12.656C85.5407 12.864 85.6447 13.136 85.6447 13.472V20.84ZM93.2555 23C91.8955 23 90.8155 22.624 90.0155 21.872C89.2155 21.12 88.8155 20.04 88.8155 18.632V18.296C88.8155 17.496 88.9995 16.776 89.3675 16.136C89.7355 15.48 90.2635 14.928 90.9515 14.48H89.9675C89.6475 14.48 89.3915 14.392 89.1995 14.216C89.0235 14.024 88.9355 13.776 88.9355 13.472C88.9355 13.152 89.0235 12.904 89.1995 12.728C89.3755 12.536 89.6315 12.44 89.9675 12.44H90.9275C91.0555 12.44 91.2395 12.464 91.4795 12.512C91.7195 12.544 91.9595 12.624 92.1995 12.752C92.4395 12.88 92.6475 13.064 92.8235 13.304C92.9995 13.544 93.0875 13.872 93.0875 14.288C93.0875 14.816 92.9675 15.24 92.7275 15.56C92.5035 15.864 92.2715 16.128 92.0315 16.352C91.8075 16.56 91.5915 16.8 91.3835 17.072C91.1915 17.344 91.0955 17.768 91.0955 18.344C91.0955 19.16 91.2635 19.784 91.5995 20.216C91.9515 20.648 92.5035 20.88 93.2555 20.912C93.4635 20.912 93.6875 20.888 93.9275 20.84C94.1675 20.776 94.3915 20.664 94.5995 20.504C94.8235 20.328 95.0075 20.096 95.1515 19.808C95.2955 19.504 95.3675 19.096 95.3675 18.584V13.544C95.3675 12.744 95.7435 12.344 96.4955 12.344C97.2635 12.344 97.6475 12.744 97.6475 13.544V18.776C97.6475 20.072 97.2635 21.104 96.4955 21.872C95.7275 22.624 94.6475 23 93.2555 23ZM97.8425 7.568C98.2105 7.568 98.4585 7.656 98.5865 7.832C98.7145 7.992 98.7465 8.2 98.6825 8.456C98.5385 9.064 98.3065 9.552 97.9865 9.92C97.6505 10.288 97.2825 10.568 96.8825 10.76C96.4665 10.952 96.0345 11.08 95.5865 11.144C95.1385 11.208 94.7065 11.232 94.2905 11.216C94.0825 11.2 93.8585 11.184 93.6185 11.168C93.3625 11.152 93.1545 11.12 92.9945 11.072C92.7705 10.992 92.6265 10.88 92.5625 10.736C92.4985 10.576 92.4665 10.392 92.4665 10.184V9.392H92.1785C91.8585 9.392 91.6185 9.328 91.4585 9.2C91.2825 9.072 91.1945 8.848 91.1945 8.528C91.1945 8.208 91.2825 7.992 91.4585 7.88C91.6345 7.752 91.8745 7.688 92.1785 7.688H93.3305C93.6985 7.688 93.9545 7.792 94.0985 8C94.2425 8.208 94.3145 8.456 94.3145 8.744V9.608C94.5065 9.608 94.7145 9.6 94.9385 9.584C95.1625 9.568 95.3785 9.528 95.5865 9.464C95.7945 9.384 95.9865 9.272 96.1625 9.128C96.3385 8.984 96.4905 8.776 96.6185 8.504C96.7465 8.248 96.8825 8.032 97.0265 7.856C97.1705 7.664 97.4425 7.568 97.8425 7.568ZM101.466 15.44C101.466 15.744 101.354 16 101.13 16.208C100.906 16.4 100.642 16.496 100.338 16.496C99.9865 16.496 99.7065 16.4 99.4985 16.208C99.2905 16 99.1865 15.792 99.1865 15.584C99.1865 15.136 99.2985 14.712 99.5225 14.312C99.7625 13.912 100.066 13.568 100.434 13.28C100.818 12.992 101.242 12.768 101.706 12.608C102.186 12.432 102.674 12.344 103.17 12.344C104.546 12.344 105.538 12.728 106.146 13.496C106.77 14.248 107.082 15.272 107.082 16.568V21.8C107.082 22.6 106.698 23 105.93 23C105.178 23 104.802 22.6 104.802 21.8V16.76C104.802 16.264 104.754 15.864 104.658 15.56C104.562 15.256 104.434 15.024 104.274 14.864C104.13 14.688 103.954 14.576 103.746 14.528C103.554 14.464 103.362 14.432 103.17 14.432C102.866 14.432 102.602 14.48 102.378 14.576C102.17 14.656 101.994 14.752 101.85 14.864C101.722 14.976 101.626 15.088 101.562 15.2C101.498 15.312 101.466 15.392 101.466 15.44ZM109.9 15.056C109.9 14.656 109.948 14.304 110.044 14C110.156 13.696 110.292 13.424 110.452 13.184C110.628 12.928 110.82 12.704 111.028 12.512C111.236 12.304 111.444 12.112 111.652 11.936C111.876 11.728 112.076 11.536 112.252 11.36C112.428 11.168 112.516 10.968 112.516 10.76C112.516 10.44 112.38 10.216 112.108 10.088C111.836 9.96 111.54 9.896 111.22 9.896C110.852 9.896 110.492 9.952 110.14 10.064C109.788 10.176 109.5 10.328 109.276 10.52C109.052 10.664 108.804 10.704 108.532 10.64C108.276 10.576 108.068 10.464 107.908 10.304C107.732 10.128 107.628 9.912 107.596 9.656C107.564 9.4 107.668 9.152 107.908 8.912C108.1 8.704 108.34 8.528 108.628 8.384C108.916 8.224 109.228 8.096 109.564 8C109.9 7.904 110.252 7.84 110.62 7.808C110.988 7.76 111.34 7.744 111.676 7.76C112.572 7.872 113.308 8.176 113.884 8.672C114.476 9.168 114.772 9.848 114.772 10.712C114.772 11.336 114.62 11.84 114.316 12.224C114.012 12.608 113.676 12.96 113.308 13.28C113.036 13.536 112.78 13.792 112.54 14.048C112.316 14.304 112.204 14.616 112.204 14.984V20.84C112.348 20.744 112.516 20.664 112.708 20.6C112.9 20.52 113.14 20.536 113.428 20.648C113.748 20.776 113.94 20.992 114.004 21.296C114.084 21.6 114.028 21.912 113.836 22.232C113.724 22.392 113.58 22.528 113.404 22.64C113.244 22.736 113.068 22.816 112.876 22.88C112.7 22.944 112.532 22.984 112.372 23C112.212 23.032 112.092 23.048 112.012 23.048C111.516 23.048 111.124 22.968 110.836 22.808C110.564 22.632 110.356 22.392 110.212 22.088C110.068 21.784 109.98 21.424 109.948 21.008C109.916 20.592 109.9 20.128 109.9 19.616V15.056ZM117.697 18.68C117.697 19.4 117.881 19.944 118.249 20.312C118.617 20.68 119.153 20.88 119.857 20.912C120.113 20.912 120.369 20.872 120.625 20.792C120.881 20.712 121.105 20.584 121.297 20.408C121.489 20.216 121.641 19.976 121.753 19.688C121.881 19.384 121.945 19.016 121.945 18.584V17.744C121.945 17.184 121.801 16.768 121.513 16.496C121.241 16.224 120.945 16 120.625 15.824C120.529 15.76 120.409 15.648 120.265 15.488C120.137 15.328 120.073 15.152 120.073 14.96C120.073 14.8 120.121 14.632 120.217 14.456C120.313 14.28 120.441 14.152 120.601 14.072H120.577C120.849 13.944 121.137 13.76 121.441 13.52C121.761 13.264 122.057 12.968 122.329 12.632V12.656C122.393 12.56 122.481 12.488 122.593 12.44C122.721 12.392 122.857 12.368 123.001 12.368C123.145 12.352 123.281 12.368 123.409 12.416C123.553 12.448 123.681 12.504 123.793 12.584C124.017 12.76 124.145 12.984 124.177 13.256C124.225 13.512 124.177 13.736 124.033 13.928C123.873 14.12 123.697 14.312 123.505 14.504C123.313 14.696 123.105 14.864 122.881 15.008C123.345 15.376 123.681 15.816 123.889 16.328C124.113 16.84 124.225 17.328 124.225 17.792V18.752C124.225 20.112 123.833 21.16 123.049 21.896C122.265 22.616 121.193 22.984 119.833 23C118.473 23 117.393 22.624 116.593 21.872C115.809 21.104 115.417 20.016 115.417 18.608V18.296C115.417 17.496 115.601 16.784 115.969 16.16C116.353 15.52 116.881 14.976 117.553 14.528C117.521 14.496 117.497 14.48 117.481 14.48H116.593C116.273 14.48 116.017 14.392 115.825 14.216C115.633 14.024 115.537 13.776 115.537 13.472C115.537 13.152 115.625 12.904 115.801 12.728C115.977 12.536 116.241 12.44 116.593 12.44H117.529C117.657 12.44 117.841 12.464 118.081 12.512C118.321 12.544 118.561 12.624 118.801 12.752C119.041 12.88 119.249 13.064 119.425 13.304C119.601 13.544 119.689 13.872 119.689 14.288C119.689 14.816 119.577 15.24 119.353 15.56C119.129 15.864 118.889 16.128 118.633 16.352C118.409 16.56 118.193 16.8 117.985 17.072C117.793 17.344 117.697 17.768 117.697 18.344V18.68ZM124.421 7.568C124.789 7.568 125.037 7.656 125.165 7.832C125.293 7.992 125.325 8.2 125.261 8.456C125.117 9.064 124.885 9.552 124.565 9.92C124.229 10.288 123.861 10.568 123.461 10.76C123.045 10.952 122.613 11.08 122.165 11.144C121.717 11.208 121.285 11.232 120.869 11.216C120.661 11.2 120.437 11.184 120.197 11.168C119.941 11.152 119.733 11.12 119.573 11.072C119.349 10.992 119.205 10.88 119.141 10.736C119.077 10.576 119.045 10.392 119.045 10.184V9.392H118.757C118.437 9.392 118.197 9.328 118.037 9.2C117.861 9.072 117.773 8.848 117.773 8.528C117.773 8.208 117.861 7.992 118.037 7.88C118.213 7.752 118.453 7.688 118.757 7.688H119.909C120.277 7.688 120.533 7.792 120.677 8C120.821 8.208 120.893 8.456 120.893 8.744V9.608C121.085 9.608 121.293 9.6 121.517 9.584C121.741 9.568 121.957 9.528 122.165 9.464C122.373 9.384 122.565 9.272 122.741 9.128C122.917 8.984 123.069 8.776 123.197 8.504C123.325 8.248 123.461 8.032 123.605 7.856C123.749 7.664 124.021 7.568 124.421 7.568ZM131.141 12.608C131.813 12.64 132.405 12.792 132.917 13.064C133.429 13.336 133.853 13.704 134.189 14.168C134.541 14.616 134.797 15.152 134.957 15.776C135.133 16.384 135.213 17.048 135.197 17.768C135.181 18.472 135.101 19.144 134.957 19.784C134.829 20.408 134.589 20.96 134.237 21.44C133.901 21.92 133.445 22.304 132.869 22.592C132.293 22.864 131.557 23 130.661 23C129.941 23 129.341 22.888 128.861 22.664C128.381 22.424 127.981 22.072 127.661 21.608C127.565 21.464 127.437 21.24 127.277 20.936C127.133 20.616 126.981 20.264 126.821 19.88C126.661 19.48 126.509 19.064 126.365 18.632C126.221 18.184 126.117 17.768 126.053 17.384C126.037 17.16 126.117 16.96 126.293 16.784C126.485 16.608 126.717 16.496 126.989 16.448C127.277 16.384 127.549 16.408 127.805 16.52C128.061 16.632 128.221 16.816 128.285 17.072C128.429 17.6 128.565 18.112 128.693 18.608C128.837 19.104 128.997 19.544 129.173 19.928C129.365 20.312 129.581 20.616 129.821 20.84C130.077 21.064 130.389 21.176 130.757 21.176C131.189 21.176 131.541 21.096 131.813 20.936C132.085 20.76 132.301 20.528 132.461 20.24C132.637 19.952 132.757 19.608 132.821 19.208C132.885 18.808 132.925 18.376 132.941 17.912C132.941 17.624 132.925 17.296 132.893 16.928C132.861 16.544 132.773 16.184 132.629 15.848C132.501 15.496 132.317 15.2 132.077 14.96C131.837 14.704 131.517 14.56 131.117 14.528C130.893 14.512 130.645 14.512 130.373 14.528C130.117 14.528 129.869 14.552 129.629 14.6C129.421 14.632 129.213 14.592 129.005 14.48C128.797 14.352 128.661 14.176 128.597 13.952C128.501 13.648 128.533 13.408 128.693 13.232C128.869 13.04 129.101 12.904 129.389 12.824C129.677 12.728 129.981 12.672 130.301 12.656C130.637 12.624 130.917 12.608 131.141 12.608ZM138.802 15.44C138.802 15.744 138.69 16 138.466 16.208C138.242 16.4 137.978 16.496 137.674 16.496C137.322 16.496 137.042 16.4 136.834 16.208C136.626 16 136.522 15.792 136.522 15.584C136.522 15.136 136.634 14.712 136.858 14.312C137.098 13.912 137.402 13.568 137.77 13.28C138.154 12.992 138.578 12.768 139.042 12.608C139.522 12.432 140.01 12.344 140.506 12.344C141.882 12.344 142.874 12.728 143.482 13.496C144.106 14.248 144.418 15.272 144.418 16.568V21.8C144.418 22.6 144.034 23 143.266 23C142.514 23 142.138 22.6 142.138 21.8V16.76C142.138 16.264 142.09 15.864 141.994 15.56C141.898 15.256 141.77 15.024 141.61 14.864C141.466 14.688 141.29 14.576 141.082 14.528C140.89 14.464 140.698 14.432 140.506 14.432C140.202 14.432 139.938 14.48 139.714 14.576C139.506 14.656 139.33 14.752 139.186 14.864C139.058 14.976 138.962 15.088 138.898 15.2C138.834 15.312 138.802 15.392 138.802 15.44ZM155.852 21.896C155.852 22.216 155.756 22.48 155.564 22.688C155.372 22.896 155.092 23 154.724 23C154.356 23 154.068 22.88 153.86 22.64C153.668 22.384 153.572 22.056 153.572 21.656C153.268 22.072 152.86 22.408 152.348 22.664C151.836 22.904 151.348 23.024 150.884 23.024C149.668 23.024 148.676 22.696 147.908 22.04C147.14 21.368 146.756 20.376 146.756 19.064V13.4C146.756 13.128 146.86 12.88 147.068 12.656C147.276 12.432 147.556 12.32 147.908 12.32C148.244 12.32 148.516 12.432 148.724 12.656C148.948 12.88 149.06 13.128 149.06 13.4V19.064C149.06 19.672 149.244 20.128 149.612 20.432C149.996 20.736 150.492 20.888 151.1 20.888C151.628 20.888 152.124 20.712 152.588 20.36C153.068 20.008 153.38 19.56 153.524 19.016V13.4C153.524 13.128 153.628 12.88 153.836 12.656C154.06 12.432 154.348 12.32 154.7 12.32C155.036 12.32 155.308 12.432 155.516 12.656C155.74 12.88 155.852 13.128 155.852 13.4V21.896ZM162.95 14.432C162.422 14.448 161.918 14.632 161.438 14.984C160.974 15.32 160.598 15.76 160.31 16.304V21.896C160.31 22.216 160.214 22.48 160.022 22.688C159.83 22.896 159.55 23 159.182 23C158.798 23 158.502 22.896 158.294 22.688C158.102 22.48 158.006 22.216 158.006 21.896V13.472C158.006 13.136 158.094 12.864 158.27 12.656C158.446 12.448 158.734 12.344 159.134 12.344C159.598 12.344 159.894 12.48 160.022 12.752C160.166 13.024 160.238 13.368 160.238 13.784C160.382 13.592 160.558 13.408 160.766 13.232C160.99 13.056 161.23 12.904 161.486 12.776C161.742 12.632 162.006 12.528 162.278 12.464C162.566 12.384 162.846 12.344 163.118 12.344C163.71 12.344 164.262 12.424 164.774 12.584C165.302 12.728 165.75 12.96 166.118 13.28C166.502 13.6 166.798 14.008 167.006 14.504C167.23 14.984 167.342 15.56 167.342 16.232V21.896C167.342 22.216 167.238 22.48 167.03 22.688C166.822 22.896 166.534 23 166.166 23C165.766 23 165.47 22.896 165.278 22.688C165.102 22.48 165.014 22.216 165.014 21.896V16.376C164.998 15.704 164.814 15.224 164.462 14.936C164.11 14.632 163.606 14.464 162.95 14.432ZM165.218 9.368V8.576C165.218 8.336 165.322 8.136 165.53 7.976C165.722 7.8 165.97 7.712 166.274 7.712C166.578 7.712 166.834 7.8 167.042 7.976C167.234 8.136 167.33 8.336 167.33 8.576V10.424C167.314 10.664 167.226 10.864 167.066 11.024C166.906 11.168 166.682 11.24 166.394 11.24H158.954C158.666 11.24 158.442 11.16 158.282 11C158.122 10.824 158.034 10.616 158.018 10.376C158.018 10.152 158.074 9.928 158.186 9.704C158.298 9.48 158.498 9.368 158.786 9.368H165.218ZM166.274 6.92C166.002 6.92 165.762 6.848 165.554 6.704C165.33 6.544 165.218 6.344 165.218 6.104V4.496C165.218 4.272 165.33 4.08 165.554 3.92C165.762 3.76 166.002 3.68 166.274 3.68C166.546 3.68 166.794 3.76 167.018 3.92C167.226 4.08 167.33 4.272 167.33 4.496V6.104C167.33 6.344 167.226 6.544 167.018 6.704C166.794 6.848 166.546 6.92 166.274 6.92ZM178.586 21.896C178.586 22.216 178.49 22.48 178.298 22.688C178.106 22.896 177.826 23 177.458 23C177.09 23 176.802 22.88 176.594 22.64C176.402 22.384 176.306 22.056 176.306 21.656C176.002 22.072 175.594 22.408 175.082 22.664C174.57 22.904 174.082 23.024 173.618 23.024C172.402 23.024 171.41 22.696 170.642 22.04C169.874 21.368 169.49 20.376 169.49 19.064V13.4C169.49 13.128 169.594 12.88 169.802 12.656C170.01 12.432 170.29 12.32 170.642 12.32C170.978 12.32 171.25 12.432 171.458 12.656C171.682 12.88 171.794 13.128 171.794 13.4V19.064C171.794 19.672 171.978 20.128 172.346 20.432C172.73 20.736 173.226 20.888 173.834 20.888C174.362 20.888 174.858 20.712 175.322 20.36C175.802 20.008 176.114 19.56 176.258 19.016V13.4C176.258 13.128 176.362 12.88 176.57 12.656C176.794 12.432 177.082 12.32 177.434 12.32C177.77 12.32 178.042 12.432 178.25 12.656C178.474 12.88 178.586 13.128 178.586 13.4V21.896ZM176.468 9.368V8.576C176.468 8.336 176.572 8.136 176.78 7.976C176.972 7.8 177.22 7.712 177.524 7.712C177.828 7.712 178.084 7.8 178.292 7.976C178.484 8.136 178.58 8.336 178.58 8.576V10.424C178.564 10.664 178.476 10.864 178.316 11.024C178.156 11.168 177.932 11.24 177.644 11.24H170.204C169.916 11.24 169.692 11.16 169.532 11C169.372 10.824 169.284 10.616 169.268 10.376C169.268 10.152 169.324 9.928 169.436 9.704C169.548 9.48 169.748 9.368 170.036 9.368H176.468ZM177.524 6.92C177.252 6.92 177.012 6.848 176.804 6.704C176.58 6.544 176.468 6.344 176.468 6.104V4.496C176.468 4.272 176.58 4.08 176.804 3.92C177.012 3.76 177.252 3.68 177.524 3.68C177.796 3.68 178.044 3.76 178.268 3.92C178.476 4.08 178.58 4.272 178.58 4.496V6.104C178.58 6.344 178.476 6.544 178.268 6.704C178.044 6.848 177.796 6.92 177.524 6.92Z" fill="#222222"/>
</svg>
